%TF.GenerationSoftware,KiCad,Pcbnew,(6.0.6)*%
%TF.CreationDate,2022-07-15T17:58:13+10:00*%
%TF.ProjectId,SolderingInduction,536f6c64-6572-4696-9e67-496e64756374,1.0.0*%
%TF.SameCoordinates,PX8f0d180PY8f0d180*%
%TF.FileFunction,Legend,Bot*%
%TF.FilePolarity,Positive*%
%FSLAX46Y46*%
G04 Gerber Fmt 4.6, Leading zero omitted, Abs format (unit mm)*
G04 Created by KiCad (PCBNEW (6.0.6)) date 2022-07-15 17:58:13*
%MOMM*%
%LPD*%
G01*
G04 APERTURE LIST*
%ADD10C,0.150000*%
%ADD11C,0.200000*%
%ADD12C,0.120000*%
%ADD13C,0.026458*%
%ADD14C,0.020000*%
G04 APERTURE END LIST*
D10*
X-2700000Y-1550000D02*
X-2700000Y900000D01*
X-1800000Y-6000000D02*
X-1800000Y-5175000D01*
X-6629289Y-9400000D02*
G75*
G03*
X-6629289Y-9400000I-70711J0D01*
G01*
X-1800000Y-2425000D02*
X-2700000Y-1550000D01*
X-1800000Y-5175000D02*
X-1800000Y-2425000D01*
X1300000Y-6000000D02*
X-1800000Y-6000000D01*
X-4400000Y4350000D02*
G75*
G03*
X-4400000Y4350000I-200000J0D01*
G01*
X-39239286Y-13795357D02*
X-39739286Y-13616785D01*
X-39239286Y-13438214D01*
X-39739286Y-12759642D02*
X-39739286Y-13188214D01*
X-39739286Y-12973928D02*
X-38989286Y-12973928D01*
X-39096429Y-13045357D01*
X-39167858Y-13116785D01*
X-39203572Y-13188214D01*
X-39667858Y-12438214D02*
X-39703572Y-12402500D01*
X-39739286Y-12438214D01*
X-39703572Y-12473928D01*
X-39667858Y-12438214D01*
X-39739286Y-12438214D01*
X-38989286Y-11938214D02*
X-38989286Y-11866785D01*
X-39025000Y-11795357D01*
X-39060715Y-11759642D01*
X-39132143Y-11723928D01*
X-39275000Y-11688214D01*
X-39453572Y-11688214D01*
X-39596429Y-11723928D01*
X-39667858Y-11759642D01*
X-39703572Y-11795357D01*
X-39739286Y-11866785D01*
X-39739286Y-11938214D01*
X-39703572Y-12009642D01*
X-39667858Y-12045357D01*
X-39596429Y-12081071D01*
X-39453572Y-12116785D01*
X-39275000Y-12116785D01*
X-39132143Y-12081071D01*
X-39060715Y-12045357D01*
X-39025000Y-12009642D01*
X-38989286Y-11938214D01*
X-39667858Y-11366785D02*
X-39703572Y-11331071D01*
X-39739286Y-11366785D01*
X-39703572Y-11402500D01*
X-39667858Y-11366785D01*
X-39739286Y-11366785D01*
X-38989286Y-10866785D02*
X-38989286Y-10795357D01*
X-39025000Y-10723928D01*
X-39060715Y-10688214D01*
X-39132143Y-10652500D01*
X-39275000Y-10616785D01*
X-39453572Y-10616785D01*
X-39596429Y-10652500D01*
X-39667858Y-10688214D01*
X-39703572Y-10723928D01*
X-39739286Y-10795357D01*
X-39739286Y-10866785D01*
X-39703572Y-10938214D01*
X-39667858Y-10973928D01*
X-39596429Y-11009642D01*
X-39453572Y-11045357D01*
X-39275000Y-11045357D01*
X-39132143Y-11009642D01*
X-39060715Y-10973928D01*
X-39025000Y-10938214D01*
X-38989286Y-10866785D01*
X-39703572Y-10259642D02*
X-39739286Y-10259642D01*
X-39810715Y-10295357D01*
X-39846429Y-10331071D01*
X-39739286Y-8938214D02*
X-39382143Y-9188214D01*
X-39739286Y-9366785D02*
X-38989286Y-9366785D01*
X-38989286Y-9081071D01*
X-39025000Y-9009642D01*
X-39060715Y-8973928D01*
X-39132143Y-8938214D01*
X-39239286Y-8938214D01*
X-39310715Y-8973928D01*
X-39346429Y-9009642D01*
X-39382143Y-9081071D01*
X-39382143Y-9366785D01*
X-39703572Y-8331071D02*
X-39739286Y-8402500D01*
X-39739286Y-8545357D01*
X-39703572Y-8616785D01*
X-39632143Y-8652500D01*
X-39346429Y-8652500D01*
X-39275000Y-8616785D01*
X-39239286Y-8545357D01*
X-39239286Y-8402500D01*
X-39275000Y-8331071D01*
X-39346429Y-8295357D01*
X-39417858Y-8295357D01*
X-39489286Y-8652500D01*
X-39239286Y-8045357D02*
X-39739286Y-7866785D01*
X-39239286Y-7688214D01*
X-38989286Y-6902500D02*
X-38989286Y-6438214D01*
X-39275000Y-6688214D01*
X-39275000Y-6581071D01*
X-39310715Y-6509642D01*
X-39346429Y-6473928D01*
X-39417858Y-6438214D01*
X-39596429Y-6438214D01*
X-39667858Y-6473928D01*
X-39703572Y-6509642D01*
X-39739286Y-6581071D01*
X-39739286Y-6795357D01*
X-39703572Y-6866785D01*
X-39667858Y-6902500D01*
X-39667858Y-6116785D02*
X-39703572Y-6081071D01*
X-39739286Y-6116785D01*
X-39703572Y-6152500D01*
X-39667858Y-6116785D01*
X-39739286Y-6116785D01*
X-39060715Y-5795357D02*
X-39025000Y-5759642D01*
X-38989286Y-5688214D01*
X-38989286Y-5509642D01*
X-39025000Y-5438214D01*
X-39060715Y-5402500D01*
X-39132143Y-5366785D01*
X-39203572Y-5366785D01*
X-39310715Y-5402500D01*
X-39739286Y-5831071D01*
X-39739286Y-5366785D01*
X-39667858Y-5045357D02*
X-39703572Y-5009642D01*
X-39739286Y-5045357D01*
X-39703572Y-5081071D01*
X-39667858Y-5045357D01*
X-39739286Y-5045357D01*
X-38989286Y-4545357D02*
X-38989286Y-4473928D01*
X-39025000Y-4402500D01*
X-39060715Y-4366785D01*
X-39132143Y-4331071D01*
X-39275000Y-4295357D01*
X-39453572Y-4295357D01*
X-39596429Y-4331071D01*
X-39667858Y-4366785D01*
X-39703572Y-4402500D01*
X-39739286Y-4473928D01*
X-39739286Y-4545357D01*
X-39703572Y-4616785D01*
X-39667858Y-4652500D01*
X-39596429Y-4688214D01*
X-39453572Y-4723928D01*
X-39275000Y-4723928D01*
X-39132143Y-4688214D01*
X-39060715Y-4652500D01*
X-39025000Y-4616785D01*
X-38989286Y-4545357D01*
X-6814286Y-339285D02*
X-6385715Y-339285D01*
X-6600000Y-339285D02*
X-6600000Y410715D01*
X-6528572Y303572D01*
X-6457143Y232143D01*
X-6385715Y196429D01*
X-17339286Y13714286D02*
X-17339286Y13285715D01*
X-17339286Y13500000D02*
X-16589286Y13500000D01*
X-16696429Y13428572D01*
X-16767858Y13357143D01*
X-16803572Y13285715D01*
X-41739286Y-13495357D02*
X-41382143Y-13745357D01*
X-41739286Y-13923928D02*
X-40989286Y-13923928D01*
X-40989286Y-13638214D01*
X-41025000Y-13566785D01*
X-41060715Y-13531071D01*
X-41132143Y-13495357D01*
X-41239286Y-13495357D01*
X-41310715Y-13531071D01*
X-41346429Y-13566785D01*
X-41382143Y-13638214D01*
X-41382143Y-13923928D01*
X-41739286Y-13173928D02*
X-40989286Y-13173928D01*
X-40989286Y-12888214D01*
X-41025000Y-12816785D01*
X-41060715Y-12781071D01*
X-41132143Y-12745357D01*
X-41239286Y-12745357D01*
X-41310715Y-12781071D01*
X-41346429Y-12816785D01*
X-41382143Y-12888214D01*
X-41382143Y-13173928D01*
X-41060715Y-12459642D02*
X-41025000Y-12423928D01*
X-40989286Y-12352500D01*
X-40989286Y-12173928D01*
X-41025000Y-12102500D01*
X-41060715Y-12066785D01*
X-41132143Y-12031071D01*
X-41203572Y-12031071D01*
X-41310715Y-12066785D01*
X-41739286Y-12495357D01*
X-41739286Y-12031071D01*
X-40989286Y-11566785D02*
X-40989286Y-11495357D01*
X-41025000Y-11423928D01*
X-41060715Y-11388214D01*
X-41132143Y-11352500D01*
X-41275000Y-11316785D01*
X-41453572Y-11316785D01*
X-41596429Y-11352500D01*
X-41667858Y-11388214D01*
X-41703572Y-11423928D01*
X-41739286Y-11495357D01*
X-41739286Y-11566785D01*
X-41703572Y-11638214D01*
X-41667858Y-11673928D01*
X-41596429Y-11709642D01*
X-41453572Y-11745357D01*
X-41275000Y-11745357D01*
X-41132143Y-11709642D01*
X-41060715Y-11673928D01*
X-41025000Y-11638214D01*
X-40989286Y-11566785D01*
X-41239286Y-10673928D02*
X-41739286Y-10673928D01*
X-40953572Y-10852500D02*
X-41489286Y-11031071D01*
X-41489286Y-10566785D01*
X-40989286Y-10138214D02*
X-40989286Y-10066785D01*
X-41025000Y-9995357D01*
X-41060715Y-9959642D01*
X-41132143Y-9923928D01*
X-41275000Y-9888214D01*
X-41453572Y-9888214D01*
X-41596429Y-9923928D01*
X-41667858Y-9959642D01*
X-41703572Y-9995357D01*
X-41739286Y-10066785D01*
X-41739286Y-10138214D01*
X-41703572Y-10209642D01*
X-41667858Y-10245357D01*
X-41596429Y-10281071D01*
X-41453572Y-10316785D01*
X-41275000Y-10316785D01*
X-41132143Y-10281071D01*
X-41060715Y-10245357D01*
X-41025000Y-10209642D01*
X-40989286Y-10138214D01*
X-41453572Y-9566785D02*
X-41453572Y-8995357D01*
X-41346429Y-8388214D02*
X-41382143Y-8281071D01*
X-41417858Y-8245357D01*
X-41489286Y-8209642D01*
X-41596429Y-8209642D01*
X-41667858Y-8245357D01*
X-41703572Y-8281071D01*
X-41739286Y-8352500D01*
X-41739286Y-8638214D01*
X-40989286Y-8638214D01*
X-40989286Y-8388214D01*
X-41025000Y-8316785D01*
X-41060715Y-8281071D01*
X-41132143Y-8245357D01*
X-41203572Y-8245357D01*
X-41275000Y-8281071D01*
X-41310715Y-8316785D01*
X-41346429Y-8388214D01*
X-41346429Y-8638214D01*
X-41739286Y-7566785D02*
X-41346429Y-7566785D01*
X-41275000Y-7602500D01*
X-41239286Y-7673928D01*
X-41239286Y-7816785D01*
X-41275000Y-7888214D01*
X-41703572Y-7566785D02*
X-41739286Y-7638214D01*
X-41739286Y-7816785D01*
X-41703572Y-7888214D01*
X-41632143Y-7923928D01*
X-41560715Y-7923928D01*
X-41489286Y-7888214D01*
X-41453572Y-7816785D01*
X-41453572Y-7638214D01*
X-41417858Y-7566785D01*
X-41703572Y-7245357D02*
X-41739286Y-7173928D01*
X-41739286Y-7031071D01*
X-41703572Y-6959642D01*
X-41632143Y-6923928D01*
X-41596429Y-6923928D01*
X-41525000Y-6959642D01*
X-41489286Y-7031071D01*
X-41489286Y-7138214D01*
X-41453572Y-7209642D01*
X-41382143Y-7245357D01*
X-41346429Y-7245357D01*
X-41275000Y-7209642D01*
X-41239286Y-7138214D01*
X-41239286Y-7031071D01*
X-41275000Y-6959642D01*
X-41703572Y-6316785D02*
X-41739286Y-6388214D01*
X-41739286Y-6531071D01*
X-41703572Y-6602500D01*
X-41632143Y-6638214D01*
X-41346429Y-6638214D01*
X-41275000Y-6602500D01*
X-41239286Y-6531071D01*
X-41239286Y-6388214D01*
X-41275000Y-6316785D01*
X-41346429Y-6281071D01*
X-41417858Y-6281071D01*
X-41489286Y-6638214D01*
X-41739286Y-5638214D02*
X-40989286Y-5638214D01*
X-41703572Y-5638214D02*
X-41739286Y-5709642D01*
X-41739286Y-5852500D01*
X-41703572Y-5923928D01*
X-41667858Y-5959642D01*
X-41596429Y-5995357D01*
X-41382143Y-5995357D01*
X-41310715Y-5959642D01*
X-41275000Y-5923928D01*
X-41239286Y-5852500D01*
X-41239286Y-5709642D01*
X-41275000Y-5638214D01*
X-40989286Y-4816785D02*
X-41739286Y-4566785D01*
X-40989286Y-4316785D01*
X-41739286Y-4066785D02*
X-41239286Y-4066785D01*
X-40989286Y-4066785D02*
X-41025000Y-4102500D01*
X-41060715Y-4066785D01*
X-41025000Y-4031071D01*
X-40989286Y-4066785D01*
X-41060715Y-4066785D01*
X-41739286Y-3388214D02*
X-40989286Y-3388214D01*
X-41703572Y-3388214D02*
X-41739286Y-3459642D01*
X-41739286Y-3602500D01*
X-41703572Y-3673928D01*
X-41667858Y-3709642D01*
X-41596429Y-3745357D01*
X-41382143Y-3745357D01*
X-41310715Y-3709642D01*
X-41275000Y-3673928D01*
X-41239286Y-3602500D01*
X-41239286Y-3459642D01*
X-41275000Y-3388214D01*
X-41703572Y-2745357D02*
X-41739286Y-2816785D01*
X-41739286Y-2959642D01*
X-41703572Y-3031071D01*
X-41632143Y-3066785D01*
X-41346429Y-3066785D01*
X-41275000Y-3031071D01*
X-41239286Y-2959642D01*
X-41239286Y-2816785D01*
X-41275000Y-2745357D01*
X-41346429Y-2709642D01*
X-41417858Y-2709642D01*
X-41489286Y-3066785D01*
X-41739286Y-2281071D02*
X-41703572Y-2352500D01*
X-41667858Y-2388214D01*
X-41596429Y-2423928D01*
X-41382143Y-2423928D01*
X-41310715Y-2388214D01*
X-41275000Y-2352500D01*
X-41239286Y-2281071D01*
X-41239286Y-2173928D01*
X-41275000Y-2102500D01*
X-41310715Y-2066785D01*
X-41382143Y-2031071D01*
X-41596429Y-2031071D01*
X-41667858Y-2066785D01*
X-41703572Y-2102500D01*
X-41739286Y-2173928D01*
X-41739286Y-2281071D01*
X-41025000Y-745357D02*
X-40989286Y-816785D01*
X-40989286Y-923928D01*
X-41025000Y-1031071D01*
X-41096429Y-1102500D01*
X-41167858Y-1138214D01*
X-41310715Y-1173928D01*
X-41417858Y-1173928D01*
X-41560715Y-1138214D01*
X-41632143Y-1102500D01*
X-41703572Y-1031071D01*
X-41739286Y-923928D01*
X-41739286Y-852500D01*
X-41703572Y-745357D01*
X-41667858Y-709642D01*
X-41417858Y-709642D01*
X-41417858Y-852500D01*
X-41739286Y-66785D02*
X-41346429Y-66785D01*
X-41275000Y-102500D01*
X-41239286Y-173928D01*
X-41239286Y-316785D01*
X-41275000Y-388214D01*
X-41703572Y-66785D02*
X-41739286Y-138214D01*
X-41739286Y-316785D01*
X-41703572Y-388214D01*
X-41632143Y-423928D01*
X-41560715Y-423928D01*
X-41489286Y-388214D01*
X-41453572Y-316785D01*
X-41453572Y-138214D01*
X-41417858Y-66785D01*
X-41739286Y290358D02*
X-41239286Y290358D01*
X-41310715Y290358D02*
X-41275000Y326072D01*
X-41239286Y397500D01*
X-41239286Y504643D01*
X-41275000Y576072D01*
X-41346429Y611786D01*
X-41739286Y611786D01*
X-41346429Y611786D02*
X-41275000Y647500D01*
X-41239286Y718929D01*
X-41239286Y826072D01*
X-41275000Y897500D01*
X-41346429Y933215D01*
X-41739286Y933215D01*
X-41703572Y1576072D02*
X-41739286Y1504643D01*
X-41739286Y1361786D01*
X-41703572Y1290358D01*
X-41632143Y1254643D01*
X-41346429Y1254643D01*
X-41275000Y1290358D01*
X-41239286Y1361786D01*
X-41239286Y1504643D01*
X-41275000Y1576072D01*
X-41346429Y1611786D01*
X-41417858Y1611786D01*
X-41489286Y1254643D01*
X-41667858Y2933215D02*
X-41703572Y2897500D01*
X-41739286Y2790358D01*
X-41739286Y2718929D01*
X-41703572Y2611786D01*
X-41632143Y2540358D01*
X-41560715Y2504643D01*
X-41417858Y2468929D01*
X-41310715Y2468929D01*
X-41167858Y2504643D01*
X-41096429Y2540358D01*
X-41025000Y2611786D01*
X-40989286Y2718929D01*
X-40989286Y2790358D01*
X-41025000Y2897500D01*
X-41060715Y2933215D01*
X-41739286Y3361786D02*
X-41703572Y3290358D01*
X-41667858Y3254643D01*
X-41596429Y3218929D01*
X-41382143Y3218929D01*
X-41310715Y3254643D01*
X-41275000Y3290358D01*
X-41239286Y3361786D01*
X-41239286Y3468929D01*
X-41275000Y3540358D01*
X-41310715Y3576072D01*
X-41382143Y3611786D01*
X-41596429Y3611786D01*
X-41667858Y3576072D01*
X-41703572Y3540358D01*
X-41739286Y3468929D01*
X-41739286Y3361786D01*
X-41239286Y3933215D02*
X-41739286Y3933215D01*
X-41310715Y3933215D02*
X-41275000Y3968929D01*
X-41239286Y4040358D01*
X-41239286Y4147500D01*
X-41275000Y4218929D01*
X-41346429Y4254643D01*
X-41739286Y4254643D01*
X-41239286Y4504643D02*
X-41239286Y4790358D01*
X-40989286Y4611786D02*
X-41632143Y4611786D01*
X-41703572Y4647500D01*
X-41739286Y4718929D01*
X-41739286Y4790358D01*
X-41739286Y5040358D02*
X-41239286Y5040358D01*
X-41382143Y5040358D02*
X-41310715Y5076072D01*
X-41275000Y5111786D01*
X-41239286Y5183215D01*
X-41239286Y5254643D01*
X-41739286Y5611786D02*
X-41703572Y5540358D01*
X-41667858Y5504643D01*
X-41596429Y5468929D01*
X-41382143Y5468929D01*
X-41310715Y5504643D01*
X-41275000Y5540358D01*
X-41239286Y5611786D01*
X-41239286Y5718929D01*
X-41275000Y5790358D01*
X-41310715Y5826072D01*
X-41382143Y5861786D01*
X-41596429Y5861786D01*
X-41667858Y5826072D01*
X-41703572Y5790358D01*
X-41739286Y5718929D01*
X-41739286Y5611786D01*
X-41739286Y6290358D02*
X-41703572Y6218929D01*
X-41632143Y6183215D01*
X-40989286Y6183215D01*
X-41739286Y6683215D02*
X-41703572Y6611786D01*
X-41632143Y6576072D01*
X-40989286Y6576072D01*
X-41703572Y7254643D02*
X-41739286Y7183215D01*
X-41739286Y7040358D01*
X-41703572Y6968929D01*
X-41632143Y6933215D01*
X-41346429Y6933215D01*
X-41275000Y6968929D01*
X-41239286Y7040358D01*
X-41239286Y7183215D01*
X-41275000Y7254643D01*
X-41346429Y7290358D01*
X-41417858Y7290358D01*
X-41489286Y6933215D01*
X-41739286Y7611786D02*
X-41239286Y7611786D01*
X-41382143Y7611786D02*
X-41310715Y7647500D01*
X-41275000Y7683215D01*
X-41239286Y7754643D01*
X-41239286Y7826072D01*
X32910714Y11992858D02*
X32910714Y12457143D01*
X32625000Y12207143D01*
X32625000Y12314286D01*
X32589285Y12385715D01*
X32553571Y12421429D01*
X32482142Y12457143D01*
X32303571Y12457143D01*
X32232142Y12421429D01*
X32196428Y12385715D01*
X32160714Y12314286D01*
X32160714Y12100000D01*
X32196428Y12028572D01*
X32232142Y11992858D01*
X32160714Y12814286D02*
X32160714Y12957143D01*
X32196428Y13028572D01*
X32232142Y13064286D01*
X32339285Y13135715D01*
X32482142Y13171429D01*
X32767857Y13171429D01*
X32839285Y13135715D01*
X32875000Y13100000D01*
X32910714Y13028572D01*
X32910714Y12885715D01*
X32875000Y12814286D01*
X32839285Y12778572D01*
X32767857Y12742858D01*
X32589285Y12742858D01*
X32517857Y12778572D01*
X32482142Y12814286D01*
X32446428Y12885715D01*
X32446428Y13028572D01*
X32482142Y13100000D01*
X32517857Y13135715D01*
X32589285Y13171429D01*
%TO.C,R3*%
X-11160715Y6275000D02*
X-11517858Y6525000D01*
X-11160715Y6703572D02*
X-11910715Y6703572D01*
X-11910715Y6417858D01*
X-11875000Y6346429D01*
X-11839286Y6310715D01*
X-11767858Y6275000D01*
X-11660715Y6275000D01*
X-11589286Y6310715D01*
X-11553572Y6346429D01*
X-11517858Y6417858D01*
X-11517858Y6703572D01*
X-11910715Y6025000D02*
X-11910715Y5560715D01*
X-11625000Y5810715D01*
X-11625000Y5703572D01*
X-11589286Y5632143D01*
X-11553572Y5596429D01*
X-11482143Y5560715D01*
X-11303572Y5560715D01*
X-11232143Y5596429D01*
X-11196429Y5632143D01*
X-11160715Y5703572D01*
X-11160715Y5917858D01*
X-11196429Y5989286D01*
X-11232143Y6025000D01*
%TO.C,R4*%
X-21360715Y9725000D02*
X-21717858Y9975000D01*
X-21360715Y10153572D02*
X-22110715Y10153572D01*
X-22110715Y9867858D01*
X-22075000Y9796429D01*
X-22039286Y9760715D01*
X-21967858Y9725000D01*
X-21860715Y9725000D01*
X-21789286Y9760715D01*
X-21753572Y9796429D01*
X-21717858Y9867858D01*
X-21717858Y10153572D01*
X-21860715Y9082143D02*
X-21360715Y9082143D01*
X-22146429Y9260715D02*
X-21610715Y9439286D01*
X-21610715Y8975000D01*
%TO.C,R2*%
X-12910715Y6275000D02*
X-13267858Y6525000D01*
X-12910715Y6703572D02*
X-13660715Y6703572D01*
X-13660715Y6417858D01*
X-13625000Y6346429D01*
X-13589286Y6310715D01*
X-13517858Y6275000D01*
X-13410715Y6275000D01*
X-13339286Y6310715D01*
X-13303572Y6346429D01*
X-13267858Y6417858D01*
X-13267858Y6703572D01*
X-13589286Y5989286D02*
X-13625000Y5953572D01*
X-13660715Y5882143D01*
X-13660715Y5703572D01*
X-13625000Y5632143D01*
X-13589286Y5596429D01*
X-13517858Y5560715D01*
X-13446429Y5560715D01*
X-13339286Y5596429D01*
X-12910715Y6025000D01*
X-12910715Y5560715D01*
%TO.C,R8*%
X-26356250Y6660715D02*
X-26106250Y7017858D01*
X-25927679Y6660715D02*
X-25927679Y7410715D01*
X-26213393Y7410715D01*
X-26284822Y7375000D01*
X-26320536Y7339286D01*
X-26356250Y7267858D01*
X-26356250Y7160715D01*
X-26320536Y7089286D01*
X-26284822Y7053572D01*
X-26213393Y7017858D01*
X-25927679Y7017858D01*
X-26784822Y7089286D02*
X-26713393Y7125000D01*
X-26677679Y7160715D01*
X-26641965Y7232143D01*
X-26641965Y7267858D01*
X-26677679Y7339286D01*
X-26713393Y7375000D01*
X-26784822Y7410715D01*
X-26927679Y7410715D01*
X-26999108Y7375000D01*
X-27034822Y7339286D01*
X-27070536Y7267858D01*
X-27070536Y7232143D01*
X-27034822Y7160715D01*
X-26999108Y7125000D01*
X-26927679Y7089286D01*
X-26784822Y7089286D01*
X-26713393Y7053572D01*
X-26677679Y7017858D01*
X-26641965Y6946429D01*
X-26641965Y6803572D01*
X-26677679Y6732143D01*
X-26713393Y6696429D01*
X-26784822Y6660715D01*
X-26927679Y6660715D01*
X-26999108Y6696429D01*
X-27034822Y6732143D01*
X-27070536Y6803572D01*
X-27070536Y6946429D01*
X-27034822Y7017858D01*
X-26999108Y7053572D01*
X-26927679Y7089286D01*
%TO.C,C7*%
X-775000Y10232143D02*
X-739286Y10196429D01*
X-632143Y10160715D01*
X-560715Y10160715D01*
X-453572Y10196429D01*
X-382143Y10267858D01*
X-346429Y10339286D01*
X-310715Y10482143D01*
X-310715Y10589286D01*
X-346429Y10732143D01*
X-382143Y10803572D01*
X-453572Y10875000D01*
X-560715Y10910715D01*
X-632143Y10910715D01*
X-739286Y10875000D01*
X-775000Y10839286D01*
X-1025000Y10910715D02*
X-1525000Y10910715D01*
X-1203572Y10160715D01*
%TO.C,U3*%
X-10660715Y9071429D02*
X-10053572Y9071429D01*
X-9982143Y9035715D01*
X-9946429Y9000000D01*
X-9910715Y8928572D01*
X-9910715Y8785715D01*
X-9946429Y8714286D01*
X-9982143Y8678572D01*
X-10053572Y8642858D01*
X-10660715Y8642858D01*
X-10660715Y8357143D02*
X-10660715Y7892858D01*
X-10375000Y8142858D01*
X-10375000Y8035715D01*
X-10339286Y7964286D01*
X-10303572Y7928572D01*
X-10232143Y7892858D01*
X-10053572Y7892858D01*
X-9982143Y7928572D01*
X-9946429Y7964286D01*
X-9910715Y8035715D01*
X-9910715Y8250000D01*
X-9946429Y8321429D01*
X-9982143Y8357143D01*
%TO.C,C14*%
X-1117858Y-7367857D02*
X-1082143Y-7403571D01*
X-975000Y-7439285D01*
X-903572Y-7439285D01*
X-796429Y-7403571D01*
X-725000Y-7332142D01*
X-689286Y-7260714D01*
X-653572Y-7117857D01*
X-653572Y-7010714D01*
X-689286Y-6867857D01*
X-725000Y-6796428D01*
X-796429Y-6725000D01*
X-903572Y-6689285D01*
X-975000Y-6689285D01*
X-1082143Y-6725000D01*
X-1117858Y-6760714D01*
X-1832143Y-7439285D02*
X-1403572Y-7439285D01*
X-1617858Y-7439285D02*
X-1617858Y-6689285D01*
X-1546429Y-6796428D01*
X-1475000Y-6867857D01*
X-1403572Y-6903571D01*
X-2475000Y-6939285D02*
X-2475000Y-7439285D01*
X-2296429Y-6653571D02*
X-2117858Y-7189285D01*
X-2582143Y-7189285D01*
%TO.C,C18*%
X382142Y-5017857D02*
X417857Y-5053571D01*
X525000Y-5089285D01*
X596428Y-5089285D01*
X703571Y-5053571D01*
X775000Y-4982142D01*
X810714Y-4910714D01*
X846428Y-4767857D01*
X846428Y-4660714D01*
X810714Y-4517857D01*
X775000Y-4446428D01*
X703571Y-4375000D01*
X596428Y-4339285D01*
X525000Y-4339285D01*
X417857Y-4375000D01*
X382142Y-4410714D01*
X-332143Y-5089285D02*
X96428Y-5089285D01*
X-117858Y-5089285D02*
X-117858Y-4339285D01*
X-46429Y-4446428D01*
X25000Y-4517857D01*
X96428Y-4553571D01*
X-760715Y-4660714D02*
X-689286Y-4625000D01*
X-653572Y-4589285D01*
X-617858Y-4517857D01*
X-617858Y-4482142D01*
X-653572Y-4410714D01*
X-689286Y-4375000D01*
X-760715Y-4339285D01*
X-903572Y-4339285D01*
X-975000Y-4375000D01*
X-1010715Y-4410714D01*
X-1046429Y-4482142D01*
X-1046429Y-4517857D01*
X-1010715Y-4589285D01*
X-975000Y-4625000D01*
X-903572Y-4660714D01*
X-760715Y-4660714D01*
X-689286Y-4696428D01*
X-653572Y-4732142D01*
X-617858Y-4803571D01*
X-617858Y-4946428D01*
X-653572Y-5017857D01*
X-689286Y-5053571D01*
X-760715Y-5089285D01*
X-903572Y-5089285D01*
X-975000Y-5053571D01*
X-1010715Y-5017857D01*
X-1046429Y-4946428D01*
X-1046429Y-4803571D01*
X-1010715Y-4732142D01*
X-975000Y-4696428D01*
X-903572Y-4660714D01*
%TO.C,C11*%
X-21517858Y-5267857D02*
X-21482143Y-5303571D01*
X-21375000Y-5339285D01*
X-21303572Y-5339285D01*
X-21196429Y-5303571D01*
X-21125000Y-5232142D01*
X-21089286Y-5160714D01*
X-21053572Y-5017857D01*
X-21053572Y-4910714D01*
X-21089286Y-4767857D01*
X-21125000Y-4696428D01*
X-21196429Y-4625000D01*
X-21303572Y-4589285D01*
X-21375000Y-4589285D01*
X-21482143Y-4625000D01*
X-21517858Y-4660714D01*
X-22232143Y-5339285D02*
X-21803572Y-5339285D01*
X-22017858Y-5339285D02*
X-22017858Y-4589285D01*
X-21946429Y-4696428D01*
X-21875000Y-4767857D01*
X-21803572Y-4803571D01*
X-22946429Y-5339285D02*
X-22517858Y-5339285D01*
X-22732143Y-5339285D02*
X-22732143Y-4589285D01*
X-22660715Y-4696428D01*
X-22589286Y-4767857D01*
X-22517858Y-4803571D01*
%TO.C,C15*%
X-21517858Y-6407857D02*
X-21482143Y-6443571D01*
X-21375000Y-6479285D01*
X-21303572Y-6479285D01*
X-21196429Y-6443571D01*
X-21125000Y-6372142D01*
X-21089286Y-6300714D01*
X-21053572Y-6157857D01*
X-21053572Y-6050714D01*
X-21089286Y-5907857D01*
X-21125000Y-5836428D01*
X-21196429Y-5765000D01*
X-21303572Y-5729285D01*
X-21375000Y-5729285D01*
X-21482143Y-5765000D01*
X-21517858Y-5800714D01*
X-22232143Y-6479285D02*
X-21803572Y-6479285D01*
X-22017858Y-6479285D02*
X-22017858Y-5729285D01*
X-21946429Y-5836428D01*
X-21875000Y-5907857D01*
X-21803572Y-5943571D01*
X-22910715Y-5729285D02*
X-22553572Y-5729285D01*
X-22517858Y-6086428D01*
X-22553572Y-6050714D01*
X-22625000Y-6015000D01*
X-22803572Y-6015000D01*
X-22875000Y-6050714D01*
X-22910715Y-6086428D01*
X-22946429Y-6157857D01*
X-22946429Y-6336428D01*
X-22910715Y-6407857D01*
X-22875000Y-6443571D01*
X-22803572Y-6479285D01*
X-22625000Y-6479285D01*
X-22553572Y-6443571D01*
X-22517858Y-6407857D01*
%TO.C,C6*%
X-10875000Y-16767857D02*
X-10839286Y-16803571D01*
X-10732143Y-16839285D01*
X-10660715Y-16839285D01*
X-10553572Y-16803571D01*
X-10482143Y-16732142D01*
X-10446429Y-16660714D01*
X-10410715Y-16517857D01*
X-10410715Y-16410714D01*
X-10446429Y-16267857D01*
X-10482143Y-16196428D01*
X-10553572Y-16125000D01*
X-10660715Y-16089285D01*
X-10732143Y-16089285D01*
X-10839286Y-16125000D01*
X-10875000Y-16160714D01*
X-11517858Y-16089285D02*
X-11375000Y-16089285D01*
X-11303572Y-16125000D01*
X-11267858Y-16160714D01*
X-11196429Y-16267857D01*
X-11160715Y-16410714D01*
X-11160715Y-16696428D01*
X-11196429Y-16767857D01*
X-11232143Y-16803571D01*
X-11303572Y-16839285D01*
X-11446429Y-16839285D01*
X-11517858Y-16803571D01*
X-11553572Y-16767857D01*
X-11589286Y-16696428D01*
X-11589286Y-16517857D01*
X-11553572Y-16446428D01*
X-11517858Y-16410714D01*
X-11446429Y-16375000D01*
X-11303572Y-16375000D01*
X-11232143Y-16410714D01*
X-11196429Y-16446428D01*
X-11160715Y-16517857D01*
%TO.C,Y1*%
X-5642858Y-7482142D02*
X-5642858Y-7839285D01*
X-5392858Y-7089285D02*
X-5642858Y-7482142D01*
X-5892858Y-7089285D01*
X-6535715Y-7839285D02*
X-6107143Y-7839285D01*
X-6321429Y-7839285D02*
X-6321429Y-7089285D01*
X-6250000Y-7196428D01*
X-6178572Y-7267857D01*
X-6107143Y-7303571D01*
%TO.C,C5*%
X-4125000Y-9267857D02*
X-4089286Y-9303571D01*
X-3982143Y-9339285D01*
X-3910715Y-9339285D01*
X-3803572Y-9303571D01*
X-3732143Y-9232142D01*
X-3696429Y-9160714D01*
X-3660715Y-9017857D01*
X-3660715Y-8910714D01*
X-3696429Y-8767857D01*
X-3732143Y-8696428D01*
X-3803572Y-8625000D01*
X-3910715Y-8589285D01*
X-3982143Y-8589285D01*
X-4089286Y-8625000D01*
X-4125000Y-8660714D01*
X-4803572Y-8589285D02*
X-4446429Y-8589285D01*
X-4410715Y-8946428D01*
X-4446429Y-8910714D01*
X-4517858Y-8875000D01*
X-4696429Y-8875000D01*
X-4767858Y-8910714D01*
X-4803572Y-8946428D01*
X-4839286Y-9017857D01*
X-4839286Y-9196428D01*
X-4803572Y-9267857D01*
X-4767858Y-9303571D01*
X-4696429Y-9339285D01*
X-4517858Y-9339285D01*
X-4446429Y-9303571D01*
X-4410715Y-9267857D01*
%TO.C,C9*%
X-14632143Y6275000D02*
X-14596429Y6310715D01*
X-14560715Y6417858D01*
X-14560715Y6489286D01*
X-14596429Y6596429D01*
X-14667858Y6667858D01*
X-14739286Y6703572D01*
X-14882143Y6739286D01*
X-14989286Y6739286D01*
X-15132143Y6703572D01*
X-15203572Y6667858D01*
X-15275000Y6596429D01*
X-15310715Y6489286D01*
X-15310715Y6417858D01*
X-15275000Y6310715D01*
X-15239286Y6275000D01*
X-14560715Y5917858D02*
X-14560715Y5775000D01*
X-14596429Y5703572D01*
X-14632143Y5667858D01*
X-14739286Y5596429D01*
X-14882143Y5560715D01*
X-15167858Y5560715D01*
X-15239286Y5596429D01*
X-15275000Y5632143D01*
X-15310715Y5703572D01*
X-15310715Y5846429D01*
X-15275000Y5917858D01*
X-15239286Y5953572D01*
X-15167858Y5989286D01*
X-14989286Y5989286D01*
X-14917858Y5953572D01*
X-14882143Y5917858D01*
X-14846429Y5846429D01*
X-14846429Y5703572D01*
X-14882143Y5632143D01*
X-14917858Y5596429D01*
X-14989286Y5560715D01*
%TO.C,C2*%
X-26375000Y-2767857D02*
X-26339286Y-2803571D01*
X-26232143Y-2839285D01*
X-26160715Y-2839285D01*
X-26053572Y-2803571D01*
X-25982143Y-2732142D01*
X-25946429Y-2660714D01*
X-25910715Y-2517857D01*
X-25910715Y-2410714D01*
X-25946429Y-2267857D01*
X-25982143Y-2196428D01*
X-26053572Y-2125000D01*
X-26160715Y-2089285D01*
X-26232143Y-2089285D01*
X-26339286Y-2125000D01*
X-26375000Y-2160714D01*
X-26660715Y-2160714D02*
X-26696429Y-2125000D01*
X-26767858Y-2089285D01*
X-26946429Y-2089285D01*
X-27017858Y-2125000D01*
X-27053572Y-2160714D01*
X-27089286Y-2232142D01*
X-27089286Y-2303571D01*
X-27053572Y-2410714D01*
X-26625000Y-2839285D01*
X-27089286Y-2839285D01*
%TO.C,R6*%
X-1125000Y3910715D02*
X-875000Y4267858D01*
X-696429Y3910715D02*
X-696429Y4660715D01*
X-982143Y4660715D01*
X-1053572Y4625000D01*
X-1089286Y4589286D01*
X-1125000Y4517858D01*
X-1125000Y4410715D01*
X-1089286Y4339286D01*
X-1053572Y4303572D01*
X-982143Y4267858D01*
X-696429Y4267858D01*
X-1767858Y4660715D02*
X-1625000Y4660715D01*
X-1553572Y4625000D01*
X-1517858Y4589286D01*
X-1446429Y4482143D01*
X-1410715Y4339286D01*
X-1410715Y4053572D01*
X-1446429Y3982143D01*
X-1482143Y3946429D01*
X-1553572Y3910715D01*
X-1696429Y3910715D01*
X-1767858Y3946429D01*
X-1803572Y3982143D01*
X-1839286Y4053572D01*
X-1839286Y4232143D01*
X-1803572Y4303572D01*
X-1767858Y4339286D01*
X-1696429Y4375000D01*
X-1553572Y4375000D01*
X-1482143Y4339286D01*
X-1446429Y4303572D01*
X-1410715Y4232143D01*
%TO.C,R10*%
X-11017858Y-15439285D02*
X-10767858Y-15082142D01*
X-10589286Y-15439285D02*
X-10589286Y-14689285D01*
X-10875000Y-14689285D01*
X-10946429Y-14725000D01*
X-10982143Y-14760714D01*
X-11017858Y-14832142D01*
X-11017858Y-14939285D01*
X-10982143Y-15010714D01*
X-10946429Y-15046428D01*
X-10875000Y-15082142D01*
X-10589286Y-15082142D01*
X-11732143Y-15439285D02*
X-11303572Y-15439285D01*
X-11517858Y-15439285D02*
X-11517858Y-14689285D01*
X-11446429Y-14796428D01*
X-11375000Y-14867857D01*
X-11303572Y-14903571D01*
X-12196429Y-14689285D02*
X-12267858Y-14689285D01*
X-12339286Y-14725000D01*
X-12375000Y-14760714D01*
X-12410715Y-14832142D01*
X-12446429Y-14975000D01*
X-12446429Y-15153571D01*
X-12410715Y-15296428D01*
X-12375000Y-15367857D01*
X-12339286Y-15403571D01*
X-12267858Y-15439285D01*
X-12196429Y-15439285D01*
X-12125000Y-15403571D01*
X-12089286Y-15367857D01*
X-12053572Y-15296428D01*
X-12017858Y-15153571D01*
X-12017858Y-14975000D01*
X-12053572Y-14832142D01*
X-12089286Y-14760714D01*
X-12125000Y-14725000D01*
X-12196429Y-14689285D01*
%TO.C,D2*%
X-33746429Y9860715D02*
X-33746429Y10610715D01*
X-33925000Y10610715D01*
X-34032143Y10575000D01*
X-34103572Y10503572D01*
X-34139286Y10432143D01*
X-34175000Y10289286D01*
X-34175000Y10182143D01*
X-34139286Y10039286D01*
X-34103572Y9967858D01*
X-34032143Y9896429D01*
X-33925000Y9860715D01*
X-33746429Y9860715D01*
X-34460715Y10539286D02*
X-34496429Y10575000D01*
X-34567858Y10610715D01*
X-34746429Y10610715D01*
X-34817858Y10575000D01*
X-34853572Y10539286D01*
X-34889286Y10467858D01*
X-34889286Y10396429D01*
X-34853572Y10289286D01*
X-34425000Y9860715D01*
X-34889286Y9860715D01*
%TO.C,C17*%
X-21517858Y-7517857D02*
X-21482143Y-7553571D01*
X-21375000Y-7589285D01*
X-21303572Y-7589285D01*
X-21196429Y-7553571D01*
X-21125000Y-7482142D01*
X-21089286Y-7410714D01*
X-21053572Y-7267857D01*
X-21053572Y-7160714D01*
X-21089286Y-7017857D01*
X-21125000Y-6946428D01*
X-21196429Y-6875000D01*
X-21303572Y-6839285D01*
X-21375000Y-6839285D01*
X-21482143Y-6875000D01*
X-21517858Y-6910714D01*
X-22232143Y-7589285D02*
X-21803572Y-7589285D01*
X-22017858Y-7589285D02*
X-22017858Y-6839285D01*
X-21946429Y-6946428D01*
X-21875000Y-7017857D01*
X-21803572Y-7053571D01*
X-22482143Y-6839285D02*
X-22982143Y-6839285D01*
X-22660715Y-7589285D01*
%TO.C,R7*%
X-28160715Y9725000D02*
X-28517858Y9975000D01*
X-28160715Y10153572D02*
X-28910715Y10153572D01*
X-28910715Y9867858D01*
X-28875000Y9796429D01*
X-28839286Y9760715D01*
X-28767858Y9725000D01*
X-28660715Y9725000D01*
X-28589286Y9760715D01*
X-28553572Y9796429D01*
X-28517858Y9867858D01*
X-28517858Y10153572D01*
X-28910715Y9475000D02*
X-28910715Y8975000D01*
X-28160715Y9296429D01*
%TO.C,C3*%
X-24375000Y-2767857D02*
X-24339286Y-2803571D01*
X-24232143Y-2839285D01*
X-24160715Y-2839285D01*
X-24053572Y-2803571D01*
X-23982143Y-2732142D01*
X-23946429Y-2660714D01*
X-23910715Y-2517857D01*
X-23910715Y-2410714D01*
X-23946429Y-2267857D01*
X-23982143Y-2196428D01*
X-24053572Y-2125000D01*
X-24160715Y-2089285D01*
X-24232143Y-2089285D01*
X-24339286Y-2125000D01*
X-24375000Y-2160714D01*
X-24625000Y-2089285D02*
X-25089286Y-2089285D01*
X-24839286Y-2375000D01*
X-24946429Y-2375000D01*
X-25017858Y-2410714D01*
X-25053572Y-2446428D01*
X-25089286Y-2517857D01*
X-25089286Y-2696428D01*
X-25053572Y-2767857D01*
X-25017858Y-2803571D01*
X-24946429Y-2839285D01*
X-24732143Y-2839285D01*
X-24660715Y-2803571D01*
X-24625000Y-2767857D01*
%TO.C,C10*%
X-14217858Y-10867857D02*
X-14182143Y-10903571D01*
X-14075000Y-10939285D01*
X-14003572Y-10939285D01*
X-13896429Y-10903571D01*
X-13825000Y-10832142D01*
X-13789286Y-10760714D01*
X-13753572Y-10617857D01*
X-13753572Y-10510714D01*
X-13789286Y-10367857D01*
X-13825000Y-10296428D01*
X-13896429Y-10225000D01*
X-14003572Y-10189285D01*
X-14075000Y-10189285D01*
X-14182143Y-10225000D01*
X-14217858Y-10260714D01*
X-14932143Y-10939285D02*
X-14503572Y-10939285D01*
X-14717858Y-10939285D02*
X-14717858Y-10189285D01*
X-14646429Y-10296428D01*
X-14575000Y-10367857D01*
X-14503572Y-10403571D01*
X-15396429Y-10189285D02*
X-15467858Y-10189285D01*
X-15539286Y-10225000D01*
X-15575000Y-10260714D01*
X-15610715Y-10332142D01*
X-15646429Y-10475000D01*
X-15646429Y-10653571D01*
X-15610715Y-10796428D01*
X-15575000Y-10867857D01*
X-15539286Y-10903571D01*
X-15467858Y-10939285D01*
X-15396429Y-10939285D01*
X-15325000Y-10903571D01*
X-15289286Y-10867857D01*
X-15253572Y-10796428D01*
X-15217858Y-10653571D01*
X-15217858Y-10475000D01*
X-15253572Y-10332142D01*
X-15289286Y-10260714D01*
X-15325000Y-10225000D01*
X-15396429Y-10189285D01*
%TO.C,U4*%
X-15228572Y1510715D02*
X-15228572Y903572D01*
X-15264286Y832143D01*
X-15300000Y796429D01*
X-15371429Y760715D01*
X-15514286Y760715D01*
X-15585715Y796429D01*
X-15621429Y832143D01*
X-15657143Y903572D01*
X-15657143Y1510715D01*
X-16335715Y1260715D02*
X-16335715Y760715D01*
X-16157143Y1546429D02*
X-15978572Y1010715D01*
X-16442858Y1010715D01*
%TO.C,J1*%
X-26250000Y21010715D02*
X-26250000Y20475000D01*
X-26214286Y20367858D01*
X-26142858Y20296429D01*
X-26035715Y20260715D01*
X-25964286Y20260715D01*
X-27000000Y20260715D02*
X-26571429Y20260715D01*
X-26785715Y20260715D02*
X-26785715Y21010715D01*
X-26714286Y20903572D01*
X-26642858Y20832143D01*
X-26571429Y20796429D01*
%TO.C,F1*%
X-33053572Y18750000D02*
X-33053572Y19000000D01*
X-32660715Y19000000D02*
X-33410715Y19000000D01*
X-33410715Y18642858D01*
X-32660715Y17964286D02*
X-32660715Y18392858D01*
X-32660715Y18178572D02*
X-33410715Y18178572D01*
X-33303572Y18250000D01*
X-33232143Y18321429D01*
X-33196429Y18392858D01*
%TO.C,C12*%
X-21517858Y-4017857D02*
X-21482143Y-4053571D01*
X-21375000Y-4089285D01*
X-21303572Y-4089285D01*
X-21196429Y-4053571D01*
X-21125000Y-3982142D01*
X-21089286Y-3910714D01*
X-21053572Y-3767857D01*
X-21053572Y-3660714D01*
X-21089286Y-3517857D01*
X-21125000Y-3446428D01*
X-21196429Y-3375000D01*
X-21303572Y-3339285D01*
X-21375000Y-3339285D01*
X-21482143Y-3375000D01*
X-21517858Y-3410714D01*
X-22232143Y-4089285D02*
X-21803572Y-4089285D01*
X-22017858Y-4089285D02*
X-22017858Y-3339285D01*
X-21946429Y-3446428D01*
X-21875000Y-3517857D01*
X-21803572Y-3553571D01*
X-22517858Y-3410714D02*
X-22553572Y-3375000D01*
X-22625000Y-3339285D01*
X-22803572Y-3339285D01*
X-22875000Y-3375000D01*
X-22910715Y-3410714D01*
X-22946429Y-3482142D01*
X-22946429Y-3553571D01*
X-22910715Y-3660714D01*
X-22482143Y-4089285D01*
X-22946429Y-4089285D01*
%TO.C,C13*%
X382142Y-3667857D02*
X417857Y-3703571D01*
X525000Y-3739285D01*
X596428Y-3739285D01*
X703571Y-3703571D01*
X775000Y-3632142D01*
X810714Y-3560714D01*
X846428Y-3417857D01*
X846428Y-3310714D01*
X810714Y-3167857D01*
X775000Y-3096428D01*
X703571Y-3025000D01*
X596428Y-2989285D01*
X525000Y-2989285D01*
X417857Y-3025000D01*
X382142Y-3060714D01*
X-332143Y-3739285D02*
X96428Y-3739285D01*
X-117858Y-3739285D02*
X-117858Y-2989285D01*
X-46429Y-3096428D01*
X25000Y-3167857D01*
X96428Y-3203571D01*
X-582143Y-2989285D02*
X-1046429Y-2989285D01*
X-796429Y-3275000D01*
X-903572Y-3275000D01*
X-975000Y-3310714D01*
X-1010715Y-3346428D01*
X-1046429Y-3417857D01*
X-1046429Y-3596428D01*
X-1010715Y-3667857D01*
X-975000Y-3703571D01*
X-903572Y-3739285D01*
X-689286Y-3739285D01*
X-617858Y-3703571D01*
X-582143Y-3667857D01*
%TO.C,C16*%
X-1117858Y-8517857D02*
X-1082143Y-8553571D01*
X-975000Y-8589285D01*
X-903572Y-8589285D01*
X-796429Y-8553571D01*
X-725000Y-8482142D01*
X-689286Y-8410714D01*
X-653572Y-8267857D01*
X-653572Y-8160714D01*
X-689286Y-8017857D01*
X-725000Y-7946428D01*
X-796429Y-7875000D01*
X-903572Y-7839285D01*
X-975000Y-7839285D01*
X-1082143Y-7875000D01*
X-1117858Y-7910714D01*
X-1832143Y-8589285D02*
X-1403572Y-8589285D01*
X-1617858Y-8589285D02*
X-1617858Y-7839285D01*
X-1546429Y-7946428D01*
X-1475000Y-8017857D01*
X-1403572Y-8053571D01*
X-2475000Y-7839285D02*
X-2332143Y-7839285D01*
X-2260715Y-7875000D01*
X-2225000Y-7910714D01*
X-2153572Y-8017857D01*
X-2117858Y-8160714D01*
X-2117858Y-8446428D01*
X-2153572Y-8517857D01*
X-2189286Y-8553571D01*
X-2260715Y-8589285D01*
X-2403572Y-8589285D01*
X-2475000Y-8553571D01*
X-2510715Y-8517857D01*
X-2546429Y-8446428D01*
X-2546429Y-8267857D01*
X-2510715Y-8196428D01*
X-2475000Y-8160714D01*
X-2403572Y-8125000D01*
X-2260715Y-8125000D01*
X-2189286Y-8160714D01*
X-2153572Y-8196428D01*
X-2117858Y-8267857D01*
%TO.C,R5*%
X-26060715Y9725000D02*
X-26417858Y9975000D01*
X-26060715Y10153572D02*
X-26810715Y10153572D01*
X-26810715Y9867858D01*
X-26775000Y9796429D01*
X-26739286Y9760715D01*
X-26667858Y9725000D01*
X-26560715Y9725000D01*
X-26489286Y9760715D01*
X-26453572Y9796429D01*
X-26417858Y9867858D01*
X-26417858Y10153572D01*
X-26810715Y9046429D02*
X-26810715Y9403572D01*
X-26453572Y9439286D01*
X-26489286Y9403572D01*
X-26525000Y9332143D01*
X-26525000Y9153572D01*
X-26489286Y9082143D01*
X-26453572Y9046429D01*
X-26382143Y9010715D01*
X-26203572Y9010715D01*
X-26132143Y9046429D01*
X-26096429Y9082143D01*
X-26060715Y9153572D01*
X-26060715Y9332143D01*
X-26096429Y9403572D01*
X-26132143Y9439286D01*
%TO.C,U1*%
X-21428572Y7660715D02*
X-21428572Y7053572D01*
X-21464286Y6982143D01*
X-21500000Y6946429D01*
X-21571429Y6910715D01*
X-21714286Y6910715D01*
X-21785715Y6946429D01*
X-21821429Y6982143D01*
X-21857143Y7053572D01*
X-21857143Y7660715D01*
X-22607143Y6910715D02*
X-22178572Y6910715D01*
X-22392858Y6910715D02*
X-22392858Y7660715D01*
X-22321429Y7553572D01*
X-22250000Y7482143D01*
X-22178572Y7446429D01*
%TO.C,C4*%
X-21517857Y-2767857D02*
X-21482143Y-2803571D01*
X-21375000Y-2839285D01*
X-21303572Y-2839285D01*
X-21196429Y-2803571D01*
X-21125000Y-2732142D01*
X-21089286Y-2660714D01*
X-21053572Y-2517857D01*
X-21053572Y-2410714D01*
X-21089286Y-2267857D01*
X-21125000Y-2196428D01*
X-21196429Y-2125000D01*
X-21303572Y-2089285D01*
X-21375000Y-2089285D01*
X-21482143Y-2125000D01*
X-21517857Y-2160714D01*
X-22160715Y-2339285D02*
X-22160715Y-2839285D01*
X-21982143Y-2053571D02*
X-21803572Y-2589285D01*
X-22267857Y-2589285D01*
%TO.C,C8*%
X-16232143Y6275000D02*
X-16196429Y6310715D01*
X-16160715Y6417858D01*
X-16160715Y6489286D01*
X-16196429Y6596429D01*
X-16267858Y6667858D01*
X-16339286Y6703572D01*
X-16482143Y6739286D01*
X-16589286Y6739286D01*
X-16732143Y6703572D01*
X-16803572Y6667858D01*
X-16875000Y6596429D01*
X-16910715Y6489286D01*
X-16910715Y6417858D01*
X-16875000Y6310715D01*
X-16839286Y6275000D01*
X-16589286Y5846429D02*
X-16625000Y5917858D01*
X-16660715Y5953572D01*
X-16732143Y5989286D01*
X-16767858Y5989286D01*
X-16839286Y5953572D01*
X-16875000Y5917858D01*
X-16910715Y5846429D01*
X-16910715Y5703572D01*
X-16875000Y5632143D01*
X-16839286Y5596429D01*
X-16767858Y5560715D01*
X-16732143Y5560715D01*
X-16660715Y5596429D01*
X-16625000Y5632143D01*
X-16589286Y5703572D01*
X-16589286Y5846429D01*
X-16553572Y5917858D01*
X-16517858Y5953572D01*
X-16446429Y5989286D01*
X-16303572Y5989286D01*
X-16232143Y5953572D01*
X-16196429Y5917858D01*
X-16160715Y5846429D01*
X-16160715Y5703572D01*
X-16196429Y5632143D01*
X-16232143Y5596429D01*
X-16303572Y5560715D01*
X-16446429Y5560715D01*
X-16517858Y5596429D01*
X-16553572Y5632143D01*
X-16589286Y5703572D01*
%TO.C,REF\u002A\u002A*%
D11*
X32738350Y-13625002D02*
X29746650Y-13625002D01*
X29746650Y-12791662D01*
X31838350Y-12791662D01*
X31838350Y-12091662D01*
X30688350Y-12091662D01*
X30688350Y-11275002D01*
X31838350Y-11275002D01*
X31838350Y-10641662D01*
X29654980Y-10641662D01*
X29654980Y-9825002D01*
X32738350Y-9825002D01*
X32738350Y-13625002D01*
G36*
X24054980Y-14408332D02*
G01*
X22488320Y-14408332D01*
X22488320Y-13925002D01*
X23554980Y-13925002D01*
X23554980Y-13525002D01*
X22654980Y-13525002D01*
X22654980Y-13025002D01*
X23554980Y-13025002D01*
X23554980Y-12591662D01*
X22488320Y-12591662D01*
X22488320Y-12091662D01*
X24054980Y-12091662D01*
X24054980Y-14408332D01*
G37*
D12*
X24054980Y-14408332D02*
X22488320Y-14408332D01*
X22488320Y-13925002D01*
X23554980Y-13925002D01*
X23554980Y-13525002D01*
X22654980Y-13525002D01*
X22654980Y-13025002D01*
X23554980Y-13025002D01*
X23554980Y-12591662D01*
X22488320Y-12591662D01*
X22488320Y-12091662D01*
X24054980Y-12091662D01*
X24054980Y-14408332D01*
G36*
X23596798Y-14922128D02*
G01*
X23768094Y-15002232D01*
X23917379Y-15118306D01*
X24037228Y-15264577D01*
X24121682Y-15433771D01*
X24146650Y-15525002D01*
X24177167Y-15730884D01*
X24200465Y-16146461D01*
X24180511Y-16562211D01*
X24151650Y-16768332D01*
X24124313Y-16857922D01*
X24036251Y-17023196D01*
X23914330Y-17165343D01*
X23764393Y-17277547D01*
X23593631Y-17354428D01*
X23410229Y-17392301D01*
X23222981Y-17389351D01*
X23040864Y-17345717D01*
X22872608Y-17263494D01*
X22726282Y-17146621D01*
X22608899Y-17000704D01*
X22526089Y-16832736D01*
X22501580Y-16742332D01*
X22713320Y-16742332D01*
X22713320Y-16741665D01*
X22739703Y-16819810D01*
X22826212Y-16960170D01*
X22945648Y-17073835D01*
X23090117Y-17153293D01*
X23250070Y-17193290D01*
X23414935Y-17191185D01*
X23573814Y-17147115D01*
X23716206Y-17063993D01*
X23832701Y-16947315D01*
X23915596Y-16804791D01*
X23939980Y-16725999D01*
X23965207Y-16426251D01*
X23964376Y-15824679D01*
X23938320Y-15525002D01*
X23911955Y-15446896D01*
X23825495Y-15306606D01*
X23706123Y-15192998D01*
X23561730Y-15113580D01*
X23401860Y-15073602D01*
X23237081Y-15075707D01*
X23078284Y-15119756D01*
X22935967Y-15202836D01*
X22819536Y-15319457D01*
X22736688Y-15461910D01*
X22712320Y-15540662D01*
X22500650Y-15540662D01*
X22523872Y-15448971D01*
X22605092Y-15278201D01*
X22722136Y-15129676D01*
X22869186Y-15010784D01*
X23038926Y-14927435D01*
X23222918Y-14883776D01*
X23412010Y-14881977D01*
X23596798Y-14922128D01*
G37*
X23596798Y-14922128D02*
X23768094Y-15002232D01*
X23917379Y-15118306D01*
X24037228Y-15264577D01*
X24121682Y-15433771D01*
X24146650Y-15525002D01*
X24177167Y-15730884D01*
X24200465Y-16146461D01*
X24180511Y-16562211D01*
X24151650Y-16768332D01*
X24124313Y-16857922D01*
X24036251Y-17023196D01*
X23914330Y-17165343D01*
X23764393Y-17277547D01*
X23593631Y-17354428D01*
X23410229Y-17392301D01*
X23222981Y-17389351D01*
X23040864Y-17345717D01*
X22872608Y-17263494D01*
X22726282Y-17146621D01*
X22608899Y-17000704D01*
X22526089Y-16832736D01*
X22501580Y-16742332D01*
X22713320Y-16742332D01*
X22713320Y-16741665D01*
X22739703Y-16819810D01*
X22826212Y-16960170D01*
X22945648Y-17073835D01*
X23090117Y-17153293D01*
X23250070Y-17193290D01*
X23414935Y-17191185D01*
X23573814Y-17147115D01*
X23716206Y-17063993D01*
X23832701Y-16947315D01*
X23915596Y-16804791D01*
X23939980Y-16725999D01*
X23965207Y-16426251D01*
X23964376Y-15824679D01*
X23938320Y-15525002D01*
X23911955Y-15446896D01*
X23825495Y-15306606D01*
X23706123Y-15192998D01*
X23561730Y-15113580D01*
X23401860Y-15073602D01*
X23237081Y-15075707D01*
X23078284Y-15119756D01*
X22935967Y-15202836D01*
X22819536Y-15319457D01*
X22736688Y-15461910D01*
X22712320Y-15540662D01*
X22500650Y-15540662D01*
X22523872Y-15448971D01*
X22605092Y-15278201D01*
X22722136Y-15129676D01*
X22869186Y-15010784D01*
X23038926Y-14927435D01*
X23222918Y-14883776D01*
X23412010Y-14881977D01*
X23596798Y-14922128D01*
G36*
X30521650Y-13425002D02*
G01*
X30554950Y-13425002D01*
X30938350Y-12091662D01*
X31554950Y-12091662D01*
X31554950Y-14408332D01*
X31104950Y-14408332D01*
X31104950Y-13241662D01*
X31038350Y-13241662D01*
X30738350Y-14158332D01*
X30338350Y-14158332D01*
X30038320Y-13241662D01*
X29971650Y-13241662D01*
X29971650Y-14408332D01*
X29521650Y-14408332D01*
X29521650Y-12091662D01*
X30138350Y-12091662D01*
X30521650Y-13425002D01*
G37*
X30521650Y-13425002D02*
X30554950Y-13425002D01*
X30938350Y-12091662D01*
X31554950Y-12091662D01*
X31554950Y-14408332D01*
X31104950Y-14408332D01*
X31104950Y-13241662D01*
X31038350Y-13241662D01*
X30738350Y-14158332D01*
X30338350Y-14158332D01*
X30038320Y-13241662D01*
X29971650Y-13241662D01*
X29971650Y-14408332D01*
X29521650Y-14408332D01*
X29521650Y-12091662D01*
X30138350Y-12091662D01*
X30521650Y-13425002D01*
X21371650Y-13020832D02*
X20859117Y-13020832D01*
X20813317Y-13012502D01*
X20767450Y-12975002D01*
X20729983Y-12891662D01*
X20721650Y-12766662D01*
X20746650Y-12670832D01*
X20779983Y-12616662D01*
X20817450Y-12591662D01*
X21371650Y-12591662D01*
X21371650Y-13020832D01*
G36*
X21621650Y-17358332D02*
G01*
X20071650Y-17358332D01*
X20071650Y-17174999D01*
X21421650Y-17174999D01*
X21421650Y-16241662D01*
X20254983Y-16241662D01*
X20254983Y-16041662D01*
X21421650Y-16041662D01*
X21421650Y-15108332D01*
X20071650Y-15108332D01*
X20071650Y-14925002D01*
X21621650Y-14925002D01*
X21621650Y-17358332D01*
G37*
X21621650Y-17358332D02*
X20071650Y-17358332D01*
X20071650Y-17174999D01*
X21421650Y-17174999D01*
X21421650Y-16241662D01*
X20254983Y-16241662D01*
X20254983Y-16041662D01*
X21421650Y-16041662D01*
X21421650Y-15108332D01*
X20071650Y-15108332D01*
X20071650Y-14925002D01*
X21621650Y-14925002D01*
X21621650Y-17358332D01*
G36*
X25938320Y-14925002D02*
G01*
X26838320Y-17358332D01*
X26621650Y-17358332D01*
X26404980Y-16758332D01*
X25204980Y-16758332D01*
X24984120Y-17358332D01*
X24788320Y-17358332D01*
X24934050Y-16956932D01*
X25078320Y-16566665D01*
X25271650Y-16566665D01*
X26338320Y-16566665D01*
X25829980Y-15166662D01*
X25779980Y-15166662D01*
X25271650Y-16566665D01*
X25078320Y-16566665D01*
X25671650Y-14925002D01*
X25938320Y-14925002D01*
G37*
X25938320Y-14925002D02*
X26838320Y-17358332D01*
X26621650Y-17358332D01*
X26404980Y-16758332D01*
X25204980Y-16758332D01*
X24984120Y-17358332D01*
X24788320Y-17358332D01*
X24934050Y-16956932D01*
X25078320Y-16566665D01*
X25271650Y-16566665D01*
X26338320Y-16566665D01*
X25829980Y-15166662D01*
X25779980Y-15166662D01*
X25271650Y-16566665D01*
X25078320Y-16566665D01*
X25671650Y-14925002D01*
X25938320Y-14925002D01*
D11*
X23705050Y-9788682D02*
X23761520Y-9787762D01*
X23874450Y-9791892D01*
X23986920Y-9802822D01*
X24098520Y-9820512D01*
X24208850Y-9844902D01*
X24317520Y-9875892D01*
X24424050Y-9913382D01*
X24528250Y-9957222D01*
X24629520Y-10007262D01*
X24727650Y-10063312D01*
X24822180Y-10125182D01*
X24912850Y-10192632D01*
X24999250Y-10265432D01*
X25081120Y-10343302D01*
X25158180Y-10425972D01*
X25230050Y-10513122D01*
X25296580Y-10604462D01*
X25357520Y-10699642D01*
X25412520Y-10798312D01*
X25461520Y-10900132D01*
X25504320Y-11004712D01*
X25540720Y-11111682D01*
X25570580Y-11220652D01*
X25593850Y-11331222D01*
X25610380Y-11443002D01*
X25620180Y-11555562D01*
X25623120Y-11668522D01*
X25621650Y-11725002D01*
X25623380Y-11779092D01*
X25621180Y-11887302D01*
X25612650Y-11995192D01*
X25597650Y-12102392D01*
X25576450Y-12208522D01*
X25548920Y-12313202D01*
X25515250Y-12416062D01*
X25475580Y-12516762D01*
X25429980Y-12614942D01*
X25378720Y-12710242D01*
X25321850Y-12802342D01*
X25259650Y-12890912D01*
X25192320Y-12975652D01*
X25120120Y-13056252D01*
X25043180Y-13132442D01*
X24961980Y-13203942D01*
X24876650Y-13270522D01*
X24787520Y-13331922D01*
X24694850Y-13387942D01*
X24599120Y-13438382D01*
X24500520Y-13483062D01*
X24399520Y-13521842D01*
X24296320Y-13554562D01*
X24191380Y-13581122D01*
X24138320Y-13591662D01*
X24078450Y-13605072D01*
X23957520Y-13625942D01*
X23835650Y-13639982D01*
X23713120Y-13647142D01*
X23590380Y-13647402D01*
X23467850Y-13640742D01*
X23345920Y-13627212D01*
X23224920Y-13606842D01*
X23105250Y-13579692D01*
X22987320Y-13545852D01*
X22871450Y-13505432D01*
X22758050Y-13458562D01*
X22647450Y-13405372D01*
X22540050Y-13346052D01*
X22436120Y-13280782D01*
X22336050Y-13209772D01*
X22240120Y-13133242D01*
X22148650Y-13051442D01*
X22104980Y-13008332D01*
X22104980Y-11341662D01*
X23788320Y-11341662D01*
X23788320Y-12108332D01*
X22854980Y-12108332D01*
X22988320Y-12558332D01*
X23171650Y-12641662D01*
X23207380Y-12661002D01*
X23281250Y-12694662D01*
X23357580Y-12722412D01*
X23435850Y-12744092D01*
X23515580Y-12759562D01*
X23596250Y-12768722D01*
X23677380Y-12771522D01*
X23758520Y-12767952D01*
X23839120Y-12758022D01*
X23918720Y-12741802D01*
X23996720Y-12719382D01*
X24072780Y-12690902D01*
X24146380Y-12656542D01*
X24217050Y-12616522D01*
X24284320Y-12571072D01*
X24347850Y-12520482D01*
X24407180Y-12465062D01*
X24462050Y-12405162D01*
X24511980Y-12341142D01*
X24556780Y-12273392D01*
X24596120Y-12202342D01*
X24629720Y-12128422D01*
X24657450Y-12052092D01*
X24679050Y-11973822D01*
X24694520Y-11894102D01*
X24703650Y-11813402D01*
X24706380Y-11732242D01*
X24704980Y-11691662D01*
X24707120Y-11651552D01*
X24705320Y-11571232D01*
X24696850Y-11491342D01*
X24681650Y-11412452D01*
X24659920Y-11335122D01*
X24631720Y-11259892D01*
X24597320Y-11187302D01*
X24556920Y-11117862D01*
X24510780Y-11052062D01*
X24459320Y-10990382D01*
X24402850Y-10933242D01*
X24341780Y-10881062D01*
X24276520Y-10834202D01*
X24207580Y-10793002D01*
X24171650Y-10775002D01*
X24134320Y-10756702D01*
X24057250Y-10725352D01*
X23977980Y-10700182D01*
X23896920Y-10681332D01*
X23814720Y-10668942D01*
X23731720Y-10663062D01*
X23648520Y-10663742D01*
X23565650Y-10670982D01*
X23483650Y-10684742D01*
X23402920Y-10704912D01*
X23324050Y-10731382D01*
X23247520Y-10763992D01*
X23173850Y-10802532D01*
X23103380Y-10846762D01*
X23036650Y-10896412D01*
X22973980Y-10951162D01*
X22915920Y-11010692D01*
X22862650Y-11074602D01*
X22838320Y-11108332D01*
X22154980Y-10458332D01*
X22193920Y-10415192D01*
X22276120Y-10333002D01*
X22362920Y-10255722D01*
X22454050Y-10183612D01*
X22549250Y-10116912D01*
X22648120Y-10055862D01*
X22750380Y-10000662D01*
X22855720Y-9951482D01*
X22963650Y-9908512D01*
X23073980Y-9871882D01*
X23186180Y-9841722D01*
X23299980Y-9818132D01*
X23414980Y-9801192D01*
X23530780Y-9790962D01*
X23646920Y-9787462D01*
X23705050Y-9788682D01*
G36*
X21371650Y-14408332D02*
G01*
X21371650Y-13525002D01*
X21171650Y-13525002D01*
X20688317Y-14408332D01*
X20071650Y-14408332D01*
X20588317Y-13508332D01*
X20588317Y-13475002D01*
X20554983Y-13458332D01*
X20471650Y-13408332D01*
X20404983Y-13358332D01*
X20321650Y-13258332D01*
X20254983Y-13141662D01*
X20221650Y-13025002D01*
X20204983Y-12925002D01*
X20204983Y-12766662D01*
X20721650Y-12766662D01*
X20729983Y-12891662D01*
X20767450Y-12975002D01*
X20813317Y-13012502D01*
X20859117Y-13020832D01*
X21371650Y-13020832D01*
X21371650Y-12591662D01*
X20817450Y-12591662D01*
X20779983Y-12616662D01*
X20746650Y-12670832D01*
X20721650Y-12766662D01*
X20204983Y-12766662D01*
X20204983Y-12725002D01*
X20221650Y-12558332D01*
X20271650Y-12441662D01*
X20354983Y-12325002D01*
X20438317Y-12241662D01*
X20521650Y-12175002D01*
X20688317Y-12091662D01*
X21871650Y-12091662D01*
X21871650Y-14408332D01*
X21371650Y-14408332D01*
G37*
D12*
X21371650Y-14408332D02*
X21371650Y-13525002D01*
X21171650Y-13525002D01*
X20688317Y-14408332D01*
X20071650Y-14408332D01*
X20588317Y-13508332D01*
X20588317Y-13475002D01*
X20554983Y-13458332D01*
X20471650Y-13408332D01*
X20404983Y-13358332D01*
X20321650Y-13258332D01*
X20254983Y-13141662D01*
X20221650Y-13025002D01*
X20204983Y-12925002D01*
X20204983Y-12766662D01*
X20721650Y-12766662D01*
X20729983Y-12891662D01*
X20767450Y-12975002D01*
X20813317Y-13012502D01*
X20859117Y-13020832D01*
X21371650Y-13020832D01*
X21371650Y-12591662D01*
X20817450Y-12591662D01*
X20779983Y-12616662D01*
X20746650Y-12670832D01*
X20721650Y-12766662D01*
X20204983Y-12766662D01*
X20204983Y-12725002D01*
X20221650Y-12558332D01*
X20271650Y-12441662D01*
X20354983Y-12325002D01*
X20438317Y-12241662D01*
X20521650Y-12175002D01*
X20688317Y-12091662D01*
X21871650Y-12091662D01*
X21871650Y-14408332D01*
X21371650Y-14408332D01*
D11*
X26804980Y-11841662D02*
X26854980Y-11841662D01*
X28871650Y-9825002D01*
X29371650Y-9825002D01*
X29371650Y-13625002D01*
X28471650Y-13625002D01*
X28471650Y-11575002D01*
X28421650Y-11575002D01*
X26504980Y-13525002D01*
X26404980Y-13625002D01*
X25938320Y-13625002D01*
X25938320Y-9825002D01*
X26804980Y-9825002D01*
X26804980Y-11841662D01*
G36*
X25871650Y-13008332D02*
G01*
X25938320Y-13008332D01*
X25938320Y-12091662D01*
X26454980Y-12091662D01*
X26454980Y-14408332D01*
X25938320Y-14408332D01*
X25938320Y-13891662D01*
X25688320Y-13558332D01*
X25638320Y-13558332D01*
X25154980Y-14408332D01*
X24554980Y-14408332D01*
X25321650Y-13075002D01*
X24671650Y-12091662D01*
X25288320Y-12091662D01*
X25871650Y-13008332D01*
G37*
D12*
X25871650Y-13008332D02*
X25938320Y-13008332D01*
X25938320Y-12091662D01*
X26454980Y-12091662D01*
X26454980Y-14408332D01*
X25938320Y-14408332D01*
X25938320Y-13891662D01*
X25688320Y-13558332D01*
X25638320Y-13558332D01*
X25154980Y-14408332D01*
X24554980Y-14408332D01*
X25321650Y-13075002D01*
X24671650Y-12091662D01*
X25288320Y-12091662D01*
X25871650Y-13008332D01*
G36*
X28021530Y-16392725D02*
G01*
X27951400Y-16388145D01*
X27882190Y-16375999D01*
X27848320Y-16366665D01*
X27814670Y-16356402D01*
X27749310Y-16330382D01*
X27686690Y-16298302D01*
X27627380Y-16260482D01*
X27571890Y-16217222D01*
X27520730Y-16168932D01*
X27474350Y-16116032D01*
X27433170Y-16058992D01*
X27397540Y-15998322D01*
X27367800Y-15934572D01*
X27344190Y-15868302D01*
X27326940Y-15800102D01*
X27316200Y-15730572D01*
X27312060Y-15660342D01*
X27312131Y-15658332D01*
X27526450Y-15658332D01*
X27529700Y-15718882D01*
X27539420Y-15778722D01*
X27555490Y-15837182D01*
X27577740Y-15893582D01*
X27605900Y-15947282D01*
X27639640Y-15997652D01*
X27678590Y-16044122D01*
X27722300Y-16086142D01*
X27770250Y-16123242D01*
X27821900Y-16155002D01*
X27876660Y-16181032D01*
X27933880Y-16201062D01*
X27963320Y-16208332D01*
X28776650Y-16208332D01*
X28776650Y-15108332D01*
X27963320Y-15108332D01*
X27933880Y-15115602D01*
X27876660Y-15135632D01*
X27821900Y-15161662D01*
X27770250Y-15193422D01*
X27722300Y-15230522D01*
X27678590Y-15272542D01*
X27639640Y-15319012D01*
X27605900Y-15369382D01*
X27577740Y-15423082D01*
X27555490Y-15479482D01*
X27539420Y-15537942D01*
X27529700Y-15597782D01*
X27526450Y-15658332D01*
X27312131Y-15658332D01*
X27314550Y-15590032D01*
X27323670Y-15520272D01*
X27339320Y-15451682D01*
X27361360Y-15384882D01*
X27389620Y-15320442D01*
X27423810Y-15258962D01*
X27463650Y-15200982D01*
X27508780Y-15147002D01*
X27558800Y-15097532D01*
X27613250Y-15052992D01*
X27671660Y-15013782D01*
X27733520Y-14980262D01*
X27798250Y-14952712D01*
X27831650Y-14941662D01*
X27857540Y-14935422D01*
X27910180Y-14927312D01*
X27963360Y-14924282D01*
X27989980Y-14925002D01*
X28989980Y-14925002D01*
X28989980Y-17358332D01*
X28776650Y-17358332D01*
X28776650Y-16389999D01*
X28056650Y-16391665D01*
X28021530Y-16392725D01*
G37*
X28021530Y-16392725D02*
X27951400Y-16388145D01*
X27882190Y-16375999D01*
X27848320Y-16366665D01*
X27814670Y-16356402D01*
X27749310Y-16330382D01*
X27686690Y-16298302D01*
X27627380Y-16260482D01*
X27571890Y-16217222D01*
X27520730Y-16168932D01*
X27474350Y-16116032D01*
X27433170Y-16058992D01*
X27397540Y-15998322D01*
X27367800Y-15934572D01*
X27344190Y-15868302D01*
X27326940Y-15800102D01*
X27316200Y-15730572D01*
X27312060Y-15660342D01*
X27312131Y-15658332D01*
X27526450Y-15658332D01*
X27529700Y-15718882D01*
X27539420Y-15778722D01*
X27555490Y-15837182D01*
X27577740Y-15893582D01*
X27605900Y-15947282D01*
X27639640Y-15997652D01*
X27678590Y-16044122D01*
X27722300Y-16086142D01*
X27770250Y-16123242D01*
X27821900Y-16155002D01*
X27876660Y-16181032D01*
X27933880Y-16201062D01*
X27963320Y-16208332D01*
X28776650Y-16208332D01*
X28776650Y-15108332D01*
X27963320Y-15108332D01*
X27933880Y-15115602D01*
X27876660Y-15135632D01*
X27821900Y-15161662D01*
X27770250Y-15193422D01*
X27722300Y-15230522D01*
X27678590Y-15272542D01*
X27639640Y-15319012D01*
X27605900Y-15369382D01*
X27577740Y-15423082D01*
X27555490Y-15479482D01*
X27539420Y-15537942D01*
X27529700Y-15597782D01*
X27526450Y-15658332D01*
X27312131Y-15658332D01*
X27314550Y-15590032D01*
X27323670Y-15520272D01*
X27339320Y-15451682D01*
X27361360Y-15384882D01*
X27389620Y-15320442D01*
X27423810Y-15258962D01*
X27463650Y-15200982D01*
X27508780Y-15147002D01*
X27558800Y-15097532D01*
X27613250Y-15052992D01*
X27671660Y-15013782D01*
X27733520Y-14980262D01*
X27798250Y-14952712D01*
X27831650Y-14941662D01*
X27857540Y-14935422D01*
X27910180Y-14927312D01*
X27963360Y-14924282D01*
X27989980Y-14925002D01*
X28989980Y-14925002D01*
X28989980Y-17358332D01*
X28776650Y-17358332D01*
X28776650Y-16389999D01*
X28056650Y-16391665D01*
X28021530Y-16392725D01*
G36*
X30821650Y-14891662D02*
G01*
X31138350Y-14975002D01*
X31304950Y-15091662D01*
X31404950Y-15208332D01*
X31488350Y-15391662D01*
X31504950Y-15458332D01*
X31504950Y-15691662D01*
X31488350Y-15775002D01*
X31438350Y-15875002D01*
X31371650Y-15975002D01*
X31288350Y-16041662D01*
X31188350Y-16091662D01*
X31004950Y-16158332D01*
X30621650Y-16241662D01*
X30421650Y-16291662D01*
X30238350Y-16358332D01*
X30138350Y-16441665D01*
X30071650Y-16541665D01*
X30054980Y-16641665D01*
X30054980Y-16741665D01*
X30071650Y-16858332D01*
X30121650Y-16941665D01*
X30238350Y-17058332D01*
X30338350Y-17124999D01*
X30504950Y-17174999D01*
X30704950Y-17191665D01*
X30971650Y-17174999D01*
X31088350Y-17141665D01*
X31271650Y-17074999D01*
X31421650Y-16991665D01*
X31488350Y-16941665D01*
X31604950Y-17074999D01*
X31621650Y-17091665D01*
X31421650Y-17224999D01*
X31304950Y-17274999D01*
X31054950Y-17358332D01*
X30888350Y-17374999D01*
X30754950Y-17374999D01*
X30421650Y-17358332D01*
X30254950Y-17291665D01*
X30121650Y-17224999D01*
X30021650Y-17141665D01*
X29921650Y-16991665D01*
X29871650Y-16858332D01*
X29838320Y-16691665D01*
X29854980Y-16574999D01*
X29871650Y-16491665D01*
X29938320Y-16358332D01*
X30004980Y-16275002D01*
X30104950Y-16191662D01*
X30188350Y-16158332D01*
X30371650Y-16091662D01*
X30954950Y-15958332D01*
X31121650Y-15891662D01*
X31188350Y-15841662D01*
X31238350Y-15791662D01*
X31288350Y-15708332D01*
X31304950Y-15625002D01*
X31304950Y-15525002D01*
X31288350Y-15441662D01*
X31271650Y-15391662D01*
X31238350Y-15325002D01*
X31188350Y-15258332D01*
X31088350Y-15175002D01*
X30988350Y-15125002D01*
X30838350Y-15075002D01*
X30554950Y-15075002D01*
X30471650Y-15091662D01*
X30271650Y-15158332D01*
X30171650Y-15208332D01*
X30021650Y-15275002D01*
X29904980Y-15125002D01*
X30021650Y-15058332D01*
X30238350Y-14958332D01*
X30488350Y-14891662D01*
X30604950Y-14875002D01*
X30721650Y-14875002D01*
X30821650Y-14891662D01*
G37*
X30821650Y-14891662D02*
X31138350Y-14975002D01*
X31304950Y-15091662D01*
X31404950Y-15208332D01*
X31488350Y-15391662D01*
X31504950Y-15458332D01*
X31504950Y-15691662D01*
X31488350Y-15775002D01*
X31438350Y-15875002D01*
X31371650Y-15975002D01*
X31288350Y-16041662D01*
X31188350Y-16091662D01*
X31004950Y-16158332D01*
X30621650Y-16241662D01*
X30421650Y-16291662D01*
X30238350Y-16358332D01*
X30138350Y-16441665D01*
X30071650Y-16541665D01*
X30054980Y-16641665D01*
X30054980Y-16741665D01*
X30071650Y-16858332D01*
X30121650Y-16941665D01*
X30238350Y-17058332D01*
X30338350Y-17124999D01*
X30504950Y-17174999D01*
X30704950Y-17191665D01*
X30971650Y-17174999D01*
X31088350Y-17141665D01*
X31271650Y-17074999D01*
X31421650Y-16991665D01*
X31488350Y-16941665D01*
X31604950Y-17074999D01*
X31621650Y-17091665D01*
X31421650Y-17224999D01*
X31304950Y-17274999D01*
X31054950Y-17358332D01*
X30888350Y-17374999D01*
X30754950Y-17374999D01*
X30421650Y-17358332D01*
X30254950Y-17291665D01*
X30121650Y-17224999D01*
X30021650Y-17141665D01*
X29921650Y-16991665D01*
X29871650Y-16858332D01*
X29838320Y-16691665D01*
X29854980Y-16574999D01*
X29871650Y-16491665D01*
X29938320Y-16358332D01*
X30004980Y-16275002D01*
X30104950Y-16191662D01*
X30188350Y-16158332D01*
X30371650Y-16091662D01*
X30954950Y-15958332D01*
X31121650Y-15891662D01*
X31188350Y-15841662D01*
X31238350Y-15791662D01*
X31288350Y-15708332D01*
X31304950Y-15625002D01*
X31304950Y-15525002D01*
X31288350Y-15441662D01*
X31271650Y-15391662D01*
X31238350Y-15325002D01*
X31188350Y-15258332D01*
X31088350Y-15175002D01*
X30988350Y-15125002D01*
X30838350Y-15075002D01*
X30554950Y-15075002D01*
X30471650Y-15091662D01*
X30271650Y-15158332D01*
X30171650Y-15208332D01*
X30021650Y-15275002D01*
X29904980Y-15125002D01*
X30021650Y-15058332D01*
X30238350Y-14958332D01*
X30488350Y-14891662D01*
X30604950Y-14875002D01*
X30721650Y-14875002D01*
X30821650Y-14891662D01*
G36*
X29038320Y-14408332D02*
G01*
X28488320Y-14408332D01*
X28359150Y-14058332D01*
X27634150Y-14058332D01*
X27504980Y-14408332D01*
X26954980Y-14408332D01*
X27453650Y-13075002D01*
X27971650Y-13075002D01*
X27788320Y-13558332D01*
X28204980Y-13558332D01*
X28021650Y-13075002D01*
X27454160Y-13074122D01*
X27821650Y-12091662D01*
X28154980Y-12091662D01*
X29038320Y-14408332D01*
G37*
X29038320Y-14408332D02*
X28488320Y-14408332D01*
X28359150Y-14058332D01*
X27634150Y-14058332D01*
X27504980Y-14408332D01*
X26954980Y-14408332D01*
X27453650Y-13075002D01*
X27971650Y-13075002D01*
X27788320Y-13558332D01*
X28204980Y-13558332D01*
X28021650Y-13075002D01*
X27454160Y-13074122D01*
X27821650Y-12091662D01*
X28154980Y-12091662D01*
X29038320Y-14408332D01*
%TO.C,R3*%
X-11077500Y3537258D02*
X-11077500Y3062742D01*
X-12122500Y3537258D02*
X-12122500Y3062742D01*
%TO.C,R4*%
X-22435000Y12627064D02*
X-22435000Y12172936D01*
X-20965000Y12627064D02*
X-20965000Y12172936D01*
%TO.C,R2*%
X-12777500Y3537258D02*
X-12777500Y3062742D01*
X-13822500Y3537258D02*
X-13822500Y3062742D01*
%TO.C,R8*%
X-25746250Y4172936D02*
X-25746250Y4627064D01*
X-27216250Y4172936D02*
X-27216250Y4627064D01*
%TO.C,C7*%
X-2290000Y9790580D02*
X-2290000Y9509420D01*
X-3310000Y9790580D02*
X-3310000Y9509420D01*
%TO.C,U3*%
X-9475000Y3825000D02*
X-9215000Y3825000D01*
X-4285000Y3825000D02*
X-4285000Y2150000D01*
X-4025000Y6550000D02*
X-4025000Y3825000D01*
X-4025000Y3825000D02*
X-4285000Y3825000D01*
X-9475000Y9275000D02*
X-9215000Y9275000D01*
X-9475000Y6550000D02*
X-9475000Y9275000D01*
X-9475000Y6550000D02*
X-9475000Y3825000D01*
X-4025000Y9275000D02*
X-4285000Y9275000D01*
X-4025000Y6550000D02*
X-4025000Y9275000D01*
%TO.C,C14*%
X-4610580Y-3600000D02*
X-4329420Y-3600000D01*
X-4610580Y-4620000D02*
X-4329420Y-4620000D01*
%TO.C,C18*%
X-4615580Y-690000D02*
X-4334420Y-690000D01*
X-4615580Y-1710000D02*
X-4334420Y-1710000D01*
%TO.C,C11*%
X-18159420Y-3260000D02*
X-18440580Y-3260000D01*
X-18159420Y-2240000D02*
X-18440580Y-2240000D01*
%TO.C,C15*%
X-18149420Y-4900000D02*
X-18430580Y-4900000D01*
X-18149420Y-3880000D02*
X-18430580Y-3880000D01*
%TO.C,C6*%
X-10390000Y-12559420D02*
X-10390000Y-12840580D01*
X-11410000Y-12559420D02*
X-11410000Y-12840580D01*
%TO.C,Y1*%
X-10050000Y-8300000D02*
X-6750000Y-8300000D01*
X-6750000Y-8300000D02*
X-6750000Y-12300000D01*
%TO.C,C5*%
X-5390000Y-9559420D02*
X-5390000Y-9840580D01*
X-6410000Y-9559420D02*
X-6410000Y-9840580D01*
%TO.C,C9*%
X-15410000Y3234420D02*
X-15410000Y3515580D01*
X-14390000Y3234420D02*
X-14390000Y3515580D01*
%TO.C,C2*%
X-23596250Y1061252D02*
X-23596250Y538748D01*
X-25066250Y1061252D02*
X-25066250Y538748D01*
%TO.C,R6*%
X-3322500Y3112742D02*
X-3322500Y3587258D01*
X-2277500Y3112742D02*
X-2277500Y3587258D01*
%TO.C,R10*%
X-10377500Y-9462742D02*
X-10377500Y-9937258D01*
X-11422500Y-9462742D02*
X-11422500Y-9937258D01*
%TO.C,D2*%
X-30100000Y9850000D02*
X-30100000Y13750000D01*
X-30100000Y9850000D02*
X-32100000Y9850000D01*
X-32100000Y9850000D02*
X-32100000Y13750000D01*
D13*
%TO.C,REF\u002A\u002A*%
X8123493Y342397D02*
X6738013Y342397D01*
X6738013Y-211712D02*
X6738013Y-488835D01*
X10340205Y-2428424D02*
X10340205Y-2982671D01*
X8954725Y619521D02*
X8954725Y619521D01*
X9786096Y-5199384D02*
X9786096Y-5199384D01*
X13942397Y-1043082D02*
X13942397Y-1043082D01*
X12279794Y-4922260D02*
X12279794Y-4368151D01*
X13388150Y-2705548D02*
X13388150Y-2705548D01*
X12834041Y-4922260D02*
X12556917Y-4922260D01*
X11171438Y-765959D02*
X11448561Y-765959D01*
X14219521Y619521D02*
X14219521Y1450753D01*
X7015136Y-6030616D02*
X7015136Y-6030616D01*
X7569246Y-1320068D02*
X7569246Y-1320068D01*
X12556917Y-4922260D02*
X12556917Y-4922260D01*
X10340205Y-1043082D02*
X10340205Y-1597191D01*
X8677740Y-2982671D02*
X8677740Y-3536780D01*
X8123493Y-3536780D02*
X8123493Y-3536780D01*
X10894452Y-1597191D02*
X10894452Y-2151438D01*
X11725685Y-6861987D02*
X11725685Y-6584863D01*
X7846370Y-3536780D02*
X7846370Y-3536780D01*
X14773630Y-1320068D02*
X14773630Y-1320068D01*
X12556917Y-6861987D02*
X12279794Y-6861987D01*
X12834041Y-3259794D02*
X12834041Y-2982671D01*
X9231849Y-3813904D02*
X9231849Y-4091027D01*
X8400616Y-2982671D02*
X8400616Y-2982671D01*
X10340205Y-765959D02*
X9786096Y-765959D01*
X15050753Y-1320068D02*
X15050753Y-1320068D01*
X10617329Y-6861987D02*
X10617329Y-7138972D01*
X12834041Y-2428424D02*
X12834041Y-2428424D01*
X7015136Y-1043082D02*
X7015136Y-1043082D01*
X13111164Y1173768D02*
X13111164Y1173768D01*
X12279794Y-5199384D02*
X12279794Y-5199384D01*
X10063082Y-2151438D02*
X9786096Y-2151438D01*
X9508973Y-4645136D02*
X9508973Y-4368151D01*
X8677740Y-2982671D02*
X8677740Y-2982671D01*
X12279794Y-6030616D02*
X12002808Y-6030616D01*
X13942397Y-765959D02*
X13942397Y-765959D01*
X7846370Y-6584863D02*
X7569246Y-6584863D01*
X12279794Y-6030616D02*
X12279794Y-6307739D01*
X12556917Y-6584863D02*
X12556917Y-6584863D01*
X9786096Y-2982671D02*
X9786096Y-2982671D01*
X10617329Y-1320068D02*
X10894452Y-1320068D01*
X13942397Y-488835D02*
X13942397Y-488835D01*
X15050753Y-1043082D02*
X15050753Y-1043082D01*
X13942397Y-2151438D02*
X13665274Y-2151438D01*
X12002808Y-3536780D02*
X11725685Y-3536780D01*
X9786096Y-4368151D02*
X9786096Y-4368151D01*
X10894452Y-1320068D02*
X10894452Y-1320068D01*
X8677740Y-5753492D02*
X8677740Y-5753492D01*
X7846370Y619521D02*
X7015136Y619521D01*
X10894452Y-2705548D02*
X10894452Y-2705548D01*
X6460890Y-2982671D02*
X6460890Y-2982671D01*
X7569246Y-488835D02*
X7292260Y-488835D01*
X8954725Y-765959D02*
X8954725Y-488835D01*
X12834041Y1173768D02*
X12834041Y896644D01*
X11171438Y342397D02*
X11448561Y342397D01*
X10340205Y-211712D02*
X10340205Y-211712D01*
X7015136Y-1320068D02*
X7015136Y-1043082D01*
X14219521Y-3536780D02*
X14496644Y-3536780D01*
X8123493Y-4091027D02*
X7569246Y-4091027D01*
X15605000Y-2705548D02*
X15605000Y-2705548D01*
X10894452Y896644D02*
X10617329Y896644D01*
X12556917Y2005000D02*
X12556917Y2005000D01*
X13665274Y65412D02*
X15605000Y65412D01*
X13942397Y-2982671D02*
X13942397Y-2982671D01*
X12279794Y-1874315D02*
X12279794Y-1597191D01*
X10894452Y-3813904D02*
X10617329Y-3813904D01*
X11171438Y896644D02*
X11171438Y896644D01*
X12556917Y-4922260D02*
X12556917Y-4922260D01*
X7292260Y-4368151D02*
X7015136Y-4368151D01*
X8123493Y-1043082D02*
X8123493Y-1043082D01*
X9231849Y2005000D02*
X9231849Y2005000D01*
X11725685Y-3259794D02*
X11725685Y-3259794D01*
X13665274Y-2982671D02*
X13665274Y-2705548D01*
X13111164Y619521D02*
X13388150Y619521D01*
X12556917Y-4645136D02*
X12834041Y-4645136D01*
X6738013Y-4368151D02*
X7015136Y-4368151D01*
X12834041Y-3259794D02*
X12834041Y-4091027D01*
X12279794Y896644D02*
X12279794Y896644D01*
X12834041Y-3259794D02*
X12834041Y-3259794D01*
X7015136Y-6584863D02*
X6738013Y-6584863D01*
X10340205Y-1597191D02*
X10340205Y-1597191D01*
X9508973Y-2151438D02*
X9508973Y-2151438D01*
X6738013Y-7138972D02*
X6460890Y-7138972D01*
X6460890Y-4091027D02*
X6460890Y-4091027D01*
X8677740Y-4368151D02*
X8677740Y-4091027D01*
X8123493Y-2151438D02*
X8123493Y-1597191D01*
X7015136Y-4368151D02*
X7015136Y-3536780D01*
X14219521Y-211712D02*
X14219521Y-488835D01*
X13388150Y-2151438D02*
X13111164Y-2151438D01*
X10894452Y-2151438D02*
X10894452Y-2151438D01*
X12556917Y-211712D02*
X13942397Y-211712D01*
X10617329Y-6584863D02*
X10617329Y-6584863D01*
X10063082Y1173768D02*
X10063082Y1173768D01*
X7569246Y-3259794D02*
X7846370Y-3259794D01*
X7015136Y-2428424D02*
X6738013Y-2428424D01*
X10340205Y-5753492D02*
X10340205Y-5199384D01*
X8677740Y619521D02*
X8954725Y619521D01*
X13111164Y-2428424D02*
X13111164Y-2151438D01*
X15327877Y-3259794D02*
X15327877Y-3259794D01*
X8954725Y-1597191D02*
X8954725Y-1597191D01*
X10894452Y-488835D02*
X10894452Y-488835D01*
X13388150Y-488835D02*
X13388150Y-765959D01*
X8954725Y-211712D02*
X8954725Y-211712D01*
X12556917Y65412D02*
X12556917Y65412D01*
X15605000Y-4922260D02*
X15605000Y-4922260D01*
X8400616Y-6584863D02*
X8400616Y-7138972D01*
X9231849Y-4091027D02*
X9508973Y-4091027D01*
X11448561Y-2982671D02*
X11725685Y-2982671D01*
X13942397Y-3813904D02*
X13942397Y-4091027D01*
X11725685Y-4091027D02*
X11171438Y-4091027D01*
X10617329Y-211712D02*
X10894452Y-211712D01*
X11725685Y1450753D02*
X11725685Y1450753D01*
X13111164Y-4645136D02*
X13111164Y-4645136D01*
X10617329Y65412D02*
X10340205Y65412D01*
X13665274Y-1597191D02*
X13665274Y-1320068D01*
X8400616Y-5476507D02*
X8123493Y-5476507D01*
X11448561Y-6584863D02*
X10894452Y-6584863D01*
X7015136Y-2428424D02*
X7015136Y-2151438D01*
X10894452Y-7138972D02*
X10894452Y-6861987D01*
X9786096Y1450753D02*
X9786096Y1450753D01*
X9231849Y-6584863D02*
X9231849Y-6861987D01*
X6460890Y-5753492D02*
X6460890Y-5753492D01*
X11448561Y-2705548D02*
X11448561Y-2982671D01*
X9508973Y-5476507D02*
X9508973Y-5476507D01*
X7569246Y-3259794D02*
X7292260Y-3259794D01*
X10894452Y65412D02*
X10894452Y65412D01*
X7292260Y-1597191D02*
X7292260Y-1597191D01*
X8400616Y-2428424D02*
X8400616Y-2428424D01*
X11448561Y-5476507D02*
X11448561Y-5476507D01*
X14496644Y-765959D02*
X14496644Y-765959D01*
X7292260Y-3259794D02*
X7292260Y-3536780D01*
X10894452Y1173768D02*
X10894452Y896644D01*
X12556917Y-5476507D02*
X12279794Y-5476507D01*
X10894452Y-4645136D02*
X10894452Y-4645136D01*
X8400616Y-211712D02*
X8400616Y-211712D01*
X11171438Y65412D02*
X11448561Y65412D01*
X8954725Y-2151438D02*
X8954725Y-2151438D01*
X11171438Y-4091027D02*
X11171438Y-3813904D01*
X12834041Y-6307739D02*
X12834041Y-6307739D01*
X8400616Y-1597191D02*
X8400616Y-1597191D01*
X12556917Y-6584863D02*
X12556917Y-6584863D01*
X15327877Y-6861987D02*
X13942397Y-6861987D01*
X11448561Y1173768D02*
X11448561Y619521D01*
X14773630Y-4091027D02*
X14773630Y-3813904D01*
X12556917Y-6307739D02*
X12556917Y-6584863D01*
X10063082Y-3536780D02*
X10063082Y-3259794D01*
X13111164Y-4091027D02*
X13111164Y-4091027D01*
X13942397Y-3259794D02*
X13942397Y-2982671D01*
X9508973Y-5199384D02*
X9231849Y-5199384D01*
X11448561Y342397D02*
X11448561Y65412D01*
X10894452Y-5199384D02*
X10894452Y-5199384D01*
X15050753Y619521D02*
X14219521Y619521D01*
X8677740Y65412D02*
X8677740Y65412D01*
X12556917Y-4922260D02*
X12556917Y-4645136D01*
X10617329Y-5753492D02*
X10617329Y-5753492D01*
X13665274Y-4368151D02*
X13665274Y-4368151D01*
X7569246Y-211712D02*
X7569246Y-211712D01*
X15050753Y-1043082D02*
X15050753Y-1043082D01*
X12556917Y-5753492D02*
X12556917Y-6030616D01*
X7015136Y-3536780D02*
X7015136Y-3536780D01*
X10617329Y-211712D02*
X10617329Y-211712D01*
X11725685Y-3259794D02*
X11725685Y-3536780D01*
X11448561Y65412D02*
X11725685Y65412D01*
X6738013Y-5199384D02*
X6738013Y-5199384D01*
X12556917Y619521D02*
X12279794Y619521D01*
X7292260Y-2151438D02*
X7292260Y-2151438D01*
X10063082Y-2705548D02*
X10063082Y-2705548D01*
X13665274Y-1874315D02*
X13665274Y-1874315D01*
X6738013Y-1874315D02*
X6738013Y-2151438D01*
X7846370Y-488835D02*
X7846370Y-211712D01*
X7846370Y-2428424D02*
X7846370Y-2151438D01*
X12556917Y-488835D02*
X12556917Y-211712D01*
X11171438Y1727877D02*
X11171438Y1727877D01*
X13388150Y-1597191D02*
X13665274Y-1597191D01*
X12834041Y-1597191D02*
X12834041Y-1597191D01*
X11171438Y-4368151D02*
X11448561Y-4368151D01*
X13111164Y-3813904D02*
X13942397Y-3813904D01*
X11725685Y-3259794D02*
X12002808Y-3259794D01*
X12279794Y-3813904D02*
X12279794Y-3813904D01*
X8400616Y-3813904D02*
X8123493Y-3813904D01*
X9508973Y-5753492D02*
X10063082Y-5753492D01*
X10340205Y-2982671D02*
X10894452Y-2982671D01*
X9231849Y1727877D02*
X9231849Y2005000D01*
X12556917Y-4091027D02*
X12279794Y-4091027D01*
X12002808Y-3259794D02*
X12002808Y-3259794D01*
X15050753Y-3259794D02*
X15050753Y-3259794D01*
X8123493Y-5199384D02*
X8400616Y-5199384D01*
X13388150Y-2705548D02*
X12834041Y-2705548D01*
X12279794Y-5199384D02*
X12279794Y-4922260D01*
X7569246Y-6584863D02*
X7569246Y-6307739D01*
X10617329Y-3259794D02*
X10617329Y-3259794D01*
X7292260Y-4922260D02*
X7292260Y-4922260D01*
X12556917Y-4645136D02*
X12556917Y-4645136D01*
X8677740Y-6861987D02*
X8677740Y-6030616D01*
X11725685Y-1874315D02*
X11171438Y-1874315D01*
X8677740Y-4091027D02*
X8400616Y-4091027D01*
X9231849Y896644D02*
X9231849Y896644D01*
X10894452Y-3536780D02*
X10894452Y-3259794D01*
X9231849Y-2705548D02*
X9231849Y-2705548D01*
X9231849Y-5199384D02*
X9231849Y-4922260D01*
X10894452Y-3536780D02*
X10894452Y-3813904D01*
X8677740Y-1320068D02*
X8677740Y-1320068D01*
X12834041Y-1320068D02*
X12834041Y-1320068D01*
X15050753Y-488835D02*
X15050753Y-488835D01*
X12279794Y-765959D02*
X12279794Y-1043082D01*
X13942397Y-765959D02*
X13942397Y-1043082D01*
X8400616Y-6307739D02*
X8400616Y-6307739D01*
X8954725Y-1320068D02*
X8954725Y-1597191D01*
X10894452Y896644D02*
X10894452Y65412D01*
X7015136Y-5476507D02*
X7015136Y-5753492D01*
X11171438Y-1320068D02*
X11171438Y-1320068D01*
X14496644Y-2151438D02*
X14496644Y-2151438D01*
X9786096Y-6584863D02*
X9786096Y-6307739D01*
X9786096Y-1043082D02*
X9786096Y-1043082D01*
X9508973Y-7138972D02*
X9508973Y-7138972D01*
X13111164Y-3259794D02*
X12834041Y-3259794D01*
X7015136Y-2151438D02*
X7292260Y-2151438D01*
X12002808Y-3536780D02*
X12002808Y-3536780D01*
X11725685Y-3536780D02*
X11725685Y-4091027D01*
X11725685Y-6584863D02*
X11448561Y-6584863D01*
X12556917Y-4368151D02*
X12556917Y-4368151D01*
X12834041Y-4645136D02*
X12834041Y-4922260D01*
X7015136Y-4922260D02*
X7015136Y-5199384D01*
X12556917Y-3259794D02*
X12556917Y-3259794D01*
X8954725Y-6584863D02*
X8954725Y-6584863D01*
X11171438Y-2705548D02*
X11448561Y-2705548D01*
X13388150Y1727877D02*
X13388150Y1727877D01*
X9786096Y-3536780D02*
X9786096Y-3536780D01*
X7292260Y-1043082D02*
X7292260Y-1043082D01*
X10894452Y-3259794D02*
X10894452Y-3259794D01*
X12556917Y-5476507D02*
X12556917Y-5476507D01*
X11725685Y2005000D02*
X11725685Y2005000D01*
X9508973Y1727877D02*
X9508973Y1450753D01*
X12834041Y-6861987D02*
X12834041Y-7138972D01*
X10063082Y65412D02*
X10340205Y65412D01*
X12279794Y-6861987D02*
X12279794Y-6861987D01*
X6738013Y342397D02*
X6738013Y342397D01*
X8954725Y-2151438D02*
X9231849Y-2151438D01*
X12556917Y-1320068D02*
X12556917Y-1043082D01*
X8123493Y-2428424D02*
X8123493Y-2705548D01*
X12002808Y1727877D02*
X12002808Y1727877D01*
X9786096Y-6584863D02*
X9786096Y-6584863D01*
X10063082Y-2428424D02*
X10063082Y-2428424D01*
X8677740Y-2705548D02*
X8677740Y-2705548D01*
X12556917Y-1320068D02*
X12556917Y-1320068D01*
X12556917Y-1320068D02*
X12556917Y-1597191D01*
X12834041Y-5753492D02*
X13111164Y-5753492D01*
X8677740Y-2982671D02*
X8677740Y-2705548D01*
X8400616Y-6584863D02*
X8400616Y-6584863D01*
X12279794Y896644D02*
X12279794Y896644D01*
X8954725Y-6584863D02*
X8954725Y-6307739D01*
X11171438Y-1874315D02*
X11171438Y-1874315D01*
X13942397Y-1043082D02*
X13942397Y-1320068D01*
X12556917Y-6030616D02*
X12556917Y-6030616D01*
X6738013Y-1874315D02*
X6738013Y-1874315D01*
X9231849Y-4645136D02*
X9508973Y-4645136D01*
X9231849Y-4091027D02*
X9231849Y-4091027D01*
X10894452Y-6861987D02*
X10617329Y-6861987D01*
X12279794Y-5753492D02*
X12279794Y-5753492D01*
X9508973Y-4922260D02*
X9231849Y-4922260D01*
X12556917Y-6030616D02*
X12279794Y-6030616D01*
X12834041Y-4645136D02*
X12834041Y-4645136D01*
X7015136Y-211712D02*
X6738013Y-211712D01*
X10340205Y-4091027D02*
X10340205Y-4091027D01*
X11725685Y-6030616D02*
X11171438Y-6030616D01*
X6738013Y-488835D02*
X6738013Y-488835D01*
X10894452Y-2705548D02*
X11171438Y-2705548D01*
X9786096Y-4368151D02*
X9786096Y-3536780D01*
X14496644Y-4091027D02*
X14773630Y-4091027D01*
X9231849Y-4922260D02*
X9231849Y-4645136D01*
X11725685Y-6861987D02*
X11725685Y-6861987D01*
X14496644Y-2428424D02*
X14773630Y-2428424D01*
X13388150Y-4368151D02*
X13111164Y-4368151D01*
X12279794Y896644D02*
X12279794Y1173768D01*
X11725685Y-4368151D02*
X12002808Y-4368151D01*
X11725685Y-2982671D02*
X11725685Y-2982671D01*
X10617329Y896644D02*
X10617329Y896644D01*
X8677740Y-5753492D02*
X7846370Y-5753492D01*
X9786096Y-5199384D02*
X9786096Y-5476507D01*
X14219521Y-488835D02*
X15050753Y-488835D01*
X10063082Y-1320068D02*
X9231849Y-1320068D01*
X7569246Y-7138972D02*
X7569246Y-6861987D01*
X14219521Y1450753D02*
X14219521Y1450753D01*
X15327877Y-1043082D02*
X15327877Y-1597191D01*
X12002808Y1173768D02*
X12002808Y1173768D01*
X12834041Y-1597191D02*
X12834041Y-1874315D01*
X9231849Y-1597191D02*
X9231849Y-1597191D01*
X10894452Y-2151438D02*
X11171438Y-2151438D01*
X10617329Y1173768D02*
X10894452Y1173768D01*
X11725685Y-3536780D02*
X11448561Y-3536780D01*
X10617329Y-4645136D02*
X10617329Y-4645136D01*
X9786096Y-765959D02*
X9786096Y-765959D01*
X13111164Y1450753D02*
X13111164Y1450753D01*
X13111164Y-4368151D02*
X13111164Y-4091027D01*
X7292260Y-488835D02*
X7292260Y-211712D01*
X12279794Y1173768D02*
X12834041Y1173768D01*
X6738013Y342397D02*
X6738013Y1727877D01*
X10340205Y65412D02*
X10340205Y65412D01*
X12556917Y-2428424D02*
X11725685Y-2428424D01*
X7846370Y-488835D02*
X7846370Y-488835D01*
X9508973Y-4368151D02*
X9786096Y-4368151D01*
X14219521Y-5753492D02*
X15050753Y-5753492D01*
X11725685Y-1043082D02*
X11725685Y-1320068D01*
X12556917Y-3259794D02*
X12556917Y-3259794D01*
X12279794Y619521D02*
X12279794Y619521D01*
X7846370Y-6861987D02*
X7846370Y-6861987D01*
X8123493Y-4091027D02*
X8123493Y-4091027D01*
X10894452Y1173768D02*
X10894452Y1173768D01*
X11171438Y-3813904D02*
X11171438Y-3813904D01*
X10063082Y65412D02*
X10063082Y65412D01*
X11171438Y-3813904D02*
X11171438Y-3536780D01*
X8677740Y-1043082D02*
X8677740Y-1320068D01*
X12279794Y-3259794D02*
X12279794Y-2982671D01*
X12002808Y-6307739D02*
X11725685Y-6307739D01*
X11725685Y-5199384D02*
X11725685Y-5476507D01*
X10617329Y65412D02*
X10617329Y65412D01*
X7292260Y-6030616D02*
X7292260Y-6030616D01*
X12279794Y-3259794D02*
X12279794Y-3259794D01*
X11171438Y-3813904D02*
X11171438Y-3813904D01*
X13388150Y-1874315D02*
X13388150Y-1874315D01*
X7846370Y-3259794D02*
X7846370Y-3536780D01*
X12002808Y-3813904D02*
X12279794Y-3813904D01*
X10340205Y-2982671D02*
X9786096Y-2982671D01*
X7846370Y-5753492D02*
X7846370Y-5753492D01*
X14496644Y-2428424D02*
X14496644Y-2428424D01*
X15050753Y-1320068D02*
X15050753Y-1043082D01*
X6460890Y-4091027D02*
X6738013Y-4091027D01*
X10063082Y-4645136D02*
X9508973Y-4645136D01*
X14496644Y-1874315D02*
X14496644Y-1874315D01*
X13665274Y-1597191D02*
X13665274Y-1597191D01*
X8400616Y2005000D02*
X8677740Y2005000D01*
X7292260Y-5199384D02*
X7292260Y-5476507D01*
X7569246Y-3813904D02*
X7292260Y-3813904D01*
X13111164Y-2151438D02*
X13111164Y-2151438D01*
X14219521Y-1043082D02*
X14219521Y-1043082D01*
X10063082Y-5753492D02*
X10063082Y-5199384D01*
X8123493Y-1597191D02*
X8123493Y-1597191D01*
X6460890Y-3813904D02*
X6460890Y-3813904D01*
X9508973Y-488835D02*
X10617329Y-488835D01*
X13111164Y-6584863D02*
X13111164Y-6584863D01*
X12556917Y896644D02*
X12556917Y619521D01*
X7292260Y-1043082D02*
X7292260Y-765959D01*
X12834041Y-5199384D02*
X12556917Y-5199384D01*
X14219521Y-1043082D02*
X13942397Y-1043082D01*
X8954725Y-3259794D02*
X9231849Y-3259794D01*
X11448561Y65412D02*
X11448561Y65412D01*
X8677740Y-2705548D02*
X8400616Y-2705548D01*
X10617329Y-1874315D02*
X10617329Y-1874315D01*
X10617329Y-5199384D02*
X10617329Y-5199384D01*
X9508973Y65412D02*
X9786096Y65412D01*
X7292260Y-2151438D02*
X7292260Y-2428424D01*
X9508973Y342397D02*
X9508973Y896644D01*
X12834041Y-4091027D02*
X12834041Y-4091027D01*
X11725685Y-6030616D02*
X11725685Y-6030616D01*
X10894452Y-6030616D02*
X10617329Y-6030616D01*
X14496644Y-4091027D02*
X14496644Y-4091027D01*
X7846370Y-6307739D02*
X7846370Y-6584863D01*
X15327877Y-2428424D02*
X15327877Y-2151438D01*
X10340205Y-3813904D02*
X10340205Y-3813904D01*
X7015136Y1450753D02*
X7846370Y1450753D01*
X14219521Y-2982671D02*
X14219521Y-3536780D01*
X9786096Y-6030616D02*
X10617329Y-6030616D01*
X9508973Y-3536780D02*
X9508973Y-3813904D01*
X14219521Y-488835D02*
X14219521Y-488835D01*
X12279794Y-1597191D02*
X12279794Y-1597191D01*
X9508973Y-6307739D02*
X9508973Y-6307739D01*
X9231849Y1173768D02*
X9231849Y1173768D01*
X9508973Y-3813904D02*
X9508973Y-3813904D01*
X9508973Y-4645136D02*
X9508973Y-4922260D01*
X13388150Y65412D02*
X13111164Y65412D01*
X9231849Y-4922260D02*
X8954725Y-4922260D01*
X10340205Y-6307739D02*
X10340205Y-6307739D01*
X9231849Y-4368151D02*
X9231849Y-4368151D01*
X13665274Y-5199384D02*
X13665274Y-7138972D01*
X9786096Y-6307739D02*
X9508973Y-6307739D01*
X10894452Y1173768D02*
X11448561Y1173768D01*
X7292260Y-3813904D02*
X7292260Y-4368151D01*
X10340205Y-1043082D02*
X10340205Y-1043082D01*
X14219521Y-1874315D02*
X14496644Y-1874315D01*
X12556917Y-488835D02*
X12556917Y-488835D01*
X14773630Y-2428424D02*
X14773630Y-2982671D01*
X7569246Y-6307739D02*
X7569246Y-6307739D01*
X8400616Y-488835D02*
X8400616Y-1043082D01*
X10340205Y-6584863D02*
X10340205Y-6584863D01*
X10340205Y65412D02*
X10340205Y619521D01*
X9508973Y-3813904D02*
X9231849Y-3813904D01*
X11448561Y-1043082D02*
X11448561Y-1043082D01*
X14773630Y-1320068D02*
X15050753Y-1320068D01*
X13388150Y-5476507D02*
X13388150Y-4645136D01*
X12556917Y-2982671D02*
X12556917Y-2982671D01*
X12834041Y-3259794D02*
X12834041Y-3259794D01*
X8954725Y-4645136D02*
X8954725Y-4645136D01*
X7015136Y-5476507D02*
X7015136Y-5476507D01*
X13388150Y-4091027D02*
X13388150Y-4368151D01*
X11171438Y-6861987D02*
X11171438Y-6861987D01*
X7569246Y-3259794D02*
X7569246Y-3259794D01*
X12556917Y-3536780D02*
X12556917Y-3259794D01*
X9786096Y-2428424D02*
X9786096Y-2428424D01*
X7292260Y-3536780D02*
X7292260Y-3536780D01*
X10340205Y-1043082D02*
X10340205Y-765959D01*
X8400616Y-3259794D02*
X8400616Y-2982671D01*
X9231849Y1727877D02*
X9508973Y1727877D01*
X8400616Y-2151438D02*
X8400616Y-2428424D01*
X10063082Y-6861987D02*
X10063082Y-6861987D01*
X10894452Y-211712D02*
X10894452Y-488835D01*
X7569246Y-6307739D02*
X7846370Y-6307739D01*
X10340205Y-5199384D02*
X10617329Y-5199384D01*
X8400616Y-1597191D02*
X8400616Y-1043082D01*
X6460890Y-488835D02*
X6460890Y-488835D01*
X12279794Y-2982671D02*
X12279794Y-2982671D01*
X10617329Y-3536780D02*
X10894452Y-3536780D01*
X12002808Y-2982671D02*
X11725685Y-2982671D01*
X9508973Y-6584863D02*
X9231849Y-6584863D01*
X7292260Y-6584863D02*
X7292260Y-6584863D01*
X15050753Y-4645136D02*
X14496644Y-4645136D01*
X11171438Y65412D02*
X11171438Y342397D01*
X13942397Y-211712D02*
X13942397Y-488835D01*
X12556917Y-5753492D02*
X12556917Y-5753492D01*
X7015136Y-5476507D02*
X6738013Y-5476507D01*
X6738013Y-3259794D02*
X7015136Y-3259794D01*
X12834041Y-6861987D02*
X12834041Y-6861987D01*
X7569246Y-7138972D02*
X7569246Y-7138972D01*
X13388150Y1727877D02*
X13388150Y1450753D01*
X9508973Y-2982671D02*
X9508973Y-2982671D01*
X7015136Y1450753D02*
X7015136Y1450753D01*
X7292260Y-5476507D02*
X7292260Y-5476507D01*
X7846370Y-2151438D02*
X7846370Y-2151438D01*
X11448561Y-3536780D02*
X11448561Y-3536780D01*
X6738013Y-1043082D02*
X7015136Y-1043082D01*
X6738013Y-7138972D02*
X6738013Y-7138972D01*
X13942397Y-2982671D02*
X13665274Y-2982671D01*
X9508973Y-2705548D02*
X10063082Y-2705548D01*
X10894452Y-4922260D02*
X10617329Y-4922260D01*
X14496644Y-1874315D02*
X14496644Y-2151438D01*
X8954725Y-1874315D02*
X8954725Y-1597191D01*
X9508973Y-4091027D02*
X9508973Y-4368151D01*
X15605000Y-4922260D02*
X15605000Y-5199384D01*
X6738013Y-6861987D02*
X6738013Y-7138972D01*
X11171438Y-1874315D02*
X11171438Y-1597191D01*
X14219521Y-211712D02*
X14219521Y-211712D01*
X11171438Y-7138972D02*
X11171438Y-7138972D01*
X11171438Y-6307739D02*
X11171438Y-6307739D01*
X13111164Y-4922260D02*
X12834041Y-4922260D01*
X6460890Y-7138972D02*
X6460890Y-6030616D01*
X7292260Y-765959D02*
X7292260Y-765959D01*
X12002808Y-211712D02*
X12002808Y-211712D01*
X6460890Y-5199384D02*
X6738013Y-5199384D01*
X12002808Y-4645136D02*
X12002808Y-4645136D01*
X8954725Y-6030616D02*
X8954725Y-6030616D01*
X9508973Y896644D02*
X9786096Y896644D01*
X14496644Y-1043082D02*
X14496644Y-1043082D01*
X10617329Y-3813904D02*
X10617329Y-3536780D01*
X10894452Y-2982671D02*
X10894452Y-2705548D01*
X10617329Y-4922260D02*
X10617329Y-4645136D01*
X8123493Y342397D02*
X8123493Y342397D01*
X9786096Y-5476507D02*
X9508973Y-5476507D01*
X11448561Y-765959D02*
X11448561Y-1043082D01*
X12002808Y342397D02*
X12002808Y342397D01*
X8123493Y-4368151D02*
X8123493Y-4645136D01*
X14496644Y-2151438D02*
X13942397Y-2151438D01*
X14219521Y-6584863D02*
X14219521Y-6584863D01*
X9231849Y-3536780D02*
X8954725Y-3536780D01*
X15050753Y-1597191D02*
X15050753Y-1597191D01*
X12002808Y-3259794D02*
X12002808Y-3536780D01*
X7292260Y-6307739D02*
X7292260Y-6584863D01*
X11171438Y-3536780D02*
X10894452Y-3536780D01*
X10340205Y-2428424D02*
X10340205Y-2428424D01*
X6460890Y-2705548D02*
X6460890Y-2705548D01*
X12834041Y1450753D02*
X12834041Y1727877D01*
X7015136Y-2428424D02*
X7015136Y-2428424D01*
X6460890Y-765959D02*
X6738013Y-765959D01*
X7015136Y-3259794D02*
X7292260Y-3259794D01*
X11448561Y-6584863D02*
X11448561Y-6584863D01*
X8400616Y-6030616D02*
X8400616Y-6030616D01*
X11171438Y-488835D02*
X11171438Y-488835D01*
X14496644Y-765959D02*
X14219521Y-765959D01*
X8677740Y1727877D02*
X8677740Y1727877D01*
X10063082Y619521D02*
X10063082Y1173768D01*
X7015136Y619521D02*
X7015136Y619521D01*
X15605000Y-1874315D02*
X15605000Y-1874315D01*
X7569246Y-2428424D02*
X7569246Y-2428424D01*
X12834041Y-1597191D02*
X12834041Y-1320068D01*
X10617329Y-1597191D02*
X10617329Y-1874315D01*
X8123493Y-3536780D02*
X8123493Y-3536780D01*
X9508973Y-5476507D02*
X9508973Y-5199384D01*
X15327877Y-3259794D02*
X15327877Y-4922260D01*
X11725685Y-6584863D02*
X11725685Y-6584863D01*
X11448561Y1173768D02*
X11448561Y1173768D01*
X12279794Y-4091027D02*
X12279794Y-4091027D01*
X9231849Y-6307739D02*
X9231849Y-6584863D01*
X11448561Y-6861987D02*
X11448561Y-6861987D01*
X8400616Y-2705548D02*
X8400616Y-2705548D01*
X7292260Y-1320068D02*
X7569246Y-1320068D01*
X11171438Y-3259794D02*
X11171438Y-3259794D01*
X7292260Y-4645136D02*
X7292260Y-4645136D01*
X13388150Y-1320068D02*
X13388150Y-1597191D01*
X12556917Y-3813904D02*
X12556917Y-3813904D01*
X9231849Y-765959D02*
X8954725Y-765959D01*
X10617329Y-5753492D02*
X10340205Y-5753492D01*
X7015136Y-765959D02*
X7015136Y-765959D01*
X8954725Y-6307739D02*
X9231849Y-6307739D01*
X7015136Y-488835D02*
X7015136Y-211712D01*
X12556917Y-4922260D02*
X12556917Y-5199384D01*
X9231849Y-6861987D02*
X8677740Y-6861987D01*
X8677740Y-6861987D02*
X8677740Y-6861987D01*
X7015136Y-6307739D02*
X7292260Y-6307739D01*
X7292260Y-1043082D02*
X7292260Y-1320068D01*
X10894452Y1173768D02*
X10894452Y1173768D01*
X7292260Y-5753492D02*
X7292260Y-6030616D01*
X13942397Y-2982671D02*
X13942397Y-2982671D01*
X13111164Y-2151438D02*
X13111164Y-2151438D01*
X12002808Y-3813904D02*
X12002808Y-3813904D01*
X7569246Y-1043082D02*
X7292260Y-1043082D01*
X13665274Y-2705548D02*
X13665274Y-2705548D01*
X12002808Y-488835D02*
X12002808Y-765959D01*
X8400616Y-2151438D02*
X8400616Y-2151438D01*
X9508973Y-2428424D02*
X9508973Y-2705548D01*
X9231849Y-4645136D02*
X9231849Y-4645136D01*
X6738013Y-2705548D02*
X6738013Y-2705548D01*
X13942397Y-1043082D02*
X13942397Y-1043082D01*
X9231849Y-6584863D02*
X9231849Y-6584863D01*
X12556917Y-3259794D02*
X12834041Y-3259794D01*
X7292260Y-6307739D02*
X7292260Y-6307739D01*
X12279794Y342397D02*
X12279794Y342397D01*
X6460890Y-488835D02*
X6460890Y65412D01*
X10617329Y-7138972D02*
X10340205Y-7138972D01*
X10894452Y-3536780D02*
X10894452Y-3536780D01*
X13111164Y-2151438D02*
X13111164Y-1597191D01*
X11171438Y-4645136D02*
X11171438Y-4368151D01*
X11725685Y-2982671D02*
X11725685Y-2705548D01*
X12279794Y-6584863D02*
X12556917Y-6584863D01*
X12279794Y-6861987D02*
X12279794Y-6861987D01*
X7292260Y-5753492D02*
X7292260Y-5753492D01*
X10617329Y-4922260D02*
X10617329Y-4922260D01*
X12556917Y-6584863D02*
X12556917Y-6861987D01*
X9786096Y896644D02*
X9786096Y619521D01*
X12834041Y-1043082D02*
X12834041Y-1043082D01*
X6738013Y-6307739D02*
X6738013Y-6307739D01*
X11725685Y-5476507D02*
X11725685Y-5476507D01*
X11171438Y2005000D02*
X11171438Y2005000D01*
X8123493Y-2705548D02*
X8123493Y-2705548D01*
X11725685Y-1320068D02*
X12556917Y-1320068D01*
X7015136Y-4922260D02*
X7015136Y-4922260D01*
X7292260Y-6584863D02*
X7015136Y-6584863D01*
X8400616Y-7138972D02*
X8400616Y-7138972D01*
X7015136Y-4368151D02*
X7015136Y-4368151D01*
X8123493Y-1597191D02*
X7292260Y-1597191D01*
X13111164Y-6307739D02*
X13111164Y-6307739D01*
X7846370Y-1043082D02*
X8123493Y-1043082D01*
X8123493Y-6307739D02*
X8123493Y-6307739D01*
X10617329Y-488835D02*
X10617329Y-211712D01*
X13665274Y-1043082D02*
X13665274Y-1043082D01*
X9786096Y-1043082D02*
X10340205Y-1043082D01*
X11725685Y65412D02*
X11725685Y896644D01*
X8677740Y-3536780D02*
X8677740Y-3536780D01*
X11171438Y-2705548D02*
X11171438Y-2982671D01*
X8400616Y-4091027D02*
X8400616Y-3813904D01*
X8954725Y-4922260D02*
X8954725Y-4922260D01*
X10340205Y65412D02*
X10340205Y65412D01*
X6738013Y-6861987D02*
X6738013Y-6861987D01*
X6738013Y-1043082D02*
X6738013Y-1043082D01*
X14773630Y-2428424D02*
X14773630Y-2428424D01*
X13388150Y-5476507D02*
X13388150Y-5476507D01*
X8677740Y2005000D02*
X8677740Y1727877D01*
X7015136Y-1320068D02*
X7015136Y-1320068D01*
X12002808Y-211712D02*
X12002808Y342397D01*
X13111164Y-2151438D02*
X12556917Y-2151438D01*
X8123493Y-6307739D02*
X8123493Y-6030616D01*
X13111164Y-5476507D02*
X13388150Y-5476507D01*
X9231849Y-2151438D02*
X9231849Y-2151438D01*
X11448561Y-3813904D02*
X11448561Y-3813904D01*
X8677740Y-1043082D02*
X8677740Y-1043082D01*
X12279794Y-5199384D02*
X12279794Y-5476507D01*
X15605000Y-5199384D02*
X15605000Y-5199384D01*
X12834041Y-488835D02*
X12556917Y-488835D01*
X10340205Y-7138972D02*
X10340205Y-6584863D01*
X8400616Y-1597191D02*
X8400616Y-1597191D01*
X11171438Y65412D02*
X11171438Y65412D01*
X10340205Y-4368151D02*
X10340205Y-4368151D01*
X8123493Y-488835D02*
X8400616Y-488835D01*
X7846370Y-3259794D02*
X7846370Y-3259794D01*
X8400616Y-2705548D02*
X8400616Y-2982671D01*
X12834041Y-1043082D02*
X12834041Y-488835D01*
X11725685Y-765959D02*
X11725685Y-765959D01*
X8954725Y-5753492D02*
X9231849Y-5753492D01*
X10894452Y-6584863D02*
X10894452Y-6030616D01*
X8400616Y-2982671D02*
X8677740Y-2982671D01*
X9508973Y-6584863D02*
X9508973Y-6584863D01*
X13942397Y-488835D02*
X13388150Y-488835D01*
X15327877Y-2151438D02*
X15327877Y-2151438D01*
X12556917Y2005000D02*
X13665274Y2005000D01*
X7846370Y-4645136D02*
X7846370Y-4368151D01*
X9786096Y-2151438D02*
X9786096Y-2151438D01*
X8677740Y-4922260D02*
X8677740Y-4922260D01*
X12834041Y-2705548D02*
X12834041Y-2428424D01*
X9231849Y1727877D02*
X9231849Y1727877D01*
X15327877Y-4922260D02*
X15327877Y-4922260D01*
X13942397Y-4645136D02*
X13665274Y-4645136D01*
X11171438Y-2982671D02*
X10894452Y-2982671D01*
X10894452Y-7138972D02*
X10894452Y-7138972D01*
X14496644Y-4922260D02*
X14496644Y-4645136D01*
X12002808Y-5476507D02*
X12002808Y-5476507D01*
X8677740Y65412D02*
X8677740Y619521D01*
X6738013Y-2151438D02*
X7015136Y-2151438D01*
X9508973Y-2982671D02*
X9508973Y-2705548D01*
X11171438Y-1597191D02*
X11171438Y-1597191D01*
X10340205Y-5199384D02*
X10340205Y-5199384D01*
X10617329Y-6030616D02*
X10617329Y-5753492D01*
X8400616Y65412D02*
X8400616Y2005000D01*
X13388150Y-2428424D02*
X13388150Y-2428424D01*
X12834041Y-5753492D02*
X12834041Y-5753492D01*
X8954725Y896644D02*
X9231849Y896644D01*
X14219521Y-765959D02*
X14219521Y-1043082D01*
X15050753Y-4368151D02*
X15050753Y-4368151D01*
X12556917Y-1043082D02*
X12556917Y-1043082D01*
X8677740Y-4368151D02*
X8677740Y-4645136D01*
X15050753Y1450753D02*
X15050753Y1450753D01*
X12556917Y-5199384D02*
X12556917Y-5199384D01*
X8954725Y619521D02*
X8954725Y896644D01*
X7292260Y-2705548D02*
X7569246Y-2705548D01*
X9231849Y-3259794D02*
X9231849Y-2982671D01*
X13665274Y-4922260D02*
X14496644Y-4922260D01*
X12002808Y-1043082D02*
X12002808Y-765959D01*
X11171438Y-4368151D02*
X11171438Y-4368151D01*
X12556917Y-3813904D02*
X12556917Y-4091027D01*
X11448561Y-2705548D02*
X11448561Y-2705548D01*
X8123493Y-6030616D02*
X8400616Y-6030616D01*
X12279794Y-6307739D02*
X12279794Y-6307739D01*
X7569246Y-3259794D02*
X7569246Y-3259794D01*
X12279794Y-488835D02*
X12279794Y-488835D01*
X12556917Y-6307739D02*
X12556917Y-6307739D01*
X13388150Y-765959D02*
X13388150Y-765959D01*
X10894452Y-4091027D02*
X10894452Y-4091027D01*
X9786096Y-3536780D02*
X9508973Y-3536780D01*
X10063082Y1727877D02*
X11171438Y1727877D01*
X13111164Y-6861987D02*
X13111164Y-6861987D01*
X15050753Y-1597191D02*
X15050753Y-1874315D01*
X12556917Y-5199384D02*
X12556917Y-5476507D01*
X12002808Y-765959D02*
X11725685Y-765959D01*
X7292260Y-765959D02*
X7292260Y-765959D01*
X8400616Y-4645136D02*
X8400616Y-4368151D01*
X10894452Y-3259794D02*
X10617329Y-3259794D01*
X10063082Y-5199384D02*
X10063082Y-5199384D01*
X11171438Y-1320068D02*
X11448561Y-1320068D01*
X12002808Y-2705548D02*
X12002808Y-2982671D01*
X7015136Y-6030616D02*
X7015136Y-5753492D01*
X9508973Y896644D02*
X9508973Y896644D01*
X10063082Y-4091027D02*
X10063082Y-4645136D01*
X12279794Y1727877D02*
X12556917Y1727877D01*
X9231849Y-3259794D02*
X9231849Y-3259794D01*
X13388150Y1173768D02*
X13111164Y1173768D01*
X8123493Y-1597191D02*
X8123493Y-1597191D01*
X7015136Y-3259794D02*
X7015136Y-3259794D01*
X13942397Y-1874315D02*
X13942397Y-2151438D01*
X11448561Y-3259794D02*
X11448561Y-3259794D01*
X11171438Y2005000D02*
X11725685Y2005000D01*
X10340205Y-4368151D02*
X10894452Y-4368151D01*
X15050753Y-2428424D02*
X15327877Y-2428424D01*
X9231849Y-2982671D02*
X9231849Y-2982671D01*
X13942397Y-1320068D02*
X14219521Y-1320068D01*
X10063082Y-5199384D02*
X10340205Y-5199384D01*
X10894452Y-2428424D02*
X10894452Y-2428424D01*
X8400616Y-6030616D02*
X8400616Y-6307739D01*
X10340205Y619521D02*
X10063082Y619521D01*
X13942397Y-2428424D02*
X13388150Y-2428424D01*
X12279794Y-5476507D02*
X12279794Y-5476507D01*
X12279794Y-7138972D02*
X12279794Y-6861987D01*
X9508973Y1450753D02*
X9231849Y1450753D01*
X11448561Y-2982671D02*
X11448561Y-2982671D01*
X13942397Y-3259794D02*
X13942397Y-3259794D01*
X10063082Y-3259794D02*
X10063082Y-3259794D01*
X8123493Y-2705548D02*
X8400616Y-2705548D01*
X9508973Y-4368151D02*
X9231849Y-4368151D01*
X13111164Y-1597191D02*
X12834041Y-1597191D01*
X8400616Y-2982671D02*
X8123493Y-2982671D01*
X9508973Y65412D02*
X9508973Y65412D01*
X7015136Y-6030616D02*
X7015136Y-6030616D01*
X10063082Y-7138972D02*
X9508973Y-7138972D01*
X12279794Y-3813904D02*
X12279794Y-3536780D01*
X13665274Y2005000D02*
X13665274Y65412D01*
X8954725Y-211712D02*
X8954725Y-488835D01*
X10063082Y619521D02*
X10063082Y619521D01*
X13111164Y-2982671D02*
X13111164Y-2982671D01*
X7015136Y-7138972D02*
X7015136Y-6861987D01*
X8400616Y-488835D02*
X8400616Y-488835D01*
X7292260Y-765959D02*
X7846370Y-765959D01*
X12556917Y-5199384D02*
X12556917Y-5199384D01*
X11725685Y896644D02*
X11725685Y896644D01*
X9231849Y-488835D02*
X9231849Y342397D01*
X7292260Y-6030616D02*
X7015136Y-6030616D01*
X10063082Y-2151438D02*
X10063082Y-2151438D01*
X13665274Y-1320068D02*
X13665274Y-1320068D01*
X8123493Y-3536780D02*
X8123493Y-3813904D01*
X8954725Y65412D02*
X8677740Y65412D01*
X8954725Y-6030616D02*
X8954725Y-5753492D01*
X10063082Y-3536780D02*
X10063082Y-3536780D01*
X7569246Y-3813904D02*
X7569246Y-3259794D01*
X11448561Y-5753492D02*
X11448561Y-5753492D01*
X6460890Y-2982671D02*
X6738013Y-2982671D01*
X11725685Y-1320068D02*
X11725685Y-1320068D01*
X12279794Y-4368151D02*
X12279794Y-4368151D01*
X7015136Y-5199384D02*
X7292260Y-5199384D01*
X11171438Y-2982671D02*
X11171438Y-2982671D01*
X11725685Y-6307739D02*
X11725685Y-6030616D01*
X12002808Y-765959D02*
X12002808Y-765959D01*
X7015136Y-6861987D02*
X7292260Y-6861987D01*
X6460890Y-5753492D02*
X6460890Y-5199384D01*
X11171438Y1450753D02*
X10894452Y1450753D01*
X8954725Y-1597191D02*
X8400616Y-1597191D01*
X9508973Y1173768D02*
X9508973Y1173768D01*
X6738013Y-2982671D02*
X6738013Y-2982671D01*
X13111164Y-6584863D02*
X13111164Y-6861987D01*
X12834041Y-2982671D02*
X12834041Y-2982671D01*
X12279794Y-7138972D02*
X12279794Y-7138972D01*
X13665274Y-7138972D02*
X13388150Y-7138972D01*
X14773630Y-2982671D02*
X15050753Y-2982671D01*
X10340205Y896644D02*
X10617329Y896644D01*
X10894452Y896644D02*
X10894452Y896644D01*
X11448561Y-4922260D02*
X11448561Y-4922260D01*
X7569246Y-6584863D02*
X7569246Y-6584863D01*
X7292260Y-765959D02*
X7292260Y-488835D01*
X8400616Y-1043082D02*
X8123493Y-1043082D01*
X7292260Y-488835D02*
X7015136Y-488835D01*
X14496644Y-4645136D02*
X14219521Y-4645136D01*
X12002808Y-1043082D02*
X12002808Y-1043082D01*
X10340205Y-6584863D02*
X10340205Y-6584863D01*
X7569246Y-211712D02*
X7569246Y-488835D01*
X12279794Y-1874315D02*
X12279794Y-1874315D01*
X13111164Y1450753D02*
X13111164Y1450753D01*
X6738013Y-4645136D02*
X6460890Y-4645136D01*
X12834041Y-4091027D02*
X12834041Y-4368151D01*
X14496644Y-4645136D02*
X14496644Y-4368151D01*
X9508973Y342397D02*
X9508973Y65412D01*
X11171438Y1727877D02*
X11171438Y1727877D01*
X7015136Y-1597191D02*
X7015136Y-1597191D01*
X7015136Y-3536780D02*
X7015136Y-3259794D01*
X10894452Y-3536780D02*
X10894452Y-3536780D01*
X12556917Y-1597191D02*
X12834041Y-1597191D01*
X12834041Y-5199384D02*
X12834041Y-5199384D01*
X7015136Y-1043082D02*
X7292260Y-1043082D01*
X14219521Y-765959D02*
X14219521Y-765959D01*
X13942397Y-6861987D02*
X13942397Y-6861987D01*
X10340205Y-4091027D02*
X10340205Y-4091027D01*
X9508973Y896644D02*
X9508973Y896644D01*
X11171438Y-3536780D02*
X11171438Y-3536780D01*
X15327877Y-6861987D02*
X15327877Y-6861987D01*
X8954725Y-4091027D02*
X8954725Y-3813904D01*
X8954725Y-2428424D02*
X8954725Y-2428424D01*
X9508973Y-4922260D02*
X9508973Y-5199384D01*
X12556917Y-1597191D02*
X12556917Y-1597191D01*
X8400616Y-4368151D02*
X8677740Y-4368151D01*
X7015136Y-6861987D02*
X7015136Y-6861987D01*
X8954725Y-1320068D02*
X8954725Y-1320068D01*
X15327877Y-4922260D02*
X15605000Y-4922260D01*
X6738013Y-5476507D02*
X6738013Y-5476507D01*
X15050753Y-2982671D02*
X15050753Y-3259794D01*
X12556917Y619521D02*
X12556917Y619521D01*
X8123493Y-4645136D02*
X8123493Y-4645136D01*
X8123493Y-2982671D02*
X8123493Y-2705548D01*
X11725685Y1173768D02*
X11725685Y1173768D01*
X8400616Y-211712D02*
X8954725Y-211712D01*
X8123493Y-2151438D02*
X8123493Y-2151438D01*
X8954725Y-1874315D02*
X8954725Y-1874315D01*
X12279794Y342397D02*
X12279794Y-488835D01*
X12279794Y-6584863D02*
X12279794Y-6584863D01*
X11171438Y-3536780D02*
X11448561Y-3536780D01*
X7292260Y-2428424D02*
X7015136Y-2428424D01*
X7569246Y-2705548D02*
X7569246Y-2705548D01*
X11725685Y-2705548D02*
X12002808Y-2705548D01*
X10894452Y-5753492D02*
X10894452Y-5199384D01*
X9231849Y-4645136D02*
X9231849Y-4645136D01*
X7015136Y-2151438D02*
X7015136Y-2151438D01*
X12556917Y-765959D02*
X12556917Y-765959D01*
X6460890Y-2705548D02*
X6460890Y-1874315D01*
X7846370Y-1043082D02*
X7846370Y-1043082D01*
X9508973Y-4645136D02*
X9508973Y-4645136D01*
X8123493Y-2705548D02*
X8123493Y-2705548D01*
X13942397Y-2705548D02*
X13942397Y-2705548D01*
X14773630Y-1874315D02*
X14773630Y-1874315D01*
X10894452Y-6030616D02*
X10894452Y-6030616D01*
X7569246Y-1043082D02*
X7569246Y-1043082D01*
X11448561Y-4922260D02*
X12279794Y-4922260D01*
X13665274Y-1874315D02*
X13942397Y-1874315D01*
X8954725Y619521D02*
X8954725Y619521D01*
X10617329Y-6030616D02*
X10617329Y-6030616D01*
X10894452Y-4368151D02*
X10894452Y-4368151D01*
X10340205Y-4091027D02*
X10340205Y-4368151D01*
X13942397Y-2151438D02*
X13942397Y-2428424D01*
X9231849Y-1874315D02*
X9231849Y-1874315D01*
X11725685Y-2982671D02*
X11725685Y-3259794D01*
X14496644Y-4922260D02*
X14496644Y-4922260D01*
X7846370Y-6307739D02*
X7846370Y-6307739D01*
X8677740Y-4645136D02*
X8400616Y-4645136D01*
X8400616Y-1043082D02*
X8677740Y-1043082D01*
X15050753Y-2705548D02*
X15050753Y-2705548D01*
X8954725Y-1874315D02*
X8954725Y-1874315D01*
X10340205Y619521D02*
X10340205Y619521D01*
X12834041Y-4922260D02*
X12834041Y-5199384D01*
X12279794Y-5753492D02*
X12279794Y-5753492D01*
X11171438Y896644D02*
X10894452Y896644D01*
X14496644Y-1043082D02*
X14496644Y-765959D01*
X10894452Y-488835D02*
X11171438Y-488835D01*
X11171438Y-3813904D02*
X10894452Y-3813904D01*
X8954725Y-4645136D02*
X9231849Y-4645136D01*
X11171438Y-1597191D02*
X11171438Y-1597191D01*
X12002808Y-4645136D02*
X11725685Y-4645136D01*
X9786096Y342397D02*
X9508973Y342397D01*
X15605000Y-211712D02*
X14219521Y-211712D01*
X7846370Y-211712D02*
X8123493Y-211712D01*
X12556917Y1450753D02*
X12556917Y1450753D01*
X7292260Y-7138972D02*
X7292260Y-7138972D01*
X9786096Y2005000D02*
X9786096Y1450753D01*
X9508973Y-7138972D02*
X9508973Y-6861987D01*
X13111164Y619521D02*
X13111164Y619521D01*
X6738013Y-2982671D02*
X6738013Y-3259794D01*
X9231849Y-488835D02*
X9231849Y-488835D01*
X8954725Y-488835D02*
X8954725Y-488835D01*
X11171438Y-6307739D02*
X11448561Y-6307739D01*
X8400616Y-1597191D02*
X8400616Y-1874315D01*
X13665274Y-7138972D02*
X13665274Y-7138972D01*
X13111164Y65412D02*
X13111164Y619521D01*
X9231849Y-1320068D02*
X9231849Y-1320068D01*
X7292260Y-3813904D02*
X7292260Y-3813904D01*
X9508973Y-6030616D02*
X9508973Y-5753492D01*
X12279794Y-5476507D02*
X12002808Y-5476507D01*
X12002808Y-2705548D02*
X12002808Y-2705548D01*
X9786096Y-6307739D02*
X9786096Y-6307739D01*
X12556917Y619521D02*
X12834041Y619521D01*
X7846370Y-4645136D02*
X7846370Y-4645136D01*
X10617329Y-7138972D02*
X10617329Y-7138972D01*
X9231849Y-4091027D02*
X8954725Y-4091027D01*
X12002808Y-6030616D02*
X12002808Y-6307739D01*
X15605000Y-1874315D02*
X15605000Y-2705548D01*
X14773630Y-3536780D02*
X14773630Y-3536780D01*
X7846370Y-4922260D02*
X8677740Y-4922260D01*
X14496644Y-4368151D02*
X15050753Y-4368151D01*
X13942397Y342397D02*
X13942397Y342397D01*
X13665274Y-3259794D02*
X13665274Y-3259794D01*
X11725685Y-1874315D02*
X11725685Y-1874315D01*
X9231849Y-2151438D02*
X9231849Y-1874315D01*
X9786096Y-1597191D02*
X9786096Y-1597191D01*
X15327877Y1727877D02*
X15327877Y342397D01*
X11171438Y-765959D02*
X11171438Y-765959D01*
X8400616Y-5199384D02*
X8400616Y-5476507D01*
X11448561Y1450753D02*
X11448561Y1727877D01*
X15327877Y-2151438D02*
X15050753Y-2151438D01*
X10063082Y-4091027D02*
X10063082Y-4091027D01*
X13388150Y-7138972D02*
X13388150Y-5753492D01*
X13111164Y-6307739D02*
X12834041Y-6307739D01*
X7015136Y-4645136D02*
X7015136Y-4645136D01*
X11171438Y-3259794D02*
X11171438Y-3536780D01*
X12002808Y-4368151D02*
X12002808Y-3813904D01*
X11448561Y619521D02*
X11171438Y619521D01*
X7015136Y-6584863D02*
X7015136Y-6861987D01*
X10617329Y-488835D02*
X10617329Y-488835D01*
X10063082Y-1874315D02*
X10063082Y-2151438D01*
X13665274Y-3536780D02*
X13665274Y-3259794D01*
X12556917Y65412D02*
X12556917Y619521D01*
X7846370Y-211712D02*
X7846370Y-211712D01*
X8954725Y-4091027D02*
X8954725Y-4091027D01*
X9231849Y2005000D02*
X9786096Y2005000D01*
X12279794Y1450753D02*
X12279794Y1727877D01*
X10340205Y1173768D02*
X10340205Y1173768D01*
X9508973Y-1874315D02*
X9508973Y-2151438D01*
X7846370Y-6584863D02*
X7846370Y-6584863D01*
X9231849Y1450753D02*
X9231849Y1450753D01*
X15050753Y-1874315D02*
X15605000Y-1874315D01*
X13665274Y-4368151D02*
X13942397Y-4368151D01*
X11171438Y-211712D02*
X11171438Y65412D01*
X12556917Y1727877D02*
X12556917Y1727877D01*
X10894452Y-4368151D02*
X10894452Y-4645136D01*
X8123493Y-211712D02*
X8123493Y-211712D01*
X10340205Y1173768D02*
X10340205Y896644D01*
X8123493Y-1043082D02*
X8123493Y-1043082D01*
X12279794Y-5753492D02*
X12279794Y-6030616D01*
X9231849Y-3813904D02*
X9231849Y-3536780D01*
X15605000Y65412D02*
X15605000Y65412D01*
X13111164Y-6861987D02*
X12834041Y-6861987D01*
X8400616Y-2428424D02*
X8123493Y-2428424D01*
X10894452Y-5753492D02*
X10894452Y-5753492D01*
X13665274Y-2151438D02*
X13665274Y-1874315D01*
X10617329Y-2705548D02*
X10617329Y-2705548D01*
X12834041Y619521D02*
X12834041Y619521D01*
X7015136Y-7138972D02*
X7015136Y-7138972D01*
X11171438Y-2705548D02*
X11171438Y-2705548D01*
X9786096Y65412D02*
X9786096Y65412D01*
X9786096Y-1597191D02*
X10063082Y-1597191D01*
X8123493Y-3536780D02*
X8123493Y-3259794D01*
X7292260Y-211712D02*
X7292260Y-211712D01*
X8954725Y-1597191D02*
X9231849Y-1597191D01*
X8954725Y-2151438D02*
X8400616Y-2151438D01*
X12834041Y-7138972D02*
X12834041Y-7138972D01*
X12279794Y-3813904D02*
X12279794Y-3813904D01*
X8400616Y-4091027D02*
X8400616Y-4091027D01*
X11448561Y-1320068D02*
X11448561Y-1320068D01*
X10063082Y-2705548D02*
X10063082Y-2428424D01*
X11448561Y-211712D02*
X11171438Y-211712D01*
X8400616Y-1043082D02*
X8400616Y-1043082D01*
X12279794Y619521D02*
X12279794Y896644D01*
X15605000Y-5199384D02*
X13665274Y-5199384D01*
X8677740Y-4645136D02*
X8677740Y-4645136D01*
X8954725Y619521D02*
X8954725Y65412D01*
X10340205Y-211712D02*
X9508973Y-211712D01*
X10063082Y-3813904D02*
X10340205Y-3813904D01*
X11171438Y-5753492D02*
X10894452Y-5753492D01*
X9786096Y619521D02*
X9786096Y619521D01*
X12279794Y-3536780D02*
X12556917Y-3536780D01*
X10894452Y-3259794D02*
X11171438Y-3259794D01*
X13111164Y-1597191D02*
X13111164Y-1597191D01*
X13665274Y-4645136D02*
X13665274Y-4645136D01*
X9231849Y1727877D02*
X9231849Y1727877D01*
X15050753Y-2428424D02*
X15050753Y-2428424D01*
X6738013Y-6584863D02*
X6738013Y-6307739D01*
X13111164Y-5753492D02*
X13111164Y-5476507D01*
X11171438Y-6030616D02*
X11171438Y-6307739D01*
X13111164Y-5476507D02*
X13111164Y-5476507D01*
X10617329Y-4645136D02*
X10894452Y-4645136D01*
X10340205Y-7138972D02*
X10340205Y-7138972D01*
X9508973Y342397D02*
X9508973Y342397D01*
X8400616Y-4368151D02*
X8400616Y-4368151D01*
X10617329Y-3536780D02*
X10617329Y-3536780D01*
X12556917Y-2428424D02*
X12556917Y-2428424D01*
X7569246Y-2705548D02*
X7569246Y-2705548D01*
X12556917Y-4368151D02*
X12556917Y-4091027D01*
X7846370Y1450753D02*
X7846370Y619521D01*
X13942397Y-4645136D02*
X13942397Y-4645136D01*
X7015136Y-6307739D02*
X7015136Y-6307739D01*
X11725685Y1173768D02*
X11725685Y1450753D01*
X13388150Y896644D02*
X13388150Y896644D01*
X10894452Y-2982671D02*
X10894452Y-3259794D01*
X6738013Y-3536780D02*
X6738013Y-3536780D01*
X12834041Y-2428424D02*
X13111164Y-2428424D01*
X9786096Y1450753D02*
X9508973Y1450753D01*
X12002808Y-6030616D02*
X12002808Y-6030616D01*
X13665274Y-3536780D02*
X13665274Y-3536780D01*
X14219521Y619521D02*
X14219521Y619521D01*
X12279794Y-6861987D02*
X11725685Y-6861987D01*
X13111164Y-4645136D02*
X13111164Y-4922260D01*
X11448561Y-6307739D02*
X11448561Y-6307739D01*
X12834041Y-4922260D02*
X12834041Y-4922260D01*
X6738013Y-3536780D02*
X6738013Y-3813904D01*
X10894452Y-5753492D02*
X10894452Y-6030616D01*
X14219521Y-1320068D02*
X14219521Y-1874315D01*
X9508973Y1173768D02*
X9508973Y1173768D01*
X13388150Y-1320068D02*
X13388150Y-1320068D01*
X10894452Y-211712D02*
X10894452Y-211712D01*
X7015136Y-6030616D02*
X7015136Y-6307739D01*
X8123493Y-5476507D02*
X8123493Y-5476507D01*
X12279794Y-1597191D02*
X11171438Y-1597191D01*
X13111164Y1727877D02*
X13111164Y1727877D01*
X12834041Y-4368151D02*
X12556917Y-4368151D01*
X7292260Y-2705548D02*
X7292260Y-2705548D01*
X9231849Y896644D02*
X9231849Y896644D01*
X8677740Y-4922260D02*
X8677740Y-5753492D01*
X12556917Y-4091027D02*
X12556917Y-4091027D01*
X10894452Y-6030616D02*
X11171438Y-6030616D01*
X9508973Y-6861987D02*
X10063082Y-6861987D01*
X15327877Y-5476507D02*
X15327877Y-6861987D01*
X11171438Y-4091027D02*
X11171438Y-4091027D01*
X9231849Y-5199384D02*
X9231849Y-5199384D01*
X9231849Y-2982671D02*
X9508973Y-2982671D01*
X11448561Y-3259794D02*
X11171438Y-3259794D01*
X14773630Y-1874315D02*
X14773630Y-1320068D01*
X13388150Y896644D02*
X13388150Y1173768D01*
X12834041Y-4091027D02*
X13111164Y-4091027D01*
X9508973Y-2151438D02*
X9786096Y-2151438D01*
X7015136Y-6584863D02*
X7015136Y-6584863D01*
X11448561Y-1043082D02*
X10340205Y-1043082D01*
X10063082Y-1597191D02*
X10063082Y-1597191D01*
X12834041Y-1597191D02*
X12834041Y-1597191D01*
X12834041Y896644D02*
X13388150Y896644D01*
X11725685Y-4645136D02*
X11725685Y-4645136D01*
X11725685Y-6307739D02*
X11725685Y-6307739D01*
X8123493Y-3259794D02*
X8400616Y-3259794D01*
X12279794Y-5199384D02*
X12279794Y-5199384D01*
X6738013Y-4368151D02*
X6738013Y-4368151D01*
X9231849Y-3536780D02*
X9231849Y-3536780D01*
X11448561Y1727877D02*
X11171438Y1727877D01*
X15050753Y-2151438D02*
X15050753Y-2151438D01*
X9508973Y-4645136D02*
X9508973Y-4645136D01*
X9231849Y896644D02*
X9231849Y1173768D01*
X9231849Y-2982671D02*
X8677740Y-2982671D01*
X6460890Y-5199384D02*
X6460890Y-5199384D01*
X12834041Y1727877D02*
X12556917Y1727877D01*
X12279794Y-6030616D02*
X12279794Y-6030616D01*
X12002808Y-5199384D02*
X12279794Y-5199384D01*
X15050753Y-5753492D02*
X15050753Y-5753492D01*
X13388150Y1173768D02*
X13388150Y1173768D01*
X13388150Y619521D02*
X13388150Y65412D01*
X12279794Y-6307739D02*
X12556917Y-6307739D01*
X10063082Y-2428424D02*
X10340205Y-2428424D01*
X11448561Y-6861987D02*
X11171438Y-6861987D01*
X15327877Y1727877D02*
X15327877Y1727877D01*
X10617329Y-1320068D02*
X10617329Y-1320068D01*
X10063082Y-1597191D02*
X10063082Y-1320068D01*
X9231849Y-6307739D02*
X9231849Y-6307739D01*
X8677740Y-4091027D02*
X8677740Y-4091027D01*
X10617329Y-5753492D02*
X10894452Y-5753492D01*
X13388150Y-5753492D02*
X13111164Y-5753492D01*
X12834041Y-2982671D02*
X13111164Y-2982671D01*
X10340205Y-765959D02*
X10340205Y-765959D01*
X8123493Y-3813904D02*
X8123493Y-3813904D01*
X11171438Y1727877D02*
X11171438Y2005000D01*
X10617329Y-6584863D02*
X10340205Y-6584863D01*
X9231849Y-1874315D02*
X9231849Y-1874315D01*
X8123493Y1727877D02*
X8123493Y342397D01*
X11171438Y-1597191D02*
X11171438Y-1320068D01*
X12002808Y-2982671D02*
X12002808Y-2982671D01*
X12279794Y-2982671D02*
X12556917Y-2982671D01*
X11725685Y-4645136D02*
X11725685Y-4368151D01*
X12279794Y-4368151D02*
X12002808Y-4368151D01*
X12002808Y-765959D02*
X12279794Y-765959D01*
X13388150Y619521D02*
X13388150Y619521D01*
X11725685Y-3536780D02*
X11725685Y-3536780D01*
X8954725Y-765959D02*
X8954725Y-765959D01*
X12279794Y-765959D02*
X12279794Y-765959D01*
X15050753Y-3813904D02*
X15050753Y-3536780D01*
X7569246Y-6861987D02*
X7569246Y-6861987D01*
X8677740Y-3536780D02*
X8123493Y-3536780D01*
X10894452Y-6030616D02*
X10894452Y-6030616D01*
X13111164Y1173768D02*
X13111164Y1450753D01*
X6460890Y-1597191D02*
X6460890Y-1597191D01*
X10617329Y896644D02*
X10617329Y896644D01*
X10063082Y1173768D02*
X10063082Y1173768D01*
X8677740Y-1320068D02*
X8954725Y-1320068D01*
X11448561Y-3536780D02*
X11448561Y-3813904D01*
X12279794Y-488835D02*
X12002808Y-488835D01*
X10617329Y-2428424D02*
X10617329Y-2428424D01*
X11171438Y-1597191D02*
X10894452Y-1597191D01*
X12279794Y-488835D02*
X12279794Y-488835D01*
X13388150Y1450753D02*
X13111164Y1450753D01*
X10617329Y896644D02*
X10617329Y65412D01*
X13942397Y-5476507D02*
X15327877Y-5476507D01*
X13665274Y-4645136D02*
X13665274Y-4922260D01*
X10894452Y-2428424D02*
X10894452Y-2705548D01*
X9231849Y1173768D02*
X9508973Y1173768D01*
X6738013Y-2705548D02*
X6460890Y-2705548D01*
X6738013Y-4091027D02*
X6738013Y-4091027D01*
X6738013Y-765959D02*
X6738013Y-1043082D01*
X9508973Y-211712D02*
X9508973Y-488835D01*
X6738013Y-5199384D02*
X6738013Y-4645136D01*
X10894452Y-2982671D02*
X10894452Y-2982671D01*
X12279794Y1727877D02*
X12279794Y1727877D01*
X12556917Y1727877D02*
X12556917Y1450753D01*
X8123493Y-488835D02*
X7846370Y-488835D01*
X10617329Y-3259794D02*
X10617329Y-3536780D01*
X11448561Y1727877D02*
X11448561Y1727877D01*
X13665274Y-1320068D02*
X13388150Y-1320068D01*
X13111164Y1450753D02*
X12834041Y1450753D01*
X8677740Y-2982671D02*
X8677740Y-2982671D01*
X8677740Y-4368151D02*
X8677740Y-4368151D01*
X13665274Y-4091027D02*
X13665274Y-4091027D01*
X13942397Y-2151438D02*
X13942397Y-2151438D01*
X15327877Y-1043082D02*
X15327877Y-1043082D01*
X10063082Y1173768D02*
X10340205Y1173768D01*
X9786096Y-5476507D02*
X9786096Y-5476507D01*
X10340205Y-5199384D02*
X10340205Y-5199384D01*
X15050753Y-1874315D02*
X14773630Y-1874315D01*
X9786096Y-2151438D02*
X9786096Y-2151438D01*
X7292260Y-488835D02*
X7292260Y-488835D01*
X13388150Y-1874315D02*
X13388150Y-2151438D01*
X13942397Y-1320068D02*
X13942397Y-1320068D01*
X12556917Y-5199384D02*
X12279794Y-5199384D01*
X6738013Y-5199384D02*
X7015136Y-5199384D01*
X9231849Y619521D02*
X9231849Y619521D01*
X8677740Y-6030616D02*
X8677740Y-6030616D01*
X6738013Y-4091027D02*
X6738013Y-4368151D01*
X9508973Y1727877D02*
X9508973Y1727877D01*
X11448561Y-1043082D02*
X11448561Y-1043082D01*
X15050753Y-2705548D02*
X15050753Y-2428424D01*
X7015136Y-5753492D02*
X7015136Y-5753492D01*
X11725685Y-488835D02*
X11448561Y-488835D01*
X10894452Y-1597191D02*
X10894452Y-1597191D01*
X13111164Y-5753492D02*
X13111164Y-5753492D01*
X6460890Y-1597191D02*
X6460890Y-765959D01*
X14773630Y-3536780D02*
X14773630Y-3259794D01*
X11171438Y-3259794D02*
X11171438Y-2982671D01*
X10894452Y-6584863D02*
X10894452Y-6584863D01*
X6460890Y-6030616D02*
X6460890Y-6030616D01*
X13942397Y-1043082D02*
X13665274Y-1043082D01*
X7015136Y-6861987D02*
X6738013Y-6861987D01*
X15050753Y-1043082D02*
X15327877Y-1043082D01*
X9786096Y65412D02*
X9786096Y342397D01*
X12834041Y-4091027D02*
X12834041Y-4091027D01*
X12279794Y-5753492D02*
X12556917Y-5753492D01*
X9231849Y-4368151D02*
X9231849Y-4368151D01*
X9231849Y896644D02*
X9231849Y619521D01*
X11725685Y-1043082D02*
X11725685Y-1043082D01*
X10340205Y-3259794D02*
X10340205Y-2982671D01*
X12279794Y-4091027D02*
X12279794Y-3813904D01*
X10894452Y-3813904D02*
X10894452Y-4091027D01*
X11171438Y65412D02*
X11171438Y65412D01*
X14219521Y-5753492D02*
X14219521Y-5753492D01*
X10894452Y1450753D02*
X10894452Y1173768D01*
X10617329Y-5199384D02*
X10617329Y-5753492D01*
X10894452Y-4645136D02*
X10894452Y-4922260D01*
X11725685Y-4091027D02*
X11725685Y-4091027D01*
X8954725Y-3536780D02*
X8954725Y-3536780D01*
X13665274Y-5199384D02*
X13665274Y-5199384D01*
X10063082Y619521D02*
X10063082Y619521D01*
X13111164Y-3259794D02*
X13111164Y-3259794D01*
X8400616Y2005000D02*
X8400616Y2005000D01*
X7015136Y-211712D02*
X7015136Y-211712D01*
X15050753Y-1043082D02*
X14496644Y-1043082D01*
X11725685Y1727877D02*
X11725685Y1727877D01*
X10340205Y-1043082D02*
X10340205Y-1043082D01*
X13665274Y-4922260D02*
X13665274Y-4922260D01*
X12556917Y1727877D02*
X12556917Y2005000D01*
X9231849Y-5753492D02*
X9231849Y-5753492D01*
X12002808Y-5476507D02*
X12002808Y-5199384D01*
X12834041Y619521D02*
X12834041Y65412D01*
X14773630Y-3259794D02*
X14773630Y-3259794D01*
X11171438Y-2982671D02*
X11448561Y-2982671D01*
X13942397Y-3813904D02*
X13942397Y-3813904D01*
X9508973Y-1874315D02*
X9508973Y-1874315D01*
X8123493Y-4645136D02*
X7846370Y-4645136D01*
X13942397Y-1874315D02*
X13942397Y-1874315D01*
X8123493Y-3813904D02*
X8123493Y-4091027D01*
X12556917Y-765959D02*
X12279794Y-765959D01*
X12556917Y-6584863D02*
X13111164Y-6584863D01*
X10063082Y-6861987D02*
X10063082Y-7138972D01*
X10894452Y1450753D02*
X10894452Y1450753D01*
X7292260Y-3259794D02*
X7292260Y-3259794D01*
X14496644Y-4645136D02*
X14496644Y-4645136D01*
X14496644Y-4645136D02*
X14496644Y-4645136D01*
X7846370Y-765959D02*
X7846370Y-765959D01*
X12002808Y1173768D02*
X11725685Y1173768D01*
X11171438Y-2705548D02*
X11171438Y-2705548D01*
X11725685Y-2428424D02*
X11725685Y-2428424D01*
X7015136Y-4645136D02*
X7292260Y-4645136D01*
X11448561Y-1320068D02*
X11448561Y-1043082D01*
X13111164Y-4091027D02*
X13388150Y-4091027D01*
X11725685Y-2705548D02*
X11725685Y-2705548D01*
X6460890Y-7138972D02*
X6460890Y-7138972D01*
X9231849Y-1874315D02*
X9508973Y-1874315D01*
X10340205Y65412D02*
X10340205Y-211712D01*
X12279794Y1450753D02*
X12279794Y1450753D01*
X9231849Y-1320068D02*
X9231849Y-765959D01*
X9508973Y1173768D02*
X10063082Y1173768D01*
X7015136Y-3259794D02*
X7015136Y-2428424D01*
X12002808Y1727877D02*
X12002808Y1173768D01*
X11448561Y-4368151D02*
X11448561Y-4922260D01*
X11448561Y-2982671D02*
X11448561Y-3259794D01*
X13665274Y-2151438D02*
X13665274Y-2151438D01*
X12834041Y1727877D02*
X12834041Y1727877D01*
X9786096Y-3536780D02*
X9786096Y-3536780D01*
X7015136Y-2151438D02*
X7015136Y-1597191D01*
X7015136Y-5753492D02*
X7292260Y-5753492D01*
X8400616Y-3813904D02*
X8400616Y-3813904D01*
X11171438Y-6861987D02*
X11171438Y-7138972D01*
X12556917Y896644D02*
X12556917Y896644D01*
X10617329Y-6030616D02*
X10617329Y-6030616D01*
X11448561Y-5753492D02*
X12279794Y-5753492D01*
X12279794Y-765959D02*
X12279794Y-488835D01*
X9508973Y-5199384D02*
X9786096Y-5199384D01*
X7015136Y-3536780D02*
X7015136Y-3536780D01*
X12834041Y-488835D02*
X12834041Y-488835D01*
X9508973Y-3536780D02*
X9508973Y-3536780D01*
X7015136Y-6307739D02*
X7015136Y-6584863D01*
X9231849Y1450753D02*
X9231849Y1727877D01*
X15327877Y342397D02*
X13942397Y342397D01*
X11448561Y65412D02*
X11448561Y65412D01*
X10063082Y-7138972D02*
X10063082Y-7138972D01*
X15605000Y65412D02*
X15605000Y-211712D01*
X6738013Y-6307739D02*
X7015136Y-6307739D01*
X10617329Y-3536780D02*
X10617329Y-3536780D01*
X10894452Y-3813904D02*
X10894452Y-3813904D01*
X10894452Y-4645136D02*
X11171438Y-4645136D01*
X12556917Y-4091027D02*
X12834041Y-4091027D01*
X6460890Y-1874315D02*
X6738013Y-1874315D01*
X12834041Y-1874315D02*
X12279794Y-1874315D01*
X11725685Y-3259794D02*
X11725685Y-3259794D01*
X10340205Y-6307739D02*
X9786096Y-6307739D01*
X12834041Y896644D02*
X12834041Y896644D01*
X13942397Y-1597191D02*
X13665274Y-1597191D01*
X13665274Y-1597191D02*
X13665274Y-1597191D01*
X12002808Y-4368151D02*
X12002808Y-4368151D01*
X9508973Y1173768D02*
X9508973Y896644D01*
X11448561Y-3536780D02*
X11448561Y-3536780D01*
X8400616Y-7138972D02*
X7569246Y-7138972D01*
X13111164Y-3813904D02*
X13111164Y-3813904D01*
X15050753Y1450753D02*
X15050753Y619521D01*
X7292260Y-5476507D02*
X7015136Y-5476507D01*
X12279794Y-4922260D02*
X12279794Y-4922260D01*
X10063082Y-3536780D02*
X10063082Y-3813904D01*
X10894452Y-1597191D02*
X10617329Y-1597191D01*
X13942397Y-4368151D02*
X13942397Y-4645136D01*
X7015136Y-1043082D02*
X7015136Y-1043082D01*
X7569246Y-4091027D02*
X7569246Y-3813904D01*
X8400616Y-6307739D02*
X8123493Y-6307739D01*
X15050753Y-3536780D02*
X14773630Y-3536780D01*
X9786096Y-2428424D02*
X9508973Y-2428424D01*
X6460890Y-3813904D02*
X6460890Y-2982671D01*
X7569246Y-4091027D02*
X7569246Y-4091027D01*
X15327877Y-2428424D02*
X15327877Y-2428424D01*
X12834041Y1450753D02*
X12834041Y1450753D01*
X13665274Y-1874315D02*
X13665274Y-1874315D01*
X7015136Y-488835D02*
X7015136Y-488835D01*
X9786096Y896644D02*
X9786096Y896644D01*
X14219521Y-3536780D02*
X14219521Y-3536780D01*
X8954725Y-3259794D02*
X8954725Y-3259794D01*
X10894452Y-6861987D02*
X10894452Y-6861987D01*
X7292260Y-488835D02*
X7292260Y-488835D01*
X10063082Y-4645136D02*
X10063082Y-4645136D01*
X12279794Y-488835D02*
X12556917Y-488835D01*
X9786096Y342397D02*
X9786096Y342397D01*
X13665274Y-3259794D02*
X13942397Y-3259794D01*
X7015136Y-2428424D02*
X7015136Y-2428424D01*
X7569246Y-3813904D02*
X7569246Y-3813904D01*
X10617329Y-2705548D02*
X10617329Y-2428424D01*
X8123493Y-3813904D02*
X7569246Y-3813904D01*
X12279794Y-6861987D02*
X12279794Y-6584863D01*
X9786096Y-2982671D02*
X9786096Y-3536780D01*
X12279794Y896644D02*
X12556917Y896644D01*
X13665274Y-2705548D02*
X13942397Y-2705548D01*
X6738013Y-2428424D02*
X6738013Y-2705548D01*
X11448561Y-3259794D02*
X11448561Y-3259794D01*
X8400616Y-2705548D02*
X8400616Y-2428424D01*
X12556917Y-3536780D02*
X12556917Y-3536780D01*
X12279794Y-4922260D02*
X12556917Y-4922260D01*
X6460890Y-765959D02*
X6460890Y-765959D01*
X11448561Y-3259794D02*
X11725685Y-3259794D01*
X13942397Y-2705548D02*
X13942397Y-2982671D01*
X7015136Y-6861987D02*
X7015136Y-6861987D01*
X9231849Y-6030616D02*
X9508973Y-6030616D01*
X10063082Y-1320068D02*
X10063082Y-1320068D01*
X9508973Y-5753492D02*
X9508973Y-5753492D01*
X12279794Y1173768D02*
X12279794Y1173768D01*
X13388150Y-488835D02*
X13388150Y-488835D01*
X11171438Y-2982671D02*
X11171438Y-2982671D01*
X7292260Y-3259794D02*
X7292260Y-3259794D01*
X8954725Y-3813904D02*
X9231849Y-3813904D01*
X10617329Y896644D02*
X10617329Y1173768D01*
X9508973Y-6307739D02*
X9508973Y-6584863D01*
X6738013Y-488835D02*
X6460890Y-488835D01*
X9508973Y1450753D02*
X9508973Y1173768D01*
X10063082Y-3536780D02*
X10063082Y-3536780D01*
X11171438Y-6030616D02*
X11171438Y-6030616D01*
X12279794Y-3813904D02*
X12556917Y-3813904D01*
X11725685Y-3536780D02*
X11725685Y-3536780D01*
X6460890Y65412D02*
X6460890Y65412D01*
X15050753Y-5753492D02*
X15050753Y-6584863D01*
X12556917Y-1320068D02*
X12556917Y-1320068D01*
X15050753Y-2151438D02*
X15050753Y-1874315D01*
X12556917Y-1043082D02*
X12834041Y-1043082D01*
X6738013Y-4645136D02*
X6738013Y-4645136D01*
X13942397Y1727877D02*
X15327877Y1727877D01*
X13665274Y-1043082D02*
X13665274Y-1320068D01*
X11171438Y619521D02*
X11171438Y896644D01*
X10063082Y1727877D02*
X10063082Y1727877D01*
X10894452Y-1320068D02*
X10894452Y-1597191D01*
X12279794Y-6030616D02*
X12279794Y-6030616D01*
X14219521Y-4645136D02*
X14219521Y-3536780D01*
X7015136Y-5753492D02*
X6460890Y-5753492D01*
X15050753Y-4368151D02*
X15050753Y-4645136D01*
X10340205Y-3813904D02*
X10340205Y-4091027D01*
X13388150Y-4645136D02*
X13388150Y-4645136D01*
X9231849Y-4368151D02*
X9231849Y-4091027D01*
X12834041Y-1320068D02*
X12556917Y-1320068D01*
X11725685Y-5476507D02*
X11448561Y-5476507D01*
X14219521Y-2982671D02*
X14219521Y-2982671D01*
X8123493Y-2982671D02*
X8123493Y-2982671D01*
X9508973Y-4922260D02*
X9508973Y-4922260D01*
X10340205Y-5199384D02*
X10340205Y-4922260D01*
X8677740Y-4368151D02*
X8677740Y-4368151D01*
X10340205Y-4091027D02*
X10063082Y-4091027D01*
X14496644Y-4368151D02*
X14496644Y-4368151D01*
X9231849Y-2982671D02*
X9231849Y-2982671D01*
X11448561Y-6584863D02*
X11448561Y-6861987D01*
X14773630Y-3813904D02*
X14773630Y-3813904D01*
X9786096Y-3536780D02*
X10063082Y-3536780D01*
X14219521Y-4645136D02*
X14219521Y-4645136D01*
X7292260Y-4645136D02*
X7292260Y-4922260D01*
X11448561Y-765959D02*
X11448561Y-765959D01*
X7292260Y-4922260D02*
X7015136Y-4922260D01*
X11448561Y-4368151D02*
X11448561Y-4368151D01*
X8123493Y-1597191D02*
X8400616Y-1597191D01*
X12556917Y-488835D02*
X12556917Y-765959D01*
X10617329Y-1597191D02*
X10617329Y-1597191D01*
X11725685Y1450753D02*
X11448561Y1450753D01*
X7015136Y-1597191D02*
X6460890Y-1597191D01*
X8123493Y1727877D02*
X8123493Y1727877D01*
X8400616Y-2705548D02*
X8400616Y-2705548D01*
X8123493Y-2428424D02*
X8123493Y-2428424D01*
X10340205Y-5753492D02*
X10340205Y-5753492D01*
X12556917Y1450753D02*
X12279794Y1450753D01*
X9508973Y-4091027D02*
X9508973Y-4091027D01*
X9508973Y-5199384D02*
X9508973Y-5199384D01*
X15050753Y-1874315D02*
X15050753Y-1874315D01*
X12834041Y-6307739D02*
X12834041Y-5753492D01*
X9508973Y-211712D02*
X9508973Y-211712D01*
X10894452Y-2705548D02*
X10617329Y-2705548D01*
X11725685Y-2428424D02*
X11725685Y-1874315D01*
X7846370Y-5753492D02*
X7846370Y-4922260D01*
X10063082Y-3259794D02*
X10340205Y-3259794D01*
X12279794Y-5476507D02*
X12279794Y-5753492D01*
X6460890Y-4645136D02*
X6460890Y-4091027D01*
X8954725Y-488835D02*
X8954725Y-488835D01*
X11725685Y-5199384D02*
X11725685Y-5199384D01*
X8954725Y-6307739D02*
X8954725Y-6307739D01*
X13665274Y-2982671D02*
X13665274Y-2982671D01*
X7015136Y-5753492D02*
X7015136Y-5753492D01*
X10894452Y896644D02*
X10894452Y896644D01*
X12002808Y342397D02*
X12279794Y342397D01*
X7846370Y-4368151D02*
X8123493Y-4368151D01*
X10063082Y1173768D02*
X10063082Y1727877D01*
X10617329Y-1597191D02*
X10617329Y-1597191D01*
X9231849Y-2705548D02*
X9231849Y-2982671D01*
X8954725Y-2428424D02*
X8954725Y-2151438D01*
X7846370Y1450753D02*
X7846370Y1450753D01*
X10894452Y-2982671D02*
X10894452Y-2982671D01*
X6460890Y65412D02*
X8400616Y65412D01*
X7015136Y-4368151D02*
X7015136Y-4368151D01*
X9786096Y-765959D02*
X9786096Y-1043082D01*
X12556917Y-2982671D02*
X12556917Y-3259794D01*
X7569246Y-2705548D02*
X7569246Y-3259794D01*
X15050753Y-488835D02*
X15050753Y-1043082D01*
X11725685Y65412D02*
X11725685Y65412D01*
X9231849Y-4922260D02*
X9231849Y-4922260D01*
X7292260Y-6861987D02*
X7292260Y-7138972D01*
X9508973Y-2428424D02*
X9508973Y-2428424D01*
X10894452Y-5199384D02*
X11725685Y-5199384D01*
X11448561Y-211712D02*
X12002808Y-211712D01*
X13388150Y-7138972D02*
X13388150Y-7138972D01*
X11171438Y619521D02*
X11171438Y619521D01*
X6460890Y-6030616D02*
X7015136Y-6030616D01*
X11171438Y342397D02*
X11171438Y342397D01*
X7292260Y-1597191D02*
X7292260Y-1320068D01*
X15050753Y-3813904D02*
X15050753Y-3813904D01*
X12556917Y-211712D02*
X12556917Y-211712D01*
X6738013Y-3259794D02*
X6738013Y-3259794D01*
X10063082Y-1874315D02*
X10063082Y-1874315D01*
X8400616Y-488835D02*
X8400616Y-211712D01*
X13111164Y1450753D02*
X13111164Y1727877D01*
X11725685Y-2982671D02*
X11725685Y-2982671D01*
X12279794Y-1043082D02*
X12279794Y-1043082D01*
X7846370Y-2151438D02*
X8123493Y-2151438D01*
X10617329Y-1874315D02*
X10063082Y-1874315D01*
X14773630Y-3813904D02*
X15050753Y-3813904D01*
X10340205Y-2982671D02*
X10340205Y-2982671D01*
X11448561Y-3536780D02*
X11448561Y-3259794D01*
X14773630Y-2982671D02*
X14773630Y-2982671D01*
X10617329Y-2428424D02*
X10894452Y-2428424D01*
X8400616Y-1874315D02*
X8954725Y-1874315D01*
X10617329Y1173768D02*
X10617329Y1173768D01*
X11171438Y-211712D02*
X11171438Y-211712D01*
X7015136Y-3536780D02*
X6738013Y-3536780D01*
X9508973Y-2705548D02*
X9508973Y-2705548D01*
X13942397Y-1320068D02*
X13942397Y-1597191D01*
X14219521Y1450753D02*
X15050753Y1450753D01*
X15050753Y-6584863D02*
X14219521Y-6584863D01*
X9231849Y342397D02*
X9508973Y342397D01*
X13942397Y-1597191D02*
X13942397Y-1597191D01*
X8954725Y-3536780D02*
X8954725Y-3259794D01*
X13942397Y-4091027D02*
X13665274Y-4091027D01*
X9231849Y-6861987D02*
X9231849Y-6861987D01*
X7015136Y-5199384D02*
X7015136Y-5476507D01*
X13111164Y-5753492D02*
X13111164Y-6307739D01*
X13388150Y-2428424D02*
X13388150Y-2705548D01*
X8123493Y-5476507D02*
X8123493Y-5199384D01*
X6738013Y-211712D02*
X6738013Y-211712D01*
X10617329Y-6861987D02*
X10617329Y-6861987D01*
X11171438Y-2151438D02*
X11171438Y-2151438D01*
X13942397Y-4368151D02*
X13942397Y-4368151D01*
X6460890Y-4645136D02*
X6460890Y-4645136D01*
X7015136Y-2151438D02*
X7015136Y-2151438D01*
X13942397Y-4091027D02*
X13942397Y-4091027D01*
X15050753Y-3536780D02*
X15050753Y-3536780D01*
X12279794Y-765959D02*
X12279794Y-765959D01*
X14773630Y-3259794D02*
X14496644Y-3259794D01*
X6738013Y-3813904D02*
X6460890Y-3813904D01*
X7569246Y-1320068D02*
X7569246Y-1043082D01*
X9231849Y-1874315D02*
X8954725Y-1874315D01*
X7015136Y-4368151D02*
X7015136Y-4645136D01*
X9786096Y-2151438D02*
X9786096Y-1597191D01*
X12834041Y-4922260D02*
X12834041Y-4922260D01*
X8954725Y-488835D02*
X9231849Y-488835D01*
X14219521Y-3536780D02*
X14219521Y-3536780D01*
X11171438Y-488835D02*
X11171438Y-765959D01*
X13388150Y-5753492D02*
X13388150Y-5753492D01*
X13111164Y1727877D02*
X13388150Y1727877D01*
X11448561Y-6307739D02*
X11448561Y-6584863D01*
X10617329Y-3536780D02*
X10063082Y-3536780D01*
X14773630Y-4091027D02*
X14773630Y-4091027D01*
X10063082Y-5753492D02*
X10063082Y-5753492D01*
X9231849Y-4922260D02*
X9231849Y-4922260D01*
X9508973Y-6030616D02*
X9508973Y-6030616D01*
X8123493Y-1043082D02*
X8123493Y-488835D01*
X7015136Y619521D02*
X7015136Y1450753D01*
X12556917Y1727877D02*
X12556917Y1727877D01*
X9231849Y342397D02*
X9231849Y342397D01*
X7292260Y-3259794D02*
X7292260Y-2705548D01*
X13665274Y-1320068D02*
X13665274Y-1320068D01*
X10063082Y619521D02*
X10063082Y65412D01*
X11448561Y-488835D02*
X11448561Y-211712D01*
X7015136Y-1043082D02*
X7015136Y-765959D01*
X8400616Y-1043082D02*
X8400616Y-1043082D01*
X14496644Y-3259794D02*
X14496644Y-2428424D01*
X9508973Y896644D02*
X9231849Y896644D01*
X13665274Y-1320068D02*
X13942397Y-1320068D01*
X6738013Y-765959D02*
X6738013Y-765959D01*
X8400616Y-5199384D02*
X8400616Y-5199384D01*
X10063082Y-3813904D02*
X10063082Y-3813904D01*
X11448561Y-2982671D02*
X11448561Y-2982671D01*
X9231849Y-1597191D02*
X9231849Y-1874315D01*
X8123493Y-5199384D02*
X8123493Y-5199384D01*
X10340205Y-3259794D02*
X10340205Y-3259794D01*
X8400616Y-4645136D02*
X8400616Y-4645136D01*
X15050753Y-3259794D02*
X15327877Y-3259794D01*
X13942397Y-6861987D02*
X13942397Y-5476507D01*
X13111164Y-4922260D02*
X13111164Y-4922260D01*
X7015136Y-765959D02*
X7292260Y-765959D01*
X8400616Y-488835D02*
X8400616Y-488835D01*
X13111164Y-4091027D02*
X13111164Y-3813904D01*
X14219521Y-3536780D02*
X13665274Y-3536780D01*
X13111164Y-4368151D02*
X13111164Y-4368151D01*
X13942397Y-1320068D02*
X13942397Y-1320068D01*
X6738013Y-3813904D02*
X6738013Y-3813904D01*
X7846370Y-6861987D02*
X7846370Y-6584863D01*
X12834041Y1173768D02*
X12834041Y1173768D01*
X10340205Y-4922260D02*
X9508973Y-4922260D01*
X11171438Y-5753492D02*
X11171438Y-5753492D01*
X7292260Y-3536780D02*
X7015136Y-3536780D01*
X7569246Y-2428424D02*
X7846370Y-2428424D01*
X9786096Y-6307739D02*
X9786096Y-6030616D01*
X9786096Y-2151438D02*
X9786096Y-2428424D01*
X14219521Y-1320068D02*
X14219521Y-1320068D01*
X14219521Y-6584863D02*
X14219521Y-5753492D01*
X10340205Y-1597191D02*
X10617329Y-1597191D01*
X8954725Y-4922260D02*
X8954725Y-4645136D01*
X9231849Y619521D02*
X8954725Y619521D01*
X9508973Y342397D02*
X9508973Y342397D01*
X10340205Y-6584863D02*
X10340205Y-6307739D01*
X8677740Y2005000D02*
X8677740Y2005000D01*
X8677740Y-6030616D02*
X8954725Y-6030616D01*
X12556917Y-2151438D02*
X12556917Y-2428424D01*
X10340205Y-4922260D02*
X10340205Y-4922260D01*
X12002808Y-4368151D02*
X12002808Y-4368151D01*
X8954725Y-488835D02*
X8400616Y-488835D01*
X7846370Y-3536780D02*
X8123493Y-3536780D01*
X8123493Y-2705548D02*
X7569246Y-2705548D01*
X12002808Y-5199384D02*
X12002808Y-5199384D01*
X12279794Y-3536780D02*
X12279794Y-3536780D01*
X8677740Y1727877D02*
X9231849Y1727877D01*
X8123493Y-4368151D02*
X8123493Y-4368151D01*
X10617329Y-1597191D02*
X10617329Y-1320068D01*
X7292260Y-1320068D02*
X7015136Y-1320068D01*
X11448561Y619521D02*
X11448561Y619521D01*
X15327877Y-1597191D02*
X15050753Y-1597191D01*
X13942397Y-2428424D02*
X13942397Y-2428424D01*
X10617329Y-6030616D02*
X10617329Y-6584863D01*
X11448561Y-5476507D02*
X11448561Y-5753492D01*
X8400616Y-3259794D02*
X8400616Y-3259794D01*
X9231849Y-6030616D02*
X9231849Y-6030616D01*
X13111164Y-5753492D02*
X13111164Y-5753492D01*
X13388150Y-2151438D02*
X13388150Y-2151438D01*
X7015136Y-6307739D02*
X7015136Y-6307739D01*
X6738013Y-6584863D02*
X6738013Y-6584863D01*
X9231849Y-3813904D02*
X9231849Y-3813904D01*
X11448561Y1450753D02*
X11448561Y1450753D01*
X10340205Y-6584863D02*
X9786096Y-6584863D01*
X11725685Y1727877D02*
X12002808Y1727877D01*
X11171438Y-3259794D02*
X11171438Y-3259794D01*
X13111164Y-2982671D02*
X13111164Y-3259794D01*
X8400616Y65412D02*
X8400616Y65412D01*
X7292260Y-6861987D02*
X7292260Y-6861987D01*
X15327877Y-5476507D02*
X15327877Y-5476507D01*
X9508973Y-2705548D02*
X9231849Y-2705548D01*
X8954725Y-1874315D02*
X8954725Y-2151438D01*
X9508973Y1450753D02*
X9508973Y1450753D01*
X8954725Y-5753492D02*
X8954725Y-5753492D01*
X11448561Y65412D02*
X11448561Y-211712D01*
X7569246Y-3813904D02*
X7569246Y-3813904D01*
X12279794Y-1043082D02*
X12002808Y-1043082D01*
X9786096Y2005000D02*
X9786096Y2005000D01*
X9508973Y-5199384D02*
X9508973Y-5199384D01*
X8400616Y-2428424D02*
X8954725Y-2428424D01*
X14219521Y-1874315D02*
X14219521Y-1874315D01*
X7846370Y-2428424D02*
X7846370Y-2428424D01*
X12556917Y-488835D02*
X12556917Y-488835D01*
X12002808Y-4368151D02*
X12002808Y-4645136D01*
X13942397Y-211712D02*
X13942397Y-211712D01*
X9231849Y-4368151D02*
X8677740Y-4368151D01*
X13942397Y342397D02*
X13942397Y1727877D01*
X12834041Y65412D02*
X12556917Y65412D01*
X7292260Y-7138972D02*
X7015136Y-7138972D01*
X13388150Y-4091027D02*
X13388150Y-4091027D01*
X8123493Y-211712D02*
X8123493Y-488835D01*
X8400616Y-2428424D02*
X8400616Y-2428424D01*
X8954725Y-3813904D02*
X8954725Y-3813904D01*
X12834041Y-7138972D02*
X12279794Y-7138972D01*
X7292260Y-211712D02*
X7569246Y-211712D01*
X12556917Y-2151438D02*
X12556917Y-2151438D01*
X10894452Y-4645136D02*
X10894452Y-4645136D01*
X13665274Y2005000D02*
X13665274Y2005000D01*
X7292260Y-5199384D02*
X7292260Y-5199384D01*
X11448561Y-488835D02*
X11448561Y-488835D01*
X6460890Y-1874315D02*
X6460890Y-1874315D01*
X11171438Y-4645136D02*
X11171438Y-4645136D01*
X6738013Y-2428424D02*
X6738013Y-2428424D01*
X11171438Y1727877D02*
X11171438Y1450753D01*
X11448561Y-3813904D02*
X11171438Y-3813904D01*
X12556917Y-3259794D02*
X12279794Y-3259794D01*
X15050753Y-1874315D02*
X15050753Y-1874315D01*
X13665274Y-1597191D02*
X13665274Y-1874315D01*
X9231849Y-4645136D02*
X9231849Y-4368151D01*
X12834041Y-2705548D02*
X12834041Y-2705548D01*
X14496644Y-3536780D02*
X14496644Y-3536780D01*
X10894452Y65412D02*
X11171438Y65412D01*
X7292260Y-4368151D02*
X7292260Y-4368151D01*
X14496644Y-3259794D02*
X14496644Y-3259794D01*
X11725685Y-488835D02*
X11725685Y-488835D01*
X7015136Y-5199384D02*
X7015136Y-5199384D01*
X11448561Y342397D02*
X11448561Y342397D01*
X6738013Y-2151438D02*
X6738013Y-2151438D01*
X9231849Y-765959D02*
X9231849Y-765959D01*
X11725685Y2005000D02*
X11725685Y1727877D01*
X15327877Y-1597191D02*
X15327877Y-1597191D01*
X14496644Y-3536780D02*
X14496644Y-4091027D01*
X15605000Y-211712D02*
X15605000Y-211712D01*
X9231849Y-3813904D02*
X9231849Y-3813904D01*
X15327877Y342397D02*
X15327877Y342397D01*
X11171438Y-2151438D02*
X11171438Y-2705548D01*
X8123493Y-1043082D02*
X8123493Y-1597191D01*
X13665274Y-1874315D02*
X13388150Y-1874315D01*
X11725685Y-4368151D02*
X11725685Y-4368151D01*
X7846370Y-765959D02*
X7846370Y-1043082D01*
X6738013Y-5199384D02*
X6738013Y-5199384D01*
X10617329Y-3813904D02*
X10617329Y-3813904D01*
X7846370Y-6584863D02*
X8400616Y-6584863D01*
X13388150Y-4645136D02*
X13111164Y-4645136D01*
X9786096Y619521D02*
X10063082Y619521D01*
X11171438Y-6030616D02*
X11171438Y-5753492D01*
X12002808Y-488835D02*
X12002808Y-488835D01*
X13111164Y-4091027D02*
X13111164Y-4091027D01*
X7015136Y-5199384D02*
X7015136Y-5199384D01*
X11171438Y1450753D02*
X11171438Y1450753D01*
X7569246Y-2705548D02*
X7569246Y-2428424D01*
X11448561Y-1043082D02*
X11725685Y-1043082D01*
X11171438Y-6030616D02*
X11171438Y-6030616D01*
X9231849Y-6584863D02*
X8954725Y-6584863D01*
X13388150Y-765959D02*
X13942397Y-765959D01*
X13111164Y65412D02*
X13111164Y65412D01*
X11725685Y896644D02*
X12279794Y896644D01*
X9786096Y-6307739D02*
X9786096Y-6307739D01*
X15050753Y-2982671D02*
X15050753Y-2982671D01*
X13665274Y-4091027D02*
X13665274Y-4368151D01*
X11725685Y-765959D02*
X11725685Y-488835D01*
X11171438Y-7138972D02*
X10894452Y-7138972D01*
X10894452Y-5753492D02*
X10894452Y-5753492D01*
X15605000Y-2705548D02*
X15050753Y-2705548D01*
X13111164Y-2428424D02*
X13111164Y-2428424D01*
X7292260Y-1043082D02*
X7292260Y-1043082D01*
X8677740Y619521D02*
X8677740Y619521D01*
X7569246Y-6861987D02*
X7846370Y-6861987D01*
X6738013Y-5476507D02*
X6738013Y-5199384D01*
X6738013Y1727877D02*
X8123493Y1727877D01*
X9231849Y-5753492D02*
X9231849Y-6030616D01*
X10894452Y-4091027D02*
X10340205Y-4091027D01*
X13942397Y-2982671D02*
X14219521Y-2982671D01*
D12*
X15605000Y2005000D02*
X6405000Y2005000D01*
X6405000Y2005000D02*
X6405000Y-7195000D01*
X6405000Y-7195000D02*
X15605000Y-7195000D01*
X15605000Y-7195000D02*
X15605000Y2005000D01*
D11*
X15155000Y1555000D02*
X14105000Y1555000D01*
X14105000Y1555000D02*
X14105000Y505000D01*
X14105000Y505000D02*
X15155000Y505000D01*
X15155000Y505000D02*
X15155000Y1555000D01*
G36*
X9231849Y-4922260D02*
G01*
X8954725Y-4922260D01*
X8954725Y-4645136D01*
X9231849Y-4645136D01*
X9231849Y-4922260D01*
G37*
D14*
X9231849Y-4922260D02*
X8954725Y-4922260D01*
X8954725Y-4645136D01*
X9231849Y-4645136D01*
X9231849Y-4922260D01*
G36*
X7846370Y-6584863D02*
G01*
X7569246Y-6584863D01*
X7569246Y-6307739D01*
X7846370Y-6307739D01*
X7846370Y-6584863D01*
G37*
X7846370Y-6584863D02*
X7569246Y-6584863D01*
X7569246Y-6307739D01*
X7846370Y-6307739D01*
X7846370Y-6584863D01*
G36*
X11725685Y1727877D02*
G01*
X12002808Y1727877D01*
X12002808Y1173768D01*
X11725685Y1173768D01*
X11725685Y1450753D01*
X11448561Y1450753D01*
X11448561Y1727877D01*
X11171438Y1727877D01*
X11171438Y2005000D01*
X11725685Y2005000D01*
X11725685Y1727877D01*
G37*
X11725685Y1727877D02*
X12002808Y1727877D01*
X12002808Y1173768D01*
X11725685Y1173768D01*
X11725685Y1450753D01*
X11448561Y1450753D01*
X11448561Y1727877D01*
X11171438Y1727877D01*
X11171438Y2005000D01*
X11725685Y2005000D01*
X11725685Y1727877D01*
G36*
X13942397Y-6861987D02*
G01*
X13942397Y-6584863D01*
X14219521Y-6584863D01*
X15050753Y-6584863D01*
X15050753Y-5753492D01*
X14219521Y-5753492D01*
X14219521Y-6584863D01*
X13942397Y-6584863D01*
X13942397Y-5476507D01*
X15327877Y-5476507D01*
X15327877Y-6861987D01*
X13942397Y-6861987D01*
G37*
X13942397Y-6861987D02*
X13942397Y-6584863D01*
X14219521Y-6584863D01*
X15050753Y-6584863D01*
X15050753Y-5753492D01*
X14219521Y-5753492D01*
X14219521Y-6584863D01*
X13942397Y-6584863D01*
X13942397Y-5476507D01*
X15327877Y-5476507D01*
X15327877Y-6861987D01*
X13942397Y-6861987D01*
G36*
X9786096Y-5476507D02*
G01*
X9508973Y-5476507D01*
X9508973Y-5199384D01*
X9786096Y-5199384D01*
X9786096Y-5476507D01*
G37*
X9786096Y-5476507D02*
X9508973Y-5476507D01*
X9508973Y-5199384D01*
X9786096Y-5199384D01*
X9786096Y-5476507D01*
G36*
X12556917Y1450753D02*
G01*
X12279794Y1450753D01*
X12279794Y1727877D01*
X12556917Y1727877D01*
X12556917Y1450753D01*
G37*
X12556917Y1450753D02*
X12279794Y1450753D01*
X12279794Y1727877D01*
X12556917Y1727877D01*
X12556917Y1450753D01*
G36*
X7292260Y-7138972D02*
G01*
X7015136Y-7138972D01*
X7015136Y-6861987D01*
X7292260Y-6861987D01*
X7292260Y-7138972D01*
G37*
X7292260Y-7138972D02*
X7015136Y-7138972D01*
X7015136Y-6861987D01*
X7292260Y-6861987D01*
X7292260Y-7138972D01*
G36*
X10894452Y-6030616D02*
G01*
X10894452Y-6584863D01*
X11448561Y-6584863D01*
X11448561Y-6861987D01*
X11171438Y-6861987D01*
X11171438Y-7138972D01*
X10894452Y-7138972D01*
X10894452Y-6861987D01*
X10617329Y-6861987D01*
X10617329Y-7138972D01*
X10340205Y-7138972D01*
X10340205Y-6584863D01*
X9786096Y-6584863D01*
X9786096Y-6307739D01*
X10340205Y-6307739D01*
X10340205Y-6584863D01*
X10617329Y-6584863D01*
X10617329Y-6030616D01*
X10894452Y-6030616D01*
G37*
X10894452Y-6030616D02*
X10894452Y-6584863D01*
X11448561Y-6584863D01*
X11448561Y-6861987D01*
X11171438Y-6861987D01*
X11171438Y-7138972D01*
X10894452Y-7138972D01*
X10894452Y-6861987D01*
X10617329Y-6861987D01*
X10617329Y-7138972D01*
X10340205Y-7138972D01*
X10340205Y-6584863D01*
X9786096Y-6584863D01*
X9786096Y-6307739D01*
X10340205Y-6307739D01*
X10340205Y-6584863D01*
X10617329Y-6584863D01*
X10617329Y-6030616D01*
X10894452Y-6030616D01*
G36*
X12556917Y-5199384D02*
G01*
X12556917Y-5476507D01*
X12279794Y-5476507D01*
X12279794Y-5199384D01*
X12556917Y-5199384D01*
G37*
X12556917Y-5199384D02*
X12556917Y-5476507D01*
X12279794Y-5476507D01*
X12279794Y-5199384D01*
X12556917Y-5199384D01*
G36*
X12834041Y-4922260D02*
G01*
X12834041Y-5199384D01*
X12556917Y-5199384D01*
X12556917Y-4922260D01*
X12834041Y-4922260D01*
G37*
X12834041Y-4922260D02*
X12834041Y-5199384D01*
X12556917Y-5199384D01*
X12556917Y-4922260D01*
X12834041Y-4922260D01*
G36*
X7292260Y-3259794D02*
G01*
X7569246Y-3259794D01*
X7569246Y-3813904D01*
X7292260Y-3813904D01*
X7292260Y-4368151D01*
X7015136Y-4368151D01*
X7015136Y-3536780D01*
X7292260Y-3536780D01*
X7292260Y-3259794D01*
G37*
X7292260Y-3259794D02*
X7569246Y-3259794D01*
X7569246Y-3813904D01*
X7292260Y-3813904D01*
X7292260Y-4368151D01*
X7015136Y-4368151D01*
X7015136Y-3536780D01*
X7292260Y-3536780D01*
X7292260Y-3259794D01*
G36*
X8123493Y-3813904D02*
G01*
X8123493Y-4091027D01*
X7569246Y-4091027D01*
X7569246Y-3813904D01*
X8123493Y-3813904D01*
G37*
X8123493Y-3813904D02*
X8123493Y-4091027D01*
X7569246Y-4091027D01*
X7569246Y-3813904D01*
X8123493Y-3813904D01*
G36*
X15605000Y-211712D02*
G01*
X14219521Y-211712D01*
X14219521Y-488835D01*
X15050753Y-488835D01*
X15050753Y-1043082D01*
X14496644Y-1043082D01*
X14496644Y-765959D01*
X14219521Y-765959D01*
X14219521Y-1043082D01*
X13942397Y-1043082D01*
X13942397Y-1320068D01*
X14219521Y-1320068D01*
X14219521Y-1874315D01*
X14496644Y-1874315D01*
X14496644Y-2151438D01*
X13942397Y-2151438D01*
X13942397Y-1874315D01*
X13665274Y-1874315D01*
X13665274Y-2151438D01*
X13942397Y-2151438D01*
X13942397Y-2428424D01*
X13388150Y-2428424D01*
X13388150Y-2705548D01*
X12834041Y-2705548D01*
X12834041Y-2428424D01*
X13111164Y-2428424D01*
X13111164Y-2151438D01*
X12556917Y-2151438D01*
X12556917Y-2428424D01*
X11725685Y-2428424D01*
X11725685Y-1874315D01*
X11171438Y-1874315D01*
X11171438Y-1597191D01*
X12279794Y-1597191D01*
X12279794Y-1874315D01*
X12834041Y-1874315D01*
X12834041Y-1597191D01*
X12556917Y-1597191D01*
X12556917Y-1320068D01*
X12834041Y-1320068D01*
X12834041Y-1597191D01*
X13111164Y-1597191D01*
X13111164Y-2151438D01*
X13388150Y-2151438D01*
X13388150Y-1874315D01*
X13665274Y-1874315D01*
X13665274Y-1597191D01*
X13942397Y-1597191D01*
X13942397Y-1320068D01*
X13665274Y-1320068D01*
X13665274Y-1043082D01*
X13942397Y-1043082D01*
X13942397Y-765959D01*
X13388150Y-765959D01*
X13388150Y-488835D01*
X13942397Y-488835D01*
X13942397Y-211712D01*
X12556917Y-211712D01*
X12556917Y-488835D01*
X12834041Y-488835D01*
X12834041Y-1043082D01*
X12556917Y-1043082D01*
X12556917Y-1320068D01*
X11725685Y-1320068D01*
X11725685Y-1043082D01*
X12002808Y-1043082D01*
X12279794Y-1043082D01*
X12279794Y-765959D01*
X12556917Y-765959D01*
X12556917Y-488835D01*
X12279794Y-488835D01*
X12279794Y-765959D01*
X12002808Y-765959D01*
X12002808Y-1043082D01*
X11725685Y-1043082D01*
X11448561Y-1043082D01*
X11448561Y-1320068D01*
X11171438Y-1320068D01*
X11171438Y-1597191D01*
X10894452Y-1597191D01*
X10894452Y-1320068D01*
X10617329Y-1320068D01*
X10617329Y-1597191D01*
X10894452Y-1597191D01*
X10894452Y-2151438D01*
X11171438Y-2151438D01*
X11171438Y-2705548D01*
X11448561Y-2705548D01*
X11448561Y-2982671D01*
X11725685Y-2982671D01*
X11725685Y-3259794D01*
X12002808Y-3259794D01*
X12002808Y-3536780D01*
X11725685Y-3536780D01*
X11725685Y-3259794D01*
X11448561Y-3259794D01*
X11448561Y-2982671D01*
X11171438Y-2982671D01*
X11171438Y-2705548D01*
X10894452Y-2705548D01*
X10894452Y-2428424D01*
X10617329Y-2428424D01*
X10617329Y-2705548D01*
X10894452Y-2705548D01*
X10894452Y-2982671D01*
X11171438Y-2982671D01*
X11171438Y-3259794D01*
X11448561Y-3259794D01*
X11448561Y-3536780D01*
X11725685Y-3536780D01*
X11725685Y-4091027D01*
X11171438Y-4091027D01*
X11171438Y-3813904D01*
X10894452Y-3813904D01*
X10894452Y-3536780D01*
X11171438Y-3536780D01*
X11171438Y-3813904D01*
X11448561Y-3813904D01*
X11448561Y-3536780D01*
X11171438Y-3536780D01*
X11171438Y-3259794D01*
X10894452Y-3259794D01*
X10894452Y-3536780D01*
X10617329Y-3536780D01*
X10617329Y-3813904D01*
X10894452Y-3813904D01*
X10894452Y-4091027D01*
X10340205Y-4091027D01*
X10340205Y-3813904D01*
X10063082Y-3813904D01*
X10063082Y-3536780D01*
X10617329Y-3536780D01*
X10617329Y-3259794D01*
X10894452Y-3259794D01*
X10894452Y-2982671D01*
X10340205Y-2982671D01*
X10340205Y-3259794D01*
X10063082Y-3259794D01*
X10063082Y-3536780D01*
X9786096Y-3536780D01*
X9786096Y-4368151D01*
X9508973Y-4368151D01*
X9508973Y-4091027D01*
X9231849Y-4091027D01*
X9231849Y-3813904D01*
X8954725Y-3813904D01*
X8954725Y-4091027D01*
X9231849Y-4091027D01*
X9231849Y-4368151D01*
X9508973Y-4368151D01*
X9508973Y-4645136D01*
X10063082Y-4645136D01*
X10063082Y-4091027D01*
X10340205Y-4091027D01*
X10340205Y-4368151D01*
X10894452Y-4368151D01*
X10894452Y-4645136D01*
X11171438Y-4645136D01*
X11171438Y-4368151D01*
X11448561Y-4368151D01*
X11448561Y-4922260D01*
X12279794Y-4922260D01*
X12279794Y-4368151D01*
X12002808Y-4368151D01*
X12002808Y-4091027D01*
X12279794Y-4091027D01*
X12556917Y-4091027D01*
X12556917Y-4368151D01*
X13388150Y-4368151D01*
X13388150Y-4091027D01*
X13111164Y-4091027D01*
X13111164Y-4368151D01*
X12834041Y-4368151D01*
X12834041Y-4091027D01*
X12556917Y-4091027D01*
X12556917Y-3813904D01*
X12279794Y-3813904D01*
X12279794Y-4091027D01*
X12002808Y-4091027D01*
X12002808Y-3813904D01*
X12279794Y-3813904D01*
X12279794Y-3536780D01*
X12556917Y-3536780D01*
X12556917Y-3259794D01*
X12834041Y-3259794D01*
X12834041Y-4091027D01*
X13111164Y-4091027D01*
X13111164Y-3813904D01*
X13942397Y-3813904D01*
X13942397Y-4091027D01*
X13665274Y-4091027D01*
X13665274Y-4368151D01*
X13942397Y-4368151D01*
X13942397Y-4645136D01*
X13665274Y-4645136D01*
X13665274Y-4922260D01*
X14496644Y-4922260D01*
X14496644Y-4645136D01*
X15050753Y-4645136D01*
X15050753Y-4368151D01*
X14496644Y-4368151D01*
X14496644Y-4645136D01*
X14219521Y-4645136D01*
X14219521Y-3536780D01*
X14496644Y-3536780D01*
X14496644Y-4091027D01*
X14773630Y-4091027D01*
X14773630Y-3813904D01*
X15050753Y-3813904D01*
X15050753Y-3536780D01*
X14773630Y-3536780D01*
X14773630Y-3259794D01*
X14496644Y-3259794D01*
X14496644Y-2428424D01*
X14773630Y-2428424D01*
X14773630Y-2982671D01*
X15050753Y-2982671D01*
X15050753Y-3259794D01*
X15327877Y-3259794D01*
X15327877Y-4922260D01*
X15605000Y-4922260D01*
X15605000Y-5199384D01*
X13665274Y-5199384D01*
X13665274Y-7138972D01*
X13388150Y-7138972D01*
X13388150Y-5753492D01*
X13111164Y-5753492D01*
X13111164Y-5476507D01*
X13388150Y-5476507D01*
X13388150Y-4645136D01*
X13111164Y-4645136D01*
X13111164Y-4922260D01*
X12834041Y-4922260D01*
X12834041Y-4645136D01*
X12556917Y-4645136D01*
X12556917Y-4922260D01*
X12279794Y-4922260D01*
X12279794Y-5199384D01*
X12002808Y-5199384D01*
X12002808Y-5476507D01*
X12279794Y-5476507D01*
X12279794Y-5753492D01*
X12556917Y-5753492D01*
X12556917Y-6030616D01*
X12279794Y-6030616D01*
X12279794Y-5753492D01*
X11448561Y-5753492D01*
X11448561Y-5476507D01*
X11725685Y-5476507D01*
X11725685Y-5199384D01*
X10894452Y-5199384D01*
X10894452Y-5753492D01*
X11171438Y-5753492D01*
X11171438Y-6030616D01*
X11725685Y-6030616D01*
X11725685Y-6307739D01*
X12002808Y-6307739D01*
X12002808Y-6030616D01*
X12279794Y-6030616D01*
X12279794Y-6307739D01*
X12556917Y-6307739D01*
X12556917Y-6584863D01*
X12279794Y-6584863D01*
X12279794Y-6861987D01*
X12556917Y-6861987D01*
X12556917Y-6584863D01*
X13111164Y-6584863D01*
X13111164Y-6861987D01*
X12834041Y-6861987D01*
X12834041Y-7138972D01*
X12279794Y-7138972D01*
X12279794Y-6861987D01*
X11725685Y-6861987D01*
X11725685Y-6584863D01*
X11448561Y-6584863D01*
X11448561Y-6307739D01*
X11171438Y-6307739D01*
X11171438Y-6030616D01*
X10894452Y-6030616D01*
X10894452Y-5753492D01*
X10617329Y-5753492D01*
X10617329Y-5199384D01*
X10340205Y-5199384D01*
X10340205Y-5753492D01*
X10617329Y-5753492D01*
X10617329Y-6030616D01*
X9786096Y-6030616D01*
X9786096Y-6307739D01*
X9508973Y-6307739D01*
X9508973Y-6584863D01*
X9231849Y-6584863D01*
X9231849Y-6307739D01*
X8954725Y-6307739D01*
X8954725Y-6584863D01*
X9231849Y-6584863D01*
X9231849Y-6861987D01*
X8677740Y-6861987D01*
X8677740Y-6030616D01*
X8954725Y-6030616D01*
X8954725Y-5753492D01*
X9231849Y-5753492D01*
X9231849Y-6030616D01*
X9508973Y-6030616D01*
X9508973Y-5753492D01*
X10063082Y-5753492D01*
X10063082Y-5199384D01*
X10340205Y-5199384D01*
X10340205Y-4922260D01*
X10617329Y-4922260D01*
X10894452Y-4922260D01*
X10894452Y-4645136D01*
X10617329Y-4645136D01*
X10617329Y-4922260D01*
X10340205Y-4922260D01*
X9508973Y-4922260D01*
X9508973Y-4645136D01*
X9231849Y-4645136D01*
X9231849Y-4368151D01*
X8677740Y-4368151D01*
X8677740Y-4091027D01*
X8400616Y-4091027D01*
X8400616Y-3813904D01*
X8123493Y-3813904D01*
X8123493Y-3536780D01*
X7846370Y-3536780D01*
X7846370Y-3259794D01*
X7569246Y-3259794D01*
X7569246Y-2705548D01*
X7292260Y-2705548D01*
X7292260Y-3259794D01*
X7015136Y-3259794D01*
X7015136Y-3536780D01*
X6738013Y-3536780D01*
X6738013Y-3813904D01*
X6460890Y-3813904D01*
X6460890Y-2982671D01*
X6738013Y-2982671D01*
X6738013Y-3259794D01*
X7015136Y-3259794D01*
X7015136Y-2428424D01*
X7292260Y-2428424D01*
X7292260Y-2151438D01*
X7015136Y-2151438D01*
X7015136Y-2428424D01*
X6738013Y-2428424D01*
X6738013Y-2705548D01*
X6460890Y-2705548D01*
X6460890Y-1874315D01*
X6738013Y-1874315D01*
X6738013Y-2151438D01*
X7015136Y-2151438D01*
X7015136Y-1597191D01*
X6460890Y-1597191D01*
X6460890Y-1320068D01*
X7015136Y-1320068D01*
X7292260Y-1320068D01*
X7292260Y-1597191D01*
X8123493Y-1597191D01*
X8123493Y-2151438D01*
X7846370Y-2151438D01*
X7846370Y-2428424D01*
X7569246Y-2428424D01*
X7569246Y-2705548D01*
X8123493Y-2705548D01*
X8123493Y-2428424D01*
X8400616Y-2428424D01*
X8400616Y-2151438D01*
X8954725Y-2151438D01*
X8954725Y-2428424D01*
X8400616Y-2428424D01*
X8400616Y-2705548D01*
X8123493Y-2705548D01*
X8123493Y-2982671D01*
X8400616Y-2982671D01*
X8400616Y-3259794D01*
X8123493Y-3259794D01*
X8123493Y-3536780D01*
X8677740Y-3536780D01*
X8954725Y-3536780D01*
X9231849Y-3536780D01*
X9231849Y-3813904D01*
X9508973Y-3813904D01*
X9508973Y-3536780D01*
X9786096Y-3536780D01*
X9786096Y-2982671D01*
X10340205Y-2982671D01*
X10340205Y-2428424D01*
X10063082Y-2428424D01*
X10063082Y-2705548D01*
X9508973Y-2705548D01*
X9508973Y-2982671D01*
X9231849Y-2982671D01*
X9231849Y-3259794D01*
X8954725Y-3259794D01*
X8954725Y-3536780D01*
X8677740Y-3536780D01*
X8677740Y-2982671D01*
X8400616Y-2982671D01*
X8400616Y-2705548D01*
X8677740Y-2705548D01*
X8677740Y-2982671D01*
X9231849Y-2982671D01*
X9231849Y-2705548D01*
X9508973Y-2705548D01*
X9508973Y-2428424D01*
X9786096Y-2428424D01*
X9786096Y-2151438D01*
X9508973Y-2151438D01*
X9508973Y-1874315D01*
X9231849Y-1874315D01*
X9231849Y-1597191D01*
X8954725Y-1597191D01*
X8954725Y-1320068D01*
X8677740Y-1320068D01*
X8677740Y-1043082D01*
X8400616Y-1043082D01*
X8400616Y-488835D01*
X8123493Y-488835D01*
X8123493Y-211712D01*
X7846370Y-211712D01*
X7846370Y-488835D01*
X8123493Y-488835D01*
X8123493Y-1043082D01*
X8400616Y-1043082D01*
X8400616Y-1597191D01*
X8954725Y-1597191D01*
X8954725Y-1874315D01*
X9231849Y-1874315D01*
X9231849Y-2151438D01*
X8954725Y-2151438D01*
X8954725Y-1874315D01*
X8400616Y-1874315D01*
X8400616Y-1597191D01*
X8123493Y-1597191D01*
X8123493Y-1043082D01*
X7846370Y-1043082D01*
X7846370Y-765959D01*
X7292260Y-765959D01*
X7292260Y-1043082D01*
X7015136Y-1043082D01*
X7015136Y-1320068D01*
X6460890Y-1320068D01*
X6460890Y-765959D01*
X6738013Y-765959D01*
X6738013Y-1043082D01*
X7015136Y-1043082D01*
X7015136Y-765959D01*
X7292260Y-765959D01*
X7292260Y-488835D01*
X7569246Y-488835D01*
X7569246Y-211712D01*
X7292260Y-211712D01*
X7292260Y-488835D01*
X7015136Y-488835D01*
X7015136Y-211712D01*
X6738013Y-211712D01*
X6738013Y-488835D01*
X6460890Y-488835D01*
X6460890Y65412D01*
X8400616Y65412D01*
X8400616Y2005000D01*
X8677740Y2005000D01*
X8677740Y1727877D01*
X9231849Y1727877D01*
X9231849Y2005000D01*
X9786096Y2005000D01*
X9786096Y1450753D01*
X9508973Y1450753D01*
X9508973Y1727877D01*
X9231849Y1727877D01*
X9231849Y1450753D01*
X9508973Y1450753D01*
X9508973Y1173768D01*
X9231849Y1173768D01*
X9231849Y896644D01*
X8954725Y896644D01*
X8954725Y619521D01*
X8677740Y619521D01*
X8677740Y65412D01*
X8954725Y65412D01*
X8954725Y619521D01*
X9231849Y619521D01*
X9231849Y896644D01*
X9508973Y896644D01*
X9508973Y342397D01*
X9231849Y342397D01*
X9231849Y-488835D01*
X8954725Y-488835D01*
X8954725Y-211712D01*
X8400616Y-211712D01*
X8400616Y-488835D01*
X8954725Y-488835D01*
X8954725Y-765959D01*
X9231849Y-765959D01*
X9231849Y-1320068D01*
X10063082Y-1320068D01*
X10063082Y-1597191D01*
X9786096Y-1597191D01*
X9786096Y-2151438D01*
X10063082Y-2151438D01*
X10063082Y-1874315D01*
X10617329Y-1874315D01*
X10617329Y-1597191D01*
X10340205Y-1597191D01*
X10340205Y-1043082D01*
X11448561Y-1043082D01*
X11448561Y-765959D01*
X11171438Y-765959D01*
X11171438Y-488835D01*
X10894452Y-488835D01*
X10894452Y-211712D01*
X11171438Y-211712D01*
X11448561Y-211712D01*
X11448561Y-488835D01*
X11725685Y-488835D01*
X11725685Y-765959D01*
X12002808Y-765959D01*
X12002808Y-488835D01*
X12279794Y-488835D01*
X12279794Y342397D01*
X12002808Y342397D01*
X12002808Y-211712D01*
X11448561Y-211712D01*
X11448561Y65412D01*
X11171438Y65412D01*
X11171438Y-211712D01*
X10894452Y-211712D01*
X10617329Y-211712D01*
X10617329Y-488835D01*
X9508973Y-488835D01*
X9508973Y-211712D01*
X10340205Y-211712D01*
X10340205Y65412D01*
X10063082Y65412D01*
X10063082Y619521D01*
X9786096Y619521D01*
X9786096Y896644D01*
X9508973Y896644D01*
X9508973Y1173768D01*
X10063082Y1173768D01*
X10063082Y619521D01*
X10340205Y619521D01*
X10340205Y65412D01*
X10617329Y65412D01*
X10617329Y896644D01*
X10894452Y896644D01*
X10894452Y65412D01*
X11171438Y65412D01*
X11171438Y342397D01*
X11448561Y342397D01*
X11448561Y65412D01*
X11725685Y65412D01*
X11725685Y619521D01*
X12279794Y619521D01*
X12556917Y619521D01*
X12556917Y65412D01*
X12834041Y65412D01*
X13111164Y65412D01*
X13388150Y65412D01*
X13388150Y619521D01*
X13111164Y619521D01*
X13111164Y65412D01*
X12834041Y65412D01*
X12834041Y619521D01*
X12556917Y619521D01*
X12556917Y896644D01*
X12279794Y896644D01*
X12279794Y619521D01*
X11725685Y619521D01*
X11725685Y896644D01*
X12279794Y896644D01*
X12279794Y1173768D01*
X12834041Y1173768D01*
X12834041Y896644D01*
X13388150Y896644D01*
X13388150Y1173768D01*
X13111164Y1173768D01*
X13111164Y1450753D01*
X13388150Y1450753D01*
X13388150Y1727877D01*
X13111164Y1727877D01*
X13111164Y1450753D01*
X12834041Y1450753D01*
X12834041Y1727877D01*
X12556917Y1727877D01*
X12556917Y2005000D01*
X13665274Y2005000D01*
X13665274Y65412D01*
X15605000Y65412D01*
X15605000Y-211712D01*
G37*
X15605000Y-211712D02*
X14219521Y-211712D01*
X14219521Y-488835D01*
X15050753Y-488835D01*
X15050753Y-1043082D01*
X14496644Y-1043082D01*
X14496644Y-765959D01*
X14219521Y-765959D01*
X14219521Y-1043082D01*
X13942397Y-1043082D01*
X13942397Y-1320068D01*
X14219521Y-1320068D01*
X14219521Y-1874315D01*
X14496644Y-1874315D01*
X14496644Y-2151438D01*
X13942397Y-2151438D01*
X13942397Y-1874315D01*
X13665274Y-1874315D01*
X13665274Y-2151438D01*
X13942397Y-2151438D01*
X13942397Y-2428424D01*
X13388150Y-2428424D01*
X13388150Y-2705548D01*
X12834041Y-2705548D01*
X12834041Y-2428424D01*
X13111164Y-2428424D01*
X13111164Y-2151438D01*
X12556917Y-2151438D01*
X12556917Y-2428424D01*
X11725685Y-2428424D01*
X11725685Y-1874315D01*
X11171438Y-1874315D01*
X11171438Y-1597191D01*
X12279794Y-1597191D01*
X12279794Y-1874315D01*
X12834041Y-1874315D01*
X12834041Y-1597191D01*
X12556917Y-1597191D01*
X12556917Y-1320068D01*
X12834041Y-1320068D01*
X12834041Y-1597191D01*
X13111164Y-1597191D01*
X13111164Y-2151438D01*
X13388150Y-2151438D01*
X13388150Y-1874315D01*
X13665274Y-1874315D01*
X13665274Y-1597191D01*
X13942397Y-1597191D01*
X13942397Y-1320068D01*
X13665274Y-1320068D01*
X13665274Y-1043082D01*
X13942397Y-1043082D01*
X13942397Y-765959D01*
X13388150Y-765959D01*
X13388150Y-488835D01*
X13942397Y-488835D01*
X13942397Y-211712D01*
X12556917Y-211712D01*
X12556917Y-488835D01*
X12834041Y-488835D01*
X12834041Y-1043082D01*
X12556917Y-1043082D01*
X12556917Y-1320068D01*
X11725685Y-1320068D01*
X11725685Y-1043082D01*
X12002808Y-1043082D01*
X12279794Y-1043082D01*
X12279794Y-765959D01*
X12556917Y-765959D01*
X12556917Y-488835D01*
X12279794Y-488835D01*
X12279794Y-765959D01*
X12002808Y-765959D01*
X12002808Y-1043082D01*
X11725685Y-1043082D01*
X11448561Y-1043082D01*
X11448561Y-1320068D01*
X11171438Y-1320068D01*
X11171438Y-1597191D01*
X10894452Y-1597191D01*
X10894452Y-1320068D01*
X10617329Y-1320068D01*
X10617329Y-1597191D01*
X10894452Y-1597191D01*
X10894452Y-2151438D01*
X11171438Y-2151438D01*
X11171438Y-2705548D01*
X11448561Y-2705548D01*
X11448561Y-2982671D01*
X11725685Y-2982671D01*
X11725685Y-3259794D01*
X12002808Y-3259794D01*
X12002808Y-3536780D01*
X11725685Y-3536780D01*
X11725685Y-3259794D01*
X11448561Y-3259794D01*
X11448561Y-2982671D01*
X11171438Y-2982671D01*
X11171438Y-2705548D01*
X10894452Y-2705548D01*
X10894452Y-2428424D01*
X10617329Y-2428424D01*
X10617329Y-2705548D01*
X10894452Y-2705548D01*
X10894452Y-2982671D01*
X11171438Y-2982671D01*
X11171438Y-3259794D01*
X11448561Y-3259794D01*
X11448561Y-3536780D01*
X11725685Y-3536780D01*
X11725685Y-4091027D01*
X11171438Y-4091027D01*
X11171438Y-3813904D01*
X10894452Y-3813904D01*
X10894452Y-3536780D01*
X11171438Y-3536780D01*
X11171438Y-3813904D01*
X11448561Y-3813904D01*
X11448561Y-3536780D01*
X11171438Y-3536780D01*
X11171438Y-3259794D01*
X10894452Y-3259794D01*
X10894452Y-3536780D01*
X10617329Y-3536780D01*
X10617329Y-3813904D01*
X10894452Y-3813904D01*
X10894452Y-4091027D01*
X10340205Y-4091027D01*
X10340205Y-3813904D01*
X10063082Y-3813904D01*
X10063082Y-3536780D01*
X10617329Y-3536780D01*
X10617329Y-3259794D01*
X10894452Y-3259794D01*
X10894452Y-2982671D01*
X10340205Y-2982671D01*
X10340205Y-3259794D01*
X10063082Y-3259794D01*
X10063082Y-3536780D01*
X9786096Y-3536780D01*
X9786096Y-4368151D01*
X9508973Y-4368151D01*
X9508973Y-4091027D01*
X9231849Y-4091027D01*
X9231849Y-3813904D01*
X8954725Y-3813904D01*
X8954725Y-4091027D01*
X9231849Y-4091027D01*
X9231849Y-4368151D01*
X9508973Y-4368151D01*
X9508973Y-4645136D01*
X10063082Y-4645136D01*
X10063082Y-4091027D01*
X10340205Y-4091027D01*
X10340205Y-4368151D01*
X10894452Y-4368151D01*
X10894452Y-4645136D01*
X11171438Y-4645136D01*
X11171438Y-4368151D01*
X11448561Y-4368151D01*
X11448561Y-4922260D01*
X12279794Y-4922260D01*
X12279794Y-4368151D01*
X12002808Y-4368151D01*
X12002808Y-4091027D01*
X12279794Y-4091027D01*
X12556917Y-4091027D01*
X12556917Y-4368151D01*
X13388150Y-4368151D01*
X13388150Y-4091027D01*
X13111164Y-4091027D01*
X13111164Y-4368151D01*
X12834041Y-4368151D01*
X12834041Y-4091027D01*
X12556917Y-4091027D01*
X12556917Y-3813904D01*
X12279794Y-3813904D01*
X12279794Y-4091027D01*
X12002808Y-4091027D01*
X12002808Y-3813904D01*
X12279794Y-3813904D01*
X12279794Y-3536780D01*
X12556917Y-3536780D01*
X12556917Y-3259794D01*
X12834041Y-3259794D01*
X12834041Y-4091027D01*
X13111164Y-4091027D01*
X13111164Y-3813904D01*
X13942397Y-3813904D01*
X13942397Y-4091027D01*
X13665274Y-4091027D01*
X13665274Y-4368151D01*
X13942397Y-4368151D01*
X13942397Y-4645136D01*
X13665274Y-4645136D01*
X13665274Y-4922260D01*
X14496644Y-4922260D01*
X14496644Y-4645136D01*
X15050753Y-4645136D01*
X15050753Y-4368151D01*
X14496644Y-4368151D01*
X14496644Y-4645136D01*
X14219521Y-4645136D01*
X14219521Y-3536780D01*
X14496644Y-3536780D01*
X14496644Y-4091027D01*
X14773630Y-4091027D01*
X14773630Y-3813904D01*
X15050753Y-3813904D01*
X15050753Y-3536780D01*
X14773630Y-3536780D01*
X14773630Y-3259794D01*
X14496644Y-3259794D01*
X14496644Y-2428424D01*
X14773630Y-2428424D01*
X14773630Y-2982671D01*
X15050753Y-2982671D01*
X15050753Y-3259794D01*
X15327877Y-3259794D01*
X15327877Y-4922260D01*
X15605000Y-4922260D01*
X15605000Y-5199384D01*
X13665274Y-5199384D01*
X13665274Y-7138972D01*
X13388150Y-7138972D01*
X13388150Y-5753492D01*
X13111164Y-5753492D01*
X13111164Y-5476507D01*
X13388150Y-5476507D01*
X13388150Y-4645136D01*
X13111164Y-4645136D01*
X13111164Y-4922260D01*
X12834041Y-4922260D01*
X12834041Y-4645136D01*
X12556917Y-4645136D01*
X12556917Y-4922260D01*
X12279794Y-4922260D01*
X12279794Y-5199384D01*
X12002808Y-5199384D01*
X12002808Y-5476507D01*
X12279794Y-5476507D01*
X12279794Y-5753492D01*
X12556917Y-5753492D01*
X12556917Y-6030616D01*
X12279794Y-6030616D01*
X12279794Y-5753492D01*
X11448561Y-5753492D01*
X11448561Y-5476507D01*
X11725685Y-5476507D01*
X11725685Y-5199384D01*
X10894452Y-5199384D01*
X10894452Y-5753492D01*
X11171438Y-5753492D01*
X11171438Y-6030616D01*
X11725685Y-6030616D01*
X11725685Y-6307739D01*
X12002808Y-6307739D01*
X12002808Y-6030616D01*
X12279794Y-6030616D01*
X12279794Y-6307739D01*
X12556917Y-6307739D01*
X12556917Y-6584863D01*
X12279794Y-6584863D01*
X12279794Y-6861987D01*
X12556917Y-6861987D01*
X12556917Y-6584863D01*
X13111164Y-6584863D01*
X13111164Y-6861987D01*
X12834041Y-6861987D01*
X12834041Y-7138972D01*
X12279794Y-7138972D01*
X12279794Y-6861987D01*
X11725685Y-6861987D01*
X11725685Y-6584863D01*
X11448561Y-6584863D01*
X11448561Y-6307739D01*
X11171438Y-6307739D01*
X11171438Y-6030616D01*
X10894452Y-6030616D01*
X10894452Y-5753492D01*
X10617329Y-5753492D01*
X10617329Y-5199384D01*
X10340205Y-5199384D01*
X10340205Y-5753492D01*
X10617329Y-5753492D01*
X10617329Y-6030616D01*
X9786096Y-6030616D01*
X9786096Y-6307739D01*
X9508973Y-6307739D01*
X9508973Y-6584863D01*
X9231849Y-6584863D01*
X9231849Y-6307739D01*
X8954725Y-6307739D01*
X8954725Y-6584863D01*
X9231849Y-6584863D01*
X9231849Y-6861987D01*
X8677740Y-6861987D01*
X8677740Y-6030616D01*
X8954725Y-6030616D01*
X8954725Y-5753492D01*
X9231849Y-5753492D01*
X9231849Y-6030616D01*
X9508973Y-6030616D01*
X9508973Y-5753492D01*
X10063082Y-5753492D01*
X10063082Y-5199384D01*
X10340205Y-5199384D01*
X10340205Y-4922260D01*
X10617329Y-4922260D01*
X10894452Y-4922260D01*
X10894452Y-4645136D01*
X10617329Y-4645136D01*
X10617329Y-4922260D01*
X10340205Y-4922260D01*
X9508973Y-4922260D01*
X9508973Y-4645136D01*
X9231849Y-4645136D01*
X9231849Y-4368151D01*
X8677740Y-4368151D01*
X8677740Y-4091027D01*
X8400616Y-4091027D01*
X8400616Y-3813904D01*
X8123493Y-3813904D01*
X8123493Y-3536780D01*
X7846370Y-3536780D01*
X7846370Y-3259794D01*
X7569246Y-3259794D01*
X7569246Y-2705548D01*
X7292260Y-2705548D01*
X7292260Y-3259794D01*
X7015136Y-3259794D01*
X7015136Y-3536780D01*
X6738013Y-3536780D01*
X6738013Y-3813904D01*
X6460890Y-3813904D01*
X6460890Y-2982671D01*
X6738013Y-2982671D01*
X6738013Y-3259794D01*
X7015136Y-3259794D01*
X7015136Y-2428424D01*
X7292260Y-2428424D01*
X7292260Y-2151438D01*
X7015136Y-2151438D01*
X7015136Y-2428424D01*
X6738013Y-2428424D01*
X6738013Y-2705548D01*
X6460890Y-2705548D01*
X6460890Y-1874315D01*
X6738013Y-1874315D01*
X6738013Y-2151438D01*
X7015136Y-2151438D01*
X7015136Y-1597191D01*
X6460890Y-1597191D01*
X6460890Y-1320068D01*
X7015136Y-1320068D01*
X7292260Y-1320068D01*
X7292260Y-1597191D01*
X8123493Y-1597191D01*
X8123493Y-2151438D01*
X7846370Y-2151438D01*
X7846370Y-2428424D01*
X7569246Y-2428424D01*
X7569246Y-2705548D01*
X8123493Y-2705548D01*
X8123493Y-2428424D01*
X8400616Y-2428424D01*
X8400616Y-2151438D01*
X8954725Y-2151438D01*
X8954725Y-2428424D01*
X8400616Y-2428424D01*
X8400616Y-2705548D01*
X8123493Y-2705548D01*
X8123493Y-2982671D01*
X8400616Y-2982671D01*
X8400616Y-3259794D01*
X8123493Y-3259794D01*
X8123493Y-3536780D01*
X8677740Y-3536780D01*
X8954725Y-3536780D01*
X9231849Y-3536780D01*
X9231849Y-3813904D01*
X9508973Y-3813904D01*
X9508973Y-3536780D01*
X9786096Y-3536780D01*
X9786096Y-2982671D01*
X10340205Y-2982671D01*
X10340205Y-2428424D01*
X10063082Y-2428424D01*
X10063082Y-2705548D01*
X9508973Y-2705548D01*
X9508973Y-2982671D01*
X9231849Y-2982671D01*
X9231849Y-3259794D01*
X8954725Y-3259794D01*
X8954725Y-3536780D01*
X8677740Y-3536780D01*
X8677740Y-2982671D01*
X8400616Y-2982671D01*
X8400616Y-2705548D01*
X8677740Y-2705548D01*
X8677740Y-2982671D01*
X9231849Y-2982671D01*
X9231849Y-2705548D01*
X9508973Y-2705548D01*
X9508973Y-2428424D01*
X9786096Y-2428424D01*
X9786096Y-2151438D01*
X9508973Y-2151438D01*
X9508973Y-1874315D01*
X9231849Y-1874315D01*
X9231849Y-1597191D01*
X8954725Y-1597191D01*
X8954725Y-1320068D01*
X8677740Y-1320068D01*
X8677740Y-1043082D01*
X8400616Y-1043082D01*
X8400616Y-488835D01*
X8123493Y-488835D01*
X8123493Y-211712D01*
X7846370Y-211712D01*
X7846370Y-488835D01*
X8123493Y-488835D01*
X8123493Y-1043082D01*
X8400616Y-1043082D01*
X8400616Y-1597191D01*
X8954725Y-1597191D01*
X8954725Y-1874315D01*
X9231849Y-1874315D01*
X9231849Y-2151438D01*
X8954725Y-2151438D01*
X8954725Y-1874315D01*
X8400616Y-1874315D01*
X8400616Y-1597191D01*
X8123493Y-1597191D01*
X8123493Y-1043082D01*
X7846370Y-1043082D01*
X7846370Y-765959D01*
X7292260Y-765959D01*
X7292260Y-1043082D01*
X7015136Y-1043082D01*
X7015136Y-1320068D01*
X6460890Y-1320068D01*
X6460890Y-765959D01*
X6738013Y-765959D01*
X6738013Y-1043082D01*
X7015136Y-1043082D01*
X7015136Y-765959D01*
X7292260Y-765959D01*
X7292260Y-488835D01*
X7569246Y-488835D01*
X7569246Y-211712D01*
X7292260Y-211712D01*
X7292260Y-488835D01*
X7015136Y-488835D01*
X7015136Y-211712D01*
X6738013Y-211712D01*
X6738013Y-488835D01*
X6460890Y-488835D01*
X6460890Y65412D01*
X8400616Y65412D01*
X8400616Y2005000D01*
X8677740Y2005000D01*
X8677740Y1727877D01*
X9231849Y1727877D01*
X9231849Y2005000D01*
X9786096Y2005000D01*
X9786096Y1450753D01*
X9508973Y1450753D01*
X9508973Y1727877D01*
X9231849Y1727877D01*
X9231849Y1450753D01*
X9508973Y1450753D01*
X9508973Y1173768D01*
X9231849Y1173768D01*
X9231849Y896644D01*
X8954725Y896644D01*
X8954725Y619521D01*
X8677740Y619521D01*
X8677740Y65412D01*
X8954725Y65412D01*
X8954725Y619521D01*
X9231849Y619521D01*
X9231849Y896644D01*
X9508973Y896644D01*
X9508973Y342397D01*
X9231849Y342397D01*
X9231849Y-488835D01*
X8954725Y-488835D01*
X8954725Y-211712D01*
X8400616Y-211712D01*
X8400616Y-488835D01*
X8954725Y-488835D01*
X8954725Y-765959D01*
X9231849Y-765959D01*
X9231849Y-1320068D01*
X10063082Y-1320068D01*
X10063082Y-1597191D01*
X9786096Y-1597191D01*
X9786096Y-2151438D01*
X10063082Y-2151438D01*
X10063082Y-1874315D01*
X10617329Y-1874315D01*
X10617329Y-1597191D01*
X10340205Y-1597191D01*
X10340205Y-1043082D01*
X11448561Y-1043082D01*
X11448561Y-765959D01*
X11171438Y-765959D01*
X11171438Y-488835D01*
X10894452Y-488835D01*
X10894452Y-211712D01*
X11171438Y-211712D01*
X11448561Y-211712D01*
X11448561Y-488835D01*
X11725685Y-488835D01*
X11725685Y-765959D01*
X12002808Y-765959D01*
X12002808Y-488835D01*
X12279794Y-488835D01*
X12279794Y342397D01*
X12002808Y342397D01*
X12002808Y-211712D01*
X11448561Y-211712D01*
X11448561Y65412D01*
X11171438Y65412D01*
X11171438Y-211712D01*
X10894452Y-211712D01*
X10617329Y-211712D01*
X10617329Y-488835D01*
X9508973Y-488835D01*
X9508973Y-211712D01*
X10340205Y-211712D01*
X10340205Y65412D01*
X10063082Y65412D01*
X10063082Y619521D01*
X9786096Y619521D01*
X9786096Y896644D01*
X9508973Y896644D01*
X9508973Y1173768D01*
X10063082Y1173768D01*
X10063082Y619521D01*
X10340205Y619521D01*
X10340205Y65412D01*
X10617329Y65412D01*
X10617329Y896644D01*
X10894452Y896644D01*
X10894452Y65412D01*
X11171438Y65412D01*
X11171438Y342397D01*
X11448561Y342397D01*
X11448561Y65412D01*
X11725685Y65412D01*
X11725685Y619521D01*
X12279794Y619521D01*
X12556917Y619521D01*
X12556917Y65412D01*
X12834041Y65412D01*
X13111164Y65412D01*
X13388150Y65412D01*
X13388150Y619521D01*
X13111164Y619521D01*
X13111164Y65412D01*
X12834041Y65412D01*
X12834041Y619521D01*
X12556917Y619521D01*
X12556917Y896644D01*
X12279794Y896644D01*
X12279794Y619521D01*
X11725685Y619521D01*
X11725685Y896644D01*
X12279794Y896644D01*
X12279794Y1173768D01*
X12834041Y1173768D01*
X12834041Y896644D01*
X13388150Y896644D01*
X13388150Y1173768D01*
X13111164Y1173768D01*
X13111164Y1450753D01*
X13388150Y1450753D01*
X13388150Y1727877D01*
X13111164Y1727877D01*
X13111164Y1450753D01*
X12834041Y1450753D01*
X12834041Y1727877D01*
X12556917Y1727877D01*
X12556917Y2005000D01*
X13665274Y2005000D01*
X13665274Y65412D01*
X15605000Y65412D01*
X15605000Y-211712D01*
G36*
X7569246Y-1043082D02*
G01*
X7569246Y-1320068D01*
X7292260Y-1320068D01*
X7292260Y-1043082D01*
X7569246Y-1043082D01*
G37*
X7569246Y-1043082D02*
X7569246Y-1320068D01*
X7292260Y-1320068D01*
X7292260Y-1043082D01*
X7569246Y-1043082D01*
G36*
X6738013Y342397D02*
G01*
X6738013Y619521D01*
X7015136Y619521D01*
X7846370Y619521D01*
X7846370Y1450753D01*
X7015136Y1450753D01*
X7015136Y619521D01*
X6738013Y619521D01*
X6738013Y1727877D01*
X8123493Y1727877D01*
X8123493Y342397D01*
X6738013Y342397D01*
G37*
X6738013Y342397D02*
X6738013Y619521D01*
X7015136Y619521D01*
X7846370Y619521D01*
X7846370Y1450753D01*
X7015136Y1450753D01*
X7015136Y619521D01*
X6738013Y619521D01*
X6738013Y1727877D01*
X8123493Y1727877D01*
X8123493Y342397D01*
X6738013Y342397D01*
G36*
X11171438Y1450753D02*
G01*
X10894452Y1450753D01*
X10894452Y1173768D01*
X10617329Y1173768D01*
X10617329Y896644D01*
X10340205Y896644D01*
X10340205Y1173768D01*
X10063082Y1173768D01*
X10063082Y1727877D01*
X11171438Y1727877D01*
X11171438Y1450753D01*
G37*
X11171438Y1450753D02*
X10894452Y1450753D01*
X10894452Y1173768D01*
X10617329Y1173768D01*
X10617329Y896644D01*
X10340205Y896644D01*
X10340205Y1173768D01*
X10063082Y1173768D01*
X10063082Y1727877D01*
X11171438Y1727877D01*
X11171438Y1450753D01*
G36*
X12002808Y-2982671D02*
G01*
X11725685Y-2982671D01*
X11725685Y-2705548D01*
X12002808Y-2705548D01*
X12002808Y-2982671D01*
G37*
X12002808Y-2982671D02*
X11725685Y-2982671D01*
X11725685Y-2705548D01*
X12002808Y-2705548D01*
X12002808Y-2982671D01*
G36*
X15605000Y-2705548D02*
G01*
X15050753Y-2705548D01*
X15050753Y-2428424D01*
X15327877Y-2428424D01*
X15327877Y-2151438D01*
X15050753Y-2151438D01*
X15050753Y-1874315D01*
X15605000Y-1874315D01*
X15605000Y-2705548D01*
G37*
X15605000Y-2705548D02*
X15050753Y-2705548D01*
X15050753Y-2428424D01*
X15327877Y-2428424D01*
X15327877Y-2151438D01*
X15050753Y-2151438D01*
X15050753Y-1874315D01*
X15605000Y-1874315D01*
X15605000Y-2705548D01*
G36*
X7292260Y-6030616D02*
G01*
X7015136Y-6030616D01*
X7015136Y-5753492D01*
X7292260Y-5753492D01*
X7292260Y-6030616D01*
G37*
X7292260Y-6030616D02*
X7015136Y-6030616D01*
X7015136Y-5753492D01*
X7292260Y-5753492D01*
X7292260Y-6030616D01*
G36*
X11448561Y619521D02*
G01*
X11171438Y619521D01*
X11171438Y896644D01*
X10894452Y896644D01*
X10894452Y1173768D01*
X11448561Y1173768D01*
X11448561Y619521D01*
G37*
X11448561Y619521D02*
X11171438Y619521D01*
X11171438Y896644D01*
X10894452Y896644D01*
X10894452Y1173768D01*
X11448561Y1173768D01*
X11448561Y619521D01*
G36*
X7846370Y-5753492D02*
G01*
X7846370Y-5476507D01*
X8123493Y-5476507D01*
X8400616Y-5476507D01*
X8400616Y-5199384D01*
X8123493Y-5199384D01*
X8123493Y-5476507D01*
X7846370Y-5476507D01*
X7846370Y-4922260D01*
X8677740Y-4922260D01*
X8677740Y-5753492D01*
X7846370Y-5753492D01*
G37*
X7846370Y-5753492D02*
X7846370Y-5476507D01*
X8123493Y-5476507D01*
X8400616Y-5476507D01*
X8400616Y-5199384D01*
X8123493Y-5199384D01*
X8123493Y-5476507D01*
X7846370Y-5476507D01*
X7846370Y-4922260D01*
X8677740Y-4922260D01*
X8677740Y-5753492D01*
X7846370Y-5753492D01*
G36*
X13942397Y-2982671D02*
G01*
X13665274Y-2982671D01*
X13665274Y-2705548D01*
X13942397Y-2705548D01*
X13942397Y-2982671D01*
G37*
X13942397Y-2982671D02*
X13665274Y-2982671D01*
X13665274Y-2705548D01*
X13942397Y-2705548D01*
X13942397Y-2982671D01*
G36*
X6738013Y-5476507D02*
G01*
X7015136Y-5476507D01*
X7015136Y-5753492D01*
X6460890Y-5753492D01*
X6460890Y-5199384D01*
X6738013Y-5199384D01*
X6738013Y-5476507D01*
G37*
X6738013Y-5476507D02*
X7015136Y-5476507D01*
X7015136Y-5753492D01*
X6460890Y-5753492D01*
X6460890Y-5199384D01*
X6738013Y-5199384D01*
X6738013Y-5476507D01*
G36*
X14219521Y-3536780D02*
G01*
X13665274Y-3536780D01*
X13665274Y-3259794D01*
X13942397Y-3259794D01*
X13942397Y-2982671D01*
X14219521Y-2982671D01*
X14219521Y-3536780D01*
G37*
X14219521Y-3536780D02*
X13665274Y-3536780D01*
X13665274Y-3259794D01*
X13942397Y-3259794D01*
X13942397Y-2982671D01*
X14219521Y-2982671D01*
X14219521Y-3536780D01*
G36*
X7292260Y-5476507D02*
G01*
X7015136Y-5476507D01*
X7015136Y-5199384D01*
X7292260Y-5199384D01*
X7292260Y-5476507D01*
G37*
X7292260Y-5476507D02*
X7015136Y-5476507D01*
X7015136Y-5199384D01*
X7292260Y-5199384D01*
X7292260Y-5476507D01*
G36*
X6738013Y-4368151D02*
G01*
X7015136Y-4368151D01*
X7015136Y-4645136D01*
X7292260Y-4645136D01*
X7292260Y-4922260D01*
X7015136Y-4922260D01*
X7015136Y-5199384D01*
X6738013Y-5199384D01*
X6738013Y-4645136D01*
X6460890Y-4645136D01*
X6460890Y-4091027D01*
X6738013Y-4091027D01*
X6738013Y-4368151D01*
G37*
X6738013Y-4368151D02*
X7015136Y-4368151D01*
X7015136Y-4645136D01*
X7292260Y-4645136D01*
X7292260Y-4922260D01*
X7015136Y-4922260D01*
X7015136Y-5199384D01*
X6738013Y-5199384D01*
X6738013Y-4645136D01*
X6460890Y-4645136D01*
X6460890Y-4091027D01*
X6738013Y-4091027D01*
X6738013Y-4368151D01*
G36*
X8123493Y-4645136D02*
G01*
X7846370Y-4645136D01*
X7846370Y-4368151D01*
X8123493Y-4368151D01*
X8123493Y-4645136D01*
G37*
X8123493Y-4645136D02*
X7846370Y-4645136D01*
X7846370Y-4368151D01*
X8123493Y-4368151D01*
X8123493Y-4645136D01*
G36*
X9508973Y-5199384D02*
G01*
X9231849Y-5199384D01*
X9231849Y-4922260D01*
X9508973Y-4922260D01*
X9508973Y-5199384D01*
G37*
X9508973Y-5199384D02*
X9231849Y-5199384D01*
X9231849Y-4922260D01*
X9508973Y-4922260D01*
X9508973Y-5199384D01*
G36*
X13942397Y342397D02*
G01*
X13942397Y619521D01*
X14219521Y619521D01*
X15050753Y619521D01*
X15050753Y1450753D01*
X14219521Y1450753D01*
X14219521Y619521D01*
X13942397Y619521D01*
X13942397Y1727877D01*
X15327877Y1727877D01*
X15327877Y342397D01*
X13942397Y342397D01*
G37*
X13942397Y342397D02*
X13942397Y619521D01*
X14219521Y619521D01*
X15050753Y619521D01*
X15050753Y1450753D01*
X14219521Y1450753D01*
X14219521Y619521D01*
X13942397Y619521D01*
X13942397Y1727877D01*
X15327877Y1727877D01*
X15327877Y342397D01*
X13942397Y342397D01*
G36*
X13665274Y-1597191D02*
G01*
X13388150Y-1597191D01*
X13388150Y-1320068D01*
X13665274Y-1320068D01*
X13665274Y-1597191D01*
G37*
X13665274Y-1597191D02*
X13388150Y-1597191D01*
X13388150Y-1320068D01*
X13665274Y-1320068D01*
X13665274Y-1597191D01*
G36*
X9786096Y65412D02*
G01*
X9508973Y65412D01*
X9508973Y342397D01*
X9786096Y342397D01*
X9786096Y65412D01*
G37*
X9786096Y65412D02*
X9508973Y65412D01*
X9508973Y342397D01*
X9786096Y342397D01*
X9786096Y65412D01*
G36*
X7015136Y-6307739D02*
G01*
X6738013Y-6307739D01*
X6738013Y-6584863D01*
X7015136Y-6584863D01*
X7015136Y-6861987D01*
X6738013Y-6861987D01*
X6738013Y-7138972D01*
X6460890Y-7138972D01*
X6460890Y-6030616D01*
X7015136Y-6030616D01*
X7015136Y-6307739D01*
G37*
X7015136Y-6307739D02*
X6738013Y-6307739D01*
X6738013Y-6584863D01*
X7015136Y-6584863D01*
X7015136Y-6861987D01*
X6738013Y-6861987D01*
X6738013Y-7138972D01*
X6460890Y-7138972D01*
X6460890Y-6030616D01*
X7015136Y-6030616D01*
X7015136Y-6307739D01*
G36*
X7292260Y-6307739D02*
G01*
X7292260Y-6584863D01*
X7015136Y-6584863D01*
X7015136Y-6307739D01*
X7292260Y-6307739D01*
G37*
X7292260Y-6307739D02*
X7292260Y-6584863D01*
X7015136Y-6584863D01*
X7015136Y-6307739D01*
X7292260Y-6307739D01*
G36*
X8677740Y-4645136D02*
G01*
X8400616Y-4645136D01*
X8400616Y-4368151D01*
X8677740Y-4368151D01*
X8677740Y-4645136D01*
G37*
X8677740Y-4645136D02*
X8400616Y-4645136D01*
X8400616Y-4368151D01*
X8677740Y-4368151D01*
X8677740Y-4645136D01*
G36*
X13111164Y-3259794D02*
G01*
X12834041Y-3259794D01*
X12834041Y-2982671D01*
X13111164Y-2982671D01*
X13111164Y-3259794D01*
G37*
X13111164Y-3259794D02*
X12834041Y-3259794D01*
X12834041Y-2982671D01*
X13111164Y-2982671D01*
X13111164Y-3259794D01*
G36*
X10063082Y-7138972D02*
G01*
X9508973Y-7138972D01*
X9508973Y-6861987D01*
X10063082Y-6861987D01*
X10063082Y-7138972D01*
G37*
X10063082Y-7138972D02*
X9508973Y-7138972D01*
X9508973Y-6861987D01*
X10063082Y-6861987D01*
X10063082Y-7138972D01*
G36*
X13111164Y-6307739D02*
G01*
X12834041Y-6307739D01*
X12834041Y-5753492D01*
X13111164Y-5753492D01*
X13111164Y-6307739D01*
G37*
X13111164Y-6307739D02*
X12834041Y-6307739D01*
X12834041Y-5753492D01*
X13111164Y-5753492D01*
X13111164Y-6307739D01*
G36*
X12002808Y-4645136D02*
G01*
X11725685Y-4645136D01*
X11725685Y-4368151D01*
X12002808Y-4368151D01*
X12002808Y-4645136D01*
G37*
X12002808Y-4645136D02*
X11725685Y-4645136D01*
X11725685Y-4368151D01*
X12002808Y-4368151D01*
X12002808Y-4645136D01*
G36*
X12556917Y-3259794D02*
G01*
X12279794Y-3259794D01*
X12279794Y-2982671D01*
X12556917Y-2982671D01*
X12556917Y-3259794D01*
G37*
X12556917Y-3259794D02*
X12279794Y-3259794D01*
X12279794Y-2982671D01*
X12556917Y-2982671D01*
X12556917Y-3259794D01*
G36*
X10340205Y-1043082D02*
G01*
X9786096Y-1043082D01*
X9786096Y-765959D01*
X10340205Y-765959D01*
X10340205Y-1043082D01*
G37*
X10340205Y-1043082D02*
X9786096Y-1043082D01*
X9786096Y-765959D01*
X10340205Y-765959D01*
X10340205Y-1043082D01*
G36*
X8400616Y-7138972D02*
G01*
X7569246Y-7138972D01*
X7569246Y-6861987D01*
X7846370Y-6861987D01*
X7846370Y-6584863D01*
X8400616Y-6584863D01*
X8400616Y-7138972D01*
G37*
X8400616Y-7138972D02*
X7569246Y-7138972D01*
X7569246Y-6861987D01*
X7846370Y-6861987D01*
X7846370Y-6584863D01*
X8400616Y-6584863D01*
X8400616Y-7138972D01*
G36*
X15327877Y-1597191D02*
G01*
X15050753Y-1597191D01*
X15050753Y-1874315D01*
X14773630Y-1874315D01*
X14773630Y-1320068D01*
X15050753Y-1320068D01*
X15050753Y-1043082D01*
X15327877Y-1043082D01*
X15327877Y-1597191D01*
G37*
X15327877Y-1597191D02*
X15050753Y-1597191D01*
X15050753Y-1874315D01*
X14773630Y-1874315D01*
X14773630Y-1320068D01*
X15050753Y-1320068D01*
X15050753Y-1043082D01*
X15327877Y-1043082D01*
X15327877Y-1597191D01*
G36*
X8400616Y-6307739D02*
G01*
X8123493Y-6307739D01*
X8123493Y-6030616D01*
X8400616Y-6030616D01*
X8400616Y-6307739D01*
G37*
X8400616Y-6307739D02*
X8123493Y-6307739D01*
X8123493Y-6030616D01*
X8400616Y-6030616D01*
X8400616Y-6307739D01*
D12*
%TO.C,C17*%
X-18159420Y-6660000D02*
X-18440580Y-6660000D01*
X-18159420Y-5640000D02*
X-18440580Y-5640000D01*
%TO.C,R7*%
X-29235000Y12527064D02*
X-29235000Y12072936D01*
X-27765000Y12527064D02*
X-27765000Y12072936D01*
%TO.C,C3*%
X-21396250Y1061252D02*
X-21396250Y538748D01*
X-22866250Y1061252D02*
X-22866250Y538748D01*
%TO.C,C10*%
X-11960000Y-9569420D02*
X-11960000Y-9850580D01*
X-12980000Y-9569420D02*
X-12980000Y-9850580D01*
%TO.C,U4*%
X-14182183Y587817D02*
X-14832183Y587817D01*
X-14832183Y587817D02*
X-14832183Y-62183D01*
X-8262183Y-6632183D02*
X-7612183Y-6632183D01*
X-7612183Y-6632183D02*
X-7612183Y-5982183D01*
X-14182183Y-6632183D02*
X-14832183Y-6632183D01*
X-14832183Y-6632183D02*
X-14832183Y-5982183D01*
X-8262183Y587817D02*
X-7612183Y587817D01*
%TO.C,J1*%
X-19530000Y17505000D02*
X-19530000Y19305000D01*
X-19530000Y23015000D02*
X-28470000Y23015000D01*
X-19530000Y23015000D02*
X-19530000Y21555000D01*
X-28470000Y23015000D02*
X-28470000Y21555000D01*
X-28470000Y17505000D02*
X-28470000Y19305000D01*
%TO.C,F1*%
X-30190000Y17602064D02*
X-30190000Y16397936D01*
X-32010000Y17602064D02*
X-32010000Y16397936D01*
%TO.C,C12*%
X-18159420Y-1610000D02*
X-18440580Y-1610000D01*
X-18159420Y-590000D02*
X-18440580Y-590000D01*
%TO.C,C13*%
X-4615580Y910000D02*
X-4334420Y910000D01*
X-4615580Y-110000D02*
X-4334420Y-110000D01*
%TO.C,C16*%
X-4615580Y-5240000D02*
X-4334420Y-5240000D01*
X-4615580Y-6260000D02*
X-4334420Y-6260000D01*
%TO.C,R5*%
X-27135000Y12527064D02*
X-27135000Y12072936D01*
X-25665000Y12527064D02*
X-25665000Y12072936D01*
%TO.C,U1*%
X-23281250Y6010000D02*
X-24081250Y6010000D01*
X-23281250Y2890000D02*
X-25081250Y2890000D01*
X-23281250Y2890000D02*
X-22481250Y2890000D01*
X-23281250Y6010000D02*
X-22481250Y6010000D01*
%TO.C,C4*%
X-18263748Y15000D02*
X-18786252Y15000D01*
X-18263748Y1485000D02*
X-18786252Y1485000D01*
%TO.C,C8*%
X-17010000Y3234420D02*
X-17010000Y3515580D01*
X-15990000Y3234420D02*
X-15990000Y3515580D01*
%TD*%
M02*
