%TF.GenerationSoftware,KiCad,Pcbnew,(6.0.6)*%
%TF.CreationDate,2022-07-15T17:58:14+10:00*%
%TF.ProjectId,SolderingInduction,536f6c64-6572-4696-9e67-496e64756374,1.0.0*%
%TF.SameCoordinates,PX8f0d180PY8f0d180*%
%TF.FileFunction,Other,User*%
%FSLAX46Y46*%
G04 Gerber Fmt 4.6, Leading zero omitted, Abs format (unit mm)*
G04 Created by KiCad (PCBNEW (6.0.6)) date 2022-07-15 17:58:14*
%MOMM*%
%LPD*%
G01*
G04 APERTURE LIST*
%ADD10C,0.050000*%
%ADD11C,0.120000*%
G04 APERTURE END LIST*
D10*
%TO.C,R3*%
X-12330000Y4780000D02*
X-12330000Y1820000D01*
X-12330000Y1820000D02*
X-10870000Y1820000D01*
X-10870000Y4780000D02*
X-12330000Y4780000D01*
X-10870000Y1820000D02*
X-10870000Y4780000D01*
%TO.C,R4*%
X-22650000Y14080000D02*
X-22650000Y10720000D01*
X-22650000Y10720000D02*
X-20750000Y10720000D01*
X-20750000Y14080000D02*
X-22650000Y14080000D01*
X-20750000Y10720000D02*
X-20750000Y14080000D01*
%TO.C,R2*%
X-14030000Y4780000D02*
X-14030000Y1820000D01*
X-14030000Y1820000D02*
X-12570000Y1820000D01*
X-12570000Y4780000D02*
X-14030000Y4780000D01*
X-12570000Y1820000D02*
X-12570000Y4780000D01*
%TO.C,R8*%
X-25531250Y2720000D02*
X-25531250Y6080000D01*
X-25531250Y6080000D02*
X-27431250Y6080000D01*
X-27431250Y2720000D02*
X-25531250Y2720000D01*
X-27431250Y6080000D02*
X-27431250Y2720000D01*
%TO.C,C7*%
X-2070000Y11130000D02*
X-3530000Y11130000D01*
X-3530000Y8170000D02*
X-2070000Y8170000D01*
X-3530000Y11130000D02*
X-3530000Y8170000D01*
X-2070000Y8170000D02*
X-2070000Y11130000D01*
%TO.C,U3*%
X-3890000Y11200000D02*
X-3890000Y1900000D01*
X-9610000Y11200000D02*
X-3890000Y11200000D01*
X-9610000Y1900000D02*
X-9610000Y11200000D01*
X-3890000Y1900000D02*
X-9610000Y1900000D01*
%TO.C,C14*%
X-5950000Y-3380000D02*
X-5950000Y-4840000D01*
X-2990000Y-4840000D02*
X-2990000Y-3380000D01*
X-5950000Y-4840000D02*
X-2990000Y-4840000D01*
X-2990000Y-3380000D02*
X-5950000Y-3380000D01*
%TO.C,C18*%
X-5955000Y-470000D02*
X-5955000Y-1930000D01*
X-2995000Y-1930000D02*
X-2995000Y-470000D01*
X-5955000Y-1930000D02*
X-2995000Y-1930000D01*
X-2995000Y-470000D02*
X-5955000Y-470000D01*
%TO.C,C11*%
X-16820000Y-3480000D02*
X-16820000Y-2020000D01*
X-19780000Y-2020000D02*
X-19780000Y-3480000D01*
X-16820000Y-2020000D02*
X-19780000Y-2020000D01*
X-19780000Y-3480000D02*
X-16820000Y-3480000D01*
%TO.C,C15*%
X-16810000Y-5120000D02*
X-16810000Y-3660000D01*
X-19770000Y-3660000D02*
X-19770000Y-5120000D01*
X-16810000Y-3660000D02*
X-19770000Y-3660000D01*
X-19770000Y-5120000D02*
X-16810000Y-5120000D01*
%TO.C,C6*%
X-10170000Y-11220000D02*
X-11630000Y-11220000D01*
X-11630000Y-14180000D02*
X-10170000Y-14180000D01*
X-11630000Y-11220000D02*
X-11630000Y-14180000D01*
X-10170000Y-14180000D02*
X-10170000Y-11220000D01*
%TO.C,Y1*%
X-10100000Y-12400000D02*
X-10100000Y-8200000D01*
X-10100000Y-8200000D02*
X-6700000Y-8200000D01*
X-6700000Y-8200000D02*
X-6700000Y-12400000D01*
X-6700000Y-12400000D02*
X-10100000Y-12400000D01*
%TO.C,C5*%
X-5170000Y-8220000D02*
X-6630000Y-8220000D01*
X-6630000Y-11180000D02*
X-5170000Y-11180000D01*
X-6630000Y-8220000D02*
X-6630000Y-11180000D01*
X-5170000Y-11180000D02*
X-5170000Y-8220000D01*
%TO.C,C9*%
X-15630000Y1895000D02*
X-14170000Y1895000D01*
X-14170000Y4855000D02*
X-15630000Y4855000D01*
X-14170000Y1895000D02*
X-14170000Y4855000D01*
X-15630000Y4855000D02*
X-15630000Y1895000D01*
%TO.C,C2*%
X-23351250Y-900000D02*
X-23351250Y2500000D01*
X-23351250Y2500000D02*
X-25311250Y2500000D01*
X-25311250Y-900000D02*
X-23351250Y-900000D01*
X-25311250Y2500000D02*
X-25311250Y-900000D01*
%TO.C,R6*%
X-2070000Y1870000D02*
X-2070000Y4830000D01*
X-2070000Y4830000D02*
X-3530000Y4830000D01*
X-3530000Y1870000D02*
X-2070000Y1870000D01*
X-3530000Y4830000D02*
X-3530000Y1870000D01*
%TO.C,R10*%
X-11630000Y-8220000D02*
X-11630000Y-11180000D01*
X-11630000Y-11180000D02*
X-10170000Y-11180000D01*
X-10170000Y-8220000D02*
X-11630000Y-8220000D01*
X-10170000Y-11180000D02*
X-10170000Y-8220000D01*
%TO.C,D2*%
X-29950000Y14450000D02*
X-32250000Y14450000D01*
X-29950000Y9750000D02*
X-29950000Y14450000D01*
X-32250000Y14450000D02*
X-32250000Y9750000D01*
X-29950000Y9750000D02*
X-32250000Y9750000D01*
%TO.C,FID3*%
X-35500000Y17250000D02*
G75*
G03*
X-35500000Y17250000I-1250000J0D01*
G01*
D11*
%TO.C,REF\u002A\u002A*%
X15605000Y2005000D02*
X6405000Y2005000D01*
X6405000Y2005000D02*
X6405000Y-7195000D01*
X6405000Y-7195000D02*
X15605000Y-7195000D01*
X15605000Y-7195000D02*
X15605000Y2005000D01*
D10*
%TO.C,FID1*%
X37250000Y14750000D02*
G75*
G03*
X37250000Y14750000I-1250000J0D01*
G01*
%TO.C,C17*%
X-16820000Y-6880000D02*
X-16820000Y-5420000D01*
X-19780000Y-5420000D02*
X-19780000Y-6880000D01*
X-16820000Y-5420000D02*
X-19780000Y-5420000D01*
X-19780000Y-6880000D02*
X-16820000Y-6880000D01*
%TO.C,R7*%
X-29450000Y13980000D02*
X-29450000Y10620000D01*
X-29450000Y10620000D02*
X-27550000Y10620000D01*
X-27550000Y13980000D02*
X-29450000Y13980000D01*
X-27550000Y10620000D02*
X-27550000Y13980000D01*
%TO.C,C3*%
X-21151250Y-900000D02*
X-21151250Y2500000D01*
X-21151250Y2500000D02*
X-23111250Y2500000D01*
X-23111250Y-900000D02*
X-21151250Y-900000D01*
X-23111250Y2500000D02*
X-23111250Y-900000D01*
%TO.C,FID2*%
X14350000Y-15100000D02*
G75*
G03*
X14350000Y-15100000I-1250000J0D01*
G01*
%TO.C,C10*%
X-11740000Y-8230000D02*
X-13200000Y-8230000D01*
X-13200000Y-11190000D02*
X-11740000Y-11190000D01*
X-13200000Y-8230000D02*
X-13200000Y-11190000D01*
X-11740000Y-11190000D02*
X-11740000Y-8230000D01*
%TO.C,U4*%
X-7102183Y1097817D02*
X-7102183Y-7142183D01*
X-7102183Y-7142183D02*
X-15342183Y-7142183D01*
X-15342183Y-7142183D02*
X-15342183Y1097817D01*
X-15342183Y1097817D02*
X-7102183Y1097817D01*
%TO.C,J1*%
X-18730000Y23515000D02*
X-18730000Y14585000D01*
X-18730000Y14585000D02*
X-29270000Y14585000D01*
X-29270000Y23515000D02*
X-18730000Y23515000D01*
X-29270000Y14585000D02*
X-29270000Y23515000D01*
%TO.C,F1*%
X-32220000Y14720000D02*
X-29980000Y14720000D01*
X-32220000Y19280000D02*
X-32220000Y14720000D01*
X-29980000Y19280000D02*
X-32220000Y19280000D01*
X-29980000Y14720000D02*
X-29980000Y19280000D01*
%TO.C,C12*%
X-16820000Y-1830000D02*
X-16820000Y-370000D01*
X-19780000Y-370000D02*
X-19780000Y-1830000D01*
X-16820000Y-370000D02*
X-19780000Y-370000D01*
X-19780000Y-1830000D02*
X-16820000Y-1830000D01*
%TO.C,C13*%
X-5955000Y1130000D02*
X-5955000Y-330000D01*
X-2995000Y-330000D02*
X-2995000Y1130000D01*
X-5955000Y-330000D02*
X-2995000Y-330000D01*
X-2995000Y1130000D02*
X-5955000Y1130000D01*
%TO.C,C16*%
X-5955000Y-5020000D02*
X-5955000Y-6480000D01*
X-2995000Y-6480000D02*
X-2995000Y-5020000D01*
X-5955000Y-6480000D02*
X-2995000Y-6480000D01*
X-2995000Y-5020000D02*
X-5955000Y-5020000D01*
%TO.C,R5*%
X-27350000Y13980000D02*
X-27350000Y10620000D01*
X-27350000Y10620000D02*
X-25450000Y10620000D01*
X-25450000Y13980000D02*
X-27350000Y13980000D01*
X-25450000Y10620000D02*
X-25450000Y13980000D01*
%TO.C,U1*%
X-21231250Y6150000D02*
X-21231250Y2750000D01*
X-21231250Y2750000D02*
X-25331250Y2750000D01*
X-25331250Y6150000D02*
X-21231250Y6150000D01*
X-25331250Y2750000D02*
X-25331250Y6150000D01*
%TO.C,C4*%
X-20225000Y-230000D02*
X-16825000Y-230000D01*
X-16825000Y-230000D02*
X-16825000Y1730000D01*
X-20225000Y1730000D02*
X-20225000Y-230000D01*
X-16825000Y1730000D02*
X-20225000Y1730000D01*
%TO.C,C8*%
X-17230000Y1895000D02*
X-15770000Y1895000D01*
X-15770000Y4855000D02*
X-17230000Y4855000D01*
X-15770000Y1895000D02*
X-15770000Y4855000D01*
X-17230000Y4855000D02*
X-17230000Y1895000D01*
%TD*%
M02*
