M48
; DRILL file {KiCad (6.0.6)} date Fri 15 Jul 2022 05:58:05 PM AEST
; FORMAT={-:-/ absolute / metric / decimal}
; #@! TF.CreationDate,2022-07-15T17:58:05+10:00
; #@! TF.GenerationSoftware,Kicad,Pcbnew,(6.0.6)
; #@! TF.FileFunction,MixedPlating,1,4
FMAT,2
METRIC
; #@! TA.AperFunction,Plated,PTH,ViaDrill
T1C0.200
; #@! TA.AperFunction,Plated,PTH,ComponentDrill
T2C0.200
; #@! TA.AperFunction,Plated,PTH,ViaDrill
T3C0.254
; #@! TA.AperFunction,Plated,PTH,ViaDrill
T4C0.300
; #@! TA.AperFunction,Plated,PTH,ViaDrill
T5C0.400
; #@! TA.AperFunction,Plated,PTH,ComponentDrill
T6C0.600
; #@! TA.AperFunction,Plated,PTH,ComponentDrill
T7C1.000
; #@! TA.AperFunction,Plated,PTH,ComponentDrill
T8C2.200
; #@! TA.AperFunction,NonPlated,NPTH,ComponentDrill
T9C0.600
; #@! TA.AperFunction,NonPlated,NPTH,ComponentDrill
T10C0.991
%
G90
G05
T1
X-40.76Y14.92
X-40.76Y-0.32
X-40.76Y-10.48
X-39.49Y12.38
X-39.49Y-7.94
X-39.49Y-13.02
X-38.22Y14.92
X-38.22Y9.84
X-38.22Y4.76
X-38.22Y-0.32
X-38.22Y-5.4
X-38.22Y-10.48
X-38.22Y-15.56
X-36.95Y12.38
X-36.95Y7.3
X-36.95Y2.22
X-36.95Y-2.86
X-36.95Y-7.94
X-36.95Y-13.02
X-36.95Y-18.1
X-35.68Y20.0
X-35.68Y9.84
X-35.68Y-0.32
X-35.68Y-5.4
X-35.68Y-10.48
X-35.68Y-15.56
X-35.67Y14.92
X-34.41Y17.46
X-34.41Y12.38
X-34.41Y-7.94
X-34.41Y-13.02
X-33.14Y20.0
X-33.14Y-0.32
X-33.14Y-10.48
X-33.14Y-15.56
X-31.87Y-2.86
X-31.87Y-13.02
X-30.6Y-5.4
X-30.6Y-10.48
X-29.33Y-2.86
X-29.33Y-13.02
X-28.06Y-5.4
X-28.06Y-10.48
X-26.79Y7.3
X-26.79Y-7.94
X-26.79Y-13.02
X-26.79Y-18.1
X-25.52Y-10.48
X-25.52Y-15.56
X-24.6Y6.6
X-24.25Y7.3
X-24.25Y-7.94
X-24.25Y-13.02
X-24.25Y-18.1
X-23.1Y4.45
X-22.98Y-5.4
X-22.98Y-15.56
X-22.3Y4.45
X-21.71Y-7.94
X-21.71Y-18.1
X-21.5Y4.45
X-17.9Y9.84
X-16.63Y12.38
X-16.5Y5.1
X-16.3Y-2.1
X-16.3Y-3.3
X-16.3Y-4.7
X-16.2Y-7.3
X-15.8Y-1.6
X-15.8Y-2.7
X-15.8Y-5.3
X-15.362Y-6.712
X-15.36Y9.84
X-14.95Y5.1
X-14.7Y-8.85
X-14.3Y-7.0
X-14.1Y-8.85
X-14.09Y-18.1
X-13.7Y-2.4
X-13.7Y-4.8
X-13.6Y-7.4
X-13.55Y-0.825
X-13.4Y-3.1
X-13.4Y-5.5
X-13.3Y-1.7
X-13.1Y1.3
X-12.6Y-7.4
X-12.492Y-1.752
X-12.492Y-3.022
X-12.492Y-4.292
X-12.4Y-12.3
X-12.225Y-5.475
X-11.825Y-7.575
X-11.325Y13.775
X-11.222Y-1.752
X-11.222Y-3.022
X-11.222Y-4.292
X-11.1Y1.3
X-10.1Y-5.3
X-10.1Y-7.4
X-9.952Y-1.752
X-9.952Y-3.022
X-9.952Y-4.292
X-9.4Y-5.5
X-9.01Y7.3
X-9.01Y-13.02
X-8.8Y-1.8
X-8.8Y-3.1
X-8.8Y-4.9
X-8.8Y-7.5
X-8.785Y13.775
X-8.1Y-7.0
X-7.56Y13.775
X-7.4Y-6.1
X-6.8Y-1.2
X-6.8Y-5.2
X-6.775Y-3.325
X-6.47Y12.38
X-6.47Y-13.02
X-6.47Y-18.1
X-6.2Y-0.8
X-6.2Y-1.8
X-6.2Y-2.8
X-6.2Y-4.65
X-5.02Y13.775
X-4.6Y-2.2
X-3.93Y7.3
X-3.93Y-13.02
X-3.705Y13.775
X-2.8Y7.95
X-2.7Y-3.66
X-2.7Y-5.75
X-2.66Y-10.48
X-2.48Y13.775
X-1.7Y2.5
X-1.39Y7.3
X-1.39Y-13.02
X-1.39Y-18.1
X-1.165Y13.775
X-0.12Y4.76
X-0.12Y-5.4
X-0.12Y-10.48
X-0.115Y20.003
X1.15Y7.3
X1.15Y-13.02
X1.15Y-18.1
X1.375Y13.775
X2.42Y4.76
X2.42Y-10.48
X2.425Y20.003
X2.6Y13.775
X3.69Y12.38
X3.69Y-7.94
X3.69Y-13.02
X4.96Y-10.48
X4.96Y-15.56
X4.965Y20.003
X5.14Y13.775
X6.19Y-0.41
X6.23Y2.22
X6.23Y-2.86
X6.23Y-7.94
X6.23Y-13.02
X6.23Y-18.1
X6.455Y13.775
X7.5Y4.76
X7.5Y-10.48
X7.5Y-15.56
X7.505Y20.003
X8.77Y2.22
X8.77Y-7.94
X8.77Y-13.02
X8.995Y13.775
X10.04Y4.76
X10.04Y-10.48
X10.04Y-15.56
X10.045Y20.003
X10.22Y13.775
X11.31Y2.22
X11.31Y-7.94
X11.31Y-13.02
X11.31Y-18.1
X11.535Y13.775
X12.58Y4.76
X12.58Y-10.48
X12.585Y20.003
X12.76Y13.775
X13.85Y12.38
X13.85Y2.22
X13.85Y-7.94
X13.85Y-13.02
X15.12Y4.76
X15.12Y-10.48
X15.125Y20.0
X15.3Y13.775
X16.39Y2.22
X16.39Y-2.86
X16.39Y-7.94
X16.39Y-13.02
X16.39Y-18.1
X16.615Y13.775
X17.66Y20.0
X17.66Y4.76
X17.66Y-0.32
X17.66Y-5.4
X17.66Y-10.48
X17.84Y13.775
X18.93Y2.22
X18.93Y-2.86
X18.93Y-7.94
X18.93Y-18.1
X19.155Y13.775
X20.2Y20.0
X20.2Y9.84
X20.2Y4.76
X20.2Y-0.32
X20.2Y-5.4
X20.2Y-10.48
X20.2Y-15.56
X21.47Y2.22
X21.47Y-2.86
X21.47Y-7.94
X21.47Y-13.02
X21.47Y-18.1
X21.695Y13.775
X22.74Y20.0
X22.74Y-15.56
X22.92Y13.775
X24.01Y-2.86
X24.01Y-13.02
X24.01Y-18.1
X24.235Y13.775
X25.28Y20.0
X25.28Y4.76
X25.28Y-15.56
X25.29Y-10.48
X25.46Y13.775
X26.55Y2.22
X26.55Y-2.86
X26.55Y-13.02
X26.55Y-18.1
X26.775Y13.775
X27.82Y20.0
X27.82Y4.76
X27.82Y-0.32
X27.82Y-5.4
X27.82Y-15.56
X27.83Y-10.48
X29.09Y7.3
X29.09Y2.22
X29.09Y-2.86
X29.09Y-13.02
X29.09Y-18.1
X29.315Y13.775
X30.36Y20.0
X30.36Y9.84
X30.36Y4.76
X30.36Y-0.32
X30.36Y-5.4
X30.36Y-15.56
X30.37Y-10.48
X30.54Y13.775
X31.63Y7.3
X31.63Y2.22
X31.63Y-2.86
X31.63Y-13.02
X31.63Y-18.1
X32.9Y20.0
X32.9Y9.84
X32.9Y4.76
X32.9Y-0.32
X32.9Y-5.4
X32.9Y-15.56
X32.91Y-10.48
X33.08Y13.775
X34.17Y17.46
X34.17Y12.38
X34.17Y7.3
X34.17Y2.22
X34.17Y-2.86
X34.17Y-13.02
X34.17Y-18.1
X35.44Y9.84
X35.44Y4.76
X35.45Y-10.48
X36.71Y12.38
X36.71Y7.3
X36.71Y2.22
X36.71Y-2.86
X36.71Y-7.94
X36.71Y-13.02
X37.98Y9.84
X37.98Y4.76
X37.99Y-10.48
X39.25Y12.38
X39.25Y7.3
X39.25Y2.22
X39.25Y-2.86
X39.25Y-7.94
X39.25Y-13.02
T2
X-18.335Y-11.36
X-18.335Y-16.44
X-18.334Y-12.629
X-18.334Y-13.899
X-18.334Y-15.169
X-17.065Y-11.36
X-17.065Y-15.17
X-17.064Y-12.629
X-17.064Y-13.899
X-17.064Y-16.439
T3
X-12.4Y-11.3
T4
X-16.1Y-0.42
X-14.64Y0.42
X-13.71Y-4.02
X-11.6Y-0.62
X-11.42Y-5.44
X-9.625Y-0.625
X-8.76Y-4.02
X-7.5Y0.39
X-4.9Y7.8
X-2.8Y5.17
T5
X-40.7Y9.3
X-35.6Y0.8
X-34.0Y2.1
X-32.8Y12.0
X-32.8Y11.0
X-32.8Y10.0
X-32.75Y15.6
X-32.75Y14.5
X-32.75Y13.4
X-31.5Y21.25
X-31.5Y20.0
X-31.2Y12.0
X-30.25Y21.25
X-30.25Y20.0
X-28.75Y18.5
X-28.75Y10.0
X-27.25Y10.0
X-26.5Y2.0
X-26.5Y1.0
X-26.5Y0.0
X-26.25Y18.5
X-24.4Y-1.4
X-23.75Y18.5
X-22.0Y-1.4
X-21.25Y18.5
X-20.7Y0.7
X-20.6Y2.6
X-20.4Y-1.2
X-20.4Y-2.8
X-20.4Y-4.8
X-20.4Y-7.3
X-20.25Y11.5
X-19.6Y3.8
X-19.6Y2.6
X-18.6Y3.8
X-18.6Y2.6
X-11.11Y-14.53
X-6.28Y-11.63
X-5.1Y-11.63
X-2.75Y-2.0
T7
X-16.425Y18.065
X-16.425Y15.525
X-13.885Y18.065
X-13.885Y15.525
X-11.345Y18.065
X-11.345Y15.525
X-8.805Y18.065
X-8.805Y15.525
X-8.7Y-14.55
X-8.7Y-17.5
X-6.265Y18.065
X-6.265Y15.525
X-3.725Y18.065
X-3.725Y15.525
X-3.7Y-14.5
X-3.7Y-17.5
X-1.185Y18.065
X-1.185Y15.525
X1.355Y18.065
X1.355Y15.525
X3.8Y-14.45
X3.8Y-17.4
X3.895Y18.065
X3.895Y15.525
X6.435Y18.065
X6.435Y15.525
X8.8Y-14.4
X8.8Y-17.4
X8.975Y18.065
X8.975Y15.525
X11.515Y18.065
X11.515Y15.525
X14.055Y18.065
X14.055Y15.525
X16.595Y18.065
X16.595Y15.525
X19.135Y18.065
X19.135Y15.525
X21.675Y18.065
X21.675Y15.525
X22.0Y-0.5
X22.05Y-5.5
X24.215Y18.065
X24.215Y15.525
X25.0Y-0.5
X25.0Y-5.5
X26.755Y18.065
X26.755Y15.525
X29.295Y18.065
X29.295Y15.525
X31.835Y18.065
X31.835Y15.525
X34.5Y-0.5
X34.55Y-5.5
X37.5Y-0.5
X37.5Y-5.5
T8
X-40.475Y19.75
X-40.475Y-17.75
X0.0Y0.0
X37.75Y19.75
X37.75Y-17.75
T9
X-26.89Y16.725
X-21.11Y16.725
T10
X-18.716Y-10.09
X-17.7Y-17.71
X-16.684Y-10.09
T6
G00X-28.32Y20.815
M15
G01X-28.32Y20.015
M16
G05
G00X-28.32Y16.795
M15
G01X-28.32Y15.695
M16
G05
G00X-19.68Y20.815
M15
G01X-19.68Y20.015
M16
G05
G00X-19.68Y16.795
M15
G01X-19.68Y15.695
M16
G05
T0
M30
