%TF.GenerationSoftware,KiCad,Pcbnew,(6.0.6)*%
%TF.CreationDate,2022-07-15T17:58:13+10:00*%
%TF.ProjectId,SolderingInduction,536f6c64-6572-4696-9e67-496e64756374,1.0.0*%
%TF.SameCoordinates,PX8f0d180PY8f0d180*%
%TF.FileFunction,Paste,Bot*%
%TF.FilePolarity,Positive*%
%FSLAX46Y46*%
G04 Gerber Fmt 4.6, Leading zero omitted, Abs format (unit mm)*
G04 Created by KiCad (PCBNEW (6.0.6)) date 2022-07-15 17:58:13*
%MOMM*%
%LPD*%
G01*
G04 APERTURE LIST*
G04 Aperture macros list*
%AMRoundRect*
0 Rectangle with rounded corners*
0 $1 Rounding radius*
0 $2 $3 $4 $5 $6 $7 $8 $9 X,Y pos of 4 corners*
0 Add a 4 corners polygon primitive as box body*
4,1,4,$2,$3,$4,$5,$6,$7,$8,$9,$2,$3,0*
0 Add four circle primitives for the rounded corners*
1,1,$1+$1,$2,$3*
1,1,$1+$1,$4,$5*
1,1,$1+$1,$6,$7*
1,1,$1+$1,$8,$9*
0 Add four rect primitives between the rounded corners*
20,1,$1+$1,$2,$3,$4,$5,0*
20,1,$1+$1,$4,$5,$6,$7,0*
20,1,$1+$1,$6,$7,$8,$9,0*
20,1,$1+$1,$8,$9,$2,$3,0*%
G04 Aperture macros list end*
%ADD10RoundRect,0.200000X-0.275000X0.200000X-0.275000X-0.200000X0.275000X-0.200000X0.275000X0.200000X0*%
%ADD11RoundRect,0.250000X-0.450000X0.262500X-0.450000X-0.262500X0.450000X-0.262500X0.450000X0.262500X0*%
%ADD12RoundRect,0.250000X0.450000X-0.262500X0.450000X0.262500X-0.450000X0.262500X-0.450000X-0.262500X0*%
%ADD13RoundRect,0.225000X-0.250000X0.225000X-0.250000X-0.225000X0.250000X-0.225000X0.250000X0.225000X0*%
%ADD14RoundRect,0.150000X0.150000X-0.650000X0.150000X0.650000X-0.150000X0.650000X-0.150000X-0.650000X0*%
%ADD15RoundRect,0.225000X-0.225000X-0.250000X0.225000X-0.250000X0.225000X0.250000X-0.225000X0.250000X0*%
%ADD16RoundRect,0.225000X0.225000X0.250000X-0.225000X0.250000X-0.225000X-0.250000X0.225000X-0.250000X0*%
%ADD17R,1.200000X1.400000*%
%ADD18RoundRect,0.225000X0.250000X-0.225000X0.250000X0.225000X-0.250000X0.225000X-0.250000X-0.225000X0*%
%ADD19RoundRect,0.250000X-0.475000X0.250000X-0.475000X-0.250000X0.475000X-0.250000X0.475000X0.250000X0*%
%ADD20RoundRect,0.200000X0.275000X-0.200000X0.275000X0.200000X-0.275000X0.200000X-0.275000X-0.200000X0*%
%ADD21R,1.200000X0.900000*%
%ADD22RoundRect,0.050000X0.387500X0.050000X-0.387500X0.050000X-0.387500X-0.050000X0.387500X-0.050000X0*%
%ADD23RoundRect,0.050000X0.050000X0.387500X-0.050000X0.387500X-0.050000X-0.387500X0.050000X-0.387500X0*%
%ADD24RoundRect,0.249999X0.395001X0.395001X-0.395001X0.395001X-0.395001X-0.395001X0.395001X-0.395001X0*%
%ADD25R,0.600000X1.160000*%
%ADD26R,0.300000X1.160000*%
%ADD27RoundRect,0.250000X-0.625000X0.375000X-0.625000X-0.375000X0.625000X-0.375000X0.625000X0.375000X0*%
%ADD28RoundRect,0.150000X-0.512500X-0.150000X0.512500X-0.150000X0.512500X0.150000X-0.512500X0.150000X0*%
%ADD29RoundRect,0.250000X0.250000X0.475000X-0.250000X0.475000X-0.250000X-0.475000X0.250000X-0.475000X0*%
G04 APERTURE END LIST*
D10*
%TO.C,R3*%
X-11600000Y4125000D03*
X-11600000Y2475000D03*
%TD*%
D11*
%TO.C,R4*%
X-21700000Y13312500D03*
X-21700000Y11487500D03*
%TD*%
D10*
%TO.C,R2*%
X-13300000Y4125000D03*
X-13300000Y2475000D03*
%TD*%
D12*
%TO.C,R8*%
X-26481250Y3487500D03*
X-26481250Y5312500D03*
%TD*%
D13*
%TO.C,C7*%
X-2800000Y10425000D03*
X-2800000Y8875000D03*
%TD*%
D14*
%TO.C,U3*%
X-4845000Y2950000D03*
X-6115000Y2950000D03*
X-7385000Y2950000D03*
X-8655000Y2950000D03*
X-8655000Y10150000D03*
X-7385000Y10150000D03*
X-6115000Y10150000D03*
X-4845000Y10150000D03*
%TD*%
D15*
%TO.C,C14*%
X-5245000Y-4110000D03*
X-3695000Y-4110000D03*
%TD*%
%TO.C,C18*%
X-5250000Y-1200000D03*
X-3700000Y-1200000D03*
%TD*%
D16*
%TO.C,C11*%
X-17525000Y-2750000D03*
X-19075000Y-2750000D03*
%TD*%
%TO.C,C15*%
X-17515000Y-4390000D03*
X-19065000Y-4390000D03*
%TD*%
D13*
%TO.C,C6*%
X-10900000Y-11925000D03*
X-10900000Y-13475000D03*
%TD*%
D17*
%TO.C,Y1*%
X-7550000Y-9200000D03*
X-7550000Y-11400000D03*
X-9250000Y-11400000D03*
X-9250000Y-9200000D03*
%TD*%
D13*
%TO.C,C5*%
X-5900000Y-8925000D03*
X-5900000Y-10475000D03*
%TD*%
D18*
%TO.C,C9*%
X-14900000Y2600000D03*
X-14900000Y4150000D03*
%TD*%
D19*
%TO.C,C2*%
X-24331250Y1750000D03*
X-24331250Y-150000D03*
%TD*%
D20*
%TO.C,R6*%
X-2800000Y2525000D03*
X-2800000Y4175000D03*
%TD*%
D10*
%TO.C,R10*%
X-10900000Y-8875000D03*
X-10900000Y-10525000D03*
%TD*%
D21*
%TO.C,D2*%
X-31100000Y10450000D03*
X-31100000Y13750000D03*
%TD*%
D16*
%TO.C,C17*%
X-17525000Y-6150000D03*
X-19075000Y-6150000D03*
%TD*%
D11*
%TO.C,R7*%
X-28500000Y13212500D03*
X-28500000Y11387500D03*
%TD*%
D19*
%TO.C,C3*%
X-22131250Y1750000D03*
X-22131250Y-150000D03*
%TD*%
D13*
%TO.C,C10*%
X-12470000Y-8935000D03*
X-12470000Y-10485000D03*
%TD*%
D22*
%TO.C,U4*%
X-7784683Y-422183D03*
X-7784683Y-822183D03*
X-7784683Y-1222183D03*
X-7784683Y-1622183D03*
X-7784683Y-2022183D03*
X-7784683Y-2422183D03*
X-7784683Y-2822183D03*
X-7784683Y-3222183D03*
X-7784683Y-3622183D03*
X-7784683Y-4022183D03*
X-7784683Y-4422183D03*
X-7784683Y-4822183D03*
X-7784683Y-5222183D03*
X-7784683Y-5622183D03*
D23*
X-8622183Y-6459683D03*
X-9022183Y-6459683D03*
X-9422183Y-6459683D03*
X-9822183Y-6459683D03*
X-10222183Y-6459683D03*
X-10622183Y-6459683D03*
X-11022183Y-6459683D03*
X-11422183Y-6459683D03*
X-11822183Y-6459683D03*
X-12222183Y-6459683D03*
X-12622183Y-6459683D03*
X-13022183Y-6459683D03*
X-13422183Y-6459683D03*
X-13822183Y-6459683D03*
D22*
X-14659683Y-5622183D03*
X-14659683Y-5222183D03*
X-14659683Y-4822183D03*
X-14659683Y-4422183D03*
X-14659683Y-4022183D03*
X-14659683Y-3622183D03*
X-14659683Y-3222183D03*
X-14659683Y-2822183D03*
X-14659683Y-2422183D03*
X-14659683Y-2022183D03*
X-14659683Y-1622183D03*
X-14659683Y-1222183D03*
X-14659683Y-822183D03*
X-14659683Y-422183D03*
D23*
X-13822183Y415317D03*
X-13422183Y415317D03*
X-13022183Y415317D03*
X-12622183Y415317D03*
X-12222183Y415317D03*
X-11822183Y415317D03*
X-11422183Y415317D03*
X-11022183Y415317D03*
X-10622183Y415317D03*
X-10222183Y415317D03*
X-9822183Y415317D03*
X-9422183Y415317D03*
X-9022183Y415317D03*
X-8622183Y415317D03*
D24*
X-10422183Y-2222183D03*
X-10422183Y-3822183D03*
X-12022183Y-2222183D03*
X-12022183Y-3822183D03*
%TD*%
D25*
%TO.C,J1*%
X-27200000Y15665000D03*
X-26400000Y15665000D03*
D26*
X-25250000Y15665000D03*
X-24250000Y15665000D03*
X-23750000Y15665000D03*
X-22750000Y15665000D03*
D25*
X-21600000Y15665000D03*
X-20800000Y15665000D03*
X-20800000Y15665000D03*
X-21600000Y15665000D03*
D26*
X-22250000Y15665000D03*
X-23250000Y15665000D03*
X-24750000Y15665000D03*
X-25750000Y15665000D03*
D25*
X-26400000Y15665000D03*
X-27200000Y15665000D03*
%TD*%
D27*
%TO.C,F1*%
X-31100000Y18400000D03*
X-31100000Y15600000D03*
%TD*%
D16*
%TO.C,C12*%
X-17525000Y-1100000D03*
X-19075000Y-1100000D03*
%TD*%
D15*
%TO.C,C13*%
X-5250000Y400000D03*
X-3700000Y400000D03*
%TD*%
%TO.C,C16*%
X-5250000Y-5750000D03*
X-3700000Y-5750000D03*
%TD*%
D11*
%TO.C,R5*%
X-26400000Y13212500D03*
X-26400000Y11387500D03*
%TD*%
D28*
%TO.C,U1*%
X-24418750Y3500000D03*
X-24418750Y4450000D03*
X-24418750Y5400000D03*
X-22143750Y5400000D03*
X-22143750Y3500000D03*
%TD*%
D29*
%TO.C,C4*%
X-17575000Y750000D03*
X-19475000Y750000D03*
%TD*%
D18*
%TO.C,C8*%
X-16500000Y2600000D03*
X-16500000Y4150000D03*
%TD*%
M02*
