%TF.GenerationSoftware,KiCad,Pcbnew,(6.0.6)*%
%TF.CreationDate,2022-07-15T17:58:14+10:00*%
%TF.ProjectId,SolderingInduction,536f6c64-6572-4696-9e67-496e64756374,1.0.0*%
%TF.SameCoordinates,PX8f0d180PY8f0d180*%
%TF.FileFunction,Other,Comment*%
%FSLAX46Y46*%
G04 Gerber Fmt 4.6, Leading zero omitted, Abs format (unit mm)*
G04 Created by KiCad (PCBNEW (6.0.6)) date 2022-07-15 17:58:14*
%MOMM*%
%LPD*%
G01*
G04 APERTURE LIST*
%ADD10C,0.200000*%
%ADD11C,0.010000*%
%ADD12C,0.125000*%
%ADD13C,0.070000*%
%ADD14C,0.150000*%
G04 APERTURE END LIST*
D10*
X-48000000Y-16500000D02*
G75*
G03*
X-47000000Y-17500000I1000000J0D01*
G01*
D11*
X-30000000Y-3500000D02*
X-17500000Y-3500000D01*
D10*
X27750000Y-3000000D02*
G75*
G03*
X27750000Y-3000000I-4250000J0D01*
G01*
X-36500000Y-23000000D02*
X36500000Y-23000000D01*
X-25500000Y2000000D02*
G75*
G03*
X-24500000Y1000000I1000000J0D01*
G01*
X47000000Y17500000D02*
X40000000Y17500000D01*
X8750000Y-18250000D02*
G75*
G03*
X8750000Y-13750000I0J2250000D01*
G01*
X49000000Y20000000D02*
G75*
G03*
X45000000Y24000000I-4000000J0D01*
G01*
X41264500Y-20000000D02*
G75*
G03*
X41264500Y-20000000I-1264500J0D01*
G01*
X48000000Y-16500000D02*
X48000000Y16500000D01*
X21500000Y-6605551D02*
X21500000Y-7743416D01*
X-4000000Y-18000000D02*
X-8500000Y-18000000D01*
X40000000Y-17500000D02*
X47000000Y-17500000D01*
X-8250000Y-18250000D02*
G75*
G03*
X-8500000Y-18000000I-250000J0D01*
G01*
X38117674Y-6393503D02*
G75*
G03*
X38000000Y-6605551I132126J-211997D01*
G01*
X38357143Y-7969293D02*
G75*
G03*
X38357143Y1969293I-2357143J4969293D01*
G01*
X-36500000Y23000000D02*
X-45000000Y23000000D01*
X-4250000Y-19250000D02*
X-4250000Y-18250000D01*
X-33500000Y-14000000D02*
G75*
G03*
X-31500000Y-16000000I2000000J0D01*
G01*
X-26207114Y1292900D02*
G75*
G03*
X-26207107Y292893I500014J-500000D01*
G01*
X-34000000Y23000000D02*
X-36000000Y23000000D01*
X-3750000Y-13750000D02*
X-8750000Y-13750000D01*
X-31500000Y10000000D02*
G75*
G03*
X-34500000Y7000000I0J-3000000D01*
G01*
X33882326Y393503D02*
G75*
G03*
X34000000Y605551I-132126J211997D01*
G01*
X-28400000Y24600000D02*
X-26400000Y24600000D01*
X-28400000Y24600000D02*
X-28400000Y23000000D01*
X-40500000Y-7250000D02*
X-34500000Y-7250000D01*
X29250000Y750000D02*
X29250000Y-6750000D01*
X21500000Y1743416D02*
X21500000Y605551D01*
X39750000Y-8750000D02*
G75*
G03*
X41750000Y-6750000I0J2000000D01*
G01*
D11*
X-30000000Y-3500000D02*
X-30000000Y9000000D01*
D10*
X38000000Y-7743416D02*
X38000000Y-6605551D01*
X19750000Y2750000D02*
G75*
G03*
X17750000Y750000I0J-2000000D01*
G01*
X19750000Y2750000D02*
X27250000Y2750000D01*
X-50000000Y-20000000D02*
G75*
G03*
X-45000000Y-25000000I5000000J0D01*
G01*
X50000000Y20000000D02*
X50000000Y-20000000D01*
X-19500000Y250000D02*
X-25500000Y250000D01*
X-28400000Y24600000D02*
X-28400000Y23000000D01*
X2500000Y0D02*
G75*
G03*
X2500000Y0I-2500000J0D01*
G01*
X-37500000Y-22000000D02*
G75*
G03*
X-36500000Y-23000000I1000000J0D01*
G01*
X-28500000Y-16250000D02*
G75*
G03*
X-26250000Y-14000000I0J2250000D01*
G01*
X40000000Y-17500000D02*
X47000000Y-17500000D01*
X-33792893Y-7292893D02*
G75*
G03*
X-34792893Y-7292893I-500000J-499999D01*
G01*
X-42500000Y-2000000D02*
X-42500000Y-5000000D01*
D11*
X32250000Y-8750000D02*
X39750000Y2750000D01*
D10*
X-19500000Y-8000000D02*
X-24500000Y-8000000D01*
X8500000Y-18000000D02*
X4000000Y-18000000D01*
X27250000Y-8750000D02*
X19750000Y-8750000D01*
X4250000Y-12750000D02*
G75*
G03*
X4000000Y-12500000I-250000J0D01*
G01*
X40250000Y-3000000D02*
G75*
G03*
X40250000Y-3000000I-4250000J0D01*
G01*
X-26207100Y-7292900D02*
G75*
G03*
X-26207107Y-8292893I500000J-500000D01*
G01*
X-36000000Y24600000D02*
X-34000000Y24600000D01*
X33882353Y-6393460D02*
G75*
G03*
X38117647Y-6393460I2117647J3393460D01*
G01*
X45000000Y-24000000D02*
G75*
G03*
X49000000Y-20000000I0J4000000D01*
G01*
X-33500000Y7000000D02*
X-33500000Y1000000D01*
X8750000Y-19500000D02*
X8500000Y-19500000D01*
X8250000Y-13750000D02*
X8250000Y-12750000D01*
X-37500000Y-20000000D02*
X-37500000Y-22000000D01*
X8250000Y-19250000D02*
G75*
G03*
X8500000Y-19500000I250000J0D01*
G01*
X-40500000Y1000000D02*
G75*
G03*
X-43500000Y-2000000I0J-3000000D01*
G01*
X-28500000Y-17000000D02*
X-31500000Y-17000000D01*
X-4250000Y-13750000D02*
G75*
G03*
X-4000000Y-14000000I250000J0D01*
G01*
X37500000Y20000000D02*
G75*
G03*
X40000000Y17500000I2500000J0D01*
G01*
X29250000Y750000D02*
G75*
G03*
X27250000Y2750000I-2000000J0D01*
G01*
X-17250000Y-2000000D02*
G75*
G03*
X-19500000Y250000I-2250000J0D01*
G01*
X-8500000Y-19500000D02*
X-8750000Y-19500000D01*
X-28500000Y-16000000D02*
G75*
G03*
X-26500000Y-14000000I0J2000000D01*
G01*
X-23671573Y-10828427D02*
G75*
G03*
X-22671573Y-9828427I500000J500000D01*
G01*
X-34000000Y25000000D02*
X-36400000Y25000000D01*
X-37500000Y-20000000D02*
G75*
G03*
X-40000000Y-17500000I-2500000J0D01*
G01*
X-45000000Y24000000D02*
G75*
G03*
X-49000000Y20000000I0J-4000000D01*
G01*
X-35500000Y1000000D02*
G75*
G03*
X-34500000Y2000000I0J1000000D01*
G01*
X47000000Y-17500000D02*
G75*
G03*
X48000000Y-16500000I0J1000000D01*
G01*
X-50000000Y20000000D02*
X-50000000Y-20000000D01*
X-42500000Y-5000000D02*
G75*
G03*
X-40500000Y-7000000I2000000J0D01*
G01*
X37500000Y-22000000D02*
X37500000Y-20000000D01*
X-19500000Y-7000000D02*
G75*
G03*
X-17500000Y-5000000I0J2000000D01*
G01*
X37500000Y20000000D02*
G75*
G03*
X40000000Y17500000I2500000J0D01*
G01*
X4250000Y-18250000D02*
G75*
G03*
X4000000Y-18000000I-250000J0D01*
G01*
X-36500000Y23000000D02*
G75*
G03*
X-37500000Y22000000I0J-1000000D01*
G01*
D11*
X32250000Y2750000D02*
X39750000Y-8750000D01*
D10*
X-48200000Y-20000000D02*
X-48200000Y20000000D01*
X1264500Y0D02*
G75*
G03*
X1264500Y0I-1264500J0D01*
G01*
X-34000000Y25000000D02*
X-28400000Y25000000D01*
X41750000Y750000D02*
X41750000Y-6750000D01*
X-45000000Y25000000D02*
X45000000Y25000000D01*
X34500000Y25000000D02*
X-19400000Y25000000D01*
X-37500000Y-20000000D02*
X-37500000Y-22000000D01*
X12250000Y-20250000D02*
G75*
G03*
X14750000Y-17750000I0J2500000D01*
G01*
X-16500000Y-2000000D02*
X-16500000Y-5000000D01*
X48000000Y16500000D02*
G75*
G03*
X47000000Y17500000I-1000000J0D01*
G01*
X33642863Y-7969280D02*
G75*
G03*
X34000000Y-7743416I107137J225880D01*
G01*
X41464500Y20000000D02*
G75*
G03*
X41464500Y20000000I-1464500J0D01*
G01*
X4250000Y-12750000D02*
X4250000Y-13750000D01*
X-48000000Y-16500000D02*
G75*
G03*
X-47000000Y-17500000I1000000J0D01*
G01*
X-38735500Y-20000000D02*
G75*
G03*
X-38735500Y-20000000I-1264500J0D01*
G01*
X21382353Y-6393460D02*
G75*
G03*
X25617647Y-6393460I2117647J3393460D01*
G01*
X3750000Y-13750000D02*
X8750000Y-13750000D01*
X8250000Y-13750000D02*
G75*
G03*
X8500000Y-14000000I250000J0D01*
G01*
X-38735500Y20000000D02*
G75*
G03*
X-38735500Y20000000I-1264500J0D01*
G01*
X-31500000Y10000000D02*
X-28500000Y10000000D01*
X-19500000Y0D02*
X-25500000Y0D01*
X-40500000Y-7000000D02*
X-34500000Y-7000000D01*
X36500000Y23000000D02*
X45000000Y23000000D01*
X-34000000Y23000000D02*
X-28400000Y23000000D01*
X4000000Y-19500000D02*
X-4000000Y-19500000D01*
X-45000000Y-25000000D02*
X45000000Y-25000000D01*
X-26000000Y25000000D02*
X-28400000Y25000000D01*
X-47000000Y17500000D02*
G75*
G03*
X-48000000Y16500000I0J-1000000D01*
G01*
X-8500000Y-14000000D02*
G75*
G03*
X-8250000Y-13750000I0J250000D01*
G01*
X-8250000Y-18250000D02*
X-8250000Y-19250000D01*
X-33792893Y1292893D02*
X-36328427Y3828427D01*
D11*
X4250000Y-18250000D02*
X8250000Y-13750000D01*
X-30000000Y-3500000D02*
X-42500000Y-3500000D01*
D10*
X-4000000Y-12500000D02*
G75*
G03*
X-4250000Y-12750000I0J-250000D01*
G01*
X4000000Y-14000000D02*
X8500000Y-14000000D01*
X25857143Y-7969293D02*
G75*
G03*
X25857143Y1969293I-2357143J4969293D01*
G01*
X-8750000Y-18250000D02*
X-3750000Y-18250000D01*
X-31500000Y9000000D02*
G75*
G03*
X-33500000Y7000000I0J-2000000D01*
G01*
X-33750000Y-8000000D02*
G75*
G03*
X-34500000Y-7250000I-750000J0D01*
G01*
X45000000Y-23200000D02*
G75*
G03*
X48200000Y-20000000I0J3200000D01*
G01*
X32250000Y2750000D02*
G75*
G03*
X30250000Y750000I0J-2000000D01*
G01*
X-48000000Y20000000D02*
X-48000000Y16500000D01*
X-34500000Y250000D02*
X-40500000Y250000D01*
X-33750000Y-14000000D02*
G75*
G03*
X-31500000Y-16250000I2250000J0D01*
G01*
X-24500000Y1000000D02*
X-19500000Y1000000D01*
X25617647Y393460D02*
G75*
G03*
X21382353Y393460I-2117647J-3393460D01*
G01*
X-28400000Y24600000D02*
X-34000000Y24600000D01*
X41750000Y750000D02*
G75*
G03*
X39750000Y2750000I-2000000J0D01*
G01*
X-31500000Y-16250000D02*
X-28500000Y-16250000D01*
X-4000000Y-18000000D02*
G75*
G03*
X-4250000Y-18250000I0J-250000D01*
G01*
X40000000Y-17500000D02*
G75*
G03*
X37500000Y-20000000I0J-2500000D01*
G01*
X-36328427Y-10828427D02*
X-33792893Y-8292893D01*
X-4000000Y-12500000D02*
X4000000Y-12500000D01*
X14750000Y-14250000D02*
X14750000Y-17750000D01*
X25500000Y-7743416D02*
X25500000Y-6605551D01*
X-49000000Y-20000000D02*
G75*
G03*
X-45000000Y-24000000I4000000J0D01*
G01*
D11*
X19750000Y-8750000D02*
X27250000Y2750000D01*
D10*
X-25500000Y7000000D02*
X-25500000Y2000000D01*
X37500000Y-22000000D02*
X37500000Y-20000000D01*
X-48000000Y-20000000D02*
X-48000000Y-16500000D01*
X47000000Y-17500000D02*
G75*
G03*
X48000000Y-16500000I0J1000000D01*
G01*
X37500000Y22000000D02*
G75*
G03*
X36500000Y23000000I-1000000J0D01*
G01*
X-38735500Y-20000000D02*
G75*
G03*
X-38735500Y-20000000I-1264500J0D01*
G01*
X-24500000Y-8000000D02*
G75*
G03*
X-25500000Y-9000000I0J-1000000D01*
G01*
X37500000Y20000000D02*
X37500000Y22000000D01*
X-18600000Y23000000D02*
X-36500000Y23000000D01*
D11*
X-3750000Y-18250000D02*
X-8500000Y-13750000D01*
D10*
X-8500000Y-14000000D02*
X-4000000Y-14000000D01*
X-34500000Y0D02*
X-40500000Y0D01*
X-19400000Y25000000D02*
X-45000000Y25000000D01*
X-28400000Y23000000D02*
X-28400000Y24600000D01*
X-12250000Y-11750000D02*
G75*
G03*
X-14750000Y-14250000I0J-2500000D01*
G01*
X-48000000Y16500000D02*
X-48000000Y-16500000D01*
X3750000Y-13750000D02*
G75*
G03*
X3750000Y-18250000I0J-2250000D01*
G01*
X-26250000Y7000000D02*
G75*
G03*
X-28500000Y9250000I-2250000J0D01*
G01*
X-43500000Y-5000000D02*
G75*
G03*
X-40500000Y-8000000I3000000J0D01*
G01*
X-25207107Y-7292893D02*
G75*
G03*
X-26207107Y-7292893I-500000J-499999D01*
G01*
X30250000Y-6750000D02*
G75*
G03*
X32250000Y-8750000I2000000J0D01*
G01*
X48000000Y20000000D02*
X48000000Y16500000D01*
X39750000Y-8750000D02*
X32250000Y-8750000D01*
X-50000000Y-20000000D02*
X-50000000Y20000000D01*
X38117647Y393460D02*
G75*
G03*
X33882353Y393460I-2117647J-3393460D01*
G01*
X-33750000Y-8000000D02*
X-33750000Y-14000000D01*
X-36328427Y3828427D02*
G75*
G03*
X-37328427Y2828427I-500000J-500000D01*
G01*
X45000000Y-23000000D02*
X36500000Y-23000000D01*
X-36500000Y23000000D02*
G75*
G03*
X-37500000Y22000000I0J-1000000D01*
G01*
X-28400000Y23000000D02*
X-28400000Y24600000D01*
X-34000000Y24600000D02*
X-28400000Y24600000D01*
X-47000000Y-17500000D02*
X-40000000Y-17500000D01*
X2300000Y0D02*
G75*
G03*
X2300000Y0I-2300000J0D01*
G01*
X-34000000Y23000000D02*
X-34000000Y24600000D01*
X-45000000Y23200000D02*
G75*
G03*
X-48200000Y20000000I0J-3200000D01*
G01*
X4250000Y-18250000D02*
X4250000Y-19250000D01*
X-8250000Y-12750000D02*
G75*
G03*
X-8500000Y-12500000I-250000J0D01*
G01*
X25857137Y1969280D02*
G75*
G03*
X25500000Y1743416I-107137J-225880D01*
G01*
X-48000000Y-20000000D02*
G75*
G03*
X-45000000Y-23000000I3000000J0D01*
G01*
X-34500000Y2000000D02*
X-34500000Y7000000D01*
X38000000Y605551D02*
X38000000Y1743416D01*
X-34000000Y23000000D02*
X-34000000Y24600000D01*
X-26400000Y23000000D02*
X-28400000Y23000000D01*
X50000000Y20000000D02*
G75*
G03*
X45000000Y25000000I-5000000J0D01*
G01*
X8250000Y-19250000D02*
X8250000Y-18250000D01*
X-45000000Y-24000000D02*
X45000000Y-24000000D01*
X33700000Y23000000D02*
X33700000Y15900000D01*
X-47000000Y-17500000D02*
X-40000000Y-17500000D01*
X27250000Y-8750000D02*
G75*
G03*
X29250000Y-6750000I0J2000000D01*
G01*
X36500000Y-23000000D02*
G75*
G03*
X37500000Y-22000000I0J1000000D01*
G01*
X-34500000Y250000D02*
G75*
G03*
X-33750000Y1000000I0J750000D01*
G01*
X21382326Y393503D02*
G75*
G03*
X21500000Y605551I-132126J211997D01*
G01*
X-26500000Y1000000D02*
X-26500000Y7000000D01*
X-26250000Y1000000D02*
X-26250000Y7000000D01*
D11*
X-30000000Y-3500000D02*
X-30000000Y-16000000D01*
D10*
X-33792900Y292900D02*
G75*
G03*
X-33792893Y1292893I-500000J500000D01*
G01*
X30250000Y-6750000D02*
X30250000Y750000D01*
X-14750000Y-17750000D02*
G75*
G03*
X-12250000Y-20250000I2500000J0D01*
G01*
X17750000Y-6750000D02*
G75*
G03*
X19750000Y-8750000I2000000J0D01*
G01*
X-17250000Y-5000000D02*
X-17250000Y-2000000D01*
D11*
X-17500000Y-2000000D02*
X-42500000Y-5000000D01*
D10*
X8500000Y-18000000D02*
G75*
G03*
X8250000Y-18250000I0J-250000D01*
G01*
X25617674Y-6393503D02*
G75*
G03*
X25500000Y-6605551I132126J-211997D01*
G01*
X50000000Y20000000D02*
G75*
G03*
X45000000Y25000000I-5000000J0D01*
G01*
X34000015Y1743416D02*
G75*
G03*
X33642857Y1969293I-250015J-16D01*
G01*
X-45000000Y23000000D02*
G75*
G03*
X-48000000Y20000000I0J-3000000D01*
G01*
X36500000Y-23000000D02*
G75*
G03*
X37500000Y-22000000I0J1000000D01*
G01*
X-12250000Y-11750000D02*
X12250000Y-11750000D01*
X-26207107Y292893D02*
G75*
G03*
X-25207107Y292893I500000J499999D01*
G01*
X25500006Y605551D02*
G75*
G03*
X25617647Y393460I250094J49D01*
G01*
X-42750000Y-2000000D02*
X-42750000Y-5000000D01*
X14750000Y-14250000D02*
G75*
G03*
X12250000Y-11750000I-2500000J0D01*
G01*
X31500000Y13700000D02*
X-16400000Y13700000D01*
X-8750000Y-12500000D02*
X-8500000Y-12500000D01*
X45000000Y-25000000D02*
X-45000000Y-25000000D01*
X-34000000Y24600000D02*
X-34000000Y23000000D01*
X45000000Y-25000000D02*
G75*
G03*
X50000000Y-20000000I0J5000000D01*
G01*
X-47000000Y17500000D02*
X-40000000Y17500000D01*
X-37328427Y2828427D02*
X-34792893Y292893D01*
X21142857Y1969293D02*
G75*
G03*
X21142857Y-7969293I2357143J-4969293D01*
G01*
X38000006Y605551D02*
G75*
G03*
X38117647Y393460I250094J49D01*
G01*
X25500000Y605551D02*
X25500000Y1743416D01*
X45000000Y-23200000D02*
X-45000000Y-23200000D01*
X33999994Y-6605551D02*
G75*
G03*
X33882353Y-6393460I-250094J-49D01*
G01*
X-26207107Y292893D02*
G75*
G03*
X-25500000Y0I707107J707107D01*
G01*
X-37500000Y20000000D02*
X-37500000Y22000000D01*
X-26207107Y-8292893D02*
X-23671573Y-10828427D01*
X21500015Y1743416D02*
G75*
G03*
X21142857Y1969293I-250015J-16D01*
G01*
X-16500000Y-2000000D02*
G75*
G03*
X-19500000Y1000000I-3000000J0D01*
G01*
X-40000000Y17500000D02*
X-47000000Y17500000D01*
X-45000000Y25000000D02*
G75*
G03*
X-50000000Y20000000I0J-5000000D01*
G01*
X21499994Y-6605551D02*
G75*
G03*
X21382353Y-6393460I-250094J-49D01*
G01*
X4000000Y-14000000D02*
G75*
G03*
X4250000Y-13750000I0J250000D01*
G01*
X-35500000Y-8000000D02*
X-40500000Y-8000000D01*
X-3750000Y-18250000D02*
G75*
G03*
X-3750000Y-13750000I0J2250000D01*
G01*
X-48200000Y-20000000D02*
G75*
G03*
X-45000000Y-23200000I3200000J0D01*
G01*
X47000000Y17500000D02*
X40000000Y17500000D01*
X-40000000Y17500000D02*
G75*
G03*
X-37500000Y20000000I0J2500000D01*
G01*
X-45000000Y23200000D02*
X45000000Y23200000D01*
X-43500000Y-5000000D02*
X-43500000Y-2000000D01*
D11*
X-4250000Y-13750000D02*
X-8250000Y-18250000D01*
D10*
X45000000Y25000000D02*
X34500000Y25000000D01*
X8750000Y-19500000D02*
G75*
G03*
X8750000Y-12500000I0J3500000D01*
G01*
D11*
X8750000Y-18250000D02*
X4000000Y-13750000D01*
D10*
X-37500000Y22000000D02*
X-37500000Y20000000D01*
X48200000Y20000000D02*
G75*
G03*
X45000000Y23200000I-3200000J0D01*
G01*
X8500000Y-12500000D02*
G75*
G03*
X8250000Y-12750000I0J-250000D01*
G01*
X-40500000Y0D02*
G75*
G03*
X-42500000Y-2000000I0J-2000000D01*
G01*
X21142863Y-7969280D02*
G75*
G03*
X21500000Y-7743416I107137J225880D01*
G01*
X-28500000Y9250000D02*
X-31500000Y9250000D01*
X-33500000Y-8000000D02*
G75*
G03*
X-33792893Y-7292893I-1000000J0D01*
G01*
D11*
X-31500000Y-16000000D02*
X-28500000Y9000000D01*
D10*
X-45000000Y25000000D02*
G75*
G03*
X-50000000Y20000000I0J-5000000D01*
G01*
X34000000Y1743416D02*
X34000000Y605551D01*
X-8750000Y-13750000D02*
G75*
G03*
X-8750000Y-18250000I0J-2250000D01*
G01*
X-34500000Y-14000000D02*
G75*
G03*
X-31500000Y-17000000I3000000J0D01*
G01*
X-26250000Y1000000D02*
G75*
G03*
X-25500000Y250000I750000J0D01*
G01*
X-4250000Y-19250000D02*
G75*
G03*
X-4000000Y-19500000I250000J0D01*
G01*
X-34500000Y-14000000D02*
X-34500000Y-9000000D01*
X-25500000Y7000000D02*
G75*
G03*
X-28500000Y10000000I-3000000J0D01*
G01*
X-40000000Y17500000D02*
G75*
G03*
X-37500000Y20000000I0J2500000D01*
G01*
X41264500Y-20000000D02*
G75*
G03*
X41264500Y-20000000I-1264500J0D01*
G01*
X-47000000Y17500000D02*
G75*
G03*
X-48000000Y16500000I0J-1000000D01*
G01*
X-26500000Y7000000D02*
G75*
G03*
X-28500000Y9000000I-2000000J0D01*
G01*
X48000000Y-16500000D02*
X48000000Y-20000000D01*
X31500000Y13700000D02*
G75*
G03*
X33700000Y15900000I0J2200000D01*
G01*
X36500000Y23000000D02*
X33700000Y23000000D01*
X-17500000Y-2000000D02*
G75*
G03*
X-19500000Y0I-2000000J0D01*
G01*
X-17500000Y-5000000D02*
X-17500000Y-2000000D01*
X37999985Y-7743416D02*
G75*
G03*
X38357143Y-7969293I250015J16D01*
G01*
X-8750000Y-12500000D02*
G75*
G03*
X-8750000Y-19500000I0J-3500000D01*
G01*
X33642857Y1969293D02*
G75*
G03*
X33642857Y-7969293I2357143J-4969293D01*
G01*
X-8250000Y-12750000D02*
X-8250000Y-13750000D01*
X-26207107Y-7292893D02*
G75*
G03*
X-26500000Y-8000000I707107J-707107D01*
G01*
X-19500000Y-7250000D02*
G75*
G03*
X-17250000Y-5000000I0J2250000D01*
G01*
X45000000Y-25000000D02*
G75*
G03*
X50000000Y-20000000I0J5000000D01*
G01*
X-31500000Y9250000D02*
G75*
G03*
X-33750000Y7000000I0J-2250000D01*
G01*
X8750000Y-18250000D02*
X3750000Y-18250000D01*
X-34792893Y292893D02*
G75*
G03*
X-33792893Y292893I500000J499999D01*
G01*
X-14750000Y-17750000D02*
X-14750000Y-14250000D01*
D11*
X-42500000Y-2000000D02*
X-17500000Y-5000000D01*
D10*
X-26250000Y-14000000D02*
X-26250000Y-8000000D01*
X-33500000Y-8000000D02*
X-33500000Y-14000000D01*
X-33750000Y7000000D02*
X-33750000Y1000000D01*
X-22671573Y2828427D02*
G75*
G03*
X-23671573Y3828427I-500000J500000D01*
G01*
X37500000Y20000000D02*
X37500000Y22000000D01*
X12250000Y-20250000D02*
X-12250000Y-20250000D01*
X-25500000Y-7000000D02*
G75*
G03*
X-26207107Y-7292893I0J-1000000D01*
G01*
X48200000Y20000000D02*
X48200000Y-20000000D01*
X-37500000Y-20000000D02*
G75*
G03*
X-40000000Y-17500000I-2500000J0D01*
G01*
X-28400000Y23000000D02*
X-34000000Y23000000D01*
X-26500000Y1000000D02*
G75*
G03*
X-26207107Y292893I1000000J0D01*
G01*
X-34792893Y-7292893D02*
X-37328427Y-9828427D01*
X-18600000Y15900000D02*
G75*
G03*
X-16400000Y13700000I2200000J0D01*
G01*
X-28400000Y25000000D02*
X-34000000Y25000000D01*
X40000000Y-17500000D02*
G75*
G03*
X37500000Y-20000000I0J-2500000D01*
G01*
X37500000Y22000000D02*
G75*
G03*
X36500000Y23000000I-1000000J0D01*
G01*
X38357137Y1969280D02*
G75*
G03*
X38000000Y1743416I-107137J-225880D01*
G01*
X-26500000Y-14000000D02*
X-26500000Y-8000000D01*
X32250000Y2750000D02*
X39750000Y2750000D01*
X-34500000Y-9000000D02*
G75*
G03*
X-35500000Y-8000000I-1000000J0D01*
G01*
X4000000Y-19500000D02*
G75*
G03*
X4250000Y-19250000I0J250000D01*
G01*
X-28500000Y9000000D02*
X-31500000Y9000000D01*
X-40500000Y1000000D02*
X-35500000Y1000000D01*
X17750000Y-6750000D02*
X17750000Y750000D01*
X-31500000Y-16000000D02*
X-28500000Y-16000000D01*
X-18600000Y15900000D02*
X-18600000Y23000000D01*
X-4250000Y-13750000D02*
X-4250000Y-12750000D01*
X-28500000Y-17000000D02*
G75*
G03*
X-25500000Y-14000000I0J3000000D01*
G01*
X49000000Y-20000000D02*
X49000000Y20000000D01*
X48000000Y16500000D02*
G75*
G03*
X47000000Y17500000I-1000000J0D01*
G01*
X-36500000Y-23000000D02*
X-45000000Y-23000000D01*
X-25500000Y-7000000D02*
X-19500000Y-7000000D01*
X-40500000Y250000D02*
G75*
G03*
X-42750000Y-2000000I0J-2250000D01*
G01*
X-33792893Y292893D02*
G75*
G03*
X-33500000Y1000000I-707107J707107D01*
G01*
D11*
X19750000Y2750000D02*
X27250000Y-8750000D01*
D10*
X-33792886Y-8292900D02*
G75*
G03*
X-33792893Y-7292893I-500014J500000D01*
G01*
X-19500000Y-8000000D02*
G75*
G03*
X-16500000Y-5000000I0J3000000D01*
G01*
X-49000000Y20000000D02*
X-49000000Y-20000000D01*
X-23671573Y3828427D02*
X-26207107Y1292893D01*
X25499985Y-7743416D02*
G75*
G03*
X25857143Y-7969293I250015J16D01*
G01*
X34000000Y-6605551D02*
X34000000Y-7743416D01*
X-25500000Y-9000000D02*
X-25500000Y-14000000D01*
X48000000Y20000000D02*
G75*
G03*
X45000000Y23000000I-3000000J0D01*
G01*
X-33792893Y-7292893D02*
G75*
G03*
X-34500000Y-7000000I-707107J-707107D01*
G01*
D11*
X-28500000Y-16000000D02*
X-31500000Y9000000D01*
D10*
X-25207107Y292893D02*
X-22671573Y2828427D01*
X50000000Y-20000000D02*
X50000000Y20000000D01*
X-37500000Y-22000000D02*
G75*
G03*
X-36500000Y-23000000I1000000J0D01*
G01*
X-22671573Y-9828427D02*
X-25207107Y-7292893D01*
X8500000Y-12500000D02*
X8750000Y-12500000D01*
X-8500000Y-19500000D02*
G75*
G03*
X-8250000Y-19250000I0J250000D01*
G01*
X1464500Y0D02*
G75*
G03*
X1464500Y0I-1464500J0D01*
G01*
X-37328427Y-9828427D02*
G75*
G03*
X-36328427Y-10828427I500000J-500000D01*
G01*
X-34000000Y24600000D02*
X-34000000Y23000000D01*
X45000000Y24000000D02*
X-45000000Y24000000D01*
X-25500000Y-7250000D02*
G75*
G03*
X-26250000Y-8000000I0J-750000D01*
G01*
X-50000000Y-20000000D02*
G75*
G03*
X-45000000Y-25000000I5000000J0D01*
G01*
X-42750000Y-5000000D02*
G75*
G03*
X-40500000Y-7250000I2250000J0D01*
G01*
X-25500000Y-7250000D02*
X-19500000Y-7250000D01*
X-38535500Y20000000D02*
G75*
G03*
X-38535500Y20000000I-1464500J0D01*
G01*
X45000000Y-23000000D02*
G75*
G03*
X48000000Y-20000000I0J3000000D01*
G01*
X-34500000Y0D02*
G75*
G03*
X-33792893Y292893I0J1000000D01*
G01*
D12*
%TO.C,J2*%
X-15223810Y-16471428D02*
X-15223810Y-16566666D01*
X-15200000Y-16614285D01*
X-15176191Y-16638095D01*
X-15104762Y-16685714D01*
X-15009524Y-16709523D01*
X-14819048Y-16709523D01*
X-14771429Y-16685714D01*
X-14747620Y-16661904D01*
X-14723810Y-16614285D01*
X-14723810Y-16519047D01*
X-14747620Y-16471428D01*
X-14771429Y-16447619D01*
X-14819048Y-16423809D01*
X-14938096Y-16423809D01*
X-14985715Y-16447619D01*
X-15009524Y-16471428D01*
X-15033334Y-16519047D01*
X-15033334Y-16614285D01*
X-15009524Y-16661904D01*
X-14985715Y-16685714D01*
X-14938096Y-16709523D01*
X-14771429Y-16209523D02*
X-14747620Y-16185714D01*
X-14723810Y-16209523D01*
X-14747620Y-16233333D01*
X-14771429Y-16209523D01*
X-14723810Y-16209523D01*
X-15223810Y-16019047D02*
X-15223810Y-15709523D01*
X-15033334Y-15876190D01*
X-15033334Y-15804761D01*
X-15009524Y-15757142D01*
X-14985715Y-15733333D01*
X-14938096Y-15709523D01*
X-14819048Y-15709523D01*
X-14771429Y-15733333D01*
X-14747620Y-15757142D01*
X-14723810Y-15804761D01*
X-14723810Y-15947619D01*
X-14747620Y-15995238D01*
X-14771429Y-16019047D01*
X-15223810Y-15257142D02*
X-15223810Y-15495238D01*
X-14985715Y-15519047D01*
X-15009524Y-15495238D01*
X-15033334Y-15447619D01*
X-15033334Y-15328571D01*
X-15009524Y-15280952D01*
X-14985715Y-15257142D01*
X-14938096Y-15233333D01*
X-14819048Y-15233333D01*
X-14771429Y-15257142D01*
X-14747620Y-15280952D01*
X-14723810Y-15328571D01*
X-14723810Y-15447619D01*
X-14747620Y-15495238D01*
X-14771429Y-15519047D01*
X-14723810Y-15019047D02*
X-15057143Y-15019047D01*
X-15009524Y-15019047D02*
X-15033334Y-14995238D01*
X-15057143Y-14947619D01*
X-15057143Y-14876190D01*
X-15033334Y-14828571D01*
X-14985715Y-14804761D01*
X-14723810Y-14804761D01*
X-14985715Y-14804761D02*
X-15033334Y-14780952D01*
X-15057143Y-14733333D01*
X-15057143Y-14661904D01*
X-15033334Y-14614285D01*
X-14985715Y-14590476D01*
X-14723810Y-14590476D01*
X-14723810Y-14352380D02*
X-15057143Y-14352380D01*
X-15009524Y-14352380D02*
X-15033334Y-14328571D01*
X-15057143Y-14280952D01*
X-15057143Y-14209523D01*
X-15033334Y-14161904D01*
X-14985715Y-14138095D01*
X-14723810Y-14138095D01*
X-14985715Y-14138095D02*
X-15033334Y-14114285D01*
X-15057143Y-14066666D01*
X-15057143Y-13995238D01*
X-15033334Y-13947619D01*
X-14985715Y-13923809D01*
X-14723810Y-13923809D01*
X-15223810Y-13352380D02*
X-15223810Y-13019047D01*
X-14723810Y-13352380D01*
X-14723810Y-13019047D01*
X-14914286Y-12828571D02*
X-14914286Y-12447619D01*
X-14723810Y-12209523D02*
X-15223810Y-12209523D01*
X-14723810Y-11923809D02*
X-15009524Y-12138095D01*
X-15223810Y-11923809D02*
X-14938096Y-12209523D01*
X-14985715Y-11709523D02*
X-14985715Y-11542857D01*
X-14723810Y-11471428D02*
X-14723810Y-11709523D01*
X-15223810Y-11709523D01*
X-15223810Y-11471428D01*
X-14985715Y-11257142D02*
X-14985715Y-11090476D01*
X-14723810Y-11019047D02*
X-14723810Y-11257142D01*
X-15223810Y-11257142D01*
X-15223810Y-11019047D01*
X-14723810Y-10804761D02*
X-15223810Y-10804761D01*
X-15223810Y-10614285D01*
X-15200000Y-10566666D01*
X-15176191Y-10542857D01*
X-15128572Y-10519047D01*
X-15057143Y-10519047D01*
X-15009524Y-10542857D01*
X-14985715Y-10566666D01*
X-14961905Y-10614285D01*
X-14961905Y-10804761D01*
X-15223810Y-10209523D02*
X-15223810Y-10114285D01*
X-15200000Y-10066666D01*
X-15152381Y-10019047D01*
X-15057143Y-9995238D01*
X-14890477Y-9995238D01*
X-14795239Y-10019047D01*
X-14747620Y-10066666D01*
X-14723810Y-10114285D01*
X-14723810Y-10209523D01*
X-14747620Y-10257142D01*
X-14795239Y-10304761D01*
X-14890477Y-10328571D01*
X-15057143Y-10328571D01*
X-15152381Y-10304761D01*
X-15200000Y-10257142D01*
X-15223810Y-10209523D01*
X-15223810Y-9780952D02*
X-14819048Y-9780952D01*
X-14771429Y-9757142D01*
X-14747620Y-9733333D01*
X-14723810Y-9685714D01*
X-14723810Y-9590476D01*
X-14747620Y-9542857D01*
X-14771429Y-9519047D01*
X-14819048Y-9495238D01*
X-15223810Y-9495238D01*
X-15223810Y-9328571D02*
X-15223810Y-9042857D01*
X-14723810Y-9185714D02*
X-15223810Y-9185714D01*
X-20723810Y-16471428D02*
X-20723810Y-16566666D01*
X-20700000Y-16614285D01*
X-20676191Y-16638095D01*
X-20604762Y-16685714D01*
X-20509524Y-16709523D01*
X-20319048Y-16709523D01*
X-20271429Y-16685714D01*
X-20247620Y-16661904D01*
X-20223810Y-16614285D01*
X-20223810Y-16519047D01*
X-20247620Y-16471428D01*
X-20271429Y-16447619D01*
X-20319048Y-16423809D01*
X-20438096Y-16423809D01*
X-20485715Y-16447619D01*
X-20509524Y-16471428D01*
X-20533334Y-16519047D01*
X-20533334Y-16614285D01*
X-20509524Y-16661904D01*
X-20485715Y-16685714D01*
X-20438096Y-16709523D01*
X-20271429Y-16209523D02*
X-20247620Y-16185714D01*
X-20223810Y-16209523D01*
X-20247620Y-16233333D01*
X-20271429Y-16209523D01*
X-20223810Y-16209523D01*
X-20723810Y-16019047D02*
X-20723810Y-15709523D01*
X-20533334Y-15876190D01*
X-20533334Y-15804761D01*
X-20509524Y-15757142D01*
X-20485715Y-15733333D01*
X-20438096Y-15709523D01*
X-20319048Y-15709523D01*
X-20271429Y-15733333D01*
X-20247620Y-15757142D01*
X-20223810Y-15804761D01*
X-20223810Y-15947619D01*
X-20247620Y-15995238D01*
X-20271429Y-16019047D01*
X-20723810Y-15257142D02*
X-20723810Y-15495238D01*
X-20485715Y-15519047D01*
X-20509524Y-15495238D01*
X-20533334Y-15447619D01*
X-20533334Y-15328571D01*
X-20509524Y-15280952D01*
X-20485715Y-15257142D01*
X-20438096Y-15233333D01*
X-20319048Y-15233333D01*
X-20271429Y-15257142D01*
X-20247620Y-15280952D01*
X-20223810Y-15328571D01*
X-20223810Y-15447619D01*
X-20247620Y-15495238D01*
X-20271429Y-15519047D01*
X-20223810Y-15019047D02*
X-20557143Y-15019047D01*
X-20509524Y-15019047D02*
X-20533334Y-14995238D01*
X-20557143Y-14947619D01*
X-20557143Y-14876190D01*
X-20533334Y-14828571D01*
X-20485715Y-14804761D01*
X-20223810Y-14804761D01*
X-20485715Y-14804761D02*
X-20533334Y-14780952D01*
X-20557143Y-14733333D01*
X-20557143Y-14661904D01*
X-20533334Y-14614285D01*
X-20485715Y-14590476D01*
X-20223810Y-14590476D01*
X-20223810Y-14352380D02*
X-20557143Y-14352380D01*
X-20509524Y-14352380D02*
X-20533334Y-14328571D01*
X-20557143Y-14280952D01*
X-20557143Y-14209523D01*
X-20533334Y-14161904D01*
X-20485715Y-14138095D01*
X-20223810Y-14138095D01*
X-20485715Y-14138095D02*
X-20533334Y-14114285D01*
X-20557143Y-14066666D01*
X-20557143Y-13995238D01*
X-20533334Y-13947619D01*
X-20485715Y-13923809D01*
X-20223810Y-13923809D01*
X-20723810Y-13352380D02*
X-20723810Y-13019047D01*
X-20223810Y-13352380D01*
X-20223810Y-13019047D01*
X-20414286Y-12828571D02*
X-20414286Y-12447619D01*
X-20223810Y-12209523D02*
X-20723810Y-12209523D01*
X-20223810Y-11923809D02*
X-20509524Y-12138095D01*
X-20723810Y-11923809D02*
X-20438096Y-12209523D01*
X-20485715Y-11709523D02*
X-20485715Y-11542857D01*
X-20223810Y-11471428D02*
X-20223810Y-11709523D01*
X-20723810Y-11709523D01*
X-20723810Y-11471428D01*
X-20485715Y-11257142D02*
X-20485715Y-11090476D01*
X-20223810Y-11019047D02*
X-20223810Y-11257142D01*
X-20723810Y-11257142D01*
X-20723810Y-11019047D01*
X-20223810Y-10804761D02*
X-20723810Y-10804761D01*
X-20723810Y-10614285D01*
X-20700000Y-10566666D01*
X-20676191Y-10542857D01*
X-20628572Y-10519047D01*
X-20557143Y-10519047D01*
X-20509524Y-10542857D01*
X-20485715Y-10566666D01*
X-20461905Y-10614285D01*
X-20461905Y-10804761D01*
X-20723810Y-10209523D02*
X-20723810Y-10114285D01*
X-20700000Y-10066666D01*
X-20652381Y-10019047D01*
X-20557143Y-9995238D01*
X-20390477Y-9995238D01*
X-20295239Y-10019047D01*
X-20247620Y-10066666D01*
X-20223810Y-10114285D01*
X-20223810Y-10209523D01*
X-20247620Y-10257142D01*
X-20295239Y-10304761D01*
X-20390477Y-10328571D01*
X-20557143Y-10328571D01*
X-20652381Y-10304761D01*
X-20700000Y-10257142D01*
X-20723810Y-10209523D01*
X-20723810Y-9780952D02*
X-20319048Y-9780952D01*
X-20271429Y-9757142D01*
X-20247620Y-9733333D01*
X-20223810Y-9685714D01*
X-20223810Y-9590476D01*
X-20247620Y-9542857D01*
X-20271429Y-9519047D01*
X-20319048Y-9495238D01*
X-20723810Y-9495238D01*
X-20723810Y-9328571D02*
X-20723810Y-9042857D01*
X-20223810Y-9185714D02*
X-20723810Y-9185714D01*
D13*
X-17519048Y-15138095D02*
X-17919048Y-15138095D01*
X-17519048Y-14909523D02*
X-17747620Y-15080952D01*
X-17919048Y-14909523D02*
X-17690477Y-15138095D01*
X-17728572Y-14738095D02*
X-17728572Y-14604761D01*
X-17519048Y-14547619D02*
X-17519048Y-14738095D01*
X-17919048Y-14738095D01*
X-17919048Y-14547619D01*
X-17728572Y-14376190D02*
X-17728572Y-14242857D01*
X-17519048Y-14185714D02*
X-17519048Y-14376190D01*
X-17919048Y-14376190D01*
X-17919048Y-14185714D01*
X-17519048Y-14014285D02*
X-17919048Y-14014285D01*
X-17919048Y-13861904D01*
X-17900000Y-13823809D01*
X-17880953Y-13804761D01*
X-17842858Y-13785714D01*
X-17785715Y-13785714D01*
X-17747620Y-13804761D01*
X-17728572Y-13823809D01*
X-17709524Y-13861904D01*
X-17709524Y-14014285D01*
X-17919048Y-13538095D02*
X-17919048Y-13461904D01*
X-17900000Y-13423809D01*
X-17861905Y-13385714D01*
X-17785715Y-13366666D01*
X-17652381Y-13366666D01*
X-17576191Y-13385714D01*
X-17538096Y-13423809D01*
X-17519048Y-13461904D01*
X-17519048Y-13538095D01*
X-17538096Y-13576190D01*
X-17576191Y-13614285D01*
X-17652381Y-13633333D01*
X-17785715Y-13633333D01*
X-17861905Y-13614285D01*
X-17900000Y-13576190D01*
X-17919048Y-13538095D01*
X-17919048Y-13195238D02*
X-17595239Y-13195238D01*
X-17557143Y-13176190D01*
X-17538096Y-13157142D01*
X-17519048Y-13119047D01*
X-17519048Y-13042857D01*
X-17538096Y-13004761D01*
X-17557143Y-12985714D01*
X-17595239Y-12966666D01*
X-17919048Y-12966666D01*
X-17919048Y-12833333D02*
X-17919048Y-12604761D01*
X-17519048Y-12719047D02*
X-17919048Y-12719047D01*
D14*
%TO.C,H2*%
X39950000Y19750000D02*
G75*
G03*
X39950000Y19750000I-2200000J0D01*
G01*
%TO.C,H4*%
X-38275000Y-17750000D02*
G75*
G03*
X-38275000Y-17750000I-2200000J0D01*
G01*
%TO.C,H3*%
X2200000Y0D02*
G75*
G03*
X2200000Y0I-2200000J0D01*
G01*
%TO.C,H5*%
X39950000Y-17750000D02*
G75*
G03*
X39950000Y-17750000I-2200000J0D01*
G01*
%TO.C,H1*%
X-38275000Y19750000D02*
G75*
G03*
X-38275000Y19750000I-2200000J0D01*
G01*
%TD*%
M02*
