%TF.GenerationSoftware,KiCad,Pcbnew,(6.0.7)*%
%TF.CreationDate,2022-09-06T16:20:22+10:00*%
%TF.ProjectId,SolderingInduction,536f6c64-6572-4696-9e67-496e64756374,3.0.0*%
%TF.SameCoordinates,PX7735940PY47868c0*%
%TF.FileFunction,Soldermask,Top*%
%TF.FilePolarity,Negative*%
%FSLAX46Y46*%
G04 Gerber Fmt 4.6, Leading zero omitted, Abs format (unit mm)*
G04 Created by KiCad (PCBNEW (6.0.7)) date 2022-09-06 16:20:22*
%MOMM*%
%LPD*%
G01*
G04 APERTURE LIST*
G04 Aperture macros list*
%AMRoundRect*
0 Rectangle with rounded corners*
0 $1 Rounding radius*
0 $2 $3 $4 $5 $6 $7 $8 $9 X,Y pos of 4 corners*
0 Add a 4 corners polygon primitive as box body*
4,1,4,$2,$3,$4,$5,$6,$7,$8,$9,$2,$3,0*
0 Add four circle primitives for the rounded corners*
1,1,$1+$1,$2,$3*
1,1,$1+$1,$4,$5*
1,1,$1+$1,$6,$7*
1,1,$1+$1,$8,$9*
0 Add four rect primitives between the rounded corners*
20,1,$1+$1,$2,$3,$4,$5,0*
20,1,$1+$1,$4,$5,$6,$7,0*
20,1,$1+$1,$6,$7,$8,$9,0*
20,1,$1+$1,$8,$9,$2,$3,0*%
G04 Aperture macros list end*
%ADD10R,1.700000X1.700000*%
%ADD11O,1.700000X1.700000*%
%ADD12RoundRect,0.075000X-0.300000X-0.300000X0.300000X-0.300000X0.300000X0.300000X-0.300000X0.300000X0*%
%ADD13C,1.750000*%
%ADD14C,2.000000*%
%ADD15O,0.900000X1.700000*%
%ADD16O,0.900000X2.000000*%
%ADD17C,0.600000*%
G04 APERTURE END LIST*
D10*
%TO.C,J3*%
X17900000Y17275000D03*
D11*
X17900000Y14735000D03*
X15360000Y17275000D03*
X15360000Y14735000D03*
X12820000Y17275000D03*
X12820000Y14735000D03*
X10280000Y17275000D03*
X10280000Y14735000D03*
X7740000Y17275000D03*
X7740000Y14735000D03*
X5200000Y17275000D03*
X5200000Y14735000D03*
X2660000Y17275000D03*
X2660000Y14735000D03*
X120000Y17275000D03*
X120000Y14735000D03*
X-2420000Y17275000D03*
X-2420000Y14735000D03*
X-4960000Y17275000D03*
X-4960000Y14735000D03*
X-7500000Y17275000D03*
X-7500000Y14735000D03*
X-10040000Y17275000D03*
X-10040000Y14735000D03*
X-12580000Y17275000D03*
X-12580000Y14735000D03*
X-15120000Y17275000D03*
X-15120000Y14735000D03*
X-17660000Y17275000D03*
X-17660000Y14735000D03*
X-20200000Y17275000D03*
X-20200000Y14735000D03*
X-22740000Y17275000D03*
X-22740000Y14735000D03*
X-25280000Y17275000D03*
X-25280000Y14735000D03*
X-27820000Y17275000D03*
X-27820000Y14735000D03*
X-30360000Y17275000D03*
X-30360000Y14735000D03*
%TD*%
D12*
%TO.C,TP11*%
X-11500000Y8500000D03*
%TD*%
%TO.C,TP7*%
X-13500000Y8500000D03*
%TD*%
%TO.C,TP6*%
X-12500000Y7500000D03*
%TD*%
%TO.C,TP4*%
X-13500000Y7500000D03*
%TD*%
%TO.C,TP3*%
X-12500000Y8500000D03*
%TD*%
D13*
%TO.C,SW3*%
X-26700000Y-6050000D03*
X-31700000Y-6100000D03*
X-26700000Y-3100000D03*
X-31700000Y-3100000D03*
%TD*%
D12*
%TO.C,TP5*%
X30500000Y-13500000D03*
%TD*%
D13*
%TO.C,SW6*%
X25500000Y-3150000D03*
X30500000Y-3100000D03*
X25500000Y-6100000D03*
X30500000Y-6100000D03*
%TD*%
D12*
%TO.C,TP2*%
X3500000Y1500000D03*
%TD*%
%TO.C,TP10*%
X18500000Y4500000D03*
%TD*%
D13*
%TO.C,SW5*%
X-20650000Y4700000D03*
X-20600000Y-300000D03*
X-23600000Y-300000D03*
X-23600000Y4700000D03*
%TD*%
D12*
%TO.C,TP9*%
X18500000Y500000D03*
%TD*%
D14*
%TO.C,FID3*%
X16400000Y9500000D03*
%TD*%
D13*
%TO.C,SW1*%
X-20650000Y-8900000D03*
X-20600000Y-13900000D03*
X-23600000Y-8900000D03*
X-23600000Y-13900000D03*
%TD*%
D12*
%TO.C,TP1*%
X3500000Y3500000D03*
%TD*%
D14*
%TO.C,FID2*%
X14500000Y-14500000D03*
%TD*%
D13*
%TO.C,SW2*%
X9460000Y-11300000D03*
X4460000Y-11350000D03*
X4460000Y-14300000D03*
X9460000Y-14300000D03*
%TD*%
%TO.C,SW8*%
X-7700000Y-11350000D03*
X-2700000Y-11300000D03*
X-7700000Y-14300000D03*
X-2700000Y-14300000D03*
%TD*%
D12*
%TO.C,TP8*%
X28500000Y1500000D03*
%TD*%
D13*
%TO.C,SW7*%
X-13300000Y-6050000D03*
X-18300000Y-6100000D03*
X-13300000Y-3100000D03*
X-18300000Y-3100000D03*
%TD*%
%TO.C,SW4*%
X14450000Y-3150000D03*
X19450000Y-3100000D03*
X19450000Y-6100000D03*
X14450000Y-6100000D03*
%TD*%
D12*
%TO.C,TP12*%
X9500000Y-5500000D03*
%TD*%
D14*
%TO.C,FID1*%
X-21200000Y-5250000D03*
%TD*%
D15*
%TO.C,J1*%
X22305000Y17940000D03*
D16*
X30945000Y13770000D03*
X22305000Y13770000D03*
D15*
X30945000Y17940000D03*
D17*
X29515000Y14250000D03*
X23735000Y14250000D03*
%TD*%
M02*
