M48
; DRILL file {KiCad (6.0.7)} date Tue 06 Sep 2022 04:20:15 PM AEST
; FORMAT={-:-/ absolute / metric / decimal}
; #@! TF.CreationDate,2022-09-06T16:20:15+10:00
; #@! TF.GenerationSoftware,Kicad,Pcbnew,(6.0.7)
; #@! TF.FileFunction,MixedPlating,1,4
FMAT,2
METRIC
; #@! TA.AperFunction,Plated,PTH,ViaDrill
T1C0.200
; #@! TA.AperFunction,Plated,PTH,ViaDrill
T2C0.254
; #@! TA.AperFunction,Plated,PTH,ViaDrill
T3C0.300
; #@! TA.AperFunction,Plated,PTH,ComponentDrill
T4C0.600
; #@! TA.AperFunction,Plated,PTH,ComponentDrill
T5C1.000
; #@! TA.AperFunction,NonPlated,NPTH,ComponentDrill
T6C0.600
%
G90
G05
T1
X-33.5Y17.0
X-33.5Y15.0
X-33.5Y13.0
X-33.5Y11.1
X-33.5Y9.05
X-33.5Y3.0
X-33.5Y1.0
X-33.5Y-1.0
X-33.5Y-3.0
X-33.5Y-5.0
X-33.5Y-7.0
X-33.5Y-9.0
X-33.5Y-11.0
X-33.5Y-13.0
X-33.5Y-15.0
X-32.5Y18.5
X-32.5Y-16.0
X-32.1Y7.45
X-32.086Y5.464
X-30.5Y18.5
X-30.5Y-16.0
X-28.5Y18.5
X-28.5Y-16.0
X-26.5Y18.5
X-26.5Y-16.0
X-24.5Y18.5
X-24.5Y-16.0
X-22.5Y-16.0
X-20.5Y-16.0
X-18.5Y18.5
X-18.5Y-16.0
X-16.5Y18.5
X-16.5Y-16.0
X-14.5Y18.5
X-14.5Y-16.0
X-12.5Y-16.0
X-10.5Y-16.0
X-8.5Y18.5
X-8.5Y-16.0
X-6.5Y18.5
X-6.5Y-16.0
X-4.5Y18.5
X-4.5Y4.15
X-4.5Y2.4
X-4.5Y-16.0
X-4.336Y-2.186
X-4.32Y0.6
X-4.3Y-1.132
X-3.9Y-3.2
X-3.85Y3.35
X-3.4Y4.95
X-3.1Y-3.2
X-2.59Y1.933
X-2.59Y0.8
X-2.58Y-1.797
X-2.5Y-0.897
X-2.5Y-16.0
X-2.4Y4.95
X-2.2Y-2.6
X-2.1Y0.2
X-1.96Y1.458
X-1.625Y-1.962
X-1.4Y4.95
X-1.25Y1.25
X-1.25Y0.0
X-1.25Y-1.25
X-1.05Y-2.6
X-1.007Y-4.3
X-1.0Y2.6
X-0.5Y18.5
X-0.5Y2.15
X-0.5Y-16.0
X-0.5Y-16.0
X-0.375Y-2.0
X-0.094Y-4.55
X0.0Y4.85
X0.0Y1.25
X0.0Y0.0
X0.0Y-1.25
X0.4Y-4.95
X0.5Y2.2
X0.55Y4.35
X0.55Y-2.6
X0.875Y-4.325
X1.1Y4.95
X1.25Y1.25
X1.25Y0.0
X1.25Y-1.25
X1.35Y-4.952
X1.5Y18.5
X1.5Y-16.0
X1.5Y-16.0
X1.5Y-16.0
X1.65Y2.2
X1.8Y4.35
X1.825Y-4.322
X2.3Y-4.95
X2.4Y1.368
X2.7Y4.35
X3.5Y18.5
X3.5Y-16.0
X3.5Y-16.0
X3.5Y-16.0
X3.5Y-16.0
X3.7Y4.55
X4.3Y-3.85
X4.35Y0.4
X5.5Y-16.0
X5.5Y-16.0
X5.5Y-16.0
X5.5Y-16.0
X7.5Y-16.0
X7.5Y-16.0
X7.5Y-16.0
X9.1Y-2.79
X9.1Y-4.232
X9.5Y18.5
X9.5Y-16.0
X9.5Y-16.0
X11.0Y-4.0
X11.5Y18.5
X11.5Y-0.25
X11.5Y-16.0
X12.0Y-4.0
X13.5Y18.5
X13.5Y-16.0
X13.79Y4.37
X13.79Y-0.13
X15.5Y-16.0
X16.49Y4.37
X16.49Y-0.13
X17.5Y-16.0
X19.5Y18.5
X19.5Y-16.0
X19.94Y4.82
X19.94Y4.02
X19.94Y2.72
X19.94Y1.52
X19.94Y0.22
X19.94Y-0.78
X20.75Y-1.45
X20.79Y5.67
X21.1Y13.75
X21.1Y12.25
X21.5Y-16.0
X21.7Y-1.45
X22.09Y5.67
X22.35Y12.25
X23.45Y12.25
X23.5Y-16.0
X24.5Y18.5
X24.925Y14.75
X25.5Y-16.0
X26.5Y18.5
X27.5Y-16.0
X27.74Y5.47
X27.74Y4.07
X27.93Y0.5
X27.93Y-0.9
X28.43Y14.75
X28.5Y18.5
X29.5Y-16.0
X29.8Y12.25
X30.9Y12.25
X31.0Y-15.7
X31.18Y4.77
X32.0Y-14.7
X32.5Y17.0
X32.5Y15.0
X32.5Y13.0
X32.5Y11.0
X32.5Y9.0
X32.5Y7.0
X32.5Y5.0
X32.5Y3.0
X32.5Y1.0
X32.5Y-1.0
X32.5Y-3.0
X32.5Y-5.0
X32.5Y-7.0
X32.5Y-9.0
X32.5Y-11.0
X32.5Y-13.0
T2
X-29.1Y12.9
X-26.55Y12.9
X-24.05Y12.9
X-21.55Y12.9
X-18.95Y12.9
X-16.4Y12.9
X-14.6Y9.7
X-13.5Y8.5
X-12.3Y-11.65
X-12.3Y-13.6
X-11.5Y8.5
X-11.3Y12.9
X-8.8Y12.9
X-6.25Y12.9
X-1.75Y11.95
X-1.15Y12.9
X1.4Y12.9
X3.9Y12.9
X9.05Y12.9
X11.55Y12.9
X14.1Y12.9
X24.0Y16.75
X24.0Y15.75
X25.0Y16.75
X25.0Y15.75
X26.0Y16.75
X26.0Y15.75
X27.0Y16.75
X27.0Y15.75
X28.0Y16.75
X28.0Y15.75
X30.65Y-12.55
T3
X-9.5Y1.5
X-9.5Y0.45
X-9.45Y4.5
X-9.45Y3.0
X-9.15Y-3.55
X-9.15Y-5.55
X-3.8Y8.9
X-3.65Y-8.782
X-1.7Y8.9
X-1.65Y-8.782
X0.55Y-8.782
X0.7Y8.9
X2.5Y8.9
X2.75Y-8.782
X4.55Y8.9
X5.25Y-7.1
X7.7Y5.2
X22.4Y11.0
X22.4Y-10.5
X25.75Y-12.4
X29.2Y7.3
X29.2Y6.3
X29.2Y5.3
X29.4Y1.05
X30.65Y-11.1
X31.45Y11.0
T5
X-31.7Y-3.1
X-31.7Y-6.1
X-30.36Y17.275
X-30.36Y14.735
X-27.82Y17.275
X-27.82Y14.735
X-26.7Y-3.1
X-26.7Y-6.05
X-25.28Y17.275
X-25.28Y14.735
X-23.6Y4.7
X-23.6Y-0.3
X-23.6Y-8.9
X-23.6Y-13.9
X-22.74Y17.275
X-22.74Y14.735
X-20.65Y4.7
X-20.65Y-8.9
X-20.6Y-0.3
X-20.6Y-13.9
X-20.2Y17.275
X-20.2Y14.735
X-18.3Y-3.1
X-18.3Y-6.1
X-17.66Y17.275
X-17.66Y14.735
X-15.12Y17.275
X-15.12Y14.735
X-13.3Y-3.1
X-13.3Y-6.05
X-12.58Y17.275
X-12.58Y14.735
X-10.04Y17.275
X-10.04Y14.735
X-7.7Y-11.35
X-7.7Y-14.3
X-7.5Y17.275
X-7.5Y14.735
X-4.96Y17.275
X-4.96Y14.735
X-2.7Y-11.3
X-2.7Y-14.3
X-2.42Y17.275
X-2.42Y14.735
X0.12Y17.275
X0.12Y14.735
X2.66Y17.275
X2.66Y14.735
X4.46Y-11.35
X4.46Y-14.3
X5.2Y17.275
X5.2Y14.735
X7.74Y17.275
X7.74Y14.735
X9.46Y-11.3
X9.46Y-14.3
X10.28Y17.275
X10.28Y14.735
X12.82Y17.275
X12.82Y14.735
X14.45Y-3.15
X14.45Y-6.1
X15.36Y17.275
X15.36Y14.735
X17.9Y17.275
X17.9Y14.735
X19.45Y-3.1
X19.45Y-6.1
X25.5Y-3.15
X25.5Y-6.1
X30.5Y-3.1
X30.5Y-6.1
T6
X23.735Y14.25
X29.515Y14.25
T4
G00X22.305Y18.34
M15
G01X22.305Y17.54
M16
G05
G00X22.305Y14.32
M15
G01X22.305Y13.22
M16
G05
G00X30.945Y18.34
M15
G01X30.945Y17.54
M16
G05
G00X30.945Y14.32
M15
G01X30.945Y13.22
M16
G05
T0
M30
