%TF.GenerationSoftware,KiCad,Pcbnew,(6.0.7)*%
%TF.CreationDate,2022-09-06T16:20:22+10:00*%
%TF.ProjectId,SolderingInduction,536f6c64-6572-4696-9e67-496e64756374,3.0.0*%
%TF.SameCoordinates,PX7735940PY47868c0*%
%TF.FileFunction,Paste,Bot*%
%TF.FilePolarity,Positive*%
%FSLAX46Y46*%
G04 Gerber Fmt 4.6, Leading zero omitted, Abs format (unit mm)*
G04 Created by KiCad (PCBNEW (6.0.7)) date 2022-09-06 16:20:22*
%MOMM*%
%LPD*%
G01*
G04 APERTURE LIST*
G04 Aperture macros list*
%AMRoundRect*
0 Rectangle with rounded corners*
0 $1 Rounding radius*
0 $2 $3 $4 $5 $6 $7 $8 $9 X,Y pos of 4 corners*
0 Add a 4 corners polygon primitive as box body*
4,1,4,$2,$3,$4,$5,$6,$7,$8,$9,$2,$3,0*
0 Add four circle primitives for the rounded corners*
1,1,$1+$1,$2,$3*
1,1,$1+$1,$4,$5*
1,1,$1+$1,$6,$7*
1,1,$1+$1,$8,$9*
0 Add four rect primitives between the rounded corners*
20,1,$1+$1,$2,$3,$4,$5,0*
20,1,$1+$1,$4,$5,$6,$7,0*
20,1,$1+$1,$6,$7,$8,$9,0*
20,1,$1+$1,$8,$9,$2,$3,0*%
G04 Aperture macros list end*
%ADD10RoundRect,0.250000X0.475000X-0.250000X0.475000X0.250000X-0.475000X0.250000X-0.475000X-0.250000X0*%
%ADD11RoundRect,0.200000X0.200000X0.275000X-0.200000X0.275000X-0.200000X-0.275000X0.200000X-0.275000X0*%
%ADD12R,0.900000X1.200000*%
%ADD13R,2.000000X1.500000*%
%ADD14R,2.000000X3.800000*%
%ADD15RoundRect,0.150000X0.150000X-0.650000X0.150000X0.650000X-0.150000X0.650000X-0.150000X-0.650000X0*%
%ADD16RoundRect,0.250000X-0.475000X0.250000X-0.475000X-0.250000X0.475000X-0.250000X0.475000X0.250000X0*%
%ADD17R,1.500000X1.000000*%
%ADD18RoundRect,0.250000X0.250000X0.475000X-0.250000X0.475000X-0.250000X-0.475000X0.250000X-0.475000X0*%
%ADD19R,1.400000X1.200000*%
%ADD20RoundRect,0.250000X-0.250000X-0.475000X0.250000X-0.475000X0.250000X0.475000X-0.250000X0.475000X0*%
%ADD21RoundRect,0.200000X0.275000X-0.200000X0.275000X0.200000X-0.275000X0.200000X-0.275000X-0.200000X0*%
%ADD22RoundRect,0.250000X-0.325000X-0.650000X0.325000X-0.650000X0.325000X0.650000X-0.325000X0.650000X0*%
%ADD23RoundRect,0.250000X0.262500X0.450000X-0.262500X0.450000X-0.262500X-0.450000X0.262500X-0.450000X0*%
%ADD24RoundRect,0.249999X0.395001X-0.395001X0.395001X0.395001X-0.395001X0.395001X-0.395001X-0.395001X0*%
%ADD25RoundRect,0.050000X0.050000X-0.387500X0.050000X0.387500X-0.050000X0.387500X-0.050000X-0.387500X0*%
%ADD26RoundRect,0.050000X0.387500X-0.050000X0.387500X0.050000X-0.387500X0.050000X-0.387500X-0.050000X0*%
%ADD27R,0.600000X1.160000*%
%ADD28R,0.300000X1.160000*%
%ADD29RoundRect,0.250000X-0.625000X0.375000X-0.625000X-0.375000X0.625000X-0.375000X0.625000X0.375000X0*%
%ADD30RoundRect,0.250000X-0.262500X-0.450000X0.262500X-0.450000X0.262500X0.450000X-0.262500X0.450000X0*%
G04 APERTURE END LIST*
D10*
%TO.C,C7*%
X11500000Y-2950000D03*
X11500000Y-1050000D03*
%TD*%
D11*
%TO.C,R3*%
X7375000Y750000D03*
X5725000Y750000D03*
%TD*%
D12*
%TO.C,D2*%
X23730000Y2320000D03*
X27030000Y2320000D03*
%TD*%
D13*
%TO.C,U1*%
X21440000Y4420000D03*
D14*
X15140000Y2120000D03*
D13*
X21440000Y2120000D03*
X21440000Y-180000D03*
%TD*%
D11*
%TO.C,R2*%
X7375000Y2350000D03*
X5725000Y2350000D03*
%TD*%
D15*
%TO.C,U3*%
X9065001Y-8632167D03*
X7795001Y-8632167D03*
X6525001Y-8632167D03*
X5255001Y-8632167D03*
X5255001Y-1432167D03*
X6525001Y-1432167D03*
X7795001Y-1432167D03*
X9065001Y-1432167D03*
%TD*%
D16*
%TO.C,C14*%
X-1659812Y-5982082D03*
X-1659812Y-7882082D03*
%TD*%
%TO.C,C18*%
X320087Y-5982082D03*
X320087Y-7882082D03*
%TD*%
D17*
%TO.C,LED1*%
X25750000Y-13400000D03*
X25750000Y-10200000D03*
X30650000Y-10200000D03*
X30650000Y-13400000D03*
%TD*%
D10*
%TO.C,C11*%
X-1700000Y5950000D03*
X-1700000Y7850000D03*
%TD*%
%TO.C,C15*%
X-3800000Y5950000D03*
X-3800000Y7850000D03*
%TD*%
D18*
%TO.C,C6*%
X-5950000Y160000D03*
X-7850000Y160000D03*
%TD*%
D19*
%TO.C,Y1*%
X-5933823Y-3539441D03*
X-8133823Y-3539441D03*
X-8133823Y-1839441D03*
X-5933823Y-1839441D03*
%TD*%
D18*
%TO.C,C5*%
X-5950000Y-5600000D03*
X-7850000Y-5600000D03*
%TD*%
D20*
%TO.C,C9*%
X5810003Y4067833D03*
X7710003Y4067833D03*
%TD*%
D21*
%TO.C,R6*%
X11500000Y-6825000D03*
X11500000Y-5175000D03*
%TD*%
D22*
%TO.C,C3*%
X23855000Y-200000D03*
X26805000Y-200000D03*
%TD*%
%TO.C,C2*%
X23844999Y4780000D03*
X26794999Y4780000D03*
%TD*%
D23*
%TO.C,R5*%
X25372500Y10970000D03*
X23547500Y10970000D03*
%TD*%
D18*
%TO.C,C17*%
X-5942402Y4523048D03*
X-7842402Y4523048D03*
%TD*%
D10*
%TO.C,C1*%
X22990000Y-13400000D03*
X22990000Y-11500000D03*
%TD*%
D18*
%TO.C,C10*%
X-5942402Y2260306D03*
X-7842402Y2260306D03*
%TD*%
D24*
%TO.C,U4*%
X800000Y-800000D03*
X-800000Y800000D03*
X-800000Y-800000D03*
X800000Y800000D03*
D25*
X2600000Y-3437500D03*
X2200000Y-3437500D03*
X1800000Y-3437500D03*
X1400000Y-3437500D03*
X1000000Y-3437500D03*
X600000Y-3437500D03*
X200000Y-3437500D03*
X-200000Y-3437500D03*
X-600000Y-3437500D03*
X-1000000Y-3437500D03*
X-1400000Y-3437500D03*
X-1800000Y-3437500D03*
X-2200000Y-3437500D03*
X-2600000Y-3437500D03*
D26*
X-3437500Y-2600000D03*
X-3437500Y-2200000D03*
X-3437500Y-1800000D03*
X-3437500Y-1400000D03*
X-3437500Y-1000000D03*
X-3437500Y-600000D03*
X-3437500Y-200000D03*
X-3437500Y200000D03*
X-3437500Y600000D03*
X-3437500Y1000000D03*
X-3437500Y1400000D03*
X-3437500Y1800000D03*
X-3437500Y2200000D03*
X-3437500Y2600000D03*
D25*
X-2600000Y3437500D03*
X-2200000Y3437500D03*
X-1800000Y3437500D03*
X-1400000Y3437500D03*
X-1000000Y3437500D03*
X-600000Y3437500D03*
X-200000Y3437500D03*
X200000Y3437500D03*
X600000Y3437500D03*
X1000000Y3437500D03*
X1400000Y3437500D03*
X1800000Y3437500D03*
X2200000Y3437500D03*
X2600000Y3437500D03*
D26*
X3437500Y2600000D03*
X3437500Y2200000D03*
X3437500Y1800000D03*
X3437500Y1400000D03*
X3437500Y1000000D03*
X3437500Y600000D03*
X3437500Y200000D03*
X3437500Y-200000D03*
X3437500Y-600000D03*
X3437500Y-1000000D03*
X3437500Y-1400000D03*
X3437500Y-1800000D03*
X3437500Y-2200000D03*
X3437500Y-2600000D03*
%TD*%
D27*
%TO.C,J1*%
X23425000Y13190000D03*
X24225000Y13190000D03*
D28*
X24875000Y13190000D03*
X25875000Y13190000D03*
X27375000Y13190000D03*
X28375000Y13190000D03*
D27*
X29025000Y13190000D03*
X29825000Y13190000D03*
X29825000Y13190000D03*
X29025000Y13190000D03*
D28*
X27875000Y13190000D03*
X26875000Y13190000D03*
X26375000Y13190000D03*
X25375000Y13190000D03*
D27*
X24225000Y13190000D03*
X23425000Y13190000D03*
%TD*%
D29*
%TO.C,F1*%
X29190000Y5110000D03*
X29190000Y2310000D03*
%TD*%
D30*
%TO.C,R1*%
X28377500Y10970000D03*
X30202500Y10970000D03*
%TD*%
D10*
%TO.C,C12*%
X400000Y5950000D03*
X400000Y7850000D03*
%TD*%
D16*
%TO.C,C13*%
X2760003Y-5979685D03*
X2760003Y-7879685D03*
%TD*%
%TO.C,C16*%
X-3639711Y-5982082D03*
X-3639711Y-7882082D03*
%TD*%
D10*
%TO.C,C4*%
X2500000Y5950000D03*
X2500000Y7850000D03*
%TD*%
%TO.C,C8*%
X4600000Y5950000D03*
X4600000Y7850000D03*
%TD*%
M02*
