M48
; DRILL file {KiCad (6.0.7)} date Thu 28 Jul 2022 01:36:10 PM AEST
; FORMAT={-:-/ absolute / metric / decimal}
; #@! TF.CreationDate,2022-07-28T13:36:10+10:00
; #@! TF.GenerationSoftware,Kicad,Pcbnew,(6.0.7)
; #@! TF.FileFunction,MixedPlating,1,4
FMAT,2
METRIC
; #@! TA.AperFunction,Plated,PTH,ViaDrill
T1C0.200
; #@! TA.AperFunction,Plated,PTH,ViaDrill
T2C0.300
; #@! TA.AperFunction,Plated,PTH,ComponentDrill
T3C0.600
; #@! TA.AperFunction,Plated,PTH,ComponentDrill
T4C1.000
; #@! TA.AperFunction,NonPlated,NPTH,ComponentDrill
T5C0.600
%
G90
G05
T1
X-33.5Y17.0
X-33.5Y15.0
X-33.5Y13.0
X-33.5Y11.0
X-33.5Y9.0
X-33.5Y7.0
X-33.5Y5.0
X-33.5Y3.0
X-33.5Y1.0
X-33.5Y-1.0
X-33.5Y-3.0
X-33.5Y-5.0
X-33.5Y-7.0
X-33.5Y-9.0
X-33.5Y-11.0
X-33.5Y-13.0
X-33.5Y-15.0
X-32.5Y18.5
X-32.5Y-16.0
X-30.5Y18.5
X-30.5Y-16.0
X-29.05Y3.6
X-28.55Y11.55
X-28.5Y18.5
X-28.5Y6.65
X-28.5Y-16.0
X-27.85Y2.8
X-26.7Y1.85
X-26.7Y-12.45
X-26.55Y11.55
X-26.5Y18.5
X-26.5Y-16.0
X-26.05Y10.2
X-26.05Y0.8
X-25.6Y3.05
X-25.55Y6.65
X-25.0Y8.9
X-25.0Y-1.45
X-24.5Y18.5
X-24.5Y-16.0
X-24.0Y7.25
X-23.6Y-7.25
X-23.45Y10.85
X-22.75Y10.2
X-22.5Y-16.0
X-22.4Y6.65
X-22.35Y1.4
X-21.85Y7.25
X-21.85Y-2.65
X-21.5Y10.2
X-20.7Y10.75
X-20.7Y9.55
X-20.5Y-16.0
X-20.2Y8.9
X-19.45Y-4.55
X-19.4Y10.2
X-18.95Y9.55
X-18.95Y7.75
X-18.95Y-0.45
X-18.9Y12.85
X-18.5Y18.5
X-18.5Y-16.0
X-18.425Y1.05
X-18.4Y10.2
X-18.35Y-1.45
X-17.75Y4.25
X-17.75Y0.5
X-17.1Y11.55
X-17.1Y-5.5
X-16.85Y12.3
X-16.5Y18.5
X-16.5Y-16.0
X-16.4Y-7.25
X-15.8Y9.65
X-15.75Y3.0
X-15.75Y0.5
X-15.75Y-2.5
X-15.75Y-4.0
X-15.15Y-8.15
X-14.65Y1.7
X-14.6Y10.8
X-14.6Y9.65
X-14.6Y-1.4
X-14.5Y18.5
X-14.5Y-16.0
X-14.45Y-8.95
X-14.0Y12.85
X-13.35Y2.9
X-13.35Y0.5
X-13.35Y-9.6
X-12.65Y8.65
X-12.6Y5.35
X-12.5Y-16.0
X-12.1Y1.75
X-12.1Y-1.5
X-11.6Y-12.5
X-11.55Y5.35
X-11.3Y7.95
X-11.1Y-2.1
X-11.1Y-3.95
X-11.1Y-5.1
X-11.1Y-10.15
X-11.0Y4.5
X-10.5Y-13.1
X-10.5Y-16.0
X-10.1Y7.45
X-10.1Y5.35
X-8.8Y10.2
X-8.5Y18.5
X-8.5Y-16.0
X-7.5Y5.8
X-6.85Y12.85
X-6.5Y18.5
X-6.5Y-16.0
X-6.15Y6.35
X-5.6Y-1.55
X-5.15Y11.4
X-5.15Y7.05
X-4.5Y18.5
X-4.5Y2.4
X-4.5Y-16.0
X-4.32Y-2.202
X-4.32Y0.6
X-4.3Y-1.132
X-4.05Y4.4
X-3.9Y-3.2
X-3.65Y-6.95
X-3.5Y3.2
X-3.4Y4.95
X-3.05Y-3.2
X-2.59Y1.933
X-2.59Y0.8
X-2.58Y-1.797
X-2.5Y0.1
X-2.5Y-16.0
X-2.45Y11.4
X-2.4Y4.95
X-2.3Y-4.8
X-2.2Y-2.6
X-2.05Y-0.6
X-1.96Y1.458
X-1.8Y12.4
X-1.75Y-6.9
X-1.625Y-1.962
X-1.4Y4.95
X-1.25Y1.25
X-1.25Y0.0
X-1.25Y-1.25
X-1.15Y10.4
X-1.05Y-2.6
X-1.007Y-4.3
X-1.0Y2.6
X-0.6Y4.4
X-0.5Y18.5
X-0.5Y12.4
X-0.5Y2.15
X-0.5Y-16.0
X-0.5Y-16.0
X-0.075Y-4.322
X-0.05Y-2.0
X0.0Y1.25
X0.0Y0.0
X0.0Y-1.25
X0.1Y10.15
X0.3Y4.4
X0.4Y-4.952
X0.5Y2.2
X0.55Y-2.6
X0.6Y-6.9
X0.75Y12.4
X0.875Y-4.322
X1.1Y4.95
X1.25Y1.25
X1.25Y0.0
X1.25Y-1.25
X1.25Y-2.2
X1.35Y-4.952
X1.4Y10.15
X1.5Y18.5
X1.5Y-16.0
X1.5Y-16.0
X1.5Y-16.0
X1.65Y2.2
X1.8Y4.35
X1.825Y-4.322
X2.3Y-4.952
X2.4Y1.368
X2.55Y-0.8
X2.55Y-2.2
X2.7Y4.35
X3.15Y-4.3
X3.15Y-3.44
X3.45Y4.5
X3.45Y3.9
X3.5Y18.5
X3.5Y-16.0
X3.5Y-16.0
X3.5Y-16.0
X3.5Y-16.0
X3.9Y9.8
X3.95Y-4.2
X4.35Y0.4
X4.6Y12.4
X5.2Y9.8
X5.25Y-6.65
X5.25Y-7.25
X5.5Y-16.0
X5.5Y-16.0
X5.5Y-16.0
X5.5Y-16.0
X6.0Y12.4
X6.05Y6.5
X6.7Y7.15
X6.95Y5.65
X7.4Y10.9
X7.4Y6.45
X7.5Y-16.0
X7.5Y-16.0
X7.5Y-16.0
X7.55Y4.95
X8.05Y12.4
X8.1Y9.85
X8.1Y5.75
X8.8Y9.0
X8.8Y5.1
X9.0Y10.9
X9.1Y-4.232
X9.5Y18.5
X9.5Y-2.5
X9.5Y-16.0
X9.5Y-16.0
X9.65Y12.4
X10.25Y9.85
X11.0Y-4.0
X11.5Y18.5
X11.5Y-16.0
X12.0Y-4.0
X13.5Y18.5
X13.5Y-16.0
X14.05Y9.0
X14.75Y4.6
X14.75Y0.1
X15.5Y-16.0
X17.45Y4.6
X17.45Y0.1
X17.5Y-16.0
X17.65Y-6.443
X17.65Y-13.55
X19.5Y18.5
X19.5Y-16.0
X20.9Y5.05
X20.9Y4.25
X20.9Y2.95
X20.9Y1.75
X20.9Y0.45
X20.9Y-0.55
X21.1Y13.75
X21.1Y12.25
X21.5Y-16.0
X21.75Y5.9
X21.75Y-1.2
X22.35Y12.25
X23.0Y-1.2
X23.05Y5.9
X23.45Y12.25
X23.5Y-16.0
X24.5Y18.5
X24.925Y14.75
X25.5Y-16.0
X25.75Y-14.4
X26.5Y18.5
X27.5Y-16.0
X28.425Y14.65
X28.5Y18.5
X28.7Y5.7
X28.7Y4.3
X28.85Y0.45
X28.85Y-0.95
X29.1Y-6.9
X29.1Y-12.55
X29.5Y-16.0
X29.8Y12.25
X30.9Y12.25
X31.5Y-16.0
X32.5Y17.0
X32.5Y15.0
X32.5Y13.0
X32.5Y11.0
X32.5Y9.0
X32.5Y7.0
X32.5Y5.0
X32.5Y3.0
X32.5Y1.0
X32.5Y-1.0
X32.5Y-3.0
X32.5Y-5.0
X32.5Y-7.0
X32.5Y-9.0
X32.5Y-11.0
X32.5Y-13.0
X32.5Y-15.0
T2
X-9.8Y2.95
X-9.55Y-3.35
X-9.45Y-1.8
X-9.05Y2.95
X-9.05Y-4.95
X-9.05Y-6.45
X-9.0Y4.468
X-3.65Y9.15
X-3.65Y-8.782
X-1.65Y-8.9
X-1.45Y9.15
X0.55Y-8.809
X2.5Y8.9
X2.75Y-8.782
X4.55Y8.9
X8.9Y3.55
X19.485Y14.735
X19.485Y12.735
X20.875Y16.125
X24.5Y16.15
X26.5Y16.15
X28.5Y16.15
X30.5Y16.15
T4
X-31.7Y-3.1
X-31.7Y-6.1
X-30.36Y17.275
X-30.36Y14.735
X-27.82Y17.275
X-27.82Y14.735
X-26.7Y-3.1
X-26.7Y-6.05
X-25.28Y17.275
X-25.28Y14.735
X-23.6Y4.7
X-23.6Y-0.3
X-23.6Y-8.9
X-23.6Y-13.9
X-22.74Y17.275
X-22.74Y14.735
X-20.65Y4.7
X-20.65Y-8.9
X-20.6Y-0.3
X-20.6Y-13.9
X-20.2Y17.275
X-20.2Y14.735
X-18.3Y-3.1
X-18.3Y-6.1
X-17.66Y17.275
X-17.66Y14.735
X-15.12Y17.275
X-15.12Y14.735
X-13.3Y-3.1
X-13.3Y-6.05
X-12.58Y17.275
X-12.58Y14.735
X-10.04Y17.275
X-10.04Y14.735
X-7.7Y-11.35
X-7.7Y-14.3
X-7.5Y17.275
X-7.5Y14.735
X-4.96Y17.275
X-4.96Y14.735
X-2.7Y-11.3
X-2.7Y-14.3
X-2.42Y17.275
X-2.42Y14.735
X0.12Y17.275
X0.12Y14.735
X2.66Y17.275
X2.66Y14.735
X4.46Y-11.35
X4.46Y-14.3
X5.2Y17.275
X5.2Y14.735
X7.74Y17.275
X7.74Y14.735
X9.46Y-11.3
X9.46Y-14.3
X10.28Y17.275
X10.28Y14.735
X12.82Y17.275
X12.82Y14.735
X14.5Y-3.95
X14.5Y-6.9
X15.36Y17.275
X15.36Y14.735
X17.9Y17.275
X17.9Y14.735
X19.5Y-3.9
X19.5Y-6.9
X25.5Y-3.95
X25.5Y-6.9
X30.5Y-3.9
X30.5Y-6.9
T5
X23.735Y14.25
X29.515Y14.25
T3
G00X22.305Y18.34
M15
G01X22.305Y17.54
M16
G05
G00X22.305Y14.32
M15
G01X22.305Y13.22
M16
G05
G00X30.945Y18.34
M15
G01X30.945Y17.54
M16
G05
G00X30.945Y14.32
M15
G01X30.945Y13.22
M16
G05
T0
M30
