%TF.GenerationSoftware,KiCad,Pcbnew,(6.0.7)*%
%TF.CreationDate,2022-09-06T16:20:22+10:00*%
%TF.ProjectId,SolderingInduction,536f6c64-6572-4696-9e67-496e64756374,3.0.0*%
%TF.SameCoordinates,PX7735940PY47868c0*%
%TF.FileFunction,Other,User*%
%FSLAX46Y46*%
G04 Gerber Fmt 4.6, Leading zero omitted, Abs format (unit mm)*
G04 Created by KiCad (PCBNEW (6.0.7)) date 2022-09-06 16:20:22*
%MOMM*%
%LPD*%
G01*
G04 APERTURE LIST*
%ADD10C,0.050000*%
G04 APERTURE END LIST*
D10*
%TO.C,C7*%
X10520000Y-300000D02*
X10520000Y-3700000D01*
X10520000Y-3700000D02*
X12480000Y-3700000D01*
X12480000Y-300000D02*
X10520000Y-300000D01*
X12480000Y-3700000D02*
X12480000Y-300000D01*
%TO.C,R3*%
X8030000Y1480000D02*
X5070000Y1480000D01*
X5070000Y1480000D02*
X5070000Y20000D01*
X5070000Y20000D02*
X8030000Y20000D01*
X8030000Y20000D02*
X8030000Y1480000D01*
%TO.C,D2*%
X23030000Y1170000D02*
X23030000Y3470000D01*
X23030000Y1170000D02*
X27730000Y1170000D01*
X27730000Y3470000D02*
X23030000Y3470000D01*
X27730000Y1170000D02*
X27730000Y3470000D01*
%TO.C,U1*%
X22690000Y-1480000D02*
X13890000Y-1480000D01*
X22690000Y5720000D02*
X22690000Y-1480000D01*
X13890000Y-1480000D02*
X13890000Y5720000D01*
X13890000Y5720000D02*
X22690000Y5720000D01*
%TO.C,R2*%
X5070000Y1620000D02*
X8030000Y1620000D01*
X8030000Y1620000D02*
X8030000Y3080000D01*
X5070000Y3080000D02*
X5070000Y1620000D01*
X8030000Y3080000D02*
X5070000Y3080000D01*
%TO.C,U3*%
X4300001Y-9682167D02*
X4300001Y-382167D01*
X10020001Y-382167D02*
X10020001Y-9682167D01*
X4300001Y-382167D02*
X10020001Y-382167D01*
X10020001Y-9682167D02*
X4300001Y-9682167D01*
%TO.C,C14*%
X-2639812Y-8632082D02*
X-679812Y-8632082D01*
X-679812Y-5232082D02*
X-2639812Y-5232082D01*
X-679812Y-8632082D02*
X-679812Y-5232082D01*
X-2639812Y-5232082D02*
X-2639812Y-8632082D01*
%TO.C,C18*%
X-659913Y-8632082D02*
X1300087Y-8632082D01*
X1300087Y-5232082D02*
X-659913Y-5232082D01*
X-659913Y-5232082D02*
X-659913Y-8632082D01*
X1300087Y-8632082D02*
X1300087Y-5232082D01*
%TO.C,LED1*%
X24750000Y-14550000D02*
X24750000Y-9050000D01*
X31650000Y-14550000D02*
X24750000Y-14550000D01*
X31650000Y-9050000D02*
X31650000Y-14550000D01*
X24750000Y-9050000D02*
X31650000Y-9050000D01*
%TO.C,C11*%
X-2680000Y5200000D02*
X-720000Y5200000D01*
X-720000Y8600000D02*
X-2680000Y8600000D01*
X-2680000Y8600000D02*
X-2680000Y5200000D01*
X-720000Y5200000D02*
X-720000Y8600000D01*
%TO.C,C15*%
X-2820000Y5200000D02*
X-2820000Y8600000D01*
X-2820000Y8600000D02*
X-4780000Y8600000D01*
X-4780000Y5200000D02*
X-2820000Y5200000D01*
X-4780000Y8600000D02*
X-4780000Y5200000D01*
%TO.C,C6*%
X-5200000Y1140000D02*
X-8600000Y1140000D01*
X-5200000Y-820000D02*
X-5200000Y1140000D01*
X-8600000Y-820000D02*
X-5200000Y-820000D01*
X-8600000Y1140000D02*
X-8600000Y-820000D01*
%TO.C,Y1*%
X-4933823Y-989441D02*
X-4933823Y-4389441D01*
X-4933823Y-4389441D02*
X-9133823Y-4389441D01*
X-9133823Y-989441D02*
X-4933823Y-989441D01*
X-9133823Y-4389441D02*
X-9133823Y-989441D01*
%TO.C,C5*%
X-8600000Y-4620000D02*
X-8600000Y-6580000D01*
X-5200000Y-4620000D02*
X-8600000Y-4620000D01*
X-8600000Y-6580000D02*
X-5200000Y-6580000D01*
X-5200000Y-6580000D02*
X-5200000Y-4620000D01*
%TO.C,C9*%
X5060003Y5047833D02*
X5060003Y3087833D01*
X8460003Y5047833D02*
X5060003Y5047833D01*
X5060003Y3087833D02*
X8460003Y3087833D01*
X8460003Y3087833D02*
X8460003Y5047833D01*
%TO.C,R6*%
X10770000Y-4520000D02*
X10770000Y-7480000D01*
X12230000Y-4520000D02*
X10770000Y-4520000D01*
X10770000Y-7480000D02*
X12230000Y-7480000D01*
X12230000Y-7480000D02*
X12230000Y-4520000D01*
%TO.C,C3*%
X23030000Y-1350000D02*
X27630000Y-1350000D01*
X27630000Y-1350000D02*
X27630000Y950000D01*
X27630000Y950000D02*
X23030000Y950000D01*
X23030000Y950000D02*
X23030000Y-1350000D01*
%TO.C,C2*%
X27619999Y3630000D02*
X27619999Y5930000D01*
X23019999Y5930000D02*
X23019999Y3630000D01*
X27619999Y5930000D02*
X23019999Y5930000D01*
X23019999Y3630000D02*
X27619999Y3630000D01*
%TO.C,R5*%
X22780000Y11920000D02*
X22780000Y10020000D01*
X26140000Y10020000D02*
X26140000Y11920000D01*
X22780000Y10020000D02*
X26140000Y10020000D01*
X26140000Y11920000D02*
X22780000Y11920000D01*
%TO.C,C17*%
X-5192402Y3543048D02*
X-5192402Y5503048D01*
X-5192402Y5503048D02*
X-8592402Y5503048D01*
X-8592402Y5503048D02*
X-8592402Y3543048D01*
X-8592402Y3543048D02*
X-5192402Y3543048D01*
%TO.C,C1*%
X23970000Y-10750000D02*
X22010000Y-10750000D01*
X23970000Y-14150000D02*
X23970000Y-10750000D01*
X22010000Y-10750000D02*
X22010000Y-14150000D01*
X22010000Y-14150000D02*
X23970000Y-14150000D01*
%TO.C,C10*%
X-5192402Y1280306D02*
X-5192402Y3240306D01*
X-8592402Y1280306D02*
X-5192402Y1280306D01*
X-5192402Y3240306D02*
X-8592402Y3240306D01*
X-8592402Y3240306D02*
X-8592402Y1280306D01*
%TO.C,U4*%
X-4120000Y4120000D02*
X4120000Y4120000D01*
X4120000Y4120000D02*
X4120000Y-4120000D01*
X-4120000Y-4120000D02*
X-4120000Y4120000D01*
X4120000Y-4120000D02*
X-4120000Y-4120000D01*
%TO.C,J1*%
X21355000Y21040000D02*
X31895000Y21040000D01*
X21355000Y12110000D02*
X21355000Y21040000D01*
X31895000Y21040000D02*
X31895000Y12110000D01*
X31895000Y12110000D02*
X21355000Y12110000D01*
%TO.C,F1*%
X28070000Y1430000D02*
X30310000Y1430000D01*
X30310000Y1430000D02*
X30310000Y5990000D01*
X30310000Y5990000D02*
X28070000Y5990000D01*
X28070000Y5990000D02*
X28070000Y1430000D01*
%TO.C,R1*%
X30970000Y11920000D02*
X27610000Y11920000D01*
X27610000Y11920000D02*
X27610000Y10020000D01*
X30970000Y10020000D02*
X30970000Y11920000D01*
X27610000Y10020000D02*
X30970000Y10020000D01*
%TO.C,C12*%
X1380000Y8600000D02*
X-580000Y8600000D01*
X1380000Y5200000D02*
X1380000Y8600000D01*
X-580000Y5200000D02*
X1380000Y5200000D01*
X-580000Y8600000D02*
X-580000Y5200000D01*
%TO.C,C13*%
X1780003Y-5229685D02*
X1780003Y-8629685D01*
X3740003Y-5229685D02*
X1780003Y-5229685D01*
X1780003Y-8629685D02*
X3740003Y-8629685D01*
X3740003Y-8629685D02*
X3740003Y-5229685D01*
%TO.C,C16*%
X-4619711Y-8632082D02*
X-2659711Y-8632082D01*
X-4619711Y-5232082D02*
X-4619711Y-8632082D01*
X-2659711Y-8632082D02*
X-2659711Y-5232082D01*
X-2659711Y-5232082D02*
X-4619711Y-5232082D01*
%TO.C,C4*%
X3480000Y8600000D02*
X1520000Y8600000D01*
X3480000Y5200000D02*
X3480000Y8600000D01*
X1520000Y8600000D02*
X1520000Y5200000D01*
X1520000Y5200000D02*
X3480000Y5200000D01*
%TO.C,C8*%
X3620000Y8600000D02*
X3620000Y5200000D01*
X5580000Y5200000D02*
X5580000Y8600000D01*
X3620000Y5200000D02*
X5580000Y5200000D01*
X5580000Y8600000D02*
X3620000Y8600000D01*
%TD*%
M02*
