<?xml version="1.0" encoding="UTF-8" standalone="no"?>
<!-- Created with Inkscape (http://www.inkscape.org/) -->

<svg
   width="76.223511mm"
   height="45.73497mm"
   viewBox="0 0 76.223511 45.73497"
   version="1.1"
   id="svg5"
   xml:space="preserve"
   xmlns="http://www.w3.org/2000/svg"
   xmlns:svg="http://www.w3.org/2000/svg"><defs
     id="defs2" /><g
     id="layer1"
     transform="translate(-59.747268,-107.33714)"><path
       style="fill:none;stroke:#000000;stroke-width:0.585;stroke-linecap:round;stroke-linejoin:round;stroke-dasharray:none;stroke-opacity:1"
       d="m 115.42462,130.68843 c 0.0312,-0.0813 0.0567,-0.20184 0.0567,-0.26789 0,-0.0981 0.21298,-0.11904 1.16417,-0.11441 1.12773,0.005 1.15225,0.009 0.78317,0.12451 -0.20955,0.0654 -0.71502,0.15621 -1.12326,0.20188 -0.40824,0.0457 -0.78619,0.1102 -0.83989,0.14338 -0.0659,0.0407 -0.0792,0.0123 -0.0409,-0.0875 z m -45.164702,-0.42479 c 0.0181,-0.23586 0.05162,-0.37169 0.0745,-0.30184 0.02287,0.0699 0.09027,0.24706 0.149772,0.39379 0.100495,0.24784 0.0952,0.26928 -0.0745,0.30184 -0.170961,0.0328 -0.180569,0.008 -0.149772,-0.39379 z m -10.196167,0.26966 c -0.02215,-0.0582 -0.03048,-5.19218 -0.01851,-11.40883 l 0.02177,-11.30301 9.293465,-0.0215 9.293466,-0.0215 -0.02247,2.43455 -0.02246,2.43454 -6.561667,0.0423 -6.561667,0.0423 -0.02292,1.76722 c -0.01598,1.23211 0.0064,1.80253 0.07387,1.88384 0.07924,0.0955 0.708829,0.11661 3.473083,0.11661 h 3.3763 v 2.45533 2.45534 H 71.82963 c -0.381673,0 -0.59626,-0.0399 -0.683381,-0.127 -0.105776,-0.10578 -0.463843,-0.127 -2.142585,-0.127 -1.688343,0 -2.032699,0.0206 -2.120987,0.127 -0.07466,0.0899 -0.272238,0.127 -0.677333,0.127 -0.381995,0 -0.60402,0.0387 -0.668553,0.11642 -0.0678,0.0817 -0.08983,0.70673 -0.07387,2.0955 l 0.02275,1.97908 0.656167,0.0247 0.656167,0.0247 v 2.49411 2.49411 h -3.346991 c -2.599667,0 -3.355984,-0.0236 -3.387268,-0.10584 z m 15.925354,-0.0847 c 0.03218,-0.10478 0.107838,-0.3048 0.168132,-0.4445 0.108535,-0.25148 0.109695,-0.24958 0.116533,0.1905 0.0061,0.39511 -0.01254,0.4445 -0.168133,0.4445 -0.142412,0 -0.164133,-0.0355 -0.116532,-0.1905 z m 4.270904,-11.23951 v -11.43001 h 1.51221 1.5122 l 5.2823,5.34328 c 6.85634,6.93549 6.76902,6.84873 6.89334,6.84873 0.0586,0 0.12963,-0.0603 0.15789,-0.13392 0.0283,-0.0737 0.0514,-2.81739 0.0514,-6.09719 v -5.96327 l 2.68817,0.0224 2.688171,0.0224 0.0218,6.68867 0.0218,6.68867 -1.659841,-0.0247 c -1.17088,-0.0174 -1.69483,0.004 -1.7786,0.0739 -0.0991,0.0822 -0.11875,0.82188 -0.11875,4.46574 v 4.36718 l -1.36503,-1.39305 c -0.75077,-0.76618 -2.37954,-2.41931 -3.6195,-3.67363 -1.23996,-1.25431 -2.29257,-2.38073 -2.33914,-2.50314 -0.54368,-1.42916 -0.5237,-1.40723 -1.22151,-1.34069 -0.18379,0.0175 -0.31613,0.0138 -0.29409,-0.008 0.058,-0.058 -2.78187,-2.88438 -2.89824,-2.88438 -0.0537,0 -0.12189,0.063 -0.15145,0.14004 -0.0296,0.077 -0.0504,1.7289 -0.0463,3.67083 l 0.007,3.53079 -0.24731,0.58367 c -0.13603,0.32102 -0.29535,0.73607 -0.35405,0.92234 -0.0587,0.18627 -0.19177,0.52917 -0.29572,0.762 -0.10395,0.23283 -0.25559,0.63288 -0.33696,0.889 -0.0814,0.25612 -0.21741,0.61807 -0.30229,0.80433 -0.0849,0.18627 -0.20137,0.50059 -0.25885,0.6985 l -0.10451,0.35984 h -1.72239 -1.72226 z m 31.401961,11.30775 c -0.0207,-0.0207 -0.45952,-0.15232 -0.97522,-0.29254 -0.5157,-0.14022 -1.20046,-0.38982 -1.52169,-0.55466 -0.32123,-0.16485 -0.61283,-0.2999 -0.648,-0.30013 -0.17058,-0.001 -1.68599,-1.11356 -2.29572,-1.68528 -0.37858,-0.35498 -0.74858,-0.70039 -0.82221,-0.76757 -0.12156,-0.11089 -0.11756,-0.14589 0.0434,-0.38002 0.0975,-0.14183 0.24213,-0.33408 0.32132,-0.42721 0.0792,-0.0931 0.42918,-0.56938 0.77773,-1.05833 0.34855,-0.48895 0.77277,-1.0795 0.94271,-1.31234 0.16993,-0.23283 0.52651,-0.73176 0.79239,-1.10873 l 0.48342,-0.68541 0.29143,0.55841 c 0.39254,0.75211 1.38619,1.73489 2.1379,2.1145 l 0.56654,0.28609 v 2.82541 c 0,1.55397 -0.0127,2.8254 -0.0282,2.8254 -0.0155,0 -0.0451,-0.0169 -0.0658,-0.0376 z m 9.23804,-2.49654 c 0,-0.9916 -0.0207,-1.18104 -0.13393,-1.22448 -0.0737,-0.0283 -1.28995,-0.0514 -2.70288,-0.0514 h -2.56896 l -0.0276,-0.67753 c -0.0257,-0.63008 -0.0158,-0.67752 0.14151,-0.67734 0.25627,3.4e-4 1.73588,-0.51065 1.73588,-0.59945 0,-0.0452 0.9376,-0.0777 2.24069,-0.0777 2.12864,0 2.24507,-0.008 2.32833,-0.16377 0.0508,-0.095 0.0876,-0.78584 0.0876,-1.64495 0,-1.24115 -0.0218,-1.50301 -0.13466,-1.61584 -0.11995,-0.11996 -0.57067,-0.13217 -4.1275,-0.11188 l -3.99284,0.0228 0.0239,-2.1385 0.024,-2.13851 5.01371,0.0218 5.01371,0.0218 0.0222,4.953 0.0222,4.953 -0.6877,0.65233 c -0.37824,0.35878 -1.04543,0.88123 -1.48266,1.16098 l -0.79496,0.50865 z m -47.736065,0.29046 c -0.05017,-0.18626 -0.115731,-0.45296 -0.145689,-0.59266 -0.02996,-0.1397 -0.126754,-0.4826 -0.215103,-0.762 -0.08835,-0.2794 -0.216036,-0.68898 -0.28375,-0.91017 l -0.123115,-0.40217 h 0.883175 0.883176 l -0.118818,0.3175 c -0.226689,0.60575 -0.557178,1.72592 -0.563586,1.91023 -0.0035,0.1019 -0.05563,0.31862 -0.115756,0.48161 l -0.109314,0.29633 z m 30.008035,-5.57534 c -0.37799,-1.44655 -0.41597,-1.76518 -0.42027,-3.52633 -0.003,-1.08142 0.0365,-1.94311 0.10383,-2.286 0.11351,-0.578 0.57937,-2.0987 0.68734,-2.24366 0.0347,-0.0466 0.11166,-0.23707 0.17107,-0.42334 0.25373,-0.79562 1.42799,-2.50691 2.26468,-3.30038 0.59984,-0.56887 1.48206,-1.31218 1.55859,-1.3132 0.0313,-4.2e-4 0.30876,-0.16966 0.61663,-0.3761 0.30786,-0.20646 0.70137,-0.42179 0.87446,-0.47852 0.17308,-0.0567 0.3909,-0.14982 0.48403,-0.20687 0.0931,-0.0571 0.43604,-0.19909 0.762,-0.31564 1.48221,-0.52996 3.37886,-0.74198 5.22952,-0.58457 1.90918,0.16238 2.82794,0.40942 4.54948,1.2233 0.3478,0.16443 1.71726,1.07689 1.97804,1.31794 0.62686,0.57946 1.49471,1.4891 1.47402,1.54501 -0.0127,0.0343 -0.57673,0.5702 -1.25343,1.19099 -0.67672,0.62079 -1.30741,1.20491 -1.40156,1.29804 -0.54234,0.53653 -1.33533,1.22767 -1.40856,1.22767 -0.0468,0 -0.2237,-0.16168 -0.39301,-0.35929 -0.93703,-1.09368 -2.0543,-1.77083 -3.39816,-2.05954 -0.66097,-0.142 -1.9796,-0.15621 -2.67262,-0.0288 -0.66642,0.12251 -1.74363,0.54274 -2.22634,0.86851 -0.93375,0.63019 -1.84494,1.83711 -2.20964,2.92678 -0.34709,1.03708 -0.41318,2.92613 -0.13928,3.98118 l 0.10025,0.38618 -1.8482,-0.0243 -1.8482,-0.0243 -0.22949,0.2423 c -0.22634,0.23898 -0.99541,1.40733 -1.16158,1.76465 -0.0742,0.15953 -0.10624,0.10406 -0.2436,-0.42163 z"
       id="path211" /><path
       style="fill:#000000;fill-opacity:1;stroke-width:0.0846667"
       d="m 70.269343,152.97833 c -0.20955,-0.0436 -0.4572,-0.11294 -0.550333,-0.15401 -0.09313,-0.0411 -0.436034,-0.15711 -0.762,-0.25787 -0.325967,-0.10076 -0.755764,-0.28455 -0.955103,-0.40842 -0.642,-0.39895 -1.034564,-0.69007 -1.034564,-0.76721 0,-0.0414 0.09459,-0.16497 0.210204,-0.27463 0.115612,-0.10966 0.210862,-0.24476 0.211666,-0.30022 0.003,-0.2051 0.19104,-0.20804 0.41051,-0.006 0.298519,0.27422 1.261003,0.78905 1.721602,0.92087 0.20186,0.0578 0.409107,0.13655 0.460548,0.17504 0.198165,0.14832 1.548693,0.26054 2.584785,0.21479 0.829722,-0.0366 1.156276,-0.0867 1.455855,-0.22316 0.212413,-0.0968 0.418157,-0.17594 0.457207,-0.17594 0.203724,0 1.006565,-0.63215 1.296683,-1.02099 0.385671,-0.51692 0.460767,-0.80152 0.456651,-1.73067 -0.0036,-0.82109 -0.131323,-1.10989 -0.738545,-1.67048 -0.336768,-0.31091 -0.567213,-0.43973 -1.030312,-0.57596 -0.328087,-0.0965 -0.659881,-0.20982 -0.737321,-0.2518 -0.07744,-0.042 -0.496541,-0.1362 -0.931334,-0.20938 -0.434793,-0.0732 -0.866732,-0.16818 -0.959866,-0.21112 -0.09313,-0.043 -0.340783,-0.0946 -0.550333,-0.11486 -0.20955,-0.0202 -0.6477,-0.11358 -0.973667,-0.20746 -0.530673,-0.15284 -0.814708,-0.27841 -1.465899,-0.64807 -0.275962,-0.15666 -0.696089,-0.56687 -0.786086,-0.76754 -0.04177,-0.0931 -0.112325,-0.22648 -0.156791,-0.29633 -0.299875,-0.47107 -0.377768,-0.82124 -0.370922,-1.6675 0.0039,-0.47972 0.04291,-0.9199 0.08673,-0.97819 0.04382,-0.0583 0.172368,-0.35187 0.285655,-0.65239 0.159746,-0.42377 0.323632,-0.66131 0.730191,-1.05833 0.68413,-0.66809 1.287967,-0.97892 2.227452,-1.14658 0.302683,-0.054 0.667338,-0.13334 0.810344,-0.17628 0.336385,-0.101 1.431192,-0.10067 1.765978,5.1e-4 0.143006,0.0432 0.555005,0.14166 0.915553,0.21874 0.360547,0.0771 0.677121,0.17506 0.703496,0.21773 0.02637,0.0427 0.117798,0.0776 0.203161,0.0776 0.117768,0 1.409452,0.65644 1.603103,0.81471 0.03387,0.0277 -0.125832,0.27524 -0.388538,0.60232 l -0.152097,0.18936 -0.931334,-0.46606 c -0.512233,-0.25633 -1.075052,-0.48942 -1.250709,-0.51798 -0.175657,-0.0286 -0.339831,-0.085 -0.364831,-0.12547 -0.05996,-0.097 -2.551861,-0.0956 -2.611861,0.002 -0.02552,0.0413 -0.188599,0.10175 -0.362403,0.13435 -0.535084,0.10038 -1.387455,0.67287 -1.708116,1.14724 -0.746653,1.10457 -0.710822,2.6029 0.07849,3.28196 0.417263,0.35899 0.973212,0.69538 1.149226,0.69538 0.06573,0 0.185665,0.0371 0.266525,0.0825 0.146472,0.0822 0.742722,0.2228 2.882105,0.67979 0.619532,0.13234 1.171982,0.2767 1.227667,0.3208 0.05568,0.0441 0.253646,0.12757 0.439912,0.18546 0.998866,0.31048 1.845893,1.24647 2.078994,2.29735 0.429636,1.93691 -0.665208,3.89575 -2.502327,4.47703 -0.186267,0.0589 -0.376767,0.13561 -0.423333,0.17038 -0.306201,0.22862 -3.144141,0.33864 -4.021667,0.1559 z m 44.492337,-0.004 c -0.0931,-0.0528 -0.18839,-0.12274 -0.21167,-0.15539 -0.0233,-0.0326 -0.21284,-0.14583 -0.42124,-0.25151 -0.65028,-0.32979 -1.23545,-0.86386 -1.68547,-1.53827 -0.23831,-0.35714 -0.43352,-0.70004 -0.43381,-0.762 -2.6e-4,-0.062 -0.0538,-0.21487 -0.11902,-0.33979 -0.29676,-0.56881 -0.41291,-1.75714 -0.41225,-4.21787 6.8e-4,-2.53514 0.10954,-3.63786 0.41734,-4.22769 0.0624,-0.11952 0.11364,-0.26703 0.11393,-0.3278 2.5e-4,-0.0608 0.19284,-0.40367 0.4279,-0.762 0.41221,-0.62838 1.39953,-1.53814 1.6711,-1.53983 0.0598,-3.4e-4 0.19736,-0.0587 0.30558,-0.12961 0.44905,-0.29423 2.54069,-0.59175 2.78633,-0.39634 0.0557,0.0443 0.27732,0.10603 0.4925,0.13714 0.21517,0.0311 0.53755,0.13116 0.7164,0.22234 0.17885,0.0912 0.37778,0.16579 0.44206,0.16579 0.17708,0 0.57948,0.31821 1.22009,0.96482 0.42573,0.42972 0.66729,0.76834 0.91515,1.28284 0.45398,0.94238 0.44971,0.96998 -0.15009,0.96836 l -0.48683,-0.001 -0.21054,-0.44319 c -0.42007,-0.88428 -1.58292,-1.96211 -2.30909,-2.14028 -0.1285,-0.0315 -0.25458,-0.0912 -0.28017,-0.13261 -0.0613,-0.0992 -2.02832,-0.0976 -2.21785,0.002 -0.0809,0.0424 -0.3622,0.18003 -0.62519,0.3058 -0.46918,0.22436 -1.16297,0.84229 -1.38931,1.2374 -0.25681,0.44829 -0.55809,1.14816 -0.63206,1.46829 -0.10696,0.46287 -0.10112,6.25151 0.007,6.73272 0.0771,0.34371 0.31654,0.89085 0.62292,1.42331 0.26927,0.46795 0.82928,0.9484 1.52386,1.30739 0.49913,0.25796 0.54987,0.26641 1.61598,0.26907 1.04295,0.003 1.12687,-0.01 1.60037,-0.24075 0.65709,-0.32019 1.32841,-0.82801 1.51727,-1.14774 0.0834,-0.14114 0.18067,-0.25662 0.21619,-0.25662 0.0355,0 0.17505,-0.24765 0.31006,-0.55033 l 0.24546,-0.55033 h 0.50007 0.50008 l -0.0486,0.24292 c -0.0267,0.13362 -0.16484,0.44009 -0.30692,0.68106 -0.14209,0.24098 -0.25834,0.48089 -0.25834,0.53314 0,0.10895 -0.0675,0.1893 -0.69676,0.82888 -0.59278,0.60253 -0.88594,0.82284 -1.25057,0.93981 -0.16298,0.0523 -0.37291,0.14284 -0.46649,0.20124 -0.0936,0.0584 -0.37168,0.14941 -0.618,0.20223 -0.58545,0.12556 -2.71327,0.12185 -2.93718,-0.005 z m -32.131001,-7.22692 v -7.24343 l 3.40783,0.0256 c 3.10094,0.0233 3.43833,0.0397 3.7465,0.18182 1.38704,0.63982 2.0431,1.3558 2.49769,2.7258 0.15264,0.46003 0.1957,0.77878 0.1963,1.45292 4.2e-4,0.47712 -0.039,0.91286 -0.088,0.97366 -0.0488,0.0605 -0.11678,0.24088 -0.15101,0.40076 -0.0764,0.35681 -0.5559,1.23936 -0.83609,1.53889 -0.55444,0.59273 -1.22865,1.01061 -1.83055,1.13459 -0.16299,0.0336 -0.33768,0.0942 -0.3882,0.13471 -0.0505,0.0405 -1.28878,0.0837 -2.75167,0.0961 l -2.6598,0.0224 -0.0223,2.89983 -0.0223,2.89984 h -0.54922 -0.54922 z m 6.48123,0.39942 c 0.0442,-0.0389 0.25188,-0.13447 0.46143,-0.21245 0.43081,-0.16032 0.99774,-0.63097 1.29074,-1.07154 0.39489,-0.59379 0.44493,-0.82708 0.44493,-2.07434 0,-1.13047 -0.011,-1.20699 -0.23714,-1.65331 -0.30629,-0.60445 -0.69942,-1.01556 -1.30687,-1.36665 l -0.48799,-0.28204 -2.77283,-0.0255 -2.77284,-0.0255 v 3.39096 3.39095 h 2.65007 c 1.45754,0 2.68626,-0.0318 2.7305,-0.0707 z m 6.52293,6.45106 c 0.065,-0.21612 0.1516,-0.43519 0.19235,-0.48683 0.0408,-0.0516 0.12175,-0.24629 0.18001,-0.43256 0.0583,-0.18626 0.13943,-0.37486 0.18037,-0.4191 0.0409,-0.0442 0.0747,-0.17759 0.075,-0.29633 2.6e-4,-0.11875 0.0598,-0.32951 0.13216,-0.46836 0.20199,-0.38738 0.51859,-1.20756 0.71961,-1.86421 0.0998,-0.32596 0.2105,-0.63076 0.24604,-0.67733 0.0355,-0.0466 0.13147,-0.29422 0.21321,-0.55033 0.0817,-0.25612 0.18202,-0.50187 0.22287,-0.5461 0.0408,-0.0442 0.0743,-0.16582 0.0743,-0.27017 0,-0.10436 0.0329,-0.21006 0.073,-0.23489 0.0402,-0.0248 0.12152,-0.22711 0.18076,-0.4495 0.0592,-0.22239 0.15691,-0.48445 0.21705,-0.58236 0.0601,-0.0979 0.1929,-0.45986 0.29501,-0.80433 0.10212,-0.34448 0.23285,-0.70252 0.29051,-0.79565 0.0577,-0.0931 0.17101,-0.39794 0.2519,-0.67734 0.0809,-0.2794 0.18076,-0.54905 0.22196,-0.59922 0.0412,-0.0502 0.15555,-0.35497 0.25411,-0.67734 0.0986,-0.32236 0.23776,-0.71945 0.30932,-0.88244 0.0716,-0.16298 0.197081,-0.44873 0.278941,-0.635 0.0819,-0.18626 0.17184,-0.46612 0.19994,-0.6219 0.0281,-0.15577 0.13683,-0.4701 0.24161,-0.6985 l 0.19051,-0.41526 h 0.767 0.767 l 0.1957,0.61383 c 0.10764,0.33761 0.26304,0.76623 0.34533,0.9525 0.0823,0.18627 0.23419,0.60537 0.33753,0.93133 0.10335,0.32597 0.22045,0.66887 0.26022,0.762 0.31093,0.72818 0.54341,1.3405 0.6888,1.81417 0.0939,0.30608 0.19987,0.5946 0.23541,0.64117 0.0355,0.0466 0.13147,0.29421 0.21321,0.55033 0.0817,0.25612 0.18202,0.50186 0.22287,0.5461 0.0408,0.0442 0.0743,0.16044 0.0743,0.25823 0,0.0978 0.0321,0.214 0.0714,0.25824 0.0393,0.0442 0.14055,0.30903 0.22507,0.58843 0.0845,0.2794 0.20173,0.5842 0.26046,0.67733 0.0587,0.0931 0.19178,0.45509 0.29565,0.80434 0.10387,0.34925 0.24028,0.71015 0.30315,0.802 0.0629,0.0918 0.11429,0.2227 0.11429,0.29077 0,0.0681 0.0723,0.27867 0.16068,0.46799 0.0884,0.18933 0.26452,0.66324 0.39142,1.05314 0.1269,0.38989 0.28296,0.80899 0.34679,0.93133 0.0638,0.12234 0.1163,0.28183 0.11658,0.35442 2.6e-4,0.0726 0.0565,0.20594 0.12483,0.29633 0.0684,0.0904 0.12552,0.25258 0.127,0.36041 10e-4,0.10784 0.0421,0.26977 0.0903,0.35984 0.0827,0.15452 0.0552,0.16364 -0.48683,0.16158 l -0.57448,-0.002 -0.14817,-0.32189 c -0.0815,-0.17704 -0.14816,-0.38807 -0.14816,-0.46895 0,-0.13222 -0.19255,-0.6626 -0.44902,-1.23679 -0.052,-0.11642 -0.19248,-0.51647 -0.31219,-0.889 l -0.21765,-0.67734 h -3.62884 c -3.139921,0 -3.637731,0.0171 -3.694731,0.127 -0.17132,0.33025 -0.41837,0.94055 -0.41947,1.03625 -0.002,0.13063 -0.22221,0.77395 -0.33472,0.97566 -0.0451,0.0809 -0.14233,0.33759 -0.21601,0.57043 -0.28747,0.90841 -0.26782,0.889 -0.89976,0.889 h -0.56371 z m 9.030921,-4.29756 c 0.10156,-0.10157 0.0781,-0.24379 -0.1643,-0.99483 -0.15554,-0.48198 -0.33574,-0.99063 -0.40044,-1.13033 -0.0647,-0.1397 -0.2017,-0.5588 -0.30445,-0.93133 -0.10275,-0.37254 -0.21835,-0.71637 -0.25688,-0.76408 -0.0385,-0.0477 -0.13224,-0.27631 -0.20825,-0.508 -0.076,-0.23169 -0.18912,-0.53556 -0.25138,-0.67526 -0.0623,-0.1397 -0.19702,-0.53975 -0.29946,-0.889 -0.10244,-0.34925 -0.21542,-0.6731 -0.25106,-0.71966 -0.0356,-0.0466 -0.11203,-0.23123 -0.16976,-0.41036 -0.0577,-0.17912 -0.15772,-0.42677 -0.22218,-0.55033 -0.0645,-0.12356 -0.11745,-0.31171 -0.11774,-0.41813 -5.9e-4,-0.23401 -0.2339,-0.61085 -0.37813,-0.61085 -0.18126,0 -0.38069,0.29527 -0.51946,0.76909 -0.0739,0.25222 -0.16894,0.49477 -0.21128,0.53901 -0.0423,0.0442 -0.077,0.18486 -0.077,0.3125 0,0.12764 -0.0329,0.25239 -0.0731,0.27722 -0.0402,0.0248 -0.12152,0.22711 -0.18076,0.4495 -0.0592,0.22239 -0.15405,0.48055 -0.21069,0.57368 -0.0566,0.0931 -0.20292,0.50716 -0.32507,0.92005 -0.122161,0.4129 -0.256581,0.7939 -0.298711,0.84667 -0.0421,0.0528 -0.14196,0.32455 -0.22184,0.60395 -0.0799,0.2794 -0.17461,0.5461 -0.21052,0.59266 -0.0359,0.0466 -0.0868,0.17992 -0.11296,0.29634 -0.0676,0.30019 -0.37749,1.17649 -0.533,1.50715 -0.20013,0.42553 -0.25121,0.86638 -0.11069,0.95536 0.0651,0.0412 1.43954,0.0755 3.054411,0.0762 2.40476,0.001 2.95756,-0.0202 3.05463,-0.11721 z m 22.16092,-2.54849 v -7.239 h 4.572 4.572 v 0.46566 0.46567 h -4.06511 -4.06512 l 0.0223,2.89983 0.0223,2.89984 3.4925,0.0221 3.4925,0.0221 v 0.46379 0.46378 l -3.4925,0.0221 -3.4925,0.0221 -0.0223,2.83061 c -0.0174,2.20822 10e-4,2.84556 0.0847,2.89854 0.0588,0.0374 1.88817,0.0685 4.06516,0.0692 l 3.95817,0.001 v 0.46567 0.46567 h -4.572 -4.572 z M 67.136676,128.4378 v -6.94266 h 1.854168 1.854168 l 0.144867,0.65114 c 0.07968,0.35814 0.175939,0.71056 0.213916,0.78317 0.101029,0.19316 0.550712,1.72469 0.722403,2.46035 0.08151,0.34925 0.18121,0.69215 0.221559,0.762 0.0898,0.15547 0.40064,1.28683 0.465233,1.69334 0.0259,0.16298 0.07643,0.33443 0.112294,0.381 0.03587,0.0466 0.114475,0.30759 0.17469,0.58006 0.171737,0.7771 0.491186,0.76446 0.751707,-0.0297 0.08401,-0.25612 0.176557,-0.65232 0.205652,-0.88046 0.02909,-0.22813 0.08692,-0.45673 0.12851,-0.508 0.08013,-0.0988 0.209211,-0.53264 0.6071,-2.04054 0.135163,-0.51223 0.282003,-1.00753 0.326314,-1.10067 0.04431,-0.0931 0.143964,-0.43603 0.221455,-0.762 0.07749,-0.32596 0.175134,-0.63461 0.216984,-0.68587 0.04185,-0.0513 0.09822,-0.27987 0.125261,-0.508 0.09987,-0.84252 -0.01988,-0.79579 2.039693,-0.79579 h 1.806026 v 6.94266 6.94267 H 78.016343 76.70401 v -3.37049 c 0,-2.80266 -0.02056,-3.39817 -0.122041,-3.53483 -0.150198,-0.20227 -0.386405,-0.0922 -0.478048,0.2227 -0.252109,0.86637 -0.694317,2.26817 -0.759291,2.40695 -0.0436,0.0931 -0.176875,0.55034 -0.296162,1.016 -0.119286,0.46567 -0.252788,0.88286 -0.296671,0.9271 -0.04388,0.0442 -0.07979,0.14722 -0.07979,0.22885 0,0.0816 -0.04422,0.24546 -0.09826,0.36407 l -0.09826,0.21565 h -1.216173 -1.216171 l -0.08261,-0.23283 c -0.04543,-0.12806 -0.114398,-0.28999 -0.153252,-0.35984 -0.03885,-0.0699 -0.140111,-0.3937 -0.225015,-0.71966 -0.0849,-0.32597 -0.186447,-0.62887 -0.225652,-0.6731 -0.0392,-0.0442 -0.07128,-0.18487 -0.07128,-0.31251 0,-0.12764 -0.03204,-0.25187 -0.0712,-0.27607 -0.03916,-0.0242 -0.139833,-0.30268 -0.223716,-0.61883 -0.08388,-0.31616 -0.178506,-0.61293 -0.210272,-0.65949 -0.03177,-0.0466 -0.125143,-0.33232 -0.207506,-0.635 -0.198307,-0.72879 -0.243568,-0.80434 -0.481867,-0.80434 h -0.202439 l -0.02213,3.40784 -0.02213,3.40783 h -1.353706 -1.353707 z m 15.236403,6.70119 c 0.0381,-0.13281 0.15291,-0.42808 0.25514,-0.65616 0.10224,-0.22808 0.26226,-0.66234 0.35559,-0.96503 0.0933,-0.30268 0.21767,-0.62653 0.27629,-0.71966 0.0586,-0.0931 0.17427,-0.37889 0.25699,-0.635 0.0827,-0.25612 0.18382,-0.50187 0.22466,-0.5461 0.0408,-0.0442 0.0743,-0.16045 0.0743,-0.25824 0,-0.0978 0.0334,-0.21399 0.0743,-0.25823 0.0408,-0.0442 0.14113,-0.28998 0.22287,-0.5461 0.0817,-0.25612 0.17822,-0.50377 0.21442,-0.55033 0.0362,-0.0466 0.15041,-0.35137 0.25382,-0.67734 0.16711,-0.52675 0.47431,-1.28678 0.66845,-1.65378 0.0378,-0.0714 0.0965,-0.25632 0.13041,-0.41099 0.0586,-0.2669 0.20649,-0.6451 0.54994,-1.40656 0.084,-0.18627 0.21359,-0.54359 0.28796,-0.79406 0.0744,-0.25046 0.16596,-0.49811 0.20355,-0.55033 0.0376,-0.0522 0.119,-0.24734 0.18093,-0.43361 0.0619,-0.18627 0.19747,-0.52917 0.30121,-0.762 0.10375,-0.23283 0.2159,-0.53763 0.24924,-0.67733 0.0333,-0.1397 0.15511,-0.4553 0.27059,-0.70133 l 0.20999,-0.44733 0.89475,0.024 0.89476,0.024 0.20882,0.55033 c 0.11486,0.30269 0.31984,0.86997 0.45552,1.26063 0.13568,0.39066 0.28001,0.75261 0.32073,0.80433 0.0407,0.0517 0.14092,0.30359 0.22265,0.55971 0.0817,0.25612 0.18203,0.50186 0.22287,0.5461 0.0408,0.0442 0.0743,0.14953 0.0743,0.23398 0,0.0845 0.0367,0.21971 0.0814,0.30057 0.12521,0.22604 0.50797,1.19307 0.68194,1.7229 0.15238,0.46408 0.47969,1.28898 0.72358,1.82358 0.0669,0.14673 0.12171,0.32687 0.12171,0.40031 0,0.0734 0.12834,0.41057 0.28519,0.7492 0.15685,0.33863 0.37147,0.88239 0.47693,1.20836 0.10547,0.32597 0.21982,0.63077 0.25412,0.67733 0.0343,0.0466 0.11016,0.23707 0.16858,0.42334 0.0584,0.18626 0.19154,0.52916 0.29583,0.762 0.10429,0.23283 0.25246,0.64046 0.32927,0.90585 0.0768,0.26539 0.17724,0.50576 0.2232,0.53417 0.046,0.0284 0.0836,0.12559 0.0836,0.21597 0,0.1567 -0.0722,0.16434 -1.554,0.16434 h -1.554 l -0.19199,-0.65617 c -0.10559,-0.36089 -0.28208,-0.85619 -0.39219,-1.10066 l -0.2002,-0.4445 h -2.19555 c -1.20756,0 -2.25537,0.0229 -2.32848,0.051 -0.0753,0.0289 -0.21054,0.31315 -0.31209,0.65617 -0.0985,0.33284 -0.20663,0.64326 -0.24018,0.68983 -0.0336,0.0466 -0.10731,0.24659 -0.1639,0.4445 l -0.10289,0.35983 h -1.55702 -1.55702 z m 7.21507,-5.21851 c -0.0151,-0.23227 -0.059,-0.46087 -0.0975,-0.508 -0.0385,-0.0471 -0.11558,-0.25713 -0.17126,-0.46668 -0.0557,-0.20955 -0.16979,-0.5334 -0.25359,-0.71966 -0.0838,-0.18627 -0.20158,-0.50456 -0.26175,-0.70732 -0.0602,-0.20275 -0.16421,-0.38968 -0.23119,-0.41538 -0.14053,-0.0539 -0.40473,0.2589 -0.4834,0.57236 -0.0292,0.11642 -0.10476,0.32597 -0.16788,0.46567 -0.28287,0.62606 -0.6358,1.94955 -0.57073,2.14023 0.028,0.0822 0.30533,0.10256 1.1509,0.0847 l 1.11398,-0.0236 z m 8.28253,-1.48268 v -6.94266 h 1.48166 1.481671 v 2.794 2.794 l 0.23283,-0.002 c 0.23383,-0.002 0.26855,-0.0435 0.9525,-1.14404 0.0699,-0.1124 0.26363,-0.40541 0.43061,-0.65113 0.89426,-1.31593 1.15119,-1.70407 1.30506,-1.97153 0.0931,-0.16189 0.26825,-0.4375 0.38916,-0.61246 0.1209,-0.17496 0.34395,-0.51814 0.49566,-0.76261 l 0.27583,-0.4445 h 1.81151 c 0.99633,0 1.81151,0.0225 1.81151,0.0501 0,0.0456 -0.25049,0.39775 -1.39261,1.9581 -0.21197,0.28959 -0.38539,0.56115 -0.38539,0.60347 0,0.0423 -0.0623,0.12868 -0.13852,0.19191 -0.13118,0.10887 -0.23195,0.24742 -0.76281,1.04878 -0.12339,0.18627 -0.33434,0.47202 -0.46879,0.635 -0.88931,1.0781 -0.98221,1.36253 -0.61955,1.89694 0.11642,0.17155 0.21167,0.3453 0.21167,0.38611 0,0.0408 0.19228,0.38422 0.42729,0.76313 0.235,0.37892 0.46,0.77498 0.49998,0.88014 0.064,0.16841 0.39092,0.7038 0.57516,0.94201 0.036,0.0466 0.19422,0.33232 0.35156,0.635 0.15734,0.30269 0.37606,0.67162 0.48604,0.81985 0.10998,0.14824 0.19997,0.32696 0.19997,0.39717 0,0.0702 0.0388,0.15165 0.0863,0.18098 0.0474,0.0293 0.18296,0.2316 0.30113,0.44949 0.11817,0.2179 0.34458,0.62478 0.50315,0.90418 0.15857,0.2794 0.36714,0.65167 0.46349,0.82726 l 0.17519,0.31926 -1.71711,-0.0229 -1.71712,-0.0229 -0.21167,-0.38807 c -0.11642,-0.21343 -0.30251,-0.55633 -0.41354,-0.762 -0.11103,-0.20566 -0.22994,-0.39298 -0.26425,-0.41627 -0.0343,-0.0233 -0.1837,-0.27093 -0.33199,-0.55033 -0.36714,-0.69175 -0.76407,-1.38928 -1.04265,-1.83227 -0.12765,-0.20298 -0.31619,-0.55004 -0.41897,-0.77123 -0.15312,-0.32952 -0.22684,-0.40217 -0.40815,-0.40217 -0.22904,0 -0.37368,0.15233 -0.88812,0.93534 -0.1397,0.21264 -0.37782,0.54233 -0.52916,0.73265 l -0.27517,0.34605 v 1.57531 1.57532 h -1.481671 -1.48166 z m 14.308661,0 v -6.94266 h 4.65667 4.65667 v 1.43933 1.43933 h -3.17202 c -3.04944,0 -3.17541,0.006 -3.25967,0.16377 -0.1111,0.20758 -0.11509,2.03903 -0.005,2.32839 l 0.0826,0.21718 h 2.66909 2.6691 v 1.43933 1.43933 h -2.6691 -2.66909 l -0.0826,0.21718 c -0.10991,0.28907 -0.106,1.95151 0.005,2.15905 0.0843,0.15744 0.21023,0.16377 3.25967,0.16377 h 3.17202 v 1.43934 1.43933 h -4.65667 -4.65667 z m 13.12334,-0.007 v -6.94923 l 3.4925,0.0284 3.4925,0.0284 0.67733,0.32424 c 0.75317,0.36054 1.51469,1.07961 1.82996,1.72796 0.57106,1.17437 0.55314,3.26887 -0.0375,4.37832 -0.31901,0.59926 -0.89375,1.2054 -1.37278,1.44776 -0.50765,0.25685 -0.59624,0.39066 -0.44145,0.66678 0.0585,0.10441 0.22999,0.43072 0.38105,0.72515 0.15105,0.29443 0.32576,0.59574 0.38825,0.66957 0.0625,0.0738 0.18798,0.28665 0.2789,0.47292 0.1457,0.29851 0.32547,0.61012 0.68565,1.18854 0.0569,0.0914 0.20148,0.35363 0.3213,0.5828 0.11982,0.22917 0.32411,0.57412 0.45398,0.76656 0.12988,0.19244 0.27859,0.47166 0.33047,0.62049 l 0.0943,0.27061 h -1.64659 c -1.89517,0 -1.78556,0.0421 -2.22896,-0.85622 -0.14682,-0.29743 -0.36194,-0.69318 -0.47805,-0.87945 -0.11611,-0.18627 -0.34465,-0.58632 -0.50786,-0.889 -0.85634,-1.58811 -1.47827,-2.65095 -1.59701,-2.7292 -0.0519,-0.0342 -0.31212,-0.0628 -0.57824,-0.0635 -0.39253,-0.001 -0.5004,0.0296 -0.5715,0.16247 -0.0548,0.10247 -0.0876,1.11652 -0.0876,2.70933 v 2.54557 h -1.43933 -1.43933 z m 6.54894,-1.52186 c 0.29333,-0.3166 0.42203,-0.78949 0.37025,-1.36045 -0.0509,-0.56094 -0.3063,-1.04561 -0.59132,-1.12201 -0.10425,-0.0279 -0.89947,-0.0513 -1.76717,-0.052 -1.56493,-0.001 -1.57803,3.4e-4 -1.62867,0.18934 -0.0882,0.32893 -0.0583,2.26678 0.0377,2.44613 0.0872,0.16298 0.16038,0.169 1.73502,0.1426 1.63802,-0.0275 1.64469,-0.0283 1.84419,-0.24366 z"
       id="path181" /></g></svg>
