<?xml version="1.0" encoding="UTF-8" standalone="no"?>
<svg
   width="270pt"
   height="270pt"
   viewBox="0 0 270 270"
   version="1.1"
   id="svg67160"
   sodipodi:docname="qrcode.svg"
   inkscape:version="1.2 (dc2aedaf03, 2022-05-15)"
   xmlns:inkscape="http://www.inkscape.org/namespaces/inkscape"
   xmlns:sodipodi="http://sodipodi.sourceforge.net/DTD/sodipodi-0.dtd"
   xmlns="http://www.w3.org/2000/svg"
   xmlns:svg="http://www.w3.org/2000/svg">
  <defs
     id="defs67164" />
  <sodipodi:namedview
     id="namedview67162"
     pagecolor="#505050"
     bordercolor="#eeeeee"
     borderopacity="1"
     inkscape:showpageshadow="0"
     inkscape:pageopacity="0"
     inkscape:pagecheckerboard="0"
     inkscape:deskcolor="#505050"
     inkscape:document-units="pt"
     showgrid="false"
     inkscape:zoom="1.3111111"
     inkscape:cx="329.11017"
     inkscape:cy="137.66949"
     inkscape:window-width="1914"
     inkscape:window-height="1038"
     inkscape:window-x="0"
     inkscape:window-y="18"
     inkscape:window-maximized="1"
     inkscape:current-layer="svg67160" />
  <g
     id="surface17"
     style="stroke:none">
    <path
       style="stroke:none;fill-rule:evenodd;fill:#ffffff;fill-opacity:1"
       d="M 60.382812 60.164062 L 5.398438 60.164062 L 5.398438 68.019531 L 44.671875 68.019531 L 44.671875 75.875 L 21.109375 75.875 L 21.109375 91.585938 L 13.253906 91.585938 L 13.253906 107.292969 L 21.109375 107.292969 L 21.109375 115.148438 L 5.398438 115.148438 L 5.398438 138.710938 L 21.109375 138.710938 L 21.109375 130.855469 L 13.253906 130.855469 L 13.253906 123.003906 L 21.109375 123.003906 L 21.109375 115.148438 L 28.964844 115.148438 L 28.964844 99.4375 L 21.109375 99.4375 L 21.109375 91.585938 L 36.816406 91.585938 L 36.816406 83.730469 L 44.671875 83.730469 L 44.671875 91.585938 L 52.527344 91.585938 L 52.527344 99.4375 L 44.671875 99.4375 L 44.671875 115.148438 L 36.816406 115.148438 L 36.816406 123.003906 L 52.527344 123.003906 L 52.527344 130.855469 L 68.238281 130.855469 L 68.238281 138.710938 L 83.945312 138.710938 L 83.945312 130.855469 L 76.089844 130.855469 L 76.089844 123.003906 L 91.800781 123.003906 L 91.800781 130.855469 L 115.363281 130.855469 L 115.363281 115.148438 L 131.074219 115.148438 L 131.074219 107.292969 L 138.925781 107.292969 L 138.925781 123.003906 L 131.074219 123.003906 L 131.074219 138.710938 L 123.21875 138.710938 L 123.21875 146.566406 L 115.363281 146.566406 L 115.363281 138.710938 L 107.507812 138.710938 L 107.507812 146.566406 L 115.363281 146.566406 L 115.363281 154.421875 L 107.507812 154.421875 L 107.507812 162.273438 L 115.363281 162.273438 L 115.363281 177.984375 L 131.074219 177.984375 L 131.074219 170.128906 L 138.925781 170.128906 L 138.925781 177.984375 L 154.636719 177.984375 L 154.636719 185.839844 L 138.925781 185.839844 L 138.925781 193.691406 L 131.074219 193.691406 L 131.074219 185.839844 L 123.21875 185.839844 L 123.21875 201.546875 L 99.65625 201.546875 L 99.65625 185.839844 L 107.507812 185.839844 L 107.507812 193.691406 L 115.363281 193.691406 L 115.363281 185.839844 L 107.507812 185.839844 L 107.507812 170.128906 L 99.65625 170.128906 L 99.65625 162.273438 L 91.800781 162.273438 L 91.800781 154.421875 L 99.65625 154.421875 L 99.65625 146.566406 L 91.800781 146.566406 L 91.800781 154.421875 L 83.945312 154.421875 L 83.945312 146.566406 L 76.089844 146.566406 L 76.089844 154.421875 L 83.945312 154.421875 L 83.945312 177.984375 L 76.089844 177.984375 L 76.089844 170.128906 L 52.527344 170.128906 L 52.527344 177.984375 L 60.382812 177.984375 L 60.382812 185.839844 L 52.527344 185.839844 L 52.527344 193.691406 L 60.382812 193.691406 L 60.382812 201.546875 L 36.816406 201.546875 L 36.816406 193.691406 L 44.671875 193.691406 L 44.671875 162.273438 L 60.382812 162.273438 L 60.382812 154.421875 L 52.527344 154.421875 L 52.527344 146.566406 L 60.382812 146.566406 L 60.382812 138.710938 L 52.527344 138.710938 L 52.527344 146.566406 L 44.671875 146.566406 L 44.671875 162.273438 L 36.816406 162.273438 L 36.816406 177.984375 L 28.964844 177.984375 L 28.964844 170.128906 L 21.109375 170.128906 L 21.109375 162.273438 L 28.964844 162.273438 L 28.964844 154.421875 L 36.816406 154.421875 L 36.816406 130.855469 L 28.964844 130.855469 L 28.964844 146.566406 L 21.109375 146.566406 L 21.109375 154.421875 L 13.253906 154.421875 L 13.253906 201.546875 L 5.398438 201.546875 L 5.398438 209.402344 L 60.382812 209.402344 L 60.382812 264.382812 L 68.238281 264.382812 L 68.238281 225.109375 L 76.089844 225.109375 L 76.089844 240.820312 L 83.945312 240.820312 L 83.945312 225.109375 L 76.089844 225.109375 L 76.089844 217.257812 L 68.238281 217.257812 L 68.238281 193.691406 L 76.089844 193.691406 L 76.089844 201.546875 L 83.945312 201.546875 L 83.945312 209.402344 L 91.800781 209.402344 L 91.800781 217.257812 L 99.65625 217.257812 L 99.65625 225.109375 L 91.800781 225.109375 L 91.800781 232.964844 L 99.65625 232.964844 L 99.65625 240.820312 L 91.800781 240.820312 L 91.800781 248.675781 L 76.089844 248.675781 L 76.089844 256.53125 L 83.945312 256.53125 L 83.945312 264.382812 L 99.65625 264.382812 L 99.65625 256.53125 L 115.363281 256.53125 L 115.363281 248.675781 L 123.21875 248.675781 L 123.21875 256.53125 L 131.074219 256.53125 L 131.074219 264.382812 L 138.925781 264.382812 L 138.925781 256.53125 L 146.78125 256.53125 L 146.78125 264.382812 L 154.636719 264.382812 L 154.636719 248.675781 L 170.34375 248.675781 L 170.34375 240.820312 L 178.199219 240.820312 L 178.199219 248.675781 L 186.054688 248.675781 L 186.054688 256.53125 L 201.761719 256.53125 L 201.761719 232.964844 L 193.910156 232.964844 L 193.910156 225.109375 L 186.054688 225.109375 L 186.054688 232.964844 L 178.199219 232.964844 L 178.199219 225.109375 L 162.492188 225.109375 L 162.492188 209.402344 L 154.636719 209.402344 L 154.636719 201.546875 L 178.199219 201.546875 L 178.199219 209.402344 L 170.34375 209.402344 L 170.34375 217.257812 L 178.199219 217.257812 L 178.199219 209.402344 L 186.054688 209.402344 L 186.054688 201.546875 L 193.910156 201.546875 L 193.910156 193.691406 L 186.054688 193.691406 L 186.054688 185.839844 L 201.761719 185.839844 L 201.761719 193.691406 L 209.617188 193.691406 L 209.617188 185.839844 L 201.761719 185.839844 L 201.761719 177.984375 L 209.617188 177.984375 L 209.617188 170.128906 L 217.472656 170.128906 L 217.472656 177.984375 L 233.183594 177.984375 L 233.183594 170.128906 L 241.035156 170.128906 L 241.035156 185.839844 L 248.890625 185.839844 L 248.890625 193.691406 L 241.035156 193.691406 L 241.035156 201.546875 L 248.890625 201.546875 L 248.890625 209.402344 L 241.035156 209.402344 L 241.035156 217.257812 L 248.890625 217.257812 L 248.890625 225.109375 L 241.035156 225.109375 L 241.035156 232.964844 L 248.890625 232.964844 L 248.890625 240.820312 L 241.035156 240.820312 L 241.035156 248.675781 L 248.890625 248.675781 L 248.890625 256.53125 L 241.035156 256.53125 L 241.035156 264.382812 L 248.890625 264.382812 L 248.890625 256.53125 L 256.746094 256.53125 L 256.746094 264.382812 L 264.601562 264.382812 L 264.601562 232.964844 L 248.890625 232.964844 L 248.890625 225.109375 L 264.601562 225.109375 L 264.601562 209.402344 L 256.746094 209.402344 L 256.746094 193.691406 L 264.601562 193.691406 L 264.601562 177.984375 L 256.746094 177.984375 L 256.746094 185.839844 L 248.890625 185.839844 L 248.890625 162.273438 L 256.746094 162.273438 L 256.746094 170.128906 L 264.601562 170.128906 L 264.601562 146.566406 L 256.746094 146.566406 L 256.746094 154.421875 L 248.890625 154.421875 L 248.890625 130.855469 L 256.746094 130.855469 L 256.746094 138.710938 L 264.601562 138.710938 L 264.601562 115.148438 L 256.746094 115.148438 L 256.746094 123.003906 L 248.890625 123.003906 L 248.890625 107.292969 L 264.601562 107.292969 L 264.601562 83.730469 L 256.746094 83.730469 L 256.746094 91.585938 L 248.890625 91.585938 L 248.890625 83.730469 L 241.035156 83.730469 L 241.035156 75.875 L 248.890625 75.875 L 248.890625 68.019531 L 256.746094 68.019531 L 256.746094 75.875 L 264.601562 75.875 L 264.601562 60.164062 L 209.617188 60.164062 L 209.617188 5.183594 L 201.761719 5.183594 L 201.761719 13.039062 L 186.054688 13.039062 L 186.054688 5.183594 L 170.34375 5.183594 L 170.34375 20.894531 L 178.199219 20.894531 L 178.199219 28.746094 L 162.492188 28.746094 L 162.492188 13.039062 L 131.074219 13.039062 L 131.074219 5.183594 L 115.363281 5.183594 L 115.363281 13.039062 L 107.507812 13.039062 L 107.507812 28.746094 L 115.363281 28.746094 L 115.363281 20.894531 L 123.21875 20.894531 L 123.21875 13.039062 L 131.074219 13.039062 L 131.074219 20.894531 L 138.925781 20.894531 L 138.925781 28.746094 L 123.21875 28.746094 L 123.21875 44.457031 L 131.074219 44.457031 L 131.074219 36.601562 L 138.925781 36.601562 L 138.925781 60.164062 L 131.074219 60.164062 L 131.074219 52.3125 L 123.21875 52.3125 L 123.21875 60.164062 L 115.363281 60.164062 L 115.363281 36.601562 L 99.65625 36.601562 L 99.65625 28.746094 L 83.945312 28.746094 L 83.945312 36.601562 L 68.238281 36.601562 L 68.238281 28.746094 L 76.089844 28.746094 L 76.089844 20.894531 L 83.945312 20.894531 L 83.945312 13.039062 L 91.800781 13.039062 L 91.800781 20.894531 L 99.65625 20.894531 L 99.65625 13.039062 L 91.800781 13.039062 L 91.800781 5.183594 L 60.382812 5.183594 Z M 21.109375 193.691406 L 36.816406 193.691406 L 36.816406 185.839844 L 21.109375 185.839844 Z M 68.238281 107.292969 L 60.382812 107.292969 L 60.382812 99.4375 L 52.527344 99.4375 L 52.527344 107.292969 L 60.382812 107.292969 L 60.382812 115.148438 L 68.238281 115.148438 L 68.238281 123.003906 L 76.089844 123.003906 L 76.089844 107.292969 L 83.945312 107.292969 L 83.945312 99.4375 L 91.800781 99.4375 L 91.800781 91.585938 L 83.945312 91.585938 L 83.945312 75.875 L 91.800781 75.875 L 91.800781 68.019531 L 52.527344 68.019531 L 52.527344 75.875 L 68.238281 75.875 L 68.238281 83.730469 L 52.527344 83.730469 L 52.527344 91.585938 L 60.382812 91.585938 L 60.382812 99.4375 L 68.238281 99.4375 Z M 52.527344 123.003906 L 60.382812 123.003906 L 60.382812 115.148438 L 52.527344 115.148438 Z M 68.238281 20.894531 L 76.089844 20.894531 L 76.089844 13.039062 L 68.238281 13.039062 Z M 68.238281 60.164062 L 76.089844 60.164062 L 76.089844 44.457031 L 68.238281 44.457031 Z M 68.238281 185.839844 L 76.089844 185.839844 L 76.089844 177.984375 L 68.238281 177.984375 Z M 83.945312 60.164062 L 91.800781 60.164062 L 91.800781 44.457031 L 83.945312 44.457031 Z M 83.945312 185.839844 L 91.800781 185.839844 L 91.800781 177.984375 L 83.945312 177.984375 Z M 99.65625 201.546875 L 91.800781 201.546875 L 91.800781 193.691406 L 83.945312 193.691406 L 83.945312 201.546875 L 91.800781 201.546875 L 91.800781 209.402344 L 99.65625 209.402344 Z M 91.800781 44.457031 L 99.65625 44.457031 L 99.65625 36.601562 L 91.800781 36.601562 Z M 107.507812 83.730469 L 99.65625 83.730469 L 99.65625 75.875 L 91.800781 75.875 L 91.800781 83.730469 L 99.65625 83.730469 L 99.65625 91.585938 L 107.507812 91.585938 Z M 83.945312 115.148438 L 99.65625 115.148438 L 99.65625 107.292969 L 131.074219 107.292969 L 131.074219 99.4375 L 123.21875 99.4375 L 123.21875 91.585938 L 115.363281 91.585938 L 115.363281 99.4375 L 91.800781 99.4375 L 91.800781 107.292969 L 83.945312 107.292969 Z M 91.800781 177.984375 L 99.65625 177.984375 L 99.65625 170.128906 L 91.800781 170.128906 Z M 91.800781 256.53125 L 99.65625 256.53125 L 99.65625 248.675781 L 91.800781 248.675781 Z M 123.21875 68.019531 L 107.507812 68.019531 L 107.507812 52.3125 L 99.65625 52.3125 L 99.65625 75.875 L 107.507812 75.875 L 107.507812 83.730469 L 115.363281 83.730469 L 115.363281 75.875 L 123.21875 75.875 Z M 99.65625 217.257812 L 107.507812 217.257812 L 107.507812 209.402344 L 99.65625 209.402344 Z M 107.507812 240.820312 L 115.363281 240.820312 L 115.363281 232.964844 L 131.074219 232.964844 L 131.074219 225.109375 L 138.925781 225.109375 L 138.925781 209.402344 L 115.363281 209.402344 L 115.363281 217.257812 L 123.21875 217.257812 L 123.21875 225.109375 L 99.65625 225.109375 L 99.65625 232.964844 L 107.507812 232.964844 Z M 131.074219 162.273438 L 123.21875 162.273438 L 123.21875 154.421875 L 115.363281 154.421875 L 115.363281 162.273438 L 123.21875 162.273438 L 123.21875 170.128906 L 131.074219 170.128906 Z M 123.21875 68.019531 L 131.074219 68.019531 L 131.074219 60.164062 L 123.21875 60.164062 Z M 138.925781 154.421875 L 131.074219 154.421875 L 131.074219 146.566406 L 123.21875 146.566406 L 123.21875 154.421875 L 131.074219 154.421875 L 131.074219 162.273438 L 138.925781 162.273438 Z M 154.636719 146.566406 L 138.925781 146.566406 L 138.925781 138.710938 L 131.074219 138.710938 L 131.074219 146.566406 L 138.925781 146.566406 L 138.925781 154.421875 L 146.78125 154.421875 L 146.78125 162.273438 L 162.492188 162.273438 L 162.492188 154.421875 L 154.636719 154.421875 Z M 123.21875 248.675781 L 138.925781 248.675781 L 138.925781 232.964844 L 131.074219 232.964844 L 131.074219 240.820312 L 123.21875 240.820312 Z M 154.636719 36.601562 L 146.78125 36.601562 L 146.78125 28.746094 L 138.925781 28.746094 L 138.925781 36.601562 L 146.78125 36.601562 L 146.78125 60.164062 L 154.636719 60.164062 L 154.636719 44.457031 L 162.492188 44.457031 L 162.492188 28.746094 L 154.636719 28.746094 Z M 178.199219 75.875 L 146.78125 75.875 L 146.78125 68.019531 L 138.925781 68.019531 L 138.925781 75.875 L 131.074219 75.875 L 131.074219 83.730469 L 123.21875 83.730469 L 123.21875 91.585938 L 154.636719 91.585938 L 154.636719 83.730469 L 170.34375 83.730469 L 170.34375 91.585938 L 154.636719 91.585938 L 154.636719 107.292969 L 146.78125 107.292969 L 146.78125 115.148438 L 162.492188 115.148438 L 162.492188 123.003906 L 170.34375 123.003906 L 170.34375 107.292969 L 162.492188 107.292969 L 162.492188 99.4375 L 186.054688 99.4375 L 186.054688 83.730469 L 193.910156 83.730469 L 193.910156 75.875 L 186.054688 75.875 L 186.054688 52.3125 L 178.199219 52.3125 L 178.199219 60.164062 L 170.34375 60.164062 L 170.34375 52.3125 L 178.199219 52.3125 L 178.199219 36.601562 L 170.34375 36.601562 L 170.34375 44.457031 L 162.492188 44.457031 L 162.492188 60.164062 L 154.636719 60.164062 L 154.636719 68.019531 L 178.199219 68.019531 Z M 138.925781 107.292969 L 146.78125 107.292969 L 146.78125 99.4375 L 138.925781 99.4375 Z M 138.925781 138.710938 L 146.78125 138.710938 L 146.78125 130.855469 L 138.925781 130.855469 Z M 138.925781 170.128906 L 146.78125 170.128906 L 146.78125 162.273438 L 138.925781 162.273438 Z M 138.925781 201.546875 L 146.78125 201.546875 L 146.78125 193.691406 L 138.925781 193.691406 Z M 170.34375 232.964844 L 146.78125 232.964844 L 146.78125 225.109375 L 138.925781 225.109375 L 138.925781 232.964844 L 146.78125 232.964844 L 146.78125 248.675781 L 154.636719 248.675781 L 154.636719 240.820312 L 170.34375 240.820312 Z M 146.78125 225.109375 L 154.636719 225.109375 L 154.636719 209.402344 L 146.78125 209.402344 Z M 178.199219 138.710938 L 162.492188 138.710938 L 162.492188 130.855469 L 154.636719 130.855469 L 154.636719 146.566406 L 170.34375 146.566406 L 170.34375 162.273438 L 178.199219 162.273438 L 178.199219 170.128906 L 186.054688 170.128906 L 186.054688 162.273438 L 193.910156 162.273438 L 193.910156 154.421875 L 186.054688 154.421875 L 186.054688 146.566406 L 178.199219 146.566406 Z M 178.199219 185.839844 L 170.34375 185.839844 L 170.34375 162.273438 L 162.492188 162.273438 L 162.492188 170.128906 L 154.636719 170.128906 L 154.636719 177.984375 L 162.492188 177.984375 L 162.492188 193.691406 L 178.199219 193.691406 Z M 178.199219 20.894531 L 186.054688 20.894531 L 186.054688 13.039062 L 178.199219 13.039062 Z M 193.910156 36.601562 L 186.054688 36.601562 L 186.054688 28.746094 L 178.199219 28.746094 L 178.199219 36.601562 L 186.054688 36.601562 L 186.054688 44.457031 L 193.910156 44.457031 Z M 193.910156 123.003906 L 186.054688 123.003906 L 186.054688 115.148438 L 178.199219 115.148438 L 178.199219 123.003906 L 170.34375 123.003906 L 170.34375 130.855469 L 178.199219 130.855469 L 178.199219 138.710938 L 186.054688 138.710938 L 186.054688 146.566406 L 201.761719 146.566406 L 201.761719 138.710938 L 209.617188 138.710938 L 209.617188 130.855469 L 193.910156 130.855469 Z M 178.199219 185.839844 L 186.054688 185.839844 L 186.054688 177.984375 L 178.199219 177.984375 Z M 178.199219 201.546875 L 186.054688 201.546875 L 186.054688 193.691406 L 178.199219 193.691406 Z M 209.617188 115.148438 L 193.910156 115.148438 L 193.910156 107.292969 L 186.054688 107.292969 L 186.054688 115.148438 L 193.910156 115.148438 L 193.910156 123.003906 L 209.617188 123.003906 L 209.617188 130.855469 L 217.472656 130.855469 L 217.472656 138.710938 L 233.183594 138.710938 L 233.183594 130.855469 L 225.328125 130.855469 L 225.328125 123.003906 L 217.472656 123.003906 L 217.472656 107.292969 L 209.617188 107.292969 Z M 186.054688 177.984375 L 193.910156 177.984375 L 193.910156 170.128906 L 186.054688 170.128906 Z M 186.054688 248.675781 L 193.910156 248.675781 L 193.910156 240.820312 L 186.054688 240.820312 Z M 193.910156 60.164062 L 201.761719 60.164062 L 201.761719 44.457031 L 193.910156 44.457031 Z M 217.472656 75.875 L 209.617188 75.875 L 209.617188 68.019531 L 193.910156 68.019531 L 193.910156 75.875 L 209.617188 75.875 L 209.617188 91.585938 L 217.472656 91.585938 Z M 193.910156 107.292969 L 209.617188 107.292969 L 209.617188 91.585938 L 201.761719 91.585938 L 201.761719 99.4375 L 193.910156 99.4375 Z M 217.472656 154.421875 L 209.617188 154.421875 L 209.617188 146.566406 L 201.761719 146.566406 L 201.761719 162.273438 L 217.472656 162.273438 Z M 209.617188 146.566406 L 217.472656 146.566406 L 217.472656 138.710938 L 209.617188 138.710938 Z M 217.472656 75.875 L 225.328125 75.875 L 225.328125 68.019531 L 217.472656 68.019531 Z M 241.035156 99.4375 L 233.183594 99.4375 L 233.183594 91.585938 L 241.035156 91.585938 L 241.035156 83.730469 L 225.328125 83.730469 L 225.328125 91.585938 L 217.472656 91.585938 L 217.472656 107.292969 L 241.035156 107.292969 Z M 217.472656 170.128906 L 233.183594 170.128906 L 233.183594 154.421875 L 225.328125 154.421875 L 225.328125 162.273438 L 217.472656 162.273438 Z M 233.183594 75.875 L 241.035156 75.875 L 241.035156 68.019531 L 233.183594 68.019531 Z M 248.890625 154.421875 L 241.035156 154.421875 L 241.035156 138.710938 L 233.183594 138.710938 L 233.183594 154.421875 L 241.035156 154.421875 L 241.035156 162.273438 L 248.890625 162.273438 Z M 241.035156 99.4375 L 248.890625 99.4375 L 248.890625 91.585938 L 241.035156 91.585938 Z M 241.035156 130.855469 L 248.890625 130.855469 L 248.890625 123.003906 L 241.035156 123.003906 Z M 248.890625 217.257812 L 256.746094 217.257812 L 256.746094 209.402344 L 248.890625 209.402344 Z M 248.890625 248.675781 L 256.746094 248.675781 L 256.746094 240.820312 L 248.890625 240.820312 Z M 248.890625 248.675781 "
       id="path67007" />
    <path
       style="fill:none;stroke-width:0.75;stroke-linecap:square;stroke-linejoin:miter;stroke:none;stroke-opacity:1;stroke-miterlimit:3.25"
       d="M 60.382812 60.164062 L 5.398438 60.164062 L 5.398438 68.019531 L 44.671875 68.019531 L 44.671875 75.875 L 21.109375 75.875 L 21.109375 91.585938 L 13.253906 91.585938 L 13.253906 107.292969 L 21.109375 107.292969 L 21.109375 115.148438 L 5.398438 115.148438 L 5.398438 138.710938 L 21.109375 138.710938 L 21.109375 130.855469 L 13.253906 130.855469 L 13.253906 123.003906 L 21.109375 123.003906 L 21.109375 115.148438 L 28.964844 115.148438 L 28.964844 99.4375 L 21.109375 99.4375 L 21.109375 91.585938 L 36.816406 91.585938 L 36.816406 83.730469 L 44.671875 83.730469 L 44.671875 91.585938 L 52.527344 91.585938 L 52.527344 99.4375 L 44.671875 99.4375 L 44.671875 115.148438 L 36.816406 115.148438 L 36.816406 123.003906 L 52.527344 123.003906 L 52.527344 130.855469 L 68.238281 130.855469 L 68.238281 138.710938 L 83.945312 138.710938 L 83.945312 130.855469 L 76.089844 130.855469 L 76.089844 123.003906 L 91.800781 123.003906 L 91.800781 130.855469 L 115.363281 130.855469 L 115.363281 115.148438 L 131.074219 115.148438 L 131.074219 107.292969 L 138.925781 107.292969 L 138.925781 123.003906 L 131.074219 123.003906 L 131.074219 138.710938 L 123.21875 138.710938 L 123.21875 146.566406 L 115.363281 146.566406 L 115.363281 138.710938 L 107.507812 138.710938 L 107.507812 146.566406 L 115.363281 146.566406 L 115.363281 154.421875 L 107.507812 154.421875 L 107.507812 162.273438 L 115.363281 162.273438 L 115.363281 177.984375 L 131.074219 177.984375 L 131.074219 170.128906 L 138.925781 170.128906 L 138.925781 177.984375 L 154.636719 177.984375 L 154.636719 185.839844 L 138.925781 185.839844 L 138.925781 193.691406 L 131.074219 193.691406 L 131.074219 185.839844 L 123.21875 185.839844 L 123.21875 201.546875 L 99.65625 201.546875 L 99.65625 185.839844 L 107.507812 185.839844 L 107.507812 193.691406 L 115.363281 193.691406 L 115.363281 185.839844 L 107.507812 185.839844 L 107.507812 170.128906 L 99.65625 170.128906 L 99.65625 162.273438 L 91.800781 162.273438 L 91.800781 154.421875 L 99.65625 154.421875 L 99.65625 146.566406 L 91.800781 146.566406 L 91.800781 154.421875 L 83.945312 154.421875 L 83.945312 146.566406 L 76.089844 146.566406 L 76.089844 154.421875 L 83.945312 154.421875 L 83.945312 177.984375 L 76.089844 177.984375 L 76.089844 170.128906 L 52.527344 170.128906 L 52.527344 177.984375 L 60.382812 177.984375 L 60.382812 185.839844 L 52.527344 185.839844 L 52.527344 193.691406 L 60.382812 193.691406 L 60.382812 201.546875 L 36.816406 201.546875 L 36.816406 193.691406 L 44.671875 193.691406 L 44.671875 162.273438 L 60.382812 162.273438 L 60.382812 154.421875 L 52.527344 154.421875 L 52.527344 146.566406 L 60.382812 146.566406 L 60.382812 138.710938 L 52.527344 138.710938 L 52.527344 146.566406 L 44.671875 146.566406 L 44.671875 162.273438 L 36.816406 162.273438 L 36.816406 177.984375 L 28.964844 177.984375 L 28.964844 170.128906 L 21.109375 170.128906 L 21.109375 162.273438 L 28.964844 162.273438 L 28.964844 154.421875 L 36.816406 154.421875 L 36.816406 130.855469 L 28.964844 130.855469 L 28.964844 146.566406 L 21.109375 146.566406 L 21.109375 154.421875 L 13.253906 154.421875 L 13.253906 201.546875 L 5.398438 201.546875 L 5.398438 209.402344 L 60.382812 209.402344 L 60.382812 264.382812 L 68.238281 264.382812 L 68.238281 225.109375 L 76.089844 225.109375 L 76.089844 240.820312 L 83.945312 240.820312 L 83.945312 225.109375 L 76.089844 225.109375 L 76.089844 217.257812 L 68.238281 217.257812 L 68.238281 193.691406 L 76.089844 193.691406 L 76.089844 201.546875 L 83.945312 201.546875 L 83.945312 209.402344 L 91.800781 209.402344 L 91.800781 217.257812 L 99.65625 217.257812 L 99.65625 225.109375 L 91.800781 225.109375 L 91.800781 232.964844 L 99.65625 232.964844 L 99.65625 240.820312 L 91.800781 240.820312 L 91.800781 248.675781 L 76.089844 248.675781 L 76.089844 256.53125 L 83.945312 256.53125 L 83.945312 264.382812 L 99.65625 264.382812 L 99.65625 256.53125 L 115.363281 256.53125 L 115.363281 248.675781 L 123.21875 248.675781 L 123.21875 256.53125 L 131.074219 256.53125 L 131.074219 264.382812 L 138.925781 264.382812 L 138.925781 256.53125 L 146.78125 256.53125 L 146.78125 264.382812 L 154.636719 264.382812 L 154.636719 248.675781 L 170.34375 248.675781 L 170.34375 240.820312 L 178.199219 240.820312 L 178.199219 248.675781 L 186.054688 248.675781 L 186.054688 256.53125 L 201.761719 256.53125 L 201.761719 232.964844 L 193.910156 232.964844 L 193.910156 225.109375 L 186.054688 225.109375 L 186.054688 232.964844 L 178.199219 232.964844 L 178.199219 225.109375 L 162.492188 225.109375 L 162.492188 209.402344 L 154.636719 209.402344 L 154.636719 201.546875 L 178.199219 201.546875 L 178.199219 209.402344 L 170.34375 209.402344 L 170.34375 217.257812 L 178.199219 217.257812 L 178.199219 209.402344 L 186.054688 209.402344 L 186.054688 201.546875 L 193.910156 201.546875 L 193.910156 193.691406 L 186.054688 193.691406 L 186.054688 185.839844 L 201.761719 185.839844 L 201.761719 193.691406 L 209.617188 193.691406 L 209.617188 185.839844 L 201.761719 185.839844 L 201.761719 177.984375 L 209.617188 177.984375 L 209.617188 170.128906 L 217.472656 170.128906 L 217.472656 177.984375 L 233.183594 177.984375 L 233.183594 170.128906 L 241.035156 170.128906 L 241.035156 185.839844 L 248.890625 185.839844 L 248.890625 193.691406 L 241.035156 193.691406 L 241.035156 201.546875 L 248.890625 201.546875 L 248.890625 209.402344 L 241.035156 209.402344 L 241.035156 217.257812 L 248.890625 217.257812 L 248.890625 225.109375 L 241.035156 225.109375 L 241.035156 232.964844 L 248.890625 232.964844 L 248.890625 240.820312 L 241.035156 240.820312 L 241.035156 248.675781 L 248.890625 248.675781 L 248.890625 256.53125 L 241.035156 256.53125 L 241.035156 264.382812 L 248.890625 264.382812 L 248.890625 256.53125 L 256.746094 256.53125 L 256.746094 264.382812 L 264.601562 264.382812 L 264.601562 232.964844 L 248.890625 232.964844 L 248.890625 225.109375 L 264.601562 225.109375 L 264.601562 209.402344 L 256.746094 209.402344 L 256.746094 193.691406 L 264.601562 193.691406 L 264.601562 177.984375 L 256.746094 177.984375 L 256.746094 185.839844 L 248.890625 185.839844 L 248.890625 162.273438 L 256.746094 162.273438 L 256.746094 170.128906 L 264.601562 170.128906 L 264.601562 146.566406 L 256.746094 146.566406 L 256.746094 154.421875 L 248.890625 154.421875 L 248.890625 130.855469 L 256.746094 130.855469 L 256.746094 138.710938 L 264.601562 138.710938 L 264.601562 115.148438 L 256.746094 115.148438 L 256.746094 123.003906 L 248.890625 123.003906 L 248.890625 107.292969 L 264.601562 107.292969 L 264.601562 83.730469 L 256.746094 83.730469 L 256.746094 91.585938 L 248.890625 91.585938 L 248.890625 83.730469 L 241.035156 83.730469 L 241.035156 75.875 L 248.890625 75.875 L 248.890625 68.019531 L 256.746094 68.019531 L 256.746094 75.875 L 264.601562 75.875 L 264.601562 60.164062 L 209.617188 60.164062 L 209.617188 5.183594 L 201.761719 5.183594 L 201.761719 13.039062 L 186.054688 13.039062 L 186.054688 5.183594 L 170.34375 5.183594 L 170.34375 20.894531 L 178.199219 20.894531 L 178.199219 28.746094 L 162.492188 28.746094 L 162.492188 13.039062 L 131.074219 13.039062 L 131.074219 5.183594 L 115.363281 5.183594 L 115.363281 13.039062 L 107.507812 13.039062 L 107.507812 28.746094 L 115.363281 28.746094 L 115.363281 20.894531 L 123.21875 20.894531 L 123.21875 13.039062 L 131.074219 13.039062 L 131.074219 20.894531 L 138.925781 20.894531 L 138.925781 28.746094 L 123.21875 28.746094 L 123.21875 44.457031 L 131.074219 44.457031 L 131.074219 36.601562 L 138.925781 36.601562 L 138.925781 60.164062 L 131.074219 60.164062 L 131.074219 52.3125 L 123.21875 52.3125 L 123.21875 60.164062 L 115.363281 60.164062 L 115.363281 36.601562 L 99.65625 36.601562 L 99.65625 28.746094 L 83.945312 28.746094 L 83.945312 36.601562 L 68.238281 36.601562 L 68.238281 28.746094 L 76.089844 28.746094 L 76.089844 20.894531 L 83.945312 20.894531 L 83.945312 13.039062 L 91.800781 13.039062 L 91.800781 20.894531 L 99.65625 20.894531 L 99.65625 13.039062 L 91.800781 13.039062 L 91.800781 5.183594 L 60.382812 5.183594 Z M 60.382812 60.164062 "
       id="path67009" />
    <path
       style="fill:none;stroke-width:0.75;stroke-linecap:square;stroke-linejoin:miter;stroke:none;stroke-opacity:1;stroke-miterlimit:3.25"
       d="M 21.109375 193.691406 L 36.816406 193.691406 L 36.816406 185.839844 L 21.109375 185.839844 Z M 21.109375 193.691406 "
       id="path67011" />
    <path
       style="fill:none;stroke-width:0.75;stroke-linecap:square;stroke-linejoin:miter;stroke:none;stroke-opacity:1;stroke-miterlimit:3.25"
       d="M 68.238281 107.292969 L 60.382812 107.292969 L 60.382812 99.4375 L 52.527344 99.4375 L 52.527344 107.292969 L 60.382812 107.292969 L 60.382812 115.148438 L 68.238281 115.148438 L 68.238281 123.003906 L 76.089844 123.003906 L 76.089844 107.292969 L 83.945312 107.292969 L 83.945312 99.4375 L 91.800781 99.4375 L 91.800781 91.585938 L 83.945312 91.585938 L 83.945312 75.875 L 91.800781 75.875 L 91.800781 68.019531 L 52.527344 68.019531 L 52.527344 75.875 L 68.238281 75.875 L 68.238281 83.730469 L 52.527344 83.730469 L 52.527344 91.585938 L 60.382812 91.585938 L 60.382812 99.4375 L 68.238281 99.4375 Z M 68.238281 107.292969 "
       id="path67013" />
    <path
       style="fill:none;stroke-width:0.75;stroke-linecap:square;stroke-linejoin:miter;stroke:none;stroke-opacity:1;stroke-miterlimit:3.25"
       d="M 52.527344 123.003906 L 60.382812 123.003906 L 60.382812 115.148438 L 52.527344 115.148438 Z M 52.527344 123.003906 "
       id="path67015" />
    <path
       style="fill:none;stroke-width:0.75;stroke-linecap:square;stroke-linejoin:miter;stroke:none;stroke-opacity:1;stroke-miterlimit:3.25"
       d="M 68.238281 20.894531 L 76.089844 20.894531 L 76.089844 13.039062 L 68.238281 13.039062 Z M 68.238281 20.894531 "
       id="path67017" />
    <path
       style="fill:none;stroke-width:0.75;stroke-linecap:square;stroke-linejoin:miter;stroke:none;stroke-opacity:1;stroke-miterlimit:3.25"
       d="M 68.238281 60.164062 L 76.089844 60.164062 L 76.089844 44.457031 L 68.238281 44.457031 Z M 68.238281 60.164062 "
       id="path67019" />
    <path
       style="fill:none;stroke-width:0.75;stroke-linecap:square;stroke-linejoin:miter;stroke:none;stroke-opacity:1;stroke-miterlimit:3.25"
       d="M 68.238281 185.839844 L 76.089844 185.839844 L 76.089844 177.984375 L 68.238281 177.984375 Z M 68.238281 185.839844 "
       id="path67021" />
    <path
       style="fill:none;stroke-width:0.75;stroke-linecap:square;stroke-linejoin:miter;stroke:none;stroke-opacity:1;stroke-miterlimit:3.25"
       d="M 83.945312 60.164062 L 91.800781 60.164062 L 91.800781 44.457031 L 83.945312 44.457031 Z M 83.945312 60.164062 "
       id="path67023" />
    <path
       style="fill:none;stroke-width:0.75;stroke-linecap:square;stroke-linejoin:miter;stroke:none;stroke-opacity:1;stroke-miterlimit:3.25"
       d="M 83.945312 185.839844 L 91.800781 185.839844 L 91.800781 177.984375 L 83.945312 177.984375 Z M 83.945312 185.839844 "
       id="path67025" />
    <path
       style="fill:none;stroke-width:0.75;stroke-linecap:square;stroke-linejoin:miter;stroke:none;stroke-opacity:1;stroke-miterlimit:3.25"
       d="M 99.65625 201.546875 L 91.800781 201.546875 L 91.800781 193.691406 L 83.945312 193.691406 L 83.945312 201.546875 L 91.800781 201.546875 L 91.800781 209.402344 L 99.65625 209.402344 Z M 99.65625 201.546875 "
       id="path67027" />
    <path
       style="fill:none;stroke-width:0.75;stroke-linecap:square;stroke-linejoin:miter;stroke:none;stroke-opacity:1;stroke-miterlimit:3.25"
       d="M 91.800781 44.457031 L 99.65625 44.457031 L 99.65625 36.601562 L 91.800781 36.601562 Z M 91.800781 44.457031 "
       id="path67029" />
    <path
       style="fill:none;stroke-width:0.75;stroke-linecap:square;stroke-linejoin:miter;stroke:none;stroke-opacity:1;stroke-miterlimit:3.25"
       d="M 107.507812 83.730469 L 99.65625 83.730469 L 99.65625 75.875 L 91.800781 75.875 L 91.800781 83.730469 L 99.65625 83.730469 L 99.65625 91.585938 L 107.507812 91.585938 Z M 107.507812 83.730469 "
       id="path67031" />
    <path
       style="fill:none;stroke-width:0.75;stroke-linecap:square;stroke-linejoin:miter;stroke:none;stroke-opacity:1;stroke-miterlimit:3.25"
       d="M 83.945312 115.148438 L 99.65625 115.148438 L 99.65625 107.292969 L 131.074219 107.292969 L 131.074219 99.4375 L 123.21875 99.4375 L 123.21875 91.585938 L 115.363281 91.585938 L 115.363281 99.4375 L 91.800781 99.4375 L 91.800781 107.292969 L 83.945312 107.292969 Z M 83.945312 115.148438 "
       id="path67033" />
    <path
       style="fill:none;stroke-width:0.75;stroke-linecap:square;stroke-linejoin:miter;stroke:none;stroke-opacity:1;stroke-miterlimit:3.25"
       d="M 91.800781 177.984375 L 99.65625 177.984375 L 99.65625 170.128906 L 91.800781 170.128906 Z M 91.800781 177.984375 "
       id="path67035" />
    <path
       style="fill:none;stroke-width:0.75;stroke-linecap:square;stroke-linejoin:miter;stroke:none;stroke-opacity:1;stroke-miterlimit:3.25"
       d="M 91.800781 256.53125 L 99.65625 256.53125 L 99.65625 248.675781 L 91.800781 248.675781 Z M 91.800781 256.53125 "
       id="path67037" />
    <path
       style="fill:none;stroke-width:0.75;stroke-linecap:square;stroke-linejoin:miter;stroke:none;stroke-opacity:1;stroke-miterlimit:3.25"
       d="M 123.21875 68.019531 L 107.507812 68.019531 L 107.507812 52.3125 L 99.65625 52.3125 L 99.65625 75.875 L 107.507812 75.875 L 107.507812 83.730469 L 115.363281 83.730469 L 115.363281 75.875 L 123.21875 75.875 Z M 123.21875 68.019531 "
       id="path67039" />
    <path
       style="fill:none;stroke-width:0.75;stroke-linecap:square;stroke-linejoin:miter;stroke:none;stroke-opacity:1;stroke-miterlimit:3.25"
       d="M 99.65625 217.257812 L 107.507812 217.257812 L 107.507812 209.402344 L 99.65625 209.402344 Z M 99.65625 217.257812 "
       id="path67041" />
    <path
       style="fill:none;stroke-width:0.75;stroke-linecap:square;stroke-linejoin:miter;stroke:none;stroke-opacity:1;stroke-miterlimit:3.25"
       d="M 107.507812 240.820312 L 115.363281 240.820312 L 115.363281 232.964844 L 131.074219 232.964844 L 131.074219 225.109375 L 138.925781 225.109375 L 138.925781 209.402344 L 115.363281 209.402344 L 115.363281 217.257812 L 123.21875 217.257812 L 123.21875 225.109375 L 99.65625 225.109375 L 99.65625 232.964844 L 107.507812 232.964844 Z M 107.507812 240.820312 "
       id="path67043" />
    <path
       style="fill:none;stroke-width:0.75;stroke-linecap:square;stroke-linejoin:miter;stroke:none;stroke-opacity:1;stroke-miterlimit:3.25"
       d="M 131.074219 162.273438 L 123.21875 162.273438 L 123.21875 154.421875 L 115.363281 154.421875 L 115.363281 162.273438 L 123.21875 162.273438 L 123.21875 170.128906 L 131.074219 170.128906 Z M 131.074219 162.273438 "
       id="path67045" />
    <path
       style="fill:none;stroke-width:0.75;stroke-linecap:square;stroke-linejoin:miter;stroke:none;stroke-opacity:1;stroke-miterlimit:3.25"
       d="M 123.21875 68.019531 L 131.074219 68.019531 L 131.074219 60.164062 L 123.21875 60.164062 Z M 123.21875 68.019531 "
       id="path67047" />
    <path
       style="fill:none;stroke-width:0.75;stroke-linecap:square;stroke-linejoin:miter;stroke:none;stroke-opacity:1;stroke-miterlimit:3.25"
       d="M 138.925781 154.421875 L 131.074219 154.421875 L 131.074219 146.566406 L 123.21875 146.566406 L 123.21875 154.421875 L 131.074219 154.421875 L 131.074219 162.273438 L 138.925781 162.273438 Z M 138.925781 154.421875 "
       id="path67049" />
    <path
       style="fill:none;stroke-width:0.75;stroke-linecap:square;stroke-linejoin:miter;stroke:none;stroke-opacity:1;stroke-miterlimit:3.25"
       d="M 154.636719 146.566406 L 138.925781 146.566406 L 138.925781 138.710938 L 131.074219 138.710938 L 131.074219 146.566406 L 138.925781 146.566406 L 138.925781 154.421875 L 146.78125 154.421875 L 146.78125 162.273438 L 162.492188 162.273438 L 162.492188 154.421875 L 154.636719 154.421875 Z M 154.636719 146.566406 "
       id="path67051" />
    <path
       style="fill:none;stroke-width:0.75;stroke-linecap:square;stroke-linejoin:miter;stroke:none;stroke-opacity:1;stroke-miterlimit:3.25"
       d="M 123.21875 248.675781 L 138.925781 248.675781 L 138.925781 232.964844 L 131.074219 232.964844 L 131.074219 240.820312 L 123.21875 240.820312 Z M 123.21875 248.675781 "
       id="path67053" />
    <path
       style="fill:none;stroke-width:0.75;stroke-linecap:square;stroke-linejoin:miter;stroke:none;stroke-opacity:1;stroke-miterlimit:3.25"
       d="M 154.636719 36.601562 L 146.78125 36.601562 L 146.78125 28.746094 L 138.925781 28.746094 L 138.925781 36.601562 L 146.78125 36.601562 L 146.78125 60.164062 L 154.636719 60.164062 L 154.636719 44.457031 L 162.492188 44.457031 L 162.492188 28.746094 L 154.636719 28.746094 Z M 154.636719 36.601562 "
       id="path67055" />
    <path
       style="fill:none;stroke-width:0.75;stroke-linecap:square;stroke-linejoin:miter;stroke:none;stroke-opacity:1;stroke-miterlimit:3.25"
       d="M 178.199219 75.875 L 146.78125 75.875 L 146.78125 68.019531 L 138.925781 68.019531 L 138.925781 75.875 L 131.074219 75.875 L 131.074219 83.730469 L 123.21875 83.730469 L 123.21875 91.585938 L 154.636719 91.585938 L 154.636719 83.730469 L 170.34375 83.730469 L 170.34375 91.585938 L 154.636719 91.585938 L 154.636719 107.292969 L 146.78125 107.292969 L 146.78125 115.148438 L 162.492188 115.148438 L 162.492188 123.003906 L 170.34375 123.003906 L 170.34375 107.292969 L 162.492188 107.292969 L 162.492188 99.4375 L 186.054688 99.4375 L 186.054688 83.730469 L 193.910156 83.730469 L 193.910156 75.875 L 186.054688 75.875 L 186.054688 52.3125 L 178.199219 52.3125 L 178.199219 60.164062 L 170.34375 60.164062 L 170.34375 52.3125 L 178.199219 52.3125 L 178.199219 36.601562 L 170.34375 36.601562 L 170.34375 44.457031 L 162.492188 44.457031 L 162.492188 60.164062 L 154.636719 60.164062 L 154.636719 68.019531 L 178.199219 68.019531 Z M 178.199219 75.875 "
       id="path67057" />
    <path
       style="fill:none;stroke-width:0.75;stroke-linecap:square;stroke-linejoin:miter;stroke:none;stroke-opacity:1;stroke-miterlimit:3.25"
       d="M 138.925781 107.292969 L 146.78125 107.292969 L 146.78125 99.4375 L 138.925781 99.4375 Z M 138.925781 107.292969 "
       id="path67059" />
    <path
       style="fill:none;stroke-width:0.75;stroke-linecap:square;stroke-linejoin:miter;stroke:none;stroke-opacity:1;stroke-miterlimit:3.25"
       d="M 138.925781 138.710938 L 146.78125 138.710938 L 146.78125 130.855469 L 138.925781 130.855469 Z M 138.925781 138.710938 "
       id="path67061" />
    <path
       style="fill:none;stroke-width:0.75;stroke-linecap:square;stroke-linejoin:miter;stroke:none;stroke-opacity:1;stroke-miterlimit:3.25"
       d="M 138.925781 170.128906 L 146.78125 170.128906 L 146.78125 162.273438 L 138.925781 162.273438 Z M 138.925781 170.128906 "
       id="path67063" />
    <path
       style="fill:none;stroke-width:0.75;stroke-linecap:square;stroke-linejoin:miter;stroke:none;stroke-opacity:1;stroke-miterlimit:3.25"
       d="M 138.925781 201.546875 L 146.78125 201.546875 L 146.78125 193.691406 L 138.925781 193.691406 Z M 138.925781 201.546875 "
       id="path67065" />
    <path
       style="fill:none;stroke-width:0.75;stroke-linecap:square;stroke-linejoin:miter;stroke:none;stroke-opacity:1;stroke-miterlimit:3.25"
       d="M 170.34375 232.964844 L 146.78125 232.964844 L 146.78125 225.109375 L 138.925781 225.109375 L 138.925781 232.964844 L 146.78125 232.964844 L 146.78125 248.675781 L 154.636719 248.675781 L 154.636719 240.820312 L 170.34375 240.820312 Z M 170.34375 232.964844 "
       id="path67067" />
    <path
       style="fill:none;stroke-width:0.75;stroke-linecap:square;stroke-linejoin:miter;stroke:none;stroke-opacity:1;stroke-miterlimit:3.25"
       d="M 146.78125 225.109375 L 154.636719 225.109375 L 154.636719 209.402344 L 146.78125 209.402344 Z M 146.78125 225.109375 "
       id="path67069" />
    <path
       style="fill:none;stroke-width:0.75;stroke-linecap:square;stroke-linejoin:miter;stroke:none;stroke-opacity:1;stroke-miterlimit:3.25"
       d="M 178.199219 138.710938 L 162.492188 138.710938 L 162.492188 130.855469 L 154.636719 130.855469 L 154.636719 146.566406 L 170.34375 146.566406 L 170.34375 162.273438 L 178.199219 162.273438 L 178.199219 170.128906 L 186.054688 170.128906 L 186.054688 162.273438 L 193.910156 162.273438 L 193.910156 154.421875 L 186.054688 154.421875 L 186.054688 146.566406 L 178.199219 146.566406 Z M 178.199219 138.710938 "
       id="path67071" />
    <path
       style="fill:none;stroke-width:0.75;stroke-linecap:square;stroke-linejoin:miter;stroke:none;stroke-opacity:1;stroke-miterlimit:3.25"
       d="M 178.199219 185.839844 L 170.34375 185.839844 L 170.34375 162.273438 L 162.492188 162.273438 L 162.492188 170.128906 L 154.636719 170.128906 L 154.636719 177.984375 L 162.492188 177.984375 L 162.492188 193.691406 L 178.199219 193.691406 Z M 178.199219 185.839844 "
       id="path67073" />
    <path
       style="fill:none;stroke-width:0.75;stroke-linecap:square;stroke-linejoin:miter;stroke:none;stroke-opacity:1;stroke-miterlimit:3.25"
       d="M 178.199219 20.894531 L 186.054688 20.894531 L 186.054688 13.039062 L 178.199219 13.039062 Z M 178.199219 20.894531 "
       id="path67075" />
    <path
       style="fill:none;stroke-width:0.75;stroke-linecap:square;stroke-linejoin:miter;stroke:none;stroke-opacity:1;stroke-miterlimit:3.25"
       d="M 193.910156 36.601562 L 186.054688 36.601562 L 186.054688 28.746094 L 178.199219 28.746094 L 178.199219 36.601562 L 186.054688 36.601562 L 186.054688 44.457031 L 193.910156 44.457031 Z M 193.910156 36.601562 "
       id="path67077" />
    <path
       style="fill:none;stroke-width:0.75;stroke-linecap:square;stroke-linejoin:miter;stroke:none;stroke-opacity:1;stroke-miterlimit:3.25"
       d="M 193.910156 123.003906 L 186.054688 123.003906 L 186.054688 115.148438 L 178.199219 115.148438 L 178.199219 123.003906 L 170.34375 123.003906 L 170.34375 130.855469 L 178.199219 130.855469 L 178.199219 138.710938 L 186.054688 138.710938 L 186.054688 146.566406 L 201.761719 146.566406 L 201.761719 138.710938 L 209.617188 138.710938 L 209.617188 130.855469 L 193.910156 130.855469 Z M 193.910156 123.003906 "
       id="path67079" />
    <path
       style="fill:none;stroke-width:0.75;stroke-linecap:square;stroke-linejoin:miter;stroke:none;stroke-opacity:1;stroke-miterlimit:3.25"
       d="M 178.199219 185.839844 L 186.054688 185.839844 L 186.054688 177.984375 L 178.199219 177.984375 Z M 178.199219 185.839844 "
       id="path67081" />
    <path
       style="fill:none;stroke-width:0.75;stroke-linecap:square;stroke-linejoin:miter;stroke:none;stroke-opacity:1;stroke-miterlimit:3.25"
       d="M 178.199219 201.546875 L 186.054688 201.546875 L 186.054688 193.691406 L 178.199219 193.691406 Z M 178.199219 201.546875 "
       id="path67083" />
    <path
       style="fill:none;stroke-width:0.75;stroke-linecap:square;stroke-linejoin:miter;stroke:none;stroke-opacity:1;stroke-miterlimit:3.25"
       d="M 209.617188 115.148438 L 193.910156 115.148438 L 193.910156 107.292969 L 186.054688 107.292969 L 186.054688 115.148438 L 193.910156 115.148438 L 193.910156 123.003906 L 209.617188 123.003906 L 209.617188 130.855469 L 217.472656 130.855469 L 217.472656 138.710938 L 233.183594 138.710938 L 233.183594 130.855469 L 225.328125 130.855469 L 225.328125 123.003906 L 217.472656 123.003906 L 217.472656 107.292969 L 209.617188 107.292969 Z M 209.617188 115.148438 "
       id="path67085" />
    <path
       style="fill:none;stroke-width:0.75;stroke-linecap:square;stroke-linejoin:miter;stroke:none;stroke-opacity:1;stroke-miterlimit:3.25"
       d="M 186.054688 177.984375 L 193.910156 177.984375 L 193.910156 170.128906 L 186.054688 170.128906 Z M 186.054688 177.984375 "
       id="path67087" />
    <path
       style="fill:none;stroke-width:0.75;stroke-linecap:square;stroke-linejoin:miter;stroke:none;stroke-opacity:1;stroke-miterlimit:3.25"
       d="M 186.054688 248.675781 L 193.910156 248.675781 L 193.910156 240.820312 L 186.054688 240.820312 Z M 186.054688 248.675781 "
       id="path67089" />
    <path
       style="fill:none;stroke-width:0.75;stroke-linecap:square;stroke-linejoin:miter;stroke:none;stroke-opacity:1;stroke-miterlimit:3.25"
       d="M 193.910156 60.164062 L 201.761719 60.164062 L 201.761719 44.457031 L 193.910156 44.457031 Z M 193.910156 60.164062 "
       id="path67091" />
    <path
       style="fill:none;stroke-width:0.75;stroke-linecap:square;stroke-linejoin:miter;stroke:none;stroke-opacity:1;stroke-miterlimit:3.25"
       d="M 217.472656 75.875 L 209.617188 75.875 L 209.617188 68.019531 L 193.910156 68.019531 L 193.910156 75.875 L 209.617188 75.875 L 209.617188 91.585938 L 217.472656 91.585938 Z M 217.472656 75.875 "
       id="path67093" />
    <path
       style="fill:none;stroke-width:0.75;stroke-linecap:square;stroke-linejoin:miter;stroke:none;stroke-opacity:1;stroke-miterlimit:3.25"
       d="M 193.910156 107.292969 L 209.617188 107.292969 L 209.617188 91.585938 L 201.761719 91.585938 L 201.761719 99.4375 L 193.910156 99.4375 Z M 193.910156 107.292969 "
       id="path67095" />
    <path
       style="fill:none;stroke-width:0.75;stroke-linecap:square;stroke-linejoin:miter;stroke:none;stroke-opacity:1;stroke-miterlimit:3.25"
       d="M 217.472656 154.421875 L 209.617188 154.421875 L 209.617188 146.566406 L 201.761719 146.566406 L 201.761719 162.273438 L 217.472656 162.273438 Z M 217.472656 154.421875 "
       id="path67097" />
    <path
       style="fill:none;stroke-width:0.75;stroke-linecap:square;stroke-linejoin:miter;stroke:none;stroke-opacity:1;stroke-miterlimit:3.25"
       d="M 209.617188 146.566406 L 217.472656 146.566406 L 217.472656 138.710938 L 209.617188 138.710938 Z M 209.617188 146.566406 "
       id="path67099" />
    <path
       style="fill:none;stroke-width:0.75;stroke-linecap:square;stroke-linejoin:miter;stroke:none;stroke-opacity:1;stroke-miterlimit:3.25"
       d="M 217.472656 75.875 L 225.328125 75.875 L 225.328125 68.019531 L 217.472656 68.019531 Z M 217.472656 75.875 "
       id="path67101" />
    <path
       style="fill:none;stroke-width:0.75;stroke-linecap:square;stroke-linejoin:miter;stroke:none;stroke-opacity:1;stroke-miterlimit:3.25"
       d="M 241.035156 99.4375 L 233.183594 99.4375 L 233.183594 91.585938 L 241.035156 91.585938 L 241.035156 83.730469 L 225.328125 83.730469 L 225.328125 91.585938 L 217.472656 91.585938 L 217.472656 107.292969 L 241.035156 107.292969 Z M 241.035156 99.4375 "
       id="path67103" />
    <path
       style="fill:none;stroke-width:0.75;stroke-linecap:square;stroke-linejoin:miter;stroke:none;stroke-opacity:1;stroke-miterlimit:3.25"
       d="M 217.472656 170.128906 L 233.183594 170.128906 L 233.183594 154.421875 L 225.328125 154.421875 L 225.328125 162.273438 L 217.472656 162.273438 Z M 217.472656 170.128906 "
       id="path67105" />
    <path
       style="fill:none;stroke-width:0.75;stroke-linecap:square;stroke-linejoin:miter;stroke:none;stroke-opacity:1;stroke-miterlimit:3.25"
       d="M 233.183594 75.875 L 241.035156 75.875 L 241.035156 68.019531 L 233.183594 68.019531 Z M 233.183594 75.875 "
       id="path67107" />
    <path
       style="fill:none;stroke-width:0.75;stroke-linecap:square;stroke-linejoin:miter;stroke:none;stroke-opacity:1;stroke-miterlimit:3.25"
       d="M 248.890625 154.421875 L 241.035156 154.421875 L 241.035156 138.710938 L 233.183594 138.710938 L 233.183594 154.421875 L 241.035156 154.421875 L 241.035156 162.273438 L 248.890625 162.273438 Z M 248.890625 154.421875 "
       id="path67109" />
    <path
       style="fill:none;stroke-width:0.75;stroke-linecap:square;stroke-linejoin:miter;stroke:none;stroke-opacity:1;stroke-miterlimit:3.25"
       d="M 241.035156 99.4375 L 248.890625 99.4375 L 248.890625 91.585938 L 241.035156 91.585938 Z M 241.035156 99.4375 "
       id="path67111" />
    <path
       style="fill:none;stroke-width:0.75;stroke-linecap:square;stroke-linejoin:miter;stroke:none;stroke-opacity:1;stroke-miterlimit:3.25"
       d="M 241.035156 130.855469 L 248.890625 130.855469 L 248.890625 123.003906 L 241.035156 123.003906 Z M 241.035156 130.855469 "
       id="path67113" />
    <path
       style="fill:none;stroke-width:0.75;stroke-linecap:square;stroke-linejoin:miter;stroke:none;stroke-opacity:1;stroke-miterlimit:3.25"
       d="M 248.890625 217.257812 L 256.746094 217.257812 L 256.746094 209.402344 L 248.890625 209.402344 Z M 248.890625 217.257812 "
       id="path67115" />
    <path
       style="fill:none;stroke-width:0.75;stroke-linecap:square;stroke-linejoin:miter;stroke:none;stroke-opacity:1;stroke-miterlimit:3.25"
       d="M 248.890625 248.675781 L 256.746094 248.675781 L 256.746094 240.820312 L 248.890625 240.820312 Z M 248.890625 248.675781 "
       id="path67117" />
    <path
       style="stroke:none;fill-rule:evenodd;fill:#ffffff;fill-opacity:1"
       d="M 52.527344 13.039062 L 13.253906 13.039062 L 13.253906 52.3125 L 52.527344 52.3125 Z M 21.109375 44.457031 L 44.671875 44.457031 L 44.671875 20.894531 L 21.109375 20.894531 Z M 21.109375 44.457031 "
       id="path67119" />
    <path
       style="fill:none;stroke-width:0.75;stroke-linecap:square;stroke-linejoin:miter;stroke:none;stroke-opacity:1;stroke-miterlimit:3.25"
       d="M 52.527344 13.039062 L 13.253906 13.039062 L 13.253906 52.3125 L 52.527344 52.3125 Z M 52.527344 13.039062 "
       id="path67121" />
    <path
       style="fill:none;stroke-width:0.75;stroke-linecap:square;stroke-linejoin:miter;stroke:none;stroke-opacity:1;stroke-miterlimit:3.25"
       d="M 21.109375 44.457031 L 44.671875 44.457031 L 44.671875 20.894531 L 21.109375 20.894531 Z M 21.109375 44.457031 "
       id="path67123" />
    <path
       style="stroke:none;fill-rule:evenodd;fill:#ffffff;fill-opacity:1"
       d="M 52.527344 217.257812 L 13.253906 217.257812 L 13.253906 256.53125 L 52.527344 256.53125 Z M 21.109375 248.675781 L 44.671875 248.675781 L 44.671875 225.109375 L 21.109375 225.109375 Z M 21.109375 248.675781 "
       id="path67125" />
    <path
       style="fill:none;stroke-width:0.75;stroke-linecap:square;stroke-linejoin:miter;stroke:none;stroke-opacity:1;stroke-miterlimit:3.25"
       d="M 52.527344 217.257812 L 13.253906 217.257812 L 13.253906 256.53125 L 52.527344 256.53125 Z M 52.527344 217.257812 "
       id="path67127" />
    <path
       style="fill:none;stroke-width:0.75;stroke-linecap:square;stroke-linejoin:miter;stroke:none;stroke-opacity:1;stroke-miterlimit:3.25"
       d="M 21.109375 248.675781 L 44.671875 248.675781 L 44.671875 225.109375 L 21.109375 225.109375 Z M 21.109375 248.675781 "
       id="path67129" />
    <path
       style="stroke:none;fill-rule:evenodd;fill:#ffffff;fill-opacity:1"
       d="M 225.328125 201.546875 L 201.761719 201.546875 L 201.761719 225.109375 L 225.328125 225.109375 Z M 209.617188 217.257812 L 217.472656 217.257812 L 217.472656 209.402344 L 209.617188 209.402344 Z M 209.617188 217.257812 "
       id="path67131" />
    <path
       style="fill:none;stroke-width:0.75;stroke-linecap:square;stroke-linejoin:miter;stroke:none;stroke-opacity:1;stroke-miterlimit:3.25"
       d="M 225.328125 201.546875 L 201.761719 201.546875 L 201.761719 225.109375 L 225.328125 225.109375 Z M 225.328125 201.546875 "
       id="path67133" />
    <path
       style="fill:none;stroke-width:0.75;stroke-linecap:square;stroke-linejoin:miter;stroke:none;stroke-opacity:1;stroke-miterlimit:3.25"
       d="M 209.617188 217.257812 L 217.472656 217.257812 L 217.472656 209.402344 L 209.617188 209.402344 Z M 209.617188 217.257812 "
       id="path67135" />
    <path
       style="stroke:none;fill-rule:evenodd;fill:#ffffff;fill-opacity:1"
       d="M 256.746094 13.039062 L 217.472656 13.039062 L 217.472656 52.3125 L 256.746094 52.3125 Z M 225.328125 44.457031 L 248.890625 44.457031 L 248.890625 20.894531 L 225.328125 20.894531 Z M 225.328125 44.457031 "
       id="path67137" />
    <path
       style="fill:none;stroke-width:0.75;stroke-linecap:square;stroke-linejoin:miter;stroke:none;stroke-opacity:1;stroke-miterlimit:3.25"
       d="M 256.746094 13.039062 L 217.472656 13.039062 L 217.472656 52.3125 L 256.746094 52.3125 Z M 256.746094 13.039062 "
       id="path67139" />
    <path
       style="fill:none;stroke-width:0.75;stroke-linecap:square;stroke-linejoin:miter;stroke:none;stroke-opacity:1;stroke-miterlimit:3.25"
       d="M 225.328125 44.457031 L 248.890625 44.457031 L 248.890625 20.894531 L 225.328125 20.894531 Z M 225.328125 44.457031 "
       id="path67141" />
    <path
       style="fill-rule:nonzero;fill:#ffffff;fill-opacity:1;stroke-width:0.75;stroke-linecap:square;stroke-linejoin:miter;stroke:none;stroke-opacity:1;stroke-miterlimit:3.25"
       d="M 178.199219 256.53125 L 162.492188 256.53125 L 162.492188 264.382812 L 178.199219 264.382812 Z M 178.199219 256.53125 "
       id="path67143" />
    <path
       style="fill:none;stroke-width:0.75;stroke-linecap:square;stroke-linejoin:miter;stroke:none;stroke-opacity:1;stroke-miterlimit:3.25"
       d="M 178.199219 256.53125 L 162.492188 256.53125 L 162.492188 264.382812 L 178.199219 264.382812 Z M 178.199219 256.53125 "
       id="path67145" />
    <path
       style="fill-rule:nonzero;fill:#ffffff;fill-opacity:1;stroke-width:0.75;stroke-linecap:square;stroke-linejoin:miter;stroke:none;stroke-opacity:1;stroke-miterlimit:3.25"
       d="M 217.472656 232.964844 L 209.617188 232.964844 L 209.617188 240.820312 L 217.472656 240.820312 Z M 217.472656 232.964844 "
       id="path67147" />
    <path
       style="fill:none;stroke-width:0.75;stroke-linecap:square;stroke-linejoin:miter;stroke:none;stroke-opacity:1;stroke-miterlimit:3.25"
       d="M 217.472656 232.964844 L 209.617188 232.964844 L 209.617188 240.820312 L 217.472656 240.820312 Z M 217.472656 232.964844 "
       id="path67149" />
    <path
       style="fill-rule:nonzero;fill:#ffffff;fill-opacity:1;stroke-width:0.75;stroke-linecap:square;stroke-linejoin:miter;stroke:none;stroke-opacity:1;stroke-miterlimit:3.25"
       d="M 225.328125 248.675781 L 209.617188 248.675781 L 209.617188 264.382812 L 233.183594 264.382812 L 233.183594 256.53125 L 225.328125 256.53125 L 225.328125 248.675781 L 233.183594 248.675781 L 233.183594 240.820312 L 225.328125 240.820312 Z M 225.328125 248.675781 "
       id="path67151" />
    <path
       style="fill:none;stroke-width:0.75;stroke-linecap:square;stroke-linejoin:miter;stroke:none;stroke-opacity:1;stroke-miterlimit:3.25"
       d="M 225.328125 248.675781 L 209.617188 248.675781 L 209.617188 264.382812 L 233.183594 264.382812 L 233.183594 256.53125 L 225.328125 256.53125 L 225.328125 248.675781 L 233.183594 248.675781 L 233.183594 240.820312 L 225.328125 240.820312 Z M 225.328125 248.675781 "
       id="path67153" />
    <path
       style="fill-rule:nonzero;fill:#ffffff;fill-opacity:1;stroke-width:0.75;stroke-linecap:square;stroke-linejoin:miter;stroke:none;stroke-opacity:1;stroke-miterlimit:3.25"
       d="M 225.328125 185.839844 L 217.472656 185.839844 L 217.472656 193.691406 L 225.328125 193.691406 Z M 225.328125 185.839844 "
       id="path67155" />
    <path
       style="fill:none;stroke-width:0.75;stroke-linecap:square;stroke-linejoin:miter;stroke:none;stroke-opacity:1;stroke-miterlimit:3.25"
       d="M 225.328125 185.839844 L 217.472656 185.839844 L 217.472656 193.691406 L 225.328125 193.691406 Z M 225.328125 185.839844 "
       id="path67157" />
  </g>
</svg>
