%TF.GenerationSoftware,KiCad,Pcbnew,(6.0.6)*%
%TF.CreationDate,2022-07-20T13:38:39+10:00*%
%TF.ProjectId,SolderingInduction,536f6c64-6572-4696-9e67-496e64756374,3.5.0*%
%TF.SameCoordinates,Original*%
%TF.FileFunction,Soldermask,Bot*%
%TF.FilePolarity,Negative*%
%FSLAX46Y46*%
G04 Gerber Fmt 4.6, Leading zero omitted, Abs format (unit mm)*
G04 Created by KiCad (PCBNEW (6.0.6)) date 2022-07-20 13:38:39*
%MOMM*%
%LPD*%
G01*
G04 APERTURE LIST*
G04 Aperture macros list*
%AMRoundRect*
0 Rectangle with rounded corners*
0 $1 Rounding radius*
0 $2 $3 $4 $5 $6 $7 $8 $9 X,Y pos of 4 corners*
0 Add a 4 corners polygon primitive as box body*
4,1,4,$2,$3,$4,$5,$6,$7,$8,$9,$2,$3,0*
0 Add four circle primitives for the rounded corners*
1,1,$1+$1,$2,$3*
1,1,$1+$1,$4,$5*
1,1,$1+$1,$6,$7*
1,1,$1+$1,$8,$9*
0 Add four rect primitives between the rounded corners*
20,1,$1+$1,$2,$3,$4,$5,0*
20,1,$1+$1,$4,$5,$6,$7,0*
20,1,$1+$1,$6,$7,$8,$9,0*
20,1,$1+$1,$8,$9,$2,$3,0*%
G04 Aperture macros list end*
%ADD10C,4.400000*%
%ADD11C,1.750000*%
%ADD12C,0.990600*%
%ADD13C,0.787400*%
%ADD14R,1.700000X1.700000*%
%ADD15O,1.700000X1.700000*%
%ADD16RoundRect,0.200000X-0.275000X0.200000X-0.275000X-0.200000X0.275000X-0.200000X0.275000X0.200000X0*%
%ADD17RoundRect,0.250000X-0.450000X0.262500X-0.450000X-0.262500X0.450000X-0.262500X0.450000X0.262500X0*%
%ADD18RoundRect,0.250000X0.450000X-0.262500X0.450000X0.262500X-0.450000X0.262500X-0.450000X-0.262500X0*%
%ADD19RoundRect,0.225000X-0.250000X0.225000X-0.250000X-0.225000X0.250000X-0.225000X0.250000X0.225000X0*%
%ADD20RoundRect,0.150000X0.150000X-0.650000X0.150000X0.650000X-0.150000X0.650000X-0.150000X-0.650000X0*%
%ADD21RoundRect,0.225000X-0.225000X-0.250000X0.225000X-0.250000X0.225000X0.250000X-0.225000X0.250000X0*%
%ADD22RoundRect,0.225000X0.225000X0.250000X-0.225000X0.250000X-0.225000X-0.250000X0.225000X-0.250000X0*%
%ADD23R,1.200000X1.400000*%
%ADD24RoundRect,0.225000X0.250000X-0.225000X0.250000X0.225000X-0.250000X0.225000X-0.250000X-0.225000X0*%
%ADD25RoundRect,0.250000X-0.475000X0.250000X-0.475000X-0.250000X0.475000X-0.250000X0.475000X0.250000X0*%
%ADD26RoundRect,0.200000X0.275000X-0.200000X0.275000X0.200000X-0.275000X0.200000X-0.275000X-0.200000X0*%
%ADD27R,1.200000X0.900000*%
%ADD28C,2.000000*%
%ADD29RoundRect,0.050000X0.387500X0.050000X-0.387500X0.050000X-0.387500X-0.050000X0.387500X-0.050000X0*%
%ADD30RoundRect,0.050000X0.050000X0.387500X-0.050000X0.387500X-0.050000X-0.387500X0.050000X-0.387500X0*%
%ADD31R,3.200000X3.200000*%
%ADD32C,0.600000*%
%ADD33R,0.600000X1.160000*%
%ADD34R,0.300000X1.160000*%
%ADD35O,0.900000X2.000000*%
%ADD36O,0.900000X1.700000*%
%ADD37RoundRect,0.250000X-0.625000X0.375000X-0.625000X-0.375000X0.625000X-0.375000X0.625000X0.375000X0*%
%ADD38RoundRect,0.150000X-0.512500X-0.150000X0.512500X-0.150000X0.512500X0.150000X-0.512500X0.150000X0*%
%ADD39RoundRect,0.250000X0.250000X0.475000X-0.250000X0.475000X-0.250000X-0.475000X0.250000X-0.475000X0*%
%ADD40C,0.800000*%
%ADD41C,0.450000*%
%ADD42C,0.508000*%
G04 APERTURE END LIST*
G36*
X6625000Y-43050000D02*
G01*
X15425000Y-43050000D01*
X15425000Y-40150000D01*
X6625000Y-40150000D01*
X6625000Y-43050000D01*
G37*
D10*
%TO.C,H2*%
X80975000Y-2800000D03*
%TD*%
D11*
%TO.C,SW8*%
X77775000Y-28050000D03*
X77725000Y-23050000D03*
X80725000Y-23050000D03*
X80725000Y-28050000D03*
%TD*%
D10*
%TO.C,H4*%
X2750000Y-40300000D03*
%TD*%
%TO.C,H3*%
X43225000Y-22550000D03*
%TD*%
D11*
%TO.C,SW7*%
X65275000Y-28050000D03*
X65225000Y-23050000D03*
X68225000Y-23050000D03*
X68225000Y-28050000D03*
%TD*%
D10*
%TO.C,H5*%
X80975000Y-40300000D03*
%TD*%
D11*
%TO.C,SW6*%
X47025000Y-37000000D03*
X52025000Y-36950000D03*
X52025000Y-39950000D03*
X47025000Y-39950000D03*
%TD*%
D10*
%TO.C,H1*%
X2750000Y-2800000D03*
%TD*%
D12*
%TO.C,J2*%
X24509000Y-32640000D03*
X26541000Y-32640000D03*
X25525000Y-40260000D03*
D13*
X26160616Y-38989401D03*
X26160000Y-37720000D03*
X26160616Y-36449401D03*
X26160616Y-35179401D03*
X26160000Y-33910000D03*
X24890000Y-33910000D03*
X24890616Y-35179401D03*
X24890616Y-36449401D03*
X24890616Y-37719401D03*
X24890000Y-38990000D03*
%TD*%
D14*
%TO.C,J3*%
X26800000Y-7025000D03*
D15*
X26800000Y-4485000D03*
X29340000Y-7025000D03*
X29340000Y-4485000D03*
X31880000Y-7025000D03*
X31880000Y-4485000D03*
X34420000Y-7025000D03*
X34420000Y-4485000D03*
X36960000Y-7025000D03*
X36960000Y-4485000D03*
X39500000Y-7025000D03*
X39500000Y-4485000D03*
X42040000Y-7025000D03*
X42040000Y-4485000D03*
X44580000Y-7025000D03*
X44580000Y-4485000D03*
X47120000Y-7025000D03*
X47120000Y-4485000D03*
X49660000Y-7025000D03*
X49660000Y-4485000D03*
X52200000Y-7025000D03*
X52200000Y-4485000D03*
X54740000Y-7025000D03*
X54740000Y-4485000D03*
X57280000Y-7025000D03*
X57280000Y-4485000D03*
X59820000Y-7025000D03*
X59820000Y-4485000D03*
X62360000Y-7025000D03*
X62360000Y-4485000D03*
X64900000Y-7025000D03*
X64900000Y-4485000D03*
X67440000Y-7025000D03*
X67440000Y-4485000D03*
X69980000Y-7025000D03*
X69980000Y-4485000D03*
X72520000Y-7025000D03*
X72520000Y-4485000D03*
X75060000Y-7025000D03*
X75060000Y-4485000D03*
%TD*%
D11*
%TO.C,SW5*%
X39525000Y-37050000D03*
X34525000Y-37100000D03*
X39525000Y-40050000D03*
X34525000Y-40050000D03*
%TD*%
D16*
%TO.C,R3*%
X31625000Y-18425000D03*
X31625000Y-20075000D03*
%TD*%
D17*
%TO.C,R4*%
X21525000Y-9237500D03*
X21525000Y-11062500D03*
%TD*%
D16*
%TO.C,R2*%
X29925000Y-18425000D03*
X29925000Y-20075000D03*
%TD*%
D18*
%TO.C,R8*%
X16743750Y-19062500D03*
X16743750Y-17237500D03*
%TD*%
D19*
%TO.C,C7*%
X40425000Y-12125000D03*
X40425000Y-13675000D03*
%TD*%
D20*
%TO.C,U3*%
X38380000Y-19600000D03*
X37110000Y-19600000D03*
X35840000Y-19600000D03*
X34570000Y-19600000D03*
X34570000Y-12400000D03*
X35840000Y-12400000D03*
X37110000Y-12400000D03*
X38380000Y-12400000D03*
%TD*%
D21*
%TO.C,C14*%
X37980000Y-26660000D03*
X39530000Y-26660000D03*
%TD*%
%TO.C,C18*%
X37975000Y-23750000D03*
X39525000Y-23750000D03*
%TD*%
D22*
%TO.C,C11*%
X25700000Y-25300000D03*
X24150000Y-25300000D03*
%TD*%
%TO.C,C15*%
X25710000Y-26940000D03*
X24160000Y-26940000D03*
%TD*%
D19*
%TO.C,C6*%
X32200000Y-35175000D03*
X32200000Y-36725000D03*
%TD*%
D23*
%TO.C,Y1*%
X35675000Y-31750000D03*
X35675000Y-33950000D03*
X33975000Y-33950000D03*
X33975000Y-31750000D03*
%TD*%
D19*
%TO.C,C5*%
X37425000Y-31475000D03*
X37425000Y-33025000D03*
%TD*%
D24*
%TO.C,C9*%
X28325000Y-19950000D03*
X28325000Y-18400000D03*
%TD*%
D25*
%TO.C,C2*%
X18893750Y-20800000D03*
X18893750Y-22700000D03*
%TD*%
D26*
%TO.C,R6*%
X40425000Y-20025000D03*
X40425000Y-18375000D03*
%TD*%
D16*
%TO.C,R10*%
X32200000Y-31425000D03*
X32200000Y-33075000D03*
%TD*%
D27*
%TO.C,D2*%
X12125000Y-12100000D03*
X12125000Y-8800000D03*
%TD*%
D28*
%TO.C,FID3*%
X6475000Y-5300000D03*
%TD*%
%TO.C,FID1*%
X79225000Y-7800000D03*
%TD*%
D22*
%TO.C,C17*%
X25700000Y-28700000D03*
X24150000Y-28700000D03*
%TD*%
D17*
%TO.C,R7*%
X8550000Y-9337500D03*
X8550000Y-11162500D03*
%TD*%
D25*
%TO.C,C3*%
X21093750Y-20800000D03*
X21093750Y-22700000D03*
%TD*%
D28*
%TO.C,FID2*%
X56325000Y-37650000D03*
%TD*%
D19*
%TO.C,C10*%
X30600000Y-31485000D03*
X30600000Y-33035000D03*
%TD*%
D29*
%TO.C,U4*%
X35440317Y-22972183D03*
X35440317Y-23372183D03*
X35440317Y-23772183D03*
X35440317Y-24172183D03*
X35440317Y-24572183D03*
X35440317Y-24972183D03*
X35440317Y-25372183D03*
X35440317Y-25772183D03*
X35440317Y-26172183D03*
X35440317Y-26572183D03*
X35440317Y-26972183D03*
X35440317Y-27372183D03*
X35440317Y-27772183D03*
X35440317Y-28172183D03*
D30*
X34602817Y-29009683D03*
X34202817Y-29009683D03*
X33802817Y-29009683D03*
X33402817Y-29009683D03*
X33002817Y-29009683D03*
X32602817Y-29009683D03*
X32202817Y-29009683D03*
X31802817Y-29009683D03*
X31402817Y-29009683D03*
X31002817Y-29009683D03*
X30602817Y-29009683D03*
X30202817Y-29009683D03*
X29802817Y-29009683D03*
X29402817Y-29009683D03*
D29*
X28565317Y-28172183D03*
X28565317Y-27772183D03*
X28565317Y-27372183D03*
X28565317Y-26972183D03*
X28565317Y-26572183D03*
X28565317Y-26172183D03*
X28565317Y-25772183D03*
X28565317Y-25372183D03*
X28565317Y-24972183D03*
X28565317Y-24572183D03*
X28565317Y-24172183D03*
X28565317Y-23772183D03*
X28565317Y-23372183D03*
X28565317Y-22972183D03*
D30*
X29402817Y-22134683D03*
X29802817Y-22134683D03*
X30202817Y-22134683D03*
X30602817Y-22134683D03*
X31002817Y-22134683D03*
X31402817Y-22134683D03*
X31802817Y-22134683D03*
X32202817Y-22134683D03*
X32602817Y-22134683D03*
X33002817Y-22134683D03*
X33402817Y-22134683D03*
X33802817Y-22134683D03*
X34202817Y-22134683D03*
X34602817Y-22134683D03*
D31*
X32002817Y-25572183D03*
%TD*%
D32*
%TO.C,J1*%
X16335000Y-5825000D03*
X22115000Y-5825000D03*
D33*
X16025000Y-6885000D03*
X16825000Y-6885000D03*
D34*
X17975000Y-6885000D03*
X18975000Y-6885000D03*
X19475000Y-6885000D03*
X20475000Y-6885000D03*
D33*
X21625000Y-6885000D03*
X22425000Y-6885000D03*
X22425000Y-6885000D03*
X21625000Y-6885000D03*
D34*
X20975000Y-6885000D03*
X19975000Y-6885000D03*
X18475000Y-6885000D03*
X17475000Y-6885000D03*
D33*
X16825000Y-6885000D03*
X16025000Y-6885000D03*
D35*
X14905000Y-6305000D03*
D36*
X14905000Y-2135000D03*
X23545000Y-2135000D03*
D35*
X23545000Y-6305000D03*
%TD*%
D37*
%TO.C,F1*%
X12125000Y-4150000D03*
X12125000Y-6950000D03*
%TD*%
D22*
%TO.C,C12*%
X25700000Y-23650000D03*
X24150000Y-23650000D03*
%TD*%
D21*
%TO.C,C13*%
X37975000Y-22150000D03*
X39525000Y-22150000D03*
%TD*%
%TO.C,C16*%
X37975000Y-28300000D03*
X39525000Y-28300000D03*
%TD*%
D17*
%TO.C,R5*%
X16825000Y-9337500D03*
X16825000Y-11162500D03*
%TD*%
D38*
%TO.C,U1*%
X18806250Y-19050000D03*
X18806250Y-18100000D03*
X18806250Y-17150000D03*
X21081250Y-17150000D03*
X21081250Y-19050000D03*
%TD*%
D39*
%TO.C,C4*%
X25650000Y-21800000D03*
X23750000Y-21800000D03*
%TD*%
D24*
%TO.C,C8*%
X26725000Y-19950000D03*
X26725000Y-18400000D03*
%TD*%
D40*
X24625000Y-18750000D03*
D32*
X31805000Y-27990000D03*
D40*
X24625000Y-19950000D03*
D32*
X35725000Y-22160000D03*
X28585000Y-22130000D03*
X31625000Y-23170000D03*
X27125000Y-22970000D03*
X33600000Y-23175000D03*
D40*
X2525000Y-13250000D03*
D32*
X38325000Y-14750000D03*
D40*
X23625000Y-18750000D03*
D32*
X40425000Y-17380000D03*
D40*
X23625000Y-19950000D03*
X22625000Y-19950000D03*
D32*
X29515000Y-26570000D03*
X34465000Y-26570000D03*
D41*
X27775000Y-25447183D03*
X40745000Y-8775000D03*
D40*
X10475000Y-6950000D03*
X10475000Y-8050000D03*
X10475000Y-9150000D03*
D41*
X27862500Y-29262500D03*
X30625000Y-29950000D03*
X31000000Y-28025000D03*
X30825000Y-34850000D03*
D40*
X21975000Y-4050000D03*
X11650000Y-2800000D03*
D32*
X21800000Y-7925000D03*
D40*
X19475000Y-4050000D03*
X12900000Y-2800000D03*
X16975000Y-4050000D03*
D32*
X16825000Y-7975000D03*
D40*
X12900000Y-1550000D03*
X11650000Y-1550000D03*
X14475000Y-4050000D03*
D41*
X37025000Y-23350000D03*
X31400000Y-30125000D03*
X32125000Y-21250000D03*
X30125000Y-21250000D03*
X45645000Y-33030000D03*
X43110400Y-2547200D03*
X55805000Y-33030000D03*
X6275000Y-10170000D03*
X62155000Y-25410000D03*
X46915000Y-35570000D03*
X46915000Y-10170000D03*
X20245000Y-27950000D03*
X49455000Y-25410000D03*
X10085000Y-2550000D03*
X72315000Y-20330000D03*
X6275000Y-35570000D03*
X33272817Y-24302183D03*
X73585000Y-12710000D03*
X82475000Y-30490000D03*
X53270400Y-2547200D03*
X63425000Y-33030000D03*
X82475000Y-20330000D03*
X41835000Y-35570000D03*
X18975000Y-30490000D03*
X71045000Y-27950000D03*
X48190400Y-2547200D03*
X63425000Y-22870000D03*
X6275000Y-40650000D03*
X25325000Y-12710000D03*
X73585000Y-2550000D03*
X58345000Y-17790000D03*
X50730400Y-2547200D03*
X74855000Y-15250000D03*
X2465000Y-33030000D03*
X74855000Y-40650000D03*
X62155000Y-20330000D03*
X32002817Y-24302183D03*
D40*
X36945000Y-34180000D03*
D41*
X59615000Y-25410000D03*
D40*
X21225000Y-23950000D03*
D41*
X57075000Y-35570000D03*
D40*
X18825000Y-23950000D03*
D41*
X79935000Y-35570000D03*
X28275000Y-17450000D03*
X77395000Y-15250000D03*
X72315000Y-35570000D03*
X10085000Y-38110000D03*
X54535000Y-40650000D03*
X82475000Y-35570000D03*
X54535000Y-20330000D03*
X44375000Y-15250000D03*
X67235000Y-35570000D03*
X30732817Y-26842183D03*
X51995000Y-35570000D03*
X64695000Y-20330000D03*
X79935000Y-15250000D03*
X39295000Y-15250000D03*
X78665000Y-17790000D03*
X48185000Y-38110000D03*
X60885000Y-33030000D03*
X34215000Y-35570000D03*
X12625000Y-33030000D03*
X59615000Y-20330000D03*
X11355000Y-25410000D03*
X36755000Y-35570000D03*
X49455000Y-35570000D03*
X16435000Y-15250000D03*
X21515000Y-30490000D03*
X45650400Y-2547200D03*
X58345000Y-33030000D03*
X16435000Y-40650000D03*
X77395000Y-20330000D03*
X53265000Y-17790000D03*
X69775000Y-35570000D03*
X68515000Y-33030000D03*
X65965000Y-2550000D03*
D40*
X9225000Y-20450000D03*
D41*
X27025000Y-29850000D03*
X8815000Y-30490000D03*
X71045000Y-17790000D03*
X62155000Y-40650000D03*
X77395000Y-25410000D03*
D40*
X22525000Y-21850000D03*
D41*
X60885000Y-17790000D03*
X27865000Y-12710000D03*
D40*
X22825000Y-23750000D03*
D41*
X12625000Y-27950000D03*
X20925000Y-18100000D03*
X63425000Y-38110000D03*
X54535000Y-30490000D03*
X51995000Y-20330000D03*
X29125000Y-31400000D03*
X45645000Y-17790000D03*
X6275000Y-20330000D03*
X26595000Y-10170000D03*
X49455000Y-20330000D03*
X74855000Y-35570000D03*
X57075000Y-10170000D03*
X16435000Y-30490000D03*
X41835000Y-15250000D03*
X60885000Y-2550000D03*
X5005000Y-7630000D03*
X82475000Y-15250000D03*
X76125000Y-17790000D03*
X29135000Y-40650000D03*
X16435000Y-35570000D03*
X31900000Y-8775000D03*
X58350000Y-2550000D03*
X54535000Y-35570000D03*
X67235000Y-40650000D03*
X17705000Y-33030000D03*
X5005000Y-38110000D03*
X17705000Y-38110000D03*
X63425000Y-27950000D03*
X74855000Y-20330000D03*
X33272817Y-25572183D03*
X7555000Y-7630000D03*
X43105000Y-33030000D03*
X28525000Y-31400000D03*
X55805000Y-17790000D03*
X68505000Y-38110000D03*
X78665000Y-12710000D03*
D32*
X40750000Y-28300000D03*
D41*
X34215000Y-15250000D03*
X57075000Y-20330000D03*
X76125000Y-27950000D03*
X33125000Y-29950000D03*
X72315000Y-15250000D03*
X73585000Y-17790000D03*
D40*
X22825000Y-27350000D03*
D41*
X6275000Y-30490000D03*
X5005000Y-27950000D03*
X20245000Y-38110000D03*
X73585000Y-27950000D03*
X64695000Y-40650000D03*
X5005000Y-12710000D03*
D40*
X22825000Y-25350000D03*
D41*
X62155000Y-30490000D03*
X51995000Y-30490000D03*
X49455000Y-30490000D03*
X30732817Y-24302183D03*
X71045000Y-22870000D03*
X71055000Y-33030000D03*
X50725000Y-38110000D03*
X36755000Y-10170000D03*
X57075000Y-30490000D03*
X5005000Y-22870000D03*
X40425000Y-14600000D03*
X71045000Y-2550000D03*
D40*
X32350000Y-38150000D03*
D41*
X5005000Y-33030000D03*
D40*
X21550000Y-12300000D03*
D41*
X18975000Y-40650000D03*
X43105000Y-17790000D03*
X71045000Y-38110000D03*
X79935000Y-10170000D03*
X82475000Y-25410000D03*
D40*
X16800000Y-12400000D03*
D41*
X7545000Y-27950000D03*
X36755000Y-40650000D03*
X63425000Y-2550000D03*
X81205000Y-12710000D03*
X55810400Y-2547200D03*
X15165000Y-33030000D03*
X43105000Y-27950000D03*
X13895000Y-25410000D03*
X50725000Y-33030000D03*
X8815000Y-35570000D03*
X72315000Y-25410000D03*
X77395000Y-5090000D03*
X33272817Y-26842183D03*
X78675000Y-33030000D03*
X18975000Y-15250000D03*
X77395000Y-35570000D03*
X39295000Y-35570000D03*
X72315000Y-40650000D03*
X76125000Y-38110000D03*
X6275000Y-15250000D03*
X53265000Y-38110000D03*
X40565000Y-33030000D03*
X5005000Y-17790000D03*
X49455000Y-40650000D03*
X6275000Y-25410000D03*
D40*
X22825000Y-29850000D03*
D41*
X10085000Y-22870000D03*
X76135000Y-33030000D03*
X81215000Y-33030000D03*
X44375000Y-35570000D03*
X44375000Y-40650000D03*
D40*
X8650000Y-12800000D03*
D41*
X64695000Y-35570000D03*
X30732817Y-25572183D03*
X32002817Y-25572183D03*
X41835000Y-40650000D03*
X60885000Y-27950000D03*
X69775000Y-20330000D03*
X20125000Y-18100000D03*
X67235000Y-25410000D03*
X79935000Y-25410000D03*
X39525000Y-21050000D03*
X63425000Y-12710000D03*
D40*
X38125000Y-34180000D03*
D41*
X7545000Y-2550000D03*
X32002817Y-26842183D03*
D32*
X34350000Y-18025000D03*
D41*
X76125000Y-12710000D03*
X18975000Y-35570000D03*
X69775000Y-40650000D03*
X59615000Y-40650000D03*
X13895000Y-35570000D03*
X64695000Y-30490000D03*
D42*
X30825000Y-33850000D03*
D41*
X7545000Y-22870000D03*
X59615000Y-30490000D03*
X46915000Y-30490000D03*
X65965000Y-38110000D03*
X79935000Y-30490000D03*
D40*
X40475000Y-24550000D03*
D41*
X48185000Y-33030000D03*
X50725000Y-17790000D03*
X7545000Y-33030000D03*
X82475000Y-10170000D03*
X7545000Y-12710000D03*
X73595000Y-33030000D03*
X15165000Y-27950000D03*
D32*
X40750000Y-26650000D03*
D41*
X73585000Y-22870000D03*
X74855000Y-25410000D03*
X59615000Y-35570000D03*
X68505000Y-2550000D03*
X63425000Y-17790000D03*
X21725000Y-18100000D03*
X76125000Y-2550000D03*
X7545000Y-38110000D03*
X26725000Y-17450000D03*
X64695000Y-25410000D03*
X76125000Y-22870000D03*
X10085000Y-33030000D03*
X69775000Y-25410000D03*
X68505000Y-17790000D03*
D40*
X7625000Y-21750000D03*
D41*
X77395000Y-40650000D03*
X73585000Y-38110000D03*
X11355000Y-35570000D03*
X2465000Y-7630000D03*
X3735000Y-10170000D03*
X60885000Y-22870000D03*
X49415000Y-22960000D03*
X79935000Y-20330000D03*
X8815000Y-5090000D03*
X81205000Y-17790000D03*
X53265000Y-33030000D03*
X21515000Y-40650000D03*
X77395000Y-10170000D03*
X34440000Y-8775000D03*
X27775000Y-24497183D03*
X29350000Y-24247183D03*
X35665000Y-8775000D03*
X30000000Y-23772183D03*
X45825000Y-8775000D03*
X29350000Y-23297183D03*
X44600000Y-8775000D03*
X27775000Y-26172183D03*
X29350000Y-25775000D03*
X33125000Y-27850000D03*
X70000000Y-8775000D03*
X68685000Y-8775000D03*
X33825000Y-28050000D03*
X39520000Y-8775000D03*
X38205000Y-8775000D03*
X27125000Y-24972183D03*
X42060000Y-8775000D03*
X52220000Y-8775000D03*
X36425000Y-23750000D03*
X53445000Y-8775000D03*
X37025000Y-24350000D03*
X38625000Y-24750000D03*
X54760000Y-8775000D03*
X48365000Y-8775000D03*
X34425000Y-24350000D03*
X37025000Y-25350000D03*
X55985000Y-8775000D03*
X36450000Y-25875000D03*
X58525000Y-8775000D03*
X49680000Y-8775000D03*
X34410000Y-25480000D03*
X64920000Y-8775000D03*
X34425000Y-27450000D03*
X37025000Y-27200000D03*
X59840000Y-8775000D03*
X61065000Y-8775000D03*
X36425000Y-27750000D03*
X62380000Y-8775000D03*
X35825000Y-28650000D03*
X66145000Y-8775000D03*
X35125000Y-29550000D03*
X67460000Y-8775000D03*
X34425000Y-30050000D03*
X29625000Y-29950000D03*
X72540000Y-8775000D03*
X73765000Y-8775000D03*
X28925000Y-29550000D03*
X41525000Y-20050000D03*
D40*
X16725000Y-20550000D03*
X16725000Y-22550000D03*
X10425000Y-10550000D03*
X10425000Y-12550000D03*
X12025000Y-10550000D03*
X10425000Y-11550000D03*
X16725000Y-21550000D03*
D41*
X18625000Y-15950000D03*
M02*
