M48
; DRILL file {KiCad (6.0.6)} date Wed 20 Jul 2022 01:38:39 PM AEST
; FORMAT={-:-/ absolute / inch / decimal}
; #@! TF.CreationDate,2022-07-20T13:38:39+10:00
; #@! TF.GenerationSoftware,Kicad,Pcbnew,(6.0.6)
; #@! TF.FileFunction,Plated,1,4,PTH
FMAT,2
INCH
; #@! TA.AperFunction,Plated,PTH,ViaDrill
T1C0.0079
; #@! TA.AperFunction,Plated,PTH,ComponentDrill
T2C0.0079
; #@! TA.AperFunction,Plated,PTH,ViaDrill
T3C0.0100
; #@! TA.AperFunction,Plated,PTH,ViaDrill
T4C0.0118
; #@! TA.AperFunction,Plated,PTH,ViaDrill
T5C0.0157
; #@! TA.AperFunction,Plated,PTH,ComponentDrill
T6C0.0236
; #@! TA.AperFunction,Plated,PTH,ComponentDrill
T7C0.0394
; #@! TA.AperFunction,Plated,PTH,ComponentDrill
T8C0.0866
%
G90
G05
T1
X0.097Y-0.3004
X0.097Y-1.3004
X0.147Y-0.4004
X0.197Y-0.3004
X0.197Y-0.5004
X0.197Y-0.7004
X0.197Y-0.9004
X0.197Y-1.1004
X0.197Y-1.3004
X0.197Y-1.5004
X0.247Y-0.4004
X0.247Y-0.6004
X0.247Y-0.8004
X0.247Y-1.0004
X0.247Y-1.2004
X0.247Y-1.4004
X0.247Y-1.6004
X0.297Y-0.1004
X0.297Y-0.5004
X0.297Y-0.9004
X0.297Y-1.1004
X0.297Y-1.3004
X0.297Y-1.5004
X0.2974Y-0.3004
X0.347Y-0.2004
X0.347Y-1.2004
X0.347Y-1.4004
X0.397Y-0.1004
X0.397Y-0.9004
X0.397Y-1.3004
X0.397Y-1.5004
X0.447Y-1.0004
X0.447Y-1.4004
X0.497Y-1.1004
X0.497Y-1.3004
X0.547Y-1.0004
X0.547Y-1.4004
X0.597Y-1.1004
X0.597Y-1.3004
X0.647Y-0.6004
X0.647Y-1.2004
X0.647Y-1.4004
X0.647Y-1.6004
X0.697Y-1.3004
X0.697Y-1.5004
X0.7333Y-0.628
X0.747Y-0.6004
X0.747Y-1.2004
X0.747Y-1.4004
X0.747Y-1.6004
X0.7923Y-0.7126
X0.797Y-1.1004
X0.797Y-1.5004
X0.8238Y-0.7126
X0.847Y-1.2004
X0.847Y-1.6004
X0.8553Y-0.7126
X0.997Y-0.5004
X1.047Y-0.4004
X1.0522Y-0.687
X1.064Y-1.1752
X1.0679Y-0.9832
X1.0935Y-0.9645
X1.0935Y-1.0019
X1.0935Y-1.0304
X1.0969Y-1.1521
X1.097Y-0.5004
X1.1132Y-0.687
X1.123Y-1.2362
X1.1388Y-1.1634
X1.1467Y-1.2362
X1.147Y-1.6004
X1.1555Y-0.9172
X1.1555Y-0.9546
X1.1555Y-1.0148
X1.1663Y-1.1791
X1.1811Y-0.9359
X1.186Y-0.8366
X1.2057Y-1.1791
X1.21Y-0.9568
X1.21Y-1.0068
X1.21Y-1.0568
X1.2136Y-1.372
X1.2205Y-1.1033
X1.2362Y-1.186
X1.2559Y-0.3455
X1.26Y-0.9568
X1.26Y-1.0068
X1.26Y-1.0568
X1.2648Y-0.8366
X1.3041Y-1.0965
X1.3041Y-1.1791
X1.31Y-0.9568
X1.31Y-1.0068
X1.31Y-1.0568
X1.3317Y-1.1043
X1.347Y-0.6004
X1.347Y-1.4004
X1.3547Y-1.0031
X1.3553Y-0.9587
X1.3553Y-1.0807
X1.3553Y-1.1831
X1.3559Y-0.3455
X1.3829Y-1.1634
X1.4041Y-0.3455
X1.4104Y-1.128
X1.4341Y-0.935
X1.4341Y-1.0925
X1.435Y-1.0187
X1.447Y-0.4004
X1.447Y-1.4004
X1.447Y-1.6004
X1.4577Y-0.9193
X1.4577Y-0.9587
X1.4577Y-0.998
X1.4577Y-1.0709
X1.5041Y-0.3455
X1.5207Y-0.9744
X1.547Y-0.6004
X1.547Y-1.4004
X1.5559Y-0.3455
X1.5561Y-0.8287
X1.5915Y-0.5748
X1.597Y-1.3004
X1.6041Y-0.3455
X1.6348Y-0.7894
X1.647Y-0.6004
X1.647Y-1.4004
X1.647Y-1.6004
X1.6559Y-0.3455
X1.697Y-0.7004
X1.697Y-1.1004
X1.697Y-1.3004
X1.6973Y-0.1003
X1.747Y-0.6004
X1.747Y-1.4004
X1.747Y-1.6004
X1.7559Y-0.3455
X1.797Y-0.7004
X1.797Y-1.3004
X1.7973Y-0.1003
X1.8041Y-0.3455
X1.847Y-0.4004
X1.847Y-1.2004
X1.847Y-1.4004
X1.897Y-1.3004
X1.897Y-1.5004
X1.8973Y-0.1003
X1.9041Y-0.3455
X1.9455Y-0.9039
X1.947Y-0.8004
X1.947Y-1.0004
X1.947Y-1.2004
X1.947Y-1.4004
X1.947Y-1.6004
X1.9559Y-0.3455
X1.997Y-0.7004
X1.997Y-1.3004
X1.997Y-1.5004
X1.9973Y-0.1003
X2.047Y-0.8004
X2.047Y-1.2004
X2.047Y-1.4004
X2.0559Y-0.3455
X2.097Y-0.7004
X2.097Y-1.3004
X2.097Y-1.5004
X2.0973Y-0.1003
X2.1041Y-0.3455
X2.147Y-0.8004
X2.147Y-1.2004
X2.147Y-1.4004
X2.147Y-1.6004
X2.1559Y-0.3455
X2.197Y-0.7004
X2.197Y-1.3004
X2.1973Y-0.1003
X2.2041Y-0.3455
X2.247Y-0.4004
X2.247Y-0.8004
X2.247Y-1.2004
X2.247Y-1.4004
X2.297Y-0.7004
X2.297Y-1.3004
X2.2972Y-0.1004
X2.3041Y-0.3455
X2.347Y-0.8004
X2.347Y-1.0004
X2.347Y-1.2004
X2.347Y-1.4004
X2.347Y-1.6004
X2.3559Y-0.3455
X2.397Y-0.1004
X2.397Y-0.7004
X2.397Y-0.9004
X2.397Y-1.1004
X2.397Y-1.3004
X2.4041Y-0.3455
X2.447Y-0.8004
X2.447Y-1.0004
X2.447Y-1.2004
X2.447Y-1.6004
X2.4559Y-0.3455
X2.497Y-0.1004
X2.497Y-0.5004
X2.497Y-0.7004
X2.497Y-0.9004
X2.497Y-1.1004
X2.497Y-1.3004
X2.497Y-1.5004
X2.547Y-0.8004
X2.547Y-1.0004
X2.547Y-1.2004
X2.547Y-1.4004
X2.547Y-1.6004
X2.5559Y-0.3455
X2.597Y-0.1004
X2.597Y-1.5004
X2.6041Y-0.3455
X2.647Y-1.0004
X2.647Y-1.4004
X2.647Y-1.6004
X2.6559Y-0.3455
X2.697Y-0.1004
X2.697Y-0.7004
X2.697Y-1.5004
X2.6974Y-1.3004
X2.7041Y-0.3455
X2.747Y-0.8004
X2.747Y-1.0004
X2.747Y-1.4004
X2.747Y-1.6004
X2.7559Y-0.3455
X2.797Y-0.1004
X2.797Y-0.7004
X2.797Y-0.9004
X2.797Y-1.1004
X2.797Y-1.5004
X2.7974Y-1.3004
X2.847Y-0.6004
X2.847Y-0.8004
X2.847Y-1.0004
X2.847Y-1.4004
X2.847Y-1.6004
X2.8559Y-0.3455
X2.897Y-0.1004
X2.897Y-0.5004
X2.897Y-0.7004
X2.897Y-0.9004
X2.897Y-1.1004
X2.897Y-1.5004
X2.8974Y-1.3004
X2.9041Y-0.3455
X2.947Y-0.6004
X2.947Y-0.8004
X2.947Y-1.0004
X2.947Y-1.4004
X2.947Y-1.6004
X2.997Y-0.1004
X2.997Y-0.5004
X2.997Y-0.7004
X2.997Y-0.9004
X2.997Y-1.1004
X2.997Y-1.5004
X2.9974Y-1.3004
X3.047Y-0.2004
X3.047Y-0.4004
X3.047Y-0.6004
X3.047Y-0.8004
X3.047Y-1.0004
X3.047Y-1.4004
X3.047Y-1.6004
X3.097Y-0.5004
X3.097Y-0.7004
X3.0974Y-1.3004
X3.147Y-0.4004
X3.147Y-0.6004
X3.147Y-0.8004
X3.147Y-1.0004
X3.147Y-1.2004
X3.147Y-1.4004
X3.197Y-0.5004
X3.197Y-0.7004
X3.1974Y-1.3004
X3.247Y-0.4004
X3.247Y-0.6004
X3.247Y-0.8004
X3.247Y-1.0004
X3.247Y-1.2004
X3.247Y-1.4004
T2
X0.9799Y-1.335
X0.9799Y-1.535
X0.9799Y-1.385
X0.9799Y-1.435
X0.9799Y-1.485
X1.0299Y-1.335
X1.0299Y-1.485
X1.0299Y-1.385
X1.0299Y-1.435
X1.0299Y-1.535
T3
X1.2136Y-1.3327
T4
X0.6624Y-0.314
X0.8583Y-0.312
X1.0679Y-0.9043
X1.1254Y-0.8713
X1.162Y-1.0461
X1.2451Y-0.9122
X1.2522Y-1.102
X1.3228Y-0.9124
X1.3524Y-0.7096
X1.3569Y-1.0461
X1.4065Y-0.8724
X1.5089Y-0.5807
X1.5915Y-0.6843
X1.6043Y-1.0492
X1.6043Y-1.1142
T5
X0.0994Y-0.5217
X0.3002Y-0.8563
X0.3406Y-0.5039
X0.3632Y-0.8051
X0.4104Y-0.4154
X0.4104Y-0.4547
X0.4104Y-0.4941
X0.4124Y-0.2736
X0.4124Y-0.3169
X0.4124Y-0.3602
X0.4587Y-0.061
X0.4587Y-0.1102
X0.4734Y-0.4154
X0.5079Y-0.061
X0.5079Y-0.1102
X0.5699Y-0.1594
X0.6585Y-0.8091
X0.6585Y-0.8484
X0.6585Y-0.8878
X0.6614Y-0.4882
X0.6683Y-0.1594
X0.7411Y-0.9429
X0.7667Y-0.1594
X0.8356Y-0.9429
X0.8484Y-0.4843
X0.8652Y-0.1594
X0.8868Y-0.8602
X0.8907Y-0.7854
X0.8986Y-0.935
X0.8986Y-0.998
X0.8986Y-1.0768
X0.8986Y-1.1752
X0.9301Y-0.7382
X0.9301Y-0.7854
X0.9695Y-0.7382
X0.9695Y-0.7854
X1.2736Y-1.502
X1.4545Y-1.3457
X1.501Y-1.3457
X1.5935Y-0.9665
T7
X1.0551Y-0.1766
X1.0551Y-0.2766
X1.1551Y-0.1766
X1.1551Y-0.2766
X1.2551Y-0.1766
X1.2551Y-0.2766
X1.3551Y-0.1766
X1.3551Y-0.2766
X1.3593Y-1.4606
X1.3593Y-1.5768
X1.4551Y-0.1766
X1.4551Y-0.2766
X1.5551Y-0.1766
X1.5551Y-0.2766
X1.5561Y-1.4587
X1.5561Y-1.5768
X1.6551Y-0.1766
X1.6551Y-0.2766
X1.7551Y-0.1766
X1.7551Y-0.2766
X1.8514Y-1.4567
X1.8514Y-1.5728
X1.8551Y-0.1766
X1.8551Y-0.2766
X1.9551Y-0.1766
X1.9551Y-0.2766
X2.0482Y-1.4547
X2.0482Y-1.5728
X2.0551Y-0.1766
X2.0551Y-0.2766
X2.1551Y-0.1766
X2.1551Y-0.2766
X2.2551Y-0.1766
X2.2551Y-0.2766
X2.3551Y-0.1766
X2.3551Y-0.2766
X2.4551Y-0.1766
X2.4551Y-0.2766
X2.5551Y-0.1766
X2.5551Y-0.2766
X2.5679Y-0.9075
X2.5699Y-1.1043
X2.6551Y-0.1766
X2.6551Y-0.2766
X2.686Y-0.9075
X2.686Y-1.1043
X2.7551Y-0.1766
X2.7551Y-0.2766
X2.8551Y-0.1766
X2.8551Y-0.2766
X2.9551Y-0.1766
X2.9551Y-0.2766
X3.06Y-0.9075
X3.062Y-1.1043
X3.1781Y-0.9075
X3.1781Y-1.1043
T8
X0.1083Y-0.1102
X0.1083Y-1.5866
X1.7018Y-0.8878
X3.188Y-0.1102
X3.188Y-1.5866
T6
G00X0.5868Y-0.0683
M15
G01X0.5868Y-0.0998
M16
G05
G00X0.5868Y-0.2266
M15
G01X0.5868Y-0.2699
M16
G05
G00X0.927Y-0.0683
M15
G01X0.927Y-0.0998
M16
G05
G00X0.927Y-0.2266
M15
G01X0.927Y-0.2699
M16
G05
T0
M30
