%TF.GenerationSoftware,KiCad,Pcbnew,(6.0.6)*%
%TF.CreationDate,2022-07-20T13:38:39+10:00*%
%TF.ProjectId,SolderingInduction,536f6c64-6572-4696-9e67-496e64756374,3.5.0*%
%TF.SameCoordinates,Original*%
%TF.FileFunction,Other,Comment*%
%FSLAX46Y46*%
G04 Gerber Fmt 4.6, Leading zero omitted, Abs format (unit mm)*
G04 Created by KiCad (PCBNEW (6.0.6)) date 2022-07-20 13:38:39*
%MOMM*%
%LPD*%
G01*
G04 APERTURE LIST*
%ADD10C,0.010000*%
%ADD11C,0.141421*%
%ADD12C,0.180278*%
%ADD13C,0.200000*%
%ADD14C,0.150000*%
G04 APERTURE END LIST*
D10*
X26425000Y-26049999D02*
X23425000Y-26050000D01*
X23425000Y-24550000D01*
X26425000Y-24550000D01*
X26425000Y-26049999D01*
D11*
X38720710Y-18208579D02*
G75*
G03*
X38720710Y-18208579I-70710J0D01*
G01*
D10*
X27850000Y-29750000D02*
X36100000Y-29750000D01*
X36100000Y-29750000D02*
X36100000Y-21450000D01*
X36100000Y-21450000D02*
X27850000Y-21450000D01*
X27850000Y-21450000D02*
X27850000Y-29750000D01*
X37250000Y-24500000D02*
X40250000Y-24500000D01*
X40250000Y-24500000D02*
X40250000Y-23000000D01*
X40250000Y-23000000D02*
X37250000Y-23000000D01*
X37250000Y-23000000D02*
X37250000Y-24500000D01*
X39300000Y-40800000D02*
X34800000Y-40800000D01*
X34800000Y-36300000D01*
X39300000Y-36300000D01*
X39300000Y-40800000D01*
X80452996Y-25550000D02*
G75*
G03*
X80452996Y-25550000I-1252996J0D01*
G01*
X76900000Y-23350000D02*
X81500000Y-23350000D01*
X81500000Y-23350000D02*
X81500000Y-27850000D01*
X81500000Y-27850000D02*
X76900000Y-27850000D01*
X76900000Y-27850000D02*
X76900000Y-23350000D01*
X31350000Y-33750000D02*
X29850000Y-33750000D01*
X29850000Y-30750000D01*
X31350000Y-30750000D01*
X31350000Y-33750000D01*
X51850000Y-40700000D02*
X47350000Y-40700000D01*
X47350000Y-36200000D01*
X51850000Y-36200000D01*
X51850000Y-40700000D01*
D12*
X35740139Y-22119722D02*
G75*
G03*
X35740139Y-22119722I-90139J0D01*
G01*
D11*
X36220710Y-31150000D02*
G75*
G03*
X36220710Y-31150000I-70710J0D01*
G01*
D10*
X50802996Y-38500000D02*
G75*
G03*
X50802996Y-38500000I-1252996J0D01*
G01*
X32950000Y-37450000D02*
X31450000Y-37450000D01*
X31450000Y-34450000D01*
X32950000Y-34450000D01*
X32950000Y-37450000D01*
X32950000Y-33750000D02*
X31450000Y-33750000D01*
X31450000Y-30750000D01*
X32950000Y-30750000D01*
X32950000Y-33750000D01*
X33100000Y-35000000D02*
X36550000Y-35000000D01*
X36550000Y-35000000D02*
X36550000Y-30750000D01*
X36550000Y-30750000D02*
X33100000Y-30750000D01*
X33100000Y-30750000D02*
X33100000Y-35000000D01*
X37250000Y-29050000D02*
X40250000Y-29050000D01*
X40250000Y-29050000D02*
X40250000Y-27550000D01*
X40250000Y-27550000D02*
X37250000Y-27550000D01*
X37250000Y-27550000D02*
X37250000Y-29050000D01*
X67952996Y-25500000D02*
G75*
G03*
X67952996Y-25500000I-1252996J0D01*
G01*
X26425000Y-27699999D02*
X23425000Y-27700000D01*
X23425000Y-26200000D01*
X26425000Y-26200000D01*
X26425000Y-27699999D01*
X37250000Y-22900000D02*
X40250000Y-22900000D01*
X40250000Y-22900000D02*
X40250000Y-21400000D01*
X40250000Y-21400000D02*
X37250000Y-21400000D01*
X37250000Y-21400000D02*
X37250000Y-22900000D01*
X26425000Y-24399999D02*
X23425000Y-24400000D01*
X23425000Y-22900000D01*
X26425000Y-22900000D01*
X26425000Y-24399999D01*
D13*
X35850000Y-22950000D02*
X35050000Y-22950000D01*
D10*
X38252996Y-38600000D02*
G75*
G03*
X38252996Y-38600000I-1252996J0D01*
G01*
X26425000Y-29449999D02*
X23425000Y-29450000D01*
X23425000Y-27950000D01*
X26425000Y-27950000D01*
X26425000Y-29449999D01*
X64400000Y-23300000D02*
X69000000Y-23300000D01*
X69000000Y-23300000D02*
X69000000Y-27800000D01*
X69000000Y-27800000D02*
X64400000Y-27800000D01*
X64400000Y-27800000D02*
X64400000Y-23300000D01*
X37250000Y-27400000D02*
X40250000Y-27400000D01*
X40250000Y-27400000D02*
X40250000Y-25900000D01*
X40250000Y-25900000D02*
X37250000Y-25900000D01*
X37250000Y-25900000D02*
X37250000Y-27400000D01*
D14*
%TO.C,H2*%
X83175000Y-2800000D02*
G75*
G03*
X83175000Y-2800000I-2200000J0D01*
G01*
%TO.C,H4*%
X4950000Y-40300000D02*
G75*
G03*
X4950000Y-40300000I-2200000J0D01*
G01*
%TO.C,H3*%
X45425000Y-22550000D02*
G75*
G03*
X45425000Y-22550000I-2200000J0D01*
G01*
%TO.C,H5*%
X83175000Y-40300000D02*
G75*
G03*
X83175000Y-40300000I-2200000J0D01*
G01*
%TO.C,H1*%
X4950000Y-2800000D02*
G75*
G03*
X4950000Y-2800000I-2200000J0D01*
G01*
%TD*%
M02*
