%TF.GenerationSoftware,KiCad,Pcbnew,(6.0.6)*%
%TF.CreationDate,2022-07-20T13:38:39+10:00*%
%TF.ProjectId,SolderingInduction,536f6c64-6572-4696-9e67-496e64756374,3.5.0*%
%TF.SameCoordinates,Original*%
%TF.FileFunction,Legend,Top*%
%TF.FilePolarity,Positive*%
%FSLAX46Y46*%
G04 Gerber Fmt 4.6, Leading zero omitted, Abs format (unit mm)*
G04 Created by KiCad (PCBNEW (6.0.6)) date 2022-07-20 13:38:39*
%MOMM*%
%LPD*%
G01*
G04 APERTURE LIST*
G04 Aperture macros list*
%AMRoundRect*
0 Rectangle with rounded corners*
0 $1 Rounding radius*
0 $2 $3 $4 $5 $6 $7 $8 $9 X,Y pos of 4 corners*
0 Add a 4 corners polygon primitive as box body*
4,1,4,$2,$3,$4,$5,$6,$7,$8,$9,$2,$3,0*
0 Add four circle primitives for the rounded corners*
1,1,$1+$1,$2,$3*
1,1,$1+$1,$4,$5*
1,1,$1+$1,$6,$7*
1,1,$1+$1,$8,$9*
0 Add four rect primitives between the rounded corners*
20,1,$1+$1,$2,$3,$4,$5,0*
20,1,$1+$1,$4,$5,$6,$7,0*
20,1,$1+$1,$6,$7,$8,$9,0*
20,1,$1+$1,$8,$9,$2,$3,0*%
G04 Aperture macros list end*
%ADD10C,0.150000*%
%ADD11C,0.300000*%
%ADD12C,0.250000*%
%ADD13C,0.120000*%
%ADD14C,0.200000*%
%ADD15C,0.321747*%
%ADD16C,0.342468*%
%ADD17C,0.328828*%
%ADD18C,0.319200*%
%ADD19C,4.400000*%
%ADD20C,1.750000*%
%ADD21RoundRect,0.075000X-0.300000X-0.300000X0.300000X-0.300000X0.300000X0.300000X-0.300000X0.300000X0*%
%ADD22R,1.600000X1.400000*%
%ADD23C,2.000000*%
%ADD24RoundRect,0.250000X-0.250000X-0.475000X0.250000X-0.475000X0.250000X0.475000X-0.250000X0.475000X0*%
%ADD25R,1.400000X1.600000*%
%ADD26R,1.500000X1.000000*%
%ADD27RoundRect,0.075000X0.300000X-0.300000X0.300000X0.300000X-0.300000X0.300000X-0.300000X-0.300000X0*%
%ADD28C,0.990600*%
%ADD29C,0.787400*%
%ADD30R,1.700000X1.700000*%
%ADD31O,1.700000X1.700000*%
%ADD32C,0.600000*%
%ADD33O,0.900000X2.000000*%
%ADD34O,0.900000X1.700000*%
%ADD35C,0.800000*%
%ADD36C,0.450000*%
%ADD37C,0.508000*%
G04 APERTURE END LIST*
D10*
X38213529Y-39148864D02*
X35713529Y-39148864D01*
X18050000Y-4900000D02*
X20350000Y-4900000D01*
X21864919Y-39525608D02*
X22964919Y-39525608D01*
X22964919Y-39525608D02*
X22964919Y-38425608D01*
X22964919Y-38425608D02*
X21864919Y-38425608D01*
X21864919Y-38425608D02*
X21864919Y-39525608D01*
X18050000Y-5700000D02*
X20350000Y-5700000D01*
X20576530Y-20501829D02*
X21676530Y-20501829D01*
X21676530Y-20501829D02*
X21676530Y-19401829D01*
X21676530Y-19401829D02*
X20576530Y-19401829D01*
X20576530Y-19401829D02*
X20576530Y-20501829D01*
X38213529Y-39148936D02*
G75*
G03*
X38213529Y-37898864I-29J625036D01*
G01*
X18050000Y-4900000D02*
G75*
G03*
X18050000Y-5700000I-14100J-400000D01*
G01*
X50829128Y-39082954D02*
X48329128Y-39082954D01*
D11*
X18035900Y-5300000D02*
X20364100Y-5300000D01*
D10*
X48329128Y-37833046D02*
G75*
G03*
X48329128Y-39082954I-28J-624954D01*
G01*
G36*
X22625000Y-26149999D02*
G01*
X21025000Y-27750000D01*
X21025000Y-26950000D01*
X19825000Y-26950000D01*
X19825000Y-25350000D01*
X21025000Y-25350000D01*
X21025001Y-24550000D01*
X22625000Y-26149999D01*
G37*
X22625000Y-26149999D02*
X21025000Y-27750000D01*
X21025000Y-26950000D01*
X19825000Y-26950000D01*
X19825000Y-25350000D01*
X21025000Y-25350000D01*
X21025001Y-24550000D01*
X22625000Y-26149999D01*
X26700000Y-39700000D02*
G75*
G03*
X26700000Y-39700000I-50000J0D01*
G01*
X35713529Y-37898936D02*
G75*
G03*
X35713529Y-39148864I-29J-624964D01*
G01*
X8080694Y-12119892D02*
X9180694Y-12119892D01*
X9180694Y-12119892D02*
X9180694Y-11019892D01*
X9180694Y-11019892D02*
X8080694Y-11019892D01*
X8080694Y-11019892D02*
X8080694Y-12119892D01*
X67925000Y-25550000D02*
G75*
G03*
X67925000Y-25550000I-1204159J0D01*
G01*
X41381605Y-20013211D02*
X42481605Y-20013211D01*
X42481605Y-20013211D02*
X42481605Y-18913211D01*
X42481605Y-18913211D02*
X41381605Y-18913211D01*
X41381605Y-18913211D02*
X41381605Y-20013211D01*
X20350000Y-5700000D02*
G75*
G03*
X20350000Y-4900000I14100J400000D01*
G01*
X80429159Y-25545841D02*
G75*
G03*
X80429159Y-25545841I-1204159J0D01*
G01*
G36*
X14825000Y-18350000D02*
G01*
X14025000Y-18350000D01*
X14025000Y-19550000D01*
X12425000Y-19550000D01*
X12425000Y-18350000D01*
X11625000Y-18349999D01*
X13224999Y-16750000D01*
X14825000Y-18350000D01*
G37*
X14825000Y-18350000D02*
X14025000Y-18350000D01*
X14025000Y-19550000D01*
X12425000Y-19550000D01*
X12425000Y-18350000D01*
X11625000Y-18349999D01*
X13224999Y-16750000D01*
X14825000Y-18350000D01*
G36*
X5425000Y-25350000D02*
G01*
X6625000Y-25350000D01*
X6625000Y-26950000D01*
X5425000Y-26950000D01*
X5424999Y-27750000D01*
X3825000Y-26150001D01*
X5425000Y-24550000D01*
X5425000Y-25350000D01*
G37*
X5425000Y-25350000D02*
X6625000Y-25350000D01*
X6625000Y-26950000D01*
X5425000Y-26950000D01*
X5424999Y-27750000D01*
X3825000Y-26150001D01*
X5425000Y-24550000D01*
X5425000Y-25350000D01*
X31869343Y-20018978D02*
X32969343Y-20018978D01*
X32969343Y-20018978D02*
X32969343Y-18918978D01*
X32969343Y-18918978D02*
X31869343Y-18918978D01*
X31869343Y-18918978D02*
X31869343Y-20018978D01*
X50829128Y-39083046D02*
G75*
G03*
X50829128Y-37832954I-28J625046D01*
G01*
G36*
X14025000Y-33750000D02*
G01*
X14825000Y-33750000D01*
X13225000Y-35350000D01*
X11625000Y-33750000D01*
X12425000Y-33750000D01*
X12425000Y-32550000D01*
X14025000Y-32550000D01*
X14025000Y-33750000D01*
G37*
X14025000Y-33750000D02*
X14825000Y-33750000D01*
X13225000Y-35350000D01*
X11625000Y-33750000D01*
X12425000Y-33750000D01*
X12425000Y-32550000D01*
X14025000Y-32550000D01*
X14025000Y-33750000D01*
X50829128Y-37832954D02*
X48329128Y-37832954D01*
X38213529Y-37898864D02*
X35713529Y-37898864D01*
X17172343Y-16315728D02*
X18272343Y-16315728D01*
X18272343Y-16315728D02*
X18272343Y-15215728D01*
X18272343Y-15215728D02*
X17172343Y-15215728D01*
X17172343Y-15215728D02*
X17172343Y-16315728D01*
X32975912Y-21501642D02*
X34075912Y-21501642D01*
X34075912Y-21501642D02*
X34075912Y-20401642D01*
X34075912Y-20401642D02*
X32975912Y-20401642D01*
X32975912Y-20401642D02*
X32975912Y-21501642D01*
X8489224Y-7524389D02*
X9589224Y-7524389D01*
X9589224Y-7524389D02*
X9589224Y-6424389D01*
X9589224Y-6424389D02*
X8489224Y-6424389D01*
X8489224Y-6424389D02*
X8489224Y-7524389D01*
X7071516Y-15600363D02*
X8171516Y-15600363D01*
X8171516Y-15600363D02*
X8171516Y-14500363D01*
X8171516Y-14500363D02*
X7071516Y-14500363D01*
X7071516Y-14500363D02*
X7071516Y-15600363D01*
X59523029Y-9461887D02*
X59947293Y-9037623D01*
X60048308Y-9138638D01*
X60088714Y-9219450D01*
X60088714Y-9300262D01*
X60068511Y-9360871D01*
X60007902Y-9461887D01*
X59947293Y-9522496D01*
X59846277Y-9583105D01*
X59785668Y-9603308D01*
X59704856Y-9603308D01*
X59624044Y-9562902D01*
X59523029Y-9461887D01*
X59896785Y-9928577D02*
X59961435Y-9993227D01*
X60009922Y-10009389D01*
X60042247Y-10009389D01*
X60123059Y-9993227D01*
X60203871Y-9944740D01*
X60333171Y-9815440D01*
X60349333Y-9766953D01*
X60349333Y-9734628D01*
X60333171Y-9686141D01*
X60268521Y-9621491D01*
X60220034Y-9605328D01*
X60187709Y-9605328D01*
X60139222Y-9621491D01*
X60058410Y-9702303D01*
X60042247Y-9750790D01*
X60042247Y-9783115D01*
X60058410Y-9831602D01*
X60123059Y-9896252D01*
X60171547Y-9912415D01*
X60203871Y-9912415D01*
X60252359Y-9896252D01*
X37289323Y-9380059D02*
X37269120Y-9319450D01*
X37208511Y-9258841D01*
X37127699Y-9218435D01*
X37046887Y-9218435D01*
X36986277Y-9238638D01*
X36885262Y-9299247D01*
X36824653Y-9359856D01*
X36764044Y-9460871D01*
X36743841Y-9521481D01*
X36743841Y-9602293D01*
X36784247Y-9683105D01*
X36824653Y-9723511D01*
X36905465Y-9763917D01*
X36945871Y-9763917D01*
X37087293Y-9622496D01*
X37006481Y-9541684D01*
X37087293Y-9986151D02*
X37511557Y-9561887D01*
X37329729Y-10228587D01*
X37753993Y-9804323D01*
X37531760Y-10430618D02*
X37956024Y-10006354D01*
X38057039Y-10107369D01*
X38097445Y-10188181D01*
X38097445Y-10268993D01*
X38077242Y-10329603D01*
X38016633Y-10430618D01*
X37956024Y-10491227D01*
X37855009Y-10551836D01*
X37794400Y-10572039D01*
X37713587Y-10572039D01*
X37632775Y-10531633D01*
X37531760Y-10430618D01*
X34224044Y-9420465D02*
X34426074Y-9622496D01*
X34062420Y-9501277D02*
X34628105Y-9218435D01*
X34345262Y-9784120D01*
X34486684Y-9925542D02*
X34910948Y-9501277D01*
X35011963Y-9602293D01*
X35052369Y-9683105D01*
X35052369Y-9763917D01*
X35032166Y-9824526D01*
X34971557Y-9925542D01*
X34910948Y-9986151D01*
X34809932Y-10046760D01*
X34749323Y-10066963D01*
X34668511Y-10066963D01*
X34587699Y-10026557D01*
X34486684Y-9925542D01*
X35193790Y-10551836D02*
X35153384Y-10551836D01*
X35072572Y-10511430D01*
X35032166Y-10471024D01*
X34991760Y-10390212D01*
X34991760Y-10309400D01*
X35011963Y-10248790D01*
X35072572Y-10147775D01*
X35133181Y-10087166D01*
X35234196Y-10026557D01*
X35294806Y-10006354D01*
X35375618Y-10006354D01*
X35456430Y-10046760D01*
X35496836Y-10087166D01*
X35537242Y-10167978D01*
X35537242Y-10208384D01*
X35672603Y-10525572D02*
X35704928Y-10557897D01*
X35721090Y-10606384D01*
X35721090Y-10638709D01*
X35704928Y-10687197D01*
X35656440Y-10768009D01*
X35575628Y-10848821D01*
X35494816Y-10897308D01*
X35446329Y-10913471D01*
X35414004Y-10913471D01*
X35365516Y-10897308D01*
X35333191Y-10864983D01*
X35317029Y-10816496D01*
X35317029Y-10784171D01*
X35333191Y-10735684D01*
X35381679Y-10654872D01*
X35462491Y-10574059D01*
X35543303Y-10525572D01*
X35591790Y-10509410D01*
X35624115Y-10509410D01*
X35672603Y-10525572D01*
X35476800Y-38793999D02*
X35562515Y-38822570D01*
X35705372Y-38822570D01*
X35762515Y-38793999D01*
X35791086Y-38765427D01*
X35819657Y-38708284D01*
X35819657Y-38651142D01*
X35791086Y-38593999D01*
X35762515Y-38565427D01*
X35705372Y-38536856D01*
X35591086Y-38508284D01*
X35533943Y-38479713D01*
X35505372Y-38451142D01*
X35476800Y-38393999D01*
X35476800Y-38336856D01*
X35505372Y-38279713D01*
X35533943Y-38251142D01*
X35591086Y-38222570D01*
X35733943Y-38222570D01*
X35819657Y-38251142D01*
X36076800Y-38508284D02*
X36276800Y-38508284D01*
X36362515Y-38822570D02*
X36076800Y-38822570D01*
X36076800Y-38222570D01*
X36362515Y-38222570D01*
X36905372Y-38822570D02*
X36619657Y-38822570D01*
X36619657Y-38222570D01*
X37105372Y-38508284D02*
X37305372Y-38508284D01*
X37391086Y-38822570D02*
X37105372Y-38822570D01*
X37105372Y-38222570D01*
X37391086Y-38222570D01*
X37991086Y-38765427D02*
X37962515Y-38793999D01*
X37876800Y-38822570D01*
X37819657Y-38822570D01*
X37733943Y-38793999D01*
X37676800Y-38736856D01*
X37648229Y-38679713D01*
X37619657Y-38565427D01*
X37619657Y-38479713D01*
X37648229Y-38365427D01*
X37676800Y-38308284D01*
X37733943Y-38251142D01*
X37819657Y-38222570D01*
X37876800Y-38222570D01*
X37962515Y-38251142D01*
X37991086Y-38279713D01*
X38162515Y-38222570D02*
X38505372Y-38222570D01*
X38333943Y-38822570D02*
X38333943Y-38222570D01*
X65021887Y-2671970D02*
X64597623Y-2247706D01*
X64698638Y-2146691D01*
X64779450Y-2106285D01*
X64860262Y-2106285D01*
X64920871Y-2126488D01*
X65021887Y-2187097D01*
X65082496Y-2247706D01*
X65143105Y-2348722D01*
X65163308Y-2409331D01*
X65163308Y-2490143D01*
X65122902Y-2570955D01*
X65021887Y-2671970D01*
X65650202Y-2136589D02*
X65456252Y-2330539D01*
X65553227Y-2233564D02*
X65213816Y-1894153D01*
X65229978Y-1974965D01*
X65229978Y-2039615D01*
X65213816Y-2088102D01*
X65520902Y-1587066D02*
X65553227Y-1554742D01*
X65601714Y-1538579D01*
X65634039Y-1538579D01*
X65682526Y-1554742D01*
X65763339Y-1603229D01*
X65844151Y-1684041D01*
X65892638Y-1764853D01*
X65908801Y-1813341D01*
X65908801Y-1845666D01*
X65892638Y-1894153D01*
X65860313Y-1926478D01*
X65811826Y-1942640D01*
X65779501Y-1942640D01*
X65731014Y-1926478D01*
X65650202Y-1877990D01*
X65569389Y-1797178D01*
X65520902Y-1716366D01*
X65504740Y-1667879D01*
X65504740Y-1635554D01*
X65520902Y-1587066D01*
X67481074Y-2308315D02*
X67561887Y-2267909D01*
X67602293Y-2267909D01*
X67662902Y-2288112D01*
X67723511Y-2348722D01*
X67743714Y-2409331D01*
X67743714Y-2449737D01*
X67723511Y-2510346D01*
X67561887Y-2671970D01*
X67137623Y-2247706D01*
X67279044Y-2106285D01*
X67339653Y-2086082D01*
X67380059Y-2086082D01*
X67440668Y-2106285D01*
X67481074Y-2146691D01*
X67501277Y-2207300D01*
X67501277Y-2247706D01*
X67481074Y-2308315D01*
X67339653Y-2449737D01*
X67980090Y-2314376D02*
X68044740Y-2282051D01*
X68125552Y-2201239D01*
X68141714Y-2152752D01*
X68141714Y-2120427D01*
X68125552Y-2071940D01*
X68093227Y-2039615D01*
X68044740Y-2023452D01*
X68012415Y-2023452D01*
X67963927Y-2039615D01*
X67883115Y-2088102D01*
X67834628Y-2104265D01*
X67802303Y-2104265D01*
X67753816Y-2088102D01*
X67721491Y-2055777D01*
X67705328Y-2007290D01*
X67705328Y-1974965D01*
X67721491Y-1926478D01*
X67802303Y-1845666D01*
X67866953Y-1813341D01*
X67947765Y-1700204D02*
X68141714Y-1506254D01*
X68384151Y-1942640D02*
X68044740Y-1603229D01*
X68481125Y-1651716D02*
X68642750Y-1490092D01*
X68545775Y-1781016D02*
X68319501Y-1328467D01*
X68772049Y-1554742D01*
X69079136Y-1247655D02*
X68804374Y-1199168D01*
X68885186Y-1441605D02*
X68545775Y-1102193D01*
X68675075Y-972894D01*
X68723562Y-956731D01*
X68755887Y-956731D01*
X68804374Y-972894D01*
X68852862Y-1021381D01*
X68869024Y-1069868D01*
X68869024Y-1102193D01*
X68852862Y-1150681D01*
X68723562Y-1279980D01*
X68836699Y-811269D02*
X69030648Y-617320D01*
X69273085Y-1053706D02*
X68933674Y-714295D01*
X54443029Y-9461887D02*
X54867293Y-9037623D01*
X54968308Y-9138638D01*
X55008714Y-9219450D01*
X55008714Y-9300262D01*
X54988511Y-9360871D01*
X54927902Y-9461887D01*
X54867293Y-9522496D01*
X54766277Y-9583105D01*
X54705668Y-9603308D01*
X54624856Y-9603308D01*
X54544044Y-9562902D01*
X54443029Y-9461887D01*
X55107709Y-9540679D02*
X55317821Y-9750790D01*
X55075384Y-9766953D01*
X55123871Y-9815440D01*
X55140034Y-9863927D01*
X55140034Y-9896252D01*
X55123871Y-9944740D01*
X55043059Y-10025552D01*
X54994572Y-10041714D01*
X54962247Y-10041714D01*
X54913760Y-10025552D01*
X54816785Y-9928577D01*
X54800623Y-9880090D01*
X54800623Y-9847765D01*
X29043029Y-9521481D02*
X29083435Y-9602293D01*
X29184450Y-9703308D01*
X29245059Y-9723511D01*
X29285465Y-9723511D01*
X29346074Y-9703308D01*
X29386481Y-9662902D01*
X29406684Y-9602293D01*
X29406684Y-9561887D01*
X29386481Y-9501277D01*
X29325871Y-9400262D01*
X29305668Y-9339653D01*
X29305668Y-9299247D01*
X29325871Y-9238638D01*
X29366277Y-9198232D01*
X29426887Y-9178029D01*
X29467293Y-9178029D01*
X29527902Y-9198232D01*
X29628917Y-9299247D01*
X29669323Y-9380059D01*
X29447090Y-9965948D02*
X29871354Y-9541684D01*
X29972369Y-9642699D01*
X30012775Y-9723511D01*
X30012775Y-9804323D01*
X29992572Y-9864932D01*
X29931963Y-9965948D01*
X29871354Y-10026557D01*
X29770339Y-10087166D01*
X29709729Y-10107369D01*
X29628917Y-10107369D01*
X29548105Y-10066963D01*
X29447090Y-9965948D01*
X29972369Y-10248790D02*
X30174400Y-10450821D01*
X29810745Y-10329603D02*
X30376430Y-10046760D01*
X30093587Y-10612445D01*
X67143029Y-9461887D02*
X67567293Y-9037623D01*
X67668308Y-9138638D01*
X67708714Y-9219450D01*
X67708714Y-9300262D01*
X67688511Y-9360871D01*
X67627902Y-9461887D01*
X67567293Y-9522496D01*
X67466277Y-9583105D01*
X67405668Y-9603308D01*
X67324856Y-9603308D01*
X67244044Y-9562902D01*
X67143029Y-9461887D01*
X67678410Y-10090202D02*
X67484460Y-9896252D01*
X67581435Y-9993227D02*
X67920846Y-9653816D01*
X67840034Y-9669978D01*
X67775384Y-9669978D01*
X67726897Y-9653816D01*
X68130958Y-9863927D02*
X68341070Y-10074039D01*
X68098633Y-10090202D01*
X68147120Y-10138689D01*
X68163283Y-10187176D01*
X68163283Y-10219501D01*
X68147120Y-10267988D01*
X68066308Y-10348801D01*
X68017821Y-10364963D01*
X67985496Y-10364963D01*
X67937009Y-10348801D01*
X67840034Y-10251826D01*
X67823871Y-10203339D01*
X67823871Y-10171014D01*
X26886887Y-9097216D02*
X27149526Y-9359856D01*
X26846481Y-9380059D01*
X26907090Y-9440668D01*
X26927293Y-9501277D01*
X26927293Y-9541684D01*
X26907090Y-9602293D01*
X26806074Y-9703308D01*
X26745465Y-9723511D01*
X26705059Y-9723511D01*
X26644450Y-9703308D01*
X26523232Y-9582090D01*
X26503029Y-9521481D01*
X26503029Y-9481074D01*
X27270745Y-9481074D02*
X26987902Y-10046760D01*
X27553587Y-9763917D01*
X27654603Y-9864932D02*
X27917242Y-10127572D01*
X27614196Y-10147775D01*
X27674806Y-10208384D01*
X27695009Y-10268993D01*
X27695009Y-10309400D01*
X27674806Y-10370009D01*
X27573790Y-10471024D01*
X27513181Y-10491227D01*
X27472775Y-10491227D01*
X27412166Y-10471024D01*
X27290948Y-10349806D01*
X27270745Y-10289196D01*
X27270745Y-10248790D01*
X49363029Y-9461887D02*
X49787293Y-9037623D01*
X49888308Y-9138638D01*
X49928714Y-9219450D01*
X49928714Y-9300262D01*
X49908511Y-9360871D01*
X49847902Y-9461887D01*
X49787293Y-9522496D01*
X49686277Y-9583105D01*
X49625668Y-9603308D01*
X49544856Y-9603308D01*
X49464044Y-9562902D01*
X49363029Y-9461887D01*
X50027709Y-9540679D02*
X50253983Y-9766953D01*
X49769110Y-9960902D01*
X75389323Y-9280059D02*
X75369120Y-9219450D01*
X75308511Y-9158841D01*
X75227699Y-9118435D01*
X75146887Y-9118435D01*
X75086277Y-9138638D01*
X74985262Y-9199247D01*
X74924653Y-9259856D01*
X74864044Y-9360871D01*
X74843841Y-9421481D01*
X74843841Y-9502293D01*
X74884247Y-9583105D01*
X74924653Y-9623511D01*
X75005465Y-9663917D01*
X75045871Y-9663917D01*
X75187293Y-9522496D01*
X75106481Y-9441684D01*
X75187293Y-9886151D02*
X75611557Y-9461887D01*
X75429729Y-10128587D01*
X75853993Y-9704323D01*
X75631760Y-10330618D02*
X76056024Y-9906354D01*
X76157039Y-10007369D01*
X76197445Y-10088181D01*
X76197445Y-10168993D01*
X76177242Y-10229603D01*
X76116633Y-10330618D01*
X76056024Y-10391227D01*
X75955009Y-10451836D01*
X75894400Y-10472039D01*
X75813587Y-10472039D01*
X75732775Y-10431633D01*
X75631760Y-10330618D01*
X52321887Y-2671970D02*
X51897623Y-2247706D01*
X51998638Y-2146691D01*
X52079450Y-2106285D01*
X52160262Y-2106285D01*
X52220871Y-2126488D01*
X52321887Y-2187097D01*
X52382496Y-2247706D01*
X52443105Y-2348722D01*
X52463308Y-2409331D01*
X52463308Y-2490143D01*
X52422902Y-2570955D01*
X52321887Y-2671970D01*
X52449166Y-2023452D02*
X52449166Y-1991128D01*
X52465328Y-1942640D01*
X52546141Y-1861828D01*
X52594628Y-1845666D01*
X52626953Y-1845666D01*
X52675440Y-1861828D01*
X52707765Y-1894153D01*
X52740090Y-1958803D01*
X52740090Y-2346701D01*
X52950202Y-2136589D01*
X51903029Y-9461887D02*
X52327293Y-9037623D01*
X52428308Y-9138638D01*
X52468714Y-9219450D01*
X52468714Y-9300262D01*
X52448511Y-9360871D01*
X52387902Y-9461887D01*
X52327293Y-9522496D01*
X52226277Y-9583105D01*
X52165668Y-9603308D01*
X52084856Y-9603308D01*
X52004044Y-9562902D01*
X51903029Y-9461887D01*
X52438410Y-10090202D02*
X52244460Y-9896252D01*
X52341435Y-9993227D02*
X52680846Y-9653816D01*
X52600034Y-9669978D01*
X52535384Y-9669978D01*
X52486897Y-9653816D01*
X29239653Y-2045676D02*
X29037623Y-2247706D01*
X29219450Y-2469940D01*
X29219450Y-2429534D01*
X29239653Y-2368925D01*
X29340668Y-2267909D01*
X29401277Y-2247706D01*
X29441684Y-2247706D01*
X29502293Y-2267909D01*
X29603308Y-2368925D01*
X29623511Y-2429534D01*
X29623511Y-2469940D01*
X29603308Y-2530549D01*
X29502293Y-2631564D01*
X29441684Y-2651767D01*
X29401277Y-2651767D01*
X29381074Y-1904254D02*
X29946760Y-2187097D01*
X29663917Y-1621412D01*
X75000059Y-2045676D02*
X74939450Y-2065879D01*
X74878841Y-2126488D01*
X74838435Y-2207300D01*
X74838435Y-2288112D01*
X74858638Y-2348722D01*
X74919247Y-2449737D01*
X74979856Y-2510346D01*
X75080871Y-2570955D01*
X75141481Y-2591158D01*
X75222293Y-2591158D01*
X75303105Y-2550752D01*
X75343511Y-2510346D01*
X75383917Y-2429534D01*
X75383917Y-2389128D01*
X75242496Y-2247706D01*
X75161684Y-2328518D01*
X75606151Y-2247706D02*
X75181887Y-1823442D01*
X75848587Y-2005270D01*
X75424323Y-1581006D01*
X76050618Y-1803239D02*
X75626354Y-1378975D01*
X75727369Y-1277960D01*
X75808181Y-1237554D01*
X75888993Y-1237554D01*
X75949603Y-1257757D01*
X76050618Y-1318366D01*
X76111227Y-1378975D01*
X76171836Y-1479990D01*
X76192039Y-1540599D01*
X76192039Y-1621412D01*
X76151633Y-1702224D01*
X76050618Y-1803239D01*
X34400465Y-2570955D02*
X34602496Y-2368925D01*
X34481277Y-2732579D02*
X34198435Y-2166894D01*
X34764120Y-2449737D01*
X34905542Y-2308315D02*
X34481277Y-1884051D01*
X34582293Y-1783036D01*
X34663105Y-1742630D01*
X34743917Y-1742630D01*
X34804526Y-1762833D01*
X34905542Y-1823442D01*
X34966151Y-1884051D01*
X35026760Y-1985067D01*
X35046963Y-2045676D01*
X35046963Y-2126488D01*
X35006557Y-2207300D01*
X34905542Y-2308315D01*
X35531836Y-1601209D02*
X35531836Y-1641615D01*
X35491430Y-1722427D01*
X35451024Y-1762833D01*
X35370212Y-1803239D01*
X35289400Y-1803239D01*
X35228790Y-1783036D01*
X35127775Y-1722427D01*
X35067166Y-1661818D01*
X35006557Y-1560803D01*
X34986354Y-1500193D01*
X34986354Y-1419381D01*
X35026760Y-1338569D01*
X35067166Y-1298163D01*
X35147978Y-1257757D01*
X35188384Y-1257757D01*
X35958121Y-1348670D02*
X35764171Y-1542620D01*
X35861146Y-1445645D02*
X35521735Y-1106234D01*
X35537897Y-1187046D01*
X35537897Y-1251696D01*
X35521735Y-1300183D01*
X47449323Y-9380059D02*
X47429120Y-9319450D01*
X47368511Y-9258841D01*
X47287699Y-9218435D01*
X47206887Y-9218435D01*
X47146277Y-9238638D01*
X47045262Y-9299247D01*
X46984653Y-9359856D01*
X46924044Y-9460871D01*
X46903841Y-9521481D01*
X46903841Y-9602293D01*
X46944247Y-9683105D01*
X46984653Y-9723511D01*
X47065465Y-9763917D01*
X47105871Y-9763917D01*
X47247293Y-9622496D01*
X47166481Y-9541684D01*
X47247293Y-9986151D02*
X47671557Y-9561887D01*
X47489729Y-10228587D01*
X47913993Y-9804323D01*
X47691760Y-10430618D02*
X48116024Y-10006354D01*
X48217039Y-10107369D01*
X48257445Y-10188181D01*
X48257445Y-10268993D01*
X48237242Y-10329603D01*
X48176633Y-10430618D01*
X48116024Y-10491227D01*
X48015009Y-10551836D01*
X47954400Y-10572039D01*
X47873587Y-10572039D01*
X47792775Y-10531633D01*
X47691760Y-10430618D01*
X59941887Y-2671970D02*
X59517623Y-2247706D01*
X59618638Y-2146691D01*
X59699450Y-2106285D01*
X59780262Y-2106285D01*
X59840871Y-2126488D01*
X59941887Y-2187097D01*
X60002496Y-2247706D01*
X60063105Y-2348722D01*
X60083308Y-2409331D01*
X60083308Y-2490143D01*
X60042902Y-2570955D01*
X59941887Y-2671970D01*
X60570202Y-2136589D02*
X60376252Y-2330539D01*
X60473227Y-2233564D02*
X60133816Y-1894153D01*
X60149978Y-1974965D01*
X60149978Y-2039615D01*
X60133816Y-2088102D01*
X60440902Y-1587066D02*
X60473227Y-1554742D01*
X60521714Y-1538579D01*
X60554039Y-1538579D01*
X60602526Y-1554742D01*
X60683339Y-1603229D01*
X60764151Y-1684041D01*
X60812638Y-1764853D01*
X60828801Y-1813341D01*
X60828801Y-1845666D01*
X60812638Y-1894153D01*
X60780313Y-1926478D01*
X60731826Y-1942640D01*
X60699501Y-1942640D01*
X60651014Y-1926478D01*
X60570202Y-1877990D01*
X60489389Y-1797178D01*
X60440902Y-1716366D01*
X60424740Y-1667879D01*
X60424740Y-1635554D01*
X60440902Y-1587066D01*
X54861887Y-2671970D02*
X54437623Y-2247706D01*
X54538638Y-2146691D01*
X54619450Y-2106285D01*
X54700262Y-2106285D01*
X54760871Y-2126488D01*
X54861887Y-2187097D01*
X54922496Y-2247706D01*
X54983105Y-2348722D01*
X55003308Y-2409331D01*
X55003308Y-2490143D01*
X54962902Y-2570955D01*
X54861887Y-2671970D01*
X55134628Y-1813341D02*
X54973003Y-1974965D01*
X55118465Y-2152752D01*
X55118465Y-2120427D01*
X55134628Y-2071940D01*
X55215440Y-1991128D01*
X55263927Y-1974965D01*
X55296252Y-1974965D01*
X55344740Y-1991128D01*
X55425552Y-2071940D01*
X55441714Y-2120427D01*
X55441714Y-2152752D01*
X55425552Y-2201239D01*
X55344740Y-2282051D01*
X55296252Y-2298214D01*
X55263927Y-2298214D01*
X6986053Y-39921428D02*
X6700339Y-39921428D01*
X6775339Y-39321428D01*
X7178910Y-39750000D02*
X7464625Y-39750000D01*
X7100339Y-39921428D02*
X7375339Y-39321428D01*
X7500339Y-39921428D01*
X7850339Y-39635714D02*
X7814625Y-39921428D01*
X7689625Y-39321428D02*
X7850339Y-39635714D01*
X8089625Y-39321428D01*
X8253910Y-39607142D02*
X8453910Y-39607142D01*
X8500339Y-39921428D02*
X8214625Y-39921428D01*
X8289625Y-39321428D01*
X8575339Y-39321428D01*
X9100339Y-39921428D02*
X8936053Y-39635714D01*
X8757482Y-39921428D02*
X8832482Y-39321428D01*
X9061053Y-39321428D01*
X9114625Y-39350000D01*
X9139625Y-39378571D01*
X9161053Y-39435714D01*
X9150339Y-39521428D01*
X9114625Y-39578571D01*
X9082482Y-39607142D01*
X9021767Y-39635714D01*
X8793196Y-39635714D01*
X9814625Y-39921428D02*
X9889625Y-39321428D01*
X10157482Y-39921428D02*
X9943196Y-39578571D01*
X10232482Y-39321428D02*
X9846767Y-39664285D01*
X10453910Y-39607142D02*
X10653910Y-39607142D01*
X10700339Y-39921428D02*
X10414625Y-39921428D01*
X10489625Y-39321428D01*
X10775339Y-39321428D01*
X11107482Y-39635714D02*
X11071767Y-39921428D01*
X10946767Y-39321428D02*
X11107482Y-39635714D01*
X11346767Y-39321428D01*
X72561074Y-2308315D02*
X72641887Y-2267909D01*
X72682293Y-2267909D01*
X72742902Y-2288112D01*
X72803511Y-2348722D01*
X72823714Y-2409331D01*
X72823714Y-2449737D01*
X72803511Y-2510346D01*
X72641887Y-2671970D01*
X72217623Y-2247706D01*
X72359044Y-2106285D01*
X72419653Y-2086082D01*
X72460059Y-2086082D01*
X72520668Y-2106285D01*
X72561074Y-2146691D01*
X72581277Y-2207300D01*
X72581277Y-2247706D01*
X72561074Y-2308315D01*
X72419653Y-2449737D01*
X73027765Y-2023452D02*
X73092415Y-1991128D01*
X73124740Y-1991128D01*
X73173227Y-2007290D01*
X73221714Y-2055777D01*
X73237877Y-2104265D01*
X73237877Y-2136589D01*
X73221714Y-2185077D01*
X73092415Y-2314376D01*
X72753003Y-1974965D01*
X72866141Y-1861828D01*
X72914628Y-1845666D01*
X72946953Y-1845666D01*
X72995440Y-1861828D01*
X73027765Y-1894153D01*
X73043927Y-1942640D01*
X73043927Y-1974965D01*
X73027765Y-2023452D01*
X72914628Y-2136589D01*
X26699653Y-2045676D02*
X26497623Y-2247706D01*
X26679450Y-2469940D01*
X26679450Y-2429534D01*
X26699653Y-2368925D01*
X26800668Y-2267909D01*
X26861277Y-2247706D01*
X26901684Y-2247706D01*
X26962293Y-2267909D01*
X27063308Y-2368925D01*
X27083511Y-2429534D01*
X27083511Y-2469940D01*
X27063308Y-2530549D01*
X26962293Y-2631564D01*
X26901684Y-2651767D01*
X26861277Y-2651767D01*
X26841074Y-1904254D02*
X27406760Y-2187097D01*
X27123917Y-1621412D01*
X41980059Y-2045676D02*
X41919450Y-2065879D01*
X41858841Y-2126488D01*
X41818435Y-2207300D01*
X41818435Y-2288112D01*
X41838638Y-2348722D01*
X41899247Y-2449737D01*
X41959856Y-2510346D01*
X42060871Y-2570955D01*
X42121481Y-2591158D01*
X42202293Y-2591158D01*
X42283105Y-2550752D01*
X42323511Y-2510346D01*
X42363917Y-2429534D01*
X42363917Y-2389128D01*
X42222496Y-2247706D01*
X42141684Y-2328518D01*
X42586151Y-2247706D02*
X42161887Y-1823442D01*
X42828587Y-2005270D01*
X42404323Y-1581006D01*
X43030618Y-1803239D02*
X42606354Y-1378975D01*
X42707369Y-1277960D01*
X42788181Y-1237554D01*
X42868993Y-1237554D01*
X42929603Y-1257757D01*
X43030618Y-1318366D01*
X43091227Y-1378975D01*
X43151836Y-1479990D01*
X43172039Y-1540599D01*
X43172039Y-1621412D01*
X43131633Y-1702224D01*
X43030618Y-1803239D01*
X62063029Y-9461887D02*
X62487293Y-9037623D01*
X62588308Y-9138638D01*
X62628714Y-9219450D01*
X62628714Y-9300262D01*
X62608511Y-9360871D01*
X62547902Y-9461887D01*
X62487293Y-9522496D01*
X62386277Y-9583105D01*
X62325668Y-9603308D01*
X62244856Y-9603308D01*
X62164044Y-9562902D01*
X62063029Y-9461887D01*
X62598410Y-10090202D02*
X62404460Y-9896252D01*
X62501435Y-9993227D02*
X62840846Y-9653816D01*
X62760034Y-9669978D01*
X62695384Y-9669978D01*
X62646897Y-9653816D01*
X62921658Y-10413450D02*
X62727709Y-10219501D01*
X62824684Y-10316476D02*
X63164095Y-9977064D01*
X63083283Y-9993227D01*
X63018633Y-9993227D01*
X62970146Y-9977064D01*
X48418413Y-38725811D02*
X48504128Y-38754382D01*
X48646985Y-38754382D01*
X48704128Y-38725811D01*
X48732699Y-38697239D01*
X48761270Y-38640096D01*
X48761270Y-38582954D01*
X48732699Y-38525811D01*
X48704128Y-38497239D01*
X48646985Y-38468668D01*
X48532699Y-38440096D01*
X48475556Y-38411525D01*
X48446985Y-38382954D01*
X48418413Y-38325811D01*
X48418413Y-38268668D01*
X48446985Y-38211525D01*
X48475556Y-38182954D01*
X48532699Y-38154382D01*
X48675556Y-38154382D01*
X48761270Y-38182954D01*
X48932699Y-38154382D02*
X49275556Y-38154382D01*
X49104128Y-38754382D02*
X49104128Y-38154382D01*
X49446985Y-38582954D02*
X49732699Y-38582954D01*
X49389842Y-38754382D02*
X49589842Y-38154382D01*
X49789842Y-38754382D01*
X50332699Y-38754382D02*
X50132699Y-38468668D01*
X49989842Y-38754382D02*
X49989842Y-38154382D01*
X50218413Y-38154382D01*
X50275556Y-38182954D01*
X50304128Y-38211525D01*
X50332699Y-38268668D01*
X50332699Y-38354382D01*
X50304128Y-38411525D01*
X50275556Y-38440096D01*
X50218413Y-38468668D01*
X49989842Y-38468668D01*
X50504128Y-38154382D02*
X50846985Y-38154382D01*
X50675556Y-38754382D02*
X50675556Y-38154382D01*
X70046684Y-9381074D02*
X70087090Y-9461887D01*
X70087090Y-9502293D01*
X70066887Y-9562902D01*
X70006277Y-9623511D01*
X69945668Y-9643714D01*
X69905262Y-9643714D01*
X69844653Y-9623511D01*
X69683029Y-9461887D01*
X70107293Y-9037623D01*
X70248714Y-9179044D01*
X70268917Y-9239653D01*
X70268917Y-9280059D01*
X70248714Y-9340668D01*
X70208308Y-9381074D01*
X70147699Y-9401277D01*
X70107293Y-9401277D01*
X70046684Y-9381074D01*
X69905262Y-9239653D01*
X70040623Y-9880090D02*
X70072948Y-9944740D01*
X70153760Y-10025552D01*
X70202247Y-10041714D01*
X70234572Y-10041714D01*
X70283059Y-10025552D01*
X70315384Y-9993227D01*
X70331547Y-9944740D01*
X70331547Y-9912415D01*
X70315384Y-9863927D01*
X70266897Y-9783115D01*
X70250734Y-9734628D01*
X70250734Y-9702303D01*
X70266897Y-9653816D01*
X70299222Y-9621491D01*
X70347709Y-9605328D01*
X70380034Y-9605328D01*
X70428521Y-9621491D01*
X70509333Y-9702303D01*
X70541658Y-9766953D01*
X70541658Y-10057877D02*
X70654795Y-10171014D01*
X70525496Y-10397288D02*
X70363871Y-10235663D01*
X70703283Y-9896252D01*
X70864907Y-10057877D01*
X70832582Y-10704374D02*
X70670958Y-10542750D01*
X71010369Y-10203339D01*
X71123506Y-10639725D02*
X71236643Y-10752862D01*
X71107344Y-10979136D02*
X70945719Y-10817511D01*
X71285131Y-10478100D01*
X71446755Y-10639725D01*
X71479080Y-11286222D02*
X71446755Y-11286222D01*
X71382105Y-11253897D01*
X71349780Y-11221572D01*
X71317455Y-11156923D01*
X71317455Y-11092273D01*
X71333618Y-11043786D01*
X71382105Y-10962973D01*
X71430593Y-10914486D01*
X71511405Y-10865999D01*
X71559892Y-10849836D01*
X71624542Y-10849836D01*
X71689192Y-10882161D01*
X71721517Y-10914486D01*
X71753841Y-10979136D01*
X71753841Y-11011461D01*
X71883141Y-11076110D02*
X72077090Y-11270060D01*
X71640704Y-11512496D02*
X71980116Y-11173085D01*
X64603029Y-9461887D02*
X65027293Y-9037623D01*
X65128308Y-9138638D01*
X65168714Y-9219450D01*
X65168714Y-9300262D01*
X65148511Y-9360871D01*
X65087902Y-9461887D01*
X65027293Y-9522496D01*
X64926277Y-9583105D01*
X64865668Y-9603308D01*
X64784856Y-9603308D01*
X64704044Y-9562902D01*
X64603029Y-9461887D01*
X65203059Y-9766953D02*
X65186897Y-9718465D01*
X65186897Y-9686141D01*
X65203059Y-9637653D01*
X65219222Y-9621491D01*
X65267709Y-9605328D01*
X65300034Y-9605328D01*
X65348521Y-9621491D01*
X65413171Y-9686141D01*
X65429333Y-9734628D01*
X65429333Y-9766953D01*
X65413171Y-9815440D01*
X65397009Y-9831602D01*
X65348521Y-9847765D01*
X65316196Y-9847765D01*
X65267709Y-9831602D01*
X65203059Y-9766953D01*
X65154572Y-9750790D01*
X65122247Y-9750790D01*
X65073760Y-9766953D01*
X65009110Y-9831602D01*
X64992948Y-9880090D01*
X64992948Y-9912415D01*
X65009110Y-9960902D01*
X65073760Y-10025552D01*
X65122247Y-10041714D01*
X65154572Y-10041714D01*
X65203059Y-10025552D01*
X65267709Y-9960902D01*
X65283871Y-9912415D01*
X65283871Y-9880090D01*
X65267709Y-9831602D01*
X72586684Y-9381074D02*
X72627090Y-9461887D01*
X72627090Y-9502293D01*
X72606887Y-9562902D01*
X72546277Y-9623511D01*
X72485668Y-9643714D01*
X72445262Y-9643714D01*
X72384653Y-9623511D01*
X72223029Y-9461887D01*
X72647293Y-9037623D01*
X72788714Y-9179044D01*
X72808917Y-9239653D01*
X72808917Y-9280059D01*
X72788714Y-9340668D01*
X72748308Y-9381074D01*
X72687699Y-9401277D01*
X72647293Y-9401277D01*
X72586684Y-9381074D01*
X72445262Y-9239653D01*
X72661435Y-9799278D02*
X72823059Y-9960902D01*
X72532135Y-9863927D02*
X72984684Y-9637653D01*
X72758410Y-10090202D01*
X57401887Y-2671970D02*
X56977623Y-2247706D01*
X57078638Y-2146691D01*
X57159450Y-2106285D01*
X57240262Y-2106285D01*
X57300871Y-2126488D01*
X57401887Y-2187097D01*
X57462496Y-2247706D01*
X57523105Y-2348722D01*
X57543308Y-2409331D01*
X57543308Y-2490143D01*
X57502902Y-2570955D01*
X57401887Y-2671970D01*
X57658465Y-1829503D02*
X57593816Y-1894153D01*
X57577653Y-1942640D01*
X57577653Y-1974965D01*
X57593816Y-2055777D01*
X57642303Y-2136589D01*
X57771602Y-2265889D01*
X57820090Y-2282051D01*
X57852415Y-2282051D01*
X57900902Y-2265889D01*
X57965552Y-2201239D01*
X57981714Y-2152752D01*
X57981714Y-2120427D01*
X57965552Y-2071940D01*
X57884740Y-1991128D01*
X57836252Y-1974965D01*
X57803927Y-1974965D01*
X57755440Y-1991128D01*
X57690790Y-2055777D01*
X57674628Y-2104265D01*
X57674628Y-2136589D01*
X57690790Y-2185077D01*
X62300059Y-2045676D02*
X62239450Y-2065879D01*
X62178841Y-2126488D01*
X62138435Y-2207300D01*
X62138435Y-2288112D01*
X62158638Y-2348722D01*
X62219247Y-2449737D01*
X62279856Y-2510346D01*
X62380871Y-2570955D01*
X62441481Y-2591158D01*
X62522293Y-2591158D01*
X62603105Y-2550752D01*
X62643511Y-2510346D01*
X62683917Y-2429534D01*
X62683917Y-2389128D01*
X62542496Y-2247706D01*
X62461684Y-2328518D01*
X62906151Y-2247706D02*
X62481887Y-1823442D01*
X63148587Y-2005270D01*
X62724323Y-1581006D01*
X63350618Y-1803239D02*
X62926354Y-1378975D01*
X63027369Y-1277960D01*
X63108181Y-1237554D01*
X63188993Y-1237554D01*
X63249603Y-1257757D01*
X63350618Y-1318366D01*
X63411227Y-1378975D01*
X63471836Y-1479990D01*
X63492039Y-1540599D01*
X63492039Y-1621412D01*
X63451633Y-1702224D01*
X63350618Y-1803239D01*
X49600059Y-2045676D02*
X49539450Y-2065879D01*
X49478841Y-2126488D01*
X49438435Y-2207300D01*
X49438435Y-2288112D01*
X49458638Y-2348722D01*
X49519247Y-2449737D01*
X49579856Y-2510346D01*
X49680871Y-2570955D01*
X49741481Y-2591158D01*
X49822293Y-2591158D01*
X49903105Y-2550752D01*
X49943511Y-2510346D01*
X49983917Y-2429534D01*
X49983917Y-2389128D01*
X49842496Y-2247706D01*
X49761684Y-2328518D01*
X50206151Y-2247706D02*
X49781887Y-1823442D01*
X50448587Y-2005270D01*
X50024323Y-1581006D01*
X50650618Y-1803239D02*
X50226354Y-1378975D01*
X50327369Y-1277960D01*
X50408181Y-1237554D01*
X50488993Y-1237554D01*
X50549603Y-1257757D01*
X50650618Y-1318366D01*
X50711227Y-1378975D01*
X50771836Y-1479990D01*
X50792039Y-1540599D01*
X50792039Y-1621412D01*
X50751633Y-1702224D01*
X50650618Y-1803239D01*
X44560465Y-2570955D02*
X44762496Y-2368925D01*
X44641277Y-2732579D02*
X44358435Y-2166894D01*
X44924120Y-2449737D01*
X45065542Y-2308315D02*
X44641277Y-1884051D01*
X44742293Y-1783036D01*
X44823105Y-1742630D01*
X44903917Y-1742630D01*
X44964526Y-1762833D01*
X45065542Y-1823442D01*
X45126151Y-1884051D01*
X45186760Y-1985067D01*
X45206963Y-2045676D01*
X45206963Y-2126488D01*
X45166557Y-2207300D01*
X45065542Y-2308315D01*
X45691836Y-1601209D02*
X45691836Y-1641615D01*
X45651430Y-1722427D01*
X45611024Y-1762833D01*
X45530212Y-1803239D01*
X45449400Y-1803239D01*
X45388790Y-1783036D01*
X45287775Y-1722427D01*
X45227166Y-1661818D01*
X45166557Y-1560803D01*
X45146354Y-1500193D01*
X45146354Y-1419381D01*
X45186760Y-1338569D01*
X45227166Y-1298163D01*
X45307978Y-1257757D01*
X45348384Y-1257757D01*
X45617085Y-1235533D02*
X45617085Y-1203209D01*
X45633247Y-1154721D01*
X45714059Y-1073909D01*
X45762547Y-1057747D01*
X45794872Y-1057747D01*
X45843359Y-1073909D01*
X45875684Y-1106234D01*
X45908009Y-1170884D01*
X45908009Y-1558782D01*
X46118121Y-1348670D01*
X57609323Y-9280059D02*
X57589120Y-9219450D01*
X57528511Y-9158841D01*
X57447699Y-9118435D01*
X57366887Y-9118435D01*
X57306277Y-9138638D01*
X57205262Y-9199247D01*
X57144653Y-9259856D01*
X57084044Y-9360871D01*
X57063841Y-9421481D01*
X57063841Y-9502293D01*
X57104247Y-9583105D01*
X57144653Y-9623511D01*
X57225465Y-9663917D01*
X57265871Y-9663917D01*
X57407293Y-9522496D01*
X57326481Y-9441684D01*
X57407293Y-9886151D02*
X57831557Y-9461887D01*
X57649729Y-10128587D01*
X58073993Y-9704323D01*
X57851760Y-10330618D02*
X58276024Y-9906354D01*
X58377039Y-10007369D01*
X58417445Y-10088181D01*
X58417445Y-10168993D01*
X58397242Y-10229603D01*
X58336633Y-10330618D01*
X58276024Y-10391227D01*
X58175009Y-10451836D01*
X58114400Y-10472039D01*
X58033587Y-10472039D01*
X57952775Y-10431633D01*
X57851760Y-10330618D01*
D12*
X79296428Y-25528571D02*
X79439285Y-25576190D01*
X79486904Y-25623809D01*
X79534523Y-25719047D01*
X79534523Y-25861904D01*
X79486904Y-25957142D01*
X79439285Y-26004761D01*
X79344047Y-26052380D01*
X78963095Y-26052380D01*
X78963095Y-25052380D01*
X79296428Y-25052380D01*
X79391666Y-25100000D01*
X79439285Y-25147619D01*
X79486904Y-25242857D01*
X79486904Y-25338095D01*
X79439285Y-25433333D01*
X79391666Y-25480952D01*
X79296428Y-25528571D01*
X78963095Y-25528571D01*
D10*
X17400000Y-6155428D02*
X17400000Y-6641142D01*
X17428571Y-6698285D01*
X17457142Y-6726857D01*
X17514285Y-6755428D01*
X17628571Y-6755428D01*
X17685714Y-6726857D01*
X17714285Y-6698285D01*
X17742857Y-6641142D01*
X17742857Y-6155428D01*
X18000000Y-6726857D02*
X18085714Y-6755428D01*
X18228571Y-6755428D01*
X18285714Y-6726857D01*
X18314285Y-6698285D01*
X18342857Y-6641142D01*
X18342857Y-6584000D01*
X18314285Y-6526857D01*
X18285714Y-6498285D01*
X18228571Y-6469714D01*
X18114285Y-6441142D01*
X18057142Y-6412571D01*
X18028571Y-6384000D01*
X18000000Y-6326857D01*
X18000000Y-6269714D01*
X18028571Y-6212571D01*
X18057142Y-6184000D01*
X18114285Y-6155428D01*
X18257142Y-6155428D01*
X18342857Y-6184000D01*
X18800000Y-6441142D02*
X18885714Y-6469714D01*
X18914285Y-6498285D01*
X18942857Y-6555428D01*
X18942857Y-6641142D01*
X18914285Y-6698285D01*
X18885714Y-6726857D01*
X18828571Y-6755428D01*
X18600000Y-6755428D01*
X18600000Y-6155428D01*
X18800000Y-6155428D01*
X18857142Y-6184000D01*
X18885714Y-6212571D01*
X18914285Y-6269714D01*
X18914285Y-6326857D01*
X18885714Y-6384000D01*
X18857142Y-6412571D01*
X18800000Y-6441142D01*
X18600000Y-6441142D01*
X19628571Y-6212571D02*
X19657142Y-6184000D01*
X19714285Y-6155428D01*
X19857142Y-6155428D01*
X19914285Y-6184000D01*
X19942857Y-6212571D01*
X19971428Y-6269714D01*
X19971428Y-6326857D01*
X19942857Y-6412571D01*
X19600000Y-6755428D01*
X19971428Y-6755428D01*
X20228571Y-6698285D02*
X20257142Y-6726857D01*
X20228571Y-6755428D01*
X20200000Y-6726857D01*
X20228571Y-6698285D01*
X20228571Y-6755428D01*
X20628571Y-6155428D02*
X20685714Y-6155428D01*
X20742857Y-6184000D01*
X20771428Y-6212571D01*
X20800000Y-6269714D01*
X20828571Y-6384000D01*
X20828571Y-6526857D01*
X20800000Y-6641142D01*
X20771428Y-6698285D01*
X20742857Y-6726857D01*
X20685714Y-6755428D01*
X20628571Y-6755428D01*
X20571428Y-6726857D01*
X20542857Y-6698285D01*
X20514285Y-6641142D01*
X20485714Y-6526857D01*
X20485714Y-6384000D01*
X20514285Y-6269714D01*
X20542857Y-6212571D01*
X20571428Y-6184000D01*
X20628571Y-6155428D01*
X16157142Y-7121428D02*
X16500000Y-7121428D01*
X16328571Y-7721428D02*
X16328571Y-7121428D01*
X16642857Y-7321428D02*
X16785714Y-7721428D01*
X16928571Y-7321428D02*
X16785714Y-7721428D01*
X16728571Y-7864285D01*
X16700000Y-7892857D01*
X16642857Y-7921428D01*
X17157142Y-7321428D02*
X17157142Y-7921428D01*
X17157142Y-7350000D02*
X17214285Y-7321428D01*
X17328571Y-7321428D01*
X17385714Y-7350000D01*
X17414285Y-7378571D01*
X17442857Y-7435714D01*
X17442857Y-7607142D01*
X17414285Y-7664285D01*
X17385714Y-7692857D01*
X17328571Y-7721428D01*
X17214285Y-7721428D01*
X17157142Y-7692857D01*
X17928571Y-7692857D02*
X17871428Y-7721428D01*
X17757142Y-7721428D01*
X17700000Y-7692857D01*
X17671428Y-7635714D01*
X17671428Y-7407142D01*
X17700000Y-7350000D01*
X17757142Y-7321428D01*
X17871428Y-7321428D01*
X17928571Y-7350000D01*
X17957142Y-7407142D01*
X17957142Y-7464285D01*
X17671428Y-7521428D01*
X18214285Y-7492857D02*
X18671428Y-7492857D01*
X19300000Y-7664285D02*
X19271428Y-7692857D01*
X19185714Y-7721428D01*
X19128571Y-7721428D01*
X19042857Y-7692857D01*
X18985714Y-7635714D01*
X18957142Y-7578571D01*
X18928571Y-7464285D01*
X18928571Y-7378571D01*
X18957142Y-7264285D01*
X18985714Y-7207142D01*
X19042857Y-7150000D01*
X19128571Y-7121428D01*
X19185714Y-7121428D01*
X19271428Y-7150000D01*
X19300000Y-7178571D01*
X20357142Y-7664285D02*
X20328571Y-7692857D01*
X20242857Y-7721428D01*
X20185714Y-7721428D01*
X20100000Y-7692857D01*
X20042857Y-7635714D01*
X20014285Y-7578571D01*
X19985714Y-7464285D01*
X19985714Y-7378571D01*
X20014285Y-7264285D01*
X20042857Y-7207142D01*
X20100000Y-7150000D01*
X20185714Y-7121428D01*
X20242857Y-7121428D01*
X20328571Y-7150000D01*
X20357142Y-7178571D01*
X20700000Y-7721428D02*
X20642857Y-7692857D01*
X20614285Y-7664285D01*
X20585714Y-7607142D01*
X20585714Y-7435714D01*
X20614285Y-7378571D01*
X20642857Y-7350000D01*
X20700000Y-7321428D01*
X20785714Y-7321428D01*
X20842857Y-7350000D01*
X20871428Y-7378571D01*
X20900000Y-7435714D01*
X20900000Y-7607142D01*
X20871428Y-7664285D01*
X20842857Y-7692857D01*
X20785714Y-7721428D01*
X20700000Y-7721428D01*
X21157142Y-7321428D02*
X21157142Y-7721428D01*
X21157142Y-7378571D02*
X21185714Y-7350000D01*
X21242857Y-7321428D01*
X21328571Y-7321428D01*
X21385714Y-7350000D01*
X21414285Y-7407142D01*
X21414285Y-7721428D01*
X21700000Y-7321428D02*
X21700000Y-7721428D01*
X21700000Y-7378571D02*
X21728571Y-7350000D01*
X21785714Y-7321428D01*
X21871428Y-7321428D01*
X21928571Y-7350000D01*
X21957142Y-7407142D01*
X21957142Y-7721428D01*
X17900000Y-8687428D02*
X17557142Y-8687428D01*
X17728571Y-8687428D02*
X17728571Y-8087428D01*
X17671428Y-8173142D01*
X17614285Y-8230285D01*
X17557142Y-8258857D01*
X18414285Y-8087428D02*
X18300000Y-8087428D01*
X18242857Y-8116000D01*
X18214285Y-8144571D01*
X18157142Y-8230285D01*
X18128571Y-8344571D01*
X18128571Y-8573142D01*
X18157142Y-8630285D01*
X18185714Y-8658857D01*
X18242857Y-8687428D01*
X18357142Y-8687428D01*
X18414285Y-8658857D01*
X18442857Y-8630285D01*
X18471428Y-8573142D01*
X18471428Y-8430285D01*
X18442857Y-8373142D01*
X18414285Y-8344571D01*
X18357142Y-8316000D01*
X18242857Y-8316000D01*
X18185714Y-8344571D01*
X18157142Y-8373142D01*
X18128571Y-8430285D01*
X18728571Y-8458857D02*
X19185714Y-8458857D01*
X19471428Y-8687428D02*
X19471428Y-8087428D01*
X19700000Y-8087428D01*
X19757142Y-8116000D01*
X19785714Y-8144571D01*
X19814285Y-8201714D01*
X19814285Y-8287428D01*
X19785714Y-8344571D01*
X19757142Y-8373142D01*
X19700000Y-8401714D01*
X19471428Y-8401714D01*
X20071428Y-8687428D02*
X20071428Y-8287428D01*
X20071428Y-8087428D02*
X20042857Y-8116000D01*
X20071428Y-8144571D01*
X20100000Y-8116000D01*
X20071428Y-8087428D01*
X20071428Y-8144571D01*
X20357142Y-8287428D02*
X20357142Y-8687428D01*
X20357142Y-8344571D02*
X20385714Y-8316000D01*
X20442857Y-8287428D01*
X20528571Y-8287428D01*
X20585714Y-8316000D01*
X20614285Y-8373142D01*
X20614285Y-8687428D01*
X69920059Y-2045676D02*
X69859450Y-2065879D01*
X69798841Y-2126488D01*
X69758435Y-2207300D01*
X69758435Y-2288112D01*
X69778638Y-2348722D01*
X69839247Y-2449737D01*
X69899856Y-2510346D01*
X70000871Y-2570955D01*
X70061481Y-2591158D01*
X70142293Y-2591158D01*
X70223105Y-2550752D01*
X70263511Y-2510346D01*
X70303917Y-2429534D01*
X70303917Y-2389128D01*
X70162496Y-2247706D01*
X70081684Y-2328518D01*
X70526151Y-2247706D02*
X70101887Y-1823442D01*
X70768587Y-2005270D01*
X70344323Y-1581006D01*
X70970618Y-1803239D02*
X70546354Y-1378975D01*
X70647369Y-1277960D01*
X70728181Y-1237554D01*
X70808993Y-1237554D01*
X70869603Y-1257757D01*
X70970618Y-1318366D01*
X71031227Y-1378975D01*
X71091836Y-1479990D01*
X71112039Y-1540599D01*
X71112039Y-1621412D01*
X71071633Y-1702224D01*
X70970618Y-1803239D01*
X31820059Y-2045676D02*
X31759450Y-2065879D01*
X31698841Y-2126488D01*
X31658435Y-2207300D01*
X31658435Y-2288112D01*
X31678638Y-2348722D01*
X31739247Y-2449737D01*
X31799856Y-2510346D01*
X31900871Y-2570955D01*
X31961481Y-2591158D01*
X32042293Y-2591158D01*
X32123105Y-2550752D01*
X32163511Y-2510346D01*
X32203917Y-2429534D01*
X32203917Y-2389128D01*
X32062496Y-2247706D01*
X31981684Y-2328518D01*
X32426151Y-2247706D02*
X32001887Y-1823442D01*
X32668587Y-2005270D01*
X32244323Y-1581006D01*
X32870618Y-1803239D02*
X32446354Y-1378975D01*
X32547369Y-1277960D01*
X32628181Y-1237554D01*
X32708993Y-1237554D01*
X32769603Y-1257757D01*
X32870618Y-1318366D01*
X32931227Y-1378975D01*
X32991836Y-1479990D01*
X33012039Y-1540599D01*
X33012039Y-1621412D01*
X32971633Y-1702224D01*
X32870618Y-1803239D01*
X37081887Y-2671970D02*
X36657623Y-2247706D01*
X36758638Y-2146691D01*
X36839450Y-2106285D01*
X36920262Y-2106285D01*
X36980871Y-2126488D01*
X37081887Y-2187097D01*
X37142496Y-2247706D01*
X37203105Y-2348722D01*
X37223308Y-2409331D01*
X37223308Y-2490143D01*
X37182902Y-2570955D01*
X37081887Y-2671970D01*
X37710202Y-2136589D02*
X37516252Y-2330539D01*
X37613227Y-2233564D02*
X37273816Y-1894153D01*
X37289978Y-1974965D01*
X37289978Y-2039615D01*
X37273816Y-2088102D01*
X37710202Y-1748691D02*
X37661714Y-1764853D01*
X37629389Y-1764853D01*
X37580902Y-1748691D01*
X37564740Y-1732528D01*
X37548577Y-1684041D01*
X37548577Y-1651716D01*
X37564740Y-1603229D01*
X37629389Y-1538579D01*
X37677877Y-1522417D01*
X37710202Y-1522417D01*
X37758689Y-1538579D01*
X37774851Y-1554742D01*
X37791014Y-1603229D01*
X37791014Y-1635554D01*
X37774851Y-1684041D01*
X37710202Y-1748691D01*
X37694039Y-1797178D01*
X37694039Y-1829503D01*
X37710202Y-1877990D01*
X37774851Y-1942640D01*
X37823339Y-1958803D01*
X37855663Y-1958803D01*
X37904151Y-1942640D01*
X37968801Y-1877990D01*
X37984963Y-1829503D01*
X37984963Y-1797178D01*
X37968801Y-1748691D01*
X37904151Y-1684041D01*
X37855663Y-1667879D01*
X37823339Y-1667879D01*
X37774851Y-1684041D01*
X44384044Y-9420465D02*
X44586074Y-9622496D01*
X44222420Y-9501277D02*
X44788105Y-9218435D01*
X44505262Y-9784120D01*
X44646684Y-9925542D02*
X45070948Y-9501277D01*
X45171963Y-9602293D01*
X45212369Y-9683105D01*
X45212369Y-9763917D01*
X45192166Y-9824526D01*
X45131557Y-9925542D01*
X45070948Y-9986151D01*
X44969932Y-10046760D01*
X44909323Y-10066963D01*
X44828511Y-10066963D01*
X44747699Y-10026557D01*
X44646684Y-9925542D01*
X45353790Y-10551836D02*
X45313384Y-10551836D01*
X45232572Y-10511430D01*
X45192166Y-10471024D01*
X45151760Y-10390212D01*
X45151760Y-10309400D01*
X45171963Y-10248790D01*
X45232572Y-10147775D01*
X45293181Y-10087166D01*
X45394196Y-10026557D01*
X45454806Y-10006354D01*
X45535618Y-10006354D01*
X45616430Y-10046760D01*
X45656836Y-10087166D01*
X45697242Y-10167978D01*
X45697242Y-10208384D01*
X45735628Y-10428598D02*
X45945740Y-10638709D01*
X45703303Y-10654872D01*
X45751790Y-10703359D01*
X45767953Y-10751846D01*
X45767953Y-10784171D01*
X45751790Y-10832659D01*
X45670978Y-10913471D01*
X45622491Y-10929633D01*
X45590166Y-10929633D01*
X45541679Y-10913471D01*
X45444704Y-10816496D01*
X45428542Y-10768009D01*
X45428542Y-10735684D01*
X41743029Y-9561887D02*
X42167293Y-9137623D01*
X42268308Y-9238638D01*
X42308714Y-9319450D01*
X42308714Y-9400262D01*
X42288511Y-9460871D01*
X42227902Y-9561887D01*
X42167293Y-9622496D01*
X42066277Y-9683105D01*
X42005668Y-9703308D01*
X41924856Y-9703308D01*
X41844044Y-9662902D01*
X41743029Y-9561887D01*
X42391547Y-9689166D02*
X42423871Y-9689166D01*
X42472359Y-9705328D01*
X42553171Y-9786141D01*
X42569333Y-9834628D01*
X42569333Y-9866953D01*
X42553171Y-9915440D01*
X42520846Y-9947765D01*
X42456196Y-9980090D01*
X42068298Y-9980090D01*
X42278410Y-10190202D01*
X42924907Y-10157877D02*
X42763283Y-9996252D01*
X42585496Y-10141714D01*
X42617821Y-10141714D01*
X42666308Y-10157877D01*
X42747120Y-10238689D01*
X42763283Y-10287176D01*
X42763283Y-10319501D01*
X42747120Y-10367988D01*
X42666308Y-10448801D01*
X42617821Y-10464963D01*
X42585496Y-10464963D01*
X42537009Y-10448801D01*
X42456196Y-10367988D01*
X42440034Y-10319501D01*
X42440034Y-10287176D01*
X31583029Y-9521481D02*
X31623435Y-9602293D01*
X31724450Y-9703308D01*
X31785059Y-9723511D01*
X31825465Y-9723511D01*
X31886074Y-9703308D01*
X31926481Y-9662902D01*
X31946684Y-9602293D01*
X31946684Y-9561887D01*
X31926481Y-9501277D01*
X31865871Y-9400262D01*
X31845668Y-9339653D01*
X31845668Y-9299247D01*
X31865871Y-9238638D01*
X31906277Y-9198232D01*
X31966887Y-9178029D01*
X32007293Y-9178029D01*
X32067902Y-9198232D01*
X32168917Y-9299247D01*
X32209323Y-9380059D01*
X32269932Y-10167978D02*
X32229526Y-10167978D01*
X32148714Y-10127572D01*
X32108308Y-10087166D01*
X32067902Y-10006354D01*
X32067902Y-9925542D01*
X32088105Y-9864932D01*
X32148714Y-9763917D01*
X32209323Y-9703308D01*
X32310339Y-9642699D01*
X32370948Y-9622496D01*
X32451760Y-9622496D01*
X32532572Y-9662902D01*
X32572978Y-9703308D01*
X32613384Y-9784120D01*
X32613384Y-9824526D01*
X32613384Y-10592242D02*
X32411354Y-10390212D01*
X32835618Y-9965948D01*
D12*
X66482745Y-25716666D02*
X66958936Y-25716666D01*
X66387507Y-26002380D02*
X66720841Y-25002380D01*
X67054174Y-26002380D01*
D10*
X39621887Y-2671970D02*
X39197623Y-2247706D01*
X39298638Y-2146691D01*
X39379450Y-2106285D01*
X39460262Y-2106285D01*
X39520871Y-2126488D01*
X39621887Y-2187097D01*
X39682496Y-2247706D01*
X39743105Y-2348722D01*
X39763308Y-2409331D01*
X39763308Y-2490143D01*
X39722902Y-2570955D01*
X39621887Y-2671970D01*
X39749166Y-2023452D02*
X39749166Y-1991128D01*
X39765328Y-1942640D01*
X39846141Y-1861828D01*
X39894628Y-1845666D01*
X39926953Y-1845666D01*
X39975440Y-1861828D01*
X40007765Y-1894153D01*
X40040090Y-1958803D01*
X40040090Y-2346701D01*
X40250202Y-2136589D01*
X40314851Y-1619391D02*
X40541125Y-1845666D01*
X40104740Y-1570904D02*
X40266364Y-1894153D01*
X40476476Y-1684041D01*
X39203029Y-9561887D02*
X39627293Y-9137623D01*
X39728308Y-9238638D01*
X39768714Y-9319450D01*
X39768714Y-9400262D01*
X39748511Y-9460871D01*
X39687902Y-9561887D01*
X39627293Y-9622496D01*
X39526277Y-9683105D01*
X39465668Y-9703308D01*
X39384856Y-9703308D01*
X39304044Y-9662902D01*
X39203029Y-9561887D01*
X39851547Y-9689166D02*
X39883871Y-9689166D01*
X39932359Y-9705328D01*
X40013171Y-9786141D01*
X40029333Y-9834628D01*
X40029333Y-9866953D01*
X40013171Y-9915440D01*
X39980846Y-9947765D01*
X39916196Y-9980090D01*
X39528298Y-9980090D01*
X39738410Y-10190202D01*
X40287933Y-10060902D02*
X40320257Y-10093227D01*
X40336420Y-10141714D01*
X40336420Y-10174039D01*
X40320257Y-10222526D01*
X40271770Y-10303339D01*
X40190958Y-10384151D01*
X40110146Y-10432638D01*
X40061658Y-10448801D01*
X40029333Y-10448801D01*
X39980846Y-10432638D01*
X39948521Y-10400313D01*
X39932359Y-10351826D01*
X39932359Y-10319501D01*
X39948521Y-10271014D01*
X39997009Y-10190202D01*
X40077821Y-10109389D01*
X40158633Y-10060902D01*
X40207120Y-10044740D01*
X40239445Y-10044740D01*
X40287933Y-10060902D01*
X27321428Y-40914285D02*
X27321428Y-40571428D01*
X27921428Y-40742857D02*
X27321428Y-40742857D01*
X27864285Y-40028571D02*
X27892857Y-40057142D01*
X27921428Y-40142857D01*
X27921428Y-40200000D01*
X27892857Y-40285714D01*
X27835714Y-40342857D01*
X27778571Y-40371428D01*
X27664285Y-40400000D01*
X27578571Y-40400000D01*
X27464285Y-40371428D01*
X27407142Y-40342857D01*
X27350000Y-40285714D01*
X27321428Y-40200000D01*
X27321428Y-40142857D01*
X27350000Y-40057142D01*
X27378571Y-40028571D01*
X27378571Y-39800000D02*
X27350000Y-39771428D01*
X27321428Y-39714285D01*
X27321428Y-39571428D01*
X27350000Y-39514285D01*
X27378571Y-39485714D01*
X27435714Y-39457142D01*
X27492857Y-39457142D01*
X27578571Y-39485714D01*
X27921428Y-39828571D01*
X27921428Y-39457142D01*
X27321428Y-39085714D02*
X27321428Y-39028571D01*
X27350000Y-38971428D01*
X27378571Y-38942857D01*
X27435714Y-38914285D01*
X27550000Y-38885714D01*
X27692857Y-38885714D01*
X27807142Y-38914285D01*
X27864285Y-38942857D01*
X27892857Y-38971428D01*
X27921428Y-39028571D01*
X27921428Y-39085714D01*
X27892857Y-39142857D01*
X27864285Y-39171428D01*
X27807142Y-39200000D01*
X27692857Y-39228571D01*
X27550000Y-39228571D01*
X27435714Y-39200000D01*
X27378571Y-39171428D01*
X27350000Y-39142857D01*
X27321428Y-39085714D01*
X27321428Y-38342857D02*
X27321428Y-38628571D01*
X27607142Y-38657142D01*
X27578571Y-38628571D01*
X27550000Y-38571428D01*
X27550000Y-38428571D01*
X27578571Y-38371428D01*
X27607142Y-38342857D01*
X27664285Y-38314285D01*
X27807142Y-38314285D01*
X27864285Y-38342857D01*
X27892857Y-38371428D01*
X27921428Y-38428571D01*
X27921428Y-38571428D01*
X27892857Y-38628571D01*
X27864285Y-38657142D01*
X27321428Y-37942857D02*
X27321428Y-37885714D01*
X27350000Y-37828571D01*
X27378571Y-37800000D01*
X27435714Y-37771428D01*
X27550000Y-37742857D01*
X27692857Y-37742857D01*
X27807142Y-37771428D01*
X27864285Y-37800000D01*
X27892857Y-37828571D01*
X27921428Y-37885714D01*
X27921428Y-37942857D01*
X27892857Y-38000000D01*
X27864285Y-38028571D01*
X27807142Y-38057142D01*
X27692857Y-38085714D01*
X27550000Y-38085714D01*
X27435714Y-38057142D01*
X27378571Y-38028571D01*
X27350000Y-38000000D01*
X27321428Y-37942857D01*
X47241887Y-2671970D02*
X46817623Y-2247706D01*
X46918638Y-2146691D01*
X46999450Y-2106285D01*
X47080262Y-2106285D01*
X47140871Y-2126488D01*
X47241887Y-2187097D01*
X47302496Y-2247706D01*
X47363105Y-2348722D01*
X47383308Y-2409331D01*
X47383308Y-2490143D01*
X47342902Y-2570955D01*
X47241887Y-2671970D01*
X47611602Y-1942640D02*
X47837877Y-2168914D01*
X47401491Y-1894153D02*
X47563115Y-2217402D01*
X47773227Y-2007290D01*
%TO.C,TP3*%
X32771428Y-18642857D02*
X32171428Y-18642857D01*
X32600000Y-18442857D01*
X32171428Y-18242857D01*
X32771428Y-18242857D01*
X32714285Y-17614285D02*
X32742857Y-17642857D01*
X32771428Y-17728571D01*
X32771428Y-17785714D01*
X32742857Y-17871428D01*
X32685714Y-17928571D01*
X32628571Y-17957142D01*
X32514285Y-17985714D01*
X32428571Y-17985714D01*
X32314285Y-17957142D01*
X32257142Y-17928571D01*
X32200000Y-17871428D01*
X32171428Y-17785714D01*
X32171428Y-17728571D01*
X32200000Y-17642857D01*
X32228571Y-17614285D01*
X32171428Y-17357142D02*
X32657142Y-17357142D01*
X32714285Y-17328571D01*
X32742857Y-17300000D01*
X32771428Y-17242857D01*
X32771428Y-17128571D01*
X32742857Y-17071428D01*
X32714285Y-17042857D01*
X32657142Y-17014285D01*
X32171428Y-17014285D01*
X32771428Y-15957142D02*
X32771428Y-16300000D01*
X32771428Y-16128571D02*
X32171428Y-16128571D01*
X32257142Y-16185714D01*
X32314285Y-16242857D01*
X32342857Y-16300000D01*
X32371428Y-15757142D02*
X32771428Y-15614285D01*
X32371428Y-15471428D01*
X32228571Y-15271428D02*
X32200000Y-15242857D01*
X32171428Y-15185714D01*
X32171428Y-15042857D01*
X32200000Y-14985714D01*
X32228571Y-14957142D01*
X32285714Y-14928571D01*
X32342857Y-14928571D01*
X32428571Y-14957142D01*
X32771428Y-15300000D01*
X32771428Y-14928571D01*
%TO.C,TP12*%
X41506489Y-18635714D02*
X41506489Y-18035714D01*
X42218774Y-18150000D02*
X42247346Y-18178571D01*
X42275917Y-18264285D01*
X42275917Y-18321428D01*
X42247346Y-18407142D01*
X42190203Y-18464285D01*
X42133060Y-18492857D01*
X42018774Y-18521428D01*
X41933060Y-18521428D01*
X41818774Y-18492857D01*
X41761631Y-18464285D01*
X41704489Y-18407142D01*
X41675917Y-18321428D01*
X41675917Y-18264285D01*
X41704489Y-18178571D01*
X41733060Y-18150000D01*
X41506489Y-18035714D02*
X41506489Y-17464285D01*
X42247346Y-17921428D02*
X42275917Y-17835714D01*
X42275917Y-17692857D01*
X42247346Y-17635714D01*
X42218774Y-17607142D01*
X42161631Y-17578571D01*
X42104489Y-17578571D01*
X42047346Y-17607142D01*
X42018774Y-17635714D01*
X41990203Y-17692857D01*
X41961631Y-17807142D01*
X41933060Y-17864285D01*
X41904489Y-17892857D01*
X41847346Y-17921428D01*
X41790203Y-17921428D01*
X41733060Y-17892857D01*
X41704489Y-17864285D01*
X41675917Y-17807142D01*
X41675917Y-17664285D01*
X41704489Y-17578571D01*
%TO.C,C1*%
X3500000Y-13664285D02*
X3471428Y-13692857D01*
X3385714Y-13721428D01*
X3328571Y-13721428D01*
X3242857Y-13692857D01*
X3185714Y-13635714D01*
X3157142Y-13578571D01*
X3128571Y-13464285D01*
X3128571Y-13378571D01*
X3157142Y-13264285D01*
X3185714Y-13207142D01*
X3242857Y-13150000D01*
X3328571Y-13121428D01*
X3385714Y-13121428D01*
X3471428Y-13150000D01*
X3500000Y-13178571D01*
X4071428Y-13721428D02*
X3728571Y-13721428D01*
X3900000Y-13721428D02*
X3900000Y-13121428D01*
X3842857Y-13207142D01*
X3785714Y-13264285D01*
X3728571Y-13292857D01*
%TO.C,TP11*%
X18021428Y-14697142D02*
X18021428Y-14982857D01*
X17421428Y-14982857D01*
X18021428Y-14497142D02*
X17421428Y-14497142D01*
X17421428Y-14354285D01*
X17450000Y-14268571D01*
X17507142Y-14211428D01*
X17564285Y-14182857D01*
X17678571Y-14154285D01*
X17764285Y-14154285D01*
X17878571Y-14182857D01*
X17935714Y-14211428D01*
X17992857Y-14268571D01*
X18021428Y-14354285D01*
X18021428Y-14497142D01*
X17421428Y-13782857D02*
X17421428Y-13668571D01*
X17450000Y-13611428D01*
X17507142Y-13554285D01*
X17621428Y-13525714D01*
X17821428Y-13525714D01*
X17935714Y-13554285D01*
X17992857Y-13611428D01*
X18021428Y-13668571D01*
X18021428Y-13782857D01*
X17992857Y-13840000D01*
X17935714Y-13897142D01*
X17821428Y-13925714D01*
X17621428Y-13925714D01*
X17507142Y-13897142D01*
X17450000Y-13840000D01*
X17421428Y-13782857D01*
X17835714Y-13297142D02*
X17835714Y-13137142D01*
X18087142Y-13068571D02*
X18087142Y-13297142D01*
X17607142Y-13297142D01*
X17607142Y-13068571D01*
X18087142Y-12862857D02*
X17607142Y-12862857D01*
X18087142Y-12588571D01*
X17607142Y-12588571D01*
%TO.C,LED1*%
X2303571Y-22821428D02*
X2017857Y-22821428D01*
X2017857Y-22221428D01*
X2503571Y-22507142D02*
X2703571Y-22507142D01*
X2789285Y-22821428D02*
X2503571Y-22821428D01*
X2503571Y-22221428D01*
X2789285Y-22221428D01*
X3046428Y-22821428D02*
X3046428Y-22221428D01*
X3189285Y-22221428D01*
X3275000Y-22250000D01*
X3332142Y-22307142D01*
X3360714Y-22364285D01*
X3389285Y-22478571D01*
X3389285Y-22564285D01*
X3360714Y-22678571D01*
X3332142Y-22735714D01*
X3275000Y-22792857D01*
X3189285Y-22821428D01*
X3046428Y-22821428D01*
X3960714Y-22821428D02*
X3617857Y-22821428D01*
X3789285Y-22821428D02*
X3789285Y-22221428D01*
X3732142Y-22307142D01*
X3675000Y-22364285D01*
X3617857Y-22392857D01*
X1496428Y-17421428D02*
X1153571Y-17421428D01*
X1325000Y-17421428D02*
X1325000Y-16821428D01*
X1267857Y-16907142D01*
X1210714Y-16964285D01*
X1153571Y-16992857D01*
%TO.C,TP5*%
X10064285Y-18621428D02*
X10064285Y-18978571D01*
X9314285Y-18978571D01*
X9671428Y-18371428D02*
X9671428Y-18121428D01*
X10064285Y-18014285D02*
X10064285Y-18371428D01*
X9314285Y-18371428D01*
X9314285Y-18014285D01*
X10064285Y-17692857D02*
X9314285Y-17692857D01*
X9314285Y-17514285D01*
X9350000Y-17407142D01*
X9421428Y-17335714D01*
X9492857Y-17300000D01*
X9635714Y-17264285D01*
X9742857Y-17264285D01*
X9885714Y-17300000D01*
X9957142Y-17335714D01*
X10028571Y-17407142D01*
X10064285Y-17514285D01*
X10064285Y-17692857D01*
X10064285Y-16371428D02*
X9314285Y-16371428D01*
X9314285Y-16192857D01*
X9350000Y-16085714D01*
X9421428Y-16014285D01*
X9492857Y-15978571D01*
X9635714Y-15942857D01*
X9742857Y-15942857D01*
X9885714Y-15978571D01*
X9957142Y-16014285D01*
X10028571Y-16085714D01*
X10064285Y-16192857D01*
X10064285Y-16371428D01*
X9850000Y-15657142D02*
X9850000Y-15300000D01*
X10064285Y-15728571D02*
X9314285Y-15478571D01*
X10064285Y-15228571D01*
X9314285Y-15085714D02*
X9314285Y-14657142D01*
X10064285Y-14871428D02*
X9314285Y-14871428D01*
X9850000Y-14442857D02*
X9850000Y-14085714D01*
X10064285Y-14514285D02*
X9314285Y-14264285D01*
X10064285Y-14014285D01*
%TO.C,TP2*%
X18892857Y-38552000D02*
X19492857Y-38552000D01*
X19378571Y-39321428D02*
X19178571Y-39035714D01*
X19035714Y-39321428D02*
X19035714Y-38721428D01*
X19264285Y-38721428D01*
X19321428Y-38750000D01*
X19350000Y-38778571D01*
X19378571Y-38835714D01*
X19378571Y-38921428D01*
X19350000Y-38978571D01*
X19321428Y-39007142D01*
X19264285Y-39035714D01*
X19035714Y-39035714D01*
X19492857Y-38552000D02*
X20035714Y-38552000D01*
X19635714Y-39007142D02*
X19835714Y-39007142D01*
X19921428Y-39321428D02*
X19635714Y-39321428D01*
X19635714Y-38721428D01*
X19921428Y-38721428D01*
X20035714Y-38552000D02*
X20607142Y-38552000D01*
X20150000Y-39292857D02*
X20235714Y-39321428D01*
X20378571Y-39321428D01*
X20435714Y-39292857D01*
X20464285Y-39264285D01*
X20492857Y-39207142D01*
X20492857Y-39150000D01*
X20464285Y-39092857D01*
X20435714Y-39064285D01*
X20378571Y-39035714D01*
X20264285Y-39007142D01*
X20207142Y-38978571D01*
X20178571Y-38950000D01*
X20150000Y-38892857D01*
X20150000Y-38835714D01*
X20178571Y-38778571D01*
X20207142Y-38750000D01*
X20264285Y-38721428D01*
X20407142Y-38721428D01*
X20492857Y-38750000D01*
X20607142Y-38552000D02*
X21150000Y-38552000D01*
X20750000Y-39007142D02*
X20950000Y-39007142D01*
X21035714Y-39321428D02*
X20750000Y-39321428D01*
X20750000Y-38721428D01*
X21035714Y-38721428D01*
X21150000Y-38552000D02*
X21607142Y-38552000D01*
X21207142Y-38721428D02*
X21550000Y-38721428D01*
X21378571Y-39321428D02*
X21378571Y-38721428D01*
%TO.C,TP1*%
X33860555Y-20092857D02*
X33260555Y-20092857D01*
X33689127Y-19892857D01*
X33260555Y-19692857D01*
X33860555Y-19692857D01*
X33803412Y-19064285D02*
X33831984Y-19092857D01*
X33860555Y-19178571D01*
X33860555Y-19235714D01*
X33831984Y-19321428D01*
X33774841Y-19378571D01*
X33717698Y-19407142D01*
X33603412Y-19435714D01*
X33517698Y-19435714D01*
X33403412Y-19407142D01*
X33346269Y-19378571D01*
X33289127Y-19321428D01*
X33260555Y-19235714D01*
X33260555Y-19178571D01*
X33289127Y-19092857D01*
X33317698Y-19064285D01*
X33260555Y-18807142D02*
X33746269Y-18807142D01*
X33803412Y-18778571D01*
X33831984Y-18750000D01*
X33860555Y-18692857D01*
X33860555Y-18578571D01*
X33831984Y-18521428D01*
X33803412Y-18492857D01*
X33746269Y-18464285D01*
X33260555Y-18464285D01*
X33260555Y-17778571D02*
X33260555Y-17407142D01*
X33489127Y-17607142D01*
X33489127Y-17521428D01*
X33517698Y-17464285D01*
X33546269Y-17435714D01*
X33603412Y-17407142D01*
X33746269Y-17407142D01*
X33803412Y-17435714D01*
X33831984Y-17464285D01*
X33860555Y-17521428D01*
X33860555Y-17692857D01*
X33831984Y-17750000D01*
X33803412Y-17778571D01*
X33460555Y-17207142D02*
X33860555Y-17064285D01*
X33460555Y-16921428D01*
X33260555Y-16750000D02*
X33260555Y-16378571D01*
X33489127Y-16578571D01*
X33489127Y-16492857D01*
X33517698Y-16435714D01*
X33546269Y-16407142D01*
X33603412Y-16378571D01*
X33746269Y-16378571D01*
X33803412Y-16407142D01*
X33831984Y-16435714D01*
X33860555Y-16492857D01*
X33860555Y-16664285D01*
X33831984Y-16721428D01*
X33803412Y-16750000D01*
%TO.C,TP9*%
X20271428Y-22370000D02*
X20271428Y-22655714D01*
X19671428Y-22655714D01*
X20271428Y-22170000D02*
X19671428Y-22170000D01*
X19671428Y-22027142D01*
X19700000Y-21941428D01*
X19757142Y-21884285D01*
X19814285Y-21855714D01*
X19928571Y-21827142D01*
X20014285Y-21827142D01*
X20128571Y-21855714D01*
X20185714Y-21884285D01*
X20242857Y-21941428D01*
X20271428Y-22027142D01*
X20271428Y-22170000D01*
X19671428Y-21455714D02*
X19671428Y-21341428D01*
X19700000Y-21284285D01*
X19757142Y-21227142D01*
X19871428Y-21198571D01*
X20071428Y-21198571D01*
X20185714Y-21227142D01*
X20242857Y-21284285D01*
X20271428Y-21341428D01*
X20271428Y-21455714D01*
X20242857Y-21512857D01*
X20185714Y-21570000D01*
X20071428Y-21598571D01*
X19871428Y-21598571D01*
X19757142Y-21570000D01*
X19700000Y-21512857D01*
X19671428Y-21455714D01*
X19857142Y-21038571D02*
X20337142Y-20878571D01*
X19857142Y-20718571D01*
X19857142Y-20467142D02*
X19857142Y-20375714D01*
X19880000Y-20330000D01*
X19925714Y-20284285D01*
X20017142Y-20261428D01*
X20177142Y-20261428D01*
X20268571Y-20284285D01*
X20314285Y-20330000D01*
X20337142Y-20375714D01*
X20337142Y-20467142D01*
X20314285Y-20512857D01*
X20268571Y-20558571D01*
X20177142Y-20581428D01*
X20017142Y-20581428D01*
X19925714Y-20558571D01*
X19880000Y-20512857D01*
X19857142Y-20467142D01*
X19857142Y-20055714D02*
X20245714Y-20055714D01*
X20291428Y-20032857D01*
X20314285Y-20010000D01*
X20337142Y-19964285D01*
X20337142Y-19872857D01*
X20314285Y-19827142D01*
X20291428Y-19804285D01*
X20245714Y-19781428D01*
X19857142Y-19781428D01*
X19857142Y-19621428D02*
X19857142Y-19347142D01*
X20337142Y-19484285D02*
X19857142Y-19484285D01*
%TO.C,TP10*%
X5499999Y-11731450D02*
X5214285Y-11731450D01*
X5214285Y-11131450D01*
X5699999Y-11731450D02*
X5699999Y-11131450D01*
X5842857Y-11131450D01*
X5928571Y-11160022D01*
X5985714Y-11217164D01*
X6014285Y-11274307D01*
X6042857Y-11388593D01*
X6042857Y-11474307D01*
X6014285Y-11588593D01*
X5985714Y-11645736D01*
X5928571Y-11702879D01*
X5842857Y-11731450D01*
X5699999Y-11731450D01*
X6414285Y-11131450D02*
X6528571Y-11131450D01*
X6585714Y-11160022D01*
X6642857Y-11217164D01*
X6671428Y-11331450D01*
X6671428Y-11531450D01*
X6642857Y-11645736D01*
X6585714Y-11702879D01*
X6528571Y-11731450D01*
X6414285Y-11731450D01*
X6357142Y-11702879D01*
X6299999Y-11645736D01*
X6271428Y-11531450D01*
X6271428Y-11331450D01*
X6299999Y-11217164D01*
X6357142Y-11160022D01*
X6414285Y-11131450D01*
X6831428Y-11317164D02*
X6991428Y-11797164D01*
X7151428Y-11317164D01*
X7311428Y-11797164D02*
X7311428Y-11317164D01*
X7539999Y-11797164D02*
X7539999Y-11317164D01*
X7814285Y-11797164D01*
X7814285Y-11317164D01*
%TO.C,TP8*%
X9320054Y-7750000D02*
X8720054Y-7950000D01*
X9320054Y-8150000D01*
X9034340Y-8550000D02*
X9005768Y-8635714D01*
X8977197Y-8664285D01*
X8920054Y-8692857D01*
X8834340Y-8692857D01*
X8777197Y-8664285D01*
X8748625Y-8635714D01*
X8720054Y-8578571D01*
X8720054Y-8350000D01*
X9320054Y-8350000D01*
X9320054Y-8550000D01*
X9291483Y-8607142D01*
X9262911Y-8635714D01*
X9205768Y-8664285D01*
X9148625Y-8664285D01*
X9091483Y-8635714D01*
X9062911Y-8607142D01*
X9034340Y-8550000D01*
X9034340Y-8350000D01*
X9320054Y-8950000D02*
X8834340Y-8950000D01*
X8777197Y-8978571D01*
X8748625Y-9007142D01*
X8720054Y-9064285D01*
X8720054Y-9178571D01*
X8748625Y-9235714D01*
X8777197Y-9264285D01*
X8834340Y-9292857D01*
X9320054Y-9292857D01*
X8748625Y-9550000D02*
X8720054Y-9635714D01*
X8720054Y-9778571D01*
X8748625Y-9835714D01*
X8777197Y-9864285D01*
X8834340Y-9892857D01*
X8891483Y-9892857D01*
X8948625Y-9864285D01*
X8977197Y-9835714D01*
X9005768Y-9778571D01*
X9034340Y-9664285D01*
X9062911Y-9607142D01*
X9091483Y-9578571D01*
X9148625Y-9550000D01*
X9205768Y-9550000D01*
X9262911Y-9578571D01*
X9291483Y-9607142D01*
X9320054Y-9664285D01*
X9320054Y-9807142D01*
X9291483Y-9892857D01*
D13*
%TO.C,SW1*%
X8195000Y-27080000D02*
X8195000Y-25020000D01*
X3455000Y-27080000D02*
X3455000Y-25020000D01*
X8195000Y-23680000D02*
X8195000Y-24080000D01*
X3455000Y-28420000D02*
X8195000Y-28420000D01*
X3455000Y-23680000D02*
X8195000Y-23680000D01*
X8195000Y-28420000D02*
X8195000Y-28020000D01*
X3455000Y-28420000D02*
X3455000Y-28020000D01*
X3455000Y-23680000D02*
X3455000Y-24080000D01*
%TO.C,C1*%
X3263748Y-15585000D02*
X3786252Y-15585000D01*
X3263748Y-14115000D02*
X3786252Y-14115000D01*
%TO.C,SW2*%
X10855000Y-20970000D02*
X10855000Y-16230000D01*
X14255000Y-20970000D02*
X12195000Y-20970000D01*
X15595000Y-20970000D02*
X15595000Y-16230000D01*
X10855000Y-16230000D02*
X11255000Y-16230000D01*
X14255000Y-16230000D02*
X12195000Y-16230000D01*
X15595000Y-20970000D02*
X15195000Y-20970000D01*
X15595000Y-16230000D02*
X15195000Y-16230000D01*
X10855000Y-20970000D02*
X11255000Y-20970000D01*
%TO.C,LED1*%
X1575000Y-16100000D02*
X8875000Y-16100000D01*
X1575000Y-21600000D02*
X8875000Y-21600000D01*
X8875000Y-21600000D02*
X8875000Y-20450000D01*
%TO.C,SW3*%
X15595000Y-31080000D02*
X15195000Y-31080000D01*
X10855000Y-35820000D02*
X10855000Y-31080000D01*
X10855000Y-35820000D02*
X11255000Y-35820000D01*
X10855000Y-31080000D02*
X11255000Y-31080000D01*
X14255000Y-35820000D02*
X12195000Y-35820000D01*
X15595000Y-35820000D02*
X15595000Y-31080000D01*
X15595000Y-35820000D02*
X15195000Y-35820000D01*
X14255000Y-31080000D02*
X12195000Y-31080000D01*
%TO.C,SW4*%
X18305000Y-28420000D02*
X23045000Y-28420000D01*
X18305000Y-23680000D02*
X18305000Y-24080000D01*
X23045000Y-27080000D02*
X23045000Y-25020000D01*
X23045000Y-28420000D02*
X23045000Y-28020000D01*
X18305000Y-27080000D02*
X18305000Y-25020000D01*
X18305000Y-23680000D02*
X23045000Y-23680000D01*
X23045000Y-23680000D02*
X23045000Y-24080000D01*
X18305000Y-28420000D02*
X18305000Y-28020000D01*
%TO.C,LOGO_1_TOP*%
G36*
X76811683Y-34233011D02*
G01*
X76978350Y-34316351D01*
X77061683Y-34383011D01*
X77145017Y-34466351D01*
X77228350Y-34583011D01*
X77278350Y-34699681D01*
X77295017Y-34866351D01*
X77295017Y-35066351D01*
X77278350Y-35166351D01*
X77245017Y-35283011D01*
X77178350Y-35399681D01*
X77095017Y-35499681D01*
X77028350Y-35549681D01*
X76945017Y-35599681D01*
X76911683Y-35616351D01*
X76911683Y-35649681D01*
X77428350Y-36549681D01*
X76811683Y-36549681D01*
X76328350Y-35666351D01*
X76128350Y-35666351D01*
X76128350Y-36549681D01*
X75628350Y-36549681D01*
X75628350Y-35162181D01*
X76128350Y-35162181D01*
X76640883Y-35162181D01*
X76686683Y-35153851D01*
X76732550Y-35116351D01*
X76770017Y-35033011D01*
X76778350Y-34908011D01*
X76753350Y-34812181D01*
X76720017Y-34758011D01*
X76682550Y-34733011D01*
X76128350Y-34733011D01*
X76128350Y-35162181D01*
X75628350Y-35162181D01*
X75628350Y-34233011D01*
X76811683Y-34233011D01*
G37*
X76811683Y-34233011D02*
X76978350Y-34316351D01*
X77061683Y-34383011D01*
X77145017Y-34466351D01*
X77228350Y-34583011D01*
X77278350Y-34699681D01*
X77295017Y-34866351D01*
X77295017Y-35066351D01*
X77278350Y-35166351D01*
X77245017Y-35283011D01*
X77178350Y-35399681D01*
X77095017Y-35499681D01*
X77028350Y-35549681D01*
X76945017Y-35599681D01*
X76911683Y-35616351D01*
X76911683Y-35649681D01*
X77428350Y-36549681D01*
X76811683Y-36549681D01*
X76328350Y-35666351D01*
X76128350Y-35666351D01*
X76128350Y-36549681D01*
X75628350Y-36549681D01*
X75628350Y-35162181D01*
X76128350Y-35162181D01*
X76640883Y-35162181D01*
X76686683Y-35153851D01*
X76732550Y-35116351D01*
X76770017Y-35033011D01*
X76778350Y-34908011D01*
X76753350Y-34812181D01*
X76720017Y-34758011D01*
X76682550Y-34733011D01*
X76128350Y-34733011D01*
X76128350Y-35162181D01*
X75628350Y-35162181D01*
X75628350Y-34233011D01*
X76811683Y-34233011D01*
G36*
X71561680Y-35149681D02*
G01*
X71628350Y-35149681D01*
X72211680Y-34233011D01*
X72828350Y-34233011D01*
X72178350Y-35216351D01*
X72945020Y-36549681D01*
X72345020Y-36549681D01*
X71861680Y-35699681D01*
X71811680Y-35699681D01*
X71561680Y-36033011D01*
X71561680Y-36549681D01*
X71045020Y-36549681D01*
X71045020Y-34233011D01*
X71561680Y-34233011D01*
X71561680Y-35149681D01*
G37*
X71561680Y-35149681D02*
X71628350Y-35149681D01*
X72211680Y-34233011D01*
X72828350Y-34233011D01*
X72178350Y-35216351D01*
X72945020Y-36549681D01*
X72345020Y-36549681D01*
X71861680Y-35699681D01*
X71811680Y-35699681D01*
X71561680Y-36033011D01*
X71561680Y-36549681D01*
X71045020Y-36549681D01*
X71045020Y-34233011D01*
X71561680Y-34233011D01*
X71561680Y-35149681D01*
G36*
X68723350Y-39499681D02*
G01*
X68510020Y-39499681D01*
X68510020Y-38349681D01*
X68723350Y-38349681D01*
X69536680Y-38349681D01*
X69566120Y-38342411D01*
X69623340Y-38322381D01*
X69678100Y-38296351D01*
X69729750Y-38264591D01*
X69777700Y-38227491D01*
X69821410Y-38185471D01*
X69860360Y-38139001D01*
X69894100Y-38088631D01*
X69922260Y-38034931D01*
X69944510Y-37978531D01*
X69960580Y-37920071D01*
X69970300Y-37860231D01*
X69973550Y-37799681D01*
X69970300Y-37739131D01*
X69960580Y-37679291D01*
X69944510Y-37620831D01*
X69922260Y-37564431D01*
X69894100Y-37510731D01*
X69860360Y-37460361D01*
X69821410Y-37413891D01*
X69777700Y-37371871D01*
X69729750Y-37334771D01*
X69678100Y-37303011D01*
X69623340Y-37276981D01*
X69566120Y-37256951D01*
X69536680Y-37249681D01*
X68723350Y-37249681D01*
X68723350Y-38349681D01*
X68510020Y-38349681D01*
X68510020Y-37066351D01*
X69510020Y-37066351D01*
X69536640Y-37065631D01*
X69589820Y-37068661D01*
X69642460Y-37076771D01*
X69668350Y-37083011D01*
X69701750Y-37094061D01*
X69766480Y-37121611D01*
X69828340Y-37155131D01*
X69886750Y-37194341D01*
X69941200Y-37238881D01*
X69991220Y-37288351D01*
X70036350Y-37342331D01*
X70076190Y-37400311D01*
X70110380Y-37461791D01*
X70138640Y-37526231D01*
X70160680Y-37593031D01*
X70176330Y-37661621D01*
X70185450Y-37731381D01*
X70187940Y-37801691D01*
X70183800Y-37871921D01*
X70173060Y-37941451D01*
X70155810Y-38009651D01*
X70132200Y-38075921D01*
X70102460Y-38139671D01*
X70066830Y-38200341D01*
X70025650Y-38257381D01*
X69979270Y-38310281D01*
X69928110Y-38358571D01*
X69872620Y-38401831D01*
X69813310Y-38439651D01*
X69750690Y-38471731D01*
X69685330Y-38497751D01*
X69651680Y-38508014D01*
X69617810Y-38517348D01*
X69548600Y-38529494D01*
X69478470Y-38534074D01*
X69443350Y-38533014D01*
X68723350Y-38531348D01*
X68723350Y-39499681D01*
G37*
X68723350Y-39499681D02*
X68510020Y-39499681D01*
X68510020Y-38349681D01*
X68723350Y-38349681D01*
X69536680Y-38349681D01*
X69566120Y-38342411D01*
X69623340Y-38322381D01*
X69678100Y-38296351D01*
X69729750Y-38264591D01*
X69777700Y-38227491D01*
X69821410Y-38185471D01*
X69860360Y-38139001D01*
X69894100Y-38088631D01*
X69922260Y-38034931D01*
X69944510Y-37978531D01*
X69960580Y-37920071D01*
X69970300Y-37860231D01*
X69973550Y-37799681D01*
X69970300Y-37739131D01*
X69960580Y-37679291D01*
X69944510Y-37620831D01*
X69922260Y-37564431D01*
X69894100Y-37510731D01*
X69860360Y-37460361D01*
X69821410Y-37413891D01*
X69777700Y-37371871D01*
X69729750Y-37334771D01*
X69678100Y-37303011D01*
X69623340Y-37276981D01*
X69566120Y-37256951D01*
X69536680Y-37249681D01*
X68723350Y-37249681D01*
X68723350Y-38349681D01*
X68510020Y-38349681D01*
X68510020Y-37066351D01*
X69510020Y-37066351D01*
X69536640Y-37065631D01*
X69589820Y-37068661D01*
X69642460Y-37076771D01*
X69668350Y-37083011D01*
X69701750Y-37094061D01*
X69766480Y-37121611D01*
X69828340Y-37155131D01*
X69886750Y-37194341D01*
X69941200Y-37238881D01*
X69991220Y-37288351D01*
X70036350Y-37342331D01*
X70076190Y-37400311D01*
X70110380Y-37461791D01*
X70138640Y-37526231D01*
X70160680Y-37593031D01*
X70176330Y-37661621D01*
X70185450Y-37731381D01*
X70187940Y-37801691D01*
X70183800Y-37871921D01*
X70173060Y-37941451D01*
X70155810Y-38009651D01*
X70132200Y-38075921D01*
X70102460Y-38139671D01*
X70066830Y-38200341D01*
X70025650Y-38257381D01*
X69979270Y-38310281D01*
X69928110Y-38358571D01*
X69872620Y-38401831D01*
X69813310Y-38439651D01*
X69750690Y-38471731D01*
X69685330Y-38497751D01*
X69651680Y-38508014D01*
X69617810Y-38517348D01*
X69548600Y-38529494D01*
X69478470Y-38534074D01*
X69443350Y-38533014D01*
X68723350Y-38531348D01*
X68723350Y-39499681D01*
G36*
X70045840Y-35215471D02*
G01*
X69478350Y-35216351D01*
X69295020Y-35699681D01*
X69711680Y-35699681D01*
X69528350Y-35216351D01*
X70046350Y-35216351D01*
X70545020Y-36549681D01*
X69995020Y-36549681D01*
X69865850Y-36199681D01*
X69140850Y-36199681D01*
X69011680Y-36549681D01*
X68461680Y-36549681D01*
X69345020Y-34233011D01*
X69678350Y-34233011D01*
X70045840Y-35215471D01*
G37*
X70045840Y-35215471D02*
X69478350Y-35216351D01*
X69295020Y-35699681D01*
X69711680Y-35699681D01*
X69528350Y-35216351D01*
X70046350Y-35216351D01*
X70545020Y-36549681D01*
X69995020Y-36549681D01*
X69865850Y-36199681D01*
X69140850Y-36199681D01*
X69011680Y-36549681D01*
X68461680Y-36549681D01*
X69345020Y-34233011D01*
X69678350Y-34233011D01*
X70045840Y-35215471D01*
G36*
X75011680Y-34733011D02*
G01*
X73945020Y-34733011D01*
X73945020Y-35166351D01*
X74845020Y-35166351D01*
X74845020Y-35666351D01*
X73945020Y-35666351D01*
X73945020Y-36066351D01*
X75011680Y-36066351D01*
X75011680Y-36549681D01*
X73445020Y-36549681D01*
X73445020Y-34233011D01*
X75011680Y-34233011D01*
X75011680Y-34733011D01*
G37*
X75011680Y-34733011D02*
X73945020Y-34733011D01*
X73945020Y-35166351D01*
X74845020Y-35166351D01*
X74845020Y-35666351D01*
X73945020Y-35666351D01*
X73945020Y-36066351D01*
X75011680Y-36066351D01*
X75011680Y-36549681D01*
X73445020Y-36549681D01*
X73445020Y-34233011D01*
X75011680Y-34233011D01*
X75011680Y-34733011D01*
G36*
X67011650Y-37033011D02*
G01*
X67261650Y-37099681D01*
X67478350Y-37199681D01*
X67595020Y-37266351D01*
X67478350Y-37416351D01*
X67328350Y-37349681D01*
X67228350Y-37299681D01*
X67028350Y-37233011D01*
X66945050Y-37216351D01*
X66661650Y-37216351D01*
X66511650Y-37266351D01*
X66411650Y-37316351D01*
X66311650Y-37399681D01*
X66261650Y-37466351D01*
X66228350Y-37533011D01*
X66211650Y-37583011D01*
X66195050Y-37666351D01*
X66195050Y-37766351D01*
X66211650Y-37849681D01*
X66261650Y-37933011D01*
X66311650Y-37983011D01*
X66378350Y-38033011D01*
X66545050Y-38099681D01*
X67128350Y-38233011D01*
X67311650Y-38299681D01*
X67395050Y-38333011D01*
X67495020Y-38416351D01*
X67561680Y-38499681D01*
X67628350Y-38633014D01*
X67645020Y-38716348D01*
X67661680Y-38833014D01*
X67628350Y-38999681D01*
X67578350Y-39133014D01*
X67478350Y-39283014D01*
X67378350Y-39366348D01*
X67245050Y-39433014D01*
X67078350Y-39499681D01*
X66745050Y-39516348D01*
X66611650Y-39516348D01*
X66445050Y-39499681D01*
X66195050Y-39416348D01*
X66078350Y-39366348D01*
X65878350Y-39233014D01*
X65895050Y-39216348D01*
X66011650Y-39083014D01*
X66078350Y-39133014D01*
X66228350Y-39216348D01*
X66411650Y-39283014D01*
X66528350Y-39316348D01*
X66795050Y-39333014D01*
X66995050Y-39316348D01*
X67161650Y-39266348D01*
X67261650Y-39199681D01*
X67378350Y-39083014D01*
X67428350Y-38999681D01*
X67445020Y-38883014D01*
X67445020Y-38783014D01*
X67428350Y-38683014D01*
X67361650Y-38583014D01*
X67261650Y-38499681D01*
X67078350Y-38433011D01*
X66878350Y-38383011D01*
X66495050Y-38299681D01*
X66311650Y-38233011D01*
X66211650Y-38183011D01*
X66128350Y-38116351D01*
X66061650Y-38016351D01*
X66011650Y-37916351D01*
X65995050Y-37833011D01*
X65995050Y-37599681D01*
X66011650Y-37533011D01*
X66095050Y-37349681D01*
X66195050Y-37233011D01*
X66361650Y-37116351D01*
X66678350Y-37033011D01*
X66778350Y-37016351D01*
X66895050Y-37016351D01*
X67011650Y-37033011D01*
G37*
X67011650Y-37033011D02*
X67261650Y-37099681D01*
X67478350Y-37199681D01*
X67595020Y-37266351D01*
X67478350Y-37416351D01*
X67328350Y-37349681D01*
X67228350Y-37299681D01*
X67028350Y-37233011D01*
X66945050Y-37216351D01*
X66661650Y-37216351D01*
X66511650Y-37266351D01*
X66411650Y-37316351D01*
X66311650Y-37399681D01*
X66261650Y-37466351D01*
X66228350Y-37533011D01*
X66211650Y-37583011D01*
X66195050Y-37666351D01*
X66195050Y-37766351D01*
X66211650Y-37849681D01*
X66261650Y-37933011D01*
X66311650Y-37983011D01*
X66378350Y-38033011D01*
X66545050Y-38099681D01*
X67128350Y-38233011D01*
X67311650Y-38299681D01*
X67395050Y-38333011D01*
X67495020Y-38416351D01*
X67561680Y-38499681D01*
X67628350Y-38633014D01*
X67645020Y-38716348D01*
X67661680Y-38833014D01*
X67628350Y-38999681D01*
X67578350Y-39133014D01*
X67478350Y-39283014D01*
X67378350Y-39366348D01*
X67245050Y-39433014D01*
X67078350Y-39499681D01*
X66745050Y-39516348D01*
X66611650Y-39516348D01*
X66445050Y-39499681D01*
X66195050Y-39416348D01*
X66078350Y-39366348D01*
X65878350Y-39233014D01*
X65895050Y-39216348D01*
X66011650Y-39083014D01*
X66078350Y-39133014D01*
X66228350Y-39216348D01*
X66411650Y-39283014D01*
X66528350Y-39316348D01*
X66795050Y-39333014D01*
X66995050Y-39316348D01*
X67161650Y-39266348D01*
X67261650Y-39199681D01*
X67378350Y-39083014D01*
X67428350Y-38999681D01*
X67445020Y-38883014D01*
X67445020Y-38783014D01*
X67428350Y-38683014D01*
X67361650Y-38583014D01*
X67261650Y-38499681D01*
X67078350Y-38433011D01*
X66878350Y-38383011D01*
X66495050Y-38299681D01*
X66311650Y-38233011D01*
X66211650Y-38183011D01*
X66128350Y-38116351D01*
X66061650Y-38016351D01*
X66011650Y-37916351D01*
X65995050Y-37833011D01*
X65995050Y-37599681D01*
X66011650Y-37533011D01*
X66095050Y-37349681D01*
X66195050Y-37233011D01*
X66361650Y-37116351D01*
X66678350Y-37033011D01*
X66778350Y-37016351D01*
X66895050Y-37016351D01*
X67011650Y-37033011D01*
D14*
X70645020Y-33983011D02*
X70695020Y-33983011D01*
X70695020Y-31966351D01*
X71561680Y-31966351D01*
X71561680Y-35766351D01*
X71095020Y-35766351D01*
X70995020Y-35666351D01*
X69078350Y-33716351D01*
X69028350Y-33716351D01*
X69028350Y-35766351D01*
X68128350Y-35766351D01*
X68128350Y-31966351D01*
X68628350Y-31966351D01*
X70645020Y-33983011D01*
X73969220Y-31932311D02*
X74085020Y-31942541D01*
X74200020Y-31959481D01*
X74313820Y-31983071D01*
X74426020Y-32013231D01*
X74536350Y-32049861D01*
X74644280Y-32092831D01*
X74749620Y-32142011D01*
X74851880Y-32197211D01*
X74950750Y-32258261D01*
X75045950Y-32324961D01*
X75137080Y-32397071D01*
X75223880Y-32474351D01*
X75306080Y-32556541D01*
X75345020Y-32599681D01*
X74661680Y-33249681D01*
X74637350Y-33215951D01*
X74584080Y-33152041D01*
X74526020Y-33092511D01*
X74463350Y-33037761D01*
X74396620Y-32988111D01*
X74326150Y-32943881D01*
X74252480Y-32905341D01*
X74175950Y-32872731D01*
X74097080Y-32846261D01*
X74016350Y-32826091D01*
X73934350Y-32812331D01*
X73851480Y-32805091D01*
X73768280Y-32804411D01*
X73685280Y-32810291D01*
X73603080Y-32822681D01*
X73522020Y-32841531D01*
X73442750Y-32866701D01*
X73365680Y-32898051D01*
X73328350Y-32916351D01*
X73292420Y-32934351D01*
X73223480Y-32975551D01*
X73158220Y-33022411D01*
X73097150Y-33074591D01*
X73040680Y-33131731D01*
X72989220Y-33193411D01*
X72943080Y-33259211D01*
X72902680Y-33328651D01*
X72868280Y-33401241D01*
X72840080Y-33476471D01*
X72818350Y-33553801D01*
X72803150Y-33632691D01*
X72794680Y-33712581D01*
X72792880Y-33792901D01*
X72795020Y-33833011D01*
X72793620Y-33873591D01*
X72796350Y-33954751D01*
X72805480Y-34035451D01*
X72820950Y-34115171D01*
X72842550Y-34193441D01*
X72870280Y-34269771D01*
X72903880Y-34343691D01*
X72943220Y-34414741D01*
X72988020Y-34482491D01*
X73037950Y-34546511D01*
X73092820Y-34606411D01*
X73152150Y-34661831D01*
X73215680Y-34712421D01*
X73282950Y-34757871D01*
X73353620Y-34797891D01*
X73427220Y-34832251D01*
X73503280Y-34860731D01*
X73581280Y-34883151D01*
X73660880Y-34899371D01*
X73741480Y-34909301D01*
X73822620Y-34912871D01*
X73903750Y-34910071D01*
X73984420Y-34900911D01*
X74064150Y-34885441D01*
X74142420Y-34863761D01*
X74218750Y-34836011D01*
X74292620Y-34802351D01*
X74328350Y-34783011D01*
X74511680Y-34699681D01*
X74645020Y-34249681D01*
X73711680Y-34249681D01*
X73711680Y-33483011D01*
X75395020Y-33483011D01*
X75395020Y-35149681D01*
X75351350Y-35192791D01*
X75259880Y-35274591D01*
X75163950Y-35351121D01*
X75063880Y-35422131D01*
X74959950Y-35487401D01*
X74852550Y-35546721D01*
X74741950Y-35599911D01*
X74628550Y-35646781D01*
X74512680Y-35687201D01*
X74394750Y-35721041D01*
X74275080Y-35748191D01*
X74154080Y-35768561D01*
X74032150Y-35782091D01*
X73909620Y-35788751D01*
X73786880Y-35788491D01*
X73664350Y-35781331D01*
X73542480Y-35767291D01*
X73421550Y-35746421D01*
X73361680Y-35733011D01*
X73308620Y-35722471D01*
X73203680Y-35695911D01*
X73100480Y-35663191D01*
X72999480Y-35624411D01*
X72900880Y-35579731D01*
X72805150Y-35529291D01*
X72712480Y-35473271D01*
X72623350Y-35411871D01*
X72538020Y-35345291D01*
X72456820Y-35273791D01*
X72379880Y-35197601D01*
X72307680Y-35117001D01*
X72240350Y-35032261D01*
X72178150Y-34943691D01*
X72121280Y-34851591D01*
X72070020Y-34756291D01*
X72024420Y-34658111D01*
X71984750Y-34557411D01*
X71951080Y-34454551D01*
X71923550Y-34349871D01*
X71902350Y-34243741D01*
X71887350Y-34136541D01*
X71878820Y-34028651D01*
X71876620Y-33920441D01*
X71878350Y-33866351D01*
X71876880Y-33809871D01*
X71879820Y-33696911D01*
X71889620Y-33584351D01*
X71906150Y-33472571D01*
X71929420Y-33362001D01*
X71959280Y-33253031D01*
X71995680Y-33146061D01*
X72038480Y-33041481D01*
X72087480Y-32939661D01*
X72142480Y-32840991D01*
X72203420Y-32745811D01*
X72269950Y-32654471D01*
X72341820Y-32567321D01*
X72418880Y-32484651D01*
X72500750Y-32406781D01*
X72587150Y-32333981D01*
X72677820Y-32266531D01*
X72772350Y-32204661D01*
X72870480Y-32148611D01*
X72971750Y-32098571D01*
X73075950Y-32054731D01*
X73182480Y-32017241D01*
X73291150Y-31986251D01*
X73401480Y-31961861D01*
X73513080Y-31944171D01*
X73625550Y-31933241D01*
X73738480Y-31929111D01*
X73794950Y-31930031D01*
X73853080Y-31928811D01*
X73969220Y-31932311D01*
G36*
X77428350Y-37249681D02*
G01*
X76078350Y-37249681D01*
X76078350Y-38183011D01*
X77245017Y-38183011D01*
X77245017Y-38383011D01*
X76078350Y-38383011D01*
X76078350Y-39316348D01*
X77428350Y-39316348D01*
X77428350Y-39499681D01*
X75878350Y-39499681D01*
X75878350Y-37066351D01*
X77428350Y-37066351D01*
X77428350Y-37249681D01*
G37*
D13*
X77428350Y-37249681D02*
X76078350Y-37249681D01*
X76078350Y-38183011D01*
X77245017Y-38183011D01*
X77245017Y-38383011D01*
X76078350Y-38383011D01*
X76078350Y-39316348D01*
X77428350Y-39316348D01*
X77428350Y-39499681D01*
X75878350Y-39499681D01*
X75878350Y-37066351D01*
X77428350Y-37066351D01*
X77428350Y-37249681D01*
G36*
X66945050Y-35566351D02*
G01*
X66978350Y-35566351D01*
X67361650Y-34233011D01*
X67978350Y-34233011D01*
X67978350Y-36549681D01*
X67528350Y-36549681D01*
X67528350Y-35383011D01*
X67461680Y-35383011D01*
X67161650Y-36299681D01*
X66761650Y-36299681D01*
X66461650Y-35383011D01*
X66395050Y-35383011D01*
X66395050Y-36549681D01*
X65945050Y-36549681D01*
X65945050Y-34233011D01*
X66561650Y-34233011D01*
X66945050Y-35566351D01*
G37*
X66945050Y-35566351D02*
X66978350Y-35566351D01*
X67361650Y-34233011D01*
X67978350Y-34233011D01*
X67978350Y-36549681D01*
X67528350Y-36549681D01*
X67528350Y-35383011D01*
X67461680Y-35383011D01*
X67161650Y-36299681D01*
X66761650Y-36299681D01*
X66461650Y-35383011D01*
X66395050Y-35383011D01*
X66395050Y-36549681D01*
X65945050Y-36549681D01*
X65945050Y-34233011D01*
X66561650Y-34233011D01*
X66945050Y-35566351D01*
X76720017Y-34758011D02*
X76753350Y-34812181D01*
X76778350Y-34908011D01*
X76770017Y-35033011D01*
X76732550Y-35116351D01*
X76686683Y-35153851D01*
X76640883Y-35162181D01*
X76128350Y-35162181D01*
X76128350Y-34733011D01*
X76682550Y-34733011D01*
X76720017Y-34758011D01*
G36*
X72711680Y-39499681D02*
G01*
X72515880Y-39499681D01*
X72295020Y-38899681D01*
X71095020Y-38899681D01*
X70878350Y-39499681D01*
X70661680Y-39499681D01*
X70954489Y-38708014D01*
X71161680Y-38708014D01*
X72228350Y-38708014D01*
X71720020Y-37308011D01*
X71670020Y-37308011D01*
X71161680Y-38708014D01*
X70954489Y-38708014D01*
X71561680Y-37066351D01*
X71828350Y-37066351D01*
X72421680Y-38708014D01*
X72565950Y-39098281D01*
X72711680Y-39499681D01*
G37*
X72711680Y-39499681D02*
X72515880Y-39499681D01*
X72295020Y-38899681D01*
X71095020Y-38899681D01*
X70878350Y-39499681D01*
X70661680Y-39499681D01*
X70954489Y-38708014D01*
X71161680Y-38708014D01*
X72228350Y-38708014D01*
X71720020Y-37308011D01*
X71670020Y-37308011D01*
X71161680Y-38708014D01*
X70954489Y-38708014D01*
X71561680Y-37066351D01*
X71828350Y-37066351D01*
X72421680Y-38708014D01*
X72565950Y-39098281D01*
X72711680Y-39499681D01*
D14*
X67845020Y-32783011D02*
X65661650Y-32783011D01*
X65661650Y-33416351D01*
X66811650Y-33416351D01*
X66811650Y-34233011D01*
X65661650Y-34233011D01*
X65661650Y-34933011D01*
X67753350Y-34933011D01*
X67753350Y-35766351D01*
X64761650Y-35766351D01*
X64761650Y-31966351D01*
X67845020Y-31966351D01*
X67845020Y-32783011D01*
G36*
X74277082Y-37025125D02*
G01*
X74461074Y-37068784D01*
X74630814Y-37152133D01*
X74777864Y-37271025D01*
X74894908Y-37419550D01*
X74976128Y-37590320D01*
X74999350Y-37682011D01*
X74787680Y-37682011D01*
X74763312Y-37603259D01*
X74680464Y-37460806D01*
X74564033Y-37344185D01*
X74421716Y-37261105D01*
X74262919Y-37217056D01*
X74098140Y-37214951D01*
X73938270Y-37254929D01*
X73793877Y-37334347D01*
X73674505Y-37447955D01*
X73588045Y-37588245D01*
X73561680Y-37666351D01*
X73535624Y-37966028D01*
X73534793Y-38567600D01*
X73560020Y-38867348D01*
X73584404Y-38946140D01*
X73667299Y-39088664D01*
X73783794Y-39205342D01*
X73926186Y-39288464D01*
X74085065Y-39332534D01*
X74249930Y-39334639D01*
X74409883Y-39294642D01*
X74554352Y-39215184D01*
X74673788Y-39101519D01*
X74760297Y-38961159D01*
X74786680Y-38883014D01*
X74786680Y-38883681D01*
X74998420Y-38883681D01*
X74973911Y-38974085D01*
X74891101Y-39142053D01*
X74773718Y-39287970D01*
X74627392Y-39404843D01*
X74459136Y-39487066D01*
X74277019Y-39530700D01*
X74089771Y-39533650D01*
X73906369Y-39495777D01*
X73735607Y-39418896D01*
X73585670Y-39306692D01*
X73463749Y-39164545D01*
X73375687Y-38999271D01*
X73348350Y-38909681D01*
X73319489Y-38703560D01*
X73299535Y-38287810D01*
X73322833Y-37872233D01*
X73353350Y-37666351D01*
X73378318Y-37575120D01*
X73462772Y-37405926D01*
X73582621Y-37259655D01*
X73731906Y-37143581D01*
X73903202Y-37063477D01*
X74087990Y-37023326D01*
X74277082Y-37025125D01*
G37*
D13*
X74277082Y-37025125D02*
X74461074Y-37068784D01*
X74630814Y-37152133D01*
X74777864Y-37271025D01*
X74894908Y-37419550D01*
X74976128Y-37590320D01*
X74999350Y-37682011D01*
X74787680Y-37682011D01*
X74763312Y-37603259D01*
X74680464Y-37460806D01*
X74564033Y-37344185D01*
X74421716Y-37261105D01*
X74262919Y-37217056D01*
X74098140Y-37214951D01*
X73938270Y-37254929D01*
X73793877Y-37334347D01*
X73674505Y-37447955D01*
X73588045Y-37588245D01*
X73561680Y-37666351D01*
X73535624Y-37966028D01*
X73534793Y-38567600D01*
X73560020Y-38867348D01*
X73584404Y-38946140D01*
X73667299Y-39088664D01*
X73783794Y-39205342D01*
X73926186Y-39288464D01*
X74085065Y-39332534D01*
X74249930Y-39334639D01*
X74409883Y-39294642D01*
X74554352Y-39215184D01*
X74673788Y-39101519D01*
X74760297Y-38961159D01*
X74786680Y-38883014D01*
X74786680Y-38883681D01*
X74998420Y-38883681D01*
X74973911Y-38974085D01*
X74891101Y-39142053D01*
X74773718Y-39287970D01*
X74627392Y-39404843D01*
X74459136Y-39487066D01*
X74277019Y-39530700D01*
X74089771Y-39533650D01*
X73906369Y-39495777D01*
X73735607Y-39418896D01*
X73585670Y-39306692D01*
X73463749Y-39164545D01*
X73375687Y-38999271D01*
X73348350Y-38909681D01*
X73319489Y-38703560D01*
X73299535Y-38287810D01*
X73322833Y-37872233D01*
X73353350Y-37666351D01*
X73378318Y-37575120D01*
X73462772Y-37405926D01*
X73582621Y-37259655D01*
X73731906Y-37143581D01*
X73903202Y-37063477D01*
X74087990Y-37023326D01*
X74277082Y-37025125D01*
%TO.C,J3*%
X25470000Y-3155000D02*
X76390000Y-3155000D01*
X28070000Y-8355000D02*
X76390000Y-8355000D01*
X25470000Y-5755000D02*
X25470000Y-3155000D01*
X76390000Y-8355000D02*
X76390000Y-3155000D01*
X28070000Y-8355000D02*
X28070000Y-5755000D01*
X26800000Y-8355000D02*
X25470000Y-8355000D01*
X28070000Y-5755000D02*
X25470000Y-5755000D01*
X25470000Y-8355000D02*
X25470000Y-7025000D01*
%TD*%
%LPC*%
D15*
X27584473Y-27847476D02*
G75*
G03*
X27584473Y-27847476I-160873J0D01*
G01*
D16*
X27095286Y-25848983D02*
G75*
G03*
X27095286Y-25848983I-171234J0D01*
G01*
D17*
X27591498Y-25253439D02*
G75*
G03*
X27591498Y-25253439I-164414J0D01*
G01*
G36*
X6625000Y-43050000D02*
G01*
X15425000Y-43050000D01*
X15425000Y-40150000D01*
X6625000Y-40150000D01*
X6625000Y-43050000D01*
G37*
D18*
X27087984Y-27250540D02*
G75*
G03*
X27087984Y-27250540I-159600J0D01*
G01*
D19*
%TO.C,H2*%
X80975000Y-2800000D03*
%TD*%
D20*
%TO.C,SW8*%
X77775000Y-28050000D03*
X77725000Y-23050000D03*
X80725000Y-23050000D03*
X80725000Y-28050000D03*
%TD*%
D21*
%TO.C,TP3*%
X32425000Y-19450000D03*
%TD*%
D19*
%TO.C,H4*%
X2750000Y-40300000D03*
%TD*%
%TO.C,H3*%
X43225000Y-22550000D03*
%TD*%
D20*
%TO.C,SW7*%
X65275000Y-28050000D03*
X65225000Y-23050000D03*
X68225000Y-23050000D03*
X68225000Y-28050000D03*
%TD*%
D22*
%TO.C,SW1*%
X2225000Y-24550000D03*
X9425000Y-24550000D03*
X9425000Y-27550000D03*
X2225000Y-27550000D03*
%TD*%
D23*
%TO.C,FID2*%
X56325000Y-37650000D03*
%TD*%
D21*
%TO.C,TP12*%
X41945000Y-19460000D03*
%TD*%
D24*
%TO.C,C1*%
X2575000Y-14850000D03*
X4475000Y-14850000D03*
%TD*%
D19*
%TO.C,H5*%
X80975000Y-40300000D03*
%TD*%
D21*
%TO.C,TP11*%
X17725000Y-15750000D03*
%TD*%
D20*
%TO.C,SW6*%
X47025000Y-37000000D03*
X52025000Y-36950000D03*
X52025000Y-39950000D03*
X47025000Y-39950000D03*
%TD*%
D25*
%TO.C,SW2*%
X11725000Y-15000000D03*
X11725000Y-22200000D03*
X14725000Y-15000000D03*
X14725000Y-22200000D03*
%TD*%
D26*
%TO.C,LED1*%
X2775000Y-17250000D03*
X2775000Y-20450000D03*
X7675000Y-20450000D03*
X7675000Y-17250000D03*
%TD*%
D19*
%TO.C,H1*%
X2750000Y-2800000D03*
%TD*%
D21*
%TO.C,TP5*%
X7625000Y-15050000D03*
%TD*%
%TO.C,TP2*%
X22425000Y-38950000D03*
%TD*%
D25*
%TO.C,SW3*%
X11725000Y-37050000D03*
X11725000Y-29850000D03*
X14725000Y-37050000D03*
X14725000Y-29850000D03*
%TD*%
D27*
%TO.C,TP1*%
X33525000Y-20950000D03*
%TD*%
D23*
%TO.C,FID1*%
X79225000Y-7800000D03*
%TD*%
D22*
%TO.C,SW4*%
X17075000Y-24550000D03*
X24275000Y-24550000D03*
X17075000Y-27550000D03*
X24275000Y-27550000D03*
%TD*%
D21*
%TO.C,TP9*%
X21125000Y-19950000D03*
%TD*%
%TO.C,TP10*%
X8625000Y-11550000D03*
%TD*%
D28*
%TO.C,J2*%
X24509000Y-32640000D03*
X26541000Y-32640000D03*
X25525000Y-40260000D03*
D29*
X26160616Y-38989401D03*
X26160000Y-37720000D03*
X26160616Y-36449401D03*
X26160616Y-35179401D03*
X26160000Y-33910000D03*
X24890000Y-33910000D03*
X24890616Y-35179401D03*
X24890616Y-36449401D03*
X24890616Y-37719401D03*
X24890000Y-38990000D03*
%TD*%
D21*
%TO.C,TP8*%
X9045000Y-6960000D03*
%TD*%
D23*
%TO.C,FID3*%
X6475000Y-5300000D03*
%TD*%
D30*
%TO.C,J3*%
X26800000Y-7025000D03*
D31*
X26800000Y-4485000D03*
X29340000Y-7025000D03*
X29340000Y-4485000D03*
X31880000Y-7025000D03*
X31880000Y-4485000D03*
X34420000Y-7025000D03*
X34420000Y-4485000D03*
X36960000Y-7025000D03*
X36960000Y-4485000D03*
X39500000Y-7025000D03*
X39500000Y-4485000D03*
X42040000Y-7025000D03*
X42040000Y-4485000D03*
X44580000Y-7025000D03*
X44580000Y-4485000D03*
X47120000Y-7025000D03*
X47120000Y-4485000D03*
X49660000Y-7025000D03*
X49660000Y-4485000D03*
X52200000Y-7025000D03*
X52200000Y-4485000D03*
X54740000Y-7025000D03*
X54740000Y-4485000D03*
X57280000Y-7025000D03*
X57280000Y-4485000D03*
X59820000Y-7025000D03*
X59820000Y-4485000D03*
X62360000Y-7025000D03*
X62360000Y-4485000D03*
X64900000Y-7025000D03*
X64900000Y-4485000D03*
X67440000Y-7025000D03*
X67440000Y-4485000D03*
X69980000Y-7025000D03*
X69980000Y-4485000D03*
X72520000Y-7025000D03*
X72520000Y-4485000D03*
X75060000Y-7025000D03*
X75060000Y-4485000D03*
%TD*%
D20*
%TO.C,SW5*%
X39525000Y-37050000D03*
X34525000Y-37100000D03*
X39525000Y-40050000D03*
X34525000Y-40050000D03*
%TD*%
D32*
%TO.C,J1*%
X16335000Y-5825000D03*
X22115000Y-5825000D03*
D33*
X14905000Y-6305000D03*
D34*
X14905000Y-2135000D03*
X23545000Y-2135000D03*
D33*
X23545000Y-6305000D03*
%TD*%
D35*
X24625000Y-18750000D03*
D32*
X31805000Y-27990000D03*
D35*
X24625000Y-19950000D03*
D32*
X35725000Y-22160000D03*
X28585000Y-22130000D03*
X31625000Y-23170000D03*
X27125000Y-22970000D03*
X33600000Y-23175000D03*
D35*
X2525000Y-13250000D03*
D32*
X38325000Y-14750000D03*
D35*
X23625000Y-18750000D03*
D32*
X40425000Y-17380000D03*
D35*
X23625000Y-19950000D03*
X22625000Y-19950000D03*
D32*
X29515000Y-26570000D03*
X34465000Y-26570000D03*
D36*
X27775000Y-25447183D03*
X40745000Y-8775000D03*
D35*
X10475000Y-6950000D03*
X10475000Y-8050000D03*
X10475000Y-9150000D03*
D36*
X27862500Y-29262500D03*
X30625000Y-29950000D03*
X31000000Y-28025000D03*
X30825000Y-34850000D03*
D35*
X21975000Y-4050000D03*
X11650000Y-2800000D03*
D32*
X21800000Y-7925000D03*
D35*
X19475000Y-4050000D03*
X12900000Y-2800000D03*
X16975000Y-4050000D03*
D32*
X16825000Y-7975000D03*
D35*
X12900000Y-1550000D03*
X11650000Y-1550000D03*
X14475000Y-4050000D03*
D36*
X37025000Y-23350000D03*
X31400000Y-30125000D03*
X32125000Y-21250000D03*
X30125000Y-21250000D03*
X45645000Y-33030000D03*
X43110400Y-2547200D03*
X55805000Y-33030000D03*
X6275000Y-10170000D03*
X62155000Y-25410000D03*
X46915000Y-35570000D03*
X46915000Y-10170000D03*
X20245000Y-27950000D03*
X49455000Y-25410000D03*
X10085000Y-2550000D03*
X72315000Y-20330000D03*
X6275000Y-35570000D03*
X33272817Y-24302183D03*
X73585000Y-12710000D03*
X82475000Y-30490000D03*
X53270400Y-2547200D03*
X63425000Y-33030000D03*
X82475000Y-20330000D03*
X41835000Y-35570000D03*
X18975000Y-30490000D03*
X71045000Y-27950000D03*
X48190400Y-2547200D03*
X63425000Y-22870000D03*
X6275000Y-40650000D03*
X25325000Y-12710000D03*
X73585000Y-2550000D03*
X58345000Y-17790000D03*
X50730400Y-2547200D03*
X74855000Y-15250000D03*
X2465000Y-33030000D03*
X74855000Y-40650000D03*
X62155000Y-20330000D03*
X32002817Y-24302183D03*
D35*
X36945000Y-34180000D03*
D36*
X59615000Y-25410000D03*
D35*
X21225000Y-23950000D03*
D36*
X57075000Y-35570000D03*
D35*
X18825000Y-23950000D03*
D36*
X79935000Y-35570000D03*
X28275000Y-17450000D03*
X77395000Y-15250000D03*
X72315000Y-35570000D03*
X10085000Y-38110000D03*
X54535000Y-40650000D03*
X82475000Y-35570000D03*
X54535000Y-20330000D03*
X44375000Y-15250000D03*
X67235000Y-35570000D03*
X30732817Y-26842183D03*
X51995000Y-35570000D03*
X64695000Y-20330000D03*
X79935000Y-15250000D03*
X39295000Y-15250000D03*
X78665000Y-17790000D03*
X48185000Y-38110000D03*
X60885000Y-33030000D03*
X34215000Y-35570000D03*
X12625000Y-33030000D03*
X59615000Y-20330000D03*
X11355000Y-25410000D03*
X36755000Y-35570000D03*
X49455000Y-35570000D03*
X16435000Y-15250000D03*
X21515000Y-30490000D03*
X45650400Y-2547200D03*
X58345000Y-33030000D03*
X16435000Y-40650000D03*
X77395000Y-20330000D03*
X53265000Y-17790000D03*
X69775000Y-35570000D03*
X68515000Y-33030000D03*
X65965000Y-2550000D03*
D35*
X9225000Y-20450000D03*
D36*
X27025000Y-29850000D03*
X8815000Y-30490000D03*
X71045000Y-17790000D03*
X62155000Y-40650000D03*
X77395000Y-25410000D03*
D35*
X22525000Y-21850000D03*
D36*
X60885000Y-17790000D03*
X27865000Y-12710000D03*
D35*
X22825000Y-23750000D03*
D36*
X12625000Y-27950000D03*
X20925000Y-18100000D03*
X63425000Y-38110000D03*
X54535000Y-30490000D03*
X51995000Y-20330000D03*
X29125000Y-31400000D03*
X45645000Y-17790000D03*
X6275000Y-20330000D03*
X26595000Y-10170000D03*
X49455000Y-20330000D03*
X74855000Y-35570000D03*
X57075000Y-10170000D03*
X16435000Y-30490000D03*
X41835000Y-15250000D03*
X60885000Y-2550000D03*
X5005000Y-7630000D03*
X82475000Y-15250000D03*
X76125000Y-17790000D03*
X29135000Y-40650000D03*
X16435000Y-35570000D03*
X31900000Y-8775000D03*
X58350000Y-2550000D03*
X54535000Y-35570000D03*
X67235000Y-40650000D03*
X17705000Y-33030000D03*
X5005000Y-38110000D03*
X17705000Y-38110000D03*
X63425000Y-27950000D03*
X74855000Y-20330000D03*
X33272817Y-25572183D03*
X7555000Y-7630000D03*
X43105000Y-33030000D03*
X28525000Y-31400000D03*
X55805000Y-17790000D03*
X68505000Y-38110000D03*
X78665000Y-12710000D03*
D32*
X40750000Y-28300000D03*
D36*
X34215000Y-15250000D03*
X57075000Y-20330000D03*
X76125000Y-27950000D03*
X33125000Y-29950000D03*
X72315000Y-15250000D03*
X73585000Y-17790000D03*
D35*
X22825000Y-27350000D03*
D36*
X6275000Y-30490000D03*
X5005000Y-27950000D03*
X20245000Y-38110000D03*
X73585000Y-27950000D03*
X64695000Y-40650000D03*
X5005000Y-12710000D03*
D35*
X22825000Y-25350000D03*
D36*
X62155000Y-30490000D03*
X51995000Y-30490000D03*
X49455000Y-30490000D03*
X30732817Y-24302183D03*
X71045000Y-22870000D03*
X71055000Y-33030000D03*
X50725000Y-38110000D03*
X36755000Y-10170000D03*
X57075000Y-30490000D03*
X5005000Y-22870000D03*
X40425000Y-14600000D03*
X71045000Y-2550000D03*
D35*
X32350000Y-38150000D03*
D36*
X5005000Y-33030000D03*
D35*
X21550000Y-12300000D03*
D36*
X18975000Y-40650000D03*
X43105000Y-17790000D03*
X71045000Y-38110000D03*
X79935000Y-10170000D03*
X82475000Y-25410000D03*
D35*
X16800000Y-12400000D03*
D36*
X7545000Y-27950000D03*
X36755000Y-40650000D03*
X63425000Y-2550000D03*
X81205000Y-12710000D03*
X55810400Y-2547200D03*
X15165000Y-33030000D03*
X43105000Y-27950000D03*
X13895000Y-25410000D03*
X50725000Y-33030000D03*
X8815000Y-35570000D03*
X72315000Y-25410000D03*
X77395000Y-5090000D03*
X33272817Y-26842183D03*
X78675000Y-33030000D03*
X18975000Y-15250000D03*
X77395000Y-35570000D03*
X39295000Y-35570000D03*
X72315000Y-40650000D03*
X76125000Y-38110000D03*
X6275000Y-15250000D03*
X53265000Y-38110000D03*
X40565000Y-33030000D03*
X5005000Y-17790000D03*
X49455000Y-40650000D03*
X6275000Y-25410000D03*
D35*
X22825000Y-29850000D03*
D36*
X10085000Y-22870000D03*
X76135000Y-33030000D03*
X81215000Y-33030000D03*
X44375000Y-35570000D03*
X44375000Y-40650000D03*
D35*
X8650000Y-12800000D03*
D36*
X64695000Y-35570000D03*
X30732817Y-25572183D03*
X32002817Y-25572183D03*
X41835000Y-40650000D03*
X60885000Y-27950000D03*
X69775000Y-20330000D03*
X20125000Y-18100000D03*
X67235000Y-25410000D03*
X79935000Y-25410000D03*
X39525000Y-21050000D03*
X63425000Y-12710000D03*
D35*
X38125000Y-34180000D03*
D36*
X7545000Y-2550000D03*
X32002817Y-26842183D03*
D32*
X34350000Y-18025000D03*
D36*
X76125000Y-12710000D03*
X18975000Y-35570000D03*
X69775000Y-40650000D03*
X59615000Y-40650000D03*
X13895000Y-35570000D03*
X64695000Y-30490000D03*
D37*
X30825000Y-33850000D03*
D36*
X7545000Y-22870000D03*
X59615000Y-30490000D03*
X46915000Y-30490000D03*
X65965000Y-38110000D03*
X79935000Y-30490000D03*
D35*
X40475000Y-24550000D03*
D36*
X48185000Y-33030000D03*
X50725000Y-17790000D03*
X7545000Y-33030000D03*
X82475000Y-10170000D03*
X7545000Y-12710000D03*
X73595000Y-33030000D03*
X15165000Y-27950000D03*
D32*
X40750000Y-26650000D03*
D36*
X73585000Y-22870000D03*
X74855000Y-25410000D03*
X59615000Y-35570000D03*
X68505000Y-2550000D03*
X63425000Y-17790000D03*
X21725000Y-18100000D03*
X76125000Y-2550000D03*
X7545000Y-38110000D03*
X26725000Y-17450000D03*
X64695000Y-25410000D03*
X76125000Y-22870000D03*
X10085000Y-33030000D03*
X69775000Y-25410000D03*
X68505000Y-17790000D03*
D35*
X7625000Y-21750000D03*
D36*
X77395000Y-40650000D03*
X73585000Y-38110000D03*
X11355000Y-35570000D03*
X2465000Y-7630000D03*
X3735000Y-10170000D03*
X60885000Y-22870000D03*
X49415000Y-22960000D03*
X79935000Y-20330000D03*
X8815000Y-5090000D03*
X81205000Y-17790000D03*
X53265000Y-33030000D03*
X21515000Y-40650000D03*
X77395000Y-10170000D03*
X34440000Y-8775000D03*
X27775000Y-24497183D03*
X29350000Y-24247183D03*
X35665000Y-8775000D03*
X30000000Y-23772183D03*
X45825000Y-8775000D03*
X29350000Y-23297183D03*
X44600000Y-8775000D03*
X27775000Y-26172183D03*
X29350000Y-25775000D03*
X33125000Y-27850000D03*
X70000000Y-8775000D03*
X68685000Y-8775000D03*
X33825000Y-28050000D03*
X39520000Y-8775000D03*
X38205000Y-8775000D03*
X27125000Y-24972183D03*
X42060000Y-8775000D03*
X52220000Y-8775000D03*
X36425000Y-23750000D03*
X53445000Y-8775000D03*
X37025000Y-24350000D03*
X38625000Y-24750000D03*
X54760000Y-8775000D03*
X48365000Y-8775000D03*
X34425000Y-24350000D03*
X37025000Y-25350000D03*
X55985000Y-8775000D03*
X36450000Y-25875000D03*
X58525000Y-8775000D03*
X49680000Y-8775000D03*
X34410000Y-25480000D03*
X64920000Y-8775000D03*
X34425000Y-27450000D03*
X37025000Y-27200000D03*
X59840000Y-8775000D03*
X61065000Y-8775000D03*
X36425000Y-27750000D03*
X62380000Y-8775000D03*
X35825000Y-28650000D03*
X66145000Y-8775000D03*
X35125000Y-29550000D03*
X67460000Y-8775000D03*
X34425000Y-30050000D03*
X29625000Y-29950000D03*
X72540000Y-8775000D03*
X73765000Y-8775000D03*
X28925000Y-29550000D03*
X41525000Y-20050000D03*
D35*
X16725000Y-20550000D03*
X16725000Y-22550000D03*
X10425000Y-10550000D03*
X10425000Y-12550000D03*
X12025000Y-10550000D03*
X10425000Y-11550000D03*
X16725000Y-21550000D03*
D36*
X18625000Y-15950000D03*
M02*
