%TF.GenerationSoftware,KiCad,Pcbnew,(6.0.8)*%
%TF.CreationDate,2022-10-11T12:28:16+11:00*%
%TF.ProjectId,PicoGamePad_V3_0_0_A,5069636f-4761-46d6-9550-61645f56335f,4.0.0 (Rev A)*%
%TF.SameCoordinates,Original*%
%TF.FileFunction,Legend,Top*%
%TF.FilePolarity,Positive*%
%FSLAX46Y46*%
G04 Gerber Fmt 4.6, Leading zero omitted, Abs format (unit mm)*
G04 Created by KiCad (PCBNEW (6.0.8)) date 2022-10-11 12:28:16*
%MOMM*%
%LPD*%
G01*
G04 APERTURE LIST*
%ADD10C,0.150000*%
%ADD11C,0.120000*%
%ADD12C,0.200000*%
G04 APERTURE END LIST*
D10*
X93340357Y-63430714D02*
X93578452Y-64097380D01*
X93816547Y-63430714D01*
X94102261Y-63097380D02*
X94721309Y-63097380D01*
X94387976Y-63478333D01*
X94530833Y-63478333D01*
X94626071Y-63525952D01*
X94673690Y-63573571D01*
X94721309Y-63668809D01*
X94721309Y-63906904D01*
X94673690Y-64002142D01*
X94626071Y-64049761D01*
X94530833Y-64097380D01*
X94245119Y-64097380D01*
X94149880Y-64049761D01*
X94102261Y-64002142D01*
X95149880Y-64002142D02*
X95197500Y-64049761D01*
X95149880Y-64097380D01*
X95102261Y-64049761D01*
X95149880Y-64002142D01*
X95149880Y-64097380D01*
X95816547Y-63097380D02*
X95911785Y-63097380D01*
X96007023Y-63145000D01*
X96054642Y-63192619D01*
X96102261Y-63287857D01*
X96149880Y-63478333D01*
X96149880Y-63716428D01*
X96102261Y-63906904D01*
X96054642Y-64002142D01*
X96007023Y-64049761D01*
X95911785Y-64097380D01*
X95816547Y-64097380D01*
X95721309Y-64049761D01*
X95673690Y-64002142D01*
X95626071Y-63906904D01*
X95578452Y-63716428D01*
X95578452Y-63478333D01*
X95626071Y-63287857D01*
X95673690Y-63192619D01*
X95721309Y-63145000D01*
X95816547Y-63097380D01*
X96578452Y-64002142D02*
X96626071Y-64049761D01*
X96578452Y-64097380D01*
X96530833Y-64049761D01*
X96578452Y-64002142D01*
X96578452Y-64097380D01*
X97245119Y-63097380D02*
X97340357Y-63097380D01*
X97435595Y-63145000D01*
X97483214Y-63192619D01*
X97530833Y-63287857D01*
X97578452Y-63478333D01*
X97578452Y-63716428D01*
X97530833Y-63906904D01*
X97483214Y-64002142D01*
X97435595Y-64049761D01*
X97340357Y-64097380D01*
X97245119Y-64097380D01*
X97149880Y-64049761D01*
X97102261Y-64002142D01*
X97054642Y-63906904D01*
X97007023Y-63716428D01*
X97007023Y-63478333D01*
X97054642Y-63287857D01*
X97102261Y-63192619D01*
X97149880Y-63145000D01*
X97245119Y-63097380D01*
X99054642Y-64478333D02*
X99007023Y-64430714D01*
X98911785Y-64287857D01*
X98864166Y-64192619D01*
X98816547Y-64049761D01*
X98768928Y-63811666D01*
X98768928Y-63621190D01*
X98816547Y-63383095D01*
X98864166Y-63240238D01*
X98911785Y-63145000D01*
X99007023Y-63002142D01*
X99054642Y-62954523D01*
X100007023Y-64097380D02*
X99673690Y-63621190D01*
X99435595Y-64097380D02*
X99435595Y-63097380D01*
X99816547Y-63097380D01*
X99911785Y-63145000D01*
X99959404Y-63192619D01*
X100007023Y-63287857D01*
X100007023Y-63430714D01*
X99959404Y-63525952D01*
X99911785Y-63573571D01*
X99816547Y-63621190D01*
X99435595Y-63621190D01*
X100816547Y-64049761D02*
X100721309Y-64097380D01*
X100530833Y-64097380D01*
X100435595Y-64049761D01*
X100387976Y-63954523D01*
X100387976Y-63573571D01*
X100435595Y-63478333D01*
X100530833Y-63430714D01*
X100721309Y-63430714D01*
X100816547Y-63478333D01*
X100864166Y-63573571D01*
X100864166Y-63668809D01*
X100387976Y-63764047D01*
X101197500Y-63430714D02*
X101435595Y-64097380D01*
X101673690Y-63430714D01*
X102768928Y-63811666D02*
X103245119Y-63811666D01*
X102673690Y-64097380D02*
X103007023Y-63097380D01*
X103340357Y-64097380D01*
X103578452Y-64478333D02*
X103626071Y-64430714D01*
X103721309Y-64287857D01*
X103768928Y-64192619D01*
X103816547Y-64049761D01*
X103864166Y-63811666D01*
X103864166Y-63621190D01*
X103816547Y-63383095D01*
X103768928Y-63240238D01*
X103721309Y-63145000D01*
X103626071Y-63002142D01*
X103578452Y-62954523D01*
X94007023Y-65707380D02*
X93673690Y-65231190D01*
X93435595Y-65707380D02*
X93435595Y-64707380D01*
X93816547Y-64707380D01*
X93911785Y-64755000D01*
X93959404Y-64802619D01*
X94007023Y-64897857D01*
X94007023Y-65040714D01*
X93959404Y-65135952D01*
X93911785Y-65183571D01*
X93816547Y-65231190D01*
X93435595Y-65231190D01*
X94435595Y-65707380D02*
X94435595Y-64707380D01*
X94816547Y-64707380D01*
X94911785Y-64755000D01*
X94959404Y-64802619D01*
X95007023Y-64897857D01*
X95007023Y-65040714D01*
X94959404Y-65135952D01*
X94911785Y-65183571D01*
X94816547Y-65231190D01*
X94435595Y-65231190D01*
X95387976Y-64802619D02*
X95435595Y-64755000D01*
X95530833Y-64707380D01*
X95768928Y-64707380D01*
X95864166Y-64755000D01*
X95911785Y-64802619D01*
X95959404Y-64897857D01*
X95959404Y-64993095D01*
X95911785Y-65135952D01*
X95340357Y-65707380D01*
X95959404Y-65707380D01*
X96578452Y-64707380D02*
X96673690Y-64707380D01*
X96768928Y-64755000D01*
X96816547Y-64802619D01*
X96864166Y-64897857D01*
X96911785Y-65088333D01*
X96911785Y-65326428D01*
X96864166Y-65516904D01*
X96816547Y-65612142D01*
X96768928Y-65659761D01*
X96673690Y-65707380D01*
X96578452Y-65707380D01*
X96483214Y-65659761D01*
X96435595Y-65612142D01*
X96387976Y-65516904D01*
X96340357Y-65326428D01*
X96340357Y-65088333D01*
X96387976Y-64897857D01*
X96435595Y-64802619D01*
X96483214Y-64755000D01*
X96578452Y-64707380D01*
X97768928Y-65040714D02*
X97768928Y-65707380D01*
X97530833Y-64659761D02*
X97292738Y-65374047D01*
X97911785Y-65374047D01*
X98483214Y-64707380D02*
X98578452Y-64707380D01*
X98673690Y-64755000D01*
X98721309Y-64802619D01*
X98768928Y-64897857D01*
X98816547Y-65088333D01*
X98816547Y-65326428D01*
X98768928Y-65516904D01*
X98721309Y-65612142D01*
X98673690Y-65659761D01*
X98578452Y-65707380D01*
X98483214Y-65707380D01*
X98387976Y-65659761D01*
X98340357Y-65612142D01*
X98292738Y-65516904D01*
X98245119Y-65326428D01*
X98245119Y-65088333D01*
X98292738Y-64897857D01*
X98340357Y-64802619D01*
X98387976Y-64755000D01*
X98483214Y-64707380D01*
X100340357Y-65183571D02*
X100483214Y-65231190D01*
X100530833Y-65278809D01*
X100578452Y-65374047D01*
X100578452Y-65516904D01*
X100530833Y-65612142D01*
X100483214Y-65659761D01*
X100387976Y-65707380D01*
X100007023Y-65707380D01*
X100007023Y-64707380D01*
X100340357Y-64707380D01*
X100435595Y-64755000D01*
X100483214Y-64802619D01*
X100530833Y-64897857D01*
X100530833Y-64993095D01*
X100483214Y-65088333D01*
X100435595Y-65135952D01*
X100340357Y-65183571D01*
X100007023Y-65183571D01*
X101435595Y-65707380D02*
X101435595Y-65183571D01*
X101387976Y-65088333D01*
X101292738Y-65040714D01*
X101102261Y-65040714D01*
X101007023Y-65088333D01*
X101435595Y-65659761D02*
X101340357Y-65707380D01*
X101102261Y-65707380D01*
X101007023Y-65659761D01*
X100959404Y-65564523D01*
X100959404Y-65469285D01*
X101007023Y-65374047D01*
X101102261Y-65326428D01*
X101340357Y-65326428D01*
X101435595Y-65278809D01*
X101864166Y-65659761D02*
X101959404Y-65707380D01*
X102149880Y-65707380D01*
X102245119Y-65659761D01*
X102292738Y-65564523D01*
X102292738Y-65516904D01*
X102245119Y-65421666D01*
X102149880Y-65374047D01*
X102007023Y-65374047D01*
X101911785Y-65326428D01*
X101864166Y-65231190D01*
X101864166Y-65183571D01*
X101911785Y-65088333D01*
X102007023Y-65040714D01*
X102149880Y-65040714D01*
X102245119Y-65088333D01*
X103102261Y-65659761D02*
X103007023Y-65707380D01*
X102816547Y-65707380D01*
X102721309Y-65659761D01*
X102673690Y-65564523D01*
X102673690Y-65183571D01*
X102721309Y-65088333D01*
X102816547Y-65040714D01*
X103007023Y-65040714D01*
X103102261Y-65088333D01*
X103149880Y-65183571D01*
X103149880Y-65278809D01*
X102673690Y-65374047D01*
X104007023Y-65707380D02*
X104007023Y-64707380D01*
X104007023Y-65659761D02*
X103911785Y-65707380D01*
X103721309Y-65707380D01*
X103626071Y-65659761D01*
X103578452Y-65612142D01*
X103530833Y-65516904D01*
X103530833Y-65231190D01*
X103578452Y-65135952D01*
X103626071Y-65088333D01*
X103721309Y-65040714D01*
X103911785Y-65040714D01*
X104007023Y-65088333D01*
X105102261Y-64707380D02*
X105435595Y-65707380D01*
X105768928Y-64707380D01*
X106102261Y-65707380D02*
X106102261Y-65040714D01*
X106102261Y-64707380D02*
X106054642Y-64755000D01*
X106102261Y-64802619D01*
X106149880Y-64755000D01*
X106102261Y-64707380D01*
X106102261Y-64802619D01*
X107007023Y-65707380D02*
X107007023Y-64707380D01*
X107007023Y-65659761D02*
X106911785Y-65707380D01*
X106721309Y-65707380D01*
X106626071Y-65659761D01*
X106578452Y-65612142D01*
X106530833Y-65516904D01*
X106530833Y-65231190D01*
X106578452Y-65135952D01*
X106626071Y-65088333D01*
X106721309Y-65040714D01*
X106911785Y-65040714D01*
X107007023Y-65088333D01*
X107864166Y-65659761D02*
X107768928Y-65707380D01*
X107578452Y-65707380D01*
X107483214Y-65659761D01*
X107435595Y-65564523D01*
X107435595Y-65183571D01*
X107483214Y-65088333D01*
X107578452Y-65040714D01*
X107768928Y-65040714D01*
X107864166Y-65088333D01*
X107911785Y-65183571D01*
X107911785Y-65278809D01*
X107435595Y-65374047D01*
X108483214Y-65707380D02*
X108387976Y-65659761D01*
X108340357Y-65612142D01*
X108292738Y-65516904D01*
X108292738Y-65231190D01*
X108340357Y-65135952D01*
X108387976Y-65088333D01*
X108483214Y-65040714D01*
X108626071Y-65040714D01*
X108721309Y-65088333D01*
X108768928Y-65135952D01*
X108816547Y-65231190D01*
X108816547Y-65516904D01*
X108768928Y-65612142D01*
X108721309Y-65659761D01*
X108626071Y-65707380D01*
X108483214Y-65707380D01*
X109245119Y-65326428D02*
X110007023Y-65326428D01*
X111007023Y-64755000D02*
X110911785Y-64707380D01*
X110768928Y-64707380D01*
X110626071Y-64755000D01*
X110530833Y-64850238D01*
X110483214Y-64945476D01*
X110435595Y-65135952D01*
X110435595Y-65278809D01*
X110483214Y-65469285D01*
X110530833Y-65564523D01*
X110626071Y-65659761D01*
X110768928Y-65707380D01*
X110864166Y-65707380D01*
X111007023Y-65659761D01*
X111054642Y-65612142D01*
X111054642Y-65278809D01*
X110864166Y-65278809D01*
X111911785Y-65707380D02*
X111911785Y-65183571D01*
X111864166Y-65088333D01*
X111768928Y-65040714D01*
X111578452Y-65040714D01*
X111483214Y-65088333D01*
X111911785Y-65659761D02*
X111816547Y-65707380D01*
X111578452Y-65707380D01*
X111483214Y-65659761D01*
X111435595Y-65564523D01*
X111435595Y-65469285D01*
X111483214Y-65374047D01*
X111578452Y-65326428D01*
X111816547Y-65326428D01*
X111911785Y-65278809D01*
X112387976Y-65707380D02*
X112387976Y-65040714D01*
X112387976Y-65135952D02*
X112435595Y-65088333D01*
X112530833Y-65040714D01*
X112673690Y-65040714D01*
X112768928Y-65088333D01*
X112816547Y-65183571D01*
X112816547Y-65707380D01*
X112816547Y-65183571D02*
X112864166Y-65088333D01*
X112959404Y-65040714D01*
X113102261Y-65040714D01*
X113197500Y-65088333D01*
X113245119Y-65183571D01*
X113245119Y-65707380D01*
X114102261Y-65659761D02*
X114007023Y-65707380D01*
X113816547Y-65707380D01*
X113721309Y-65659761D01*
X113673690Y-65564523D01*
X113673690Y-65183571D01*
X113721309Y-65088333D01*
X113816547Y-65040714D01*
X114007023Y-65040714D01*
X114102261Y-65088333D01*
X114149880Y-65183571D01*
X114149880Y-65278809D01*
X113673690Y-65374047D01*
X115911785Y-65612142D02*
X115864166Y-65659761D01*
X115721309Y-65707380D01*
X115626071Y-65707380D01*
X115483214Y-65659761D01*
X115387976Y-65564523D01*
X115340357Y-65469285D01*
X115292738Y-65278809D01*
X115292738Y-65135952D01*
X115340357Y-64945476D01*
X115387976Y-64850238D01*
X115483214Y-64755000D01*
X115626071Y-64707380D01*
X115721309Y-64707380D01*
X115864166Y-64755000D01*
X115911785Y-64802619D01*
X116483214Y-65707380D02*
X116387976Y-65659761D01*
X116340357Y-65612142D01*
X116292738Y-65516904D01*
X116292738Y-65231190D01*
X116340357Y-65135952D01*
X116387976Y-65088333D01*
X116483214Y-65040714D01*
X116626071Y-65040714D01*
X116721309Y-65088333D01*
X116768928Y-65135952D01*
X116816547Y-65231190D01*
X116816547Y-65516904D01*
X116768928Y-65612142D01*
X116721309Y-65659761D01*
X116626071Y-65707380D01*
X116483214Y-65707380D01*
X117245119Y-65040714D02*
X117245119Y-65707380D01*
X117245119Y-65135952D02*
X117292738Y-65088333D01*
X117387976Y-65040714D01*
X117530833Y-65040714D01*
X117626071Y-65088333D01*
X117673690Y-65183571D01*
X117673690Y-65707380D01*
X118007023Y-65040714D02*
X118387976Y-65040714D01*
X118149880Y-64707380D02*
X118149880Y-65564523D01*
X118197500Y-65659761D01*
X118292738Y-65707380D01*
X118387976Y-65707380D01*
X118721309Y-65707380D02*
X118721309Y-65040714D01*
X118721309Y-65231190D02*
X118768928Y-65135952D01*
X118816547Y-65088333D01*
X118911785Y-65040714D01*
X119007023Y-65040714D01*
X119483214Y-65707380D02*
X119387976Y-65659761D01*
X119340357Y-65612142D01*
X119292738Y-65516904D01*
X119292738Y-65231190D01*
X119340357Y-65135952D01*
X119387976Y-65088333D01*
X119483214Y-65040714D01*
X119626071Y-65040714D01*
X119721309Y-65088333D01*
X119768928Y-65135952D01*
X119816547Y-65231190D01*
X119816547Y-65516904D01*
X119768928Y-65612142D01*
X119721309Y-65659761D01*
X119626071Y-65707380D01*
X119483214Y-65707380D01*
X120387976Y-65707380D02*
X120292738Y-65659761D01*
X120245119Y-65564523D01*
X120245119Y-64707380D01*
X120911785Y-65707380D02*
X120816547Y-65659761D01*
X120768928Y-65564523D01*
X120768928Y-64707380D01*
X121673690Y-65659761D02*
X121578452Y-65707380D01*
X121387976Y-65707380D01*
X121292738Y-65659761D01*
X121245119Y-65564523D01*
X121245119Y-65183571D01*
X121292738Y-65088333D01*
X121387976Y-65040714D01*
X121578452Y-65040714D01*
X121673690Y-65088333D01*
X121721309Y-65183571D01*
X121721309Y-65278809D01*
X121245119Y-65374047D01*
X122149880Y-65707380D02*
X122149880Y-65040714D01*
X122149880Y-65231190D02*
X122197499Y-65135952D01*
X122245119Y-65088333D01*
X122340357Y-65040714D01*
X122435595Y-65040714D01*
X93491547Y-67527380D02*
X93574880Y-66860714D01*
X93562976Y-66955952D02*
X93616547Y-66908333D01*
X93717738Y-66860714D01*
X93860595Y-66860714D01*
X93949880Y-66908333D01*
X93985595Y-67003571D01*
X93920119Y-67527380D01*
X93985595Y-67003571D02*
X94045119Y-66908333D01*
X94146309Y-66860714D01*
X94289166Y-66860714D01*
X94378452Y-66908333D01*
X94414166Y-67003571D01*
X94348690Y-67527380D01*
X95253452Y-67527380D02*
X95318928Y-67003571D01*
X95283214Y-66908333D01*
X95193928Y-66860714D01*
X95003452Y-66860714D01*
X94902261Y-66908333D01*
X95259404Y-67479761D02*
X95158214Y-67527380D01*
X94920119Y-67527380D01*
X94830833Y-67479761D01*
X94795119Y-67384523D01*
X94807023Y-67289285D01*
X94866547Y-67194047D01*
X94967738Y-67146428D01*
X95205833Y-67146428D01*
X95307023Y-67098809D01*
X95729642Y-67527380D02*
X95854642Y-66527380D01*
X95872500Y-67146428D02*
X96110595Y-67527380D01*
X96193928Y-66860714D02*
X95765357Y-67241666D01*
X96539166Y-67527380D02*
X96622500Y-66860714D01*
X96664166Y-66527380D02*
X96610595Y-66575000D01*
X96652261Y-66622619D01*
X96705833Y-66575000D01*
X96664166Y-66527380D01*
X96652261Y-66622619D01*
X97098690Y-66860714D02*
X97015357Y-67527380D01*
X97086785Y-66955952D02*
X97140357Y-66908333D01*
X97241547Y-66860714D01*
X97384404Y-66860714D01*
X97473690Y-66908333D01*
X97509404Y-67003571D01*
X97443928Y-67527380D01*
X98432023Y-66860714D02*
X98330833Y-67670238D01*
X98271309Y-67765476D01*
X98217738Y-67813095D01*
X98116547Y-67860714D01*
X97973690Y-67860714D01*
X97884404Y-67813095D01*
X98354642Y-67479761D02*
X98253452Y-67527380D01*
X98062976Y-67527380D01*
X97973690Y-67479761D01*
X97932023Y-67432142D01*
X97896309Y-67336904D01*
X97932023Y-67051190D01*
X97991547Y-66955952D01*
X98045119Y-66908333D01*
X98146309Y-66860714D01*
X98336785Y-66860714D01*
X98426071Y-66908333D01*
X98836785Y-67432142D02*
X98878452Y-67479761D01*
X98824880Y-67527380D01*
X98783214Y-67479761D01*
X98836785Y-67432142D01*
X98824880Y-67527380D01*
X99812976Y-66860714D02*
X99729642Y-67527380D01*
X99384404Y-66860714D02*
X99318928Y-67384523D01*
X99354642Y-67479761D01*
X99443928Y-67527380D01*
X99586785Y-67527380D01*
X99687976Y-67479761D01*
X99741547Y-67432142D01*
X100289166Y-66860714D02*
X100205833Y-67527380D01*
X100277261Y-66955952D02*
X100330833Y-66908333D01*
X100432023Y-66860714D01*
X100574880Y-66860714D01*
X100664166Y-66908333D01*
X100699880Y-67003571D01*
X100634404Y-67527380D01*
X101068928Y-67479761D02*
X101158214Y-67527380D01*
X101348690Y-67527380D01*
X101449880Y-67479761D01*
X101509404Y-67384523D01*
X101515357Y-67336904D01*
X101479642Y-67241666D01*
X101390357Y-67194047D01*
X101247500Y-67194047D01*
X101158214Y-67146428D01*
X101122500Y-67051190D01*
X101128452Y-67003571D01*
X101187976Y-66908333D01*
X101289166Y-66860714D01*
X101432023Y-66860714D01*
X101521309Y-66908333D01*
X101908214Y-66860714D02*
X102015357Y-67527380D01*
X102265357Y-67051190D01*
X102396309Y-67527380D01*
X102670119Y-66860714D01*
X102979642Y-67432142D02*
X103021309Y-67479761D01*
X102967738Y-67527380D01*
X102926071Y-67479761D01*
X102979642Y-67432142D01*
X102967738Y-67527380D01*
X103830833Y-67479761D02*
X103729642Y-67527380D01*
X103539166Y-67527380D01*
X103449880Y-67479761D01*
X103414166Y-67384523D01*
X103461785Y-67003571D01*
X103521309Y-66908333D01*
X103622500Y-66860714D01*
X103812976Y-66860714D01*
X103902261Y-66908333D01*
X103937976Y-67003571D01*
X103926071Y-67098809D01*
X103437976Y-67194047D01*
X104729642Y-67527380D02*
X104854642Y-66527380D01*
X104735595Y-67479761D02*
X104634404Y-67527380D01*
X104443928Y-67527380D01*
X104354642Y-67479761D01*
X104312976Y-67432142D01*
X104277261Y-67336904D01*
X104312976Y-67051190D01*
X104372500Y-66955952D01*
X104426071Y-66908333D01*
X104527261Y-66860714D01*
X104717738Y-66860714D01*
X104807023Y-66908333D01*
X105717738Y-66860714D02*
X105634404Y-67527380D01*
X105289166Y-66860714D02*
X105223690Y-67384523D01*
X105259404Y-67479761D01*
X105348690Y-67527380D01*
X105491547Y-67527380D01*
X105592738Y-67479761D01*
X105646309Y-67432142D01*
X106122500Y-67432142D02*
X106164166Y-67479761D01*
X106110595Y-67527380D01*
X106068928Y-67479761D01*
X106122500Y-67432142D01*
X106110595Y-67527380D01*
X107015357Y-67527380D02*
X107080833Y-67003571D01*
X107045119Y-66908333D01*
X106955833Y-66860714D01*
X106765357Y-66860714D01*
X106664166Y-66908333D01*
X107021309Y-67479761D02*
X106920119Y-67527380D01*
X106682023Y-67527380D01*
X106592738Y-67479761D01*
X106557023Y-67384523D01*
X106568928Y-67289285D01*
X106628452Y-67194047D01*
X106729642Y-67146428D01*
X106967738Y-67146428D01*
X107068928Y-67098809D01*
X108003452Y-66860714D02*
X107920119Y-67527380D01*
X107574880Y-66860714D02*
X107509404Y-67384523D01*
X107545119Y-67479761D01*
X107634404Y-67527380D01*
X107777261Y-67527380D01*
X107878452Y-67479761D01*
X107932023Y-67432142D01*
%TO.C,TP2*%
X129378571Y-73952380D02*
X129378571Y-72952380D01*
X129711904Y-73666666D01*
X130045238Y-72952380D01*
X130045238Y-73952380D01*
X131092857Y-73857142D02*
X131045238Y-73904761D01*
X130902380Y-73952380D01*
X130807142Y-73952380D01*
X130664285Y-73904761D01*
X130569047Y-73809523D01*
X130521428Y-73714285D01*
X130473809Y-73523809D01*
X130473809Y-73380952D01*
X130521428Y-73190476D01*
X130569047Y-73095238D01*
X130664285Y-73000000D01*
X130807142Y-72952380D01*
X130902380Y-72952380D01*
X131045238Y-73000000D01*
X131092857Y-73047619D01*
X131521428Y-72952380D02*
X131521428Y-73761904D01*
X131569047Y-73857142D01*
X131616666Y-73904761D01*
X131711904Y-73952380D01*
X131902380Y-73952380D01*
X131997619Y-73904761D01*
X132045238Y-73857142D01*
X132092857Y-73761904D01*
X132092857Y-72952380D01*
X133854761Y-73952380D02*
X133283333Y-73952380D01*
X133569047Y-73952380D02*
X133569047Y-72952380D01*
X133473809Y-73095238D01*
X133378571Y-73190476D01*
X133283333Y-73238095D01*
X134188095Y-73285714D02*
X134426190Y-73952380D01*
X134664285Y-73285714D01*
X134997619Y-73047619D02*
X135045238Y-73000000D01*
X135140476Y-72952380D01*
X135378571Y-72952380D01*
X135473809Y-73000000D01*
X135521428Y-73047619D01*
X135569047Y-73142857D01*
X135569047Y-73238095D01*
X135521428Y-73380952D01*
X134950000Y-73952380D01*
X135569047Y-73952380D01*
%TO.C,TP10*%
X139933333Y-69527380D02*
X139457142Y-69527380D01*
X139457142Y-68527380D01*
X140266666Y-69527380D02*
X140266666Y-68527380D01*
X140504761Y-68527380D01*
X140647619Y-68575000D01*
X140742857Y-68670238D01*
X140790476Y-68765476D01*
X140838095Y-68955952D01*
X140838095Y-69098809D01*
X140790476Y-69289285D01*
X140742857Y-69384523D01*
X140647619Y-69479761D01*
X140504761Y-69527380D01*
X140266666Y-69527380D01*
X141457142Y-68527380D02*
X141647619Y-68527380D01*
X141742857Y-68575000D01*
X141838095Y-68670238D01*
X141885714Y-68860714D01*
X141885714Y-69194047D01*
X141838095Y-69384523D01*
X141742857Y-69479761D01*
X141647619Y-69527380D01*
X141457142Y-69527380D01*
X141361904Y-69479761D01*
X141266666Y-69384523D01*
X141219047Y-69194047D01*
X141219047Y-68860714D01*
X141266666Y-68670238D01*
X141361904Y-68575000D01*
X141457142Y-68527380D01*
X142152380Y-68836904D02*
X142419047Y-69636904D01*
X142685714Y-68836904D01*
X142952380Y-69636904D02*
X142952380Y-68836904D01*
X143333333Y-69636904D02*
X143333333Y-68836904D01*
X143790476Y-69636904D01*
X143790476Y-68836904D01*
%TO.C,TP9*%
X137058333Y-69652380D02*
X136582142Y-69652380D01*
X136582142Y-68652380D01*
X137391666Y-69652380D02*
X137391666Y-68652380D01*
X137629761Y-68652380D01*
X137772618Y-68700000D01*
X137867856Y-68795238D01*
X137915475Y-68890476D01*
X137963094Y-69080952D01*
X137963094Y-69223809D01*
X137915475Y-69414285D01*
X137867856Y-69509523D01*
X137772618Y-69604761D01*
X137629761Y-69652380D01*
X137391666Y-69652380D01*
X138582142Y-68652380D02*
X138772618Y-68652380D01*
X138867856Y-68700000D01*
X138963094Y-68795238D01*
X139010713Y-68985714D01*
X139010713Y-69319047D01*
X138963094Y-69509523D01*
X138867856Y-69604761D01*
X138772618Y-69652380D01*
X138582142Y-69652380D01*
X138486904Y-69604761D01*
X138391666Y-69509523D01*
X138344047Y-69319047D01*
X138344047Y-68985714D01*
X138391666Y-68795238D01*
X138486904Y-68700000D01*
X138582142Y-68652380D01*
X139277380Y-68961904D02*
X139544047Y-69761904D01*
X139810713Y-68961904D01*
X140229761Y-68961904D02*
X140382142Y-68961904D01*
X140458333Y-69000000D01*
X140534523Y-69076190D01*
X140572618Y-69228571D01*
X140572618Y-69495238D01*
X140534523Y-69647619D01*
X140458333Y-69723809D01*
X140382142Y-69761904D01*
X140229761Y-69761904D01*
X140153571Y-69723809D01*
X140077380Y-69647619D01*
X140039285Y-69495238D01*
X140039285Y-69228571D01*
X140077380Y-69076190D01*
X140153571Y-69000000D01*
X140229761Y-68961904D01*
X140915475Y-68961904D02*
X140915475Y-69609523D01*
X140953571Y-69685714D01*
X140991666Y-69723809D01*
X141067856Y-69761904D01*
X141220237Y-69761904D01*
X141296428Y-69723809D01*
X141334523Y-69685714D01*
X141372618Y-69609523D01*
X141372618Y-68961904D01*
X141639285Y-68961904D02*
X142096428Y-68961904D01*
X141867856Y-69761904D02*
X141867856Y-68961904D01*
%TO.C,TP1*%
X129378571Y-71952380D02*
X129378571Y-70952380D01*
X129711904Y-71666666D01*
X130045238Y-70952380D01*
X130045238Y-71952380D01*
X131092857Y-71857142D02*
X131045238Y-71904761D01*
X130902380Y-71952380D01*
X130807142Y-71952380D01*
X130664285Y-71904761D01*
X130569047Y-71809523D01*
X130521428Y-71714285D01*
X130473809Y-71523809D01*
X130473809Y-71380952D01*
X130521428Y-71190476D01*
X130569047Y-71095238D01*
X130664285Y-71000000D01*
X130807142Y-70952380D01*
X130902380Y-70952380D01*
X131045238Y-71000000D01*
X131092857Y-71047619D01*
X131521428Y-70952380D02*
X131521428Y-71761904D01*
X131569047Y-71857142D01*
X131616666Y-71904761D01*
X131711904Y-71952380D01*
X131902380Y-71952380D01*
X131997619Y-71904761D01*
X132045238Y-71857142D01*
X132092857Y-71761904D01*
X132092857Y-70952380D01*
X133235714Y-70952380D02*
X133854761Y-70952380D01*
X133521428Y-71333333D01*
X133664285Y-71333333D01*
X133759523Y-71380952D01*
X133807142Y-71428571D01*
X133854761Y-71523809D01*
X133854761Y-71761904D01*
X133807142Y-71857142D01*
X133759523Y-71904761D01*
X133664285Y-71952380D01*
X133378571Y-71952380D01*
X133283333Y-71904761D01*
X133235714Y-71857142D01*
X134188095Y-71285714D02*
X134426190Y-71952380D01*
X134664285Y-71285714D01*
X134950000Y-70952380D02*
X135569047Y-70952380D01*
X135235714Y-71333333D01*
X135378571Y-71333333D01*
X135473809Y-71380952D01*
X135521428Y-71428571D01*
X135569047Y-71523809D01*
X135569047Y-71761904D01*
X135521428Y-71857142D01*
X135473809Y-71904761D01*
X135378571Y-71952380D01*
X135092857Y-71952380D01*
X134997619Y-71904761D01*
X134950000Y-71857142D01*
%TO.C,TP8*%
X150766666Y-65877380D02*
X151100000Y-66877380D01*
X151433333Y-65877380D01*
X152100000Y-66353571D02*
X152242857Y-66401190D01*
X152290476Y-66448809D01*
X152338095Y-66544047D01*
X152338095Y-66686904D01*
X152290476Y-66782142D01*
X152242857Y-66829761D01*
X152147619Y-66877380D01*
X151766666Y-66877380D01*
X151766666Y-65877380D01*
X152100000Y-65877380D01*
X152195238Y-65925000D01*
X152242857Y-65972619D01*
X152290476Y-66067857D01*
X152290476Y-66163095D01*
X152242857Y-66258333D01*
X152195238Y-66305952D01*
X152100000Y-66353571D01*
X151766666Y-66353571D01*
X152766666Y-65877380D02*
X152766666Y-66686904D01*
X152814285Y-66782142D01*
X152861904Y-66829761D01*
X152957142Y-66877380D01*
X153147619Y-66877380D01*
X153242857Y-66829761D01*
X153290476Y-66782142D01*
X153338095Y-66686904D01*
X153338095Y-65877380D01*
X153766666Y-66829761D02*
X153909523Y-66877380D01*
X154147619Y-66877380D01*
X154242857Y-66829761D01*
X154290476Y-66782142D01*
X154338095Y-66686904D01*
X154338095Y-66591666D01*
X154290476Y-66496428D01*
X154242857Y-66448809D01*
X154147619Y-66401190D01*
X153957142Y-66353571D01*
X153861904Y-66305952D01*
X153814285Y-66258333D01*
X153766666Y-66163095D01*
X153766666Y-66067857D01*
X153814285Y-65972619D01*
X153861904Y-65925000D01*
X153957142Y-65877380D01*
X154195238Y-65877380D01*
X154338095Y-65925000D01*
%TO.C,TP12*%
X133098809Y-79895000D02*
X134098809Y-79895000D01*
X133908333Y-81082142D02*
X133860714Y-81129761D01*
X133717857Y-81177380D01*
X133622619Y-81177380D01*
X133479761Y-81129761D01*
X133384523Y-81034523D01*
X133336904Y-80939285D01*
X133289285Y-80748809D01*
X133289285Y-80605952D01*
X133336904Y-80415476D01*
X133384523Y-80320238D01*
X133479761Y-80225000D01*
X133622619Y-80177380D01*
X133717857Y-80177380D01*
X133860714Y-80225000D01*
X133908333Y-80272619D01*
X134098809Y-79895000D02*
X135051190Y-79895000D01*
X134289285Y-81129761D02*
X134432142Y-81177380D01*
X134670238Y-81177380D01*
X134765476Y-81129761D01*
X134813095Y-81082142D01*
X134860714Y-80986904D01*
X134860714Y-80891666D01*
X134813095Y-80796428D01*
X134765476Y-80748809D01*
X134670238Y-80701190D01*
X134479761Y-80653571D01*
X134384523Y-80605952D01*
X134336904Y-80558333D01*
X134289285Y-80463095D01*
X134289285Y-80367857D01*
X134336904Y-80272619D01*
X134384523Y-80225000D01*
X134479761Y-80177380D01*
X134717857Y-80177380D01*
X134860714Y-80225000D01*
%TO.C,REF\u002A\u002A*%
D11*
X153320017Y-85658011D02*
X153353350Y-85712181D01*
X153378350Y-85808011D01*
X153370017Y-85933011D01*
X153332550Y-86016351D01*
X153286683Y-86053851D01*
X153240883Y-86062181D01*
X152728350Y-86062181D01*
X152728350Y-85633011D01*
X153282550Y-85633011D01*
X153320017Y-85658011D01*
D12*
X150569220Y-82832311D02*
X150685020Y-82842541D01*
X150800020Y-82859481D01*
X150913820Y-82883071D01*
X151026020Y-82913231D01*
X151136350Y-82949861D01*
X151244280Y-82992831D01*
X151349620Y-83042011D01*
X151451880Y-83097211D01*
X151550750Y-83158261D01*
X151645950Y-83224961D01*
X151737080Y-83297071D01*
X151823880Y-83374351D01*
X151906080Y-83456541D01*
X151945020Y-83499681D01*
X151261680Y-84149681D01*
X151237350Y-84115951D01*
X151184080Y-84052041D01*
X151126020Y-83992511D01*
X151063350Y-83937761D01*
X150996620Y-83888111D01*
X150926150Y-83843881D01*
X150852480Y-83805341D01*
X150775950Y-83772731D01*
X150697080Y-83746261D01*
X150616350Y-83726091D01*
X150534350Y-83712331D01*
X150451480Y-83705091D01*
X150368280Y-83704411D01*
X150285280Y-83710291D01*
X150203080Y-83722681D01*
X150122020Y-83741531D01*
X150042750Y-83766701D01*
X149965680Y-83798051D01*
X149928350Y-83816351D01*
X149892420Y-83834351D01*
X149823480Y-83875551D01*
X149758220Y-83922411D01*
X149697150Y-83974591D01*
X149640680Y-84031731D01*
X149589220Y-84093411D01*
X149543080Y-84159211D01*
X149502680Y-84228651D01*
X149468280Y-84301241D01*
X149440080Y-84376471D01*
X149418350Y-84453801D01*
X149403150Y-84532691D01*
X149394680Y-84612581D01*
X149392880Y-84692901D01*
X149395020Y-84733011D01*
X149393620Y-84773591D01*
X149396350Y-84854751D01*
X149405480Y-84935451D01*
X149420950Y-85015171D01*
X149442550Y-85093441D01*
X149470280Y-85169771D01*
X149503880Y-85243691D01*
X149543220Y-85314741D01*
X149588020Y-85382491D01*
X149637950Y-85446511D01*
X149692820Y-85506411D01*
X149752150Y-85561831D01*
X149815680Y-85612421D01*
X149882950Y-85657871D01*
X149953620Y-85697891D01*
X150027220Y-85732251D01*
X150103280Y-85760731D01*
X150181280Y-85783151D01*
X150260880Y-85799371D01*
X150341480Y-85809301D01*
X150422620Y-85812871D01*
X150503750Y-85810071D01*
X150584420Y-85800911D01*
X150664150Y-85785441D01*
X150742420Y-85763761D01*
X150818750Y-85736011D01*
X150892620Y-85702351D01*
X150928350Y-85683011D01*
X151111680Y-85599681D01*
X151245020Y-85149681D01*
X150311680Y-85149681D01*
X150311680Y-84383011D01*
X151995020Y-84383011D01*
X151995020Y-86049681D01*
X151951350Y-86092791D01*
X151859880Y-86174591D01*
X151763950Y-86251121D01*
X151663880Y-86322131D01*
X151559950Y-86387401D01*
X151452550Y-86446721D01*
X151341950Y-86499911D01*
X151228550Y-86546781D01*
X151112680Y-86587201D01*
X150994750Y-86621041D01*
X150875080Y-86648191D01*
X150754080Y-86668561D01*
X150632150Y-86682091D01*
X150509620Y-86688751D01*
X150386880Y-86688491D01*
X150264350Y-86681331D01*
X150142480Y-86667291D01*
X150021550Y-86646421D01*
X149961680Y-86633011D01*
X149908620Y-86622471D01*
X149803680Y-86595911D01*
X149700480Y-86563191D01*
X149599480Y-86524411D01*
X149500880Y-86479731D01*
X149405150Y-86429291D01*
X149312480Y-86373271D01*
X149223350Y-86311871D01*
X149138020Y-86245291D01*
X149056820Y-86173791D01*
X148979880Y-86097601D01*
X148907680Y-86017001D01*
X148840350Y-85932261D01*
X148778150Y-85843691D01*
X148721280Y-85751591D01*
X148670020Y-85656291D01*
X148624420Y-85558111D01*
X148584750Y-85457411D01*
X148551080Y-85354551D01*
X148523550Y-85249871D01*
X148502350Y-85143741D01*
X148487350Y-85036541D01*
X148478820Y-84928651D01*
X148476620Y-84820441D01*
X148478350Y-84766351D01*
X148476880Y-84709871D01*
X148479820Y-84596911D01*
X148489620Y-84484351D01*
X148506150Y-84372571D01*
X148529420Y-84262001D01*
X148559280Y-84153031D01*
X148595680Y-84046061D01*
X148638480Y-83941481D01*
X148687480Y-83839661D01*
X148742480Y-83740991D01*
X148803420Y-83645811D01*
X148869950Y-83554471D01*
X148941820Y-83467321D01*
X149018880Y-83384651D01*
X149100750Y-83306781D01*
X149187150Y-83233981D01*
X149277820Y-83166531D01*
X149372350Y-83104661D01*
X149470480Y-83048611D01*
X149571750Y-82998571D01*
X149675950Y-82954731D01*
X149782480Y-82917241D01*
X149891150Y-82886251D01*
X150001480Y-82861861D01*
X150113080Y-82844171D01*
X150225550Y-82833241D01*
X150338480Y-82829111D01*
X150394950Y-82830031D01*
X150453080Y-82828811D01*
X150569220Y-82832311D01*
G36*
X148161680Y-86049681D02*
G01*
X148228350Y-86049681D01*
X148811680Y-85133011D01*
X149428350Y-85133011D01*
X148778350Y-86116351D01*
X149545020Y-87449681D01*
X148945020Y-87449681D01*
X148461680Y-86599681D01*
X148411680Y-86599681D01*
X148161680Y-86933011D01*
X148161680Y-87449681D01*
X147645020Y-87449681D01*
X147645020Y-85133011D01*
X148161680Y-85133011D01*
X148161680Y-86049681D01*
G37*
D11*
X148161680Y-86049681D02*
X148228350Y-86049681D01*
X148811680Y-85133011D01*
X149428350Y-85133011D01*
X148778350Y-86116351D01*
X149545020Y-87449681D01*
X148945020Y-87449681D01*
X148461680Y-86599681D01*
X148411680Y-86599681D01*
X148161680Y-86933011D01*
X148161680Y-87449681D01*
X147645020Y-87449681D01*
X147645020Y-85133011D01*
X148161680Y-85133011D01*
X148161680Y-86049681D01*
D12*
X147245020Y-84883011D02*
X147295020Y-84883011D01*
X147295020Y-82866351D01*
X148161680Y-82866351D01*
X148161680Y-86666351D01*
X147695020Y-86666351D01*
X147595020Y-86566351D01*
X145678350Y-84616351D01*
X145628350Y-84616351D01*
X145628350Y-86666351D01*
X144728350Y-86666351D01*
X144728350Y-82866351D01*
X145228350Y-82866351D01*
X147245020Y-84883011D01*
G36*
X151611680Y-85633011D02*
G01*
X150545020Y-85633011D01*
X150545020Y-86066351D01*
X151445020Y-86066351D01*
X151445020Y-86566351D01*
X150545020Y-86566351D01*
X150545020Y-86966351D01*
X151611680Y-86966351D01*
X151611680Y-87449681D01*
X150045020Y-87449681D01*
X150045020Y-85133011D01*
X151611680Y-85133011D01*
X151611680Y-85633011D01*
G37*
D11*
X151611680Y-85633011D02*
X150545020Y-85633011D01*
X150545020Y-86066351D01*
X151445020Y-86066351D01*
X151445020Y-86566351D01*
X150545020Y-86566351D01*
X150545020Y-86966351D01*
X151611680Y-86966351D01*
X151611680Y-87449681D01*
X150045020Y-87449681D01*
X150045020Y-85133011D01*
X151611680Y-85133011D01*
X151611680Y-85633011D01*
G36*
X143545050Y-86466351D02*
G01*
X143578350Y-86466351D01*
X143961650Y-85133011D01*
X144578350Y-85133011D01*
X144578350Y-87449681D01*
X144128350Y-87449681D01*
X144128350Y-86283011D01*
X144061680Y-86283011D01*
X143761650Y-87199681D01*
X143361650Y-87199681D01*
X143061650Y-86283011D01*
X142995050Y-86283011D01*
X142995050Y-87449681D01*
X142545050Y-87449681D01*
X142545050Y-85133011D01*
X143161650Y-85133011D01*
X143545050Y-86466351D01*
G37*
X143545050Y-86466351D02*
X143578350Y-86466351D01*
X143961650Y-85133011D01*
X144578350Y-85133011D01*
X144578350Y-87449681D01*
X144128350Y-87449681D01*
X144128350Y-86283011D01*
X144061680Y-86283011D01*
X143761650Y-87199681D01*
X143361650Y-87199681D01*
X143061650Y-86283011D01*
X142995050Y-86283011D01*
X142995050Y-87449681D01*
X142545050Y-87449681D01*
X142545050Y-85133011D01*
X143161650Y-85133011D01*
X143545050Y-86466351D01*
G36*
X153411683Y-85133011D02*
G01*
X153578350Y-85216351D01*
X153661683Y-85283011D01*
X153745017Y-85366351D01*
X153828350Y-85483011D01*
X153878350Y-85599681D01*
X153895017Y-85766351D01*
X153895017Y-85966351D01*
X153878350Y-86066351D01*
X153845017Y-86183011D01*
X153778350Y-86299681D01*
X153695017Y-86399681D01*
X153628350Y-86449681D01*
X153545017Y-86499681D01*
X153511683Y-86516351D01*
X153511683Y-86549681D01*
X154028350Y-87449681D01*
X153411683Y-87449681D01*
X152928350Y-86566351D01*
X152728350Y-86566351D01*
X152728350Y-87449681D01*
X152228350Y-87449681D01*
X152228350Y-86062181D01*
X152728350Y-86062181D01*
X153240883Y-86062181D01*
X153286683Y-86053851D01*
X153332550Y-86016351D01*
X153370017Y-85933011D01*
X153378350Y-85808011D01*
X153353350Y-85712181D01*
X153320017Y-85658011D01*
X153282550Y-85633011D01*
X152728350Y-85633011D01*
X152728350Y-86062181D01*
X152228350Y-86062181D01*
X152228350Y-85133011D01*
X153411683Y-85133011D01*
G37*
X153411683Y-85133011D02*
X153578350Y-85216351D01*
X153661683Y-85283011D01*
X153745017Y-85366351D01*
X153828350Y-85483011D01*
X153878350Y-85599681D01*
X153895017Y-85766351D01*
X153895017Y-85966351D01*
X153878350Y-86066351D01*
X153845017Y-86183011D01*
X153778350Y-86299681D01*
X153695017Y-86399681D01*
X153628350Y-86449681D01*
X153545017Y-86499681D01*
X153511683Y-86516351D01*
X153511683Y-86549681D01*
X154028350Y-87449681D01*
X153411683Y-87449681D01*
X152928350Y-86566351D01*
X152728350Y-86566351D01*
X152728350Y-87449681D01*
X152228350Y-87449681D01*
X152228350Y-86062181D01*
X152728350Y-86062181D01*
X153240883Y-86062181D01*
X153286683Y-86053851D01*
X153332550Y-86016351D01*
X153370017Y-85933011D01*
X153378350Y-85808011D01*
X153353350Y-85712181D01*
X153320017Y-85658011D01*
X153282550Y-85633011D01*
X152728350Y-85633011D01*
X152728350Y-86062181D01*
X152228350Y-86062181D01*
X152228350Y-85133011D01*
X153411683Y-85133011D01*
G36*
X146645840Y-86115471D02*
G01*
X146078350Y-86116351D01*
X145895020Y-86599681D01*
X146311680Y-86599681D01*
X146128350Y-86116351D01*
X146646350Y-86116351D01*
X147145020Y-87449681D01*
X146595020Y-87449681D01*
X146465850Y-87099681D01*
X145740850Y-87099681D01*
X145611680Y-87449681D01*
X145061680Y-87449681D01*
X145945020Y-85133011D01*
X146278350Y-85133011D01*
X146645840Y-86115471D01*
G37*
X146645840Y-86115471D02*
X146078350Y-86116351D01*
X145895020Y-86599681D01*
X146311680Y-86599681D01*
X146128350Y-86116351D01*
X146646350Y-86116351D01*
X147145020Y-87449681D01*
X146595020Y-87449681D01*
X146465850Y-87099681D01*
X145740850Y-87099681D01*
X145611680Y-87449681D01*
X145061680Y-87449681D01*
X145945020Y-85133011D01*
X146278350Y-85133011D01*
X146645840Y-86115471D01*
G36*
X154028350Y-88149681D02*
G01*
X152678350Y-88149681D01*
X152678350Y-89083011D01*
X153845017Y-89083011D01*
X153845017Y-89283011D01*
X152678350Y-89283011D01*
X152678350Y-90216348D01*
X154028350Y-90216348D01*
X154028350Y-90399681D01*
X152478350Y-90399681D01*
X152478350Y-87966351D01*
X154028350Y-87966351D01*
X154028350Y-88149681D01*
G37*
X154028350Y-88149681D02*
X152678350Y-88149681D01*
X152678350Y-89083011D01*
X153845017Y-89083011D01*
X153845017Y-89283011D01*
X152678350Y-89283011D01*
X152678350Y-90216348D01*
X154028350Y-90216348D01*
X154028350Y-90399681D01*
X152478350Y-90399681D01*
X152478350Y-87966351D01*
X154028350Y-87966351D01*
X154028350Y-88149681D01*
G36*
X150877082Y-87925125D02*
G01*
X151061074Y-87968784D01*
X151230814Y-88052133D01*
X151377864Y-88171025D01*
X151494908Y-88319550D01*
X151576128Y-88490320D01*
X151599350Y-88582011D01*
X151387680Y-88582011D01*
X151363312Y-88503259D01*
X151280464Y-88360806D01*
X151164033Y-88244185D01*
X151021716Y-88161105D01*
X150862919Y-88117056D01*
X150698140Y-88114951D01*
X150538270Y-88154929D01*
X150393877Y-88234347D01*
X150274505Y-88347955D01*
X150188045Y-88488245D01*
X150161680Y-88566351D01*
X150135624Y-88866028D01*
X150134793Y-89467600D01*
X150160020Y-89767348D01*
X150184404Y-89846140D01*
X150267299Y-89988664D01*
X150383794Y-90105342D01*
X150526186Y-90188464D01*
X150685065Y-90232534D01*
X150849930Y-90234639D01*
X151009883Y-90194642D01*
X151154352Y-90115184D01*
X151273788Y-90001519D01*
X151360297Y-89861159D01*
X151386680Y-89783014D01*
X151386680Y-89783681D01*
X151598420Y-89783681D01*
X151573911Y-89874085D01*
X151491101Y-90042053D01*
X151373718Y-90187970D01*
X151227392Y-90304843D01*
X151059136Y-90387066D01*
X150877019Y-90430700D01*
X150689771Y-90433650D01*
X150506369Y-90395777D01*
X150335607Y-90318896D01*
X150185670Y-90206692D01*
X150063749Y-90064545D01*
X149975687Y-89899271D01*
X149948350Y-89809681D01*
X149919489Y-89603560D01*
X149899535Y-89187810D01*
X149922833Y-88772233D01*
X149953350Y-88566351D01*
X149978318Y-88475120D01*
X150062772Y-88305926D01*
X150182621Y-88159655D01*
X150331906Y-88043581D01*
X150503202Y-87963477D01*
X150687990Y-87923326D01*
X150877082Y-87925125D01*
G37*
X150877082Y-87925125D02*
X151061074Y-87968784D01*
X151230814Y-88052133D01*
X151377864Y-88171025D01*
X151494908Y-88319550D01*
X151576128Y-88490320D01*
X151599350Y-88582011D01*
X151387680Y-88582011D01*
X151363312Y-88503259D01*
X151280464Y-88360806D01*
X151164033Y-88244185D01*
X151021716Y-88161105D01*
X150862919Y-88117056D01*
X150698140Y-88114951D01*
X150538270Y-88154929D01*
X150393877Y-88234347D01*
X150274505Y-88347955D01*
X150188045Y-88488245D01*
X150161680Y-88566351D01*
X150135624Y-88866028D01*
X150134793Y-89467600D01*
X150160020Y-89767348D01*
X150184404Y-89846140D01*
X150267299Y-89988664D01*
X150383794Y-90105342D01*
X150526186Y-90188464D01*
X150685065Y-90232534D01*
X150849930Y-90234639D01*
X151009883Y-90194642D01*
X151154352Y-90115184D01*
X151273788Y-90001519D01*
X151360297Y-89861159D01*
X151386680Y-89783014D01*
X151386680Y-89783681D01*
X151598420Y-89783681D01*
X151573911Y-89874085D01*
X151491101Y-90042053D01*
X151373718Y-90187970D01*
X151227392Y-90304843D01*
X151059136Y-90387066D01*
X150877019Y-90430700D01*
X150689771Y-90433650D01*
X150506369Y-90395777D01*
X150335607Y-90318896D01*
X150185670Y-90206692D01*
X150063749Y-90064545D01*
X149975687Y-89899271D01*
X149948350Y-89809681D01*
X149919489Y-89603560D01*
X149899535Y-89187810D01*
X149922833Y-88772233D01*
X149953350Y-88566351D01*
X149978318Y-88475120D01*
X150062772Y-88305926D01*
X150182621Y-88159655D01*
X150331906Y-88043581D01*
X150503202Y-87963477D01*
X150687990Y-87923326D01*
X150877082Y-87925125D01*
G36*
X149311680Y-90399681D02*
G01*
X149115880Y-90399681D01*
X148895020Y-89799681D01*
X147695020Y-89799681D01*
X147478350Y-90399681D01*
X147261680Y-90399681D01*
X147554489Y-89608014D01*
X147761680Y-89608014D01*
X148828350Y-89608014D01*
X148320020Y-88208011D01*
X148270020Y-88208011D01*
X147761680Y-89608014D01*
X147554489Y-89608014D01*
X148161680Y-87966351D01*
X148428350Y-87966351D01*
X149021680Y-89608014D01*
X149165950Y-89998281D01*
X149311680Y-90399681D01*
G37*
X149311680Y-90399681D02*
X149115880Y-90399681D01*
X148895020Y-89799681D01*
X147695020Y-89799681D01*
X147478350Y-90399681D01*
X147261680Y-90399681D01*
X147554489Y-89608014D01*
X147761680Y-89608014D01*
X148828350Y-89608014D01*
X148320020Y-88208011D01*
X148270020Y-88208011D01*
X147761680Y-89608014D01*
X147554489Y-89608014D01*
X148161680Y-87966351D01*
X148428350Y-87966351D01*
X149021680Y-89608014D01*
X149165950Y-89998281D01*
X149311680Y-90399681D01*
G36*
X143611650Y-87933011D02*
G01*
X143861650Y-87999681D01*
X144078350Y-88099681D01*
X144195020Y-88166351D01*
X144078350Y-88316351D01*
X143928350Y-88249681D01*
X143828350Y-88199681D01*
X143628350Y-88133011D01*
X143545050Y-88116351D01*
X143261650Y-88116351D01*
X143111650Y-88166351D01*
X143011650Y-88216351D01*
X142911650Y-88299681D01*
X142861650Y-88366351D01*
X142828350Y-88433011D01*
X142811650Y-88483011D01*
X142795050Y-88566351D01*
X142795050Y-88666351D01*
X142811650Y-88749681D01*
X142861650Y-88833011D01*
X142911650Y-88883011D01*
X142978350Y-88933011D01*
X143145050Y-88999681D01*
X143728350Y-89133011D01*
X143911650Y-89199681D01*
X143995050Y-89233011D01*
X144095020Y-89316351D01*
X144161680Y-89399681D01*
X144228350Y-89533014D01*
X144245020Y-89616348D01*
X144261680Y-89733014D01*
X144228350Y-89899681D01*
X144178350Y-90033014D01*
X144078350Y-90183014D01*
X143978350Y-90266348D01*
X143845050Y-90333014D01*
X143678350Y-90399681D01*
X143345050Y-90416348D01*
X143211650Y-90416348D01*
X143045050Y-90399681D01*
X142795050Y-90316348D01*
X142678350Y-90266348D01*
X142478350Y-90133014D01*
X142495050Y-90116348D01*
X142611650Y-89983014D01*
X142678350Y-90033014D01*
X142828350Y-90116348D01*
X143011650Y-90183014D01*
X143128350Y-90216348D01*
X143395050Y-90233014D01*
X143595050Y-90216348D01*
X143761650Y-90166348D01*
X143861650Y-90099681D01*
X143978350Y-89983014D01*
X144028350Y-89899681D01*
X144045020Y-89783014D01*
X144045020Y-89683014D01*
X144028350Y-89583014D01*
X143961650Y-89483014D01*
X143861650Y-89399681D01*
X143678350Y-89333011D01*
X143478350Y-89283011D01*
X143095050Y-89199681D01*
X142911650Y-89133011D01*
X142811650Y-89083011D01*
X142728350Y-89016351D01*
X142661650Y-88916351D01*
X142611650Y-88816351D01*
X142595050Y-88733011D01*
X142595050Y-88499681D01*
X142611650Y-88433011D01*
X142695050Y-88249681D01*
X142795050Y-88133011D01*
X142961650Y-88016351D01*
X143278350Y-87933011D01*
X143378350Y-87916351D01*
X143495050Y-87916351D01*
X143611650Y-87933011D01*
G37*
X143611650Y-87933011D02*
X143861650Y-87999681D01*
X144078350Y-88099681D01*
X144195020Y-88166351D01*
X144078350Y-88316351D01*
X143928350Y-88249681D01*
X143828350Y-88199681D01*
X143628350Y-88133011D01*
X143545050Y-88116351D01*
X143261650Y-88116351D01*
X143111650Y-88166351D01*
X143011650Y-88216351D01*
X142911650Y-88299681D01*
X142861650Y-88366351D01*
X142828350Y-88433011D01*
X142811650Y-88483011D01*
X142795050Y-88566351D01*
X142795050Y-88666351D01*
X142811650Y-88749681D01*
X142861650Y-88833011D01*
X142911650Y-88883011D01*
X142978350Y-88933011D01*
X143145050Y-88999681D01*
X143728350Y-89133011D01*
X143911650Y-89199681D01*
X143995050Y-89233011D01*
X144095020Y-89316351D01*
X144161680Y-89399681D01*
X144228350Y-89533014D01*
X144245020Y-89616348D01*
X144261680Y-89733014D01*
X144228350Y-89899681D01*
X144178350Y-90033014D01*
X144078350Y-90183014D01*
X143978350Y-90266348D01*
X143845050Y-90333014D01*
X143678350Y-90399681D01*
X143345050Y-90416348D01*
X143211650Y-90416348D01*
X143045050Y-90399681D01*
X142795050Y-90316348D01*
X142678350Y-90266348D01*
X142478350Y-90133014D01*
X142495050Y-90116348D01*
X142611650Y-89983014D01*
X142678350Y-90033014D01*
X142828350Y-90116348D01*
X143011650Y-90183014D01*
X143128350Y-90216348D01*
X143395050Y-90233014D01*
X143595050Y-90216348D01*
X143761650Y-90166348D01*
X143861650Y-90099681D01*
X143978350Y-89983014D01*
X144028350Y-89899681D01*
X144045020Y-89783014D01*
X144045020Y-89683014D01*
X144028350Y-89583014D01*
X143961650Y-89483014D01*
X143861650Y-89399681D01*
X143678350Y-89333011D01*
X143478350Y-89283011D01*
X143095050Y-89199681D01*
X142911650Y-89133011D01*
X142811650Y-89083011D01*
X142728350Y-89016351D01*
X142661650Y-88916351D01*
X142611650Y-88816351D01*
X142595050Y-88733011D01*
X142595050Y-88499681D01*
X142611650Y-88433011D01*
X142695050Y-88249681D01*
X142795050Y-88133011D01*
X142961650Y-88016351D01*
X143278350Y-87933011D01*
X143378350Y-87916351D01*
X143495050Y-87916351D01*
X143611650Y-87933011D01*
D12*
X144445020Y-83683011D02*
X142261650Y-83683011D01*
X142261650Y-84316351D01*
X143411650Y-84316351D01*
X143411650Y-85133011D01*
X142261650Y-85133011D01*
X142261650Y-85833011D01*
X144353350Y-85833011D01*
X144353350Y-86666351D01*
X141361650Y-86666351D01*
X141361650Y-82866351D01*
X144445020Y-82866351D01*
X144445020Y-83683011D01*
G36*
X145323350Y-90399681D02*
G01*
X145110020Y-90399681D01*
X145110020Y-89249681D01*
X145323350Y-89249681D01*
X146136680Y-89249681D01*
X146166120Y-89242411D01*
X146223340Y-89222381D01*
X146278100Y-89196351D01*
X146329750Y-89164591D01*
X146377700Y-89127491D01*
X146421410Y-89085471D01*
X146460360Y-89039001D01*
X146494100Y-88988631D01*
X146522260Y-88934931D01*
X146544510Y-88878531D01*
X146560580Y-88820071D01*
X146570300Y-88760231D01*
X146573550Y-88699681D01*
X146570300Y-88639131D01*
X146560580Y-88579291D01*
X146544510Y-88520831D01*
X146522260Y-88464431D01*
X146494100Y-88410731D01*
X146460360Y-88360361D01*
X146421410Y-88313891D01*
X146377700Y-88271871D01*
X146329750Y-88234771D01*
X146278100Y-88203011D01*
X146223340Y-88176981D01*
X146166120Y-88156951D01*
X146136680Y-88149681D01*
X145323350Y-88149681D01*
X145323350Y-89249681D01*
X145110020Y-89249681D01*
X145110020Y-87966351D01*
X146110020Y-87966351D01*
X146136640Y-87965631D01*
X146189820Y-87968661D01*
X146242460Y-87976771D01*
X146268350Y-87983011D01*
X146301750Y-87994061D01*
X146366480Y-88021611D01*
X146428340Y-88055131D01*
X146486750Y-88094341D01*
X146541200Y-88138881D01*
X146591220Y-88188351D01*
X146636350Y-88242331D01*
X146676190Y-88300311D01*
X146710380Y-88361791D01*
X146738640Y-88426231D01*
X146760680Y-88493031D01*
X146776330Y-88561621D01*
X146785450Y-88631381D01*
X146787940Y-88701691D01*
X146783800Y-88771921D01*
X146773060Y-88841451D01*
X146755810Y-88909651D01*
X146732200Y-88975921D01*
X146702460Y-89039671D01*
X146666830Y-89100341D01*
X146625650Y-89157381D01*
X146579270Y-89210281D01*
X146528110Y-89258571D01*
X146472620Y-89301831D01*
X146413310Y-89339651D01*
X146350690Y-89371731D01*
X146285330Y-89397751D01*
X146251680Y-89408014D01*
X146217810Y-89417348D01*
X146148600Y-89429494D01*
X146078470Y-89434074D01*
X146043350Y-89433014D01*
X145323350Y-89431348D01*
X145323350Y-90399681D01*
G37*
D11*
X145323350Y-90399681D02*
X145110020Y-90399681D01*
X145110020Y-89249681D01*
X145323350Y-89249681D01*
X146136680Y-89249681D01*
X146166120Y-89242411D01*
X146223340Y-89222381D01*
X146278100Y-89196351D01*
X146329750Y-89164591D01*
X146377700Y-89127491D01*
X146421410Y-89085471D01*
X146460360Y-89039001D01*
X146494100Y-88988631D01*
X146522260Y-88934931D01*
X146544510Y-88878531D01*
X146560580Y-88820071D01*
X146570300Y-88760231D01*
X146573550Y-88699681D01*
X146570300Y-88639131D01*
X146560580Y-88579291D01*
X146544510Y-88520831D01*
X146522260Y-88464431D01*
X146494100Y-88410731D01*
X146460360Y-88360361D01*
X146421410Y-88313891D01*
X146377700Y-88271871D01*
X146329750Y-88234771D01*
X146278100Y-88203011D01*
X146223340Y-88176981D01*
X146166120Y-88156951D01*
X146136680Y-88149681D01*
X145323350Y-88149681D01*
X145323350Y-89249681D01*
X145110020Y-89249681D01*
X145110020Y-87966351D01*
X146110020Y-87966351D01*
X146136640Y-87965631D01*
X146189820Y-87968661D01*
X146242460Y-87976771D01*
X146268350Y-87983011D01*
X146301750Y-87994061D01*
X146366480Y-88021611D01*
X146428340Y-88055131D01*
X146486750Y-88094341D01*
X146541200Y-88138881D01*
X146591220Y-88188351D01*
X146636350Y-88242331D01*
X146676190Y-88300311D01*
X146710380Y-88361791D01*
X146738640Y-88426231D01*
X146760680Y-88493031D01*
X146776330Y-88561621D01*
X146785450Y-88631381D01*
X146787940Y-88701691D01*
X146783800Y-88771921D01*
X146773060Y-88841451D01*
X146755810Y-88909651D01*
X146732200Y-88975921D01*
X146702460Y-89039671D01*
X146666830Y-89100341D01*
X146625650Y-89157381D01*
X146579270Y-89210281D01*
X146528110Y-89258571D01*
X146472620Y-89301831D01*
X146413310Y-89339651D01*
X146350690Y-89371731D01*
X146285330Y-89397751D01*
X146251680Y-89408014D01*
X146217810Y-89417348D01*
X146148600Y-89429494D01*
X146078470Y-89434074D01*
X146043350Y-89433014D01*
X145323350Y-89431348D01*
X145323350Y-90399681D01*
%TO.C,J3*%
X144230000Y-61595000D02*
X93310000Y-61595000D01*
X141630000Y-56395000D02*
X93310000Y-56395000D01*
X144230000Y-58995000D02*
X144230000Y-61595000D01*
X93310000Y-56395000D02*
X93310000Y-61595000D01*
X141630000Y-56395000D02*
X141630000Y-58995000D01*
X142900000Y-56395000D02*
X144230000Y-56395000D01*
X141630000Y-58995000D02*
X144230000Y-58995000D01*
X144230000Y-56395000D02*
X144230000Y-57725000D01*
%TD*%
M02*
