  0
SECTION
  2
HEADER
  9
$ANGBASE
  50
0.0
  9
$ANGDIR
  70
1
  9
$MEASUREMENT
  70
0
  0
ENDSEC
  0
SECTION
  2
TABLES
  0
TABLE
  2
LTYPE
  70
4
  0
LTYPE
  5
40F
  2
CONTINUOUS
  70
0
  3
Solid line
  72
65
  73
0
  40
0.0
  0
LTYPE
  5
410
  2
DASHDOT
 70
0
  3
Dash Dot ____ _ ____ _
 72
65
 73
4
 40
2.0
 49
1.25
 49
-0.25
 49
0.25
 49
-0.25
  0
LTYPE
  5
411
  2
DASHED
 70
0
  3
Dashed __ __ __ __ __
 72
65
 73
2
 40
0.75
 49
0.5
 49
-0.25
  0
LTYPE
  5
43B
  2
DOTTED
 70
0
  3
Dotted .  .  .  .
 72
65
 73
2
 40
0.2
 49
0.0
 49
-0.2
  0
ENDTAB
  0
TABLE
  2
STYLE
  70
4
  0
STYLE
  2
KICAD
  70
0
  40
0
  41
1
  42
1
  50
0
  71
0
  3
isocp.shx
  0
STYLE
  2
KICADB
  70
0
  40
0
  41
1
  42
1
  50
0
  71
0
  3
isocp.shx
  0
STYLE
  2
KICADI
  70
0
  40
0
  41
1
  42
1
  50
15
  71
0
  3
isocp.shx
  0
STYLE
  2
KICADBI
  70
0
  40
0
  41
1
  42
1
  50
15
  71
0
  3
isocp.shx
  0
ENDTAB
  0
TABLE
  2
LAYER
  70
1
  0
LAYER
  2
BLACK
  70
0
  62
7
  6
CONTINUOUS
  0
ENDTAB
  0
ENDSEC
  0
SECTION
  2
ENTITIES
0
LINE
8
BLACK
6
CONTINUOUS
10
6.16636
20
-2.16402
11
6.17158
21
-2.16445
0
LINE
8
BLACK
6
CONTINUOUS
10
6.17158
20
-2.16445
11
6.17676
21
-2.16515
0
LINE
8
BLACK
6
CONTINUOUS
10
6.17676
20
-2.16515
11
6.1819
21
-2.16614
0
LINE
8
BLACK
6
CONTINUOUS
10
6.1819
20
-2.16614
11
6.18698
21
-2.1674
0
LINE
8
BLACK
6
CONTINUOUS
10
6.18698
20
-2.1674
11
6.19199
21
-2.16894
0
LINE
8
BLACK
6
CONTINUOUS
10
6.19199
20
-2.16894
11
6.1969
21
-2.17075
0
LINE
8
BLACK
6
CONTINUOUS
10
6.1969
20
-2.17075
11
6.20171
21
-2.17281
0
LINE
8
BLACK
6
CONTINUOUS
10
6.20171
20
-2.17281
11
6.2064
21
-2.17514
0
LINE
8
BLACK
6
CONTINUOUS
10
6.2064
20
-2.17514
11
6.21096
21
-2.17772
0
LINE
8
BLACK
6
CONTINUOUS
10
6.21096
20
-2.17772
11
6.21537
21
-2.18054
0
LINE
8
BLACK
6
CONTINUOUS
10
6.21537
20
-2.18054
11
6.21962
21
-2.18359
0
LINE
8
BLACK
6
CONTINUOUS
10
6.21962
20
-2.18359
11
6.2237
21
-2.18687
0
LINE
8
BLACK
6
CONTINUOUS
10
6.2237
20
-2.18687
11
6.22759
21
-2.19036
0
LINE
8
BLACK
6
CONTINUOUS
10
6.22759
20
-2.19036
11
6.2313
21
-2.19407
0
LINE
8
BLACK
6
CONTINUOUS
10
6.2313
20
-2.19407
11
6.23479
21
-2.19796
0
LINE
8
BLACK
6
CONTINUOUS
10
6.23479
20
-2.19796
11
6.23807
21
-2.20204
0
LINE
8
BLACK
6
CONTINUOUS
10
6.23807
20
-2.20204
11
6.24113
21
-2.20629
0
LINE
8
BLACK
6
CONTINUOUS
10
6.24113
20
-2.20629
11
6.24394
21
-2.2107
0
LINE
8
BLACK
6
CONTINUOUS
10
6.24394
20
-2.2107
11
6.24652
21
-2.21526
0
LINE
8
BLACK
6
CONTINUOUS
10
6.24652
20
-2.21526
11
6.24885
21
-2.21995
0
LINE
8
BLACK
6
CONTINUOUS
10
6.24885
20
-2.21995
11
6.25092
21
-2.22476
0
LINE
8
BLACK
6
CONTINUOUS
10
6.25092
20
-2.22476
11
6.25272
21
-2.22967
0
LINE
8
BLACK
6
CONTINUOUS
10
6.25272
20
-2.22967
11
6.25426
21
-2.23468
0
LINE
8
BLACK
6
CONTINUOUS
10
6.25426
20
-2.23468
11
6.25552
21
-2.23976
0
LINE
8
BLACK
6
CONTINUOUS
10
6.25552
20
-2.23976
11
6.25651
21
-2.2449
0
LINE
8
BLACK
6
CONTINUOUS
10
6.25651
20
-2.2449
11
6.25721
21
-2.25008
0
LINE
8
BLACK
6
CONTINUOUS
10
6.25721
20
-2.25008
11
6.25764
21
-2.2553
0
LINE
8
BLACK
6
CONTINUOUS
10
6.25764
20
-2.2553
11
6.25778
21
-2.26053
0
LINE
8
BLACK
6
CONTINUOUS
10
6.25778
20
-2.26053
11
6.25778
21
-2.26053
0
LINE
8
BLACK
6
CONTINUOUS
10
6.25778
20
-2.26053
11
6.25778
21
-2.26053
0
LINE
8
BLACK
6
CONTINUOUS
10
6.25778
20
-2.26053
11
6.25778
21
-2.26054
0
LINE
8
BLACK
6
CONTINUOUS
10
6.25778
20
-2.26054
11
6.25679
21
-3.54597
0
LINE
8
BLACK
6
CONTINUOUS
10
6.25679
20
-3.54597
11
6.25676
21
-3.54606
0
LINE
8
BLACK
6
CONTINUOUS
10
6.25676
20
-3.54606
11
6.25674
21
-3.54611
0
LINE
8
BLACK
6
CONTINUOUS
10
6.25674
20
-3.54611
11
6.25674
21
-3.54611
0
LINE
8
BLACK
6
CONTINUOUS
10
6.25674
20
-3.54611
11
6.25674
21
-3.54611
0
LINE
8
BLACK
6
CONTINUOUS
10
6.25674
20
-3.54611
11
6.25674
21
-3.54611
0
LINE
8
BLACK
6
CONTINUOUS
10
6.25674
20
-3.54611
11
6.16028
21
-3.64256
0
LINE
8
BLACK
6
CONTINUOUS
10
6.16028
20
-3.64256
11
6.16028
21
-3.64256
0
LINE
8
BLACK
6
CONTINUOUS
10
6.16028
20
-3.64256
11
6.16028
21
-3.64256
0
LINE
8
BLACK
6
CONTINUOUS
10
6.16028
20
-3.64256
11
6.16021
21
-3.64259
0
LINE
8
BLACK
6
CONTINUOUS
10
6.16021
20
-3.64259
11
6.16014
21
-3.64262
0
LINE
8
BLACK
6
CONTINUOUS
10
6.16014
20
-3.64262
11
6.16014
21
-3.64262
0
LINE
8
BLACK
6
CONTINUOUS
10
6.16014
20
-3.64262
11
6.16014
21
-3.64262
0
LINE
8
BLACK
6
CONTINUOUS
10
6.16014
20
-3.64262
11
3.63976
21
-3.63996
0
LINE
8
BLACK
6
CONTINUOUS
10
3.63976
20
-3.63996
11
3.63453
21
-3.63982
0
LINE
8
BLACK
6
CONTINUOUS
10
3.63453
20
-3.63982
11
3.62931
21
-3.63939
0
LINE
8
BLACK
6
CONTINUOUS
10
3.62931
20
-3.63939
11
3.62413
21
-3.63869
0
LINE
8
BLACK
6
CONTINUOUS
10
3.62413
20
-3.63869
11
3.61899
21
-3.6377
0
LINE
8
BLACK
6
CONTINUOUS
10
3.61899
20
-3.6377
11
3.61391
21
-3.63644
0
LINE
8
BLACK
6
CONTINUOUS
10
3.61391
20
-3.63644
11
3.6089
21
-3.6349
0
LINE
8
BLACK
6
CONTINUOUS
10
3.6089
20
-3.6349
11
3.60399
21
-3.6331
0
LINE
8
BLACK
6
CONTINUOUS
10
3.60399
20
-3.6331
11
3.59918
21
-3.63103
0
LINE
8
BLACK
6
CONTINUOUS
10
3.59918
20
-3.63103
11
3.59449
21
-3.6287
0
LINE
8
BLACK
6
CONTINUOUS
10
3.59449
20
-3.6287
11
3.58993
21
-3.62613
0
LINE
8
BLACK
6
CONTINUOUS
10
3.58993
20
-3.62613
11
3.58552
21
-3.62331
0
LINE
8
BLACK
6
CONTINUOUS
10
3.58552
20
-3.62331
11
3.58127
21
-3.62025
0
LINE
8
BLACK
6
CONTINUOUS
10
3.58127
20
-3.62025
11
3.57719
21
-3.61697
0
LINE
8
BLACK
6
CONTINUOUS
10
3.57719
20
-3.61697
11
3.5733
21
-3.61348
0
LINE
8
BLACK
6
CONTINUOUS
10
3.5733
20
-3.61348
11
3.56959
21
-3.60978
0
LINE
8
BLACK
6
CONTINUOUS
10
3.56959
20
-3.60978
11
3.5661
21
-3.60588
0
LINE
8
BLACK
6
CONTINUOUS
10
3.5661
20
-3.60588
11
3.56282
21
-3.6018
0
LINE
8
BLACK
6
CONTINUOUS
10
3.56282
20
-3.6018
11
3.55976
21
-3.59755
0
LINE
8
BLACK
6
CONTINUOUS
10
3.55976
20
-3.59755
11
3.55695
21
-3.59314
0
LINE
8
BLACK
6
CONTINUOUS
10
3.55695
20
-3.59314
11
3.55437
21
-3.58858
0
LINE
8
BLACK
6
CONTINUOUS
10
3.55437
20
-3.58858
11
3.55204
21
-3.58389
0
LINE
8
BLACK
6
CONTINUOUS
10
3.55204
20
-3.58389
11
3.54997
21
-3.57908
0
LINE
8
BLACK
6
CONTINUOUS
10
3.54997
20
-3.57908
11
3.54817
21
-3.57417
0
LINE
8
BLACK
6
CONTINUOUS
10
3.54817
20
-3.57417
11
3.54663
21
-3.56916
0
LINE
8
BLACK
6
CONTINUOUS
10
3.54663
20
-3.56916
11
3.54537
21
-3.56408
0
LINE
8
BLACK
6
CONTINUOUS
10
3.54537
20
-3.56408
11
3.54438
21
-3.55894
0
LINE
8
BLACK
6
CONTINUOUS
10
3.54438
20
-3.55894
11
3.54368
21
-3.55376
0
LINE
8
BLACK
6
CONTINUOUS
10
3.54368
20
-3.55376
11
3.54325
21
-3.54854
0
LINE
8
BLACK
6
CONTINUOUS
10
3.54325
20
-3.54854
11
3.54311
21
-3.54331
0
LINE
8
BLACK
6
CONTINUOUS
10
3.54311
20
-3.54331
11
3.54311
21
-2.7874
0
LINE
8
BLACK
6
CONTINUOUS
10
3.54311
20
-2.7874
11
3.54311
21
-2.7874
0
LINE
8
BLACK
6
CONTINUOUS
10
3.54311
20
-2.7874
11
3.54317
21
-2.78726
0
LINE
8
BLACK
6
CONTINUOUS
10
3.54317
20
-2.78726
11
3.60217
21
-2.72826
0
LINE
8
BLACK
6
CONTINUOUS
10
3.60217
20
-2.72826
11
3.60217
21
-2.64969
0
LINE
8
BLACK
6
CONTINUOUS
10
3.60217
20
-2.64969
11
3.54317
21
-2.59069
0
LINE
8
BLACK
6
CONTINUOUS
10
3.54317
20
-2.59069
11
3.54311
21
-2.59055
0
LINE
8
BLACK
6
CONTINUOUS
10
3.54311
20
-2.59055
11
3.54311
21
-2.59055
0
LINE
8
BLACK
6
CONTINUOUS
10
3.54311
20
-2.59055
11
3.54311
21
-2.26181
0
LINE
8
BLACK
6
CONTINUOUS
10
3.54311
20
-2.26181
11
3.54325
21
-2.25658
0
LINE
8
BLACK
6
CONTINUOUS
10
3.54325
20
-2.25658
11
3.54368
21
-2.25136
0
LINE
8
BLACK
6
CONTINUOUS
10
3.54368
20
-2.25136
11
3.54438
21
-2.24617
0
LINE
8
BLACK
6
CONTINUOUS
10
3.54438
20
-2.24617
11
3.54537
21
-2.24103
0
LINE
8
BLACK
6
CONTINUOUS
10
3.54537
20
-2.24103
11
3.54663
21
-2.23595
0
LINE
8
BLACK
6
CONTINUOUS
10
3.54663
20
-2.23595
11
3.54817
21
-2.23095
0
LINE
8
BLACK
6
CONTINUOUS
10
3.54817
20
-2.23095
11
3.54997
21
-2.22604
0
LINE
8
BLACK
6
CONTINUOUS
10
3.54997
20
-2.22604
11
3.55204
21
-2.22123
0
LINE
8
BLACK
6
CONTINUOUS
10
3.55204
20
-2.22123
11
3.55437
21
-2.21654
0
LINE
8
BLACK
6
CONTINUOUS
10
3.55437
20
-2.21654
11
3.55695
21
-2.21198
0
LINE
8
BLACK
6
CONTINUOUS
10
3.55695
20
-2.21198
11
3.55976
21
-2.20757
0
LINE
8
BLACK
6
CONTINUOUS
10
3.55976
20
-2.20757
11
3.56282
21
-2.20332
0
LINE
8
BLACK
6
CONTINUOUS
10
3.56282
20
-2.20332
11
3.5661
21
-2.19924
0
LINE
8
BLACK
6
CONTINUOUS
10
3.5661
20
-2.19924
11
3.56959
21
-2.19534
0
LINE
8
BLACK
6
CONTINUOUS
10
3.56959
20
-2.19534
11
3.5733
21
-2.19164
0
LINE
8
BLACK
6
CONTINUOUS
10
3.5733
20
-2.19164
11
3.57719
21
-2.18815
0
LINE
8
BLACK
6
CONTINUOUS
10
3.57719
20
-2.18815
11
3.58127
21
-2.18487
0
LINE
8
BLACK
6
CONTINUOUS
10
3.58127
20
-2.18487
11
3.58552
21
-2.18181
0
LINE
8
BLACK
6
CONTINUOUS
10
3.58552
20
-2.18181
11
3.58993
21
-2.17899
0
LINE
8
BLACK
6
CONTINUOUS
10
3.58993
20
-2.17899
11
3.59449
21
-2.17642
0
LINE
8
BLACK
6
CONTINUOUS
10
3.59449
20
-2.17642
11
3.59918
21
-2.17409
0
LINE
8
BLACK
6
CONTINUOUS
10
3.59918
20
-2.17409
11
3.60399
21
-2.17202
0
LINE
8
BLACK
6
CONTINUOUS
10
3.60399
20
-2.17202
11
3.6089
21
-2.17022
0
LINE
8
BLACK
6
CONTINUOUS
10
3.6089
20
-2.17022
11
3.61391
21
-2.16868
0
LINE
8
BLACK
6
CONTINUOUS
10
3.61391
20
-2.16868
11
3.61899
21
-2.16742
0
LINE
8
BLACK
6
CONTINUOUS
10
3.61899
20
-2.16742
11
3.62413
21
-2.16643
0
LINE
8
BLACK
6
CONTINUOUS
10
3.62413
20
-2.16643
11
3.62931
21
-2.16572
0
LINE
8
BLACK
6
CONTINUOUS
10
3.62931
20
-2.16572
11
3.63453
21
-2.1653
0
LINE
8
BLACK
6
CONTINUOUS
10
3.63453
20
-2.1653
11
3.63976
21
-2.16516
0
LINE
8
BLACK
6
CONTINUOUS
10
3.63976
20
-2.16516
11
3.63976
21
-2.16516
0
LINE
8
BLACK
6
CONTINUOUS
10
3.63976
20
-2.16516
11
6.16113
21
-2.16388
0
LINE
8
BLACK
6
CONTINUOUS
10
6.16113
20
-2.16388
11
6.16113
21
-2.16388
0
LINE
8
BLACK
6
CONTINUOUS
10
6.16113
20
-2.16388
11
6.16113
21
-2.16388
0
LINE
8
BLACK
6
CONTINUOUS
10
6.16113
20
-2.16388
11
6.16636
21
-2.16402
0
LINE
8
BLACK
6
CONTINUOUS
10
6.16119
20
-2.16425
11
6.16113
21
-2.16428
0
LINE
8
BLACK
6
CONTINUOUS
10
6.16113
20
-2.16428
11
3.63976
21
-2.16555
0
LINE
8
BLACK
6
CONTINUOUS
10
3.63976
20
-2.16555
11
3.63976
21
-2.16555
0
LINE
8
BLACK
6
CONTINUOUS
10
3.63976
20
-2.16555
11
3.63976
21
-2.16555
0
LINE
8
BLACK
6
CONTINUOUS
10
3.63976
20
-2.16555
11
3.63968
21
-2.16552
0
LINE
8
BLACK
6
CONTINUOUS
10
3.63968
20
-2.16552
11
3.63436
21
-2.16566
0
LINE
8
BLACK
6
CONTINUOUS
10
3.63436
20
-2.16566
11
3.62898
21
-2.16612
0
LINE
8
BLACK
6
CONTINUOUS
10
3.62898
20
-2.16612
11
3.62363
21
-2.16687
0
LINE
8
BLACK
6
CONTINUOUS
10
3.62363
20
-2.16687
11
3.61834
21
-2.16793
0
LINE
8
BLACK
6
CONTINUOUS
10
3.61834
20
-2.16793
11
3.61311
21
-2.16928
0
LINE
8
BLACK
6
CONTINUOUS
10
3.61311
20
-2.16928
11
3.60796
21
-2.17092
0
LINE
8
BLACK
6
CONTINUOUS
10
3.60796
20
-2.17092
11
3.60291
21
-2.17284
0
LINE
8
BLACK
6
CONTINUOUS
10
3.60291
20
-2.17284
11
3.59798
21
-2.17505
0
LINE
8
BLACK
6
CONTINUOUS
10
3.59798
20
-2.17505
11
3.59318
21
-2.17753
0
LINE
8
BLACK
6
CONTINUOUS
10
3.59318
20
-2.17753
11
3.58853
21
-2.18027
0
LINE
8
BLACK
6
CONTINUOUS
10
3.58853
20
-2.18027
11
3.58404
21
-2.18327
0
LINE
8
BLACK
6
CONTINUOUS
10
3.58404
20
-2.18327
11
3.57972
21
-2.18652
0
LINE
8
BLACK
6
CONTINUOUS
10
3.57972
20
-2.18652
11
3.5756
21
-2.19001
0
LINE
8
BLACK
6
CONTINUOUS
10
3.5756
20
-2.19001
11
3.57167
21
-2.19372
0
LINE
8
BLACK
6
CONTINUOUS
10
3.57167
20
-2.19372
11
3.56796
21
-2.19764
0
LINE
8
BLACK
6
CONTINUOUS
10
3.56796
20
-2.19764
11
3.56448
21
-2.20177
0
LINE
8
BLACK
6
CONTINUOUS
10
3.56448
20
-2.20177
11
3.56123
21
-2.20609
0
LINE
8
BLACK
6
CONTINUOUS
10
3.56123
20
-2.20609
11
3.55823
21
-2.21058
0
LINE
8
BLACK
6
CONTINUOUS
10
3.55823
20
-2.21058
11
3.55548
21
-2.21523
0
LINE
8
BLACK
6
CONTINUOUS
10
3.55548
20
-2.21523
11
3.553
21
-2.22003
0
LINE
8
BLACK
6
CONTINUOUS
10
3.553
20
-2.22003
11
3.5508
21
-2.22496
0
LINE
8
BLACK
6
CONTINUOUS
10
3.5508
20
-2.22496
11
3.54887
21
-2.23001
0
LINE
8
BLACK
6
CONTINUOUS
10
3.54887
20
-2.23001
11
3.54723
21
-2.23515
0
LINE
8
BLACK
6
CONTINUOUS
10
3.54723
20
-2.23515
11
3.54588
21
-2.24038
0
LINE
8
BLACK
6
CONTINUOUS
10
3.54588
20
-2.24038
11
3.54483
21
-2.24568
0
LINE
8
BLACK
6
CONTINUOUS
10
3.54483
20
-2.24568
11
3.54407
21
-2.25103
0
LINE
8
BLACK
6
CONTINUOUS
10
3.54407
20
-2.25103
11
3.54362
21
-2.25641
0
LINE
8
BLACK
6
CONTINUOUS
10
3.54362
20
-2.25641
11
3.54347
21
-2.26173
0
LINE
8
BLACK
6
CONTINUOUS
10
3.54347
20
-2.26173
11
3.5435
21
-2.26181
0
LINE
8
BLACK
6
CONTINUOUS
10
3.5435
20
-2.26181
11
3.5435
21
-2.59047
0
LINE
8
BLACK
6
CONTINUOUS
10
3.5435
20
-2.59047
11
3.6025
21
-2.64947
0
LINE
8
BLACK
6
CONTINUOUS
10
3.6025
20
-2.64947
11
3.6025
21
-2.64947
0
LINE
8
BLACK
6
CONTINUOUS
10
3.6025
20
-2.64947
11
3.60256
21
-2.64961
0
LINE
8
BLACK
6
CONTINUOUS
10
3.60256
20
-2.64961
11
3.60256
21
-2.72835
0
LINE
8
BLACK
6
CONTINUOUS
10
3.60256
20
-2.72835
11
3.6025
21
-2.72849
0
LINE
8
BLACK
6
CONTINUOUS
10
3.6025
20
-2.72849
11
3.6025
21
-2.72849
0
LINE
8
BLACK
6
CONTINUOUS
10
3.6025
20
-2.72849
11
3.5435
21
-2.78748
0
LINE
8
BLACK
6
CONTINUOUS
10
3.5435
20
-2.78748
11
3.5435
21
-3.54331
0
LINE
8
BLACK
6
CONTINUOUS
10
3.5435
20
-3.54331
11
3.54347
21
-3.54339
0
LINE
8
BLACK
6
CONTINUOUS
10
3.54347
20
-3.54339
11
3.54362
21
-3.54871
0
LINE
8
BLACK
6
CONTINUOUS
10
3.54362
20
-3.54871
11
3.54407
21
-3.55409
0
LINE
8
BLACK
6
CONTINUOUS
10
3.54407
20
-3.55409
11
3.54483
21
-3.55944
0
LINE
8
BLACK
6
CONTINUOUS
10
3.54483
20
-3.55944
11
3.54588
21
-3.56474
0
LINE
8
BLACK
6
CONTINUOUS
10
3.54588
20
-3.56474
11
3.54723
21
-3.56997
0
LINE
8
BLACK
6
CONTINUOUS
10
3.54723
20
-3.56997
11
3.54887
21
-3.57511
0
LINE
8
BLACK
6
CONTINUOUS
10
3.54887
20
-3.57511
11
3.5508
21
-3.58016
0
LINE
8
BLACK
6
CONTINUOUS
10
3.5508
20
-3.58016
11
3.553
21
-3.58509
0
LINE
8
BLACK
6
CONTINUOUS
10
3.553
20
-3.58509
11
3.55548
21
-3.58989
0
LINE
8
BLACK
6
CONTINUOUS
10
3.55548
20
-3.58989
11
3.55823
21
-3.59454
0
LINE
8
BLACK
6
CONTINUOUS
10
3.55823
20
-3.59454
11
3.56123
21
-3.59903
0
LINE
8
BLACK
6
CONTINUOUS
10
3.56123
20
-3.59903
11
3.56448
21
-3.60335
0
LINE
8
BLACK
6
CONTINUOUS
10
3.56448
20
-3.60335
11
3.56796
21
-3.60747
0
LINE
8
BLACK
6
CONTINUOUS
10
3.56796
20
-3.60747
11
3.57167
21
-3.6114
0
LINE
8
BLACK
6
CONTINUOUS
10
3.57167
20
-3.6114
11
3.5756
21
-3.61511
0
LINE
8
BLACK
6
CONTINUOUS
10
3.5756
20
-3.61511
11
3.57972
21
-3.6186
0
LINE
8
BLACK
6
CONTINUOUS
10
3.57972
20
-3.6186
11
3.58404
21
-3.62184
0
LINE
8
BLACK
6
CONTINUOUS
10
3.58404
20
-3.62184
11
3.58853
21
-3.62484
0
LINE
8
BLACK
6
CONTINUOUS
10
3.58853
20
-3.62484
11
3.59318
21
-3.62759
0
LINE
8
BLACK
6
CONTINUOUS
10
3.59318
20
-3.62759
11
3.59798
21
-3.63007
0
LINE
8
BLACK
6
CONTINUOUS
10
3.59798
20
-3.63007
11
3.60291
21
-3.63227
0
LINE
8
BLACK
6
CONTINUOUS
10
3.60291
20
-3.63227
11
3.60796
21
-3.6342
0
LINE
8
BLACK
6
CONTINUOUS
10
3.60796
20
-3.6342
11
3.61311
21
-3.63584
0
LINE
8
BLACK
6
CONTINUOUS
10
3.61311
20
-3.63584
11
3.61834
21
-3.63719
0
LINE
8
BLACK
6
CONTINUOUS
10
3.61834
20
-3.63719
11
3.62363
21
-3.63824
0
LINE
8
BLACK
6
CONTINUOUS
10
3.62363
20
-3.63824
11
3.62898
21
-3.639
0
LINE
8
BLACK
6
CONTINUOUS
10
3.62898
20
-3.639
11
3.63436
21
-3.63945
0
LINE
8
BLACK
6
CONTINUOUS
10
3.63436
20
-3.63945
11
3.63968
21
-3.6396
0
LINE
8
BLACK
6
CONTINUOUS
10
3.63968
20
-3.6396
11
3.6397
21
-3.63959
0
LINE
8
BLACK
6
CONTINUOUS
10
3.6397
20
-3.63959
11
3.63976
21
-3.63957
0
LINE
8
BLACK
6
CONTINUOUS
10
3.63976
20
-3.63957
11
3.63976
21
-3.63957
0
LINE
8
BLACK
6
CONTINUOUS
10
3.63976
20
-3.63957
11
3.63976
21
-3.63957
0
LINE
8
BLACK
6
CONTINUOUS
10
3.63976
20
-3.63957
11
6.16006
21
-3.64223
0
LINE
8
BLACK
6
CONTINUOUS
10
6.16006
20
-3.64223
11
6.2564
21
-3.54589
0
LINE
8
BLACK
6
CONTINUOUS
10
6.2564
20
-3.54589
11
6.25739
21
-2.26053
0
LINE
8
BLACK
6
CONTINUOUS
10
6.25739
20
-2.26053
11
6.25741
21
-2.26048
0
LINE
8
BLACK
6
CONTINUOUS
10
6.25741
20
-2.26048
11
6.25742
21
-2.26045
0
LINE
8
BLACK
6
CONTINUOUS
10
6.25742
20
-2.26045
11
6.25727
21
-2.25514
0
LINE
8
BLACK
6
CONTINUOUS
10
6.25727
20
-2.25514
11
6.25682
21
-2.24975
0
LINE
8
BLACK
6
CONTINUOUS
10
6.25682
20
-2.24975
11
6.25606
21
-2.2444
0
LINE
8
BLACK
6
CONTINUOUS
10
6.25606
20
-2.2444
11
6.25501
21
-2.23911
0
LINE
8
BLACK
6
CONTINUOUS
10
6.25501
20
-2.23911
11
6.25366
21
-2.23388
0
LINE
8
BLACK
6
CONTINUOUS
10
6.25366
20
-2.23388
11
6.25202
21
-2.22873
0
LINE
8
BLACK
6
CONTINUOUS
10
6.25202
20
-2.22873
11
6.25009
21
-2.22368
0
LINE
8
BLACK
6
CONTINUOUS
10
6.25009
20
-2.22368
11
6.24789
21
-2.21875
0
LINE
8
BLACK
6
CONTINUOUS
10
6.24789
20
-2.21875
11
6.24541
21
-2.21395
0
LINE
8
BLACK
6
CONTINUOUS
10
6.24541
20
-2.21395
11
6.24266
21
-2.2093
0
LINE
8
BLACK
6
CONTINUOUS
10
6.24266
20
-2.2093
11
6.23966
21
-2.20481
0
LINE
8
BLACK
6
CONTINUOUS
10
6.23966
20
-2.20481
11
6.23641
21
-2.20049
0
LINE
8
BLACK
6
CONTINUOUS
10
6.23641
20
-2.20049
11
6.23293
21
-2.19637
0
LINE
8
BLACK
6
CONTINUOUS
10
6.23293
20
-2.19637
11
6.22922
21
-2.19244
0
LINE
8
BLACK
6
CONTINUOUS
10
6.22922
20
-2.19244
11
6.22529
21
-2.18873
0
LINE
8
BLACK
6
CONTINUOUS
10
6.22529
20
-2.18873
11
6.22117
21
-2.18525
0
LINE
8
BLACK
6
CONTINUOUS
10
6.22117
20
-2.18525
11
6.21685
21
-2.182
0
LINE
8
BLACK
6
CONTINUOUS
10
6.21685
20
-2.182
11
6.21236
21
-2.179
0
LINE
8
BLACK
6
CONTINUOUS
10
6.21236
20
-2.179
11
6.20771
21
-2.17625
0
LINE
8
BLACK
6
CONTINUOUS
10
6.20771
20
-2.17625
11
6.20291
21
-2.17377
0
LINE
8
BLACK
6
CONTINUOUS
10
6.20291
20
-2.17377
11
6.19798
21
-2.17157
0
LINE
8
BLACK
6
CONTINUOUS
10
6.19798
20
-2.17157
11
6.19293
21
-2.16964
0
LINE
8
BLACK
6
CONTINUOUS
10
6.19293
20
-2.16964
11
6.18778
21
-2.168
0
LINE
8
BLACK
6
CONTINUOUS
10
6.18778
20
-2.168
11
6.18255
21
-2.16665
0
LINE
8
BLACK
6
CONTINUOUS
10
6.18255
20
-2.16665
11
6.17726
21
-2.1656
0
LINE
8
BLACK
6
CONTINUOUS
10
6.17726
20
-2.1656
11
6.17191
21
-2.16484
0
LINE
8
BLACK
6
CONTINUOUS
10
6.17191
20
-2.16484
11
6.16653
21
-2.16439
0
LINE
8
BLACK
6
CONTINUOUS
10
6.16653
20
-2.16439
11
6.16121
21
-2.16424
0
LINE
8
BLACK
6
CONTINUOUS
10
6.16121
20
-2.16424
11
6.16119
21
-2.16425
  0
ENDSEC
  0
EOF
