<?xml version="1.0" standalone="no"?>
 <!DOCTYPE svg PUBLIC "-//W3C//DTD SVG 1.1//EN" 
 "http://www.w3.org/Graphics/SVG/1.1/DTD/svg11.dtd"> 
<svg
  xmlns:svg="http://www.w3.org/2000/svg"
  xmlns="http://www.w3.org/2000/svg"
  xmlns:xlink="http://www.w3.org/1999/xlink"
  version="1.1"
  width="25.001220cm" height="15.001240cm" viewBox="0 0 250012200 150012400">
<title>SVG Picture created as PicoGamePad_V3_0_0_A-F_Fab.svg date 2022/10/11 12:27:57 </title>
  <desc>Picture generated by PCBNEW </desc>
<g style="fill:#000000; fill-opacity:1.000000;stroke:#000000; stroke-opacity:1.000000;
stroke-linecap:round; stroke-linejoin:round;"
 transform="translate(0 0) scale(1 1)">
</g>
<g style="fill:#000000; fill-opacity:0.0; 
stroke:#000000; stroke-width:0.000000; stroke-opacity:1; 
stroke-linecap:round; stroke-linejoin:round;">
</g>
<g style="fill:#000000; fill-opacity:0.0; 
stroke:#000000; stroke-width:150000.000000; stroke-opacity:1; 
stroke-linecap:round; stroke-linejoin:round;">
<text x="143025000.000000" y="63475000.000000"
textLength="1909286.000000" font-size="1333333.000000" lengthAdjust="spacingAndGlyphs"
text-anchor="middle" opacity="0">J3</text>
<g class="stroked-text"><desc>J3</desc>
<path d="M142691666 62427380
L142691666 63141666
L142644047 63284523
L142548809 63379761
L142405952 63427380
L142310714 63427380
" />
<path d="M143072619 62427380
L143691666 62427380
L143358333 62808333
L143501190 62808333
L143596428 62855952
L143644047 62903571
L143691666 62998809
L143691666 63236904
L143644047 63332142
L143596428 63379761
L143501190 63427380
L143215476 63427380
L143120238 63379761
L143072619 63332142
" />
</g></g>
<g style="fill:#000000; fill-opacity:0.0; 
stroke:#000000; stroke-width:120000.000000; stroke-opacity:1; 
stroke-linecap:round; stroke-linejoin:round;">
<path d="M150750000 77350000
L155250000 77350000
" />
<path d="M155250000 77350000
L155250000 81850000
" />
<path d="M155250000 81850000
L150750000 81850000
" />
<path d="M150750000 81850000
L150750000 77350000
" />
</g>
<g style="fill:#000000; fill-opacity:0.0; 
stroke:#000000; stroke-width:10000.000000; stroke-opacity:1; 
stroke-linecap:round; stroke-linejoin:round;">
<path d="M150500000 78100000
L155500000 78100000
" />
<path d="M155500000 78100000
L155500000 81100000
" />
<path d="M155500000 81100000
L150500000 81100000
" />
<path d="M150500000 81100000
L150500000 78100000
" />
</g>
<g style="fill:#000000; fill-opacity:0.0; 
stroke:#000000; stroke-width:120000.000000; stroke-opacity:1; 
stroke-linecap:round; stroke-linejoin:round;">
<circle cx="153000000.000000" cy="79600000.000000" r="1225000.000000" /> 
</g>
<g style="fill:#000000; fill-opacity:0.0; 
stroke:#000000; stroke-width:10000.000000; stroke-opacity:1; 
stroke-linecap:round; stroke-linejoin:round;">
<path d="M104400000 70300000
L101400000 70300000
" />
<path d="M101400000 70300000
L101400000 75300000
" />
<path d="M101400000 75300000
L104400000 75300000
" />
<path d="M104400000 75300000
L104400000 70300000
" />
</g>
<g style="fill:#000000; fill-opacity:0.0; 
stroke:#000000; stroke-width:120000.000000; stroke-opacity:1; 
stroke-linecap:round; stroke-linejoin:round;">
<path d="M105150000 70550000
L100650000 70550000
" />
<path d="M100650000 70550000
L100650000 75050000
" />
<path d="M100650000 75050000
L105150000 75050000
" />
<path d="M105150000 75050000
L105150000 70550000
" />
<circle cx="102900000.000000" cy="72800000.000000" r="1225000.000000" /> 
</g>
<g style="fill:#000000; fill-opacity:0.0; 
stroke:#000000; stroke-width:100000.000000; stroke-opacity:1; 
stroke-linecap:round; stroke-linejoin:round;">
<circle cx="141400000.000000" cy="65500000.000000" r="1000000.000000" /> 
</g>
<g style="fill:#000000; fill-opacity:0.0; 
stroke:#000000; stroke-width:120000.000000; stroke-opacity:1; 
stroke-linecap:round; stroke-linejoin:round;">
<path d="M105150000 84150000
L100650000 84150000
" />
<path d="M100650000 84150000
L100650000 88650000
" />
<path d="M100650000 88650000
L105150000 88650000
" />
<path d="M105150000 88650000
L105150000 84150000
" />
</g>
<g style="fill:#000000; fill-opacity:0.0; 
stroke:#000000; stroke-width:10000.000000; stroke-opacity:1; 
stroke-linecap:round; stroke-linejoin:round;">
<path d="M104400000 83900000
L101400000 83900000
" />
<path d="M101400000 83900000
L101400000 88900000
" />
<path d="M101400000 88900000
L104400000 88900000
" />
<path d="M104400000 88900000
L104400000 83900000
" />
</g>
<g style="fill:#000000; fill-opacity:0.0; 
stroke:#000000; stroke-width:120000.000000; stroke-opacity:1; 
stroke-linecap:round; stroke-linejoin:round;">
<circle cx="102900000.000000" cy="86400000.000000" r="1225000.000000" /> 
</g>
<g style="fill:#000000; fill-opacity:0.0; 
stroke:#000000; stroke-width:100000.000000; stroke-opacity:1; 
stroke-linecap:round; stroke-linejoin:round;">
<circle cx="139500000.000000" cy="89500000.000000" r="1000000.000000" /> 
</g>
<g style="fill:#000000; fill-opacity:0.0; 
stroke:#000000; stroke-width:120000.000000; stroke-opacity:1; 
stroke-linecap:round; stroke-linejoin:round;">
<path d="M129710000 85550000
L134210000 85550000
" />
<path d="M134210000 85550000
L134210000 90050000
" />
<path d="M134210000 90050000
L129710000 90050000
" />
<path d="M129710000 90050000
L129710000 85550000
" />
</g>
<g style="fill:#000000; fill-opacity:0.0; 
stroke:#000000; stroke-width:10000.000000; stroke-opacity:1; 
stroke-linecap:round; stroke-linejoin:round;">
<path d="M129460000 86300000
L134460000 86300000
" />
<path d="M134460000 86300000
L134460000 89300000
" />
<path d="M134460000 89300000
L129460000 89300000
" />
<path d="M129460000 89300000
L129460000 86300000
" />
</g>
<g style="fill:#000000; fill-opacity:0.0; 
stroke:#000000; stroke-width:120000.000000; stroke-opacity:1; 
stroke-linecap:round; stroke-linejoin:round;">
<circle cx="131960000.000000" cy="87800000.000000" r="1225000.000000" /> 
</g>
<g style="fill:#000000; fill-opacity:0.0; 
stroke:#000000; stroke-width:10000.000000; stroke-opacity:1; 
stroke-linecap:round; stroke-linejoin:round;">
<path d="M117300000 86300000
L122300000 86300000
" />
<path d="M122300000 86300000
L122300000 89300000
" />
<path d="M122300000 89300000
L117300000 89300000
" />
<path d="M117300000 89300000
L117300000 86300000
" />
</g>
<g style="fill:#000000; fill-opacity:0.0; 
stroke:#000000; stroke-width:120000.000000; stroke-opacity:1; 
stroke-linecap:round; stroke-linejoin:round;">
<path d="M117550000 85550000
L122050000 85550000
" />
<path d="M122050000 85550000
L122050000 90050000
" />
<path d="M122050000 90050000
L117550000 90050000
" />
<path d="M117550000 90050000
L117550000 85550000
" />
<circle cx="119800000.000000" cy="87800000.000000" r="1225000.000000" /> 
</g>
<g style="fill:#000000; fill-opacity:0.0; 
stroke:#000000; stroke-width:10000.000000; stroke-opacity:1; 
stroke-linecap:round; stroke-linejoin:round;">
<path d="M98300000 81100000
L93300000 81100000
" />
<path d="M93300000 81100000
L93300000 78100000
" />
<path d="M93300000 78100000
L98300000 78100000
" />
<path d="M98300000 78100000
L98300000 81100000
" />
</g>
<g style="fill:#000000; fill-opacity:0.0; 
stroke:#000000; stroke-width:120000.000000; stroke-opacity:1; 
stroke-linecap:round; stroke-linejoin:round;">
<path d="M98050000 81850000
L93550000 81850000
" />
<path d="M93550000 81850000
L93550000 77350000
" />
<path d="M93550000 77350000
L98050000 77350000
" />
<path d="M98050000 77350000
L98050000 81850000
" />
<circle cx="95800000.000000" cy="79600000.000000" r="1225000.000000" /> 
<path d="M111450000 81850000
L106950000 81850000
" />
<path d="M106950000 81850000
L106950000 77350000
" />
<path d="M106950000 77350000
L111450000 77350000
" />
<path d="M111450000 77350000
L111450000 81850000
" />
</g>
<g style="fill:#000000; fill-opacity:0.0; 
stroke:#000000; stroke-width:10000.000000; stroke-opacity:1; 
stroke-linecap:round; stroke-linejoin:round;">
<path d="M111700000 81100000
L106700000 81100000
" />
<path d="M106700000 81100000
L106700000 78100000
" />
<path d="M106700000 78100000
L111700000 78100000
" />
<path d="M111700000 78100000
L111700000 81100000
" />
</g>
<g style="fill:#000000; fill-opacity:0.0; 
stroke:#000000; stroke-width:120000.000000; stroke-opacity:1; 
stroke-linecap:round; stroke-linejoin:round;">
<circle cx="109200000.000000" cy="79600000.000000" r="1225000.000000" /> 
</g>
<g style="fill:#000000; fill-opacity:0.0; 
stroke:#000000; stroke-width:10000.000000; stroke-opacity:1; 
stroke-linecap:round; stroke-linejoin:round;">
<path d="M139450000 78100000
L144450000 78100000
" />
<path d="M144450000 78100000
L144450000 81100000
" />
<path d="M144450000 81100000
L139450000 81100000
" />
<path d="M139450000 81100000
L139450000 78100000
" />
</g>
<g style="fill:#000000; fill-opacity:0.0; 
stroke:#000000; stroke-width:120000.000000; stroke-opacity:1; 
stroke-linecap:round; stroke-linejoin:round;">
<path d="M139700000 77350000
L144200000 77350000
" />
<path d="M144200000 77350000
L144200000 81850000
" />
<path d="M144200000 81850000
L139700000 81850000
" />
<path d="M139700000 81850000
L139700000 77350000
" />
<circle cx="141950000.000000" cy="79600000.000000" r="1225000.000000" /> 
</g>
<g style="fill:#000000; fill-opacity:0.0; 
stroke:#000000; stroke-width:100000.000000; stroke-opacity:1; 
stroke-linecap:round; stroke-linejoin:round;">
<circle cx="103800000.000000" cy="80250000.000000" r="1000000.000000" /> 
<path d="M93370000 61535000
L93370000 56455000
" />
<path d="M93370000 56455000
L142900000 56455000
" />
<path d="M142900000 56455000
L144170000 57725000
" />
<path d="M144170000 61535000
L93370000 61535000
" />
<path d="M144170000 57725000
L144170000 61535000
" />
<g >
</g>
<g >
</g>
<g >
</g>
<g >
</g>
<g >
</g>
<g >
</g>
<g >
</g>
<g >
</g>
<g >
</g>
<g >
</g>
<g >
</g>
<g >
</g>
<g >
</g>
<g >
</g>
<g >
</g>
<g >
</g>
<g >
</g>
<g >
</g>
<g >
</g>
<g >
</g>
<g >
</g>
<g >
</g>
<g >
</g>
<g >
</g>
<g >
</g>
<g >
</g>
<g >
</g>
<g >
</g>
<g >
</g>
<g >
</g>
<g >
</g>
<g >
</g>
<g >
</g>
<g >
</g>
<g >
</g>
<g >
</g>
<g >
</g>
<g >
</g>
<g >
</g>
<g >
</g>
<g >
</g>
<g >
</g>
<g >
</g>
<g >
</g>
<g >
</g>
<g >
</g>
<g >
</g>
<g >
</g>
<g >
</g>
<g >
</g>
<g >
</g>
<g >
</g>
<g >
</g>
<g >
</g>
<g >
</g>
<g >
</g>
<g >
</g>
<g >
</g>
</g> 
</svg>
