<?xml version="1.0" standalone="no"?>
 <!DOCTYPE svg PUBLIC "-//W3C//DTD SVG 1.1//EN" 
 "http://www.w3.org/Graphics/SVG/1.1/DTD/svg11.dtd"> 
<svg
  xmlns:svg="http://www.w3.org/2000/svg"
  xmlns="http://www.w3.org/2000/svg"
  xmlns:xlink="http://www.w3.org/1999/xlink"
  version="1.1"
  width="25.001220cm" height="15.001240cm" viewBox="0 0 250012200 150012400">
<title>SVG Picture created as PicoGamePad_V3_0_0_A-TOP_SILKSCREEN.svg date 2022/10/11 12:27:57 </title>
  <desc>Picture generated by PCBNEW </desc>
<g style="fill:#000000; fill-opacity:1.000000;stroke:#000000; stroke-opacity:1.000000;
stroke-linecap:round; stroke-linejoin:round;"
 transform="translate(0 0) scale(1 1)">
</g>
<g style="fill:#000000; fill-opacity:0.0; 
stroke:#000000; stroke-width:0.000000; stroke-opacity:1; 
stroke-linecap:round; stroke-linejoin:round;">
</g>
<g style="fill:#000000; fill-opacity:0.0; 
stroke:#000000; stroke-width:150000.000000; stroke-opacity:1; 
stroke-linecap:round; stroke-linejoin:round;">
<text x="93100000.000000" y="64145000.000000"
textLength="11164762.000000" font-size="1333333.000000" lengthAdjust="spacingAndGlyphs"
text-anchor="start" opacity="0">v3.0.0 (Rev A)</text>
<g class="stroked-text"><desc>v3.0.0 (Rev A)</desc>
<path d="M93340357 63430714
L93578452 64097380
L93816547 63430714
" />
<path d="M94102261 63097380
L94721309 63097380
L94387976 63478333
L94530833 63478333
L94626071 63525952
L94673690 63573571
L94721309 63668809
L94721309 63906904
L94673690 64002142
L94626071 64049761
L94530833 64097380
L94245119 64097380
L94149880 64049761
L94102261 64002142
" />
<path d="M95149880 64002142
L95197500 64049761
L95149880 64097380
L95102261 64049761
L95149880 64002142
L95149880 64097380
" />
<path d="M95816547 63097380
L95911785 63097380
L96007023 63145000
L96054642 63192619
L96102261 63287857
L96149880 63478333
L96149880 63716428
L96102261 63906904
L96054642 64002142
L96007023 64049761
L95911785 64097380
L95816547 64097380
L95721309 64049761
L95673690 64002142
L95626071 63906904
L95578452 63716428
L95578452 63478333
L95626071 63287857
L95673690 63192619
L95721309 63145000
L95816547 63097380
" />
<path d="M96578452 64002142
L96626071 64049761
L96578452 64097380
L96530833 64049761
L96578452 64002142
L96578452 64097380
" />
<path d="M97245119 63097380
L97340357 63097380
L97435595 63145000
L97483214 63192619
L97530833 63287857
L97578452 63478333
L97578452 63716428
L97530833 63906904
L97483214 64002142
L97435595 64049761
L97340357 64097380
L97245119 64097380
L97149880 64049761
L97102261 64002142
L97054642 63906904
L97007023 63716428
L97007023 63478333
L97054642 63287857
L97102261 63192619
L97149880 63145000
L97245119 63097380
" />
<path d="M99054642 64478333
L99007023 64430714
L98911785 64287857
L98864166 64192619
L98816547 64049761
L98768928 63811666
L98768928 63621190
L98816547 63383095
L98864166 63240238
L98911785 63145000
L99007023 63002142
L99054642 62954523
" />
<path d="M100007023 64097380
L99673690 63621190
" />
<path d="M99435595 64097380
L99435595 63097380
L99816547 63097380
L99911785 63145000
L99959404 63192619
L100007023 63287857
L100007023 63430714
L99959404 63525952
L99911785 63573571
L99816547 63621190
L99435595 63621190
" />
<path d="M100816547 64049761
L100721309 64097380
L100530833 64097380
L100435595 64049761
L100387976 63954523
L100387976 63573571
L100435595 63478333
L100530833 63430714
L100721309 63430714
L100816547 63478333
L100864166 63573571
L100864166 63668809
L100387976 63764047
" />
<path d="M101197500 63430714
L101435595 64097380
L101673690 63430714
" />
<path d="M102768928 63811666
L103245119 63811666
" />
<path d="M102673690 64097380
L103007023 63097380
L103340357 64097380
" />
<path d="M103578452 64478333
L103626071 64430714
L103721309 64287857
L103768928 64192619
L103816547 64049761
L103864166 63811666
L103864166 63621190
L103816547 63383095
L103768928 63240238
L103721309 63145000
L103626071 63002142
L103578452 62954523
" />
</g><text x="93100000.000000" y="65755000.000000"
textLength="29528333.000000" font-size="1333333.000000" lengthAdjust="spacingAndGlyphs"
text-anchor="start" opacity="0">RP2040 Based Video-Game Controller</text>
<g class="stroked-text"><desc>RP2040 Based Video-Game Controller</desc>
<path d="M94007023 65707380
L93673690 65231190
" />
<path d="M93435595 65707380
L93435595 64707380
L93816547 64707380
L93911785 64755000
L93959404 64802619
L94007023 64897857
L94007023 65040714
L93959404 65135952
L93911785 65183571
L93816547 65231190
L93435595 65231190
" />
<path d="M94435595 65707380
L94435595 64707380
L94816547 64707380
L94911785 64755000
L94959404 64802619
L95007023 64897857
L95007023 65040714
L94959404 65135952
L94911785 65183571
L94816547 65231190
L94435595 65231190
" />
<path d="M95387976 64802619
L95435595 64755000
L95530833 64707380
L95768928 64707380
L95864166 64755000
L95911785 64802619
L95959404 64897857
L95959404 64993095
L95911785 65135952
L95340357 65707380
L95959404 65707380
" />
<path d="M96578452 64707380
L96673690 64707380
L96768928 64755000
L96816547 64802619
L96864166 64897857
L96911785 65088333
L96911785 65326428
L96864166 65516904
L96816547 65612142
L96768928 65659761
L96673690 65707380
L96578452 65707380
L96483214 65659761
L96435595 65612142
L96387976 65516904
L96340357 65326428
L96340357 65088333
L96387976 64897857
L96435595 64802619
L96483214 64755000
L96578452 64707380
" />
<path d="M97768928 65040714
L97768928 65707380
" />
<path d="M97530833 64659761
L97292738 65374047
L97911785 65374047
" />
<path d="M98483214 64707380
L98578452 64707380
L98673690 64755000
L98721309 64802619
L98768928 64897857
L98816547 65088333
L98816547 65326428
L98768928 65516904
L98721309 65612142
L98673690 65659761
L98578452 65707380
L98483214 65707380
L98387976 65659761
L98340357 65612142
L98292738 65516904
L98245119 65326428
L98245119 65088333
L98292738 64897857
L98340357 64802619
L98387976 64755000
L98483214 64707380
" />
<path d="M100340357 65183571
L100483214 65231190
L100530833 65278809
L100578452 65374047
L100578452 65516904
L100530833 65612142
L100483214 65659761
L100387976 65707380
L100007023 65707380
L100007023 64707380
L100340357 64707380
L100435595 64755000
L100483214 64802619
L100530833 64897857
L100530833 64993095
L100483214 65088333
L100435595 65135952
L100340357 65183571
L100007023 65183571
" />
<path d="M101435595 65707380
L101435595 65183571
L101387976 65088333
L101292738 65040714
L101102261 65040714
L101007023 65088333
" />
<path d="M101435595 65659761
L101340357 65707380
L101102261 65707380
L101007023 65659761
L100959404 65564523
L100959404 65469285
L101007023 65374047
L101102261 65326428
L101340357 65326428
L101435595 65278809
" />
<path d="M101864166 65659761
L101959404 65707380
L102149880 65707380
L102245119 65659761
L102292738 65564523
L102292738 65516904
L102245119 65421666
L102149880 65374047
L102007023 65374047
L101911785 65326428
L101864166 65231190
L101864166 65183571
L101911785 65088333
L102007023 65040714
L102149880 65040714
L102245119 65088333
" />
<path d="M103102261 65659761
L103007023 65707380
L102816547 65707380
L102721309 65659761
L102673690 65564523
L102673690 65183571
L102721309 65088333
L102816547 65040714
L103007023 65040714
L103102261 65088333
L103149880 65183571
L103149880 65278809
L102673690 65374047
" />
<path d="M104007023 65707380
L104007023 64707380
" />
<path d="M104007023 65659761
L103911785 65707380
L103721309 65707380
L103626071 65659761
L103578452 65612142
L103530833 65516904
L103530833 65231190
L103578452 65135952
L103626071 65088333
L103721309 65040714
L103911785 65040714
L104007023 65088333
" />
<path d="M105102261 64707380
L105435595 65707380
L105768928 64707380
" />
<path d="M106102261 65707380
L106102261 65040714
" />
<path d="M106102261 64707380
L106054642 64755000
L106102261 64802619
L106149880 64755000
L106102261 64707380
L106102261 64802619
" />
<path d="M107007023 65707380
L107007023 64707380
" />
<path d="M107007023 65659761
L106911785 65707380
L106721309 65707380
L106626071 65659761
L106578452 65612142
L106530833 65516904
L106530833 65231190
L106578452 65135952
L106626071 65088333
L106721309 65040714
L106911785 65040714
L107007023 65088333
" />
<path d="M107864166 65659761
L107768928 65707380
L107578452 65707380
L107483214 65659761
L107435595 65564523
L107435595 65183571
L107483214 65088333
L107578452 65040714
L107768928 65040714
L107864166 65088333
L107911785 65183571
L107911785 65278809
L107435595 65374047
" />
<path d="M108483214 65707380
L108387976 65659761
L108340357 65612142
L108292738 65516904
L108292738 65231190
L108340357 65135952
L108387976 65088333
L108483214 65040714
L108626071 65040714
L108721309 65088333
L108768928 65135952
L108816547 65231190
L108816547 65516904
L108768928 65612142
L108721309 65659761
L108626071 65707380
L108483214 65707380
" />
<path d="M109245119 65326428
L110007023 65326428
" />
<path d="M111007023 64755000
L110911785 64707380
L110768928 64707380
L110626071 64755000
L110530833 64850238
L110483214 64945476
L110435595 65135952
L110435595 65278809
L110483214 65469285
L110530833 65564523
L110626071 65659761
L110768928 65707380
L110864166 65707380
L111007023 65659761
L111054642 65612142
L111054642 65278809
L110864166 65278809
" />
<path d="M111911785 65707380
L111911785 65183571
L111864166 65088333
L111768928 65040714
L111578452 65040714
L111483214 65088333
" />
<path d="M111911785 65659761
L111816547 65707380
L111578452 65707380
L111483214 65659761
L111435595 65564523
L111435595 65469285
L111483214 65374047
L111578452 65326428
L111816547 65326428
L111911785 65278809
" />
<path d="M112387976 65707380
L112387976 65040714
" />
<path d="M112387976 65135952
L112435595 65088333
L112530833 65040714
L112673690 65040714
L112768928 65088333
L112816547 65183571
L112816547 65707380
" />
<path d="M112816547 65183571
L112864166 65088333
L112959404 65040714
L113102261 65040714
L113197500 65088333
L113245119 65183571
L113245119 65707380
" />
<path d="M114102261 65659761
L114007023 65707380
L113816547 65707380
L113721309 65659761
L113673690 65564523
L113673690 65183571
L113721309 65088333
L113816547 65040714
L114007023 65040714
L114102261 65088333
L114149880 65183571
L114149880 65278809
L113673690 65374047
" />
<path d="M115911785 65612142
L115864166 65659761
L115721309 65707380
L115626071 65707380
L115483214 65659761
L115387976 65564523
L115340357 65469285
L115292738 65278809
L115292738 65135952
L115340357 64945476
L115387976 64850238
L115483214 64755000
L115626071 64707380
L115721309 64707380
L115864166 64755000
L115911785 64802619
" />
<path d="M116483214 65707380
L116387976 65659761
L116340357 65612142
L116292738 65516904
L116292738 65231190
L116340357 65135952
L116387976 65088333
L116483214 65040714
L116626071 65040714
L116721309 65088333
L116768928 65135952
L116816547 65231190
L116816547 65516904
L116768928 65612142
L116721309 65659761
L116626071 65707380
L116483214 65707380
" />
<path d="M117245119 65040714
L117245119 65707380
" />
<path d="M117245119 65135952
L117292738 65088333
L117387976 65040714
L117530833 65040714
L117626071 65088333
L117673690 65183571
L117673690 65707380
" />
<path d="M118007023 65040714
L118387976 65040714
" />
<path d="M118149880 64707380
L118149880 65564523
L118197500 65659761
L118292738 65707380
L118387976 65707380
" />
<path d="M118721309 65707380
L118721309 65040714
" />
<path d="M118721309 65231190
L118768928 65135952
L118816547 65088333
L118911785 65040714
L119007023 65040714
" />
<path d="M119483214 65707380
L119387976 65659761
L119340357 65612142
L119292738 65516904
L119292738 65231190
L119340357 65135952
L119387976 65088333
L119483214 65040714
L119626071 65040714
L119721309 65088333
L119768928 65135952
L119816547 65231190
L119816547 65516904
L119768928 65612142
L119721309 65659761
L119626071 65707380
L119483214 65707380
" />
<path d="M120387976 65707380
L120292738 65659761
L120245119 65564523
L120245119 64707380
" />
<path d="M120911785 65707380
L120816547 65659761
L120768928 65564523
L120768928 64707380
" />
<path d="M121673690 65659761
L121578452 65707380
L121387976 65707380
L121292738 65659761
L121245119 65564523
L121245119 65183571
L121292738 65088333
L121387976 65040714
L121578452 65040714
L121673690 65088333
L121721309 65183571
L121721309 65278809
L121245119 65374047
" />
<path d="M122149880 65707380
L122149880 65040714
" />
<path d="M122149880 65231190
L122197499 65135952
L122245119 65088333
L122340357 65040714
L122435595 65040714
" />
</g><text x="93150000.000000" y="67575000.000000"
textLength="15301012.000000" font-size="1333333.000000" lengthAdjust="spacingAndGlyphs"
text-anchor="start" opacity="0">making.unsw.edu.au</text>
<g class="stroked-text"><desc>making.unsw.edu.au</desc>
<path d="M93491547 67527380
L93574880 66860714
" />
<path d="M93562976 66955952
L93616547 66908333
L93717738 66860714
L93860595 66860714
L93949880 66908333
L93985595 67003571
L93920119 67527380
" />
<path d="M93985595 67003571
L94045119 66908333
L94146309 66860714
L94289166 66860714
L94378452 66908333
L94414166 67003571
L94348690 67527380
" />
<path d="M95253452 67527380
L95318928 67003571
L95283214 66908333
L95193928 66860714
L95003452 66860714
L94902261 66908333
" />
<path d="M95259404 67479761
L95158214 67527380
L94920119 67527380
L94830833 67479761
L94795119 67384523
L94807023 67289285
L94866547 67194047
L94967738 67146428
L95205833 67146428
L95307023 67098809
" />
<path d="M95729642 67527380
L95854642 66527380
" />
<path d="M95872500 67146428
L96110595 67527380
" />
<path d="M96193928 66860714
L95765357 67241666
" />
<path d="M96539166 67527380
L96622500 66860714
" />
<path d="M96664166 66527380
L96610595 66575000
L96652261 66622619
L96705833 66575000
L96664166 66527380
L96652261 66622619
" />
<path d="M97098690 66860714
L97015357 67527380
" />
<path d="M97086785 66955952
L97140357 66908333
L97241547 66860714
L97384404 66860714
L97473690 66908333
L97509404 67003571
L97443928 67527380
" />
<path d="M98432023 66860714
L98330833 67670238
L98271309 67765476
L98217738 67813095
L98116547 67860714
L97973690 67860714
L97884404 67813095
" />
<path d="M98354642 67479761
L98253452 67527380
L98062976 67527380
L97973690 67479761
L97932023 67432142
L97896309 67336904
L97932023 67051190
L97991547 66955952
L98045119 66908333
L98146309 66860714
L98336785 66860714
L98426071 66908333
" />
<path d="M98836785 67432142
L98878452 67479761
L98824880 67527380
L98783214 67479761
L98836785 67432142
L98824880 67527380
" />
<path d="M99812976 66860714
L99729642 67527380
" />
<path d="M99384404 66860714
L99318928 67384523
L99354642 67479761
L99443928 67527380
L99586785 67527380
L99687976 67479761
L99741547 67432142
" />
<path d="M100289166 66860714
L100205833 67527380
" />
<path d="M100277261 66955952
L100330833 66908333
L100432023 66860714
L100574880 66860714
L100664166 66908333
L100699880 67003571
L100634404 67527380
" />
<path d="M101068928 67479761
L101158214 67527380
L101348690 67527380
L101449880 67479761
L101509404 67384523
L101515357 67336904
L101479642 67241666
L101390357 67194047
L101247500 67194047
L101158214 67146428
L101122500 67051190
L101128452 67003571
L101187976 66908333
L101289166 66860714
L101432023 66860714
L101521309 66908333
" />
<path d="M101908214 66860714
L102015357 67527380
L102265357 67051190
L102396309 67527380
L102670119 66860714
" />
<path d="M102979642 67432142
L103021309 67479761
L102967738 67527380
L102926071 67479761
L102979642 67432142
L102967738 67527380
" />
<path d="M103830833 67479761
L103729642 67527380
L103539166 67527380
L103449880 67479761
L103414166 67384523
L103461785 67003571
L103521309 66908333
L103622500 66860714
L103812976 66860714
L103902261 66908333
L103937976 67003571
L103926071 67098809
L103437976 67194047
" />
<path d="M104729642 67527380
L104854642 66527380
" />
<path d="M104735595 67479761
L104634404 67527380
L104443928 67527380
L104354642 67479761
L104312976 67432142
L104277261 67336904
L104312976 67051190
L104372500 66955952
L104426071 66908333
L104527261 66860714
L104717738 66860714
L104807023 66908333
" />
<path d="M105717738 66860714
L105634404 67527380
" />
<path d="M105289166 66860714
L105223690 67384523
L105259404 67479761
L105348690 67527380
L105491547 67527380
L105592738 67479761
L105646309 67432142
" />
<path d="M106122500 67432142
L106164166 67479761
L106110595 67527380
L106068928 67479761
L106122500 67432142
L106110595 67527380
" />
<path d="M107015357 67527380
L107080833 67003571
L107045119 66908333
L106955833 66860714
L106765357 66860714
L106664166 66908333
" />
<path d="M107021309 67479761
L106920119 67527380
L106682023 67527380
L106592738 67479761
L106557023 67384523
L106568928 67289285
L106628452 67194047
L106729642 67146428
L106967738 67146428
L107068928 67098809
" />
<path d="M108003452 66860714
L107920119 67527380
" />
<path d="M107574880 66860714
L107509404 67384523
L107545119 67479761
L107634404 67527380
L107777261 67527380
L107878452 67479761
L107932023 67432142
" />
</g><text x="132450000.000000" y="74000000.000000"
textLength="6814048.000000" font-size="1333333.000000" lengthAdjust="spacingAndGlyphs"
text-anchor="middle" opacity="0">MCU 1v2</text>
<g class="stroked-text"><desc>MCU 1v2</desc>
<path d="M129378571 73952380
L129378571 72952380
L129711904 73666666
L130045238 72952380
L130045238 73952380
" />
<path d="M131092857 73857142
L131045238 73904761
L130902380 73952380
L130807142 73952380
L130664285 73904761
L130569047 73809523
L130521428 73714285
L130473809 73523809
L130473809 73380952
L130521428 73190476
L130569047 73095238
L130664285 73000000
L130807142 72952380
L130902380 72952380
L131045238 73000000
L131092857 73047619
" />
<path d="M131521428 72952380
L131521428 73761904
L131569047 73857142
L131616666 73904761
L131711904 73952380
L131902380 73952380
L131997619 73904761
L132045238 73857142
L132092857 73761904
L132092857 72952380
" />
<path d="M133854761 73952380
L133283333 73952380
" />
<path d="M133569047 73952380
L133569047 72952380
L133473809 73095238
L133378571 73190476
L133283333 73238095
" />
<path d="M134188095 73285714
L134426190 73952380
L134664285 73285714
" />
<path d="M134997619 73047619
L135045238 73000000
L135140476 72952380
L135378571 72952380
L135473809 73000000
L135521428 73047619
L135569047 73142857
L135569047 73238095
L135521428 73380952
L134950000 73952380
L135569047 73952380
" />
</g><text x="141600000.000000" y="69575000.000000"
textLength="4956905.000000" font-size="1333333.000000" lengthAdjust="spacingAndGlyphs"
text-anchor="middle" opacity="0">LDO_{VIN}</text>
<g class="stroked-text"><desc>LDO_{VIN}</desc>
<path d="M139933333 69527380
L139457142 69527380
L139457142 68527380
" />
<path d="M140266666 69527380
L140266666 68527380
L140504761 68527380
L140647619 68575000
L140742857 68670238
L140790476 68765476
L140838095 68955952
L140838095 69098809
L140790476 69289285
L140742857 69384523
L140647619 69479761
L140504761 69527380
L140266666 69527380
" />
<path d="M141457142 68527380
L141647619 68527380
L141742857 68575000
L141838095 68670238
L141885714 68860714
L141885714 69194047
L141838095 69384523
L141742857 69479761
L141647619 69527380
L141457142 69527380
L141361904 69479761
L141266666 69384523
L141219047 69194047
L141219047 68860714
L141266666 68670238
L141361904 68575000
L141457142 68527380
" />
<path d="M142152380 68836904
L142419047 69636904
L142685714 68836904
" />
<path d="M142952380 69636904
L142952380 68836904
" />
<path d="M143333333 69636904
L143333333 68836904
L143790476 69636904
L143790476 68836904
" />
</g><text x="139258333.000000" y="69700000.000000"
textLength="6023571.000000" font-size="1333333.000000" lengthAdjust="spacingAndGlyphs"
text-anchor="middle" opacity="0">LDO_{VOUT}</text>
<g class="stroked-text"><desc>LDO_{VOUT}</desc>
<path d="M137058333 69652380
L136582142 69652380
L136582142 68652380
" />
<path d="M137391666 69652380
L137391666 68652380
L137629761 68652380
L137772618 68700000
L137867856 68795238
L137915475 68890476
L137963094 69080952
L137963094 69223809
L137915475 69414285
L137867856 69509523
L137772618 69604761
L137629761 69652380
L137391666 69652380
" />
<path d="M138582142 68652380
L138772618 68652380
L138867856 68700000
L138963094 68795238
L139010713 68985714
L139010713 69319047
L138963094 69509523
L138867856 69604761
L138772618 69652380
L138582142 69652380
L138486904 69604761
L138391666 69509523
L138344047 69319047
L138344047 68985714
L138391666 68795238
L138486904 68700000
L138582142 68652380
" />
<path d="M139277380 68961904
L139544047 69761904
L139810713 68961904
" />
<path d="M140229761 68961904
L140382142 68961904
L140458333 69000000
L140534523 69076190
L140572618 69228571
L140572618 69495238
L140534523 69647619
L140458333 69723809
L140382142 69761904
L140229761 69761904
L140153571 69723809
L140077380 69647619
L140039285 69495238
L140039285 69228571
L140077380 69076190
L140153571 69000000
L140229761 68961904
" />
<path d="M140915475 68961904
L140915475 69609523
L140953571 69685714
L140991666 69723809
L141067856 69761904
L141220237 69761904
L141296428 69723809
L141334523 69685714
L141372618 69609523
L141372618 68961904
" />
<path d="M141639285 68961904
L142096428 68961904
" />
<path d="M141867856 69761904
L141867856 68961904
" />
</g><text x="132450000.000000" y="72000000.000000"
textLength="6814048.000000" font-size="1333333.000000" lengthAdjust="spacingAndGlyphs"
text-anchor="middle" opacity="0">MCU 3v3</text>
<g class="stroked-text"><desc>MCU 3v3</desc>
<path d="M129378571 71952380
L129378571 70952380
L129711904 71666666
L130045238 70952380
L130045238 71952380
" />
<path d="M131092857 71857142
L131045238 71904761
L130902380 71952380
L130807142 71952380
L130664285 71904761
L130569047 71809523
L130521428 71714285
L130473809 71523809
L130473809 71380952
L130521428 71190476
L130569047 71095238
L130664285 71000000
L130807142 70952380
L130902380 70952380
L131045238 71000000
L131092857 71047619
" />
<path d="M131521428 70952380
L131521428 71761904
L131569047 71857142
L131616666 71904761
L131711904 71952380
L131902380 71952380
L131997619 71904761
L132045238 71857142
L132092857 71761904
L132092857 70952380
" />
<path d="M133235714 70952380
L133854761 70952380
L133521428 71333333
L133664285 71333333
L133759523 71380952
L133807142 71428571
L133854761 71523809
L133854761 71761904
L133807142 71857142
L133759523 71904761
L133664285 71952380
L133378571 71952380
L133283333 71904761
L133235714 71857142
" />
<path d="M134188095 71285714
L134426190 71952380
L134664285 71285714
" />
<path d="M134950000 70952380
L135569047 70952380
L135235714 71333333
L135378571 71333333
L135473809 71380952
L135521428 71428571
L135569047 71523809
L135569047 71761904
L135521428 71857142
L135473809 71904761
L135378571 71952380
L135092857 71952380
L134997619 71904761
L134950000 71857142
" />
</g><text x="152600000.000000" y="66925000.000000"
textLength="4052143.000000" font-size="1333333.000000" lengthAdjust="spacingAndGlyphs"
text-anchor="middle" opacity="0">VBUS</text>
<g class="stroked-text"><desc>VBUS</desc>
<path d="M150766666 65877380
L151100000 66877380
L151433333 65877380
" />
<path d="M152100000 66353571
L152242857 66401190
L152290476 66448809
L152338095 66544047
L152338095 66686904
L152290476 66782142
L152242857 66829761
L152147619 66877380
L151766666 66877380
L151766666 65877380
L152100000 65877380
L152195238 65925000
L152242857 65972619
L152290476 66067857
L152290476 66163095
L152242857 66258333
L152195238 66305952
L152100000 66353571
L151766666 66353571
" />
<path d="M152766666 65877380
L152766666 66686904
L152814285 66782142
L152861904 66829761
L152957142 66877380
L153147619 66877380
L153242857 66829761
L153290476 66782142
L153338095 66686904
L153338095 65877380
" />
<path d="M153766666 66829761
L153909523 66877380
L154147619 66877380
L154242857 66829761
L154290476 66782142
L154338095 66686904
L154338095 66591666
L154290476 66496428
L154242857 66448809
L154147619 66401190
L153957142 66353571
L153861904 66305952
L153814285 66258333
L153766666 66163095
L153766666 66067857
L153814285 65972619
L153861904 65925000
L153957142 65877380
L154195238 65877380
L154338095 65925000
" />
</g><text x="134075000.000000" y="81225000.000000"
textLength="2147381.000000" font-size="1333333.000000" lengthAdjust="spacingAndGlyphs"
text-anchor="middle" opacity="0">~{CS}</text>
<g class="stroked-text"><desc>~{CS}</desc>
<path d="M133098809 79895000
L134098809 79895000
" />
<path d="M133908333 81082142
L133860714 81129761
L133717857 81177380
L133622619 81177380
L133479761 81129761
L133384523 81034523
L133336904 80939285
L133289285 80748809
L133289285 80605952
L133336904 80415476
L133384523 80320238
L133479761 80225000
L133622619 80177380
L133717857 80177380
L133860714 80225000
L133908333 80272619
" />
<path d="M134098809 79895000
L135051190 79895000
" />
<path d="M134289285 81129761
L134432142 81177380
L134670238 81177380
L134765476 81129761
L134813095 81082142
L134860714 80986904
L134860714 80891666
L134813095 80796428
L134765476 80748809
L134670238 80701190
L134479761 80653571
L134384523 80605952
L134336904 80558333
L134289285 80463095
L134289285 80367857
L134336904 80272619
L134384523 80225000
L134479761 80177380
L134717857 80177380
L134860714 80225000
" />
</g></g>
<g style="fill:#000000; fill-opacity:0.0; 
stroke:#000000; stroke-width:120000.000000; stroke-opacity:1; 
stroke-linecap:round; stroke-linejoin:round;">
<path style="fill:#000000; fill-opacity:0.0; 
stroke:#000000; stroke-width:120000.000000; stroke-opacity:1; 
stroke-linecap:round; stroke-linejoin:round;fill:none"
d="M 153320017.000000,85658011.000000
153353350.000000,85712181.000000
153378350.000000,85808011.000000
153370017.000000,85933011.000000
153332550.000000,86016351.000000
153286683.000000,86053851.000000
153240883.000000,86062181.000000
152728350.000000,86062181.000000
152728350.000000,85633011.000000
153282550.000000,85633011.000000
Z" /> 
</g>
<g style="fill:#000000; fill-opacity:0.0; 
stroke:#000000; stroke-width:200000.000000; stroke-opacity:1; 
stroke-linecap:round; stroke-linejoin:round;">
<path style="fill:#000000; fill-opacity:0.0; 
stroke:#000000; stroke-width:200000.000000; stroke-opacity:1; 
stroke-linecap:round; stroke-linejoin:round;fill:none"
d="M 150569220.000000,82832311.000000
150685020.000000,82842541.000000
150800020.000000,82859481.000000
150913820.000000,82883071.000000
151026020.000000,82913231.000000
151136350.000000,82949861.000000
151244280.000000,82992831.000000
151349620.000000,83042011.000000
151451880.000000,83097211.000000
151550750.000000,83158261.000000
151645950.000000,83224961.000000
151737080.000000,83297071.000000
151823880.000000,83374351.000000
151906080.000000,83456541.000000
151945020.000000,83499681.000000
151261680.000000,84149681.000000
151237350.000000,84115951.000000
151184080.000000,84052041.000000
151126020.000000,83992511.000000
151063350.000000,83937761.000000
150996620.000000,83888111.000000
150926150.000000,83843881.000000
150852480.000000,83805341.000000
150775950.000000,83772731.000000
150697080.000000,83746261.000000
150616350.000000,83726091.000000
150534350.000000,83712331.000000
150451480.000000,83705091.000000
150368280.000000,83704411.000000
150285280.000000,83710291.000000
150203080.000000,83722681.000000
150122020.000000,83741531.000000
150042750.000000,83766701.000000
149965680.000000,83798051.000000
149928350.000000,83816351.000000
149892420.000000,83834351.000000
149823480.000000,83875551.000000
149758220.000000,83922411.000000
149697150.000000,83974591.000000
149640680.000000,84031731.000000
149589220.000000,84093411.000000
149543080.000000,84159211.000000
149502680.000000,84228651.000000
149468280.000000,84301241.000000
149440080.000000,84376471.000000
149418350.000000,84453801.000000
149403150.000000,84532691.000000
149394680.000000,84612581.000000
149392880.000000,84692901.000000
149395020.000000,84733011.000000
149393620.000000,84773591.000000
149396350.000000,84854751.000000
149405480.000000,84935451.000000
149420950.000000,85015171.000000
149442550.000000,85093441.000000
149470280.000000,85169771.000000
149503880.000000,85243691.000000
149543220.000000,85314741.000000
149588020.000000,85382491.000000
149637950.000000,85446511.000000
149692820.000000,85506411.000000
149752150.000000,85561831.000000
149815680.000000,85612421.000000
149882950.000000,85657871.000000
149953620.000000,85697891.000000
150027220.000000,85732251.000000
150103280.000000,85760731.000000
150181280.000000,85783151.000000
150260880.000000,85799371.000000
150341480.000000,85809301.000000
150422620.000000,85812871.000000
150503750.000000,85810071.000000
150584420.000000,85800911.000000
150664150.000000,85785441.000000
150742420.000000,85763761.000000
150818750.000000,85736011.000000
150892620.000000,85702351.000000
150928350.000000,85683011.000000
151111680.000000,85599681.000000
151245020.000000,85149681.000000
150311680.000000,85149681.000000
150311680.000000,84383011.000000
151995020.000000,84383011.000000
151995020.000000,86049681.000000
151951350.000000,86092791.000000
151859880.000000,86174591.000000
151763950.000000,86251121.000000
151663880.000000,86322131.000000
151559950.000000,86387401.000000
151452550.000000,86446721.000000
151341950.000000,86499911.000000
151228550.000000,86546781.000000
151112680.000000,86587201.000000
150994750.000000,86621041.000000
150875080.000000,86648191.000000
150754080.000000,86668561.000000
150632150.000000,86682091.000000
150509620.000000,86688751.000000
150386880.000000,86688491.000000
150264350.000000,86681331.000000
150142480.000000,86667291.000000
150021550.000000,86646421.000000
149961680.000000,86633011.000000
149908620.000000,86622471.000000
149803680.000000,86595911.000000
149700480.000000,86563191.000000
149599480.000000,86524411.000000
149500880.000000,86479731.000000
149405150.000000,86429291.000000
149312480.000000,86373271.000000
149223350.000000,86311871.000000
149138020.000000,86245291.000000
149056820.000000,86173791.000000
148979880.000000,86097601.000000
148907680.000000,86017001.000000
148840350.000000,85932261.000000
148778150.000000,85843691.000000
148721280.000000,85751591.000000
148670020.000000,85656291.000000
148624420.000000,85558111.000000
148584750.000000,85457411.000000
148551080.000000,85354551.000000
148523550.000000,85249871.000000
148502350.000000,85143741.000000
148487350.000000,85036541.000000
148478820.000000,84928651.000000
148476620.000000,84820441.000000
148478350.000000,84766351.000000
148476880.000000,84709871.000000
148479820.000000,84596911.000000
148489620.000000,84484351.000000
148506150.000000,84372571.000000
148529420.000000,84262001.000000
148559280.000000,84153031.000000
148595680.000000,84046061.000000
148638480.000000,83941481.000000
148687480.000000,83839661.000000
148742480.000000,83740991.000000
148803420.000000,83645811.000000
148869950.000000,83554471.000000
148941820.000000,83467321.000000
149018880.000000,83384651.000000
149100750.000000,83306781.000000
149187150.000000,83233981.000000
149277820.000000,83166531.000000
149372350.000000,83104661.000000
149470480.000000,83048611.000000
149571750.000000,82998571.000000
149675950.000000,82954731.000000
149782480.000000,82917241.000000
149891150.000000,82886251.000000
150001480.000000,82861861.000000
150113080.000000,82844171.000000
150225550.000000,82833241.000000
150338480.000000,82829111.000000
150394950.000000,82830031.000000
150453080.000000,82828811.000000
Z" /> 
</g>
<g style="fill:#000000; fill-opacity:1.0; 
stroke:#000000; stroke-width:120000.000000; stroke-opacity:1; 
stroke-linecap:round; stroke-linejoin:round;">
<path style="fill:#000000; fill-opacity:1.0; 
stroke:#000000; stroke-width:120000.000000; stroke-opacity:1; 
stroke-linecap:round; stroke-linejoin:round;fill-rule:evenodd;"
d="M 148161680.000000,86049681.000000
148228350.000000,86049681.000000
148811680.000000,85133011.000000
149428350.000000,85133011.000000
148778350.000000,86116351.000000
149545020.000000,87449681.000000
148945020.000000,87449681.000000
148461680.000000,86599681.000000
148411680.000000,86599681.000000
148161680.000000,86933011.000000
148161680.000000,87449681.000000
147645020.000000,87449681.000000
147645020.000000,85133011.000000
148161680.000000,85133011.000000
Z" /> 
</g>
<g style="fill:#000000; fill-opacity:0.0; 
stroke:#000000; stroke-width:200000.000000; stroke-opacity:1; 
stroke-linecap:round; stroke-linejoin:round;">
<path style="fill:#000000; fill-opacity:0.0; 
stroke:#000000; stroke-width:200000.000000; stroke-opacity:1; 
stroke-linecap:round; stroke-linejoin:round;fill:none"
d="M 147245020.000000,84883011.000000
147295020.000000,84883011.000000
147295020.000000,82866351.000000
148161680.000000,82866351.000000
148161680.000000,86666351.000000
147695020.000000,86666351.000000
147595020.000000,86566351.000000
145678350.000000,84616351.000000
145628350.000000,84616351.000000
145628350.000000,86666351.000000
144728350.000000,86666351.000000
144728350.000000,82866351.000000
145228350.000000,82866351.000000
Z" /> 
</g>
<g style="fill:#000000; fill-opacity:1.0; 
stroke:#000000; stroke-width:120000.000000; stroke-opacity:1; 
stroke-linecap:round; stroke-linejoin:round;">
<path style="fill:#000000; fill-opacity:1.0; 
stroke:#000000; stroke-width:120000.000000; stroke-opacity:1; 
stroke-linecap:round; stroke-linejoin:round;fill-rule:evenodd;"
d="M 151611680.000000,85633011.000000
150545020.000000,85633011.000000
150545020.000000,86066351.000000
151445020.000000,86066351.000000
151445020.000000,86566351.000000
150545020.000000,86566351.000000
150545020.000000,86966351.000000
151611680.000000,86966351.000000
151611680.000000,87449681.000000
150045020.000000,87449681.000000
150045020.000000,85133011.000000
151611680.000000,85133011.000000
Z" /> 
<path style="fill:#000000; fill-opacity:1.0; 
stroke:#000000; stroke-width:120000.000000; stroke-opacity:1; 
stroke-linecap:round; stroke-linejoin:round;fill-rule:evenodd;"
d="M 143545050.000000,86466351.000000
143578350.000000,86466351.000000
143961650.000000,85133011.000000
144578350.000000,85133011.000000
144578350.000000,87449681.000000
144128350.000000,87449681.000000
144128350.000000,86283011.000000
144061680.000000,86283011.000000
143761650.000000,87199681.000000
143361650.000000,87199681.000000
143061650.000000,86283011.000000
142995050.000000,86283011.000000
142995050.000000,87449681.000000
142545050.000000,87449681.000000
142545050.000000,85133011.000000
143161650.000000,85133011.000000
Z" /> 
<path style="fill:#000000; fill-opacity:1.0; 
stroke:#000000; stroke-width:120000.000000; stroke-opacity:1; 
stroke-linecap:round; stroke-linejoin:round;fill-rule:evenodd;"
d="M 153411683.000000,85133011.000000
153578350.000000,85216351.000000
153661683.000000,85283011.000000
153745017.000000,85366351.000000
153828350.000000,85483011.000000
153878350.000000,85599681.000000
153895017.000000,85766351.000000
153895017.000000,85966351.000000
153878350.000000,86066351.000000
153845017.000000,86183011.000000
153778350.000000,86299681.000000
153695017.000000,86399681.000000
153628350.000000,86449681.000000
153545017.000000,86499681.000000
153511683.000000,86516351.000000
153511683.000000,86549681.000000
154028350.000000,87449681.000000
153411683.000000,87449681.000000
152928350.000000,86566351.000000
152728350.000000,86566351.000000
152728350.000000,87449681.000000
152228350.000000,87449681.000000
152228350.000000,86062181.000000
152728350.000000,86062181.000000
153240883.000000,86062181.000000
153286683.000000,86053851.000000
153332550.000000,86016351.000000
153370017.000000,85933011.000000
153378350.000000,85808011.000000
153353350.000000,85712181.000000
153320017.000000,85658011.000000
153282550.000000,85633011.000000
152728350.000000,85633011.000000
152728350.000000,86062181.000000
152228350.000000,86062181.000000
152228350.000000,85133011.000000
Z" /> 
<path style="fill:#000000; fill-opacity:1.0; 
stroke:#000000; stroke-width:120000.000000; stroke-opacity:1; 
stroke-linecap:round; stroke-linejoin:round;fill-rule:evenodd;"
d="M 146645840.000000,86115471.000000
146078350.000000,86116351.000000
145895020.000000,86599681.000000
146311680.000000,86599681.000000
146128350.000000,86116351.000000
146646350.000000,86116351.000000
147145020.000000,87449681.000000
146595020.000000,87449681.000000
146465850.000000,87099681.000000
145740850.000000,87099681.000000
145611680.000000,87449681.000000
145061680.000000,87449681.000000
145945020.000000,85133011.000000
146278350.000000,85133011.000000
Z" /> 
<path style="fill:#000000; fill-opacity:1.0; 
stroke:#000000; stroke-width:120000.000000; stroke-opacity:1; 
stroke-linecap:round; stroke-linejoin:round;fill-rule:evenodd;"
d="M 154028350.000000,88149681.000000
152678350.000000,88149681.000000
152678350.000000,89083011.000000
153845017.000000,89083011.000000
153845017.000000,89283011.000000
152678350.000000,89283011.000000
152678350.000000,90216348.000000
154028350.000000,90216348.000000
154028350.000000,90399681.000000
152478350.000000,90399681.000000
152478350.000000,87966351.000000
154028350.000000,87966351.000000
Z" /> 
<path style="fill:#000000; fill-opacity:1.0; 
stroke:#000000; stroke-width:120000.000000; stroke-opacity:1; 
stroke-linecap:round; stroke-linejoin:round;fill-rule:evenodd;"
d="M 150877082.000000,87925125.000000
151061074.000000,87968784.000000
151230814.000000,88052133.000000
151377864.000000,88171025.000000
151494908.000000,88319550.000000
151576128.000000,88490320.000000
151599350.000000,88582011.000000
151387680.000000,88582011.000000
151363312.000000,88503259.000000
151280464.000000,88360806.000000
151164033.000000,88244185.000000
151021716.000000,88161105.000000
150862919.000000,88117056.000000
150698140.000000,88114951.000000
150538270.000000,88154929.000000
150393877.000000,88234347.000000
150274505.000000,88347955.000000
150188045.000000,88488245.000000
150161680.000000,88566351.000000
150135624.000000,88866028.000000
150134793.000000,89467600.000000
150160020.000000,89767348.000000
150184404.000000,89846140.000000
150267299.000000,89988664.000000
150383794.000000,90105342.000000
150526186.000000,90188464.000000
150685065.000000,90232534.000000
150849930.000000,90234639.000000
151009883.000000,90194642.000000
151154352.000000,90115184.000000
151273788.000000,90001519.000000
151360297.000000,89861159.000000
151386680.000000,89783014.000000
151386680.000000,89783681.000000
151598420.000000,89783681.000000
151573911.000000,89874085.000000
151491101.000000,90042053.000000
151373718.000000,90187970.000000
151227392.000000,90304843.000000
151059136.000000,90387066.000000
150877019.000000,90430700.000000
150689771.000000,90433650.000000
150506369.000000,90395777.000000
150335607.000000,90318896.000000
150185670.000000,90206692.000000
150063749.000000,90064545.000000
149975687.000000,89899271.000000
149948350.000000,89809681.000000
149919489.000000,89603560.000000
149899535.000000,89187810.000000
149922833.000000,88772233.000000
149953350.000000,88566351.000000
149978318.000000,88475120.000000
150062772.000000,88305926.000000
150182621.000000,88159655.000000
150331906.000000,88043581.000000
150503202.000000,87963477.000000
150687990.000000,87923326.000000
Z" /> 
<path style="fill:#000000; fill-opacity:1.0; 
stroke:#000000; stroke-width:120000.000000; stroke-opacity:1; 
stroke-linecap:round; stroke-linejoin:round;fill-rule:evenodd;"
d="M 149311680.000000,90399681.000000
149115880.000000,90399681.000000
148895020.000000,89799681.000000
147695020.000000,89799681.000000
147478350.000000,90399681.000000
147261680.000000,90399681.000000
147554489.000000,89608014.000000
147761680.000000,89608014.000000
148828350.000000,89608014.000000
148320020.000000,88208011.000000
148270020.000000,88208011.000000
147761680.000000,89608014.000000
147554489.000000,89608014.000000
148161680.000000,87966351.000000
148428350.000000,87966351.000000
149021680.000000,89608014.000000
149165950.000000,89998281.000000
Z" /> 
<path style="fill:#000000; fill-opacity:1.0; 
stroke:#000000; stroke-width:120000.000000; stroke-opacity:1; 
stroke-linecap:round; stroke-linejoin:round;fill-rule:evenodd;"
d="M 143611650.000000,87933011.000000
143861650.000000,87999681.000000
144078350.000000,88099681.000000
144195020.000000,88166351.000000
144078350.000000,88316351.000000
143928350.000000,88249681.000000
143828350.000000,88199681.000000
143628350.000000,88133011.000000
143545050.000000,88116351.000000
143261650.000000,88116351.000000
143111650.000000,88166351.000000
143011650.000000,88216351.000000
142911650.000000,88299681.000000
142861650.000000,88366351.000000
142828350.000000,88433011.000000
142811650.000000,88483011.000000
142795050.000000,88566351.000000
142795050.000000,88666351.000000
142811650.000000,88749681.000000
142861650.000000,88833011.000000
142911650.000000,88883011.000000
142978350.000000,88933011.000000
143145050.000000,88999681.000000
143728350.000000,89133011.000000
143911650.000000,89199681.000000
143995050.000000,89233011.000000
144095020.000000,89316351.000000
144161680.000000,89399681.000000
144228350.000000,89533014.000000
144245020.000000,89616348.000000
144261680.000000,89733014.000000
144228350.000000,89899681.000000
144178350.000000,90033014.000000
144078350.000000,90183014.000000
143978350.000000,90266348.000000
143845050.000000,90333014.000000
143678350.000000,90399681.000000
143345050.000000,90416348.000000
143211650.000000,90416348.000000
143045050.000000,90399681.000000
142795050.000000,90316348.000000
142678350.000000,90266348.000000
142478350.000000,90133014.000000
142495050.000000,90116348.000000
142611650.000000,89983014.000000
142678350.000000,90033014.000000
142828350.000000,90116348.000000
143011650.000000,90183014.000000
143128350.000000,90216348.000000
143395050.000000,90233014.000000
143595050.000000,90216348.000000
143761650.000000,90166348.000000
143861650.000000,90099681.000000
143978350.000000,89983014.000000
144028350.000000,89899681.000000
144045020.000000,89783014.000000
144045020.000000,89683014.000000
144028350.000000,89583014.000000
143961650.000000,89483014.000000
143861650.000000,89399681.000000
143678350.000000,89333011.000000
143478350.000000,89283011.000000
143095050.000000,89199681.000000
142911650.000000,89133011.000000
142811650.000000,89083011.000000
142728350.000000,89016351.000000
142661650.000000,88916351.000000
142611650.000000,88816351.000000
142595050.000000,88733011.000000
142595050.000000,88499681.000000
142611650.000000,88433011.000000
142695050.000000,88249681.000000
142795050.000000,88133011.000000
142961650.000000,88016351.000000
143278350.000000,87933011.000000
143378350.000000,87916351.000000
143495050.000000,87916351.000000
Z" /> 
</g>
<g style="fill:#000000; fill-opacity:0.0; 
stroke:#000000; stroke-width:200000.000000; stroke-opacity:1; 
stroke-linecap:round; stroke-linejoin:round;">
<path style="fill:#000000; fill-opacity:0.0; 
stroke:#000000; stroke-width:200000.000000; stroke-opacity:1; 
stroke-linecap:round; stroke-linejoin:round;fill:none"
d="M 144445020.000000,83683011.000000
142261650.000000,83683011.000000
142261650.000000,84316351.000000
143411650.000000,84316351.000000
143411650.000000,85133011.000000
142261650.000000,85133011.000000
142261650.000000,85833011.000000
144353350.000000,85833011.000000
144353350.000000,86666351.000000
141361650.000000,86666351.000000
141361650.000000,82866351.000000
144445020.000000,82866351.000000
Z" /> 
</g>
<g style="fill:#000000; fill-opacity:1.0; 
stroke:#000000; stroke-width:120000.000000; stroke-opacity:1; 
stroke-linecap:round; stroke-linejoin:round;">
<path style="fill:#000000; fill-opacity:1.0; 
stroke:#000000; stroke-width:120000.000000; stroke-opacity:1; 
stroke-linecap:round; stroke-linejoin:round;fill-rule:evenodd;"
d="M 145323350.000000,90399681.000000
145110020.000000,90399681.000000
145110020.000000,89249681.000000
145323350.000000,89249681.000000
146136680.000000,89249681.000000
146166120.000000,89242411.000000
146223340.000000,89222381.000000
146278100.000000,89196351.000000
146329750.000000,89164591.000000
146377700.000000,89127491.000000
146421410.000000,89085471.000000
146460360.000000,89039001.000000
146494100.000000,88988631.000000
146522260.000000,88934931.000000
146544510.000000,88878531.000000
146560580.000000,88820071.000000
146570300.000000,88760231.000000
146573550.000000,88699681.000000
146570300.000000,88639131.000000
146560580.000000,88579291.000000
146544510.000000,88520831.000000
146522260.000000,88464431.000000
146494100.000000,88410731.000000
146460360.000000,88360361.000000
146421410.000000,88313891.000000
146377700.000000,88271871.000000
146329750.000000,88234771.000000
146278100.000000,88203011.000000
146223340.000000,88176981.000000
146166120.000000,88156951.000000
146136680.000000,88149681.000000
145323350.000000,88149681.000000
145323350.000000,89249681.000000
145110020.000000,89249681.000000
145110020.000000,87966351.000000
146110020.000000,87966351.000000
146136640.000000,87965631.000000
146189820.000000,87968661.000000
146242460.000000,87976771.000000
146268350.000000,87983011.000000
146301750.000000,87994061.000000
146366480.000000,88021611.000000
146428340.000000,88055131.000000
146486750.000000,88094341.000000
146541200.000000,88138881.000000
146591220.000000,88188351.000000
146636350.000000,88242331.000000
146676190.000000,88300311.000000
146710380.000000,88361791.000000
146738640.000000,88426231.000000
146760680.000000,88493031.000000
146776330.000000,88561621.000000
146785450.000000,88631381.000000
146787940.000000,88701691.000000
146783800.000000,88771921.000000
146773060.000000,88841451.000000
146755810.000000,88909651.000000
146732200.000000,88975921.000000
146702460.000000,89039671.000000
146666830.000000,89100341.000000
146625650.000000,89157381.000000
146579270.000000,89210281.000000
146528110.000000,89258571.000000
146472620.000000,89301831.000000
146413310.000000,89339651.000000
146350690.000000,89371731.000000
146285330.000000,89397751.000000
146251680.000000,89408014.000000
146217810.000000,89417348.000000
146148600.000000,89429494.000000
146078470.000000,89434074.000000
146043350.000000,89433014.000000
145323350.000000,89431348.000000
Z" /> 
</g>
<g style="fill:#000000; fill-opacity:0.0; 
stroke:#000000; stroke-width:120000.000000; stroke-opacity:1; 
stroke-linecap:round; stroke-linejoin:round;">
<path d="M144230000 61595000
L93310000 61595000
" />
<path d="M141630000 56395000
L93310000 56395000
" />
<path d="M144230000 58995000
L144230000 61595000
" />
<path d="M93310000 56395000
L93310000 61595000
" />
<path d="M141630000 56395000
L141630000 58995000
" />
<path d="M142900000 56395000
L144230000 56395000
" />
<path d="M141630000 58995000
L144230000 58995000
" />
<path d="M144230000 56395000
L144230000 57725000
" />
<g >
</g>
<g >
</g>
<g >
</g>
<g >
</g>
<g >
</g>
<g >
</g>
<g >
</g>
<g >
</g>
<g >
</g>
<g >
</g>
<g >
</g>
<g >
</g>
<g >
</g>
<g >
</g>
<g >
</g>
<g >
</g>
<g >
</g>
<g >
</g>
<g >
</g>
<g >
</g>
<g >
</g>
<g >
</g>
<g >
</g>
<g >
</g>
<g >
</g>
<g >
</g>
<g >
</g>
<g >
</g>
<g >
</g>
<g >
</g>
<g >
</g>
<g >
</g>
<g >
</g>
<g >
</g>
<g >
</g>
<g >
</g>
<g >
</g>
<g >
</g>
<g >
</g>
<g >
</g>
<g >
</g>
<g >
</g>
<g >
</g>
<g >
</g>
<g >
</g>
<g >
</g>
<g >
</g>
<g >
</g>
<g >
</g>
<g >
</g>
<g >
</g>
<g >
</g>
<g >
</g>
<g >
</g>
<g >
</g>
<g >
</g>
<g >
</g>
<g >
</g>
</g> 
</svg>
