%TF.GenerationSoftware,KiCad,Pcbnew,(6.0.8)*%
%TF.CreationDate,2022-10-11T12:28:16+11:00*%
%TF.ProjectId,PicoGamePad_V3_0_0_A,5069636f-4761-46d6-9550-61645f56335f,4.0.0 (Rev A)*%
%TF.SameCoordinates,Original*%
%TF.FileFunction,AssemblyDrawing,Bot*%
%FSLAX46Y46*%
G04 Gerber Fmt 4.6, Leading zero omitted, Abs format (unit mm)*
G04 Created by KiCad (PCBNEW (6.0.8)) date 2022-10-11 12:28:16*
%MOMM*%
%LPD*%
G01*
G04 APERTURE LIST*
%ADD10C,0.150000*%
%ADD11C,0.060000*%
%ADD12C,0.120000*%
%ADD13C,0.080000*%
%ADD14C,0.105000*%
%ADD15C,0.100000*%
G04 APERTURE END LIST*
D10*
%TO.C,R3*%
X132883333Y-75227619D02*
X132835714Y-75180000D01*
X132740476Y-75132380D01*
X132502380Y-75132380D01*
X132407142Y-75180000D01*
X132359523Y-75227619D01*
X132311904Y-75322857D01*
X132311904Y-75418095D01*
X132359523Y-75560952D01*
X132930952Y-76132380D01*
X132311904Y-76132380D01*
X131978571Y-75132380D02*
X131311904Y-75132380D01*
X131740476Y-76132380D01*
X130978571Y-76132380D02*
X130740476Y-76132380D01*
X130740476Y-75941904D01*
X130835714Y-75894285D01*
X130930952Y-75799047D01*
X130978571Y-75656190D01*
X130978571Y-75418095D01*
X130930952Y-75275238D01*
X130835714Y-75180000D01*
X130692857Y-75132380D01*
X130502380Y-75132380D01*
X130359523Y-75180000D01*
X130264285Y-75275238D01*
X130216666Y-75418095D01*
X130216666Y-75656190D01*
X130264285Y-75799047D01*
X130359523Y-75894285D01*
X130454761Y-75941904D01*
X130454761Y-76132380D01*
X130216666Y-76132380D01*
D11*
X131616666Y-74430952D02*
X131750000Y-74240476D01*
X131845238Y-74430952D02*
X131845238Y-74030952D01*
X131692857Y-74030952D01*
X131654761Y-74050000D01*
X131635714Y-74069047D01*
X131616666Y-74107142D01*
X131616666Y-74164285D01*
X131635714Y-74202380D01*
X131654761Y-74221428D01*
X131692857Y-74240476D01*
X131845238Y-74240476D01*
X131483333Y-74030952D02*
X131235714Y-74030952D01*
X131369047Y-74183333D01*
X131311904Y-74183333D01*
X131273809Y-74202380D01*
X131254761Y-74221428D01*
X131235714Y-74259523D01*
X131235714Y-74354761D01*
X131254761Y-74392857D01*
X131273809Y-74411904D01*
X131311904Y-74430952D01*
X131426190Y-74430952D01*
X131464285Y-74411904D01*
X131483333Y-74392857D01*
D10*
%TO.C,U1*%
X156050000Y-69116666D02*
X155573809Y-69116666D01*
X156145238Y-69402380D02*
X155811904Y-68402380D01*
X155478571Y-69402380D01*
X155192857Y-69354761D02*
X155050000Y-69402380D01*
X154811904Y-69402380D01*
X154716666Y-69354761D01*
X154669047Y-69307142D01*
X154621428Y-69211904D01*
X154621428Y-69116666D01*
X154669047Y-69021428D01*
X154716666Y-68973809D01*
X154811904Y-68926190D01*
X155002380Y-68878571D01*
X155097619Y-68830952D01*
X155145238Y-68783333D01*
X155192857Y-68688095D01*
X155192857Y-68592857D01*
X155145238Y-68497619D01*
X155097619Y-68450000D01*
X155002380Y-68402380D01*
X154764285Y-68402380D01*
X154621428Y-68450000D01*
X154192857Y-69402380D02*
X154192857Y-68402380D01*
X153859523Y-69116666D01*
X153526190Y-68402380D01*
X153526190Y-69402380D01*
X152526190Y-69402380D02*
X153097619Y-69402380D01*
X152811904Y-69402380D02*
X152811904Y-68402380D01*
X152907142Y-68545238D01*
X153002380Y-68640476D01*
X153097619Y-68688095D01*
X151573809Y-69402380D02*
X152145238Y-69402380D01*
X151859523Y-69402380D02*
X151859523Y-68402380D01*
X151954761Y-68545238D01*
X152050000Y-68640476D01*
X152145238Y-68688095D01*
X150621428Y-69402380D02*
X151192857Y-69402380D01*
X150907142Y-69402380D02*
X150907142Y-68402380D01*
X151002380Y-68545238D01*
X151097619Y-68640476D01*
X151192857Y-68688095D01*
X150288095Y-68402380D02*
X149621428Y-68402380D01*
X150050000Y-69402380D01*
X149240476Y-69021428D02*
X148478571Y-69021428D01*
X148097619Y-68402380D02*
X147478571Y-68402380D01*
X147811904Y-68783333D01*
X147669047Y-68783333D01*
X147573809Y-68830952D01*
X147526190Y-68878571D01*
X147478571Y-68973809D01*
X147478571Y-69211904D01*
X147526190Y-69307142D01*
X147573809Y-69354761D01*
X147669047Y-69402380D01*
X147954761Y-69402380D01*
X148050000Y-69354761D01*
X148097619Y-69307142D01*
X147050000Y-69307142D02*
X147002380Y-69354761D01*
X147050000Y-69402380D01*
X147097619Y-69354761D01*
X147050000Y-69307142D01*
X147050000Y-69402380D01*
X146669047Y-68402380D02*
X146050000Y-68402380D01*
X146383333Y-68783333D01*
X146240476Y-68783333D01*
X146145238Y-68830952D01*
X146097619Y-68878571D01*
X146050000Y-68973809D01*
X146050000Y-69211904D01*
X146097619Y-69307142D01*
X146145238Y-69354761D01*
X146240476Y-69402380D01*
X146526190Y-69402380D01*
X146621428Y-69354761D01*
X146669047Y-69307142D01*
D12*
X150611904Y-72840476D02*
X151259523Y-72840476D01*
X151335714Y-72878571D01*
X151373809Y-72916666D01*
X151411904Y-72992857D01*
X151411904Y-73145238D01*
X151373809Y-73221428D01*
X151335714Y-73259523D01*
X151259523Y-73297619D01*
X150611904Y-73297619D01*
X151411904Y-74097619D02*
X151411904Y-73640476D01*
X151411904Y-73869047D02*
X150611904Y-73869047D01*
X150726190Y-73792857D01*
X150802380Y-73716666D01*
X150840476Y-73640476D01*
D10*
%TO.C,R2*%
X132883333Y-73627619D02*
X132835714Y-73580000D01*
X132740476Y-73532380D01*
X132502380Y-73532380D01*
X132407142Y-73580000D01*
X132359523Y-73627619D01*
X132311904Y-73722857D01*
X132311904Y-73818095D01*
X132359523Y-73960952D01*
X132930952Y-74532380D01*
X132311904Y-74532380D01*
X131978571Y-73532380D02*
X131311904Y-73532380D01*
X131740476Y-74532380D01*
X130978571Y-74532380D02*
X130740476Y-74532380D01*
X130740476Y-74341904D01*
X130835714Y-74294285D01*
X130930952Y-74199047D01*
X130978571Y-74056190D01*
X130978571Y-73818095D01*
X130930952Y-73675238D01*
X130835714Y-73580000D01*
X130692857Y-73532380D01*
X130502380Y-73532380D01*
X130359523Y-73580000D01*
X130264285Y-73675238D01*
X130216666Y-73818095D01*
X130216666Y-74056190D01*
X130264285Y-74199047D01*
X130359523Y-74294285D01*
X130454761Y-74341904D01*
X130454761Y-74532380D01*
X130216666Y-74532380D01*
D11*
X131616666Y-72830952D02*
X131750000Y-72640476D01*
X131845238Y-72830952D02*
X131845238Y-72430952D01*
X131692857Y-72430952D01*
X131654761Y-72450000D01*
X131635714Y-72469047D01*
X131616666Y-72507142D01*
X131616666Y-72564285D01*
X131635714Y-72602380D01*
X131654761Y-72621428D01*
X131692857Y-72640476D01*
X131845238Y-72640476D01*
X131464285Y-72469047D02*
X131445238Y-72450000D01*
X131407142Y-72430952D01*
X131311904Y-72430952D01*
X131273809Y-72450000D01*
X131254761Y-72469047D01*
X131235714Y-72507142D01*
X131235714Y-72545238D01*
X131254761Y-72602380D01*
X131483333Y-72830952D01*
X131235714Y-72830952D01*
D10*
%TO.C,C7*%
X135272380Y-75452380D02*
X135272380Y-74880952D01*
X135272380Y-75166666D02*
X134272380Y-75166666D01*
X134415238Y-75071428D01*
X134510476Y-74976190D01*
X134558095Y-74880952D01*
X134272380Y-76071428D02*
X134272380Y-76166666D01*
X134320000Y-76261904D01*
X134367619Y-76309523D01*
X134462857Y-76357142D01*
X134653333Y-76404761D01*
X134891428Y-76404761D01*
X135081904Y-76357142D01*
X135177142Y-76309523D01*
X135224761Y-76261904D01*
X135272380Y-76166666D01*
X135272380Y-76071428D01*
X135224761Y-75976190D01*
X135177142Y-75928571D01*
X135081904Y-75880952D01*
X134891428Y-75833333D01*
X134653333Y-75833333D01*
X134462857Y-75880952D01*
X134367619Y-75928571D01*
X134320000Y-75976190D01*
X134272380Y-76071428D01*
X134272380Y-77023809D02*
X134272380Y-77119047D01*
X134320000Y-77214285D01*
X134367619Y-77261904D01*
X134462857Y-77309523D01*
X134653333Y-77357142D01*
X134891428Y-77357142D01*
X135081904Y-77309523D01*
X135177142Y-77261904D01*
X135224761Y-77214285D01*
X135272380Y-77119047D01*
X135272380Y-77023809D01*
X135224761Y-76928571D01*
X135177142Y-76880952D01*
X135081904Y-76833333D01*
X134891428Y-76785714D01*
X134653333Y-76785714D01*
X134462857Y-76833333D01*
X134367619Y-76880952D01*
X134320000Y-76928571D01*
X134272380Y-77023809D01*
X134605714Y-77785714D02*
X135272380Y-77785714D01*
X134700952Y-77785714D02*
X134653333Y-77833333D01*
X134605714Y-77928571D01*
X134605714Y-78071428D01*
X134653333Y-78166666D01*
X134748571Y-78214285D01*
X135272380Y-78214285D01*
X134748571Y-79023809D02*
X134748571Y-78690476D01*
X135272380Y-78690476D02*
X134272380Y-78690476D01*
X134272380Y-79166666D01*
D13*
X136678571Y-76916666D02*
X136702380Y-76892857D01*
X136726190Y-76821428D01*
X136726190Y-76773809D01*
X136702380Y-76702380D01*
X136654761Y-76654761D01*
X136607142Y-76630952D01*
X136511904Y-76607142D01*
X136440476Y-76607142D01*
X136345238Y-76630952D01*
X136297619Y-76654761D01*
X136250000Y-76702380D01*
X136226190Y-76773809D01*
X136226190Y-76821428D01*
X136250000Y-76892857D01*
X136273809Y-76916666D01*
X136226190Y-77083333D02*
X136226190Y-77416666D01*
X136726190Y-77202380D01*
D10*
%TO.C,U3*%
X128052381Y-76841690D02*
X129052381Y-77079786D01*
X128338096Y-77270262D01*
X129052381Y-77460738D01*
X128052381Y-77698833D01*
X129147620Y-78746452D02*
X129100001Y-78651214D01*
X129004762Y-78555976D01*
X128861905Y-78413119D01*
X128814286Y-78317881D01*
X128814286Y-78222643D01*
X129052381Y-78270262D02*
X129004762Y-78175024D01*
X128909524Y-78079786D01*
X128719048Y-78032167D01*
X128385715Y-78032167D01*
X128195239Y-78079786D01*
X128100001Y-78175024D01*
X128052381Y-78270262D01*
X128052381Y-78460738D01*
X128100001Y-78555976D01*
X128195239Y-78651214D01*
X128385715Y-78698833D01*
X128719048Y-78698833D01*
X128909524Y-78651214D01*
X129004762Y-78555976D01*
X129052381Y-78460738D01*
X129052381Y-78270262D01*
X128147620Y-79079786D02*
X128100001Y-79127405D01*
X128052381Y-79222643D01*
X128052381Y-79460738D01*
X128100001Y-79555976D01*
X128147620Y-79603595D01*
X128242858Y-79651214D01*
X128338096Y-79651214D01*
X128480953Y-79603595D01*
X129052381Y-79032167D01*
X129052381Y-79651214D01*
X128052381Y-80555976D02*
X128052381Y-80079786D01*
X128528572Y-80032167D01*
X128480953Y-80079786D01*
X128433334Y-80175024D01*
X128433334Y-80413119D01*
X128480953Y-80508357D01*
X128528572Y-80555976D01*
X128623810Y-80603595D01*
X128861905Y-80603595D01*
X128957143Y-80555976D01*
X129004762Y-80508357D01*
X129052381Y-80413119D01*
X129052381Y-80175024D01*
X129004762Y-80079786D01*
X128957143Y-80032167D01*
X128052381Y-81317881D02*
X128766667Y-81317881D01*
X128909524Y-81270262D01*
X129004762Y-81175024D01*
X129052381Y-81032167D01*
X129052381Y-80936928D01*
X128052381Y-81651214D02*
X129052381Y-81984547D01*
X128052381Y-82317881D01*
X129004762Y-82603595D02*
X129052381Y-82746452D01*
X129052381Y-82984547D01*
X129004762Y-83079786D01*
X128957143Y-83127405D01*
X128861905Y-83175024D01*
X128766667Y-83175024D01*
X128671429Y-83127405D01*
X128623810Y-83079786D01*
X128576191Y-82984547D01*
X128528572Y-82794071D01*
X128480953Y-82698833D01*
X128433334Y-82651214D01*
X128338096Y-82603595D01*
X128242858Y-82603595D01*
X128147620Y-82651214D01*
X128100001Y-82698833D01*
X128052381Y-82794071D01*
X128052381Y-83032167D01*
X128100001Y-83175024D01*
X131612381Y-79270262D02*
X132421905Y-79270262D01*
X132517143Y-79317881D01*
X132564762Y-79365500D01*
X132612381Y-79460738D01*
X132612381Y-79651214D01*
X132564762Y-79746452D01*
X132517143Y-79794071D01*
X132421905Y-79841690D01*
X131612381Y-79841690D01*
X131612381Y-80222643D02*
X131612381Y-80841690D01*
X131993334Y-80508357D01*
X131993334Y-80651214D01*
X132040953Y-80746452D01*
X132088572Y-80794071D01*
X132183810Y-80841690D01*
X132421905Y-80841690D01*
X132517143Y-80794071D01*
X132564762Y-80746452D01*
X132612381Y-80651214D01*
X132612381Y-80365500D01*
X132564762Y-80270262D01*
X132517143Y-80222643D01*
%TO.C,C14*%
X125472568Y-80384462D02*
X125472568Y-79813034D01*
X125472568Y-80098748D02*
X124472568Y-80098748D01*
X124615426Y-80003510D01*
X124710664Y-79908272D01*
X124758283Y-79813034D01*
X124472568Y-81003510D02*
X124472568Y-81098748D01*
X124520188Y-81193986D01*
X124567807Y-81241605D01*
X124663045Y-81289224D01*
X124853521Y-81336843D01*
X125091616Y-81336843D01*
X125282092Y-81289224D01*
X125377330Y-81241605D01*
X125424949Y-81193986D01*
X125472568Y-81098748D01*
X125472568Y-81003510D01*
X125424949Y-80908272D01*
X125377330Y-80860653D01*
X125282092Y-80813034D01*
X125091616Y-80765415D01*
X124853521Y-80765415D01*
X124663045Y-80813034D01*
X124567807Y-80860653D01*
X124520188Y-80908272D01*
X124472568Y-81003510D01*
X124472568Y-81955891D02*
X124472568Y-82051129D01*
X124520188Y-82146367D01*
X124567807Y-82193986D01*
X124663045Y-82241605D01*
X124853521Y-82289224D01*
X125091616Y-82289224D01*
X125282092Y-82241605D01*
X125377330Y-82193986D01*
X125424949Y-82146367D01*
X125472568Y-82051129D01*
X125472568Y-81955891D01*
X125424949Y-81860653D01*
X125377330Y-81813034D01*
X125282092Y-81765415D01*
X125091616Y-81717796D01*
X124853521Y-81717796D01*
X124663045Y-81765415D01*
X124567807Y-81813034D01*
X124520188Y-81860653D01*
X124472568Y-81955891D01*
X124805902Y-82717796D02*
X125472568Y-82717796D01*
X124901140Y-82717796D02*
X124853521Y-82765415D01*
X124805902Y-82860653D01*
X124805902Y-83003510D01*
X124853521Y-83098748D01*
X124948759Y-83146367D01*
X125472568Y-83146367D01*
X124948759Y-83955891D02*
X124948759Y-83622558D01*
X125472568Y-83622558D02*
X124472568Y-83622558D01*
X124472568Y-84098748D01*
D13*
X123518759Y-81610653D02*
X123542568Y-81586843D01*
X123566378Y-81515415D01*
X123566378Y-81467796D01*
X123542568Y-81396367D01*
X123494949Y-81348748D01*
X123447330Y-81324939D01*
X123352092Y-81301129D01*
X123280664Y-81301129D01*
X123185426Y-81324939D01*
X123137807Y-81348748D01*
X123090188Y-81396367D01*
X123066378Y-81467796D01*
X123066378Y-81515415D01*
X123090188Y-81586843D01*
X123113997Y-81610653D01*
X123566378Y-82086843D02*
X123566378Y-81801129D01*
X123566378Y-81943986D02*
X123066378Y-81943986D01*
X123137807Y-81896367D01*
X123185426Y-81848748D01*
X123209235Y-81801129D01*
X123233045Y-82515415D02*
X123566378Y-82515415D01*
X123042568Y-82396367D02*
X123399711Y-82277320D01*
X123399711Y-82586843D01*
D10*
%TO.C,C18*%
X127452467Y-80384462D02*
X127452467Y-79813034D01*
X127452467Y-80098748D02*
X126452467Y-80098748D01*
X126595325Y-80003510D01*
X126690563Y-79908272D01*
X126738182Y-79813034D01*
X126452467Y-81003510D02*
X126452467Y-81098748D01*
X126500087Y-81193986D01*
X126547706Y-81241605D01*
X126642944Y-81289224D01*
X126833420Y-81336843D01*
X127071515Y-81336843D01*
X127261991Y-81289224D01*
X127357229Y-81241605D01*
X127404848Y-81193986D01*
X127452467Y-81098748D01*
X127452467Y-81003510D01*
X127404848Y-80908272D01*
X127357229Y-80860653D01*
X127261991Y-80813034D01*
X127071515Y-80765415D01*
X126833420Y-80765415D01*
X126642944Y-80813034D01*
X126547706Y-80860653D01*
X126500087Y-80908272D01*
X126452467Y-81003510D01*
X126452467Y-81955891D02*
X126452467Y-82051129D01*
X126500087Y-82146367D01*
X126547706Y-82193986D01*
X126642944Y-82241605D01*
X126833420Y-82289224D01*
X127071515Y-82289224D01*
X127261991Y-82241605D01*
X127357229Y-82193986D01*
X127404848Y-82146367D01*
X127452467Y-82051129D01*
X127452467Y-81955891D01*
X127404848Y-81860653D01*
X127357229Y-81813034D01*
X127261991Y-81765415D01*
X127071515Y-81717796D01*
X126833420Y-81717796D01*
X126642944Y-81765415D01*
X126547706Y-81813034D01*
X126500087Y-81860653D01*
X126452467Y-81955891D01*
X126785801Y-82717796D02*
X127452467Y-82717796D01*
X126881039Y-82717796D02*
X126833420Y-82765415D01*
X126785801Y-82860653D01*
X126785801Y-83003510D01*
X126833420Y-83098748D01*
X126928658Y-83146367D01*
X127452467Y-83146367D01*
X126928658Y-83955891D02*
X126928658Y-83622558D01*
X127452467Y-83622558D02*
X126452467Y-83622558D01*
X126452467Y-84098748D01*
D13*
X125498658Y-81610653D02*
X125522467Y-81586843D01*
X125546277Y-81515415D01*
X125546277Y-81467796D01*
X125522467Y-81396367D01*
X125474848Y-81348748D01*
X125427229Y-81324939D01*
X125331991Y-81301129D01*
X125260563Y-81301129D01*
X125165325Y-81324939D01*
X125117706Y-81348748D01*
X125070087Y-81396367D01*
X125046277Y-81467796D01*
X125046277Y-81515415D01*
X125070087Y-81586843D01*
X125093896Y-81610653D01*
X125546277Y-82086843D02*
X125546277Y-81801129D01*
X125546277Y-81943986D02*
X125046277Y-81943986D01*
X125117706Y-81896367D01*
X125165325Y-81848748D01*
X125189134Y-81801129D01*
X125260563Y-82372558D02*
X125236753Y-82324939D01*
X125212944Y-82301129D01*
X125165325Y-82277320D01*
X125141515Y-82277320D01*
X125093896Y-82301129D01*
X125070087Y-82324939D01*
X125046277Y-82372558D01*
X125046277Y-82467796D01*
X125070087Y-82515415D01*
X125093896Y-82539224D01*
X125141515Y-82563034D01*
X125165325Y-82563034D01*
X125212944Y-82539224D01*
X125236753Y-82515415D01*
X125260563Y-82467796D01*
X125260563Y-82372558D01*
X125284372Y-82324939D01*
X125308182Y-82301129D01*
X125355801Y-82277320D01*
X125451039Y-82277320D01*
X125498658Y-82301129D01*
X125522467Y-82324939D01*
X125546277Y-82372558D01*
X125546277Y-82467796D01*
X125522467Y-82515415D01*
X125498658Y-82539224D01*
X125451039Y-82563034D01*
X125355801Y-82563034D01*
X125308182Y-82539224D01*
X125284372Y-82515415D01*
X125260563Y-82467796D01*
D10*
%TO.C,LED1*%
X156134523Y-82277380D02*
X155896428Y-83277380D01*
X155705952Y-82563095D01*
X155515476Y-83277380D01*
X155277380Y-82277380D01*
X154944047Y-83229761D02*
X154801190Y-83277380D01*
X154563095Y-83277380D01*
X154467857Y-83229761D01*
X154420238Y-83182142D01*
X154372619Y-83086904D01*
X154372619Y-82991666D01*
X154420238Y-82896428D01*
X154467857Y-82848809D01*
X154563095Y-82801190D01*
X154753571Y-82753571D01*
X154848809Y-82705952D01*
X154896428Y-82658333D01*
X154944047Y-82563095D01*
X154944047Y-82467857D01*
X154896428Y-82372619D01*
X154848809Y-82325000D01*
X154753571Y-82277380D01*
X154515476Y-82277380D01*
X154372619Y-82325000D01*
X153991666Y-82372619D02*
X153944047Y-82325000D01*
X153848809Y-82277380D01*
X153610714Y-82277380D01*
X153515476Y-82325000D01*
X153467857Y-82372619D01*
X153420238Y-82467857D01*
X153420238Y-82563095D01*
X153467857Y-82705952D01*
X154039285Y-83277380D01*
X153420238Y-83277380D01*
X152848809Y-82705952D02*
X152944047Y-82658333D01*
X152991666Y-82610714D01*
X153039285Y-82515476D01*
X153039285Y-82467857D01*
X152991666Y-82372619D01*
X152944047Y-82325000D01*
X152848809Y-82277380D01*
X152658333Y-82277380D01*
X152563095Y-82325000D01*
X152515476Y-82372619D01*
X152467857Y-82467857D01*
X152467857Y-82515476D01*
X152515476Y-82610714D01*
X152563095Y-82658333D01*
X152658333Y-82705952D01*
X152848809Y-82705952D01*
X152944047Y-82753571D01*
X152991666Y-82801190D01*
X153039285Y-82896428D01*
X153039285Y-83086904D01*
X152991666Y-83182142D01*
X152944047Y-83229761D01*
X152848809Y-83277380D01*
X152658333Y-83277380D01*
X152563095Y-83229761D01*
X152515476Y-83182142D01*
X152467857Y-83086904D01*
X152467857Y-82896428D01*
X152515476Y-82801190D01*
X152563095Y-82753571D01*
X152658333Y-82705952D01*
X151515476Y-83277380D02*
X152086904Y-83277380D01*
X151801190Y-83277380D02*
X151801190Y-82277380D01*
X151896428Y-82420238D01*
X151991666Y-82515476D01*
X152086904Y-82563095D01*
X151134523Y-82372619D02*
X151086904Y-82325000D01*
X150991666Y-82277380D01*
X150753571Y-82277380D01*
X150658333Y-82325000D01*
X150610714Y-82372619D01*
X150563095Y-82467857D01*
X150563095Y-82563095D01*
X150610714Y-82705952D01*
X151182142Y-83277380D01*
X150563095Y-83277380D01*
X149801190Y-82753571D02*
X149658333Y-82801190D01*
X149610714Y-82848809D01*
X149563095Y-82944047D01*
X149563095Y-83086904D01*
X149610714Y-83182142D01*
X149658333Y-83229761D01*
X149753571Y-83277380D01*
X150134523Y-83277380D01*
X150134523Y-82277380D01*
X149801190Y-82277380D01*
X149705952Y-82325000D01*
X149658333Y-82372619D01*
X149610714Y-82467857D01*
X149610714Y-82563095D01*
X149658333Y-82658333D01*
X149705952Y-82705952D01*
X149801190Y-82753571D01*
X150134523Y-82753571D01*
X153720238Y-87186904D02*
X154101190Y-87186904D01*
X154101190Y-86386904D01*
X153453571Y-86767857D02*
X153186904Y-86767857D01*
X153072619Y-87186904D02*
X153453571Y-87186904D01*
X153453571Y-86386904D01*
X153072619Y-86386904D01*
X152729761Y-87186904D02*
X152729761Y-86386904D01*
X152539285Y-86386904D01*
X152425000Y-86425000D01*
X152348809Y-86501190D01*
X152310714Y-86577380D01*
X152272619Y-86729761D01*
X152272619Y-86844047D01*
X152310714Y-86996428D01*
X152348809Y-87072619D01*
X152425000Y-87148809D01*
X152539285Y-87186904D01*
X152729761Y-87186904D01*
X151510714Y-87186904D02*
X151967857Y-87186904D01*
X151739285Y-87186904D02*
X151739285Y-86386904D01*
X151815476Y-86501190D01*
X151891666Y-86577380D01*
X151967857Y-86615476D01*
%TO.C,C11*%
X122072380Y-67433333D02*
X122072380Y-66861904D01*
X122072380Y-67147619D02*
X121072380Y-67147619D01*
X121215238Y-67052380D01*
X121310476Y-66957142D01*
X121358095Y-66861904D01*
X121405714Y-67861904D02*
X122405714Y-67861904D01*
X121929523Y-68338095D02*
X122024761Y-68385714D01*
X122072380Y-68480952D01*
X121929523Y-67861904D02*
X122024761Y-67909523D01*
X122072380Y-68004761D01*
X122072380Y-68195238D01*
X122024761Y-68290476D01*
X121929523Y-68338095D01*
X121405714Y-68338095D01*
X121548571Y-69242857D02*
X121548571Y-68909523D01*
X122072380Y-68909523D02*
X121072380Y-68909523D01*
X121072380Y-69385714D01*
D13*
X123478571Y-67778571D02*
X123502380Y-67754761D01*
X123526190Y-67683333D01*
X123526190Y-67635714D01*
X123502380Y-67564285D01*
X123454761Y-67516666D01*
X123407142Y-67492857D01*
X123311904Y-67469047D01*
X123240476Y-67469047D01*
X123145238Y-67492857D01*
X123097619Y-67516666D01*
X123050000Y-67564285D01*
X123026190Y-67635714D01*
X123026190Y-67683333D01*
X123050000Y-67754761D01*
X123073809Y-67778571D01*
X123526190Y-68254761D02*
X123526190Y-67969047D01*
X123526190Y-68111904D02*
X123026190Y-68111904D01*
X123097619Y-68064285D01*
X123145238Y-68016666D01*
X123169047Y-67969047D01*
X123526190Y-68730952D02*
X123526190Y-68445238D01*
X123526190Y-68588095D02*
X123026190Y-68588095D01*
X123097619Y-68540476D01*
X123145238Y-68492857D01*
X123169047Y-68445238D01*
D10*
%TO.C,C15*%
X119972380Y-66552380D02*
X119972380Y-65980952D01*
X119972380Y-66266666D02*
X118972380Y-66266666D01*
X119115238Y-66171428D01*
X119210476Y-66076190D01*
X119258095Y-65980952D01*
X118972380Y-67171428D02*
X118972380Y-67266666D01*
X119020000Y-67361904D01*
X119067619Y-67409523D01*
X119162857Y-67457142D01*
X119353333Y-67504761D01*
X119591428Y-67504761D01*
X119781904Y-67457142D01*
X119877142Y-67409523D01*
X119924761Y-67361904D01*
X119972380Y-67266666D01*
X119972380Y-67171428D01*
X119924761Y-67076190D01*
X119877142Y-67028571D01*
X119781904Y-66980952D01*
X119591428Y-66933333D01*
X119353333Y-66933333D01*
X119162857Y-66980952D01*
X119067619Y-67028571D01*
X119020000Y-67076190D01*
X118972380Y-67171428D01*
X118972380Y-68123809D02*
X118972380Y-68219047D01*
X119020000Y-68314285D01*
X119067619Y-68361904D01*
X119162857Y-68409523D01*
X119353333Y-68457142D01*
X119591428Y-68457142D01*
X119781904Y-68409523D01*
X119877142Y-68361904D01*
X119924761Y-68314285D01*
X119972380Y-68219047D01*
X119972380Y-68123809D01*
X119924761Y-68028571D01*
X119877142Y-67980952D01*
X119781904Y-67933333D01*
X119591428Y-67885714D01*
X119353333Y-67885714D01*
X119162857Y-67933333D01*
X119067619Y-67980952D01*
X119020000Y-68028571D01*
X118972380Y-68123809D01*
X119305714Y-68885714D02*
X119972380Y-68885714D01*
X119400952Y-68885714D02*
X119353333Y-68933333D01*
X119305714Y-69028571D01*
X119305714Y-69171428D01*
X119353333Y-69266666D01*
X119448571Y-69314285D01*
X119972380Y-69314285D01*
X119448571Y-70123809D02*
X119448571Y-69790476D01*
X119972380Y-69790476D02*
X118972380Y-69790476D01*
X118972380Y-70266666D01*
D13*
X121378571Y-67778571D02*
X121402380Y-67754761D01*
X121426190Y-67683333D01*
X121426190Y-67635714D01*
X121402380Y-67564285D01*
X121354761Y-67516666D01*
X121307142Y-67492857D01*
X121211904Y-67469047D01*
X121140476Y-67469047D01*
X121045238Y-67492857D01*
X120997619Y-67516666D01*
X120950000Y-67564285D01*
X120926190Y-67635714D01*
X120926190Y-67683333D01*
X120950000Y-67754761D01*
X120973809Y-67778571D01*
X121426190Y-68254761D02*
X121426190Y-67969047D01*
X121426190Y-68111904D02*
X120926190Y-68111904D01*
X120997619Y-68064285D01*
X121045238Y-68016666D01*
X121069047Y-67969047D01*
X120926190Y-68707142D02*
X120926190Y-68469047D01*
X121164285Y-68445238D01*
X121140476Y-68469047D01*
X121116666Y-68516666D01*
X121116666Y-68635714D01*
X121140476Y-68683333D01*
X121164285Y-68707142D01*
X121211904Y-68730952D01*
X121330952Y-68730952D01*
X121378571Y-68707142D01*
X121402380Y-68683333D01*
X121426190Y-68635714D01*
X121426190Y-68516666D01*
X121402380Y-68469047D01*
X121378571Y-68445238D01*
D10*
%TO.C,C6*%
X119171428Y-76972380D02*
X119742857Y-76972380D01*
X119457142Y-76972380D02*
X119457142Y-75972380D01*
X119552380Y-76115238D01*
X119647619Y-76210476D01*
X119742857Y-76258095D01*
X118314285Y-76305714D02*
X118314285Y-76972380D01*
X118552380Y-75924761D02*
X118790476Y-76639047D01*
X118171428Y-76639047D01*
X117790476Y-76305714D02*
X117790476Y-77305714D01*
X117790476Y-76353333D02*
X117695238Y-76305714D01*
X117504761Y-76305714D01*
X117409523Y-76353333D01*
X117361904Y-76400952D01*
X117314285Y-76496190D01*
X117314285Y-76781904D01*
X117361904Y-76877142D01*
X117409523Y-76924761D01*
X117504761Y-76972380D01*
X117695238Y-76972380D01*
X117790476Y-76924761D01*
X116552380Y-76448571D02*
X116885714Y-76448571D01*
X116885714Y-76972380D02*
X116885714Y-75972380D01*
X116409523Y-75972380D01*
D13*
X118183333Y-75018571D02*
X118207142Y-75042380D01*
X118278571Y-75066190D01*
X118326190Y-75066190D01*
X118397619Y-75042380D01*
X118445238Y-74994761D01*
X118469047Y-74947142D01*
X118492857Y-74851904D01*
X118492857Y-74780476D01*
X118469047Y-74685238D01*
X118445238Y-74637619D01*
X118397619Y-74590000D01*
X118326190Y-74566190D01*
X118278571Y-74566190D01*
X118207142Y-74590000D01*
X118183333Y-74613809D01*
X117754761Y-74566190D02*
X117850000Y-74566190D01*
X117897619Y-74590000D01*
X117921428Y-74613809D01*
X117969047Y-74685238D01*
X117992857Y-74780476D01*
X117992857Y-74970952D01*
X117969047Y-75018571D01*
X117945238Y-75042380D01*
X117897619Y-75066190D01*
X117802380Y-75066190D01*
X117754761Y-75042380D01*
X117730952Y-75018571D01*
X117707142Y-74970952D01*
X117707142Y-74851904D01*
X117730952Y-74804285D01*
X117754761Y-74780476D01*
X117802380Y-74756666D01*
X117897619Y-74756666D01*
X117945238Y-74780476D01*
X117969047Y-74804285D01*
X117992857Y-74851904D01*
D10*
%TO.C,Y1*%
X123989986Y-79591821D02*
X123323319Y-80591821D01*
X123323319Y-79591821D02*
X123989986Y-80591821D01*
X123037605Y-79591821D02*
X122418557Y-79591821D01*
X122751891Y-79972774D01*
X122609034Y-79972774D01*
X122513796Y-80020393D01*
X122466177Y-80068012D01*
X122418557Y-80163250D01*
X122418557Y-80401345D01*
X122466177Y-80496583D01*
X122513796Y-80544202D01*
X122609034Y-80591821D01*
X122894748Y-80591821D01*
X122989986Y-80544202D01*
X123037605Y-80496583D01*
X122037605Y-79687060D02*
X121989986Y-79639441D01*
X121894748Y-79591821D01*
X121656653Y-79591821D01*
X121561415Y-79639441D01*
X121513796Y-79687060D01*
X121466177Y-79782298D01*
X121466177Y-79877536D01*
X121513796Y-80020393D01*
X122085224Y-80591821D01*
X121466177Y-80591821D01*
X121085224Y-79687060D02*
X121037605Y-79639441D01*
X120942367Y-79591821D01*
X120704272Y-79591821D01*
X120609034Y-79639441D01*
X120561415Y-79687060D01*
X120513796Y-79782298D01*
X120513796Y-79877536D01*
X120561415Y-80020393D01*
X121132843Y-80591821D01*
X120513796Y-80591821D01*
X119609034Y-79591821D02*
X120085224Y-79591821D01*
X120132843Y-80068012D01*
X120085224Y-80020393D01*
X119989986Y-79972774D01*
X119751891Y-79972774D01*
X119656653Y-80020393D01*
X119609034Y-80068012D01*
X119561415Y-80163250D01*
X119561415Y-80401345D01*
X119609034Y-80496583D01*
X119656653Y-80544202D01*
X119751891Y-80591821D01*
X119989986Y-80591821D01*
X120085224Y-80544202D01*
X120132843Y-80496583D01*
X118609034Y-80591821D02*
X119180462Y-80591821D01*
X118894748Y-80591821D02*
X118894748Y-79591821D01*
X118989986Y-79734679D01*
X119085224Y-79829917D01*
X119180462Y-79877536D01*
X118228081Y-79687060D02*
X118180462Y-79639441D01*
X118085224Y-79591821D01*
X117847129Y-79591821D01*
X117751891Y-79639441D01*
X117704272Y-79687060D01*
X117656653Y-79782298D01*
X117656653Y-79877536D01*
X117704272Y-80020393D01*
X118275700Y-80591821D01*
X117656653Y-80591821D01*
X117228081Y-80591821D02*
X117228081Y-79591821D01*
X116894748Y-80306107D01*
X116561415Y-79591821D01*
X116561415Y-80591821D01*
X116085224Y-80591821D02*
X116085224Y-79591821D01*
X115751891Y-80306107D01*
X115418557Y-79591821D01*
X115418557Y-80591821D01*
X114609034Y-80068012D02*
X114466177Y-80115631D01*
X114418557Y-80163250D01*
X114370938Y-80258488D01*
X114370938Y-80401345D01*
X114418557Y-80496583D01*
X114466177Y-80544202D01*
X114561415Y-80591821D01*
X114942367Y-80591821D01*
X114942367Y-79591821D01*
X114609034Y-79591821D01*
X114513796Y-79639441D01*
X114466177Y-79687060D01*
X114418557Y-79782298D01*
X114418557Y-79877536D01*
X114466177Y-79972774D01*
X114513796Y-80020393D01*
X114609034Y-80068012D01*
X114942367Y-80068012D01*
X113513796Y-79925155D02*
X113513796Y-80591821D01*
X113751891Y-79544202D02*
X113989986Y-80258488D01*
X113370938Y-80258488D01*
X113037605Y-80544202D02*
X112894748Y-80591821D01*
X112656653Y-80591821D01*
X112561415Y-80544202D01*
X112513796Y-80496583D01*
X112466177Y-80401345D01*
X112466177Y-80306107D01*
X112513796Y-80210869D01*
X112561415Y-80163250D01*
X112656653Y-80115631D01*
X112847129Y-80068012D01*
X112942367Y-80020393D01*
X112989986Y-79972774D01*
X113037605Y-79877536D01*
X113037605Y-79782298D01*
X112989986Y-79687060D01*
X112942367Y-79639441D01*
X112847129Y-79591821D01*
X112609034Y-79591821D01*
X112466177Y-79639441D01*
X112037605Y-80591821D02*
X112037605Y-79591821D01*
D14*
X118299510Y-77672774D02*
X118299510Y-78006107D01*
X118532843Y-77306107D02*
X118299510Y-77672774D01*
X118066177Y-77306107D01*
X117466177Y-78006107D02*
X117866177Y-78006107D01*
X117666177Y-78006107D02*
X117666177Y-77306107D01*
X117732843Y-77406107D01*
X117799510Y-77472774D01*
X117866177Y-77506107D01*
D10*
%TO.C,C5*%
X119171428Y-82732380D02*
X119742857Y-82732380D01*
X119457142Y-82732380D02*
X119457142Y-81732380D01*
X119552380Y-81875238D01*
X119647619Y-81970476D01*
X119742857Y-82018095D01*
X118314285Y-82065714D02*
X118314285Y-82732380D01*
X118552380Y-81684761D02*
X118790476Y-82399047D01*
X118171428Y-82399047D01*
X117790476Y-82065714D02*
X117790476Y-83065714D01*
X117790476Y-82113333D02*
X117695238Y-82065714D01*
X117504761Y-82065714D01*
X117409523Y-82113333D01*
X117361904Y-82160952D01*
X117314285Y-82256190D01*
X117314285Y-82541904D01*
X117361904Y-82637142D01*
X117409523Y-82684761D01*
X117504761Y-82732380D01*
X117695238Y-82732380D01*
X117790476Y-82684761D01*
X116552380Y-82208571D02*
X116885714Y-82208571D01*
X116885714Y-82732380D02*
X116885714Y-81732380D01*
X116409523Y-81732380D01*
D13*
X118183333Y-80778571D02*
X118207142Y-80802380D01*
X118278571Y-80826190D01*
X118326190Y-80826190D01*
X118397619Y-80802380D01*
X118445238Y-80754761D01*
X118469047Y-80707142D01*
X118492857Y-80611904D01*
X118492857Y-80540476D01*
X118469047Y-80445238D01*
X118445238Y-80397619D01*
X118397619Y-80350000D01*
X118326190Y-80326190D01*
X118278571Y-80326190D01*
X118207142Y-80350000D01*
X118183333Y-80373809D01*
X117730952Y-80326190D02*
X117969047Y-80326190D01*
X117992857Y-80564285D01*
X117969047Y-80540476D01*
X117921428Y-80516666D01*
X117802380Y-80516666D01*
X117754761Y-80540476D01*
X117730952Y-80564285D01*
X117707142Y-80611904D01*
X117707142Y-80730952D01*
X117730952Y-80778571D01*
X117754761Y-80802380D01*
X117802380Y-80826190D01*
X117921428Y-80826190D01*
X117969047Y-80802380D01*
X117992857Y-80778571D01*
D10*
%TO.C,C9*%
X133307622Y-69704547D02*
X133879050Y-69704547D01*
X133593336Y-69704547D02*
X133593336Y-68704547D01*
X133688574Y-68847405D01*
X133783812Y-68942643D01*
X133879050Y-68990262D01*
X132688574Y-68704547D02*
X132593336Y-68704547D01*
X132498098Y-68752167D01*
X132450479Y-68799786D01*
X132402860Y-68895024D01*
X132355241Y-69085500D01*
X132355241Y-69323595D01*
X132402860Y-69514071D01*
X132450479Y-69609309D01*
X132498098Y-69656928D01*
X132593336Y-69704547D01*
X132688574Y-69704547D01*
X132783812Y-69656928D01*
X132831431Y-69609309D01*
X132879050Y-69514071D01*
X132926669Y-69323595D01*
X132926669Y-69085500D01*
X132879050Y-68895024D01*
X132831431Y-68799786D01*
X132783812Y-68752167D01*
X132688574Y-68704547D01*
X131736193Y-68704547D02*
X131640955Y-68704547D01*
X131545717Y-68752167D01*
X131498098Y-68799786D01*
X131450479Y-68895024D01*
X131402860Y-69085500D01*
X131402860Y-69323595D01*
X131450479Y-69514071D01*
X131498098Y-69609309D01*
X131545717Y-69656928D01*
X131640955Y-69704547D01*
X131736193Y-69704547D01*
X131831431Y-69656928D01*
X131879050Y-69609309D01*
X131926669Y-69514071D01*
X131974288Y-69323595D01*
X131974288Y-69085500D01*
X131926669Y-68895024D01*
X131879050Y-68799786D01*
X131831431Y-68752167D01*
X131736193Y-68704547D01*
X130974288Y-69037881D02*
X130974288Y-69704547D01*
X130974288Y-69133119D02*
X130926669Y-69085500D01*
X130831431Y-69037881D01*
X130688574Y-69037881D01*
X130593336Y-69085500D01*
X130545717Y-69180738D01*
X130545717Y-69704547D01*
X129736193Y-69180738D02*
X130069526Y-69180738D01*
X130069526Y-69704547D02*
X130069526Y-68704547D01*
X129593336Y-68704547D01*
D13*
X131843336Y-71110738D02*
X131867145Y-71134547D01*
X131938574Y-71158357D01*
X131986193Y-71158357D01*
X132057622Y-71134547D01*
X132105241Y-71086928D01*
X132129050Y-71039309D01*
X132152860Y-70944071D01*
X132152860Y-70872643D01*
X132129050Y-70777405D01*
X132105241Y-70729786D01*
X132057622Y-70682167D01*
X131986193Y-70658357D01*
X131938574Y-70658357D01*
X131867145Y-70682167D01*
X131843336Y-70705976D01*
X131605241Y-71158357D02*
X131510003Y-71158357D01*
X131462383Y-71134547D01*
X131438574Y-71110738D01*
X131390955Y-71039309D01*
X131367145Y-70944071D01*
X131367145Y-70753595D01*
X131390955Y-70705976D01*
X131414764Y-70682167D01*
X131462383Y-70658357D01*
X131557622Y-70658357D01*
X131605241Y-70682167D01*
X131629050Y-70705976D01*
X131652860Y-70753595D01*
X131652860Y-70872643D01*
X131629050Y-70920262D01*
X131605241Y-70944071D01*
X131557622Y-70967881D01*
X131462383Y-70967881D01*
X131414764Y-70944071D01*
X131390955Y-70920262D01*
X131367145Y-70872643D01*
D10*
%TO.C,R6*%
X135302380Y-79833333D02*
X135302380Y-79261904D01*
X135302380Y-79547619D02*
X134302380Y-79547619D01*
X134445238Y-79452380D01*
X134540476Y-79357142D01*
X134588095Y-79261904D01*
X134302380Y-80452380D02*
X134302380Y-80547619D01*
X134350000Y-80642857D01*
X134397619Y-80690476D01*
X134492857Y-80738095D01*
X134683333Y-80785714D01*
X134921428Y-80785714D01*
X135111904Y-80738095D01*
X135207142Y-80690476D01*
X135254761Y-80642857D01*
X135302380Y-80547619D01*
X135302380Y-80452380D01*
X135254761Y-80357142D01*
X135207142Y-80309523D01*
X135111904Y-80261904D01*
X134921428Y-80214285D01*
X134683333Y-80214285D01*
X134492857Y-80261904D01*
X134397619Y-80309523D01*
X134350000Y-80357142D01*
X134302380Y-80452380D01*
X135302380Y-81214285D02*
X134302380Y-81214285D01*
X134921428Y-81309523D02*
X135302380Y-81595238D01*
X134635714Y-81595238D02*
X135016666Y-81214285D01*
X135302380Y-81976190D02*
X135302380Y-82214285D01*
X135111904Y-82214285D01*
X135064285Y-82119047D01*
X134969047Y-82023809D01*
X134826190Y-81976190D01*
X134588095Y-81976190D01*
X134445238Y-82023809D01*
X134350000Y-82119047D01*
X134302380Y-82261904D01*
X134302380Y-82452380D01*
X134350000Y-82595238D01*
X134445238Y-82690476D01*
X134588095Y-82738095D01*
X134826190Y-82738095D01*
X134969047Y-82690476D01*
X135064285Y-82595238D01*
X135111904Y-82500000D01*
X135302380Y-82500000D01*
X135302380Y-82738095D01*
D13*
X136726190Y-80916666D02*
X136488095Y-80750000D01*
X136726190Y-80630952D02*
X136226190Y-80630952D01*
X136226190Y-80821428D01*
X136250000Y-80869047D01*
X136273809Y-80892857D01*
X136321428Y-80916666D01*
X136392857Y-80916666D01*
X136440476Y-80892857D01*
X136464285Y-80869047D01*
X136488095Y-80821428D01*
X136488095Y-80630952D01*
X136226190Y-81345238D02*
X136226190Y-81250000D01*
X136250000Y-81202380D01*
X136273809Y-81178571D01*
X136345238Y-81130952D01*
X136440476Y-81107142D01*
X136630952Y-81107142D01*
X136678571Y-81130952D01*
X136702380Y-81154761D01*
X136726190Y-81202380D01*
X136726190Y-81297619D01*
X136702380Y-81345238D01*
X136678571Y-81369047D01*
X136630952Y-81392857D01*
X136511904Y-81392857D01*
X136464285Y-81369047D01*
X136440476Y-81345238D01*
X136416666Y-81297619D01*
X136416666Y-81202380D01*
X136440476Y-81154761D01*
X136464285Y-81130952D01*
X136511904Y-81107142D01*
D10*
%TO.C,C3*%
X145242857Y-75852380D02*
X145814285Y-75852380D01*
X145528571Y-75852380D02*
X145528571Y-74852380D01*
X145623809Y-74995238D01*
X145719047Y-75090476D01*
X145814285Y-75138095D01*
X144623809Y-74852380D02*
X144528571Y-74852380D01*
X144433333Y-74900000D01*
X144385714Y-74947619D01*
X144338095Y-75042857D01*
X144290476Y-75233333D01*
X144290476Y-75471428D01*
X144338095Y-75661904D01*
X144385714Y-75757142D01*
X144433333Y-75804761D01*
X144528571Y-75852380D01*
X144623809Y-75852380D01*
X144719047Y-75804761D01*
X144766666Y-75757142D01*
X144814285Y-75661904D01*
X144861904Y-75471428D01*
X144861904Y-75233333D01*
X144814285Y-75042857D01*
X144766666Y-74947619D01*
X144719047Y-74900000D01*
X144623809Y-74852380D01*
X143861904Y-75185714D02*
X143861904Y-76185714D01*
X143385714Y-75709523D02*
X143338095Y-75804761D01*
X143242857Y-75852380D01*
X143861904Y-75709523D02*
X143814285Y-75804761D01*
X143719047Y-75852380D01*
X143528571Y-75852380D01*
X143433333Y-75804761D01*
X143385714Y-75709523D01*
X143385714Y-75185714D01*
X142480952Y-75328571D02*
X142814285Y-75328571D01*
X142814285Y-75852380D02*
X142814285Y-74852380D01*
X142338095Y-74852380D01*
D12*
X144233333Y-73835714D02*
X144271428Y-73873809D01*
X144385714Y-73911904D01*
X144461904Y-73911904D01*
X144576190Y-73873809D01*
X144652380Y-73797619D01*
X144690476Y-73721428D01*
X144728571Y-73569047D01*
X144728571Y-73454761D01*
X144690476Y-73302380D01*
X144652380Y-73226190D01*
X144576190Y-73150000D01*
X144461904Y-73111904D01*
X144385714Y-73111904D01*
X144271428Y-73150000D01*
X144233333Y-73188095D01*
X143966666Y-73111904D02*
X143471428Y-73111904D01*
X143738095Y-73416666D01*
X143623809Y-73416666D01*
X143547619Y-73454761D01*
X143509523Y-73492857D01*
X143471428Y-73569047D01*
X143471428Y-73759523D01*
X143509523Y-73835714D01*
X143547619Y-73873809D01*
X143623809Y-73911904D01*
X143852380Y-73911904D01*
X143928571Y-73873809D01*
X143966666Y-73835714D01*
D10*
%TO.C,C2*%
X145242857Y-73552380D02*
X145814285Y-73552380D01*
X145528571Y-73552380D02*
X145528571Y-72552380D01*
X145623809Y-72695238D01*
X145719047Y-72790476D01*
X145814285Y-72838095D01*
X144623809Y-72552380D02*
X144528571Y-72552380D01*
X144433333Y-72600000D01*
X144385714Y-72647619D01*
X144338095Y-72742857D01*
X144290476Y-72933333D01*
X144290476Y-73171428D01*
X144338095Y-73361904D01*
X144385714Y-73457142D01*
X144433333Y-73504761D01*
X144528571Y-73552380D01*
X144623809Y-73552380D01*
X144719047Y-73504761D01*
X144766666Y-73457142D01*
X144814285Y-73361904D01*
X144861904Y-73171428D01*
X144861904Y-72933333D01*
X144814285Y-72742857D01*
X144766666Y-72647619D01*
X144719047Y-72600000D01*
X144623809Y-72552380D01*
X143861904Y-72885714D02*
X143861904Y-73885714D01*
X143385714Y-73409523D02*
X143338095Y-73504761D01*
X143242857Y-73552380D01*
X143861904Y-73409523D02*
X143814285Y-73504761D01*
X143719047Y-73552380D01*
X143528571Y-73552380D01*
X143433333Y-73504761D01*
X143385714Y-73409523D01*
X143385714Y-72885714D01*
X142480952Y-73028571D02*
X142814285Y-73028571D01*
X142814285Y-73552380D02*
X142814285Y-72552380D01*
X142338095Y-72552380D01*
D12*
X144233333Y-71535714D02*
X144271428Y-71573809D01*
X144385714Y-71611904D01*
X144461904Y-71611904D01*
X144576190Y-71573809D01*
X144652380Y-71497619D01*
X144690476Y-71421428D01*
X144728571Y-71269047D01*
X144728571Y-71154761D01*
X144690476Y-71002380D01*
X144652380Y-70926190D01*
X144576190Y-70850000D01*
X144461904Y-70811904D01*
X144385714Y-70811904D01*
X144271428Y-70850000D01*
X144233333Y-70888095D01*
X143928571Y-70888095D02*
X143890476Y-70850000D01*
X143814285Y-70811904D01*
X143623809Y-70811904D01*
X143547619Y-70850000D01*
X143509523Y-70888095D01*
X143471428Y-70964285D01*
X143471428Y-71040476D01*
X143509523Y-71154761D01*
X143966666Y-71611904D01*
X143471428Y-71611904D01*
D10*
%TO.C,R5*%
X150377380Y-65302380D02*
X150853571Y-65302380D01*
X150901190Y-65778571D01*
X150853571Y-65730952D01*
X150758333Y-65683333D01*
X150520238Y-65683333D01*
X150425000Y-65730952D01*
X150377380Y-65778571D01*
X150329761Y-65873809D01*
X150329761Y-66111904D01*
X150377380Y-66207142D01*
X150425000Y-66254761D01*
X150520238Y-66302380D01*
X150758333Y-66302380D01*
X150853571Y-66254761D01*
X150901190Y-66207142D01*
X149901190Y-66207142D02*
X149853571Y-66254761D01*
X149901190Y-66302380D01*
X149948809Y-66254761D01*
X149901190Y-66207142D01*
X149901190Y-66302380D01*
X148901190Y-66302380D02*
X149472619Y-66302380D01*
X149186904Y-66302380D02*
X149186904Y-65302380D01*
X149282142Y-65445238D01*
X149377380Y-65540476D01*
X149472619Y-65588095D01*
X148472619Y-66302380D02*
X148472619Y-65302380D01*
X148377380Y-65921428D02*
X148091666Y-66302380D01*
X148091666Y-65635714D02*
X148472619Y-66016666D01*
X147710714Y-66302380D02*
X147472619Y-66302380D01*
X147472619Y-66111904D01*
X147567857Y-66064285D01*
X147663095Y-65969047D01*
X147710714Y-65826190D01*
X147710714Y-65588095D01*
X147663095Y-65445238D01*
X147567857Y-65350000D01*
X147425000Y-65302380D01*
X147234523Y-65302380D01*
X147091666Y-65350000D01*
X146996428Y-65445238D01*
X146948809Y-65588095D01*
X146948809Y-65826190D01*
X146996428Y-65969047D01*
X147091666Y-66064285D01*
X147186904Y-66111904D01*
X147186904Y-66302380D01*
X146948809Y-66302380D01*
D13*
X149008333Y-64426190D02*
X149175000Y-64188095D01*
X149294047Y-64426190D02*
X149294047Y-63926190D01*
X149103571Y-63926190D01*
X149055952Y-63950000D01*
X149032142Y-63973809D01*
X149008333Y-64021428D01*
X149008333Y-64092857D01*
X149032142Y-64140476D01*
X149055952Y-64164285D01*
X149103571Y-64188095D01*
X149294047Y-64188095D01*
X148555952Y-63926190D02*
X148794047Y-63926190D01*
X148817857Y-64164285D01*
X148794047Y-64140476D01*
X148746428Y-64116666D01*
X148627380Y-64116666D01*
X148579761Y-64140476D01*
X148555952Y-64164285D01*
X148532142Y-64211904D01*
X148532142Y-64330952D01*
X148555952Y-64378571D01*
X148579761Y-64402380D01*
X148627380Y-64426190D01*
X148746428Y-64426190D01*
X148794047Y-64402380D01*
X148817857Y-64378571D01*
D10*
%TO.C,C17*%
X119655217Y-72609332D02*
X120226645Y-72609332D01*
X119940931Y-72609332D02*
X119940931Y-71609332D01*
X120036169Y-71752190D01*
X120131407Y-71847428D01*
X120226645Y-71895047D01*
X119036169Y-71609332D02*
X118940931Y-71609332D01*
X118845693Y-71656952D01*
X118798074Y-71704571D01*
X118750455Y-71799809D01*
X118702836Y-71990285D01*
X118702836Y-72228380D01*
X118750455Y-72418856D01*
X118798074Y-72514094D01*
X118845693Y-72561713D01*
X118940931Y-72609332D01*
X119036169Y-72609332D01*
X119131407Y-72561713D01*
X119179026Y-72514094D01*
X119226645Y-72418856D01*
X119274264Y-72228380D01*
X119274264Y-71990285D01*
X119226645Y-71799809D01*
X119179026Y-71704571D01*
X119131407Y-71656952D01*
X119036169Y-71609332D01*
X118083788Y-71609332D02*
X117988550Y-71609332D01*
X117893312Y-71656952D01*
X117845693Y-71704571D01*
X117798074Y-71799809D01*
X117750455Y-71990285D01*
X117750455Y-72228380D01*
X117798074Y-72418856D01*
X117845693Y-72514094D01*
X117893312Y-72561713D01*
X117988550Y-72609332D01*
X118083788Y-72609332D01*
X118179026Y-72561713D01*
X118226645Y-72514094D01*
X118274264Y-72418856D01*
X118321883Y-72228380D01*
X118321883Y-71990285D01*
X118274264Y-71799809D01*
X118226645Y-71704571D01*
X118179026Y-71656952D01*
X118083788Y-71609332D01*
X117321883Y-71942666D02*
X117321883Y-72609332D01*
X117321883Y-72037904D02*
X117274264Y-71990285D01*
X117179026Y-71942666D01*
X117036169Y-71942666D01*
X116940931Y-71990285D01*
X116893312Y-72085523D01*
X116893312Y-72609332D01*
X116083788Y-72085523D02*
X116417121Y-72085523D01*
X116417121Y-72609332D02*
X116417121Y-71609332D01*
X115940931Y-71609332D01*
D13*
X118429026Y-70655523D02*
X118452836Y-70679332D01*
X118524264Y-70703142D01*
X118571883Y-70703142D01*
X118643312Y-70679332D01*
X118690931Y-70631713D01*
X118714740Y-70584094D01*
X118738550Y-70488856D01*
X118738550Y-70417428D01*
X118714740Y-70322190D01*
X118690931Y-70274571D01*
X118643312Y-70226952D01*
X118571883Y-70203142D01*
X118524264Y-70203142D01*
X118452836Y-70226952D01*
X118429026Y-70250761D01*
X117952836Y-70703142D02*
X118238550Y-70703142D01*
X118095693Y-70703142D02*
X118095693Y-70203142D01*
X118143312Y-70274571D01*
X118190931Y-70322190D01*
X118238550Y-70345999D01*
X117786169Y-70203142D02*
X117452836Y-70203142D01*
X117667121Y-70703142D01*
D10*
%TO.C,C1*%
X146762380Y-86783333D02*
X146762380Y-86211904D01*
X146762380Y-86497619D02*
X145762380Y-86497619D01*
X145905238Y-86402380D01*
X146000476Y-86307142D01*
X146048095Y-86211904D01*
X146095714Y-87211904D02*
X147095714Y-87211904D01*
X146619523Y-87688095D02*
X146714761Y-87735714D01*
X146762380Y-87830952D01*
X146619523Y-87211904D02*
X146714761Y-87259523D01*
X146762380Y-87354761D01*
X146762380Y-87545238D01*
X146714761Y-87640476D01*
X146619523Y-87688095D01*
X146095714Y-87688095D01*
X146238571Y-88592857D02*
X146238571Y-88259523D01*
X146762380Y-88259523D02*
X145762380Y-88259523D01*
X145762380Y-88735714D01*
D13*
X148168571Y-87366666D02*
X148192380Y-87342857D01*
X148216190Y-87271428D01*
X148216190Y-87223809D01*
X148192380Y-87152380D01*
X148144761Y-87104761D01*
X148097142Y-87080952D01*
X148001904Y-87057142D01*
X147930476Y-87057142D01*
X147835238Y-87080952D01*
X147787619Y-87104761D01*
X147740000Y-87152380D01*
X147716190Y-87223809D01*
X147716190Y-87271428D01*
X147740000Y-87342857D01*
X147763809Y-87366666D01*
X148216190Y-87842857D02*
X148216190Y-87557142D01*
X148216190Y-87700000D02*
X147716190Y-87700000D01*
X147787619Y-87652380D01*
X147835238Y-87604761D01*
X147859047Y-87557142D01*
D10*
%TO.C,C10*%
X119655217Y-74872074D02*
X120226645Y-74872074D01*
X119940931Y-74872074D02*
X119940931Y-73872074D01*
X120036169Y-74014932D01*
X120131407Y-74110170D01*
X120226645Y-74157789D01*
X119036169Y-73872074D02*
X118940931Y-73872074D01*
X118845693Y-73919694D01*
X118798074Y-73967313D01*
X118750455Y-74062551D01*
X118702836Y-74253027D01*
X118702836Y-74491122D01*
X118750455Y-74681598D01*
X118798074Y-74776836D01*
X118845693Y-74824455D01*
X118940931Y-74872074D01*
X119036169Y-74872074D01*
X119131407Y-74824455D01*
X119179026Y-74776836D01*
X119226645Y-74681598D01*
X119274264Y-74491122D01*
X119274264Y-74253027D01*
X119226645Y-74062551D01*
X119179026Y-73967313D01*
X119131407Y-73919694D01*
X119036169Y-73872074D01*
X118083788Y-73872074D02*
X117988550Y-73872074D01*
X117893312Y-73919694D01*
X117845693Y-73967313D01*
X117798074Y-74062551D01*
X117750455Y-74253027D01*
X117750455Y-74491122D01*
X117798074Y-74681598D01*
X117845693Y-74776836D01*
X117893312Y-74824455D01*
X117988550Y-74872074D01*
X118083788Y-74872074D01*
X118179026Y-74824455D01*
X118226645Y-74776836D01*
X118274264Y-74681598D01*
X118321883Y-74491122D01*
X118321883Y-74253027D01*
X118274264Y-74062551D01*
X118226645Y-73967313D01*
X118179026Y-73919694D01*
X118083788Y-73872074D01*
X117321883Y-74205408D02*
X117321883Y-74872074D01*
X117321883Y-74300646D02*
X117274264Y-74253027D01*
X117179026Y-74205408D01*
X117036169Y-74205408D01*
X116940931Y-74253027D01*
X116893312Y-74348265D01*
X116893312Y-74872074D01*
X116083788Y-74348265D02*
X116417121Y-74348265D01*
X116417121Y-74872074D02*
X116417121Y-73872074D01*
X115940931Y-73872074D01*
D13*
X118429026Y-72918265D02*
X118452836Y-72942074D01*
X118524264Y-72965884D01*
X118571883Y-72965884D01*
X118643312Y-72942074D01*
X118690931Y-72894455D01*
X118714740Y-72846836D01*
X118738550Y-72751598D01*
X118738550Y-72680170D01*
X118714740Y-72584932D01*
X118690931Y-72537313D01*
X118643312Y-72489694D01*
X118571883Y-72465884D01*
X118524264Y-72465884D01*
X118452836Y-72489694D01*
X118429026Y-72513503D01*
X117952836Y-72965884D02*
X118238550Y-72965884D01*
X118095693Y-72965884D02*
X118095693Y-72465884D01*
X118143312Y-72537313D01*
X118190931Y-72584932D01*
X118238550Y-72608741D01*
X117643312Y-72465884D02*
X117595693Y-72465884D01*
X117548074Y-72489694D01*
X117524264Y-72513503D01*
X117500455Y-72561122D01*
X117476645Y-72656360D01*
X117476645Y-72775408D01*
X117500455Y-72870646D01*
X117524264Y-72918265D01*
X117548074Y-72942074D01*
X117595693Y-72965884D01*
X117643312Y-72965884D01*
X117690931Y-72942074D01*
X117714740Y-72918265D01*
X117738550Y-72870646D01*
X117762359Y-72775408D01*
X117762359Y-72656360D01*
X117738550Y-72561122D01*
X117714740Y-72513503D01*
X117690931Y-72489694D01*
X117643312Y-72465884D01*
D10*
%TO.C,U4*%
X120632380Y-72904761D02*
X120156190Y-72571428D01*
X120632380Y-72333333D02*
X119632380Y-72333333D01*
X119632380Y-72714285D01*
X119680000Y-72809523D01*
X119727619Y-72857142D01*
X119822857Y-72904761D01*
X119965714Y-72904761D01*
X120060952Y-72857142D01*
X120108571Y-72809523D01*
X120156190Y-72714285D01*
X120156190Y-72333333D01*
X120632380Y-73333333D02*
X119632380Y-73333333D01*
X119632380Y-73714285D01*
X119680000Y-73809523D01*
X119727619Y-73857142D01*
X119822857Y-73904761D01*
X119965714Y-73904761D01*
X120060952Y-73857142D01*
X120108571Y-73809523D01*
X120156190Y-73714285D01*
X120156190Y-73333333D01*
X119727619Y-74285714D02*
X119680000Y-74333333D01*
X119632380Y-74428571D01*
X119632380Y-74666666D01*
X119680000Y-74761904D01*
X119727619Y-74809523D01*
X119822857Y-74857142D01*
X119918095Y-74857142D01*
X120060952Y-74809523D01*
X120632380Y-74238095D01*
X120632380Y-74857142D01*
X119632380Y-75476190D02*
X119632380Y-75571428D01*
X119680000Y-75666666D01*
X119727619Y-75714285D01*
X119822857Y-75761904D01*
X120013333Y-75809523D01*
X120251428Y-75809523D01*
X120441904Y-75761904D01*
X120537142Y-75714285D01*
X120584761Y-75666666D01*
X120632380Y-75571428D01*
X120632380Y-75476190D01*
X120584761Y-75380952D01*
X120537142Y-75333333D01*
X120441904Y-75285714D01*
X120251428Y-75238095D01*
X120013333Y-75238095D01*
X119822857Y-75285714D01*
X119727619Y-75333333D01*
X119680000Y-75380952D01*
X119632380Y-75476190D01*
X119965714Y-76666666D02*
X120632380Y-76666666D01*
X119584761Y-76428571D02*
X120299047Y-76190476D01*
X120299047Y-76809523D01*
X119632380Y-77380952D02*
X119632380Y-77476190D01*
X119680000Y-77571428D01*
X119727619Y-77619047D01*
X119822857Y-77666666D01*
X120013333Y-77714285D01*
X120251428Y-77714285D01*
X120441904Y-77666666D01*
X120537142Y-77619047D01*
X120584761Y-77571428D01*
X120632380Y-77476190D01*
X120632380Y-77380952D01*
X120584761Y-77285714D01*
X120537142Y-77238095D01*
X120441904Y-77190476D01*
X120251428Y-77142857D01*
X120013333Y-77142857D01*
X119822857Y-77190476D01*
X119727619Y-77238095D01*
X119680000Y-77285714D01*
X119632380Y-77380952D01*
X124452380Y-74238095D02*
X125261904Y-74238095D01*
X125357142Y-74285714D01*
X125404761Y-74333333D01*
X125452380Y-74428571D01*
X125452380Y-74619047D01*
X125404761Y-74714285D01*
X125357142Y-74761904D01*
X125261904Y-74809523D01*
X124452380Y-74809523D01*
X124785714Y-75714285D02*
X125452380Y-75714285D01*
X124404761Y-75476190D02*
X125119047Y-75238095D01*
X125119047Y-75857142D01*
%TO.C,J1*%
X154172619Y-53417142D02*
X154220238Y-53464761D01*
X154363095Y-53512380D01*
X154458333Y-53512380D01*
X154601190Y-53464761D01*
X154696428Y-53369523D01*
X154744047Y-53274285D01*
X154791666Y-53083809D01*
X154791666Y-52940952D01*
X154744047Y-52750476D01*
X154696428Y-52655238D01*
X154601190Y-52560000D01*
X154458333Y-52512380D01*
X154363095Y-52512380D01*
X154220238Y-52560000D01*
X154172619Y-52607619D01*
X153220238Y-53512380D02*
X153791666Y-53512380D01*
X153505952Y-53512380D02*
X153505952Y-52512380D01*
X153601190Y-52655238D01*
X153696428Y-52750476D01*
X153791666Y-52798095D01*
X152267857Y-53512380D02*
X152839285Y-53512380D01*
X152553571Y-53512380D02*
X152553571Y-52512380D01*
X152648809Y-52655238D01*
X152744047Y-52750476D01*
X152839285Y-52798095D01*
X151410714Y-52512380D02*
X151601190Y-52512380D01*
X151696428Y-52560000D01*
X151744047Y-52607619D01*
X151839285Y-52750476D01*
X151886904Y-52940952D01*
X151886904Y-53321904D01*
X151839285Y-53417142D01*
X151791666Y-53464761D01*
X151696428Y-53512380D01*
X151505952Y-53512380D01*
X151410714Y-53464761D01*
X151363095Y-53417142D01*
X151315476Y-53321904D01*
X151315476Y-53083809D01*
X151363095Y-52988571D01*
X151410714Y-52940952D01*
X151505952Y-52893333D01*
X151696428Y-52893333D01*
X151791666Y-52940952D01*
X151839285Y-52988571D01*
X151886904Y-53083809D01*
X150363095Y-53512380D02*
X150934523Y-53512380D01*
X150648809Y-53512380D02*
X150648809Y-52512380D01*
X150744047Y-52655238D01*
X150839285Y-52750476D01*
X150934523Y-52798095D01*
X149458333Y-52512380D02*
X149934523Y-52512380D01*
X149982142Y-52988571D01*
X149934523Y-52940952D01*
X149839285Y-52893333D01*
X149601190Y-52893333D01*
X149505952Y-52940952D01*
X149458333Y-52988571D01*
X149410714Y-53083809D01*
X149410714Y-53321904D01*
X149458333Y-53417142D01*
X149505952Y-53464761D01*
X149601190Y-53512380D01*
X149839285Y-53512380D01*
X149934523Y-53464761D01*
X149982142Y-53417142D01*
X148934523Y-53512380D02*
X148744047Y-53512380D01*
X148648809Y-53464761D01*
X148601190Y-53417142D01*
X148505952Y-53274285D01*
X148458333Y-53083809D01*
X148458333Y-52702857D01*
X148505952Y-52607619D01*
X148553571Y-52560000D01*
X148648809Y-52512380D01*
X148839285Y-52512380D01*
X148934523Y-52560000D01*
X148982142Y-52607619D01*
X149029761Y-52702857D01*
X149029761Y-52940952D01*
X148982142Y-53036190D01*
X148934523Y-53083809D01*
X148839285Y-53131428D01*
X148648809Y-53131428D01*
X148553571Y-53083809D01*
X148505952Y-53036190D01*
X148458333Y-52940952D01*
X151958333Y-57572380D02*
X151958333Y-58286666D01*
X152005952Y-58429523D01*
X152101190Y-58524761D01*
X152244047Y-58572380D01*
X152339285Y-58572380D01*
X150958333Y-58572380D02*
X151529761Y-58572380D01*
X151244047Y-58572380D02*
X151244047Y-57572380D01*
X151339285Y-57715238D01*
X151434523Y-57810476D01*
X151529761Y-57858095D01*
%TO.C,F1*%
X156847619Y-70427142D02*
X156895238Y-70474761D01*
X157038095Y-70522380D01*
X157133333Y-70522380D01*
X157276190Y-70474761D01*
X157371428Y-70379523D01*
X157419047Y-70284285D01*
X157466666Y-70093809D01*
X157466666Y-69950952D01*
X157419047Y-69760476D01*
X157371428Y-69665238D01*
X157276190Y-69570000D01*
X157133333Y-69522380D01*
X157038095Y-69522380D01*
X156895238Y-69570000D01*
X156847619Y-69617619D01*
X156466666Y-69617619D02*
X156419047Y-69570000D01*
X156323809Y-69522380D01*
X156085714Y-69522380D01*
X155990476Y-69570000D01*
X155942857Y-69617619D01*
X155895238Y-69712857D01*
X155895238Y-69808095D01*
X155942857Y-69950952D01*
X156514285Y-70522380D01*
X155895238Y-70522380D01*
X155038095Y-69522380D02*
X155228571Y-69522380D01*
X155323809Y-69570000D01*
X155371428Y-69617619D01*
X155466666Y-69760476D01*
X155514285Y-69950952D01*
X155514285Y-70331904D01*
X155466666Y-70427142D01*
X155419047Y-70474761D01*
X155323809Y-70522380D01*
X155133333Y-70522380D01*
X155038095Y-70474761D01*
X154990476Y-70427142D01*
X154942857Y-70331904D01*
X154942857Y-70093809D01*
X154990476Y-69998571D01*
X155038095Y-69950952D01*
X155133333Y-69903333D01*
X155323809Y-69903333D01*
X155419047Y-69950952D01*
X155466666Y-69998571D01*
X155514285Y-70093809D01*
X153990476Y-70522380D02*
X154561904Y-70522380D01*
X154276190Y-70522380D02*
X154276190Y-69522380D01*
X154371428Y-69665238D01*
X154466666Y-69760476D01*
X154561904Y-69808095D01*
X153514285Y-70522380D02*
X153323809Y-70522380D01*
X153228571Y-70474761D01*
X153180952Y-70427142D01*
X153085714Y-70284285D01*
X153038095Y-70093809D01*
X153038095Y-69712857D01*
X153085714Y-69617619D01*
X153133333Y-69570000D01*
X153228571Y-69522380D01*
X153419047Y-69522380D01*
X153514285Y-69570000D01*
X153561904Y-69617619D01*
X153609523Y-69712857D01*
X153609523Y-69950952D01*
X153561904Y-70046190D01*
X153514285Y-70093809D01*
X153419047Y-70141428D01*
X153228571Y-70141428D01*
X153133333Y-70093809D01*
X153085714Y-70046190D01*
X153038095Y-69950952D01*
X152133333Y-69522380D02*
X152609523Y-69522380D01*
X152657142Y-69998571D01*
X152609523Y-69950952D01*
X152514285Y-69903333D01*
X152276190Y-69903333D01*
X152180952Y-69950952D01*
X152133333Y-69998571D01*
X152085714Y-70093809D01*
X152085714Y-70331904D01*
X152133333Y-70427142D01*
X152180952Y-70474761D01*
X152276190Y-70522380D01*
X152514285Y-70522380D01*
X152609523Y-70474761D01*
X152657142Y-70427142D01*
X151752380Y-69522380D02*
X151133333Y-69522380D01*
X151466666Y-69903333D01*
X151323809Y-69903333D01*
X151228571Y-69950952D01*
X151180952Y-69998571D01*
X151133333Y-70093809D01*
X151133333Y-70331904D01*
X151180952Y-70427142D01*
X151228571Y-70474761D01*
X151323809Y-70522380D01*
X151609523Y-70522380D01*
X151704761Y-70474761D01*
X151752380Y-70427142D01*
D12*
X154566666Y-68192857D02*
X154833333Y-68192857D01*
X154833333Y-68611904D02*
X154833333Y-67811904D01*
X154452380Y-67811904D01*
X153728571Y-68611904D02*
X154185714Y-68611904D01*
X153957142Y-68611904D02*
X153957142Y-67811904D01*
X154033333Y-67926190D01*
X154109523Y-68002380D01*
X154185714Y-68040476D01*
D10*
%TO.C,R1*%
X155742380Y-62002380D02*
X156218571Y-62002380D01*
X156266190Y-62478571D01*
X156218571Y-62430952D01*
X156123333Y-62383333D01*
X155885238Y-62383333D01*
X155790000Y-62430952D01*
X155742380Y-62478571D01*
X155694761Y-62573809D01*
X155694761Y-62811904D01*
X155742380Y-62907142D01*
X155790000Y-62954761D01*
X155885238Y-63002380D01*
X156123333Y-63002380D01*
X156218571Y-62954761D01*
X156266190Y-62907142D01*
X155266190Y-62907142D02*
X155218571Y-62954761D01*
X155266190Y-63002380D01*
X155313809Y-62954761D01*
X155266190Y-62907142D01*
X155266190Y-63002380D01*
X154266190Y-63002380D02*
X154837619Y-63002380D01*
X154551904Y-63002380D02*
X154551904Y-62002380D01*
X154647142Y-62145238D01*
X154742380Y-62240476D01*
X154837619Y-62288095D01*
X153837619Y-63002380D02*
X153837619Y-62002380D01*
X153742380Y-62621428D02*
X153456666Y-63002380D01*
X153456666Y-62335714D02*
X153837619Y-62716666D01*
X153075714Y-63002380D02*
X152837619Y-63002380D01*
X152837619Y-62811904D01*
X152932857Y-62764285D01*
X153028095Y-62669047D01*
X153075714Y-62526190D01*
X153075714Y-62288095D01*
X153028095Y-62145238D01*
X152932857Y-62050000D01*
X152790000Y-62002380D01*
X152599523Y-62002380D01*
X152456666Y-62050000D01*
X152361428Y-62145238D01*
X152313809Y-62288095D01*
X152313809Y-62526190D01*
X152361428Y-62669047D01*
X152456666Y-62764285D01*
X152551904Y-62811904D01*
X152551904Y-63002380D01*
X152313809Y-63002380D01*
D13*
X154373333Y-64426190D02*
X154540000Y-64188095D01*
X154659047Y-64426190D02*
X154659047Y-63926190D01*
X154468571Y-63926190D01*
X154420952Y-63950000D01*
X154397142Y-63973809D01*
X154373333Y-64021428D01*
X154373333Y-64092857D01*
X154397142Y-64140476D01*
X154420952Y-64164285D01*
X154468571Y-64188095D01*
X154659047Y-64188095D01*
X153897142Y-64426190D02*
X154182857Y-64426190D01*
X154040000Y-64426190D02*
X154040000Y-63926190D01*
X154087619Y-63997619D01*
X154135238Y-64045238D01*
X154182857Y-64069047D01*
D10*
%TO.C,C12*%
X124172380Y-66552380D02*
X124172380Y-65980952D01*
X124172380Y-66266666D02*
X123172380Y-66266666D01*
X123315238Y-66171428D01*
X123410476Y-66076190D01*
X123458095Y-65980952D01*
X123172380Y-67171428D02*
X123172380Y-67266666D01*
X123220000Y-67361904D01*
X123267619Y-67409523D01*
X123362857Y-67457142D01*
X123553333Y-67504761D01*
X123791428Y-67504761D01*
X123981904Y-67457142D01*
X124077142Y-67409523D01*
X124124761Y-67361904D01*
X124172380Y-67266666D01*
X124172380Y-67171428D01*
X124124761Y-67076190D01*
X124077142Y-67028571D01*
X123981904Y-66980952D01*
X123791428Y-66933333D01*
X123553333Y-66933333D01*
X123362857Y-66980952D01*
X123267619Y-67028571D01*
X123220000Y-67076190D01*
X123172380Y-67171428D01*
X123172380Y-68123809D02*
X123172380Y-68219047D01*
X123220000Y-68314285D01*
X123267619Y-68361904D01*
X123362857Y-68409523D01*
X123553333Y-68457142D01*
X123791428Y-68457142D01*
X123981904Y-68409523D01*
X124077142Y-68361904D01*
X124124761Y-68314285D01*
X124172380Y-68219047D01*
X124172380Y-68123809D01*
X124124761Y-68028571D01*
X124077142Y-67980952D01*
X123981904Y-67933333D01*
X123791428Y-67885714D01*
X123553333Y-67885714D01*
X123362857Y-67933333D01*
X123267619Y-67980952D01*
X123220000Y-68028571D01*
X123172380Y-68123809D01*
X123505714Y-68885714D02*
X124172380Y-68885714D01*
X123600952Y-68885714D02*
X123553333Y-68933333D01*
X123505714Y-69028571D01*
X123505714Y-69171428D01*
X123553333Y-69266666D01*
X123648571Y-69314285D01*
X124172380Y-69314285D01*
X123648571Y-70123809D02*
X123648571Y-69790476D01*
X124172380Y-69790476D02*
X123172380Y-69790476D01*
X123172380Y-70266666D01*
D13*
X125578571Y-67778571D02*
X125602380Y-67754761D01*
X125626190Y-67683333D01*
X125626190Y-67635714D01*
X125602380Y-67564285D01*
X125554761Y-67516666D01*
X125507142Y-67492857D01*
X125411904Y-67469047D01*
X125340476Y-67469047D01*
X125245238Y-67492857D01*
X125197619Y-67516666D01*
X125150000Y-67564285D01*
X125126190Y-67635714D01*
X125126190Y-67683333D01*
X125150000Y-67754761D01*
X125173809Y-67778571D01*
X125626190Y-68254761D02*
X125626190Y-67969047D01*
X125626190Y-68111904D02*
X125126190Y-68111904D01*
X125197619Y-68064285D01*
X125245238Y-68016666D01*
X125269047Y-67969047D01*
X125173809Y-68445238D02*
X125150000Y-68469047D01*
X125126190Y-68516666D01*
X125126190Y-68635714D01*
X125150000Y-68683333D01*
X125173809Y-68707142D01*
X125221428Y-68730952D01*
X125269047Y-68730952D01*
X125340476Y-68707142D01*
X125626190Y-68421428D01*
X125626190Y-68730952D01*
D10*
%TO.C,C13*%
X129892383Y-80382065D02*
X129892383Y-79810637D01*
X129892383Y-80096351D02*
X128892383Y-80096351D01*
X129035241Y-80001113D01*
X129130479Y-79905875D01*
X129178098Y-79810637D01*
X128892383Y-81001113D02*
X128892383Y-81096351D01*
X128940003Y-81191589D01*
X128987622Y-81239208D01*
X129082860Y-81286827D01*
X129273336Y-81334446D01*
X129511431Y-81334446D01*
X129701907Y-81286827D01*
X129797145Y-81239208D01*
X129844764Y-81191589D01*
X129892383Y-81096351D01*
X129892383Y-81001113D01*
X129844764Y-80905875D01*
X129797145Y-80858256D01*
X129701907Y-80810637D01*
X129511431Y-80763018D01*
X129273336Y-80763018D01*
X129082860Y-80810637D01*
X128987622Y-80858256D01*
X128940003Y-80905875D01*
X128892383Y-81001113D01*
X128892383Y-81953494D02*
X128892383Y-82048732D01*
X128940003Y-82143970D01*
X128987622Y-82191589D01*
X129082860Y-82239208D01*
X129273336Y-82286827D01*
X129511431Y-82286827D01*
X129701907Y-82239208D01*
X129797145Y-82191589D01*
X129844764Y-82143970D01*
X129892383Y-82048732D01*
X129892383Y-81953494D01*
X129844764Y-81858256D01*
X129797145Y-81810637D01*
X129701907Y-81763018D01*
X129511431Y-81715399D01*
X129273336Y-81715399D01*
X129082860Y-81763018D01*
X128987622Y-81810637D01*
X128940003Y-81858256D01*
X128892383Y-81953494D01*
X129225717Y-82715399D02*
X129892383Y-82715399D01*
X129320955Y-82715399D02*
X129273336Y-82763018D01*
X129225717Y-82858256D01*
X129225717Y-83001113D01*
X129273336Y-83096351D01*
X129368574Y-83143970D01*
X129892383Y-83143970D01*
X129368574Y-83953494D02*
X129368574Y-83620161D01*
X129892383Y-83620161D02*
X128892383Y-83620161D01*
X128892383Y-84096351D01*
D13*
X127938574Y-81608256D02*
X127962383Y-81584446D01*
X127986193Y-81513018D01*
X127986193Y-81465399D01*
X127962383Y-81393970D01*
X127914764Y-81346351D01*
X127867145Y-81322542D01*
X127771907Y-81298732D01*
X127700479Y-81298732D01*
X127605241Y-81322542D01*
X127557622Y-81346351D01*
X127510003Y-81393970D01*
X127486193Y-81465399D01*
X127486193Y-81513018D01*
X127510003Y-81584446D01*
X127533812Y-81608256D01*
X127986193Y-82084446D02*
X127986193Y-81798732D01*
X127986193Y-81941589D02*
X127486193Y-81941589D01*
X127557622Y-81893970D01*
X127605241Y-81846351D01*
X127629050Y-81798732D01*
X127486193Y-82251113D02*
X127486193Y-82560637D01*
X127676669Y-82393970D01*
X127676669Y-82465399D01*
X127700479Y-82513018D01*
X127724288Y-82536827D01*
X127771907Y-82560637D01*
X127890955Y-82560637D01*
X127938574Y-82536827D01*
X127962383Y-82513018D01*
X127986193Y-82465399D01*
X127986193Y-82322542D01*
X127962383Y-82274923D01*
X127938574Y-82251113D01*
D10*
%TO.C,C16*%
X123492669Y-80384462D02*
X123492669Y-79813034D01*
X123492669Y-80098748D02*
X122492669Y-80098748D01*
X122635527Y-80003510D01*
X122730765Y-79908272D01*
X122778384Y-79813034D01*
X122492669Y-81003510D02*
X122492669Y-81098748D01*
X122540289Y-81193986D01*
X122587908Y-81241605D01*
X122683146Y-81289224D01*
X122873622Y-81336843D01*
X123111717Y-81336843D01*
X123302193Y-81289224D01*
X123397431Y-81241605D01*
X123445050Y-81193986D01*
X123492669Y-81098748D01*
X123492669Y-81003510D01*
X123445050Y-80908272D01*
X123397431Y-80860653D01*
X123302193Y-80813034D01*
X123111717Y-80765415D01*
X122873622Y-80765415D01*
X122683146Y-80813034D01*
X122587908Y-80860653D01*
X122540289Y-80908272D01*
X122492669Y-81003510D01*
X122492669Y-81955891D02*
X122492669Y-82051129D01*
X122540289Y-82146367D01*
X122587908Y-82193986D01*
X122683146Y-82241605D01*
X122873622Y-82289224D01*
X123111717Y-82289224D01*
X123302193Y-82241605D01*
X123397431Y-82193986D01*
X123445050Y-82146367D01*
X123492669Y-82051129D01*
X123492669Y-81955891D01*
X123445050Y-81860653D01*
X123397431Y-81813034D01*
X123302193Y-81765415D01*
X123111717Y-81717796D01*
X122873622Y-81717796D01*
X122683146Y-81765415D01*
X122587908Y-81813034D01*
X122540289Y-81860653D01*
X122492669Y-81955891D01*
X122826003Y-82717796D02*
X123492669Y-82717796D01*
X122921241Y-82717796D02*
X122873622Y-82765415D01*
X122826003Y-82860653D01*
X122826003Y-83003510D01*
X122873622Y-83098748D01*
X122968860Y-83146367D01*
X123492669Y-83146367D01*
X122968860Y-83955891D02*
X122968860Y-83622558D01*
X123492669Y-83622558D02*
X122492669Y-83622558D01*
X122492669Y-84098748D01*
D13*
X121538860Y-81610653D02*
X121562669Y-81586843D01*
X121586479Y-81515415D01*
X121586479Y-81467796D01*
X121562669Y-81396367D01*
X121515050Y-81348748D01*
X121467431Y-81324939D01*
X121372193Y-81301129D01*
X121300765Y-81301129D01*
X121205527Y-81324939D01*
X121157908Y-81348748D01*
X121110289Y-81396367D01*
X121086479Y-81467796D01*
X121086479Y-81515415D01*
X121110289Y-81586843D01*
X121134098Y-81610653D01*
X121586479Y-82086843D02*
X121586479Y-81801129D01*
X121586479Y-81943986D02*
X121086479Y-81943986D01*
X121157908Y-81896367D01*
X121205527Y-81848748D01*
X121229336Y-81801129D01*
X121086479Y-82515415D02*
X121086479Y-82420177D01*
X121110289Y-82372558D01*
X121134098Y-82348748D01*
X121205527Y-82301129D01*
X121300765Y-82277320D01*
X121491241Y-82277320D01*
X121538860Y-82301129D01*
X121562669Y-82324939D01*
X121586479Y-82372558D01*
X121586479Y-82467796D01*
X121562669Y-82515415D01*
X121538860Y-82539224D01*
X121491241Y-82563034D01*
X121372193Y-82563034D01*
X121324574Y-82539224D01*
X121300765Y-82515415D01*
X121276955Y-82467796D01*
X121276955Y-82372558D01*
X121300765Y-82324939D01*
X121324574Y-82301129D01*
X121372193Y-82277320D01*
D10*
%TO.C,C4*%
X126272380Y-67433333D02*
X126272380Y-66861904D01*
X126272380Y-67147619D02*
X125272380Y-67147619D01*
X125415238Y-67052380D01*
X125510476Y-66957142D01*
X125558095Y-66861904D01*
X125605714Y-67861904D02*
X126605714Y-67861904D01*
X126129523Y-68338095D02*
X126224761Y-68385714D01*
X126272380Y-68480952D01*
X126129523Y-67861904D02*
X126224761Y-67909523D01*
X126272380Y-68004761D01*
X126272380Y-68195238D01*
X126224761Y-68290476D01*
X126129523Y-68338095D01*
X125605714Y-68338095D01*
X125748571Y-69242857D02*
X125748571Y-68909523D01*
X126272380Y-68909523D02*
X125272380Y-68909523D01*
X125272380Y-69385714D01*
D13*
X127678571Y-68016666D02*
X127702380Y-67992857D01*
X127726190Y-67921428D01*
X127726190Y-67873809D01*
X127702380Y-67802380D01*
X127654761Y-67754761D01*
X127607142Y-67730952D01*
X127511904Y-67707142D01*
X127440476Y-67707142D01*
X127345238Y-67730952D01*
X127297619Y-67754761D01*
X127250000Y-67802380D01*
X127226190Y-67873809D01*
X127226190Y-67921428D01*
X127250000Y-67992857D01*
X127273809Y-68016666D01*
X127392857Y-68445238D02*
X127726190Y-68445238D01*
X127202380Y-68326190D02*
X127559523Y-68207142D01*
X127559523Y-68516666D01*
D10*
%TO.C,C8*%
X128372380Y-67433333D02*
X128372380Y-66861904D01*
X128372380Y-67147619D02*
X127372380Y-67147619D01*
X127515238Y-67052380D01*
X127610476Y-66957142D01*
X127658095Y-66861904D01*
X127705714Y-67861904D02*
X128705714Y-67861904D01*
X128229523Y-68338095D02*
X128324761Y-68385714D01*
X128372380Y-68480952D01*
X128229523Y-67861904D02*
X128324761Y-67909523D01*
X128372380Y-68004761D01*
X128372380Y-68195238D01*
X128324761Y-68290476D01*
X128229523Y-68338095D01*
X127705714Y-68338095D01*
X127848571Y-69242857D02*
X127848571Y-68909523D01*
X128372380Y-68909523D02*
X127372380Y-68909523D01*
X127372380Y-69385714D01*
D13*
X129778571Y-68016666D02*
X129802380Y-67992857D01*
X129826190Y-67921428D01*
X129826190Y-67873809D01*
X129802380Y-67802380D01*
X129754761Y-67754761D01*
X129707142Y-67730952D01*
X129611904Y-67707142D01*
X129540476Y-67707142D01*
X129445238Y-67730952D01*
X129397619Y-67754761D01*
X129350000Y-67802380D01*
X129326190Y-67873809D01*
X129326190Y-67921428D01*
X129350000Y-67992857D01*
X129373809Y-68016666D01*
X129540476Y-68302380D02*
X129516666Y-68254761D01*
X129492857Y-68230952D01*
X129445238Y-68207142D01*
X129421428Y-68207142D01*
X129373809Y-68230952D01*
X129350000Y-68254761D01*
X129326190Y-68302380D01*
X129326190Y-68397619D01*
X129350000Y-68445238D01*
X129373809Y-68469047D01*
X129421428Y-68492857D01*
X129445238Y-68492857D01*
X129492857Y-68469047D01*
X129516666Y-68445238D01*
X129540476Y-68397619D01*
X129540476Y-68302380D01*
X129564285Y-68254761D01*
X129588095Y-68230952D01*
X129635714Y-68207142D01*
X129730952Y-68207142D01*
X129778571Y-68230952D01*
X129802380Y-68254761D01*
X129826190Y-68302380D01*
X129826190Y-68397619D01*
X129802380Y-68445238D01*
X129778571Y-68469047D01*
X129730952Y-68492857D01*
X129635714Y-68492857D01*
X129588095Y-68469047D01*
X129564285Y-68445238D01*
X129540476Y-68397619D01*
D15*
%TO.C,R3*%
X132350000Y-73837500D02*
X130750000Y-73837500D01*
X130750000Y-74662500D02*
X132350000Y-74662500D01*
X132350000Y-74662500D02*
X132350000Y-73837500D01*
X130750000Y-73837500D02*
X130750000Y-74662500D01*
%TO.C,U1*%
X149200000Y-75800000D02*
X149200000Y-70100000D01*
X149200000Y-70100000D02*
X152900000Y-70100000D01*
X152900000Y-76800000D02*
X152900000Y-70100000D01*
X150200000Y-76800000D02*
X152900000Y-76800000D01*
X149200000Y-75800000D02*
X150200000Y-76800000D01*
%TO.C,R2*%
X132350000Y-72237500D02*
X130750000Y-72237500D01*
X132350000Y-73062500D02*
X132350000Y-72237500D01*
X130750000Y-73062500D02*
X132350000Y-73062500D01*
X130750000Y-72237500D02*
X130750000Y-73062500D01*
%TO.C,C7*%
X135875000Y-76000000D02*
X135875000Y-78000000D01*
X137125000Y-76000000D02*
X135875000Y-76000000D01*
X137125000Y-78000000D02*
X137125000Y-76000000D01*
X135875000Y-78000000D02*
X137125000Y-78000000D01*
%TO.C,U3*%
X129545001Y-77417167D02*
X129545001Y-82647167D01*
X133775001Y-82647167D02*
X134775001Y-81647167D01*
X134775001Y-77417167D02*
X129545001Y-77417167D01*
X129545001Y-82647167D02*
X133775001Y-82647167D01*
X134775001Y-81647167D02*
X134775001Y-77417167D01*
%TO.C,C14*%
X122715188Y-80932082D02*
X122715188Y-82932082D01*
X123965188Y-80932082D02*
X122715188Y-80932082D01*
X123965188Y-82932082D02*
X123965188Y-80932082D01*
X122715188Y-82932082D02*
X123965188Y-82932082D01*
%TO.C,C18*%
X124695087Y-80932082D02*
X124695087Y-82932082D01*
X125945087Y-80932082D02*
X124695087Y-80932082D01*
X125945087Y-82932082D02*
X125945087Y-80932082D01*
X124695087Y-82932082D02*
X125945087Y-82932082D01*
%TO.C,LED1*%
X155325000Y-84325000D02*
X155325000Y-89325000D01*
X155325000Y-89325000D02*
X150325000Y-89325000D01*
X155325000Y-85325000D02*
X154325000Y-84325000D01*
X150325000Y-89325000D02*
X150325000Y-84325000D01*
X150325000Y-84325000D02*
X155325000Y-84325000D01*
X154825000Y-86825000D02*
G75*
G03*
X154825000Y-86825000I-2000000J0D01*
G01*
%TO.C,C11*%
X122675000Y-69100000D02*
X123925000Y-69100000D01*
X123925000Y-67100000D02*
X122675000Y-67100000D01*
X122675000Y-67100000D02*
X122675000Y-69100000D01*
X123925000Y-69100000D02*
X123925000Y-67100000D01*
%TO.C,C15*%
X120575000Y-69100000D02*
X121825000Y-69100000D01*
X120575000Y-67100000D02*
X120575000Y-69100000D01*
X121825000Y-67100000D02*
X120575000Y-67100000D01*
X121825000Y-69100000D02*
X121825000Y-67100000D01*
%TO.C,C6*%
X119100000Y-75465000D02*
X119100000Y-74215000D01*
X117100000Y-75465000D02*
X119100000Y-75465000D01*
X119100000Y-74215000D02*
X117100000Y-74215000D01*
X117100000Y-74215000D02*
X117100000Y-75465000D01*
%TO.C,Y1*%
X119566177Y-76439441D02*
X119566177Y-78939441D01*
X119566177Y-77939441D02*
X118566177Y-78939441D01*
X116366177Y-78939441D02*
X116366177Y-76439441D01*
X116366177Y-76439441D02*
X119566177Y-76439441D01*
X119566177Y-78939441D02*
X116366177Y-78939441D01*
%TO.C,C5*%
X117100000Y-79975000D02*
X117100000Y-81225000D01*
X117100000Y-81225000D02*
X119100000Y-81225000D01*
X119100000Y-81225000D02*
X119100000Y-79975000D01*
X119100000Y-79975000D02*
X117100000Y-79975000D01*
%TO.C,C9*%
X130760003Y-70307167D02*
X130760003Y-71557167D01*
X132760003Y-71557167D02*
X132760003Y-70307167D01*
X132760003Y-70307167D02*
X130760003Y-70307167D01*
X130760003Y-71557167D02*
X132760003Y-71557167D01*
%TO.C,R6*%
X137125000Y-80000000D02*
X135875000Y-80000000D01*
X135875000Y-80000000D02*
X135875000Y-82000000D01*
X137125000Y-82000000D02*
X137125000Y-80000000D01*
X135875000Y-82000000D02*
X137125000Y-82000000D01*
%TO.C,C3*%
X142500000Y-74350000D02*
X145700000Y-74350000D01*
X145700000Y-74350000D02*
X145700000Y-72750000D01*
X145700000Y-72750000D02*
X142500000Y-72750000D01*
X142500000Y-72750000D02*
X142500000Y-74350000D01*
%TO.C,C2*%
X145700000Y-72050000D02*
X145700000Y-70450000D01*
X142500000Y-70450000D02*
X142500000Y-72050000D01*
X142500000Y-72050000D02*
X145700000Y-72050000D01*
X145700000Y-70450000D02*
X142500000Y-70450000D01*
%TO.C,R5*%
X149925000Y-63575000D02*
X147925000Y-63575000D01*
X147925000Y-63575000D02*
X147925000Y-64825000D01*
X149925000Y-64825000D02*
X149925000Y-63575000D01*
X147925000Y-64825000D02*
X149925000Y-64825000D01*
%TO.C,C17*%
X119107598Y-71101952D02*
X119107598Y-69851952D01*
X117107598Y-71101952D02*
X119107598Y-71101952D01*
X117107598Y-69851952D02*
X117107598Y-71101952D01*
X119107598Y-69851952D02*
X117107598Y-69851952D01*
%TO.C,C1*%
X148615000Y-88450000D02*
X148615000Y-86450000D01*
X148615000Y-86450000D02*
X147365000Y-86450000D01*
X147365000Y-86450000D02*
X147365000Y-88450000D01*
X147365000Y-88450000D02*
X148615000Y-88450000D01*
%TO.C,C10*%
X117107598Y-72114694D02*
X117107598Y-73364694D01*
X119107598Y-73364694D02*
X119107598Y-72114694D01*
X117107598Y-73364694D02*
X119107598Y-73364694D01*
X119107598Y-72114694D02*
X117107598Y-72114694D01*
%TO.C,U4*%
X121500000Y-71500000D02*
X121500000Y-78500000D01*
X128500000Y-77500000D02*
X128500000Y-71500000D01*
X121500000Y-78500000D02*
X127500000Y-78500000D01*
X128500000Y-71500000D02*
X121500000Y-71500000D01*
X127500000Y-78500000D02*
X128500000Y-77500000D01*
%TO.C,J1*%
X147155000Y-61780000D02*
X156095000Y-61780000D01*
X156095000Y-61780000D02*
X156095000Y-54460000D01*
X147155000Y-61780000D02*
X147155000Y-54460000D01*
X156095000Y-54460000D02*
X147155000Y-54460000D01*
%TO.C,F1*%
X155900000Y-69050000D02*
X155900000Y-67450000D01*
X152700000Y-69050000D02*
X155900000Y-69050000D01*
X155900000Y-67450000D02*
X152700000Y-67450000D01*
X152700000Y-67450000D02*
X152700000Y-69050000D01*
%TO.C,R1*%
X153290000Y-64825000D02*
X155290000Y-64825000D01*
X155290000Y-64825000D02*
X155290000Y-63575000D01*
X153290000Y-63575000D02*
X153290000Y-64825000D01*
X155290000Y-63575000D02*
X153290000Y-63575000D01*
%TO.C,C12*%
X126025000Y-67100000D02*
X124775000Y-67100000D01*
X126025000Y-69100000D02*
X126025000Y-67100000D01*
X124775000Y-69100000D02*
X126025000Y-69100000D01*
X124775000Y-67100000D02*
X124775000Y-69100000D01*
%TO.C,C13*%
X127135003Y-80929685D02*
X127135003Y-82929685D01*
X128385003Y-80929685D02*
X127135003Y-80929685D01*
X127135003Y-82929685D02*
X128385003Y-82929685D01*
X128385003Y-82929685D02*
X128385003Y-80929685D01*
%TO.C,C16*%
X121985289Y-80932082D02*
X120735289Y-80932082D01*
X120735289Y-80932082D02*
X120735289Y-82932082D01*
X121985289Y-82932082D02*
X121985289Y-80932082D01*
X120735289Y-82932082D02*
X121985289Y-82932082D01*
%TO.C,C4*%
X126875000Y-67100000D02*
X126875000Y-69100000D01*
X128125000Y-67100000D02*
X126875000Y-67100000D01*
X126875000Y-69100000D02*
X128125000Y-69100000D01*
X128125000Y-69100000D02*
X128125000Y-67100000D01*
%TO.C,C8*%
X130225000Y-67100000D02*
X128975000Y-67100000D01*
X130225000Y-69100000D02*
X130225000Y-67100000D01*
X128975000Y-69100000D02*
X130225000Y-69100000D01*
X128975000Y-67100000D02*
X128975000Y-69100000D01*
%TD*%
M02*
