  0
SECTION
  2
HEADER
  9
$ANGBASE
  50
0.0
  9
$ANGDIR
  70
1
  9
$MEASUREMENT
  70
0
  0
ENDSEC
  0
SECTION
  2
TABLES
  0
TABLE
  2
LTYPE
  70
4
  0
LTYPE
  5
40F
  2
CONTINUOUS
  70
0
  3
Solid line
  72
65
  73
0
  40
0.0
  0
LTYPE
  5
410
  2
DASHDOT
 70
0
  3
Dash Dot ____ _ ____ _
 72
65
 73
4
 40
2.0
 49
1.25
 49
-0.25
 49
0.25
 49
-0.25
  0
LTYPE
  5
411
  2
DASHED
 70
0
  3
Dashed __ __ __ __ __
 72
65
 73
2
 40
0.75
 49
0.5
 49
-0.25
  0
LTYPE
  5
43B
  2
DOTTED
 70
0
  3
Dotted .  .  .  .
 72
65
 73
2
 40
0.2
 49
0.0
 49
-0.2
  0
ENDTAB
  0
TABLE
  2
STYLE
  70
4
  0
STYLE
  2
KICAD
  70
0
  40
0
  41
1
  42
1
  50
0
  71
0
  3
isocp.shx
  0
STYLE
  2
KICADB
  70
0
  40
0
  41
1
  42
1
  50
0
  71
0
  3
isocp.shx
  0
STYLE
  2
KICADI
  70
0
  40
0
  41
1
  42
1
  50
15
  71
0
  3
isocp.shx
  0
STYLE
  2
KICADBI
  70
0
  40
0
  41
1
  42
1
  50
15
  71
0
  3
isocp.shx
  0
ENDTAB
  0
TABLE
  2
LAYER
  70
1
  0
LAYER
  2
BLACK
  70
0
  62
7
  6
CONTINUOUS
  0
ENDTAB
  0
ENDSEC
  0
SECTION
  2
ENTITIES
0
LINE
8
BLACK
6
CONTINUOUS
10
6.15284
20
-3.3091
11
6.1529
21
-3.30913
0
LINE
8
BLACK
6
CONTINUOUS
10
6.1529
20
-3.30913
11
6.15297
21
-3.30914
0
LINE
8
BLACK
6
CONTINUOUS
10
6.15297
20
-3.30914
11
6.15313
21
-3.30928
0
LINE
8
BLACK
6
CONTINUOUS
10
6.15313
20
-3.30928
11
6.1533
21
-3.3094
0
LINE
8
BLACK
6
CONTINUOUS
10
6.1533
20
-3.3094
11
6.15333
21
-3.30946
0
LINE
8
BLACK
6
CONTINUOUS
10
6.15333
20
-3.30946
11
6.15339
21
-3.30951
0
LINE
8
BLACK
6
CONTINUOUS
10
6.15339
20
-3.30951
11
6.15345
21
-3.30971
0
LINE
8
BLACK
6
CONTINUOUS
10
6.15345
20
-3.30971
11
6.15353
21
-3.3099
0
LINE
8
BLACK
6
CONTINUOUS
10
6.15353
20
-3.3099
11
6.15352
21
-3.30997
0
LINE
8
BLACK
6
CONTINUOUS
10
6.15352
20
-3.30997
11
6.15354
21
-3.31004
0
LINE
8
BLACK
6
CONTINUOUS
10
6.15354
20
-3.31004
11
6.15354
21
-3.52657
0
LINE
8
BLACK
6
CONTINUOUS
10
6.15354
20
-3.52657
11
6.1535
21
-3.52685
0
LINE
8
BLACK
6
CONTINUOUS
10
6.1535
20
-3.52685
11
6.15346
21
-3.52691
0
LINE
8
BLACK
6
CONTINUOUS
10
6.15346
20
-3.52691
11
6.15345
21
-3.52698
0
LINE
8
BLACK
6
CONTINUOUS
10
6.15345
20
-3.52698
11
6.15332
21
-3.52714
0
LINE
8
BLACK
6
CONTINUOUS
10
6.15332
20
-3.52714
11
6.1532
21
-3.52732
0
LINE
8
BLACK
6
CONTINUOUS
10
6.1532
20
-3.52732
11
6.15314
21
-3.52735
0
LINE
8
BLACK
6
CONTINUOUS
10
6.15314
20
-3.52735
11
6.15309
21
-3.5274
0
LINE
8
BLACK
6
CONTINUOUS
10
6.15309
20
-3.5274
11
6.15289
21
-3.52746
0
LINE
8
BLACK
6
CONTINUOUS
10
6.15289
20
-3.52746
11
6.1527
21
-3.52755
0
LINE
8
BLACK
6
CONTINUOUS
10
6.1527
20
-3.52755
11
6.15263
21
-3.52754
0
LINE
8
BLACK
6
CONTINUOUS
10
6.15263
20
-3.52754
11
6.15256
21
-3.52756
0
LINE
8
BLACK
6
CONTINUOUS
10
6.15256
20
-3.52756
11
5.88091
21
-3.52756
0
LINE
8
BLACK
6
CONTINUOUS
10
5.88091
20
-3.52756
11
5.88063
21
-3.52752
0
LINE
8
BLACK
6
CONTINUOUS
10
5.88063
20
-3.52752
11
5.88057
21
-3.52748
0
LINE
8
BLACK
6
CONTINUOUS
10
5.88057
20
-3.52748
11
5.8805
21
-3.52747
0
LINE
8
BLACK
6
CONTINUOUS
10
5.8805
20
-3.52747
11
5.88034
21
-3.52733
0
LINE
8
BLACK
6
CONTINUOUS
10
5.88034
20
-3.52733
11
5.88016
21
-3.52722
0
LINE
8
BLACK
6
CONTINUOUS
10
5.88016
20
-3.52722
11
5.88013
21
-3.52715
0
LINE
8
BLACK
6
CONTINUOUS
10
5.88013
20
-3.52715
11
5.88008
21
-3.52711
0
LINE
8
BLACK
6
CONTINUOUS
10
5.88008
20
-3.52711
11
5.88002
21
-3.5269
0
LINE
8
BLACK
6
CONTINUOUS
10
5.88002
20
-3.5269
11
5.87993
21
-3.52671
0
LINE
8
BLACK
6
CONTINUOUS
10
5.87993
20
-3.52671
11
5.87994
21
-3.52664
0
LINE
8
BLACK
6
CONTINUOUS
10
5.87994
20
-3.52664
11
5.87992
21
-3.52657
0
LINE
8
BLACK
6
CONTINUOUS
10
5.87992
20
-3.52657
11
5.87992
21
-3.31004
0
LINE
8
BLACK
6
CONTINUOUS
10
5.87992
20
-3.31004
11
5.87996
21
-3.30976
0
LINE
8
BLACK
6
CONTINUOUS
10
5.87996
20
-3.30976
11
5.88
21
-3.3097
0
LINE
8
BLACK
6
CONTINUOUS
10
5.88
20
-3.3097
11
5.88001
21
-3.30963
0
LINE
8
BLACK
6
CONTINUOUS
10
5.88001
20
-3.30963
11
5.88015
21
-3.30947
0
LINE
8
BLACK
6
CONTINUOUS
10
5.88015
20
-3.30947
11
5.88026
21
-3.30929
0
LINE
8
BLACK
6
CONTINUOUS
10
5.88026
20
-3.30929
11
5.88033
21
-3.30926
0
LINE
8
BLACK
6
CONTINUOUS
10
5.88033
20
-3.30926
11
5.88037
21
-3.30921
0
LINE
8
BLACK
6
CONTINUOUS
10
5.88037
20
-3.30921
11
5.88058
21
-3.30915
0
LINE
8
BLACK
6
CONTINUOUS
10
5.88058
20
-3.30915
11
5.88077
21
-3.30906
0
LINE
8
BLACK
6
CONTINUOUS
10
5.88077
20
-3.30906
11
5.88084
21
-3.30908
0
LINE
8
BLACK
6
CONTINUOUS
10
5.88084
20
-3.30908
11
5.88091
21
-3.30906
0
LINE
8
BLACK
6
CONTINUOUS
10
5.88091
20
-3.30906
11
6.15256
21
-3.30906
0
LINE
8
BLACK
6
CONTINUOUS
10
6.15256
20
-3.30906
11
6.15284
21
-3.3091
0
LINE
8
BLACK
6
CONTINUOUS
10
5.88189
20
-3.31102
11
5.88189
21
-3.52559
0
LINE
8
BLACK
6
CONTINUOUS
10
5.88189
20
-3.52559
11
6.15157
21
-3.52559
0
LINE
8
BLACK
6
CONTINUOUS
10
6.15157
20
-3.52559
11
6.15157
21
-3.31102
0
LINE
8
BLACK
6
CONTINUOUS
10
6.15157
20
-3.31102
11
5.88189
21
-3.31102
0
LINE
8
BLACK
6
CONTINUOUS
10
5.86524
20
-3.37504
11
5.8653
21
-3.37508
0
LINE
8
BLACK
6
CONTINUOUS
10
5.8653
20
-3.37508
11
5.86537
21
-3.37509
0
LINE
8
BLACK
6
CONTINUOUS
10
5.86537
20
-3.37509
11
5.86553
21
-3.37523
0
LINE
8
BLACK
6
CONTINUOUS
10
5.86553
20
-3.37523
11
5.86571
21
-3.37534
0
LINE
8
BLACK
6
CONTINUOUS
10
5.86571
20
-3.37534
11
5.86574
21
-3.37541
0
LINE
8
BLACK
6
CONTINUOUS
10
5.86574
20
-3.37541
11
5.86579
21
-3.37545
0
LINE
8
BLACK
6
CONTINUOUS
10
5.86579
20
-3.37545
11
5.86585
21
-3.37565
0
LINE
8
BLACK
6
CONTINUOUS
10
5.86585
20
-3.37565
11
5.86594
21
-3.37585
0
LINE
8
BLACK
6
CONTINUOUS
10
5.86594
20
-3.37585
11
5.86592
21
-3.37592
0
LINE
8
BLACK
6
CONTINUOUS
10
5.86592
20
-3.37592
11
5.86594
21
-3.37598
0
LINE
8
BLACK
6
CONTINUOUS
10
5.86594
20
-3.37598
11
5.86594
21
-3.50984
0
LINE
8
BLACK
6
CONTINUOUS
10
5.86594
20
-3.50984
11
5.8659
21
-3.51012
0
LINE
8
BLACK
6
CONTINUOUS
10
5.8659
20
-3.51012
11
5.86587
21
-3.51018
0
LINE
8
BLACK
6
CONTINUOUS
10
5.86587
20
-3.51018
11
5.86586
21
-3.51025
0
LINE
8
BLACK
6
CONTINUOUS
10
5.86586
20
-3.51025
11
5.86572
21
-3.51041
0
LINE
8
BLACK
6
CONTINUOUS
10
5.86572
20
-3.51041
11
5.8656
21
-3.51059
0
LINE
8
BLACK
6
CONTINUOUS
10
5.8656
20
-3.51059
11
5.86554
21
-3.51062
0
LINE
8
BLACK
6
CONTINUOUS
10
5.86554
20
-3.51062
11
5.86549
21
-3.51067
0
LINE
8
BLACK
6
CONTINUOUS
10
5.86549
20
-3.51067
11
5.86529
21
-3.51073
0
LINE
8
BLACK
6
CONTINUOUS
10
5.86529
20
-3.51073
11
5.8651
21
-3.51082
0
LINE
8
BLACK
6
CONTINUOUS
10
5.8651
20
-3.51082
11
5.86503
21
-3.51081
0
LINE
8
BLACK
6
CONTINUOUS
10
5.86503
20
-3.51081
11
5.86496
21
-3.51083
0
LINE
8
BLACK
6
CONTINUOUS
10
5.86496
20
-3.51083
11
5.7878
21
-3.51083
0
LINE
8
BLACK
6
CONTINUOUS
10
5.7878
20
-3.51083
11
5.78752
21
-3.51079
0
LINE
8
BLACK
6
CONTINUOUS
10
5.78752
20
-3.51079
11
5.78746
21
-3.51075
0
LINE
8
BLACK
6
CONTINUOUS
10
5.78746
20
-3.51075
11
5.78739
21
-3.51074
0
LINE
8
BLACK
6
CONTINUOUS
10
5.78739
20
-3.51074
11
5.78723
21
-3.5106
0
LINE
8
BLACK
6
CONTINUOUS
10
5.78723
20
-3.5106
11
5.78705
21
-3.51049
0
LINE
8
BLACK
6
CONTINUOUS
10
5.78705
20
-3.51049
11
5.78702
21
-3.51042
0
LINE
8
BLACK
6
CONTINUOUS
10
5.78702
20
-3.51042
11
5.78697
21
-3.51037
0
LINE
8
BLACK
6
CONTINUOUS
10
5.78697
20
-3.51037
11
5.78691
21
-3.51017
0
LINE
8
BLACK
6
CONTINUOUS
10
5.78691
20
-3.51017
11
5.78682
21
-3.50998
0
LINE
8
BLACK
6
CONTINUOUS
10
5.78682
20
-3.50998
11
5.78683
21
-3.50991
0
LINE
8
BLACK
6
CONTINUOUS
10
5.78683
20
-3.50991
11
5.78681
21
-3.50984
0
LINE
8
BLACK
6
CONTINUOUS
10
5.78681
20
-3.50984
11
5.78681
21
-3.37598
0
LINE
8
BLACK
6
CONTINUOUS
10
5.78681
20
-3.37598
11
5.78685
21
-3.3757
0
LINE
8
BLACK
6
CONTINUOUS
10
5.78685
20
-3.3757
11
5.78689
21
-3.37565
0
LINE
8
BLACK
6
CONTINUOUS
10
5.78689
20
-3.37565
11
5.7869
21
-3.37557
0
LINE
8
BLACK
6
CONTINUOUS
10
5.7869
20
-3.37557
11
5.78704
21
-3.37542
0
LINE
8
BLACK
6
CONTINUOUS
10
5.78704
20
-3.37542
11
5.78715
21
-3.37524
0
LINE
8
BLACK
6
CONTINUOUS
10
5.78715
20
-3.37524
11
5.78722
21
-3.37521
0
LINE
8
BLACK
6
CONTINUOUS
10
5.78722
20
-3.37521
11
5.78726
21
-3.37516
0
LINE
8
BLACK
6
CONTINUOUS
10
5.78726
20
-3.37516
11
5.78747
21
-3.3751
0
LINE
8
BLACK
6
CONTINUOUS
10
5.78747
20
-3.3751
11
5.78766
21
-3.37501
0
LINE
8
BLACK
6
CONTINUOUS
10
5.78766
20
-3.37501
11
5.78773
21
-3.37502
0
LINE
8
BLACK
6
CONTINUOUS
10
5.78773
20
-3.37502
11
5.7878
21
-3.375
0
LINE
8
BLACK
6
CONTINUOUS
10
5.7878
20
-3.375
11
5.86496
21
-3.375
0
LINE
8
BLACK
6
CONTINUOUS
10
5.86496
20
-3.375
11
5.86524
21
-3.37504
0
LINE
8
BLACK
6
CONTINUOUS
10
5.78878
20
-3.37697
11
5.78878
21
-3.50886
0
LINE
8
BLACK
6
CONTINUOUS
10
5.78878
20
-3.50886
11
5.86398
21
-3.50886
0
LINE
8
BLACK
6
CONTINUOUS
10
5.86398
20
-3.50886
11
5.86398
21
-3.37697
0
LINE
8
BLACK
6
CONTINUOUS
10
5.86398
20
-3.37697
11
5.78878
21
-3.37697
0
LINE
8
BLACK
6
CONTINUOUS
10
5.31603
20
-2.96686
11
5.31609
21
-2.9669
0
LINE
8
BLACK
6
CONTINUOUS
10
5.31609
20
-2.9669
11
5.31616
21
-2.96691
0
LINE
8
BLACK
6
CONTINUOUS
10
5.31616
20
-2.96691
11
5.31632
21
-2.96704
0
LINE
8
BLACK
6
CONTINUOUS
10
5.31632
20
-2.96704
11
5.31649
21
-2.96716
0
LINE
8
BLACK
6
CONTINUOUS
10
5.31649
20
-2.96716
11
5.31652
21
-2.96722
0
LINE
8
BLACK
6
CONTINUOUS
10
5.31652
20
-2.96722
11
5.31658
21
-2.96727
0
LINE
8
BLACK
6
CONTINUOUS
10
5.31658
20
-2.96727
11
5.31664
21
-2.96747
0
LINE
8
BLACK
6
CONTINUOUS
10
5.31664
20
-2.96747
11
5.31672
21
-2.96766
0
LINE
8
BLACK
6
CONTINUOUS
10
5.31672
20
-2.96766
11
5.31671
21
-2.96773
0
LINE
8
BLACK
6
CONTINUOUS
10
5.31671
20
-2.96773
11
5.31673
21
-2.9678
0
LINE
8
BLACK
6
CONTINUOUS
10
5.31673
20
-2.9678
11
5.31673
21
-3.33394
0
LINE
8
BLACK
6
CONTINUOUS
10
5.31673
20
-3.33394
11
5.31669
21
-3.33422
0
LINE
8
BLACK
6
CONTINUOUS
10
5.31669
20
-3.33422
11
5.31665
21
-3.33428
0
LINE
8
BLACK
6
CONTINUOUS
10
5.31665
20
-3.33428
11
5.31664
21
-3.33435
0
LINE
8
BLACK
6
CONTINUOUS
10
5.31664
20
-3.33435
11
5.31651
21
-3.33451
0
LINE
8
BLACK
6
CONTINUOUS
10
5.31651
20
-3.33451
11
5.31639
21
-3.33469
0
LINE
8
BLACK
6
CONTINUOUS
10
5.31639
20
-3.33469
11
5.31633
21
-3.33472
0
LINE
8
BLACK
6
CONTINUOUS
10
5.31633
20
-3.33472
11
5.31628
21
-3.33477
0
LINE
8
BLACK
6
CONTINUOUS
10
5.31628
20
-3.33477
11
5.31608
21
-3.33483
0
LINE
8
BLACK
6
CONTINUOUS
10
5.31608
20
-3.33483
11
5.31589
21
-3.33492
0
LINE
8
BLACK
6
CONTINUOUS
10
5.31589
20
-3.33492
11
5.31582
21
-3.33491
0
LINE
8
BLACK
6
CONTINUOUS
10
5.31582
20
-3.33491
11
5.31575
21
-3.33493
0
LINE
8
BLACK
6
CONTINUOUS
10
5.31575
20
-3.33493
11
5.09055
21
-3.33493
0
LINE
8
BLACK
6
CONTINUOUS
10
5.09055
20
-3.33493
11
5.09027
21
-3.33489
0
LINE
8
BLACK
6
CONTINUOUS
10
5.09027
20
-3.33489
11
5.09021
21
-3.33485
0
LINE
8
BLACK
6
CONTINUOUS
10
5.09021
20
-3.33485
11
5.09014
21
-3.33484
0
LINE
8
BLACK
6
CONTINUOUS
10
5.09014
20
-3.33484
11
5.08998
21
-3.3347
0
LINE
8
BLACK
6
CONTINUOUS
10
5.08998
20
-3.3347
11
5.08981
21
-3.33459
0
LINE
8
BLACK
6
CONTINUOUS
10
5.08981
20
-3.33459
11
5.08978
21
-3.33452
0
LINE
8
BLACK
6
CONTINUOUS
10
5.08978
20
-3.33452
11
5.08972
21
-3.33448
0
LINE
8
BLACK
6
CONTINUOUS
10
5.08972
20
-3.33448
11
5.08966
21
-3.33427
0
LINE
8
BLACK
6
CONTINUOUS
10
5.08966
20
-3.33427
11
5.08958
21
-3.33408
0
LINE
8
BLACK
6
CONTINUOUS
10
5.08958
20
-3.33408
11
5.08959
21
-3.33401
0
LINE
8
BLACK
6
CONTINUOUS
10
5.08959
20
-3.33401
11
5.08957
21
-3.33394
0
LINE
8
BLACK
6
CONTINUOUS
10
5.08957
20
-3.33394
11
5.08957
21
-2.9678
0
LINE
8
BLACK
6
CONTINUOUS
10
5.08957
20
-2.9678
11
5.08961
21
-2.96752
0
LINE
8
BLACK
6
CONTINUOUS
10
5.08961
20
-2.96752
11
5.08965
21
-2.96746
0
LINE
8
BLACK
6
CONTINUOUS
10
5.08965
20
-2.96746
11
5.08966
21
-2.96739
0
LINE
8
BLACK
6
CONTINUOUS
10
5.08966
20
-2.96739
11
5.08979
21
-2.96723
0
LINE
8
BLACK
6
CONTINUOUS
10
5.08979
20
-2.96723
11
5.08991
21
-2.96706
0
LINE
8
BLACK
6
CONTINUOUS
10
5.08991
20
-2.96706
11
5.08997
21
-2.96703
0
LINE
8
BLACK
6
CONTINUOUS
10
5.08997
20
-2.96703
11
5.09002
21
-2.96697
0
LINE
8
BLACK
6
CONTINUOUS
10
5.09002
20
-2.96697
11
5.09022
21
-2.96691
0
LINE
8
BLACK
6
CONTINUOUS
10
5.09022
20
-2.96691
11
5.09041
21
-2.96683
0
LINE
8
BLACK
6
CONTINUOUS
10
5.09041
20
-2.96683
11
5.09048
21
-2.96684
0
LINE
8
BLACK
6
CONTINUOUS
10
5.09048
20
-2.96684
11
5.09055
21
-2.96682
0
LINE
8
BLACK
6
CONTINUOUS
10
5.09055
20
-2.96682
11
5.31575
21
-2.96682
0
LINE
8
BLACK
6
CONTINUOUS
10
5.31575
20
-2.96682
11
5.31603
21
-2.96686
0
LINE
8
BLACK
6
CONTINUOUS
10
5.09154
20
-2.96879
11
5.09154
21
-3.33296
0
LINE
8
BLACK
6
CONTINUOUS
10
5.09154
20
-3.33296
11
5.31476
21
-3.33296
0
LINE
8
BLACK
6
CONTINUOUS
10
5.31476
20
-3.33296
11
5.31476
21
-2.96879
0
LINE
8
BLACK
6
CONTINUOUS
10
5.31476
20
-2.96879
11
5.09154
21
-2.96879
0
LINE
8
BLACK
6
CONTINUOUS
10
4.81683
20
-3.1578
11
4.81689
21
-3.15784
0
LINE
8
BLACK
6
CONTINUOUS
10
4.81689
20
-3.15784
11
4.81696
21
-3.15785
0
LINE
8
BLACK
6
CONTINUOUS
10
4.81696
20
-3.15785
11
4.81697
21
-3.15786
0
LINE
8
BLACK
6
CONTINUOUS
10
4.81697
20
-3.15786
11
4.817
21
-3.15786
0
LINE
8
BLACK
6
CONTINUOUS
10
4.817
20
-3.15786
11
4.81719
21
-3.15777
0
LINE
8
BLACK
6
CONTINUOUS
10
4.81719
20
-3.15777
11
4.81726
21
-3.15778
0
LINE
8
BLACK
6
CONTINUOUS
10
4.81726
20
-3.15778
11
4.81733
21
-3.15776
0
LINE
8
BLACK
6
CONTINUOUS
10
4.81733
20
-3.15776
11
4.8945
21
-3.15776
0
LINE
8
BLACK
6
CONTINUOUS
10
4.8945
20
-3.15776
11
4.89478
21
-3.1578
0
LINE
8
BLACK
6
CONTINUOUS
10
4.89478
20
-3.1578
11
4.89483
21
-3.15784
0
LINE
8
BLACK
6
CONTINUOUS
10
4.89483
20
-3.15784
11
4.89491
21
-3.15785
0
LINE
8
BLACK
6
CONTINUOUS
10
4.89491
20
-3.15785
11
4.89492
21
-3.15786
0
LINE
8
BLACK
6
CONTINUOUS
10
4.89492
20
-3.15786
11
4.89495
21
-3.15786
0
LINE
8
BLACK
6
CONTINUOUS
10
4.89495
20
-3.15786
11
4.89514
21
-3.15777
0
LINE
8
BLACK
6
CONTINUOUS
10
4.89514
20
-3.15777
11
4.89521
21
-3.15778
0
LINE
8
BLACK
6
CONTINUOUS
10
4.89521
20
-3.15778
11
4.89528
21
-3.15776
0
LINE
8
BLACK
6
CONTINUOUS
10
4.89528
20
-3.15776
11
4.97244
21
-3.15776
0
LINE
8
BLACK
6
CONTINUOUS
10
4.97244
20
-3.15776
11
4.97272
21
-3.1578
0
LINE
8
BLACK
6
CONTINUOUS
10
4.97272
20
-3.1578
11
4.97278
21
-3.15784
0
LINE
8
BLACK
6
CONTINUOUS
10
4.97278
20
-3.15784
11
4.97285
21
-3.15785
0
LINE
8
BLACK
6
CONTINUOUS
10
4.97285
20
-3.15785
11
4.97301
21
-3.15799
0
LINE
8
BLACK
6
CONTINUOUS
10
4.97301
20
-3.15799
11
4.97319
21
-3.1581
0
LINE
8
BLACK
6
CONTINUOUS
10
4.97319
20
-3.1581
11
4.97322
21
-3.15817
0
LINE
8
BLACK
6
CONTINUOUS
10
4.97322
20
-3.15817
11
4.97327
21
-3.15821
0
LINE
8
BLACK
6
CONTINUOUS
10
4.97327
20
-3.15821
11
4.97333
21
-3.15841
0
LINE
8
BLACK
6
CONTINUOUS
10
4.97333
20
-3.15841
11
4.97342
21
-3.1586
0
LINE
8
BLACK
6
CONTINUOUS
10
4.97342
20
-3.1586
11
4.97341
21
-3.15868
0
LINE
8
BLACK
6
CONTINUOUS
10
4.97341
20
-3.15868
11
4.97343
21
-3.15874
0
LINE
8
BLACK
6
CONTINUOUS
10
4.97343
20
-3.15874
11
4.97343
21
-3.2926
0
LINE
8
BLACK
6
CONTINUOUS
10
4.97343
20
-3.2926
11
4.97339
21
-3.29288
0
LINE
8
BLACK
6
CONTINUOUS
10
4.97339
20
-3.29288
11
4.97335
21
-3.29294
0
LINE
8
BLACK
6
CONTINUOUS
10
4.97335
20
-3.29294
11
4.97334
21
-3.29301
0
LINE
8
BLACK
6
CONTINUOUS
10
4.97334
20
-3.29301
11
4.9732
21
-3.29317
0
LINE
8
BLACK
6
CONTINUOUS
10
4.9732
20
-3.29317
11
4.97309
21
-3.29335
0
LINE
8
BLACK
6
CONTINUOUS
10
4.97309
20
-3.29335
11
4.97302
21
-3.29338
0
LINE
8
BLACK
6
CONTINUOUS
10
4.97302
20
-3.29338
11
4.97298
21
-3.29343
0
LINE
8
BLACK
6
CONTINUOUS
10
4.97298
20
-3.29343
11
4.97277
21
-3.29349
0
LINE
8
BLACK
6
CONTINUOUS
10
4.97277
20
-3.29349
11
4.97258
21
-3.29358
0
LINE
8
BLACK
6
CONTINUOUS
10
4.97258
20
-3.29358
11
4.97251
21
-3.29357
0
LINE
8
BLACK
6
CONTINUOUS
10
4.97251
20
-3.29357
11
4.97244
21
-3.29359
0
LINE
8
BLACK
6
CONTINUOUS
10
4.97244
20
-3.29359
11
4.89528
21
-3.29359
0
LINE
8
BLACK
6
CONTINUOUS
10
4.89528
20
-3.29359
11
4.895
21
-3.29355
0
LINE
8
BLACK
6
CONTINUOUS
10
4.895
20
-3.29355
11
4.89494
21
-3.29351
0
LINE
8
BLACK
6
CONTINUOUS
10
4.89494
20
-3.29351
11
4.89487
21
-3.2935
0
LINE
8
BLACK
6
CONTINUOUS
10
4.89487
20
-3.2935
11
4.89485
21
-3.29348
0
LINE
8
BLACK
6
CONTINUOUS
10
4.89485
20
-3.29348
11
4.89483
21
-3.29349
0
LINE
8
BLACK
6
CONTINUOUS
10
4.89483
20
-3.29349
11
4.89463
21
-3.29358
0
LINE
8
BLACK
6
CONTINUOUS
10
4.89463
20
-3.29358
11
4.89456
21
-3.29357
0
LINE
8
BLACK
6
CONTINUOUS
10
4.89456
20
-3.29357
11
4.8945
21
-3.29359
0
LINE
8
BLACK
6
CONTINUOUS
10
4.8945
20
-3.29359
11
4.81733
21
-3.29359
0
LINE
8
BLACK
6
CONTINUOUS
10
4.81733
20
-3.29359
11
4.81705
21
-3.29355
0
LINE
8
BLACK
6
CONTINUOUS
10
4.81705
20
-3.29355
11
4.81699
21
-3.29351
0
LINE
8
BLACK
6
CONTINUOUS
10
4.81699
20
-3.29351
11
4.81692
21
-3.2935
0
LINE
8
BLACK
6
CONTINUOUS
10
4.81692
20
-3.2935
11
4.8169
21
-3.29348
0
LINE
8
BLACK
6
CONTINUOUS
10
4.8169
20
-3.29348
11
4.81688
21
-3.29349
0
LINE
8
BLACK
6
CONTINUOUS
10
4.81688
20
-3.29349
11
4.81669
21
-3.29358
0
LINE
8
BLACK
6
CONTINUOUS
10
4.81669
20
-3.29358
11
4.81662
21
-3.29357
0
LINE
8
BLACK
6
CONTINUOUS
10
4.81662
20
-3.29357
11
4.81655
21
-3.29359
0
LINE
8
BLACK
6
CONTINUOUS
10
4.81655
20
-3.29359
11
4.73938
21
-3.29359
0
LINE
8
BLACK
6
CONTINUOUS
10
4.73938
20
-3.29359
11
4.7391
21
-3.29355
0
LINE
8
BLACK
6
CONTINUOUS
10
4.7391
20
-3.29355
11
4.73904
21
-3.29351
0
LINE
8
BLACK
6
CONTINUOUS
10
4.73904
20
-3.29351
11
4.73897
21
-3.2935
0
LINE
8
BLACK
6
CONTINUOUS
10
4.73897
20
-3.2935
11
4.73881
21
-3.29336
0
LINE
8
BLACK
6
CONTINUOUS
10
4.73881
20
-3.29336
11
4.73864
21
-3.29324
0
LINE
8
BLACK
6
CONTINUOUS
10
4.73864
20
-3.29324
11
4.73861
21
-3.29318
0
LINE
8
BLACK
6
CONTINUOUS
10
4.73861
20
-3.29318
11
4.73855
21
-3.29313
0
LINE
8
BLACK
6
CONTINUOUS
10
4.73855
20
-3.29313
11
4.73849
21
-3.29293
0
LINE
8
BLACK
6
CONTINUOUS
10
4.73849
20
-3.29293
11
4.73841
21
-3.29274
0
LINE
8
BLACK
6
CONTINUOUS
10
4.73841
20
-3.29274
11
4.73842
21
-3.29267
0
LINE
8
BLACK
6
CONTINUOUS
10
4.73842
20
-3.29267
11
4.7384
21
-3.2926
0
LINE
8
BLACK
6
CONTINUOUS
10
4.7384
20
-3.2926
11
4.7384
21
-3.15874
0
LINE
8
BLACK
6
CONTINUOUS
10
4.7384
20
-3.15874
11
4.73844
21
-3.15846
0
LINE
8
BLACK
6
CONTINUOUS
10
4.73844
20
-3.15846
11
4.73848
21
-3.1584
0
LINE
8
BLACK
6
CONTINUOUS
10
4.73848
20
-3.1584
11
4.73849
21
-3.15833
0
LINE
8
BLACK
6
CONTINUOUS
10
4.73849
20
-3.15833
11
4.73862
21
-3.15817
0
LINE
8
BLACK
6
CONTINUOUS
10
4.73862
20
-3.15817
11
4.73874
21
-3.158
0
LINE
8
BLACK
6
CONTINUOUS
10
4.73874
20
-3.158
11
4.7388
21
-3.15797
0
LINE
8
BLACK
6
CONTINUOUS
10
4.7388
20
-3.15797
11
4.73885
21
-3.15792
0
LINE
8
BLACK
6
CONTINUOUS
10
4.73885
20
-3.15792
11
4.73905
21
-3.15786
0
LINE
8
BLACK
6
CONTINUOUS
10
4.73905
20
-3.15786
11
4.73924
21
-3.15777
0
LINE
8
BLACK
6
CONTINUOUS
10
4.73924
20
-3.15777
11
4.73931
21
-3.15778
0
LINE
8
BLACK
6
CONTINUOUS
10
4.73931
20
-3.15778
11
4.73938
21
-3.15776
0
LINE
8
BLACK
6
CONTINUOUS
10
4.73938
20
-3.15776
11
4.81655
21
-3.15776
0
LINE
8
BLACK
6
CONTINUOUS
10
4.81655
20
-3.15776
11
4.81683
21
-3.1578
0
LINE
8
BLACK
6
CONTINUOUS
10
4.89626
20
-3.15973
11
4.89626
21
-3.29162
0
LINE
8
BLACK
6
CONTINUOUS
10
4.89626
20
-3.29162
11
4.97146
21
-3.29162
0
LINE
8
BLACK
6
CONTINUOUS
10
4.97146
20
-3.29162
11
4.97146
21
-3.15973
0
LINE
8
BLACK
6
CONTINUOUS
10
4.97146
20
-3.15973
11
4.89626
21
-3.15973
0
LINE
8
BLACK
6
CONTINUOUS
10
4.81831
20
-3.15973
11
4.81831
21
-3.29162
0
LINE
8
BLACK
6
CONTINUOUS
10
4.81831
20
-3.29162
11
4.89351
21
-3.29162
0
LINE
8
BLACK
6
CONTINUOUS
10
4.89351
20
-3.29162
11
4.89351
21
-3.15973
0
LINE
8
BLACK
6
CONTINUOUS
10
4.89351
20
-3.15973
11
4.81831
21
-3.15973
0
LINE
8
BLACK
6
CONTINUOUS
10
4.74037
20
-3.15973
11
4.74037
21
-3.29162
0
LINE
8
BLACK
6
CONTINUOUS
10
4.74037
20
-3.29162
11
4.81556
21
-3.29162
0
LINE
8
BLACK
6
CONTINUOUS
10
4.81556
20
-3.29162
11
4.81556
21
-3.15973
0
LINE
8
BLACK
6
CONTINUOUS
10
4.81556
20
-3.15973
11
4.74037
21
-3.15973
0
LINE
8
BLACK
6
CONTINUOUS
10
5.06878
20
-3.15771
11
5.06884
21
-3.15774
0
LINE
8
BLACK
6
CONTINUOUS
10
5.06884
20
-3.15774
11
5.06891
21
-3.15775
0
LINE
8
BLACK
6
CONTINUOUS
10
5.06891
20
-3.15775
11
5.06907
21
-3.15789
0
LINE
8
BLACK
6
CONTINUOUS
10
5.06907
20
-3.15789
11
5.06925
21
-3.15801
0
LINE
8
BLACK
6
CONTINUOUS
10
5.06925
20
-3.15801
11
5.06928
21
-3.15807
0
LINE
8
BLACK
6
CONTINUOUS
10
5.06928
20
-3.15807
11
5.06933
21
-3.15812
0
LINE
8
BLACK
6
CONTINUOUS
10
5.06933
20
-3.15812
11
5.06939
21
-3.15832
0
LINE
8
BLACK
6
CONTINUOUS
10
5.06939
20
-3.15832
11
5.06948
21
-3.15851
0
LINE
8
BLACK
6
CONTINUOUS
10
5.06948
20
-3.15851
11
5.06947
21
-3.15858
0
LINE
8
BLACK
6
CONTINUOUS
10
5.06947
20
-3.15858
11
5.06949
21
-3.15865
0
LINE
8
BLACK
6
CONTINUOUS
10
5.06949
20
-3.15865
11
5.06949
21
-3.29251
0
LINE
8
BLACK
6
CONTINUOUS
10
5.06949
20
-3.29251
11
5.06945
21
-3.29279
0
LINE
8
BLACK
6
CONTINUOUS
10
5.06945
20
-3.29279
11
5.06941
21
-3.29285
0
LINE
8
BLACK
6
CONTINUOUS
10
5.06941
20
-3.29285
11
5.0694
21
-3.29292
0
LINE
8
BLACK
6
CONTINUOUS
10
5.0694
20
-3.29292
11
5.06926
21
-3.29308
0
LINE
8
BLACK
6
CONTINUOUS
10
5.06926
20
-3.29308
11
5.06915
21
-3.29325
0
LINE
8
BLACK
6
CONTINUOUS
10
5.06915
20
-3.29325
11
5.06908
21
-3.29328
0
LINE
8
BLACK
6
CONTINUOUS
10
5.06908
20
-3.29328
11
5.06904
21
-3.29334
0
LINE
8
BLACK
6
CONTINUOUS
10
5.06904
20
-3.29334
11
5.06883
21
-3.29339
0
LINE
8
BLACK
6
CONTINUOUS
10
5.06883
20
-3.29339
11
5.06864
21
-3.29348
0
LINE
8
BLACK
6
CONTINUOUS
10
5.06864
20
-3.29348
11
5.06857
21
-3.29347
0
LINE
8
BLACK
6
CONTINUOUS
10
5.06857
20
-3.29347
11
5.0685
21
-3.29349
0
LINE
8
BLACK
6
CONTINUOUS
10
5.0685
20
-3.29349
11
4.99134
21
-3.29349
0
LINE
8
BLACK
6
CONTINUOUS
10
4.99134
20
-3.29349
11
4.99106
21
-3.29345
0
LINE
8
BLACK
6
CONTINUOUS
10
4.99106
20
-3.29345
11
4.991
21
-3.29341
0
LINE
8
BLACK
6
CONTINUOUS
10
4.991
20
-3.29341
11
4.99093
21
-3.2934
0
LINE
8
BLACK
6
CONTINUOUS
10
4.99093
20
-3.2934
11
4.99077
21
-3.29326
0
LINE
8
BLACK
6
CONTINUOUS
10
4.99077
20
-3.29326
11
4.99059
21
-3.29315
0
LINE
8
BLACK
6
CONTINUOUS
10
4.99059
20
-3.29315
11
4.99056
21
-3.29309
0
LINE
8
BLACK
6
CONTINUOUS
10
4.99056
20
-3.29309
11
4.99051
21
-3.29304
0
LINE
8
BLACK
6
CONTINUOUS
10
4.99051
20
-3.29304
11
4.99045
21
-3.29284
0
LINE
8
BLACK
6
CONTINUOUS
10
4.99045
20
-3.29284
11
4.99036
21
-3.29265
0
LINE
8
BLACK
6
CONTINUOUS
10
4.99036
20
-3.29265
11
4.99037
21
-3.29258
0
LINE
8
BLACK
6
CONTINUOUS
10
4.99037
20
-3.29258
11
4.99035
21
-3.29251
0
LINE
8
BLACK
6
CONTINUOUS
10
4.99035
20
-3.29251
11
4.99035
21
-3.15865
0
LINE
8
BLACK
6
CONTINUOUS
10
4.99035
20
-3.15865
11
4.99039
21
-3.15837
0
LINE
8
BLACK
6
CONTINUOUS
10
4.99039
20
-3.15837
11
4.99043
21
-3.15831
0
LINE
8
BLACK
6
CONTINUOUS
10
4.99043
20
-3.15831
11
4.99044
21
-3.15824
0
LINE
8
BLACK
6
CONTINUOUS
10
4.99044
20
-3.15824
11
4.99058
21
-3.15808
0
LINE
8
BLACK
6
CONTINUOUS
10
4.99058
20
-3.15808
11
4.9907
21
-3.1579
0
LINE
8
BLACK
6
CONTINUOUS
10
4.9907
20
-3.1579
11
4.99076
21
-3.15787
0
LINE
8
BLACK
6
CONTINUOUS
10
4.99076
20
-3.15787
11
4.99081
21
-3.15782
0
LINE
8
BLACK
6
CONTINUOUS
10
4.99081
20
-3.15782
11
4.99101
21
-3.15776
0
LINE
8
BLACK
6
CONTINUOUS
10
4.99101
20
-3.15776
11
4.9912
21
-3.15767
0
LINE
8
BLACK
6
CONTINUOUS
10
4.9912
20
-3.15767
11
4.99127
21
-3.15768
0
LINE
8
BLACK
6
CONTINUOUS
10
4.99127
20
-3.15768
11
4.99134
21
-3.15766
0
LINE
8
BLACK
6
CONTINUOUS
10
4.99134
20
-3.15766
11
5.0685
21
-3.15766
0
LINE
8
BLACK
6
CONTINUOUS
10
5.0685
20
-3.15766
11
5.06878
21
-3.15771
0
LINE
8
BLACK
6
CONTINUOUS
10
4.99232
20
-3.15963
11
4.99232
21
-3.29152
0
LINE
8
BLACK
6
CONTINUOUS
10
4.99232
20
-3.29152
11
5.06752
21
-3.29152
0
LINE
8
BLACK
6
CONTINUOUS
10
5.06752
20
-3.29152
11
5.06752
21
-3.15963
0
LINE
8
BLACK
6
CONTINUOUS
10
5.06752
20
-3.15963
11
4.99232
21
-3.15963
0
LINE
8
BLACK
6
CONTINUOUS
10
5.4117
20
-3.12189
11
5.41176
21
-3.12193
0
LINE
8
BLACK
6
CONTINUOUS
10
5.41176
20
-3.12193
11
5.41183
21
-3.12194
0
LINE
8
BLACK
6
CONTINUOUS
10
5.41183
20
-3.12194
11
5.41199
21
-3.12208
0
LINE
8
BLACK
6
CONTINUOUS
10
5.41199
20
-3.12208
11
5.41216
21
-3.12219
0
LINE
8
BLACK
6
CONTINUOUS
10
5.41216
20
-3.12219
11
5.41219
21
-3.12226
0
LINE
8
BLACK
6
CONTINUOUS
10
5.41219
20
-3.12226
11
5.41225
21
-3.1223
0
LINE
8
BLACK
6
CONTINUOUS
10
5.41225
20
-3.1223
11
5.4123
21
-3.1225
0
LINE
8
BLACK
6
CONTINUOUS
10
5.4123
20
-3.1225
11
5.41239
21
-3.1227
0
LINE
8
BLACK
6
CONTINUOUS
10
5.41239
20
-3.1227
11
5.41238
21
-3.12277
0
LINE
8
BLACK
6
CONTINUOUS
10
5.41238
20
-3.12277
11
5.4124
21
-3.12283
0
LINE
8
BLACK
6
CONTINUOUS
10
5.4124
20
-3.12283
11
5.4124
21
-3.25512
0
LINE
8
BLACK
6
CONTINUOUS
10
5.4124
20
-3.25512
11
5.41236
21
-3.2554
0
LINE
8
BLACK
6
CONTINUOUS
10
5.41236
20
-3.2554
11
5.41232
21
-3.25546
0
LINE
8
BLACK
6
CONTINUOUS
10
5.41232
20
-3.25546
11
5.41231
21
-3.25553
0
LINE
8
BLACK
6
CONTINUOUS
10
5.41231
20
-3.25553
11
5.41217
21
-3.25569
0
LINE
8
BLACK
6
CONTINUOUS
10
5.41217
20
-3.25569
11
5.41206
21
-3.25586
0
LINE
8
BLACK
6
CONTINUOUS
10
5.41206
20
-3.25586
11
5.412
21
-3.25589
0
LINE
8
BLACK
6
CONTINUOUS
10
5.412
20
-3.25589
11
5.41195
21
-3.25595
0
LINE
8
BLACK
6
CONTINUOUS
10
5.41195
20
-3.25595
11
5.41175
21
-3.25601
0
LINE
8
BLACK
6
CONTINUOUS
10
5.41175
20
-3.25601
11
5.41156
21
-3.25609
0
LINE
8
BLACK
6
CONTINUOUS
10
5.41156
20
-3.25609
11
5.41149
21
-3.25608
0
LINE
8
BLACK
6
CONTINUOUS
10
5.41149
20
-3.25608
11
5.41142
21
-3.2561
0
LINE
8
BLACK
6
CONTINUOUS
10
5.41142
20
-3.2561
11
5.33661
21
-3.2561
0
LINE
8
BLACK
6
CONTINUOUS
10
5.33661
20
-3.2561
11
5.33633
21
-3.25606
0
LINE
8
BLACK
6
CONTINUOUS
10
5.33633
20
-3.25606
11
5.33627
21
-3.25602
0
LINE
8
BLACK
6
CONTINUOUS
10
5.33627
20
-3.25602
11
5.3362
21
-3.25601
0
LINE
8
BLACK
6
CONTINUOUS
10
5.3362
20
-3.25601
11
5.33605
21
-3.25588
0
LINE
8
BLACK
6
CONTINUOUS
10
5.33605
20
-3.25588
11
5.33587
21
-3.25576
0
LINE
8
BLACK
6
CONTINUOUS
10
5.33587
20
-3.25576
11
5.33584
21
-3.2557
0
LINE
8
BLACK
6
CONTINUOUS
10
5.33584
20
-3.2557
11
5.33579
21
-3.25565
0
LINE
8
BLACK
6
CONTINUOUS
10
5.33579
20
-3.25565
11
5.33573
21
-3.25545
0
LINE
8
BLACK
6
CONTINUOUS
10
5.33573
20
-3.25545
11
5.33564
21
-3.25526
0
LINE
8
BLACK
6
CONTINUOUS
10
5.33564
20
-3.25526
11
5.33565
21
-3.25519
0
LINE
8
BLACK
6
CONTINUOUS
10
5.33565
20
-3.25519
11
5.33563
21
-3.25512
0
LINE
8
BLACK
6
CONTINUOUS
10
5.33563
20
-3.25512
11
5.33563
21
-3.12283
0
LINE
8
BLACK
6
CONTINUOUS
10
5.33563
20
-3.12283
11
5.33567
21
-3.12256
0
LINE
8
BLACK
6
CONTINUOUS
10
5.33567
20
-3.12256
11
5.33571
21
-3.1225
0
LINE
8
BLACK
6
CONTINUOUS
10
5.33571
20
-3.1225
11
5.33572
21
-3.12242
0
LINE
8
BLACK
6
CONTINUOUS
10
5.33572
20
-3.12242
11
5.33586
21
-3.12227
0
LINE
8
BLACK
6
CONTINUOUS
10
5.33586
20
-3.12227
11
5.33597
21
-3.12209
0
LINE
8
BLACK
6
CONTINUOUS
10
5.33597
20
-3.12209
11
5.33604
21
-3.12206
0
LINE
8
BLACK
6
CONTINUOUS
10
5.33604
20
-3.12206
11
5.33608
21
-3.12201
0
LINE
8
BLACK
6
CONTINUOUS
10
5.33608
20
-3.12201
11
5.33628
21
-3.12195
0
LINE
8
BLACK
6
CONTINUOUS
10
5.33628
20
-3.12195
11
5.33648
21
-3.12186
0
LINE
8
BLACK
6
CONTINUOUS
10
5.33648
20
-3.12186
11
5.33655
21
-3.12187
0
LINE
8
BLACK
6
CONTINUOUS
10
5.33655
20
-3.12187
11
5.33661
21
-3.12185
0
LINE
8
BLACK
6
CONTINUOUS
10
5.33661
20
-3.12185
11
5.41142
21
-3.12185
0
LINE
8
BLACK
6
CONTINUOUS
10
5.41142
20
-3.12185
11
5.4117
21
-3.12189
0
LINE
8
BLACK
6
CONTINUOUS
10
5.3376
20
-3.12382
11
5.3376
21
-3.25413
0
LINE
8
BLACK
6
CONTINUOUS
10
5.3376
20
-3.25413
11
5.41043
21
-3.25413
0
LINE
8
BLACK
6
CONTINUOUS
10
5.41043
20
-3.25413
11
5.41043
21
-3.12382
0
LINE
8
BLACK
6
CONTINUOUS
10
5.41043
20
-3.12382
11
5.3376
21
-3.12382
0
LINE
8
BLACK
6
CONTINUOUS
10
4.71681
20
-3.1337
11
4.71687
21
-3.13374
0
LINE
8
BLACK
6
CONTINUOUS
10
4.71687
20
-3.13374
11
4.71695
21
-3.13375
0
LINE
8
BLACK
6
CONTINUOUS
10
4.71695
20
-3.13375
11
4.7171
21
-3.13389
0
LINE
8
BLACK
6
CONTINUOUS
10
4.7171
20
-3.13389
11
4.71728
21
-3.134
0
LINE
8
BLACK
6
CONTINUOUS
10
4.71728
20
-3.134
11
4.71731
21
-3.13407
0
LINE
8
BLACK
6
CONTINUOUS
10
4.71731
20
-3.13407
11
4.71736
21
-3.13411
0
LINE
8
BLACK
6
CONTINUOUS
10
4.71736
20
-3.13411
11
4.71742
21
-3.13432
0
LINE
8
BLACK
6
CONTINUOUS
10
4.71742
20
-3.13432
11
4.71751
21
-3.13451
0
LINE
8
BLACK
6
CONTINUOUS
10
4.71751
20
-3.13451
11
4.7175
21
-3.13458
0
LINE
8
BLACK
6
CONTINUOUS
10
4.7175
20
-3.13458
11
4.71752
21
-3.13465
0
LINE
8
BLACK
6
CONTINUOUS
10
4.71752
20
-3.13465
11
4.71752
21
-3.21181
0
LINE
8
BLACK
6
CONTINUOUS
10
4.71752
20
-3.21181
11
4.71748
21
-3.21209
0
LINE
8
BLACK
6
CONTINUOUS
10
4.71748
20
-3.21209
11
4.71744
21
-3.21215
0
LINE
8
BLACK
6
CONTINUOUS
10
4.71744
20
-3.21215
11
4.71743
21
-3.21222
0
LINE
8
BLACK
6
CONTINUOUS
10
4.71743
20
-3.21222
11
4.71729
21
-3.21238
0
LINE
8
BLACK
6
CONTINUOUS
10
4.71729
20
-3.21238
11
4.71718
21
-3.21256
0
LINE
8
BLACK
6
CONTINUOUS
10
4.71718
20
-3.21256
11
4.71711
21
-3.21259
0
LINE
8
BLACK
6
CONTINUOUS
10
4.71711
20
-3.21259
11
4.71707
21
-3.21264
0
LINE
8
BLACK
6
CONTINUOUS
10
4.71707
20
-3.21264
11
4.71687
21
-3.2127
0
LINE
8
BLACK
6
CONTINUOUS
10
4.71687
20
-3.2127
11
4.71667
21
-3.21279
0
LINE
8
BLACK
6
CONTINUOUS
10
4.71667
20
-3.21279
11
4.7166
21
-3.21278
0
LINE
8
BLACK
6
CONTINUOUS
10
4.7166
20
-3.21278
11
4.71654
21
-3.2128
0
LINE
8
BLACK
6
CONTINUOUS
10
4.71654
20
-3.2128
11
4.58268
21
-3.2128
0
LINE
8
BLACK
6
CONTINUOUS
10
4.58268
20
-3.2128
11
4.5824
21
-3.21275
0
LINE
8
BLACK
6
CONTINUOUS
10
4.5824
20
-3.21275
11
4.58234
21
-3.21272
0
LINE
8
BLACK
6
CONTINUOUS
10
4.58234
20
-3.21272
11
4.58227
21
-3.21271
0
LINE
8
BLACK
6
CONTINUOUS
10
4.58227
20
-3.21271
11
4.58211
21
-3.21257
0
LINE
8
BLACK
6
CONTINUOUS
10
4.58211
20
-3.21257
11
4.58193
21
-3.21245
0
LINE
8
BLACK
6
CONTINUOUS
10
4.58193
20
-3.21245
11
4.5819
21
-3.21239
0
LINE
8
BLACK
6
CONTINUOUS
10
4.5819
20
-3.21239
11
4.58185
21
-3.21234
0
LINE
8
BLACK
6
CONTINUOUS
10
4.58185
20
-3.21234
11
4.58179
21
-3.21214
0
LINE
8
BLACK
6
CONTINUOUS
10
4.58179
20
-3.21214
11
4.5817
21
-3.21195
0
LINE
8
BLACK
6
CONTINUOUS
10
4.5817
20
-3.21195
11
4.58171
21
-3.21188
0
LINE
8
BLACK
6
CONTINUOUS
10
4.58171
20
-3.21188
11
4.58169
21
-3.21181
0
LINE
8
BLACK
6
CONTINUOUS
10
4.58169
20
-3.21181
11
4.58169
21
-3.13465
0
LINE
8
BLACK
6
CONTINUOUS
10
4.58169
20
-3.13465
11
4.58173
21
-3.13437
0
LINE
8
BLACK
6
CONTINUOUS
10
4.58173
20
-3.13437
11
4.58177
21
-3.13431
0
LINE
8
BLACK
6
CONTINUOUS
10
4.58177
20
-3.13431
11
4.58178
21
-3.13424
0
LINE
8
BLACK
6
CONTINUOUS
10
4.58178
20
-3.13424
11
4.58192
21
-3.13408
0
LINE
8
BLACK
6
CONTINUOUS
10
4.58192
20
-3.13408
11
4.58203
21
-3.1339
0
LINE
8
BLACK
6
CONTINUOUS
10
4.58203
20
-3.1339
11
4.5821
21
-3.13387
0
LINE
8
BLACK
6
CONTINUOUS
10
4.5821
20
-3.13387
11
4.58215
21
-3.13382
0
LINE
8
BLACK
6
CONTINUOUS
10
4.58215
20
-3.13382
11
4.58235
21
-3.13376
0
LINE
8
BLACK
6
CONTINUOUS
10
4.58235
20
-3.13376
11
4.58254
21
-3.13367
0
LINE
8
BLACK
6
CONTINUOUS
10
4.58254
20
-3.13367
11
4.58261
21
-3.13368
0
LINE
8
BLACK
6
CONTINUOUS
10
4.58261
20
-3.13368
11
4.58268
21
-3.13366
0
LINE
8
BLACK
6
CONTINUOUS
10
4.58268
20
-3.13366
11
4.71654
21
-3.13366
0
LINE
8
BLACK
6
CONTINUOUS
10
4.71654
20
-3.13366
11
4.71681
21
-3.1337
0
LINE
8
BLACK
6
CONTINUOUS
10
4.58366
20
-3.13563
11
4.58366
21
-3.21083
0
LINE
8
BLACK
6
CONTINUOUS
10
4.58366
20
-3.21083
11
4.71555
21
-3.21083
0
LINE
8
BLACK
6
CONTINUOUS
10
4.71555
20
-3.21083
11
4.71555
21
-3.13563
0
LINE
8
BLACK
6
CONTINUOUS
10
4.71555
20
-3.13563
11
4.58366
21
-3.13563
0
LINE
8
BLACK
6
CONTINUOUS
10
4.72729
20
-2.99077
11
4.72735
21
-2.99081
0
LINE
8
BLACK
6
CONTINUOUS
10
4.72735
20
-2.99081
11
4.72742
21
-2.99082
0
LINE
8
BLACK
6
CONTINUOUS
10
4.72742
20
-2.99082
11
4.72758
21
-2.99095
0
LINE
8
BLACK
6
CONTINUOUS
10
4.72758
20
-2.99095
11
4.72776
21
-2.99107
0
LINE
8
BLACK
6
CONTINUOUS
10
4.72776
20
-2.99107
11
4.72779
21
-2.99113
0
LINE
8
BLACK
6
CONTINUOUS
10
4.72779
20
-2.99113
11
4.72784
21
-2.99118
0
LINE
8
BLACK
6
CONTINUOUS
10
4.72784
20
-2.99118
11
4.7279
21
-2.99138
0
LINE
8
BLACK
6
CONTINUOUS
10
4.7279
20
-2.99138
11
4.72799
21
-2.99157
0
LINE
8
BLACK
6
CONTINUOUS
10
4.72799
20
-2.99157
11
4.72798
21
-2.99164
0
LINE
8
BLACK
6
CONTINUOUS
10
4.72798
20
-2.99164
11
4.728
21
-2.99171
0
LINE
8
BLACK
6
CONTINUOUS
10
4.728
20
-2.99171
11
4.728
21
-3.12557
0
LINE
8
BLACK
6
CONTINUOUS
10
4.728
20
-3.12557
11
4.72796
21
-3.12585
0
LINE
8
BLACK
6
CONTINUOUS
10
4.72796
20
-3.12585
11
4.72792
21
-3.12591
0
LINE
8
BLACK
6
CONTINUOUS
10
4.72792
20
-3.12591
11
4.72791
21
-3.12598
0
LINE
8
BLACK
6
CONTINUOUS
10
4.72791
20
-3.12598
11
4.72777
21
-3.12614
0
LINE
8
BLACK
6
CONTINUOUS
10
4.72777
20
-3.12614
11
4.72766
21
-3.12631
0
LINE
8
BLACK
6
CONTINUOUS
10
4.72766
20
-3.12631
11
4.72759
21
-3.12634
0
LINE
8
BLACK
6
CONTINUOUS
10
4.72759
20
-3.12634
11
4.72755
21
-3.1264
0
LINE
8
BLACK
6
CONTINUOUS
10
4.72755
20
-3.1264
11
4.72734
21
-3.12646
0
LINE
8
BLACK
6
CONTINUOUS
10
4.72734
20
-3.12646
11
4.72715
21
-3.12654
0
LINE
8
BLACK
6
CONTINUOUS
10
4.72715
20
-3.12654
11
4.72708
21
-3.12653
0
LINE
8
BLACK
6
CONTINUOUS
10
4.72708
20
-3.12653
11
4.72701
21
-3.12655
0
LINE
8
BLACK
6
CONTINUOUS
10
4.72701
20
-3.12655
11
4.56166
21
-3.12655
0
LINE
8
BLACK
6
CONTINUOUS
10
4.56166
20
-3.12655
11
4.56138
21
-3.12651
0
LINE
8
BLACK
6
CONTINUOUS
10
4.56138
20
-3.12651
11
4.56132
21
-3.12647
0
LINE
8
BLACK
6
CONTINUOUS
10
4.56132
20
-3.12647
11
4.56125
21
-3.12646
0
LINE
8
BLACK
6
CONTINUOUS
10
4.56125
20
-3.12646
11
4.56109
21
-3.12633
0
LINE
8
BLACK
6
CONTINUOUS
10
4.56109
20
-3.12633
11
4.56092
21
-3.12621
0
LINE
8
BLACK
6
CONTINUOUS
10
4.56092
20
-3.12621
11
4.56089
21
-3.12615
0
LINE
8
BLACK
6
CONTINUOUS
10
4.56089
20
-3.12615
11
4.56083
21
-3.1261
0
LINE
8
BLACK
6
CONTINUOUS
10
4.56083
20
-3.1261
11
4.56077
21
-3.1259
0
LINE
8
BLACK
6
CONTINUOUS
10
4.56077
20
-3.1259
11
4.56069
21
-3.12571
0
LINE
8
BLACK
6
CONTINUOUS
10
4.56069
20
-3.12571
11
4.5607
21
-3.12564
0
LINE
8
BLACK
6
CONTINUOUS
10
4.5607
20
-3.12564
11
4.56068
21
-3.12557
0
LINE
8
BLACK
6
CONTINUOUS
10
4.56068
20
-3.12557
11
4.56068
21
-2.99171
0
LINE
8
BLACK
6
CONTINUOUS
10
4.56068
20
-2.99171
11
4.56072
21
-2.99143
0
LINE
8
BLACK
6
CONTINUOUS
10
4.56072
20
-2.99143
11
4.56076
21
-2.99137
0
LINE
8
BLACK
6
CONTINUOUS
10
4.56076
20
-2.99137
11
4.56077
21
-2.9913
0
LINE
8
BLACK
6
CONTINUOUS
10
4.56077
20
-2.9913
11
4.5609
21
-2.99114
0
LINE
8
BLACK
6
CONTINUOUS
10
4.5609
20
-2.99114
11
4.56102
21
-2.99097
0
LINE
8
BLACK
6
CONTINUOUS
10
4.56102
20
-2.99097
11
4.56108
21
-2.99094
0
LINE
8
BLACK
6
CONTINUOUS
10
4.56108
20
-2.99094
11
4.56113
21
-2.99088
0
LINE
8
BLACK
6
CONTINUOUS
10
4.56113
20
-2.99088
11
4.56133
21
-2.99082
0
LINE
8
BLACK
6
CONTINUOUS
10
4.56133
20
-2.99082
11
4.56152
21
-2.99074
0
LINE
8
BLACK
6
CONTINUOUS
10
4.56152
20
-2.99074
11
4.56159
21
-2.99075
0
LINE
8
BLACK
6
CONTINUOUS
10
4.56159
20
-2.99075
11
4.56166
21
-2.99073
0
LINE
8
BLACK
6
CONTINUOUS
10
4.56166
20
-2.99073
11
4.72701
21
-2.99073
0
LINE
8
BLACK
6
CONTINUOUS
10
4.72701
20
-2.99073
11
4.72729
21
-2.99077
0
LINE
8
BLACK
6
CONTINUOUS
10
4.56264
20
-2.99269
11
4.56264
21
-3.12458
0
LINE
8
BLACK
6
CONTINUOUS
10
4.56264
20
-3.12458
11
4.72603
21
-3.12458
0
LINE
8
BLACK
6
CONTINUOUS
10
4.72603
20
-3.12458
11
4.72603
21
-2.99269
0
LINE
8
BLACK
6
CONTINUOUS
10
4.72603
20
-2.99269
11
4.56264
21
-2.99269
0
LINE
8
BLACK
6
CONTINUOUS
10
5.08374
20
-2.78961
11
5.0838
21
-2.78965
0
LINE
8
BLACK
6
CONTINUOUS
10
5.0838
20
-2.78965
11
5.08387
21
-2.78966
0
LINE
8
BLACK
6
CONTINUOUS
10
5.08387
20
-2.78966
11
5.08403
21
-2.78979
0
LINE
8
BLACK
6
CONTINUOUS
10
5.08403
20
-2.78979
11
5.08421
21
-2.78991
0
LINE
8
BLACK
6
CONTINUOUS
10
5.08421
20
-2.78991
11
5.08424
21
-2.78997
0
LINE
8
BLACK
6
CONTINUOUS
10
5.08424
20
-2.78997
11
5.08429
21
-2.79002
0
LINE
8
BLACK
6
CONTINUOUS
10
5.08429
20
-2.79002
11
5.08435
21
-2.79022
0
LINE
8
BLACK
6
CONTINUOUS
10
5.08435
20
-2.79022
11
5.08444
21
-2.79041
0
LINE
8
BLACK
6
CONTINUOUS
10
5.08444
20
-2.79041
11
5.08443
21
-2.79048
0
LINE
8
BLACK
6
CONTINUOUS
10
5.08443
20
-2.79048
11
5.08445
21
-2.79055
0
LINE
8
BLACK
6
CONTINUOUS
10
5.08445
20
-2.79055
11
5.08445
21
-3.11496
0
LINE
8
BLACK
6
CONTINUOUS
10
5.08445
20
-3.11496
11
5.08441
21
-3.11524
0
LINE
8
BLACK
6
CONTINUOUS
10
5.08441
20
-3.11524
11
5.08437
21
-3.1153
0
LINE
8
BLACK
6
CONTINUOUS
10
5.08437
20
-3.1153
11
5.08436
21
-3.11537
0
LINE
8
BLACK
6
CONTINUOUS
10
5.08436
20
-3.11537
11
5.08422
21
-3.11553
0
LINE
8
BLACK
6
CONTINUOUS
10
5.08422
20
-3.11553
11
5.08411
21
-3.11571
0
LINE
8
BLACK
6
CONTINUOUS
10
5.08411
20
-3.11571
11
5.08404
21
-3.11574
0
LINE
8
BLACK
6
CONTINUOUS
10
5.08404
20
-3.11574
11
5.084
21
-3.11579
0
LINE
8
BLACK
6
CONTINUOUS
10
5.084
20
-3.11579
11
5.08379
21
-3.11585
0
LINE
8
BLACK
6
CONTINUOUS
10
5.08379
20
-3.11585
11
5.0836
21
-3.11594
0
LINE
8
BLACK
6
CONTINUOUS
10
5.0836
20
-3.11594
11
5.08353
21
-3.11592
0
LINE
8
BLACK
6
CONTINUOUS
10
5.08353
20
-3.11592
11
5.08346
21
-3.11594
0
LINE
8
BLACK
6
CONTINUOUS
10
5.08346
20
-3.11594
11
4.75906
21
-3.11594
0
LINE
8
BLACK
6
CONTINUOUS
10
4.75906
20
-3.11594
11
4.75878
21
-3.1159
0
LINE
8
BLACK
6
CONTINUOUS
10
4.75878
20
-3.1159
11
4.75872
21
-3.11587
0
LINE
8
BLACK
6
CONTINUOUS
10
4.75872
20
-3.11587
11
4.75865
21
-3.11586
0
LINE
8
BLACK
6
CONTINUOUS
10
4.75865
20
-3.11586
11
4.75849
21
-3.11572
0
LINE
8
BLACK
6
CONTINUOUS
10
4.75849
20
-3.11572
11
4.75831
21
-3.1156
0
LINE
8
BLACK
6
CONTINUOUS
10
4.75831
20
-3.1156
11
4.75828
21
-3.11554
0
LINE
8
BLACK
6
CONTINUOUS
10
4.75828
20
-3.11554
11
4.75823
21
-3.11549
0
LINE
8
BLACK
6
CONTINUOUS
10
4.75823
20
-3.11549
11
4.75817
21
-3.11529
0
LINE
8
BLACK
6
CONTINUOUS
10
4.75817
20
-3.11529
11
4.75808
21
-3.1151
0
LINE
8
BLACK
6
CONTINUOUS
10
4.75808
20
-3.1151
11
4.75809
21
-3.11503
0
LINE
8
BLACK
6
CONTINUOUS
10
4.75809
20
-3.11503
11
4.75807
21
-3.11496
0
LINE
8
BLACK
6
CONTINUOUS
10
4.75807
20
-3.11496
11
4.75807
21
-2.79055
0
LINE
8
BLACK
6
CONTINUOUS
10
4.75807
20
-2.79055
11
4.75811
21
-2.79027
0
LINE
8
BLACK
6
CONTINUOUS
10
4.75811
20
-2.79027
11
4.75815
21
-2.79021
0
LINE
8
BLACK
6
CONTINUOUS
10
4.75815
20
-2.79021
11
4.75816
21
-2.79014
0
LINE
8
BLACK
6
CONTINUOUS
10
4.75816
20
-2.79014
11
4.7583
21
-2.78998
0
LINE
8
BLACK
6
CONTINUOUS
10
4.7583
20
-2.78998
11
4.75841
21
-2.78981
0
LINE
8
BLACK
6
CONTINUOUS
10
4.75841
20
-2.78981
11
4.75848
21
-2.78978
0
LINE
8
BLACK
6
CONTINUOUS
10
4.75848
20
-2.78978
11
4.75852
21
-2.78972
0
LINE
8
BLACK
6
CONTINUOUS
10
4.75852
20
-2.78972
11
4.75873
21
-2.78966
0
LINE
8
BLACK
6
CONTINUOUS
10
4.75873
20
-2.78966
11
4.75892
21
-2.78958
0
LINE
8
BLACK
6
CONTINUOUS
10
4.75892
20
-2.78958
11
4.75899
21
-2.78959
0
LINE
8
BLACK
6
CONTINUOUS
10
4.75899
20
-2.78959
11
4.75906
21
-2.78957
0
LINE
8
BLACK
6
CONTINUOUS
10
4.75906
20
-2.78957
11
5.08346
21
-2.78957
0
LINE
8
BLACK
6
CONTINUOUS
10
5.08346
20
-2.78957
11
5.08374
21
-2.78961
0
LINE
8
BLACK
6
CONTINUOUS
10
4.76004
20
-2.79154
11
4.76004
21
-3.11398
0
LINE
8
BLACK
6
CONTINUOUS
10
4.76004
20
-3.11398
11
5.08248
21
-3.11398
0
LINE
8
BLACK
6
CONTINUOUS
10
5.08248
20
-3.11398
11
5.08248
21
-2.79154
0
LINE
8
BLACK
6
CONTINUOUS
10
5.08248
20
-2.79154
11
4.76004
21
-2.79154
0
LINE
8
BLACK
6
CONTINUOUS
10
5.41288
20
-2.96362
11
5.41294
21
-2.96366
0
LINE
8
BLACK
6
CONTINUOUS
10
5.41294
20
-2.96366
11
5.41301
21
-2.96367
0
LINE
8
BLACK
6
CONTINUOUS
10
5.41301
20
-2.96367
11
5.41317
21
-2.96381
0
LINE
8
BLACK
6
CONTINUOUS
10
5.41317
20
-2.96381
11
5.41334
21
-2.96392
0
LINE
8
BLACK
6
CONTINUOUS
10
5.41334
20
-2.96392
11
5.41337
21
-2.96399
0
LINE
8
BLACK
6
CONTINUOUS
10
5.41337
20
-2.96399
11
5.41343
21
-2.96404
0
LINE
8
BLACK
6
CONTINUOUS
10
5.41343
20
-2.96404
11
5.41349
21
-2.96424
0
LINE
8
BLACK
6
CONTINUOUS
10
5.41349
20
-2.96424
11
5.41357
21
-2.96443
0
LINE
8
BLACK
6
CONTINUOUS
10
5.41357
20
-2.96443
11
5.41356
21
-2.9645
0
LINE
8
BLACK
6
CONTINUOUS
10
5.41356
20
-2.9645
11
5.41358
21
-2.96457
0
LINE
8
BLACK
6
CONTINUOUS
10
5.41358
20
-2.96457
11
5.41358
21
-3.09843
0
LINE
8
BLACK
6
CONTINUOUS
10
5.41358
20
-3.09843
11
5.41354
21
-3.0987
0
LINE
8
BLACK
6
CONTINUOUS
10
5.41354
20
-3.0987
11
5.4135
21
-3.09876
0
LINE
8
BLACK
6
CONTINUOUS
10
5.4135
20
-3.09876
11
5.41349
21
-3.09883
0
LINE
8
BLACK
6
CONTINUOUS
10
5.41349
20
-3.09883
11
5.41336
21
-3.09899
0
LINE
8
BLACK
6
CONTINUOUS
10
5.41336
20
-3.09899
11
5.41324
21
-3.09917
0
LINE
8
BLACK
6
CONTINUOUS
10
5.41324
20
-3.09917
11
5.41318
21
-3.0992
0
LINE
8
BLACK
6
CONTINUOUS
10
5.41318
20
-3.0992
11
5.41313
21
-3.09925
0
LINE
8
BLACK
6
CONTINUOUS
10
5.41313
20
-3.09925
11
5.41293
21
-3.09931
0
LINE
8
BLACK
6
CONTINUOUS
10
5.41293
20
-3.09931
11
5.41274
21
-3.0994
0
LINE
8
BLACK
6
CONTINUOUS
10
5.41274
20
-3.0994
11
5.41267
21
-3.09939
0
LINE
8
BLACK
6
CONTINUOUS
10
5.41267
20
-3.09939
11
5.4126
21
-3.09941
0
LINE
8
BLACK
6
CONTINUOUS
10
5.4126
20
-3.09941
11
5.33543
21
-3.09941
0
LINE
8
BLACK
6
CONTINUOUS
10
5.33543
20
-3.09941
11
5.33515
21
-3.09937
0
LINE
8
BLACK
6
CONTINUOUS
10
5.33515
20
-3.09937
11
5.33509
21
-3.09933
0
LINE
8
BLACK
6
CONTINUOUS
10
5.33509
20
-3.09933
11
5.33502
21
-3.09932
0
LINE
8
BLACK
6
CONTINUOUS
10
5.33502
20
-3.09932
11
5.33486
21
-3.09918
0
LINE
8
BLACK
6
CONTINUOUS
10
5.33486
20
-3.09918
11
5.33469
21
-3.09907
0
LINE
8
BLACK
6
CONTINUOUS
10
5.33469
20
-3.09907
11
5.33466
21
-3.099
0
LINE
8
BLACK
6
CONTINUOUS
10
5.33466
20
-3.099
11
5.3346
21
-3.09896
0
LINE
8
BLACK
6
CONTINUOUS
10
5.3346
20
-3.09896
11
5.33455
21
-3.09876
0
LINE
8
BLACK
6
CONTINUOUS
10
5.33455
20
-3.09876
11
5.33446
21
-3.09856
0
LINE
8
BLACK
6
CONTINUOUS
10
5.33446
20
-3.09856
11
5.33447
21
-3.09849
0
LINE
8
BLACK
6
CONTINUOUS
10
5.33447
20
-3.09849
11
5.33445
21
-3.09843
0
LINE
8
BLACK
6
CONTINUOUS
10
5.33445
20
-3.09843
11
5.33445
21
-2.96457
0
LINE
8
BLACK
6
CONTINUOUS
10
5.33445
20
-2.96457
11
5.33449
21
-2.96429
0
LINE
8
BLACK
6
CONTINUOUS
10
5.33449
20
-2.96429
11
5.33453
21
-2.96423
0
LINE
8
BLACK
6
CONTINUOUS
10
5.33453
20
-2.96423
11
5.33454
21
-2.96416
0
LINE
8
BLACK
6
CONTINUOUS
10
5.33454
20
-2.96416
11
5.33468
21
-2.964
0
LINE
8
BLACK
6
CONTINUOUS
10
5.33468
20
-2.964
11
5.33479
21
-2.96382
0
LINE
8
BLACK
6
CONTINUOUS
10
5.33479
20
-2.96382
11
5.33485
21
-2.96379
0
LINE
8
BLACK
6
CONTINUOUS
10
5.33485
20
-2.96379
11
5.3349
21
-2.96374
0
LINE
8
BLACK
6
CONTINUOUS
10
5.3349
20
-2.96374
11
5.3351
21
-2.96368
0
LINE
8
BLACK
6
CONTINUOUS
10
5.3351
20
-2.96368
11
5.33529
21
-2.96359
0
LINE
8
BLACK
6
CONTINUOUS
10
5.33529
20
-2.96359
11
5.33536
21
-2.9636
0
LINE
8
BLACK
6
CONTINUOUS
10
5.33536
20
-2.9636
11
5.33543
21
-2.96358
0
LINE
8
BLACK
6
CONTINUOUS
10
5.33543
20
-2.96358
11
5.4126
21
-2.96358
0
LINE
8
BLACK
6
CONTINUOUS
10
5.4126
20
-2.96358
11
5.41288
21
-2.96362
0
LINE
8
BLACK
6
CONTINUOUS
10
5.33642
20
-2.96555
11
5.33642
21
-3.09744
0
LINE
8
BLACK
6
CONTINUOUS
10
5.33642
20
-3.09744
11
5.41161
21
-3.09744
0
LINE
8
BLACK
6
CONTINUOUS
10
5.41161
20
-3.09744
11
5.41161
21
-2.96555
0
LINE
8
BLACK
6
CONTINUOUS
10
5.41161
20
-2.96555
11
5.33642
21
-2.96555
0
LINE
8
BLACK
6
CONTINUOUS
10
6.12036
20
-2.74906
11
6.12042
21
-2.74909
0
LINE
8
BLACK
6
CONTINUOUS
10
6.12042
20
-2.74909
11
6.12049
21
-2.74911
0
LINE
8
BLACK
6
CONTINUOUS
10
6.12049
20
-2.74911
11
6.12065
21
-2.74924
0
LINE
8
BLACK
6
CONTINUOUS
10
6.12065
20
-2.74924
11
6.12082
21
-2.74936
0
LINE
8
BLACK
6
CONTINUOUS
10
6.12082
20
-2.74936
11
6.12085
21
-2.74942
0
LINE
8
BLACK
6
CONTINUOUS
10
6.12085
20
-2.74942
11
6.12091
21
-2.74947
0
LINE
8
BLACK
6
CONTINUOUS
10
6.12091
20
-2.74947
11
6.12097
21
-2.74967
0
LINE
8
BLACK
6
CONTINUOUS
10
6.12097
20
-2.74967
11
6.12105
21
-2.74986
0
LINE
8
BLACK
6
CONTINUOUS
10
6.12105
20
-2.74986
11
6.12104
21
-2.74993
0
LINE
8
BLACK
6
CONTINUOUS
10
6.12104
20
-2.74993
11
6.12106
21
-2.75
0
LINE
8
BLACK
6
CONTINUOUS
10
6.12106
20
-2.75
11
6.12106
21
-3.03346
0
LINE
8
BLACK
6
CONTINUOUS
10
6.12106
20
-3.03346
11
6.12102
21
-3.03374
0
LINE
8
BLACK
6
CONTINUOUS
10
6.12102
20
-3.03374
11
6.12098
21
-3.0338
0
LINE
8
BLACK
6
CONTINUOUS
10
6.12098
20
-3.0338
11
6.12097
21
-3.03387
0
LINE
8
BLACK
6
CONTINUOUS
10
6.12097
20
-3.03387
11
6.12084
21
-3.03403
0
LINE
8
BLACK
6
CONTINUOUS
10
6.12084
20
-3.03403
11
6.12072
21
-3.03421
0
LINE
8
BLACK
6
CONTINUOUS
10
6.12072
20
-3.03421
11
6.12066
21
-3.03424
0
LINE
8
BLACK
6
CONTINUOUS
10
6.12066
20
-3.03424
11
6.12061
21
-3.03429
0
LINE
8
BLACK
6
CONTINUOUS
10
6.12061
20
-3.03429
11
6.12041
21
-3.03435
0
LINE
8
BLACK
6
CONTINUOUS
10
6.12041
20
-3.03435
11
6.12022
21
-3.03444
0
LINE
8
BLACK
6
CONTINUOUS
10
6.12022
20
-3.03444
11
6.12015
21
-3.03443
0
LINE
8
BLACK
6
CONTINUOUS
10
6.12015
20
-3.03443
11
6.12008
21
-3.03445
0
LINE
8
BLACK
6
CONTINUOUS
10
6.12008
20
-3.03445
11
5.77362
21
-3.03445
0
LINE
8
BLACK
6
CONTINUOUS
10
5.77362
20
-3.03445
11
5.77334
21
-3.03441
0
LINE
8
BLACK
6
CONTINUOUS
10
5.77334
20
-3.03441
11
5.77328
21
-3.03437
0
LINE
8
BLACK
6
CONTINUOUS
10
5.77328
20
-3.03437
11
5.77321
21
-3.03436
0
LINE
8
BLACK
6
CONTINUOUS
10
5.77321
20
-3.03436
11
5.77305
21
-3.03422
0
LINE
8
BLACK
6
CONTINUOUS
10
5.77305
20
-3.03422
11
5.77288
21
-3.03411
0
LINE
8
BLACK
6
CONTINUOUS
10
5.77288
20
-3.03411
11
5.77285
21
-3.03404
0
LINE
8
BLACK
6
CONTINUOUS
10
5.77285
20
-3.03404
11
5.77279
21
-3.034
0
LINE
8
BLACK
6
CONTINUOUS
10
5.77279
20
-3.034
11
5.77273
21
-3.03379
0
LINE
8
BLACK
6
CONTINUOUS
10
5.77273
20
-3.03379
11
5.77265
21
-3.0336
0
LINE
8
BLACK
6
CONTINUOUS
10
5.77265
20
-3.0336
11
5.77266
21
-3.03353
0
LINE
8
BLACK
6
CONTINUOUS
10
5.77266
20
-3.03353
11
5.77264
21
-3.03346
0
LINE
8
BLACK
6
CONTINUOUS
10
5.77264
20
-3.03346
11
5.77264
21
-2.75
0
LINE
8
BLACK
6
CONTINUOUS
10
5.77264
20
-2.75
11
5.77268
21
-2.74972
0
LINE
8
BLACK
6
CONTINUOUS
10
5.77268
20
-2.74972
11
5.77272
21
-2.74966
0
LINE
8
BLACK
6
CONTINUOUS
10
5.77272
20
-2.74966
11
5.77273
21
-2.74959
0
LINE
8
BLACK
6
CONTINUOUS
10
5.77273
20
-2.74959
11
5.77286
21
-2.74943
0
LINE
8
BLACK
6
CONTINUOUS
10
5.77286
20
-2.74943
11
5.77298
21
-2.74925
0
LINE
8
BLACK
6
CONTINUOUS
10
5.77298
20
-2.74925
11
5.77304
21
-2.74923
0
LINE
8
BLACK
6
CONTINUOUS
10
5.77304
20
-2.74923
11
5.77309
21
-2.74917
0
LINE
8
BLACK
6
CONTINUOUS
10
5.77309
20
-2.74917
11
5.77329
21
-2.74911
0
LINE
8
BLACK
6
CONTINUOUS
10
5.77329
20
-2.74911
11
5.77348
21
-2.74903
0
LINE
8
BLACK
6
CONTINUOUS
10
5.77348
20
-2.74903
11
5.77355
21
-2.74904
0
LINE
8
BLACK
6
CONTINUOUS
10
5.77355
20
-2.74904
11
5.77362
21
-2.74902
0
LINE
8
BLACK
6
CONTINUOUS
10
5.77362
20
-2.74902
11
6.12008
21
-2.74902
0
LINE
8
BLACK
6
CONTINUOUS
10
6.12008
20
-2.74902
11
6.12036
21
-2.74906
0
LINE
8
BLACK
6
CONTINUOUS
10
5.77461
20
-2.75098
11
5.77461
21
-3.03248
0
LINE
8
BLACK
6
CONTINUOUS
10
5.77461
20
-3.03248
11
6.11909
21
-3.03248
0
LINE
8
BLACK
6
CONTINUOUS
10
6.11909
20
-3.03248
11
6.11909
21
-2.75098
0
LINE
8
BLACK
6
CONTINUOUS
10
6.11909
20
-2.75098
11
5.77461
21
-2.75098
0
LINE
8
BLACK
6
CONTINUOUS
10
4.71681
20
-2.90693
11
4.71687
21
-2.90697
0
LINE
8
BLACK
6
CONTINUOUS
10
4.71687
20
-2.90697
11
4.71695
21
-2.90698
0
LINE
8
BLACK
6
CONTINUOUS
10
4.71695
20
-2.90698
11
4.7171
21
-2.90712
0
LINE
8
BLACK
6
CONTINUOUS
10
4.7171
20
-2.90712
11
4.71728
21
-2.90723
0
LINE
8
BLACK
6
CONTINUOUS
10
4.71728
20
-2.90723
11
4.71731
21
-2.9073
0
LINE
8
BLACK
6
CONTINUOUS
10
4.71731
20
-2.9073
11
4.71736
21
-2.90734
0
LINE
8
BLACK
6
CONTINUOUS
10
4.71736
20
-2.90734
11
4.71742
21
-2.90754
0
LINE
8
BLACK
6
CONTINUOUS
10
4.71742
20
-2.90754
11
4.71751
21
-2.90774
0
LINE
8
BLACK
6
CONTINUOUS
10
4.71751
20
-2.90774
11
4.7175
21
-2.90781
0
LINE
8
BLACK
6
CONTINUOUS
10
4.7175
20
-2.90781
11
4.71752
21
-2.90787
0
LINE
8
BLACK
6
CONTINUOUS
10
4.71752
20
-2.90787
11
4.71752
21
-2.98504
0
LINE
8
BLACK
6
CONTINUOUS
10
4.71752
20
-2.98504
11
4.71748
21
-2.98532
0
LINE
8
BLACK
6
CONTINUOUS
10
4.71748
20
-2.98532
11
4.71744
21
-2.98538
0
LINE
8
BLACK
6
CONTINUOUS
10
4.71744
20
-2.98538
11
4.71743
21
-2.98545
0
LINE
8
BLACK
6
CONTINUOUS
10
4.71743
20
-2.98545
11
4.71729
21
-2.98561
0
LINE
8
BLACK
6
CONTINUOUS
10
4.71729
20
-2.98561
11
4.71718
21
-2.98578
0
LINE
8
BLACK
6
CONTINUOUS
10
4.71718
20
-2.98578
11
4.71711
21
-2.98581
0
LINE
8
BLACK
6
CONTINUOUS
10
4.71711
20
-2.98581
11
4.71707
21
-2.98587
0
LINE
8
BLACK
6
CONTINUOUS
10
4.71707
20
-2.98587
11
4.71687
21
-2.98593
0
LINE
8
BLACK
6
CONTINUOUS
10
4.71687
20
-2.98593
11
4.71667
21
-2.98601
0
LINE
8
BLACK
6
CONTINUOUS
10
4.71667
20
-2.98601
11
4.7166
21
-2.986
0
LINE
8
BLACK
6
CONTINUOUS
10
4.7166
20
-2.986
11
4.71654
21
-2.98602
0
LINE
8
BLACK
6
CONTINUOUS
10
4.71654
20
-2.98602
11
4.58268
21
-2.98602
0
LINE
8
BLACK
6
CONTINUOUS
10
4.58268
20
-2.98602
11
4.5824
21
-2.98598
0
LINE
8
BLACK
6
CONTINUOUS
10
4.5824
20
-2.98598
11
4.58234
21
-2.98594
0
LINE
8
BLACK
6
CONTINUOUS
10
4.58234
20
-2.98594
11
4.58227
21
-2.98593
0
LINE
8
BLACK
6
CONTINUOUS
10
4.58227
20
-2.98593
11
4.58211
21
-2.9858
0
LINE
8
BLACK
6
CONTINUOUS
10
4.58211
20
-2.9858
11
4.58193
21
-2.98568
0
LINE
8
BLACK
6
CONTINUOUS
10
4.58193
20
-2.98568
11
4.5819
21
-2.98562
0
LINE
8
BLACK
6
CONTINUOUS
10
4.5819
20
-2.98562
11
4.58185
21
-2.98557
0
LINE
8
BLACK
6
CONTINUOUS
10
4.58185
20
-2.98557
11
4.58179
21
-2.98537
0
LINE
8
BLACK
6
CONTINUOUS
10
4.58179
20
-2.98537
11
4.5817
21
-2.98518
0
LINE
8
BLACK
6
CONTINUOUS
10
4.5817
20
-2.98518
11
4.58171
21
-2.98511
0
LINE
8
BLACK
6
CONTINUOUS
10
4.58171
20
-2.98511
11
4.58169
21
-2.98504
0
LINE
8
BLACK
6
CONTINUOUS
10
4.58169
20
-2.98504
11
4.58169
21
-2.90787
0
LINE
8
BLACK
6
CONTINUOUS
10
4.58169
20
-2.90787
11
4.58173
21
-2.90759
0
LINE
8
BLACK
6
CONTINUOUS
10
4.58173
20
-2.90759
11
4.58177
21
-2.90753
0
LINE
8
BLACK
6
CONTINUOUS
10
4.58177
20
-2.90753
11
4.58178
21
-2.90746
0
LINE
8
BLACK
6
CONTINUOUS
10
4.58178
20
-2.90746
11
4.58192
21
-2.90731
0
LINE
8
BLACK
6
CONTINUOUS
10
4.58192
20
-2.90731
11
4.58203
21
-2.90713
0
LINE
8
BLACK
6
CONTINUOUS
10
4.58203
20
-2.90713
11
4.5821
21
-2.9071
0
LINE
8
BLACK
6
CONTINUOUS
10
4.5821
20
-2.9071
11
4.58215
21
-2.90705
0
LINE
8
BLACK
6
CONTINUOUS
10
4.58215
20
-2.90705
11
4.58235
21
-2.90699
0
LINE
8
BLACK
6
CONTINUOUS
10
4.58235
20
-2.90699
11
4.58254
21
-2.9069
0
LINE
8
BLACK
6
CONTINUOUS
10
4.58254
20
-2.9069
11
4.58261
21
-2.90691
0
LINE
8
BLACK
6
CONTINUOUS
10
4.58261
20
-2.90691
11
4.58268
21
-2.90689
0
LINE
8
BLACK
6
CONTINUOUS
10
4.58268
20
-2.90689
11
4.71654
21
-2.90689
0
LINE
8
BLACK
6
CONTINUOUS
10
4.71654
20
-2.90689
11
4.71681
21
-2.90693
0
LINE
8
BLACK
6
CONTINUOUS
10
4.58366
20
-2.90886
11
4.58366
21
-2.98406
0
LINE
8
BLACK
6
CONTINUOUS
10
4.58366
20
-2.98406
11
4.71555
21
-2.98406
0
LINE
8
BLACK
6
CONTINUOUS
10
4.71555
20
-2.98406
11
4.71555
21
-2.90886
0
LINE
8
BLACK
6
CONTINUOUS
10
4.71555
20
-2.90886
11
4.58366
21
-2.90886
0
LINE
8
BLACK
6
CONTINUOUS
10
5.23768
20
-2.89354
11
5.23774
21
-2.89358
0
LINE
8
BLACK
6
CONTINUOUS
10
5.23774
20
-2.89358
11
5.23781
21
-2.89359
0
LINE
8
BLACK
6
CONTINUOUS
10
5.23781
20
-2.89359
11
5.23797
21
-2.89373
0
LINE
8
BLACK
6
CONTINUOUS
10
5.23797
20
-2.89373
11
5.23815
21
-2.89385
0
LINE
8
BLACK
6
CONTINUOUS
10
5.23815
20
-2.89385
11
5.23818
21
-2.89391
0
LINE
8
BLACK
6
CONTINUOUS
10
5.23818
20
-2.89391
11
5.23823
21
-2.89396
0
LINE
8
BLACK
6
CONTINUOUS
10
5.23823
20
-2.89396
11
5.23829
21
-2.89416
0
LINE
8
BLACK
6
CONTINUOUS
10
5.23829
20
-2.89416
11
5.23838
21
-2.89435
0
LINE
8
BLACK
6
CONTINUOUS
10
5.23838
20
-2.89435
11
5.23837
21
-2.89442
0
LINE
8
BLACK
6
CONTINUOUS
10
5.23837
20
-2.89442
11
5.23839
21
-2.89449
0
LINE
8
BLACK
6
CONTINUOUS
10
5.23839
20
-2.89449
11
5.23839
21
-2.95197
0
LINE
8
BLACK
6
CONTINUOUS
10
5.23839
20
-2.95197
11
5.23835
21
-2.95225
0
LINE
8
BLACK
6
CONTINUOUS
10
5.23835
20
-2.95225
11
5.23831
21
-2.95231
0
LINE
8
BLACK
6
CONTINUOUS
10
5.23831
20
-2.95231
11
5.2383
21
-2.95238
0
LINE
8
BLACK
6
CONTINUOUS
10
5.2383
20
-2.95238
11
5.23816
21
-2.95254
0
LINE
8
BLACK
6
CONTINUOUS
10
5.23816
20
-2.95254
11
5.23804
21
-2.95271
0
LINE
8
BLACK
6
CONTINUOUS
10
5.23804
20
-2.95271
11
5.23798
21
-2.95274
0
LINE
8
BLACK
6
CONTINUOUS
10
5.23798
20
-2.95274
11
5.23793
21
-2.9528
0
LINE
8
BLACK
6
CONTINUOUS
10
5.23793
20
-2.9528
11
5.23773
21
-2.95286
0
LINE
8
BLACK
6
CONTINUOUS
10
5.23773
20
-2.95286
11
5.23754
21
-2.95294
0
LINE
8
BLACK
6
CONTINUOUS
10
5.23754
20
-2.95294
11
5.23747
21
-2.95293
0
LINE
8
BLACK
6
CONTINUOUS
10
5.23747
20
-2.95293
11
5.2374
21
-2.95295
0
LINE
8
BLACK
6
CONTINUOUS
10
5.2374
20
-2.95295
11
5.12087
21
-2.95295
0
LINE
8
BLACK
6
CONTINUOUS
10
5.12087
20
-2.95295
11
5.12059
21
-2.95291
0
LINE
8
BLACK
6
CONTINUOUS
10
5.12059
20
-2.95291
11
5.12053
21
-2.95287
0
LINE
8
BLACK
6
CONTINUOUS
10
5.12053
20
-2.95287
11
5.12046
21
-2.95286
0
LINE
8
BLACK
6
CONTINUOUS
10
5.12046
20
-2.95286
11
5.1203
21
-2.95273
0
LINE
8
BLACK
6
CONTINUOUS
10
5.1203
20
-2.95273
11
5.12012
21
-2.95261
0
LINE
8
BLACK
6
CONTINUOUS
10
5.12012
20
-2.95261
11
5.12009
21
-2.95255
0
LINE
8
BLACK
6
CONTINUOUS
10
5.12009
20
-2.95255
11
5.12004
21
-2.9525
0
LINE
8
BLACK
6
CONTINUOUS
10
5.12004
20
-2.9525
11
5.11998
21
-2.9523
0
LINE
8
BLACK
6
CONTINUOUS
10
5.11998
20
-2.9523
11
5.11989
21
-2.95211
0
LINE
8
BLACK
6
CONTINUOUS
10
5.11989
20
-2.95211
11
5.1199
21
-2.95204
0
LINE
8
BLACK
6
CONTINUOUS
10
5.1199
20
-2.95204
11
5.11988
21
-2.95197
0
LINE
8
BLACK
6
CONTINUOUS
10
5.11988
20
-2.95197
11
5.11988
21
-2.89449
0
LINE
8
BLACK
6
CONTINUOUS
10
5.11988
20
-2.89449
11
5.11992
21
-2.89421
0
LINE
8
BLACK
6
CONTINUOUS
10
5.11992
20
-2.89421
11
5.11996
21
-2.89415
0
LINE
8
BLACK
6
CONTINUOUS
10
5.11996
20
-2.89415
11
5.11997
21
-2.89408
0
LINE
8
BLACK
6
CONTINUOUS
10
5.11997
20
-2.89408
11
5.12011
21
-2.89392
0
LINE
8
BLACK
6
CONTINUOUS
10
5.12011
20
-2.89392
11
5.12022
21
-2.89374
0
LINE
8
BLACK
6
CONTINUOUS
10
5.12022
20
-2.89374
11
5.12029
21
-2.89371
0
LINE
8
BLACK
6
CONTINUOUS
10
5.12029
20
-2.89371
11
5.12033
21
-2.89366
0
LINE
8
BLACK
6
CONTINUOUS
10
5.12033
20
-2.89366
11
5.12054
21
-2.8936
0
LINE
8
BLACK
6
CONTINUOUS
10
5.12054
20
-2.8936
11
5.12073
21
-2.89351
0
LINE
8
BLACK
6
CONTINUOUS
10
5.12073
20
-2.89351
11
5.1208
21
-2.89352
0
LINE
8
BLACK
6
CONTINUOUS
10
5.1208
20
-2.89352
11
5.12087
21
-2.8935
0
LINE
8
BLACK
6
CONTINUOUS
10
5.12087
20
-2.8935
11
5.2374
21
-2.8935
0
LINE
8
BLACK
6
CONTINUOUS
10
5.2374
20
-2.8935
11
5.23768
21
-2.89354
0
LINE
8
BLACK
6
CONTINUOUS
10
5.12185
20
-2.89547
11
5.12185
21
-2.95098
0
LINE
8
BLACK
6
CONTINUOUS
10
5.12185
20
-2.95098
11
5.23642
21
-2.95098
0
LINE
8
BLACK
6
CONTINUOUS
10
5.23642
20
-2.95098
11
5.23642
21
-2.89547
0
LINE
8
BLACK
6
CONTINUOUS
10
5.23642
20
-2.89547
11
5.12185
21
-2.89547
0
LINE
8
BLACK
6
CONTINUOUS
10
5.76472
20
-2.94122
11
5.76468
21
-2.94128
0
LINE
8
BLACK
6
CONTINUOUS
10
5.76468
20
-2.94128
11
5.76467
21
-2.94135
0
LINE
8
BLACK
6
CONTINUOUS
10
5.76467
20
-2.94135
11
5.76454
21
-2.94151
0
LINE
8
BLACK
6
CONTINUOUS
10
5.76454
20
-2.94151
11
5.76442
21
-2.94169
0
LINE
8
BLACK
6
CONTINUOUS
10
5.76442
20
-2.94169
11
5.76436
21
-2.94172
0
LINE
8
BLACK
6
CONTINUOUS
10
5.76436
20
-2.94172
11
5.76431
21
-2.94177
0
LINE
8
BLACK
6
CONTINUOUS
10
5.76431
20
-2.94177
11
5.76411
21
-2.94183
0
LINE
8
BLACK
6
CONTINUOUS
10
5.76411
20
-2.94183
11
5.76392
21
-2.94192
0
LINE
8
BLACK
6
CONTINUOUS
10
5.76392
20
-2.94192
11
5.76385
21
-2.94191
0
LINE
8
BLACK
6
CONTINUOUS
10
5.76385
20
-2.94191
11
5.76378
21
-2.94193
0
LINE
8
BLACK
6
CONTINUOUS
10
5.76378
20
-2.94193
11
5.58268
21
-2.94193
0
LINE
8
BLACK
6
CONTINUOUS
10
5.58268
20
-2.94193
11
5.5824
21
-2.94189
0
LINE
8
BLACK
6
CONTINUOUS
10
5.5824
20
-2.94189
11
5.58234
21
-2.94185
0
LINE
8
BLACK
6
CONTINUOUS
10
5.58234
20
-2.94185
11
5.58227
21
-2.94184
0
LINE
8
BLACK
6
CONTINUOUS
10
5.58227
20
-2.94184
11
5.58211
21
-2.9417
0
LINE
8
BLACK
6
CONTINUOUS
10
5.58211
20
-2.9417
11
5.58193
21
-2.94159
0
LINE
8
BLACK
6
CONTINUOUS
10
5.58193
20
-2.94159
11
5.5819
21
-2.94152
0
LINE
8
BLACK
6
CONTINUOUS
10
5.5819
20
-2.94152
11
5.58185
21
-2.94148
0
LINE
8
BLACK
6
CONTINUOUS
10
5.58185
20
-2.94148
11
5.58179
21
-2.94128
0
LINE
8
BLACK
6
CONTINUOUS
10
5.58179
20
-2.94128
11
5.5817
21
-2.94108
0
LINE
8
BLACK
6
CONTINUOUS
10
5.5817
20
-2.94108
11
5.58171
21
-2.94101
0
LINE
8
BLACK
6
CONTINUOUS
10
5.58171
20
-2.94101
11
5.58169
21
-2.94094
0
LINE
8
BLACK
6
CONTINUOUS
10
5.58169
20
-2.94094
11
5.58169
21
-2.75984
0
LINE
8
BLACK
6
CONTINUOUS
10
5.58169
20
-2.75984
11
5.58173
21
-2.75956
0
LINE
8
BLACK
6
CONTINUOUS
10
5.58173
20
-2.75956
11
5.58177
21
-2.7595
0
LINE
8
BLACK
6
CONTINUOUS
10
5.58177
20
-2.7595
11
5.58178
21
-2.75943
0
LINE
8
BLACK
6
CONTINUOUS
10
5.58178
20
-2.75943
11
5.58192
21
-2.75927
0
LINE
8
BLACK
6
CONTINUOUS
10
5.58192
20
-2.75927
11
5.58203
21
-2.7591
0
LINE
8
BLACK
6
CONTINUOUS
10
5.58203
20
-2.7591
11
5.5821
21
-2.75907
0
LINE
8
BLACK
6
CONTINUOUS
10
5.5821
20
-2.75907
11
5.58215
21
-2.75901
0
LINE
8
BLACK
6
CONTINUOUS
10
5.58215
20
-2.75901
11
5.58235
21
-2.75896
0
LINE
8
BLACK
6
CONTINUOUS
10
5.58235
20
-2.75896
11
5.58254
21
-2.75887
0
LINE
8
BLACK
6
CONTINUOUS
10
5.58254
20
-2.75887
11
5.58261
21
-2.75888
0
LINE
8
BLACK
6
CONTINUOUS
10
5.58261
20
-2.75888
11
5.58268
21
-2.75886
0
LINE
8
BLACK
6
CONTINUOUS
10
5.58268
20
-2.75886
11
5.76378
21
-2.75886
0
LINE
8
BLACK
6
CONTINUOUS
10
5.76378
20
-2.75886
11
5.76406
21
-2.7589
0
LINE
8
BLACK
6
CONTINUOUS
10
5.76406
20
-2.7589
11
5.76412
21
-2.75894
0
LINE
8
BLACK
6
CONTINUOUS
10
5.76412
20
-2.75894
11
5.76419
21
-2.75895
0
LINE
8
BLACK
6
CONTINUOUS
10
5.76419
20
-2.75895
11
5.76435
21
-2.75909
0
LINE
8
BLACK
6
CONTINUOUS
10
5.76435
20
-2.75909
11
5.76452
21
-2.7592
0
LINE
8
BLACK
6
CONTINUOUS
10
5.76452
20
-2.7592
11
5.76455
21
-2.75926
0
LINE
8
BLACK
6
CONTINUOUS
10
5.76455
20
-2.75926
11
5.76461
21
-2.75931
0
LINE
8
BLACK
6
CONTINUOUS
10
5.76461
20
-2.75931
11
5.76467
21
-2.75951
0
LINE
8
BLACK
6
CONTINUOUS
10
5.76467
20
-2.75951
11
5.76475
21
-2.7597
0
LINE
8
BLACK
6
CONTINUOUS
10
5.76475
20
-2.7597
11
5.76474
21
-2.75977
0
LINE
8
BLACK
6
CONTINUOUS
10
5.76474
20
-2.75977
11
5.76476
21
-2.75984
0
LINE
8
BLACK
6
CONTINUOUS
10
5.76476
20
-2.75984
11
5.76476
21
-2.94094
0
LINE
8
BLACK
6
CONTINUOUS
10
5.76476
20
-2.94094
11
5.76472
21
-2.94122
0
LINE
8
BLACK
6
CONTINUOUS
10
5.58366
20
-2.85138
11
5.58366
21
-2.93996
0
LINE
8
BLACK
6
CONTINUOUS
10
5.58366
20
-2.93996
11
5.7628
21
-2.93996
0
LINE
8
BLACK
6
CONTINUOUS
10
5.7628
20
-2.93996
11
5.7628
21
-2.85138
0
LINE
8
BLACK
6
CONTINUOUS
10
5.7628
20
-2.85138
11
5.58366
21
-2.85138
0
LINE
8
BLACK
6
CONTINUOUS
10
5.58366
20
-2.76083
11
5.58366
21
-2.84941
0
LINE
8
BLACK
6
CONTINUOUS
10
5.58366
20
-2.84941
11
5.7628
21
-2.84941
0
LINE
8
BLACK
6
CONTINUOUS
10
5.7628
20
-2.84941
11
5.7628
21
-2.76083
0
LINE
8
BLACK
6
CONTINUOUS
10
5.7628
20
-2.76083
11
5.58366
21
-2.76083
0
LINE
8
BLACK
6
CONTINUOUS
10
4.71711
20
-2.82424
11
4.71717
21
-2.82428
0
LINE
8
BLACK
6
CONTINUOUS
10
4.71717
20
-2.82428
11
4.71724
21
-2.82429
0
LINE
8
BLACK
6
CONTINUOUS
10
4.71724
20
-2.82429
11
4.7174
21
-2.82443
0
LINE
8
BLACK
6
CONTINUOUS
10
4.7174
20
-2.82443
11
4.71758
21
-2.82454
0
LINE
8
BLACK
6
CONTINUOUS
10
4.71758
20
-2.82454
11
4.71761
21
-2.82461
0
LINE
8
BLACK
6
CONTINUOUS
10
4.71761
20
-2.82461
11
4.71766
21
-2.82465
0
LINE
8
BLACK
6
CONTINUOUS
10
4.71766
20
-2.82465
11
4.71772
21
-2.82485
0
LINE
8
BLACK
6
CONTINUOUS
10
4.71772
20
-2.82485
11
4.71781
21
-2.82505
0
LINE
8
BLACK
6
CONTINUOUS
10
4.71781
20
-2.82505
11
4.7178
21
-2.82512
0
LINE
8
BLACK
6
CONTINUOUS
10
4.7178
20
-2.82512
11
4.71782
21
-2.82518
0
LINE
8
BLACK
6
CONTINUOUS
10
4.71782
20
-2.82518
11
4.71782
21
-2.90235
0
LINE
8
BLACK
6
CONTINUOUS
10
4.71782
20
-2.90235
11
4.71778
21
-2.90263
0
LINE
8
BLACK
6
CONTINUOUS
10
4.71778
20
-2.90263
11
4.71774
21
-2.90269
0
LINE
8
BLACK
6
CONTINUOUS
10
4.71774
20
-2.90269
11
4.71773
21
-2.90276
0
LINE
8
BLACK
6
CONTINUOUS
10
4.71773
20
-2.90276
11
4.71759
21
-2.90292
0
LINE
8
BLACK
6
CONTINUOUS
10
4.71759
20
-2.90292
11
4.71748
21
-2.9031
0
LINE
8
BLACK
6
CONTINUOUS
10
4.71748
20
-2.9031
11
4.71741
21
-2.90312
0
LINE
8
BLACK
6
CONTINUOUS
10
4.71741
20
-2.90312
11
4.71737
21
-2.90318
0
LINE
8
BLACK
6
CONTINUOUS
10
4.71737
20
-2.90318
11
4.71716
21
-2.90324
0
LINE
8
BLACK
6
CONTINUOUS
10
4.71716
20
-2.90324
11
4.71697
21
-2.90332
0
LINE
8
BLACK
6
CONTINUOUS
10
4.71697
20
-2.90332
11
4.7169
21
-2.90331
0
LINE
8
BLACK
6
CONTINUOUS
10
4.7169
20
-2.90331
11
4.71683
21
-2.90333
0
LINE
8
BLACK
6
CONTINUOUS
10
4.71683
20
-2.90333
11
4.58298
21
-2.90333
0
LINE
8
BLACK
6
CONTINUOUS
10
4.58298
20
-2.90333
11
4.5827
21
-2.90329
0
LINE
8
BLACK
6
CONTINUOUS
10
4.5827
20
-2.90329
11
4.58264
21
-2.90326
0
LINE
8
BLACK
6
CONTINUOUS
10
4.58264
20
-2.90326
11
4.58257
21
-2.90325
0
LINE
8
BLACK
6
CONTINUOUS
10
4.58257
20
-2.90325
11
4.58241
21
-2.90311
0
LINE
8
BLACK
6
CONTINUOUS
10
4.58241
20
-2.90311
11
4.58223
21
-2.90299
0
LINE
8
BLACK
6
CONTINUOUS
10
4.58223
20
-2.90299
11
4.5822
21
-2.90293
0
LINE
8
BLACK
6
CONTINUOUS
10
4.5822
20
-2.90293
11
4.58215
21
-2.90288
0
LINE
8
BLACK
6
CONTINUOUS
10
4.58215
20
-2.90288
11
4.58209
21
-2.90268
0
LINE
8
BLACK
6
CONTINUOUS
10
4.58209
20
-2.90268
11
4.582
21
-2.90249
0
LINE
8
BLACK
6
CONTINUOUS
10
4.582
20
-2.90249
11
4.58201
21
-2.90242
0
LINE
8
BLACK
6
CONTINUOUS
10
4.58201
20
-2.90242
11
4.58199
21
-2.90235
0
LINE
8
BLACK
6
CONTINUOUS
10
4.58199
20
-2.90235
11
4.58199
21
-2.82518
0
LINE
8
BLACK
6
CONTINUOUS
10
4.58199
20
-2.82518
11
4.58203
21
-2.82491
0
LINE
8
BLACK
6
CONTINUOUS
10
4.58203
20
-2.82491
11
4.58207
21
-2.82485
0
LINE
8
BLACK
6
CONTINUOUS
10
4.58207
20
-2.82485
11
4.58208
21
-2.82478
0
LINE
8
BLACK
6
CONTINUOUS
10
4.58208
20
-2.82478
11
4.58222
21
-2.82462
0
LINE
8
BLACK
6
CONTINUOUS
10
4.58222
20
-2.82462
11
4.58233
21
-2.82444
0
LINE
8
BLACK
6
CONTINUOUS
10
4.58233
20
-2.82444
11
4.5824
21
-2.82441
0
LINE
8
BLACK
6
CONTINUOUS
10
4.5824
20
-2.82441
11
4.58244
21
-2.82436
0
LINE
8
BLACK
6
CONTINUOUS
10
4.58244
20
-2.82436
11
4.58265
21
-2.8243
0
LINE
8
BLACK
6
CONTINUOUS
10
4.58265
20
-2.8243
11
4.58284
21
-2.82421
0
LINE
8
BLACK
6
CONTINUOUS
10
4.58284
20
-2.82421
11
4.58291
21
-2.82422
0
LINE
8
BLACK
6
CONTINUOUS
10
4.58291
20
-2.82422
11
4.58298
21
-2.8242
0
LINE
8
BLACK
6
CONTINUOUS
10
4.58298
20
-2.8242
11
4.71683
21
-2.8242
0
LINE
8
BLACK
6
CONTINUOUS
10
4.71683
20
-2.8242
11
4.71711
21
-2.82424
0
LINE
8
BLACK
6
CONTINUOUS
10
4.58396
20
-2.82617
11
4.58396
21
-2.90137
0
LINE
8
BLACK
6
CONTINUOUS
10
4.58396
20
-2.90137
11
4.71585
21
-2.90137
0
LINE
8
BLACK
6
CONTINUOUS
10
4.71585
20
-2.90137
11
4.71585
21
-2.82617
0
LINE
8
BLACK
6
CONTINUOUS
10
4.71585
20
-2.82617
11
4.58396
21
-2.82617
0
LINE
8
BLACK
6
CONTINUOUS
10
5.25461
20
-2.75308
11
5.25467
21
-2.75312
0
LINE
8
BLACK
6
CONTINUOUS
10
5.25467
20
-2.75312
11
5.25474
21
-2.75313
0
LINE
8
BLACK
6
CONTINUOUS
10
5.25474
20
-2.75313
11
5.2549
21
-2.75327
0
LINE
8
BLACK
6
CONTINUOUS
10
5.2549
20
-2.75327
11
5.25508
21
-2.75338
0
LINE
8
BLACK
6
CONTINUOUS
10
5.25508
20
-2.75338
11
5.25511
21
-2.75344
0
LINE
8
BLACK
6
CONTINUOUS
10
5.25511
20
-2.75344
11
5.25516
21
-2.75349
0
LINE
8
BLACK
6
CONTINUOUS
10
5.25516
20
-2.75349
11
5.25522
21
-2.75369
0
LINE
8
BLACK
6
CONTINUOUS
10
5.25522
20
-2.75369
11
5.25531
21
-2.75388
0
LINE
8
BLACK
6
CONTINUOUS
10
5.25531
20
-2.75388
11
5.2553
21
-2.75395
0
LINE
8
BLACK
6
CONTINUOUS
10
5.2553
20
-2.75395
11
5.25532
21
-2.75402
0
LINE
8
BLACK
6
CONTINUOUS
10
5.25532
20
-2.75402
11
5.25532
21
-2.83119
0
LINE
8
BLACK
6
CONTINUOUS
10
5.25532
20
-2.83119
11
5.25527
21
-2.83147
0
LINE
8
BLACK
6
CONTINUOUS
10
5.25527
20
-2.83147
11
5.25524
21
-2.83153
0
LINE
8
BLACK
6
CONTINUOUS
10
5.25524
20
-2.83153
11
5.25523
21
-2.8316
0
LINE
8
BLACK
6
CONTINUOUS
10
5.25523
20
-2.8316
11
5.25509
21
-2.83176
0
LINE
8
BLACK
6
CONTINUOUS
10
5.25509
20
-2.83176
11
5.25497
21
-2.83193
0
LINE
8
BLACK
6
CONTINUOUS
10
5.25497
20
-2.83193
11
5.25491
21
-2.83196
0
LINE
8
BLACK
6
CONTINUOUS
10
5.25491
20
-2.83196
11
5.25486
21
-2.83202
0
LINE
8
BLACK
6
CONTINUOUS
10
5.25486
20
-2.83202
11
5.25466
21
-2.83208
0
LINE
8
BLACK
6
CONTINUOUS
10
5.25466
20
-2.83208
11
5.25447
21
-2.83216
0
LINE
8
BLACK
6
CONTINUOUS
10
5.25447
20
-2.83216
11
5.2544
21
-2.83215
0
LINE
8
BLACK
6
CONTINUOUS
10
5.2544
20
-2.83215
11
5.25433
21
-2.83217
0
LINE
8
BLACK
6
CONTINUOUS
10
5.25433
20
-2.83217
11
5.23839
21
-2.83217
0
LINE
8
BLACK
6
CONTINUOUS
10
5.23839
20
-2.83217
11
5.23839
21
-2.88898
0
LINE
8
BLACK
6
CONTINUOUS
10
5.23839
20
-2.88898
11
5.23835
21
-2.88926
0
LINE
8
BLACK
6
CONTINUOUS
10
5.23835
20
-2.88926
11
5.23831
21
-2.88932
0
LINE
8
BLACK
6
CONTINUOUS
10
5.23831
20
-2.88932
11
5.2383
21
-2.88939
0
LINE
8
BLACK
6
CONTINUOUS
10
5.2383
20
-2.88939
11
5.23816
21
-2.88954
0
LINE
8
BLACK
6
CONTINUOUS
10
5.23816
20
-2.88954
11
5.23804
21
-2.88972
0
LINE
8
BLACK
6
CONTINUOUS
10
5.23804
20
-2.88972
11
5.23798
21
-2.88975
0
LINE
8
BLACK
6
CONTINUOUS
10
5.23798
20
-2.88975
11
5.23793
21
-2.8898
0
LINE
8
BLACK
6
CONTINUOUS
10
5.23793
20
-2.8898
11
5.23773
21
-2.88986
0
LINE
8
BLACK
6
CONTINUOUS
10
5.23773
20
-2.88986
11
5.23754
21
-2.88995
0
LINE
8
BLACK
6
CONTINUOUS
10
5.23754
20
-2.88995
11
5.23747
21
-2.88994
0
LINE
8
BLACK
6
CONTINUOUS
10
5.23747
20
-2.88994
11
5.2374
21
-2.88996
0
LINE
8
BLACK
6
CONTINUOUS
10
5.2374
20
-2.88996
11
5.12087
21
-2.88996
0
LINE
8
BLACK
6
CONTINUOUS
10
5.12087
20
-2.88996
11
5.12059
21
-2.88992
0
LINE
8
BLACK
6
CONTINUOUS
10
5.12059
20
-2.88992
11
5.12053
21
-2.88988
0
LINE
8
BLACK
6
CONTINUOUS
10
5.12053
20
-2.88988
11
5.12046
21
-2.88987
0
LINE
8
BLACK
6
CONTINUOUS
10
5.12046
20
-2.88987
11
5.1203
21
-2.88973
0
LINE
8
BLACK
6
CONTINUOUS
10
5.1203
20
-2.88973
11
5.12012
21
-2.88962
0
LINE
8
BLACK
6
CONTINUOUS
10
5.12012
20
-2.88962
11
5.12009
21
-2.88955
0
LINE
8
BLACK
6
CONTINUOUS
10
5.12009
20
-2.88955
11
5.12004
21
-2.88951
0
LINE
8
BLACK
6
CONTINUOUS
10
5.12004
20
-2.88951
11
5.11998
21
-2.88931
0
LINE
8
BLACK
6
CONTINUOUS
10
5.11998
20
-2.88931
11
5.11989
21
-2.88912
0
LINE
8
BLACK
6
CONTINUOUS
10
5.11989
20
-2.88912
11
5.1199
21
-2.88904
0
LINE
8
BLACK
6
CONTINUOUS
10
5.1199
20
-2.88904
11
5.11988
21
-2.88898
0
LINE
8
BLACK
6
CONTINUOUS
10
5.11988
20
-2.88898
11
5.11988
21
-2.83193
0
LINE
8
BLACK
6
CONTINUOUS
10
5.11988
20
-2.83193
11
5.11973
21
-2.83183
0
LINE
8
BLACK
6
CONTINUOUS
10
5.11973
20
-2.83183
11
5.1197
21
-2.83177
0
LINE
8
BLACK
6
CONTINUOUS
10
5.1197
20
-2.83177
11
5.11964
21
-2.83172
0
LINE
8
BLACK
6
CONTINUOUS
10
5.11964
20
-2.83172
11
5.11959
21
-2.83152
0
LINE
8
BLACK
6
CONTINUOUS
10
5.11959
20
-2.83152
11
5.1195
21
-2.83133
0
LINE
8
BLACK
6
CONTINUOUS
10
5.1195
20
-2.83133
11
5.11951
21
-2.83126
0
LINE
8
BLACK
6
CONTINUOUS
10
5.11951
20
-2.83126
11
5.11949
21
-2.83119
0
LINE
8
BLACK
6
CONTINUOUS
10
5.11949
20
-2.83119
11
5.11949
21
-2.75402
0
LINE
8
BLACK
6
CONTINUOUS
10
5.11949
20
-2.75402
11
5.11953
21
-2.75374
0
LINE
8
BLACK
6
CONTINUOUS
10
5.11953
20
-2.75374
11
5.11957
21
-2.75368
0
LINE
8
BLACK
6
CONTINUOUS
10
5.11957
20
-2.75368
11
5.11958
21
-2.75361
0
LINE
8
BLACK
6
CONTINUOUS
10
5.11958
20
-2.75361
11
5.11972
21
-2.75345
0
LINE
8
BLACK
6
CONTINUOUS
10
5.11972
20
-2.75345
11
5.11983
21
-2.75328
0
LINE
8
BLACK
6
CONTINUOUS
10
5.11983
20
-2.75328
11
5.11989
21
-2.75325
0
LINE
8
BLACK
6
CONTINUOUS
10
5.11989
20
-2.75325
11
5.11994
21
-2.75319
0
LINE
8
BLACK
6
CONTINUOUS
10
5.11994
20
-2.75319
11
5.12014
21
-2.75313
0
LINE
8
BLACK
6
CONTINUOUS
10
5.12014
20
-2.75313
11
5.12033
21
-2.75305
0
LINE
8
BLACK
6
CONTINUOUS
10
5.12033
20
-2.75305
11
5.1204
21
-2.75306
0
LINE
8
BLACK
6
CONTINUOUS
10
5.1204
20
-2.75306
11
5.12047
21
-2.75304
0
LINE
8
BLACK
6
CONTINUOUS
10
5.12047
20
-2.75304
11
5.25433
21
-2.75304
0
LINE
8
BLACK
6
CONTINUOUS
10
5.25433
20
-2.75304
11
5.25461
21
-2.75308
0
LINE
8
BLACK
6
CONTINUOUS
10
5.12185
20
-2.83248
11
5.12185
21
-2.88799
0
LINE
8
BLACK
6
CONTINUOUS
10
5.12185
20
-2.88799
11
5.23642
21
-2.88799
0
LINE
8
BLACK
6
CONTINUOUS
10
5.23642
20
-2.88799
11
5.23642
21
-2.83248
0
LINE
8
BLACK
6
CONTINUOUS
10
5.23642
20
-2.83248
11
5.12185
21
-2.83248
0
LINE
8
BLACK
6
CONTINUOUS
10
5.12146
20
-2.75501
11
5.12146
21
-2.8302
0
LINE
8
BLACK
6
CONTINUOUS
10
5.12146
20
-2.8302
11
5.25335
21
-2.8302
0
LINE
8
BLACK
6
CONTINUOUS
10
5.25335
20
-2.8302
11
5.25335
21
-2.75501
0
LINE
8
BLACK
6
CONTINUOUS
10
5.25335
20
-2.75501
11
5.12146
21
-2.75501
0
LINE
8
BLACK
6
CONTINUOUS
10
4.71711
20
-2.73516
11
4.71717
21
-2.7352
0
LINE
8
BLACK
6
CONTINUOUS
10
4.71717
20
-2.7352
11
4.71724
21
-2.73521
0
LINE
8
BLACK
6
CONTINUOUS
10
4.71724
20
-2.73521
11
4.7174
21
-2.73534
0
LINE
8
BLACK
6
CONTINUOUS
10
4.7174
20
-2.73534
11
4.71758
21
-2.73546
0
LINE
8
BLACK
6
CONTINUOUS
10
4.71758
20
-2.73546
11
4.71761
21
-2.73552
0
LINE
8
BLACK
6
CONTINUOUS
10
4.71761
20
-2.73552
11
4.71766
21
-2.73557
0
LINE
8
BLACK
6
CONTINUOUS
10
4.71766
20
-2.73557
11
4.71772
21
-2.73577
0
LINE
8
BLACK
6
CONTINUOUS
10
4.71772
20
-2.73577
11
4.71781
21
-2.73596
0
LINE
8
BLACK
6
CONTINUOUS
10
4.71781
20
-2.73596
11
4.7178
21
-2.73603
0
LINE
8
BLACK
6
CONTINUOUS
10
4.7178
20
-2.73603
11
4.71782
21
-2.7361
0
LINE
8
BLACK
6
CONTINUOUS
10
4.71782
20
-2.7361
11
4.71782
21
-2.81327
0
LINE
8
BLACK
6
CONTINUOUS
10
4.71782
20
-2.81327
11
4.71778
21
-2.81355
0
LINE
8
BLACK
6
CONTINUOUS
10
4.71778
20
-2.81355
11
4.71774
21
-2.81361
0
LINE
8
BLACK
6
CONTINUOUS
10
4.71774
20
-2.81361
11
4.71773
21
-2.81368
0
LINE
8
BLACK
6
CONTINUOUS
10
4.71773
20
-2.81368
11
4.71759
21
-2.81383
0
LINE
8
BLACK
6
CONTINUOUS
10
4.71759
20
-2.81383
11
4.71748
21
-2.81401
0
LINE
8
BLACK
6
CONTINUOUS
10
4.71748
20
-2.81401
11
4.71741
21
-2.81404
0
LINE
8
BLACK
6
CONTINUOUS
10
4.71741
20
-2.81404
11
4.71737
21
-2.81409
0
LINE
8
BLACK
6
CONTINUOUS
10
4.71737
20
-2.81409
11
4.71716
21
-2.81415
0
LINE
8
BLACK
6
CONTINUOUS
10
4.71716
20
-2.81415
11
4.71697
21
-2.81424
0
LINE
8
BLACK
6
CONTINUOUS
10
4.71697
20
-2.81424
11
4.7169
21
-2.81423
0
LINE
8
BLACK
6
CONTINUOUS
10
4.7169
20
-2.81423
11
4.71683
21
-2.81425
0
LINE
8
BLACK
6
CONTINUOUS
10
4.71683
20
-2.81425
11
4.58298
21
-2.81425
0
LINE
8
BLACK
6
CONTINUOUS
10
4.58298
20
-2.81425
11
4.5827
21
-2.81421
0
LINE
8
BLACK
6
CONTINUOUS
10
4.5827
20
-2.81421
11
4.58264
21
-2.81417
0
LINE
8
BLACK
6
CONTINUOUS
10
4.58264
20
-2.81417
11
4.58257
21
-2.81416
0
LINE
8
BLACK
6
CONTINUOUS
10
4.58257
20
-2.81416
11
4.58241
21
-2.81402
0
LINE
8
BLACK
6
CONTINUOUS
10
4.58241
20
-2.81402
11
4.58223
21
-2.81391
0
LINE
8
BLACK
6
CONTINUOUS
10
4.58223
20
-2.81391
11
4.5822
21
-2.81384
0
LINE
8
BLACK
6
CONTINUOUS
10
4.5822
20
-2.81384
11
4.58215
21
-2.8138
0
LINE
8
BLACK
6
CONTINUOUS
10
4.58215
20
-2.8138
11
4.58209
21
-2.8136
0
LINE
8
BLACK
6
CONTINUOUS
10
4.58209
20
-2.8136
11
4.582
21
-2.8134
0
LINE
8
BLACK
6
CONTINUOUS
10
4.582
20
-2.8134
11
4.58201
21
-2.81333
0
LINE
8
BLACK
6
CONTINUOUS
10
4.58201
20
-2.81333
11
4.58199
21
-2.81327
0
LINE
8
BLACK
6
CONTINUOUS
10
4.58199
20
-2.81327
11
4.58199
21
-2.7361
0
LINE
8
BLACK
6
CONTINUOUS
10
4.58199
20
-2.7361
11
4.58203
21
-2.73582
0
LINE
8
BLACK
6
CONTINUOUS
10
4.58203
20
-2.73582
11
4.58207
21
-2.73576
0
LINE
8
BLACK
6
CONTINUOUS
10
4.58207
20
-2.73576
11
4.58208
21
-2.73569
0
LINE
8
BLACK
6
CONTINUOUS
10
4.58208
20
-2.73569
11
4.58222
21
-2.73553
0
LINE
8
BLACK
6
CONTINUOUS
10
4.58222
20
-2.73553
11
4.58233
21
-2.73536
0
LINE
8
BLACK
6
CONTINUOUS
10
4.58233
20
-2.73536
11
4.5824
21
-2.73533
0
LINE
8
BLACK
6
CONTINUOUS
10
4.5824
20
-2.73533
11
4.58244
21
-2.73527
0
LINE
8
BLACK
6
CONTINUOUS
10
4.58244
20
-2.73527
11
4.58265
21
-2.73521
0
LINE
8
BLACK
6
CONTINUOUS
10
4.58265
20
-2.73521
11
4.58284
21
-2.73513
0
LINE
8
BLACK
6
CONTINUOUS
10
4.58284
20
-2.73513
11
4.58291
21
-2.73514
0
LINE
8
BLACK
6
CONTINUOUS
10
4.58291
20
-2.73514
11
4.58298
21
-2.73512
0
LINE
8
BLACK
6
CONTINUOUS
10
4.58298
20
-2.73512
11
4.71683
21
-2.73512
0
LINE
8
BLACK
6
CONTINUOUS
10
4.71683
20
-2.73512
11
4.71711
21
-2.73516
0
LINE
8
BLACK
6
CONTINUOUS
10
4.58396
20
-2.73708
11
4.58396
21
-2.81228
0
LINE
8
BLACK
6
CONTINUOUS
10
4.58396
20
-2.81228
11
4.71585
21
-2.81228
0
LINE
8
BLACK
6
CONTINUOUS
10
4.71585
20
-2.81228
11
4.71585
21
-2.73708
0
LINE
8
BLACK
6
CONTINUOUS
10
4.71585
20
-2.73708
11
4.58396
21
-2.73708
0
LINE
8
BLACK
6
CONTINUOUS
10
5.05855
20
-2.61323
11
5.05861
21
-2.61327
0
LINE
8
BLACK
6
CONTINUOUS
10
5.05861
20
-2.61327
11
5.05868
21
-2.61328
0
LINE
8
BLACK
6
CONTINUOUS
10
5.05868
20
-2.61328
11
5.05884
21
-2.61342
0
LINE
8
BLACK
6
CONTINUOUS
10
5.05884
20
-2.61342
11
5.05901
21
-2.61353
0
LINE
8
BLACK
6
CONTINUOUS
10
5.05901
20
-2.61353
11
5.05904
21
-2.61359
0
LINE
8
BLACK
6
CONTINUOUS
10
5.05904
20
-2.61359
11
5.0591
21
-2.61364
0
LINE
8
BLACK
6
CONTINUOUS
10
5.0591
20
-2.61364
11
5.05916
21
-2.61384
0
LINE
8
BLACK
6
CONTINUOUS
10
5.05916
20
-2.61384
11
5.05924
21
-2.61403
0
LINE
8
BLACK
6
CONTINUOUS
10
5.05924
20
-2.61403
11
5.05923
21
-2.6141
0
LINE
8
BLACK
6
CONTINUOUS
10
5.05923
20
-2.6141
11
5.05925
21
-2.61417
0
LINE
8
BLACK
6
CONTINUOUS
10
5.05925
20
-2.61417
11
5.05925
21
-2.74803
0
LINE
8
BLACK
6
CONTINUOUS
10
5.05925
20
-2.74803
11
5.05921
21
-2.74831
0
LINE
8
BLACK
6
CONTINUOUS
10
5.05921
20
-2.74831
11
5.05917
21
-2.74837
0
LINE
8
BLACK
6
CONTINUOUS
10
5.05917
20
-2.74837
11
5.05916
21
-2.74844
0
LINE
8
BLACK
6
CONTINUOUS
10
5.05916
20
-2.74844
11
5.05902
21
-2.7486
0
LINE
8
BLACK
6
CONTINUOUS
10
5.05902
20
-2.7486
11
5.05891
21
-2.74878
0
LINE
8
BLACK
6
CONTINUOUS
10
5.05891
20
-2.74878
11
5.05885
21
-2.74881
0
LINE
8
BLACK
6
CONTINUOUS
10
5.05885
20
-2.74881
11
5.0588
21
-2.74886
0
LINE
8
BLACK
6
CONTINUOUS
10
5.0588
20
-2.74886
11
5.0586
21
-2.74892
0
LINE
8
BLACK
6
CONTINUOUS
10
5.0586
20
-2.74892
11
5.05841
21
-2.74901
0
LINE
8
BLACK
6
CONTINUOUS
10
5.05841
20
-2.74901
11
5.05834
21
-2.749
0
LINE
8
BLACK
6
CONTINUOUS
10
5.05834
20
-2.749
11
5.05827
21
-2.74902
0
LINE
8
BLACK
6
CONTINUOUS
10
5.05827
20
-2.74902
11
4.9811
21
-2.74902
0
LINE
8
BLACK
6
CONTINUOUS
10
4.9811
20
-2.74902
11
4.98082
21
-2.74898
0
LINE
8
BLACK
6
CONTINUOUS
10
4.98082
20
-2.74898
11
4.98076
21
-2.74894
0
LINE
8
BLACK
6
CONTINUOUS
10
4.98076
20
-2.74894
11
4.98069
21
-2.74893
0
LINE
8
BLACK
6
CONTINUOUS
10
4.98069
20
-2.74893
11
4.98053
21
-2.74879
0
LINE
8
BLACK
6
CONTINUOUS
10
4.98053
20
-2.74879
11
4.98036
21
-2.74867
0
LINE
8
BLACK
6
CONTINUOUS
10
4.98036
20
-2.74867
11
4.98033
21
-2.74861
0
LINE
8
BLACK
6
CONTINUOUS
10
4.98033
20
-2.74861
11
4.98027
21
-2.74856
0
LINE
8
BLACK
6
CONTINUOUS
10
4.98027
20
-2.74856
11
4.98021
21
-2.74836
0
LINE
8
BLACK
6
CONTINUOUS
10
4.98021
20
-2.74836
11
4.98013
21
-2.74817
0
LINE
8
BLACK
6
CONTINUOUS
10
4.98013
20
-2.74817
11
4.98014
21
-2.7481
0
LINE
8
BLACK
6
CONTINUOUS
10
4.98014
20
-2.7481
11
4.98012
21
-2.74803
0
LINE
8
BLACK
6
CONTINUOUS
10
4.98012
20
-2.74803
11
4.98012
21
-2.61417
0
LINE
8
BLACK
6
CONTINUOUS
10
4.98012
20
-2.61417
11
4.98016
21
-2.61389
0
LINE
8
BLACK
6
CONTINUOUS
10
4.98016
20
-2.61389
11
4.9802
21
-2.61383
0
LINE
8
BLACK
6
CONTINUOUS
10
4.9802
20
-2.61383
11
4.98021
21
-2.61376
0
LINE
8
BLACK
6
CONTINUOUS
10
4.98021
20
-2.61376
11
4.98035
21
-2.6136
0
LINE
8
BLACK
6
CONTINUOUS
10
4.98035
20
-2.6136
11
4.98046
21
-2.61343
0
LINE
8
BLACK
6
CONTINUOUS
10
4.98046
20
-2.61343
11
4.98052
21
-2.6134
0
LINE
8
BLACK
6
CONTINUOUS
10
4.98052
20
-2.6134
11
4.98057
21
-2.61334
0
LINE
8
BLACK
6
CONTINUOUS
10
4.98057
20
-2.61334
11
4.98077
21
-2.61329
0
LINE
8
BLACK
6
CONTINUOUS
10
4.98077
20
-2.61329
11
4.98096
21
-2.6132
0
LINE
8
BLACK
6
CONTINUOUS
10
4.98096
20
-2.6132
11
4.98103
21
-2.61321
0
LINE
8
BLACK
6
CONTINUOUS
10
4.98103
20
-2.61321
11
4.9811
21
-2.61319
0
LINE
8
BLACK
6
CONTINUOUS
10
4.9811
20
-2.61319
11
5.05827
21
-2.61319
0
LINE
8
BLACK
6
CONTINUOUS
10
5.05827
20
-2.61319
11
5.05855
21
-2.61323
0
LINE
8
BLACK
6
CONTINUOUS
10
4.98209
20
-2.61516
11
4.98209
21
-2.74705
0
LINE
8
BLACK
6
CONTINUOUS
10
4.98209
20
-2.74705
11
5.05728
21
-2.74705
0
LINE
8
BLACK
6
CONTINUOUS
10
5.05728
20
-2.74705
11
5.05728
21
-2.61516
0
LINE
8
BLACK
6
CONTINUOUS
10
5.05728
20
-2.61516
11
4.98209
21
-2.61516
0
LINE
8
BLACK
6
CONTINUOUS
10
5.14122
20
-2.61323
11
5.14128
21
-2.61327
0
LINE
8
BLACK
6
CONTINUOUS
10
5.14128
20
-2.61327
11
5.14135
21
-2.61328
0
LINE
8
BLACK
6
CONTINUOUS
10
5.14135
20
-2.61328
11
5.14151
21
-2.61342
0
LINE
8
BLACK
6
CONTINUOUS
10
5.14151
20
-2.61342
11
5.14169
21
-2.61353
0
LINE
8
BLACK
6
CONTINUOUS
10
5.14169
20
-2.61353
11
5.14172
21
-2.61359
0
LINE
8
BLACK
6
CONTINUOUS
10
5.14172
20
-2.61359
11
5.14177
21
-2.61364
0
LINE
8
BLACK
6
CONTINUOUS
10
5.14177
20
-2.61364
11
5.14183
21
-2.61384
0
LINE
8
BLACK
6
CONTINUOUS
10
5.14183
20
-2.61384
11
5.14192
21
-2.61403
0
LINE
8
BLACK
6
CONTINUOUS
10
5.14192
20
-2.61403
11
5.14191
21
-2.6141
0
LINE
8
BLACK
6
CONTINUOUS
10
5.14191
20
-2.6141
11
5.14193
21
-2.61417
0
LINE
8
BLACK
6
CONTINUOUS
10
5.14193
20
-2.61417
11
5.14193
21
-2.74803
0
LINE
8
BLACK
6
CONTINUOUS
10
5.14193
20
-2.74803
11
5.14189
21
-2.74831
0
LINE
8
BLACK
6
CONTINUOUS
10
5.14189
20
-2.74831
11
5.14185
21
-2.74837
0
LINE
8
BLACK
6
CONTINUOUS
10
5.14185
20
-2.74837
11
5.14184
21
-2.74844
0
LINE
8
BLACK
6
CONTINUOUS
10
5.14184
20
-2.74844
11
5.1417
21
-2.7486
0
LINE
8
BLACK
6
CONTINUOUS
10
5.1417
20
-2.7486
11
5.14159
21
-2.74878
0
LINE
8
BLACK
6
CONTINUOUS
10
5.14159
20
-2.74878
11
5.14152
21
-2.74881
0
LINE
8
BLACK
6
CONTINUOUS
10
5.14152
20
-2.74881
11
5.14148
21
-2.74886
0
LINE
8
BLACK
6
CONTINUOUS
10
5.14148
20
-2.74886
11
5.14128
21
-2.74892
0
LINE
8
BLACK
6
CONTINUOUS
10
5.14128
20
-2.74892
11
5.14108
21
-2.74901
0
LINE
8
BLACK
6
CONTINUOUS
10
5.14108
20
-2.74901
11
5.14101
21
-2.749
0
LINE
8
BLACK
6
CONTINUOUS
10
5.14101
20
-2.749
11
5.14094
21
-2.74902
0
LINE
8
BLACK
6
CONTINUOUS
10
5.14094
20
-2.74902
11
5.06378
21
-2.74902
0
LINE
8
BLACK
6
CONTINUOUS
10
5.06378
20
-2.74902
11
5.0635
21
-2.74898
0
LINE
8
BLACK
6
CONTINUOUS
10
5.0635
20
-2.74898
11
5.06344
21
-2.74894
0
LINE
8
BLACK
6
CONTINUOUS
10
5.06344
20
-2.74894
11
5.06337
21
-2.74893
0
LINE
8
BLACK
6
CONTINUOUS
10
5.06337
20
-2.74893
11
5.06321
21
-2.74879
0
LINE
8
BLACK
6
CONTINUOUS
10
5.06321
20
-2.74879
11
5.06303
21
-2.74867
0
LINE
8
BLACK
6
CONTINUOUS
10
5.06303
20
-2.74867
11
5.063
21
-2.74861
0
LINE
8
BLACK
6
CONTINUOUS
10
5.063
20
-2.74861
11
5.06295
21
-2.74856
0
LINE
8
BLACK
6
CONTINUOUS
10
5.06295
20
-2.74856
11
5.06289
21
-2.74836
0
LINE
8
BLACK
6
CONTINUOUS
10
5.06289
20
-2.74836
11
5.06281
21
-2.74817
0
LINE
8
BLACK
6
CONTINUOUS
10
5.06281
20
-2.74817
11
5.06282
21
-2.7481
0
LINE
8
BLACK
6
CONTINUOUS
10
5.06282
20
-2.7481
11
5.0628
21
-2.74803
0
LINE
8
BLACK
6
CONTINUOUS
10
5.0628
20
-2.74803
11
5.0628
21
-2.61417
0
LINE
8
BLACK
6
CONTINUOUS
10
5.0628
20
-2.61417
11
5.06284
21
-2.61389
0
LINE
8
BLACK
6
CONTINUOUS
10
5.06284
20
-2.61389
11
5.06287
21
-2.61383
0
LINE
8
BLACK
6
CONTINUOUS
10
5.06287
20
-2.61383
11
5.06288
21
-2.61376
0
LINE
8
BLACK
6
CONTINUOUS
10
5.06288
20
-2.61376
11
5.06302
21
-2.6136
0
LINE
8
BLACK
6
CONTINUOUS
10
5.06302
20
-2.6136
11
5.06314
21
-2.61343
0
LINE
8
BLACK
6
CONTINUOUS
10
5.06314
20
-2.61343
11
5.0632
21
-2.6134
0
LINE
8
BLACK
6
CONTINUOUS
10
5.0632
20
-2.6134
11
5.06325
21
-2.61334
0
LINE
8
BLACK
6
CONTINUOUS
10
5.06325
20
-2.61334
11
5.06345
21
-2.61329
0
LINE
8
BLACK
6
CONTINUOUS
10
5.06345
20
-2.61329
11
5.06364
21
-2.6132
0
LINE
8
BLACK
6
CONTINUOUS
10
5.06364
20
-2.6132
11
5.06371
21
-2.61321
0
LINE
8
BLACK
6
CONTINUOUS
10
5.06371
20
-2.61321
11
5.06378
21
-2.61319
0
LINE
8
BLACK
6
CONTINUOUS
10
5.06378
20
-2.61319
11
5.14094
21
-2.61319
0
LINE
8
BLACK
6
CONTINUOUS
10
5.14094
20
-2.61319
11
5.14122
21
-2.61323
0
LINE
8
BLACK
6
CONTINUOUS
10
5.06476
20
-2.61516
11
5.06476
21
-2.74705
0
LINE
8
BLACK
6
CONTINUOUS
10
5.06476
20
-2.74705
11
5.13996
21
-2.74705
0
LINE
8
BLACK
6
CONTINUOUS
10
5.13996
20
-2.74705
11
5.13996
21
-2.61516
0
LINE
8
BLACK
6
CONTINUOUS
10
5.13996
20
-2.61516
11
5.06476
21
-2.61516
0
LINE
8
BLACK
6
CONTINUOUS
10
4.89319
20
-2.61323
11
4.89325
21
-2.61327
0
LINE
8
BLACK
6
CONTINUOUS
10
4.89325
20
-2.61327
11
4.89332
21
-2.61328
0
LINE
8
BLACK
6
CONTINUOUS
10
4.89332
20
-2.61328
11
4.89348
21
-2.61342
0
LINE
8
BLACK
6
CONTINUOUS
10
4.89348
20
-2.61342
11
4.89366
21
-2.61353
0
LINE
8
BLACK
6
CONTINUOUS
10
4.89366
20
-2.61353
11
4.89369
21
-2.61359
0
LINE
8
BLACK
6
CONTINUOUS
10
4.89369
20
-2.61359
11
4.89374
21
-2.61364
0
LINE
8
BLACK
6
CONTINUOUS
10
4.89374
20
-2.61364
11
4.8938
21
-2.61384
0
LINE
8
BLACK
6
CONTINUOUS
10
4.8938
20
-2.61384
11
4.89389
21
-2.61403
0
LINE
8
BLACK
6
CONTINUOUS
10
4.89389
20
-2.61403
11
4.89388
21
-2.6141
0
LINE
8
BLACK
6
CONTINUOUS
10
4.89388
20
-2.6141
11
4.8939
21
-2.61417
0
LINE
8
BLACK
6
CONTINUOUS
10
4.8939
20
-2.61417
11
4.8939
21
-2.74803
0
LINE
8
BLACK
6
CONTINUOUS
10
4.8939
20
-2.74803
11
4.89386
21
-2.74831
0
LINE
8
BLACK
6
CONTINUOUS
10
4.89386
20
-2.74831
11
4.89382
21
-2.74837
0
LINE
8
BLACK
6
CONTINUOUS
10
4.89382
20
-2.74837
11
4.89381
21
-2.74844
0
LINE
8
BLACK
6
CONTINUOUS
10
4.89381
20
-2.74844
11
4.89367
21
-2.7486
0
LINE
8
BLACK
6
CONTINUOUS
10
4.89367
20
-2.7486
11
4.89356
21
-2.74878
0
LINE
8
BLACK
6
CONTINUOUS
10
4.89356
20
-2.74878
11
4.89349
21
-2.74881
0
LINE
8
BLACK
6
CONTINUOUS
10
4.89349
20
-2.74881
11
4.89345
21
-2.74886
0
LINE
8
BLACK
6
CONTINUOUS
10
4.89345
20
-2.74886
11
4.89324
21
-2.74892
0
LINE
8
BLACK
6
CONTINUOUS
10
4.89324
20
-2.74892
11
4.89305
21
-2.74901
0
LINE
8
BLACK
6
CONTINUOUS
10
4.89305
20
-2.74901
11
4.89298
21
-2.749
0
LINE
8
BLACK
6
CONTINUOUS
10
4.89298
20
-2.749
11
4.89291
21
-2.74902
0
LINE
8
BLACK
6
CONTINUOUS
10
4.89291
20
-2.74902
11
4.81575
21
-2.74902
0
LINE
8
BLACK
6
CONTINUOUS
10
4.81575
20
-2.74902
11
4.81547
21
-2.74898
0
LINE
8
BLACK
6
CONTINUOUS
10
4.81547
20
-2.74898
11
4.81541
21
-2.74894
0
LINE
8
BLACK
6
CONTINUOUS
10
4.81541
20
-2.74894
11
4.81534
21
-2.74893
0
LINE
8
BLACK
6
CONTINUOUS
10
4.81534
20
-2.74893
11
4.81518
21
-2.74879
0
LINE
8
BLACK
6
CONTINUOUS
10
4.81518
20
-2.74879
11
4.815
21
-2.74867
0
LINE
8
BLACK
6
CONTINUOUS
10
4.815
20
-2.74867
11
4.81497
21
-2.74861
0
LINE
8
BLACK
6
CONTINUOUS
10
4.81497
20
-2.74861
11
4.81492
21
-2.74856
0
LINE
8
BLACK
6
CONTINUOUS
10
4.81492
20
-2.74856
11
4.81486
21
-2.74836
0
LINE
8
BLACK
6
CONTINUOUS
10
4.81486
20
-2.74836
11
4.81477
21
-2.74817
0
LINE
8
BLACK
6
CONTINUOUS
10
4.81477
20
-2.74817
11
4.81478
21
-2.7481
0
LINE
8
BLACK
6
CONTINUOUS
10
4.81478
20
-2.7481
11
4.81476
21
-2.74803
0
LINE
8
BLACK
6
CONTINUOUS
10
4.81476
20
-2.74803
11
4.81476
21
-2.61417
0
LINE
8
BLACK
6
CONTINUOUS
10
4.81476
20
-2.61417
11
4.8148
21
-2.61389
0
LINE
8
BLACK
6
CONTINUOUS
10
4.8148
20
-2.61389
11
4.81484
21
-2.61383
0
LINE
8
BLACK
6
CONTINUOUS
10
4.81484
20
-2.61383
11
4.81485
21
-2.61376
0
LINE
8
BLACK
6
CONTINUOUS
10
4.81485
20
-2.61376
11
4.81499
21
-2.6136
0
LINE
8
BLACK
6
CONTINUOUS
10
4.81499
20
-2.6136
11
4.8151
21
-2.61343
0
LINE
8
BLACK
6
CONTINUOUS
10
4.8151
20
-2.61343
11
4.81517
21
-2.6134
0
LINE
8
BLACK
6
CONTINUOUS
10
4.81517
20
-2.6134
11
4.81522
21
-2.61334
0
LINE
8
BLACK
6
CONTINUOUS
10
4.81522
20
-2.61334
11
4.81542
21
-2.61329
0
LINE
8
BLACK
6
CONTINUOUS
10
4.81542
20
-2.61329
11
4.81561
21
-2.6132
0
LINE
8
BLACK
6
CONTINUOUS
10
4.81561
20
-2.6132
11
4.81568
21
-2.61321
0
LINE
8
BLACK
6
CONTINUOUS
10
4.81568
20
-2.61321
11
4.81575
21
-2.61319
0
LINE
8
BLACK
6
CONTINUOUS
10
4.81575
20
-2.61319
11
4.89291
21
-2.61319
0
LINE
8
BLACK
6
CONTINUOUS
10
4.89291
20
-2.61319
11
4.89319
21
-2.61323
0
LINE
8
BLACK
6
CONTINUOUS
10
4.81673
20
-2.61516
11
4.81673
21
-2.74705
0
LINE
8
BLACK
6
CONTINUOUS
10
4.81673
20
-2.74705
11
4.89193
21
-2.74705
0
LINE
8
BLACK
6
CONTINUOUS
10
4.89193
20
-2.74705
11
4.89193
21
-2.61516
0
LINE
8
BLACK
6
CONTINUOUS
10
4.89193
20
-2.61516
11
4.81673
21
-2.61516
0
LINE
8
BLACK
6
CONTINUOUS
10
4.97587
20
-2.61323
11
4.97593
21
-2.61327
0
LINE
8
BLACK
6
CONTINUOUS
10
4.97593
20
-2.61327
11
4.976
21
-2.61328
0
LINE
8
BLACK
6
CONTINUOUS
10
4.976
20
-2.61328
11
4.97616
21
-2.61342
0
LINE
8
BLACK
6
CONTINUOUS
10
4.97616
20
-2.61342
11
4.97634
21
-2.61353
0
LINE
8
BLACK
6
CONTINUOUS
10
4.97634
20
-2.61353
11
4.97637
21
-2.61359
0
LINE
8
BLACK
6
CONTINUOUS
10
4.97637
20
-2.61359
11
4.97642
21
-2.61364
0
LINE
8
BLACK
6
CONTINUOUS
10
4.97642
20
-2.61364
11
4.97648
21
-2.61384
0
LINE
8
BLACK
6
CONTINUOUS
10
4.97648
20
-2.61384
11
4.97656
21
-2.61403
0
LINE
8
BLACK
6
CONTINUOUS
10
4.97656
20
-2.61403
11
4.97655
21
-2.6141
0
LINE
8
BLACK
6
CONTINUOUS
10
4.97655
20
-2.6141
11
4.97657
21
-2.61417
0
LINE
8
BLACK
6
CONTINUOUS
10
4.97657
20
-2.61417
11
4.97657
21
-2.74803
0
LINE
8
BLACK
6
CONTINUOUS
10
4.97657
20
-2.74803
11
4.97653
21
-2.74831
0
LINE
8
BLACK
6
CONTINUOUS
10
4.97653
20
-2.74831
11
4.9765
21
-2.74837
0
LINE
8
BLACK
6
CONTINUOUS
10
4.9765
20
-2.74837
11
4.97649
21
-2.74844
0
LINE
8
BLACK
6
CONTINUOUS
10
4.97649
20
-2.74844
11
4.97635
21
-2.7486
0
LINE
8
BLACK
6
CONTINUOUS
10
4.97635
20
-2.7486
11
4.97623
21
-2.74878
0
LINE
8
BLACK
6
CONTINUOUS
10
4.97623
20
-2.74878
11
4.97617
21
-2.74881
0
LINE
8
BLACK
6
CONTINUOUS
10
4.97617
20
-2.74881
11
4.97612
21
-2.74886
0
LINE
8
BLACK
6
CONTINUOUS
10
4.97612
20
-2.74886
11
4.97592
21
-2.74892
0
LINE
8
BLACK
6
CONTINUOUS
10
4.97592
20
-2.74892
11
4.97573
21
-2.74901
0
LINE
8
BLACK
6
CONTINUOUS
10
4.97573
20
-2.74901
11
4.97566
21
-2.749
0
LINE
8
BLACK
6
CONTINUOUS
10
4.97566
20
-2.749
11
4.97559
21
-2.74902
0
LINE
8
BLACK
6
CONTINUOUS
10
4.97559
20
-2.74902
11
4.89843
21
-2.74902
0
LINE
8
BLACK
6
CONTINUOUS
10
4.89843
20
-2.74902
11
4.89815
21
-2.74898
0
LINE
8
BLACK
6
CONTINUOUS
10
4.89815
20
-2.74898
11
4.89809
21
-2.74894
0
LINE
8
BLACK
6
CONTINUOUS
10
4.89809
20
-2.74894
11
4.89802
21
-2.74893
0
LINE
8
BLACK
6
CONTINUOUS
10
4.89802
20
-2.74893
11
4.89786
21
-2.74879
0
LINE
8
BLACK
6
CONTINUOUS
10
4.89786
20
-2.74879
11
4.89768
21
-2.74867
0
LINE
8
BLACK
6
CONTINUOUS
10
4.89768
20
-2.74867
11
4.89765
21
-2.74861
0
LINE
8
BLACK
6
CONTINUOUS
10
4.89765
20
-2.74861
11
4.8976
21
-2.74856
0
LINE
8
BLACK
6
CONTINUOUS
10
4.8976
20
-2.74856
11
4.89754
21
-2.74836
0
LINE
8
BLACK
6
CONTINUOUS
10
4.89754
20
-2.74836
11
4.89745
21
-2.74817
0
LINE
8
BLACK
6
CONTINUOUS
10
4.89745
20
-2.74817
11
4.89746
21
-2.7481
0
LINE
8
BLACK
6
CONTINUOUS
10
4.89746
20
-2.7481
11
4.89744
21
-2.74803
0
LINE
8
BLACK
6
CONTINUOUS
10
4.89744
20
-2.74803
11
4.89744
21
-2.61417
0
LINE
8
BLACK
6
CONTINUOUS
10
4.89744
20
-2.61417
11
4.89748
21
-2.61389
0
LINE
8
BLACK
6
CONTINUOUS
10
4.89748
20
-2.61389
11
4.89752
21
-2.61383
0
LINE
8
BLACK
6
CONTINUOUS
10
4.89752
20
-2.61383
11
4.89753
21
-2.61376
0
LINE
8
BLACK
6
CONTINUOUS
10
4.89753
20
-2.61376
11
4.89767
21
-2.6136
0
LINE
8
BLACK
6
CONTINUOUS
10
4.89767
20
-2.6136
11
4.89778
21
-2.61343
0
LINE
8
BLACK
6
CONTINUOUS
10
4.89778
20
-2.61343
11
4.89785
21
-2.6134
0
LINE
8
BLACK
6
CONTINUOUS
10
4.89785
20
-2.6134
11
4.89789
21
-2.61334
0
LINE
8
BLACK
6
CONTINUOUS
10
4.89789
20
-2.61334
11
4.8981
21
-2.61329
0
LINE
8
BLACK
6
CONTINUOUS
10
4.8981
20
-2.61329
11
4.89829
21
-2.6132
0
LINE
8
BLACK
6
CONTINUOUS
10
4.89829
20
-2.6132
11
4.89836
21
-2.61321
0
LINE
8
BLACK
6
CONTINUOUS
10
4.89836
20
-2.61321
11
4.89843
21
-2.61319
0
LINE
8
BLACK
6
CONTINUOUS
10
4.89843
20
-2.61319
11
4.97559
21
-2.61319
0
LINE
8
BLACK
6
CONTINUOUS
10
4.97559
20
-2.61319
11
4.97587
21
-2.61323
0
LINE
8
BLACK
6
CONTINUOUS
10
4.89941
20
-2.61516
11
4.89941
21
-2.74705
0
LINE
8
BLACK
6
CONTINUOUS
10
4.89941
20
-2.74705
11
4.97461
21
-2.74705
0
LINE
8
BLACK
6
CONTINUOUS
10
4.97461
20
-2.74705
11
4.97461
21
-2.61516
0
LINE
8
BLACK
6
CONTINUOUS
10
4.97461
20
-2.61516
11
4.89941
21
-2.61516
0
LINE
8
BLACK
6
CONTINUOUS
10
4.81052
20
-2.61323
11
4.81058
21
-2.61327
0
LINE
8
BLACK
6
CONTINUOUS
10
4.81058
20
-2.61327
11
4.81065
21
-2.61328
0
LINE
8
BLACK
6
CONTINUOUS
10
4.81065
20
-2.61328
11
4.8108
21
-2.61342
0
LINE
8
BLACK
6
CONTINUOUS
10
4.8108
20
-2.61342
11
4.81098
21
-2.61353
0
LINE
8
BLACK
6
CONTINUOUS
10
4.81098
20
-2.61353
11
4.81101
21
-2.61359
0
LINE
8
BLACK
6
CONTINUOUS
10
4.81101
20
-2.61359
11
4.81106
21
-2.61364
0
LINE
8
BLACK
6
CONTINUOUS
10
4.81106
20
-2.61364
11
4.81112
21
-2.61384
0
LINE
8
BLACK
6
CONTINUOUS
10
4.81112
20
-2.61384
11
4.81121
21
-2.61403
0
LINE
8
BLACK
6
CONTINUOUS
10
4.81121
20
-2.61403
11
4.8112
21
-2.6141
0
LINE
8
BLACK
6
CONTINUOUS
10
4.8112
20
-2.6141
11
4.81122
21
-2.61417
0
LINE
8
BLACK
6
CONTINUOUS
10
4.81122
20
-2.61417
11
4.81122
21
-2.74803
0
LINE
8
BLACK
6
CONTINUOUS
10
4.81122
20
-2.74803
11
4.81118
21
-2.74831
0
LINE
8
BLACK
6
CONTINUOUS
10
4.81118
20
-2.74831
11
4.81114
21
-2.74837
0
LINE
8
BLACK
6
CONTINUOUS
10
4.81114
20
-2.74837
11
4.81113
21
-2.74844
0
LINE
8
BLACK
6
CONTINUOUS
10
4.81113
20
-2.74844
11
4.81099
21
-2.7486
0
LINE
8
BLACK
6
CONTINUOUS
10
4.81099
20
-2.7486
11
4.81088
21
-2.74878
0
LINE
8
BLACK
6
CONTINUOUS
10
4.81088
20
-2.74878
11
4.81081
21
-2.74881
0
LINE
8
BLACK
6
CONTINUOUS
10
4.81081
20
-2.74881
11
4.81077
21
-2.74886
0
LINE
8
BLACK
6
CONTINUOUS
10
4.81077
20
-2.74886
11
4.81057
21
-2.74892
0
LINE
8
BLACK
6
CONTINUOUS
10
4.81057
20
-2.74892
11
4.81037
21
-2.74901
0
LINE
8
BLACK
6
CONTINUOUS
10
4.81037
20
-2.74901
11
4.8103
21
-2.749
0
LINE
8
BLACK
6
CONTINUOUS
10
4.8103
20
-2.749
11
4.81024
21
-2.74902
0
LINE
8
BLACK
6
CONTINUOUS
10
4.81024
20
-2.74902
11
4.73307
21
-2.74902
0
LINE
8
BLACK
6
CONTINUOUS
10
4.73307
20
-2.74902
11
4.73279
21
-2.74898
0
LINE
8
BLACK
6
CONTINUOUS
10
4.73279
20
-2.74898
11
4.73273
21
-2.74894
0
LINE
8
BLACK
6
CONTINUOUS
10
4.73273
20
-2.74894
11
4.73266
21
-2.74893
0
LINE
8
BLACK
6
CONTINUOUS
10
4.73266
20
-2.74893
11
4.7325
21
-2.74879
0
LINE
8
BLACK
6
CONTINUOUS
10
4.7325
20
-2.74879
11
4.73233
21
-2.74867
0
LINE
8
BLACK
6
CONTINUOUS
10
4.73233
20
-2.74867
11
4.7323
21
-2.74861
0
LINE
8
BLACK
6
CONTINUOUS
10
4.7323
20
-2.74861
11
4.73224
21
-2.74856
0
LINE
8
BLACK
6
CONTINUOUS
10
4.73224
20
-2.74856
11
4.73218
21
-2.74836
0
LINE
8
BLACK
6
CONTINUOUS
10
4.73218
20
-2.74836
11
4.7321
21
-2.74817
0
LINE
8
BLACK
6
CONTINUOUS
10
4.7321
20
-2.74817
11
4.73211
21
-2.7481
0
LINE
8
BLACK
6
CONTINUOUS
10
4.73211
20
-2.7481
11
4.73209
21
-2.74803
0
LINE
8
BLACK
6
CONTINUOUS
10
4.73209
20
-2.74803
11
4.73209
21
-2.61417
0
LINE
8
BLACK
6
CONTINUOUS
10
4.73209
20
-2.61417
11
4.73213
21
-2.61389
0
LINE
8
BLACK
6
CONTINUOUS
10
4.73213
20
-2.61389
11
4.73217
21
-2.61383
0
LINE
8
BLACK
6
CONTINUOUS
10
4.73217
20
-2.61383
11
4.73218
21
-2.61376
0
LINE
8
BLACK
6
CONTINUOUS
10
4.73218
20
-2.61376
11
4.73231
21
-2.6136
0
LINE
8
BLACK
6
CONTINUOUS
10
4.73231
20
-2.6136
11
4.73243
21
-2.61343
0
LINE
8
BLACK
6
CONTINUOUS
10
4.73243
20
-2.61343
11
4.73249
21
-2.6134
0
LINE
8
BLACK
6
CONTINUOUS
10
4.73249
20
-2.6134
11
4.73254
21
-2.61334
0
LINE
8
BLACK
6
CONTINUOUS
10
4.73254
20
-2.61334
11
4.73274
21
-2.61329
0
LINE
8
BLACK
6
CONTINUOUS
10
4.73274
20
-2.61329
11
4.73293
21
-2.6132
0
LINE
8
BLACK
6
CONTINUOUS
10
4.73293
20
-2.6132
11
4.733
21
-2.61321
0
LINE
8
BLACK
6
CONTINUOUS
10
4.733
20
-2.61321
11
4.73307
21
-2.61319
0
LINE
8
BLACK
6
CONTINUOUS
10
4.73307
20
-2.61319
11
4.81024
21
-2.61319
0
LINE
8
BLACK
6
CONTINUOUS
10
4.81024
20
-2.61319
11
4.81052
21
-2.61323
0
LINE
8
BLACK
6
CONTINUOUS
10
4.73406
20
-2.61516
11
4.73406
21
-2.74705
0
LINE
8
BLACK
6
CONTINUOUS
10
4.73406
20
-2.74705
11
4.80925
21
-2.74705
0
LINE
8
BLACK
6
CONTINUOUS
10
4.80925
20
-2.74705
11
4.80925
21
-2.61516
0
LINE
8
BLACK
6
CONTINUOUS
10
4.80925
20
-2.61516
11
4.73406
21
-2.61516
0
LINE
8
BLACK
6
CONTINUOUS
10
6.16485
20
-2.64197
11
6.16491
21
-2.64201
0
LINE
8
BLACK
6
CONTINUOUS
10
6.16491
20
-2.64201
11
6.16498
21
-2.64202
0
LINE
8
BLACK
6
CONTINUOUS
10
6.16498
20
-2.64202
11
6.16514
21
-2.64216
0
LINE
8
BLACK
6
CONTINUOUS
10
6.16514
20
-2.64216
11
6.16531
21
-2.64227
0
LINE
8
BLACK
6
CONTINUOUS
10
6.16531
20
-2.64227
11
6.16534
21
-2.64234
0
LINE
8
BLACK
6
CONTINUOUS
10
6.16534
20
-2.64234
11
6.1654
21
-2.64238
0
LINE
8
BLACK
6
CONTINUOUS
10
6.1654
20
-2.64238
11
6.16545
21
-2.64258
0
LINE
8
BLACK
6
CONTINUOUS
10
6.16545
20
-2.64258
11
6.16554
21
-2.64277
0
LINE
8
BLACK
6
CONTINUOUS
10
6.16554
20
-2.64277
11
6.16553
21
-2.64285
0
LINE
8
BLACK
6
CONTINUOUS
10
6.16553
20
-2.64285
11
6.16555
21
-2.64291
0
LINE
8
BLACK
6
CONTINUOUS
10
6.16555
20
-2.64291
11
6.16555
21
-2.7311
0
LINE
8
BLACK
6
CONTINUOUS
10
6.16555
20
-2.7311
11
6.16551
21
-2.73138
0
LINE
8
BLACK
6
CONTINUOUS
10
6.16551
20
-2.73138
11
6.16547
21
-2.73144
0
LINE
8
BLACK
6
CONTINUOUS
10
6.16547
20
-2.73144
11
6.16546
21
-2.73151
0
LINE
8
BLACK
6
CONTINUOUS
10
6.16546
20
-2.73151
11
6.16532
21
-2.73167
0
LINE
8
BLACK
6
CONTINUOUS
10
6.16532
20
-2.73167
11
6.16521
21
-2.73185
0
LINE
8
BLACK
6
CONTINUOUS
10
6.16521
20
-2.73185
11
6.16515
21
-2.73188
0
LINE
8
BLACK
6
CONTINUOUS
10
6.16515
20
-2.73188
11
6.1651
21
-2.73193
0
LINE
8
BLACK
6
CONTINUOUS
10
6.1651
20
-2.73193
11
6.1649
21
-2.73199
0
LINE
8
BLACK
6
CONTINUOUS
10
6.1649
20
-2.73199
11
6.16471
21
-2.73208
0
LINE
8
BLACK
6
CONTINUOUS
10
6.16471
20
-2.73208
11
6.16464
21
-2.73207
0
LINE
8
BLACK
6
CONTINUOUS
10
6.16464
20
-2.73207
11
6.16457
21
-2.73209
0
LINE
8
BLACK
6
CONTINUOUS
10
6.16457
20
-2.73209
11
5.98504
21
-2.73209
0
LINE
8
BLACK
6
CONTINUOUS
10
5.98504
20
-2.73209
11
5.98476
21
-2.73205
0
LINE
8
BLACK
6
CONTINUOUS
10
5.98476
20
-2.73205
11
5.9847
21
-2.73201
0
LINE
8
BLACK
6
CONTINUOUS
10
5.9847
20
-2.73201
11
5.98463
21
-2.732
0
LINE
8
BLACK
6
CONTINUOUS
10
5.98463
20
-2.732
11
5.98447
21
-2.73186
0
LINE
8
BLACK
6
CONTINUOUS
10
5.98447
20
-2.73186
11
5.98429
21
-2.73175
0
LINE
8
BLACK
6
CONTINUOUS
10
5.98429
20
-2.73175
11
5.98426
21
-2.73168
0
LINE
8
BLACK
6
CONTINUOUS
10
5.98426
20
-2.73168
11
5.98421
21
-2.73163
0
LINE
8
BLACK
6
CONTINUOUS
10
5.98421
20
-2.73163
11
5.98415
21
-2.73143
0
LINE
8
BLACK
6
CONTINUOUS
10
5.98415
20
-2.73143
11
5.98406
21
-2.73124
0
LINE
8
BLACK
6
CONTINUOUS
10
5.98406
20
-2.73124
11
5.98408
21
-2.73117
0
LINE
8
BLACK
6
CONTINUOUS
10
5.98408
20
-2.73117
11
5.98406
21
-2.7311
0
LINE
8
BLACK
6
CONTINUOUS
10
5.98406
20
-2.7311
11
5.98406
21
-2.64291
0
LINE
8
BLACK
6
CONTINUOUS
10
5.98406
20
-2.64291
11
5.9841
21
-2.64263
0
LINE
8
BLACK
6
CONTINUOUS
10
5.9841
20
-2.64263
11
5.98413
21
-2.64257
0
LINE
8
BLACK
6
CONTINUOUS
10
5.98413
20
-2.64257
11
5.98414
21
-2.6425
0
LINE
8
BLACK
6
CONTINUOUS
10
5.98414
20
-2.6425
11
5.98428
21
-2.64234
0
LINE
8
BLACK
6
CONTINUOUS
10
5.98428
20
-2.64234
11
5.9844
21
-2.64217
0
LINE
8
BLACK
6
CONTINUOUS
10
5.9844
20
-2.64217
11
5.98446
21
-2.64214
0
LINE
8
BLACK
6
CONTINUOUS
10
5.98446
20
-2.64214
11
5.98451
21
-2.64209
0
LINE
8
BLACK
6
CONTINUOUS
10
5.98451
20
-2.64209
11
5.98471
21
-2.64203
0
LINE
8
BLACK
6
CONTINUOUS
10
5.98471
20
-2.64203
11
5.9849
21
-2.64194
0
LINE
8
BLACK
6
CONTINUOUS
10
5.9849
20
-2.64194
11
5.98497
21
-2.64195
0
LINE
8
BLACK
6
CONTINUOUS
10
5.98497
20
-2.64195
11
5.98504
21
-2.64193
0
LINE
8
BLACK
6
CONTINUOUS
10
5.98504
20
-2.64193
11
6.16457
21
-2.64193
0
LINE
8
BLACK
6
CONTINUOUS
10
6.16457
20
-2.64193
11
6.16485
21
-2.64197
0
LINE
8
BLACK
6
CONTINUOUS
10
5.98602
20
-2.6439
11
5.98602
21
-2.73012
0
LINE
8
BLACK
6
CONTINUOUS
10
5.98602
20
-2.73012
11
6.16358
21
-2.73012
0
LINE
8
BLACK
6
CONTINUOUS
10
6.16358
20
-2.73012
11
6.16358
21
-2.6439
0
LINE
8
BLACK
6
CONTINUOUS
10
6.16358
20
-2.6439
11
5.98602
21
-2.6439
0
LINE
8
BLACK
6
CONTINUOUS
10
6.14083
20
-2.48921
11
6.14089
21
-2.48925
0
LINE
8
BLACK
6
CONTINUOUS
10
6.14089
20
-2.48925
11
6.14096
21
-2.48926
0
LINE
8
BLACK
6
CONTINUOUS
10
6.14096
20
-2.48926
11
6.14112
21
-2.4894
0
LINE
8
BLACK
6
CONTINUOUS
10
6.14112
20
-2.4894
11
6.1413
21
-2.48951
0
LINE
8
BLACK
6
CONTINUOUS
10
6.1413
20
-2.48951
11
6.14133
21
-2.48958
0
LINE
8
BLACK
6
CONTINUOUS
10
6.14133
20
-2.48958
11
6.14138
21
-2.48963
0
LINE
8
BLACK
6
CONTINUOUS
10
6.14138
20
-2.48963
11
6.14144
21
-2.48983
0
LINE
8
BLACK
6
CONTINUOUS
10
6.14144
20
-2.48983
11
6.14153
21
-2.49002
0
LINE
8
BLACK
6
CONTINUOUS
10
6.14153
20
-2.49002
11
6.14152
21
-2.49009
0
LINE
8
BLACK
6
CONTINUOUS
10
6.14152
20
-2.49009
11
6.14154
21
-2.49016
0
LINE
8
BLACK
6
CONTINUOUS
10
6.14154
20
-2.49016
11
6.14154
21
-2.56496
0
LINE
8
BLACK
6
CONTINUOUS
10
6.14154
20
-2.56496
11
6.14149
21
-2.56524
0
LINE
8
BLACK
6
CONTINUOUS
10
6.14149
20
-2.56524
11
6.14146
21
-2.5653
0
LINE
8
BLACK
6
CONTINUOUS
10
6.14146
20
-2.5653
11
6.14145
21
-2.56537
0
LINE
8
BLACK
6
CONTINUOUS
10
6.14145
20
-2.56537
11
6.14131
21
-2.56553
0
LINE
8
BLACK
6
CONTINUOUS
10
6.14131
20
-2.56553
11
6.14119
21
-2.56571
0
LINE
8
BLACK
6
CONTINUOUS
10
6.14119
20
-2.56571
11
6.14113
21
-2.56574
0
LINE
8
BLACK
6
CONTINUOUS
10
6.14113
20
-2.56574
11
6.14108
21
-2.56579
0
LINE
8
BLACK
6
CONTINUOUS
10
6.14108
20
-2.56579
11
6.14088
21
-2.56585
0
LINE
8
BLACK
6
CONTINUOUS
10
6.14088
20
-2.56585
11
6.14069
21
-2.56594
0
LINE
8
BLACK
6
CONTINUOUS
10
6.14069
20
-2.56594
11
6.14062
21
-2.56592
0
LINE
8
BLACK
6
CONTINUOUS
10
6.14062
20
-2.56592
11
6.14055
21
-2.56594
0
LINE
8
BLACK
6
CONTINUOUS
10
6.14055
20
-2.56594
11
6.00827
21
-2.56594
0
LINE
8
BLACK
6
CONTINUOUS
10
6.00827
20
-2.56594
11
6.00799
21
-2.5659
0
LINE
8
BLACK
6
CONTINUOUS
10
6.00799
20
-2.5659
11
6.00793
21
-2.56587
0
LINE
8
BLACK
6
CONTINUOUS
10
6.00793
20
-2.56587
11
6.00786
21
-2.56586
0
LINE
8
BLACK
6
CONTINUOUS
10
6.00786
20
-2.56586
11
6.0077
21
-2.56572
0
LINE
8
BLACK
6
CONTINUOUS
10
6.0077
20
-2.56572
11
6.00752
21
-2.5656
0
LINE
8
BLACK
6
CONTINUOUS
10
6.00752
20
-2.5656
11
6.00749
21
-2.56554
0
LINE
8
BLACK
6
CONTINUOUS
10
6.00749
20
-2.56554
11
6.00744
21
-2.56549
0
LINE
8
BLACK
6
CONTINUOUS
10
6.00744
20
-2.56549
11
6.00738
21
-2.56529
0
LINE
8
BLACK
6
CONTINUOUS
10
6.00738
20
-2.56529
11
6.00729
21
-2.5651
0
LINE
8
BLACK
6
CONTINUOUS
10
6.00729
20
-2.5651
11
6.0073
21
-2.56503
0
LINE
8
BLACK
6
CONTINUOUS
10
6.0073
20
-2.56503
11
6.00728
21
-2.56496
0
LINE
8
BLACK
6
CONTINUOUS
10
6.00728
20
-2.56496
11
6.00728
21
-2.49016
0
LINE
8
BLACK
6
CONTINUOUS
10
6.00728
20
-2.49016
11
6.00732
21
-2.48988
0
LINE
8
BLACK
6
CONTINUOUS
10
6.00732
20
-2.48988
11
6.00736
21
-2.48982
0
LINE
8
BLACK
6
CONTINUOUS
10
6.00736
20
-2.48982
11
6.00737
21
-2.48975
0
LINE
8
BLACK
6
CONTINUOUS
10
6.00737
20
-2.48975
11
6.00751
21
-2.48959
0
LINE
8
BLACK
6
CONTINUOUS
10
6.00751
20
-2.48959
11
6.00762
21
-2.48941
0
LINE
8
BLACK
6
CONTINUOUS
10
6.00762
20
-2.48941
11
6.00769
21
-2.48938
0
LINE
8
BLACK
6
CONTINUOUS
10
6.00769
20
-2.48938
11
6.00774
21
-2.48933
0
LINE
8
BLACK
6
CONTINUOUS
10
6.00774
20
-2.48933
11
6.00794
21
-2.48927
0
LINE
8
BLACK
6
CONTINUOUS
10
6.00794
20
-2.48927
11
6.00813
21
-2.48918
0
LINE
8
BLACK
6
CONTINUOUS
10
6.00813
20
-2.48918
11
6.0082
21
-2.48919
0
LINE
8
BLACK
6
CONTINUOUS
10
6.0082
20
-2.48919
11
6.00827
21
-2.48917
0
LINE
8
BLACK
6
CONTINUOUS
10
6.00827
20
-2.48917
11
6.14055
21
-2.48917
0
LINE
8
BLACK
6
CONTINUOUS
10
6.14055
20
-2.48917
11
6.14083
21
-2.48921
0
LINE
8
BLACK
6
CONTINUOUS
10
6.00925
20
-2.49114
11
6.00925
21
-2.56398
0
LINE
8
BLACK
6
CONTINUOUS
10
6.00925
20
-2.56398
11
6.13957
21
-2.56398
0
LINE
8
BLACK
6
CONTINUOUS
10
6.13957
20
-2.56398
11
6.13957
21
-2.49114
0
LINE
8
BLACK
6
CONTINUOUS
10
6.13957
20
-2.49114
11
6.00925
21
-2.49114
0
LINE
8
BLACK
6
CONTINUOUS
10
5.92961
20
-2.48921
11
5.92967
21
-2.48925
0
LINE
8
BLACK
6
CONTINUOUS
10
5.92967
20
-2.48925
11
5.92974
21
-2.48926
0
LINE
8
BLACK
6
CONTINUOUS
10
5.92974
20
-2.48926
11
5.9299
21
-2.4894
0
LINE
8
BLACK
6
CONTINUOUS
10
5.9299
20
-2.4894
11
5.93008
21
-2.48951
0
LINE
8
BLACK
6
CONTINUOUS
10
5.93008
20
-2.48951
11
5.93011
21
-2.48958
0
LINE
8
BLACK
6
CONTINUOUS
10
5.93011
20
-2.48958
11
5.93016
21
-2.48963
0
LINE
8
BLACK
6
CONTINUOUS
10
5.93016
20
-2.48963
11
5.93022
21
-2.48983
0
LINE
8
BLACK
6
CONTINUOUS
10
5.93022
20
-2.48983
11
5.93031
21
-2.49002
0
LINE
8
BLACK
6
CONTINUOUS
10
5.93031
20
-2.49002
11
5.93029
21
-2.49009
0
LINE
8
BLACK
6
CONTINUOUS
10
5.93029
20
-2.49009
11
5.93031
21
-2.49016
0
LINE
8
BLACK
6
CONTINUOUS
10
5.93031
20
-2.49016
11
5.93031
21
-2.56496
0
LINE
8
BLACK
6
CONTINUOUS
10
5.93031
20
-2.56496
11
5.93027
21
-2.56524
0
LINE
8
BLACK
6
CONTINUOUS
10
5.93027
20
-2.56524
11
5.93024
21
-2.5653
0
LINE
8
BLACK
6
CONTINUOUS
10
5.93024
20
-2.5653
11
5.93023
21
-2.56537
0
LINE
8
BLACK
6
CONTINUOUS
10
5.93023
20
-2.56537
11
5.93009
21
-2.56553
0
LINE
8
BLACK
6
CONTINUOUS
10
5.93009
20
-2.56553
11
5.92997
21
-2.56571
0
LINE
8
BLACK
6
CONTINUOUS
10
5.92997
20
-2.56571
11
5.92991
21
-2.56574
0
LINE
8
BLACK
6
CONTINUOUS
10
5.92991
20
-2.56574
11
5.92986
21
-2.56579
0
LINE
8
BLACK
6
CONTINUOUS
10
5.92986
20
-2.56579
11
5.92966
21
-2.56585
0
LINE
8
BLACK
6
CONTINUOUS
10
5.92966
20
-2.56585
11
5.92947
21
-2.56594
0
LINE
8
BLACK
6
CONTINUOUS
10
5.92947
20
-2.56594
11
5.9294
21
-2.56592
0
LINE
8
BLACK
6
CONTINUOUS
10
5.9294
20
-2.56592
11
5.92933
21
-2.56594
0
LINE
8
BLACK
6
CONTINUOUS
10
5.92933
20
-2.56594
11
5.79705
21
-2.56594
0
LINE
8
BLACK
6
CONTINUOUS
10
5.79705
20
-2.56594
11
5.79677
21
-2.5659
0
LINE
8
BLACK
6
CONTINUOUS
10
5.79677
20
-2.5659
11
5.79671
21
-2.56587
0
LINE
8
BLACK
6
CONTINUOUS
10
5.79671
20
-2.56587
11
5.79664
21
-2.56586
0
LINE
8
BLACK
6
CONTINUOUS
10
5.79664
20
-2.56586
11
5.79648
21
-2.56572
0
LINE
8
BLACK
6
CONTINUOUS
10
5.79648
20
-2.56572
11
5.7963
21
-2.5656
0
LINE
8
BLACK
6
CONTINUOUS
10
5.7963
20
-2.5656
11
5.79627
21
-2.56554
0
LINE
8
BLACK
6
CONTINUOUS
10
5.79627
20
-2.56554
11
5.79622
21
-2.56549
0
LINE
8
BLACK
6
CONTINUOUS
10
5.79622
20
-2.56549
11
5.79616
21
-2.56529
0
LINE
8
BLACK
6
CONTINUOUS
10
5.79616
20
-2.56529
11
5.79607
21
-2.5651
0
LINE
8
BLACK
6
CONTINUOUS
10
5.79607
20
-2.5651
11
5.79608
21
-2.56503
0
LINE
8
BLACK
6
CONTINUOUS
10
5.79608
20
-2.56503
11
5.79606
21
-2.56496
0
LINE
8
BLACK
6
CONTINUOUS
10
5.79606
20
-2.56496
11
5.79606
21
-2.49016
0
LINE
8
BLACK
6
CONTINUOUS
10
5.79606
20
-2.49016
11
5.7961
21
-2.48988
0
LINE
8
BLACK
6
CONTINUOUS
10
5.7961
20
-2.48988
11
5.79614
21
-2.48982
0
LINE
8
BLACK
6
CONTINUOUS
10
5.79614
20
-2.48982
11
5.79615
21
-2.48975
0
LINE
8
BLACK
6
CONTINUOUS
10
5.79615
20
-2.48975
11
5.79629
21
-2.48959
0
LINE
8
BLACK
6
CONTINUOUS
10
5.79629
20
-2.48959
11
5.7964
21
-2.48941
0
LINE
8
BLACK
6
CONTINUOUS
10
5.7964
20
-2.48941
11
5.79647
21
-2.48938
0
LINE
8
BLACK
6
CONTINUOUS
10
5.79647
20
-2.48938
11
5.79652
21
-2.48933
0
LINE
8
BLACK
6
CONTINUOUS
10
5.79652
20
-2.48933
11
5.79672
21
-2.48927
0
LINE
8
BLACK
6
CONTINUOUS
10
5.79672
20
-2.48927
11
5.79691
21
-2.48918
0
LINE
8
BLACK
6
CONTINUOUS
10
5.79691
20
-2.48918
11
5.79698
21
-2.48919
0
LINE
8
BLACK
6
CONTINUOUS
10
5.79698
20
-2.48919
11
5.79705
21
-2.48917
0
LINE
8
BLACK
6
CONTINUOUS
10
5.79705
20
-2.48917
11
5.92933
21
-2.48917
0
LINE
8
BLACK
6
CONTINUOUS
10
5.92933
20
-2.48917
11
5.92961
21
-2.48921
0
LINE
8
BLACK
6
CONTINUOUS
10
5.79803
20
-2.49114
11
5.79803
21
-2.56398
0
LINE
8
BLACK
6
CONTINUOUS
10
5.79803
20
-2.56398
11
5.92835
21
-2.56398
0
LINE
8
BLACK
6
CONTINUOUS
10
5.92835
20
-2.56398
11
5.92835
21
-2.49114
0
LINE
8
BLACK
6
CONTINUOUS
10
5.92835
20
-2.49114
11
5.79803
21
-2.49114
0
LINE
8
BLACK
6
CONTINUOUS
10
6.17725
20
-2.12347
11
6.17731
21
-2.1235
0
LINE
8
BLACK
6
CONTINUOUS
10
6.17731
20
-2.1235
11
6.17738
21
-2.12351
0
LINE
8
BLACK
6
CONTINUOUS
10
6.17738
20
-2.12351
11
6.17754
21
-2.12365
0
LINE
8
BLACK
6
CONTINUOUS
10
6.17754
20
-2.12365
11
6.17771
21
-2.12377
0
LINE
8
BLACK
6
CONTINUOUS
10
6.17771
20
-2.12377
11
6.17774
21
-2.12383
0
LINE
8
BLACK
6
CONTINUOUS
10
6.17774
20
-2.12383
11
6.1778
21
-2.12388
0
LINE
8
BLACK
6
CONTINUOUS
10
6.1778
20
-2.12388
11
6.17786
21
-2.12408
0
LINE
8
BLACK
6
CONTINUOUS
10
6.17786
20
-2.12408
11
6.17794
21
-2.12427
0
LINE
8
BLACK
6
CONTINUOUS
10
6.17794
20
-2.12427
11
6.17793
21
-2.12434
0
LINE
8
BLACK
6
CONTINUOUS
10
6.17793
20
-2.12434
11
6.17795
21
-2.12441
0
LINE
8
BLACK
6
CONTINUOUS
10
6.17795
20
-2.12441
11
6.17795
21
-2.47598
0
LINE
8
BLACK
6
CONTINUOUS
10
6.17795
20
-2.47598
11
6.17791
21
-2.47626
0
LINE
8
BLACK
6
CONTINUOUS
10
6.17791
20
-2.47626
11
6.17787
21
-2.47632
0
LINE
8
BLACK
6
CONTINUOUS
10
6.17787
20
-2.47632
11
6.17786
21
-2.47639
0
LINE
8
BLACK
6
CONTINUOUS
10
6.17786
20
-2.47639
11
6.17773
21
-2.47655
0
LINE
8
BLACK
6
CONTINUOUS
10
6.17773
20
-2.47655
11
6.17761
21
-2.47673
0
LINE
8
BLACK
6
CONTINUOUS
10
6.17761
20
-2.47673
11
6.17755
21
-2.47676
0
LINE
8
BLACK
6
CONTINUOUS
10
6.17755
20
-2.47676
11
6.1775
21
-2.47681
0
LINE
8
BLACK
6
CONTINUOUS
10
6.1775
20
-2.47681
11
6.1773
21
-2.47687
0
LINE
8
BLACK
6
CONTINUOUS
10
6.1773
20
-2.47687
11
6.17711
21
-2.47696
0
LINE
8
BLACK
6
CONTINUOUS
10
6.17711
20
-2.47696
11
6.17704
21
-2.47695
0
LINE
8
BLACK
6
CONTINUOUS
10
6.17704
20
-2.47695
11
6.17697
21
-2.47697
0
LINE
8
BLACK
6
CONTINUOUS
10
6.17697
20
-2.47697
11
5.76201
21
-2.47697
0
LINE
8
BLACK
6
CONTINUOUS
10
5.76201
20
-2.47697
11
5.76173
21
-2.47693
0
LINE
8
BLACK
6
CONTINUOUS
10
5.76173
20
-2.47693
11
5.76167
21
-2.47689
0
LINE
8
BLACK
6
CONTINUOUS
10
5.76167
20
-2.47689
11
5.7616
21
-2.47688
0
LINE
8
BLACK
6
CONTINUOUS
10
5.7616
20
-2.47688
11
5.76144
21
-2.47674
0
LINE
8
BLACK
6
CONTINUOUS
10
5.76144
20
-2.47674
11
5.76126
21
-2.47663
0
LINE
8
BLACK
6
CONTINUOUS
10
5.76126
20
-2.47663
11
5.76123
21
-2.47656
0
LINE
8
BLACK
6
CONTINUOUS
10
5.76123
20
-2.47656
11
5.76118
21
-2.47652
0
LINE
8
BLACK
6
CONTINUOUS
10
5.76118
20
-2.47652
11
5.76112
21
-2.47631
0
LINE
8
BLACK
6
CONTINUOUS
10
5.76112
20
-2.47631
11
5.76103
21
-2.47612
0
LINE
8
BLACK
6
CONTINUOUS
10
5.76103
20
-2.47612
11
5.76104
21
-2.47605
0
LINE
8
BLACK
6
CONTINUOUS
10
5.76104
20
-2.47605
11
5.76102
21
-2.47598
0
LINE
8
BLACK
6
CONTINUOUS
10
5.76102
20
-2.47598
11
5.76102
21
-2.12441
0
LINE
8
BLACK
6
CONTINUOUS
10
5.76102
20
-2.12441
11
5.76106
21
-2.12413
0
LINE
8
BLACK
6
CONTINUOUS
10
5.76106
20
-2.12413
11
5.7611
21
-2.12407
0
LINE
8
BLACK
6
CONTINUOUS
10
5.7611
20
-2.12407
11
5.76111
21
-2.124
0
LINE
8
BLACK
6
CONTINUOUS
10
5.76111
20
-2.124
11
5.76125
21
-2.12384
0
LINE
8
BLACK
6
CONTINUOUS
10
5.76125
20
-2.12384
11
5.76136
21
-2.12366
0
LINE
8
BLACK
6
CONTINUOUS
10
5.76136
20
-2.12366
11
5.76143
21
-2.12363
0
LINE
8
BLACK
6
CONTINUOUS
10
5.76143
20
-2.12363
11
5.76148
21
-2.12358
0
LINE
8
BLACK
6
CONTINUOUS
10
5.76148
20
-2.12358
11
5.76168
21
-2.12352
0
LINE
8
BLACK
6
CONTINUOUS
10
5.76168
20
-2.12352
11
5.76187
21
-2.12343
0
LINE
8
BLACK
6
CONTINUOUS
10
5.76187
20
-2.12343
11
5.76194
21
-2.12345
0
LINE
8
BLACK
6
CONTINUOUS
10
5.76194
20
-2.12345
11
5.76201
21
-2.12343
0
LINE
8
BLACK
6
CONTINUOUS
10
5.76201
20
-2.12343
11
6.17697
21
-2.12343
0
LINE
8
BLACK
6
CONTINUOUS
10
6.17697
20
-2.12343
11
6.17725
21
-2.12347
0
LINE
8
BLACK
6
CONTINUOUS
10
5.76299
20
-2.12539
11
5.76299
21
-2.475
0
LINE
8
BLACK
6
CONTINUOUS
10
5.76299
20
-2.475
11
6.17598
21
-2.475
0
LINE
8
BLACK
6
CONTINUOUS
10
6.17598
20
-2.475
11
6.17598
21
-2.12539
0
LINE
8
BLACK
6
CONTINUOUS
10
6.17598
20
-2.12539
11
5.76299
21
-2.12539
  0
ENDSEC
  0
EOF
