  0
SECTION
  2
HEADER
  9
$ANGBASE
  50
0.0
  9
$ANGDIR
  70
1
  9
$MEASUREMENT
  70
0
  0
ENDSEC
  0
SECTION
  2
TABLES
  0
TABLE
  2
LTYPE
  70
4
  0
LTYPE
  5
40F
  2
CONTINUOUS
  70
0
  3
Solid line
  72
65
  73
0
  40
0.0
  0
LTYPE
  5
410
  2
DASHDOT
 70
0
  3
Dash Dot ____ _ ____ _
 72
65
 73
4
 40
2.0
 49
1.25
 49
-0.25
 49
0.25
 49
-0.25
  0
LTYPE
  5
411
  2
DASHED
 70
0
  3
Dashed __ __ __ __ __
 72
65
 73
2
 40
0.75
 49
0.5
 49
-0.25
  0
LTYPE
  5
43B
  2
DOTTED
 70
0
  3
Dotted .  .  .  .
 72
65
 73
2
 40
0.2
 49
0.0
 49
-0.2
  0
ENDTAB
  0
TABLE
  2
STYLE
  70
4
  0
STYLE
  2
KICAD
  70
0
  40
0
  41
1
  42
1
  50
0
  71
0
  3
isocp.shx
  0
STYLE
  2
KICADB
  70
0
  40
0
  41
1
  42
1
  50
0
  71
0
  3
isocp.shx
  0
STYLE
  2
KICADI
  70
0
  40
0
  41
1
  42
1
  50
15
  71
0
  3
isocp.shx
  0
STYLE
  2
KICADBI
  70
0
  40
0
  41
1
  42
1
  50
15
  71
0
  3
isocp.shx
  0
ENDTAB
  0
TABLE
  2
LAYER
  70
1
  0
LAYER
  2
BLACK
  70
0
  62
7
  6
CONTINUOUS
  0
ENDTAB
  0
ENDSEC
  0
SECTION
  2
ENTITIES
0
LINE
8
BLACK
6
CONTINUOUS
10
4.84663
20
-3.36576
11
4.84669
21
-3.36576
0
LINE
8
BLACK
6
CONTINUOUS
10
4.84669
20
-3.36576
11
4.84675
21
-3.36578
0
LINE
8
BLACK
6
CONTINUOUS
10
4.84675
20
-3.36578
11
4.84692
21
-3.36579
0
LINE
8
BLACK
6
CONTINUOUS
10
4.84692
20
-3.36579
11
4.84721
21
-3.36591
0
LINE
8
BLACK
6
CONTINUOUS
10
4.84721
20
-3.36591
11
4.84752
21
-3.366
0
LINE
8
BLACK
6
CONTINUOUS
10
4.84752
20
-3.366
11
4.84761
21
-3.36607
0
LINE
8
BLACK
6
CONTINUOUS
10
4.84761
20
-3.36607
11
4.84772
21
-3.36611
0
LINE
8
BLACK
6
CONTINUOUS
10
4.84772
20
-3.36611
11
4.84795
21
-3.36633
0
LINE
8
BLACK
6
CONTINUOUS
10
4.84795
20
-3.36633
11
4.84821
21
-3.36652
0
LINE
8
BLACK
6
CONTINUOUS
10
4.84821
20
-3.36652
11
4.84827
21
-3.36662
0
LINE
8
BLACK
6
CONTINUOUS
10
4.84827
20
-3.36662
11
4.84835
21
-3.3667
0
LINE
8
BLACK
6
CONTINUOUS
10
4.84835
20
-3.3667
11
4.84849
21
-3.36699
0
LINE
8
BLACK
6
CONTINUOUS
10
4.84849
20
-3.36699
11
4.84866
21
-3.36726
0
LINE
8
BLACK
6
CONTINUOUS
10
4.84866
20
-3.36726
11
4.84868
21
-3.36737
0
LINE
8
BLACK
6
CONTINUOUS
10
4.84868
20
-3.36737
11
4.84873
21
-3.36748
0
LINE
8
BLACK
6
CONTINUOUS
10
4.84873
20
-3.36748
11
4.84876
21
-3.3678
0
LINE
8
BLACK
6
CONTINUOUS
10
4.84876
20
-3.3678
11
4.84882
21
-3.36811
0
LINE
8
BLACK
6
CONTINUOUS
10
4.84882
20
-3.36811
11
4.84882
21
-3.54528
0
LINE
8
BLACK
6
CONTINUOUS
10
4.84882
20
-3.54528
11
4.8488
21
-3.54544
0
LINE
8
BLACK
6
CONTINUOUS
10
4.8488
20
-3.54544
11
4.84881
21
-3.54551
0
LINE
8
BLACK
6
CONTINUOUS
10
4.84881
20
-3.54551
11
4.84879
21
-3.54557
0
LINE
8
BLACK
6
CONTINUOUS
10
4.84879
20
-3.54557
11
4.84877
21
-3.54573
0
LINE
8
BLACK
6
CONTINUOUS
10
4.84877
20
-3.54573
11
4.84866
21
-3.54603
0
LINE
8
BLACK
6
CONTINUOUS
10
4.84866
20
-3.54603
11
4.84857
21
-3.54634
0
LINE
8
BLACK
6
CONTINUOUS
10
4.84857
20
-3.54634
11
4.8485
21
-3.54643
0
LINE
8
BLACK
6
CONTINUOUS
10
4.8485
20
-3.54643
11
4.84845
21
-3.54654
0
LINE
8
BLACK
6
CONTINUOUS
10
4.84845
20
-3.54654
11
4.84824
21
-3.54677
0
LINE
8
BLACK
6
CONTINUOUS
10
4.84824
20
-3.54677
11
4.84804
21
-3.54703
0
LINE
8
BLACK
6
CONTINUOUS
10
4.84804
20
-3.54703
11
4.84794
21
-3.54709
0
LINE
8
BLACK
6
CONTINUOUS
10
4.84794
20
-3.54709
11
4.84787
21
-3.54717
0
LINE
8
BLACK
6
CONTINUOUS
10
4.84787
20
-3.54717
11
4.84758
21
-3.54731
0
LINE
8
BLACK
6
CONTINUOUS
10
4.84758
20
-3.54731
11
4.84731
21
-3.54748
0
LINE
8
BLACK
6
CONTINUOUS
10
4.84731
20
-3.54748
11
4.84719
21
-3.5475
0
LINE
8
BLACK
6
CONTINUOUS
10
4.84719
20
-3.5475
11
4.84709
21
-3.54755
0
LINE
8
BLACK
6
CONTINUOUS
10
4.84709
20
-3.54755
11
4.84677
21
-3.54758
0
LINE
8
BLACK
6
CONTINUOUS
10
4.84677
20
-3.54758
11
4.84646
21
-3.54764
0
LINE
8
BLACK
6
CONTINUOUS
10
4.84646
20
-3.54764
11
4.58661
21
-3.54764
0
LINE
8
BLACK
6
CONTINUOUS
10
4.58661
20
-3.54764
11
4.58645
21
-3.54762
0
LINE
8
BLACK
6
CONTINUOUS
10
4.58645
20
-3.54762
11
4.58638
21
-3.54763
0
LINE
8
BLACK
6
CONTINUOUS
10
4.58638
20
-3.54763
11
4.58632
21
-3.54761
0
LINE
8
BLACK
6
CONTINUOUS
10
4.58632
20
-3.54761
11
4.58616
21
-3.54759
0
LINE
8
BLACK
6
CONTINUOUS
10
4.58616
20
-3.54759
11
4.58586
21
-3.54747
0
LINE
8
BLACK
6
CONTINUOUS
10
4.58586
20
-3.54747
11
4.58555
21
-3.54739
0
LINE
8
BLACK
6
CONTINUOUS
10
4.58555
20
-3.54739
11
4.58546
21
-3.54732
0
LINE
8
BLACK
6
CONTINUOUS
10
4.58546
20
-3.54732
11
4.58535
21
-3.54727
0
LINE
8
BLACK
6
CONTINUOUS
10
4.58535
20
-3.54727
11
4.58512
21
-3.54706
0
LINE
8
BLACK
6
CONTINUOUS
10
4.58512
20
-3.54706
11
4.58486
21
-3.54686
0
LINE
8
BLACK
6
CONTINUOUS
10
4.58486
20
-3.54686
11
4.5848
21
-3.54676
0
LINE
8
BLACK
6
CONTINUOUS
10
4.5848
20
-3.54676
11
4.58472
21
-3.54668
0
LINE
8
BLACK
6
CONTINUOUS
10
4.58472
20
-3.54668
11
4.58458
21
-3.5464
0
LINE
8
BLACK
6
CONTINUOUS
10
4.58458
20
-3.5464
11
4.58441
21
-3.54613
0
LINE
8
BLACK
6
CONTINUOUS
10
4.58441
20
-3.54613
11
4.58439
21
-3.54601
0
LINE
8
BLACK
6
CONTINUOUS
10
4.58439
20
-3.54601
11
4.58434
21
-3.54591
0
LINE
8
BLACK
6
CONTINUOUS
10
4.58434
20
-3.54591
11
4.58431
21
-3.54559
0
LINE
8
BLACK
6
CONTINUOUS
10
4.58431
20
-3.54559
11
4.58425
21
-3.54528
0
LINE
8
BLACK
6
CONTINUOUS
10
4.58425
20
-3.54528
11
4.58425
21
-3.36811
0
LINE
8
BLACK
6
CONTINUOUS
10
4.58425
20
-3.36811
11
4.58427
21
-3.36794
0
LINE
8
BLACK
6
CONTINUOUS
10
4.58427
20
-3.36794
11
4.58426
21
-3.36788
0
LINE
8
BLACK
6
CONTINUOUS
10
4.58426
20
-3.36788
11
4.58428
21
-3.36782
0
LINE
8
BLACK
6
CONTINUOUS
10
4.58428
20
-3.36782
11
4.5843
21
-3.36765
0
LINE
8
BLACK
6
CONTINUOUS
10
4.5843
20
-3.36765
11
4.58442
21
-3.36736
0
LINE
8
BLACK
6
CONTINUOUS
10
4.58442
20
-3.36736
11
4.5845
21
-3.36705
0
LINE
8
BLACK
6
CONTINUOUS
10
4.5845
20
-3.36705
11
4.58457
21
-3.36696
0
LINE
8
BLACK
6
CONTINUOUS
10
4.58457
20
-3.36696
11
4.58462
21
-3.36685
0
LINE
8
BLACK
6
CONTINUOUS
10
4.58462
20
-3.36685
11
4.58483
21
-3.36661
0
LINE
8
BLACK
6
CONTINUOUS
10
4.58483
20
-3.36661
11
4.58503
21
-3.36636
0
LINE
8
BLACK
6
CONTINUOUS
10
4.58503
20
-3.36636
11
4.58513
21
-3.3663
0
LINE
8
BLACK
6
CONTINUOUS
10
4.58513
20
-3.3663
11
4.58521
21
-3.36621
0
LINE
8
BLACK
6
CONTINUOUS
10
4.58521
20
-3.36621
11
4.58549
21
-3.36607
0
LINE
8
BLACK
6
CONTINUOUS
10
4.58549
20
-3.36607
11
4.58576
21
-3.36591
0
LINE
8
BLACK
6
CONTINUOUS
10
4.58576
20
-3.36591
11
4.58588
21
-3.36589
0
LINE
8
BLACK
6
CONTINUOUS
10
4.58588
20
-3.36589
11
4.58598
21
-3.36583
0
LINE
8
BLACK
6
CONTINUOUS
10
4.58598
20
-3.36583
11
4.5863
21
-3.36581
0
LINE
8
BLACK
6
CONTINUOUS
10
4.5863
20
-3.36581
11
4.58661
21
-3.36575
0
LINE
8
BLACK
6
CONTINUOUS
10
4.58661
20
-3.36575
11
4.84646
21
-3.36575
0
LINE
8
BLACK
6
CONTINUOUS
10
4.84646
20
-3.36575
11
4.84663
21
-3.36576
0
LINE
8
BLACK
6
CONTINUOUS
10
4.58898
20
-3.37047
11
4.58898
21
-3.54291
0
LINE
8
BLACK
6
CONTINUOUS
10
4.58898
20
-3.54291
11
4.84409
21
-3.54291
0
LINE
8
BLACK
6
CONTINUOUS
10
4.84409
20
-3.54291
11
4.84409
21
-3.37047
0
LINE
8
BLACK
6
CONTINUOUS
10
4.84409
20
-3.37047
11
4.58898
21
-3.37047
0
LINE
8
BLACK
6
CONTINUOUS
10
5.32537
20
-3.36576
11
5.32543
21
-3.36576
0
LINE
8
BLACK
6
CONTINUOUS
10
5.32543
20
-3.36576
11
5.32549
21
-3.36578
0
LINE
8
BLACK
6
CONTINUOUS
10
5.32549
20
-3.36578
11
5.32566
21
-3.36579
0
LINE
8
BLACK
6
CONTINUOUS
10
5.32566
20
-3.36579
11
5.32595
21
-3.36591
0
LINE
8
BLACK
6
CONTINUOUS
10
5.32595
20
-3.36591
11
5.32626
21
-3.366
0
LINE
8
BLACK
6
CONTINUOUS
10
5.32626
20
-3.366
11
5.32635
21
-3.36607
0
LINE
8
BLACK
6
CONTINUOUS
10
5.32635
20
-3.36607
11
5.32646
21
-3.36611
0
LINE
8
BLACK
6
CONTINUOUS
10
5.32646
20
-3.36611
11
5.32669
21
-3.36633
0
LINE
8
BLACK
6
CONTINUOUS
10
5.32669
20
-3.36633
11
5.32695
21
-3.36652
0
LINE
8
BLACK
6
CONTINUOUS
10
5.32695
20
-3.36652
11
5.32701
21
-3.36662
0
LINE
8
BLACK
6
CONTINUOUS
10
5.32701
20
-3.36662
11
5.32709
21
-3.3667
0
LINE
8
BLACK
6
CONTINUOUS
10
5.32709
20
-3.3667
11
5.32723
21
-3.36699
0
LINE
8
BLACK
6
CONTINUOUS
10
5.32723
20
-3.36699
11
5.3274
21
-3.36726
0
LINE
8
BLACK
6
CONTINUOUS
10
5.3274
20
-3.36726
11
5.32742
21
-3.36737
0
LINE
8
BLACK
6
CONTINUOUS
10
5.32742
20
-3.36737
11
5.32747
21
-3.36748
0
LINE
8
BLACK
6
CONTINUOUS
10
5.32747
20
-3.36748
11
5.3275
21
-3.3678
0
LINE
8
BLACK
6
CONTINUOUS
10
5.3275
20
-3.3678
11
5.32756
21
-3.36811
0
LINE
8
BLACK
6
CONTINUOUS
10
5.32756
20
-3.36811
11
5.32756
21
-3.54528
0
LINE
8
BLACK
6
CONTINUOUS
10
5.32756
20
-3.54528
11
5.32754
21
-3.54544
0
LINE
8
BLACK
6
CONTINUOUS
10
5.32754
20
-3.54544
11
5.32755
21
-3.54551
0
LINE
8
BLACK
6
CONTINUOUS
10
5.32755
20
-3.54551
11
5.32753
21
-3.54557
0
LINE
8
BLACK
6
CONTINUOUS
10
5.32753
20
-3.54557
11
5.32751
21
-3.54573
0
LINE
8
BLACK
6
CONTINUOUS
10
5.32751
20
-3.54573
11
5.3274
21
-3.54603
0
LINE
8
BLACK
6
CONTINUOUS
10
5.3274
20
-3.54603
11
5.32731
21
-3.54634
0
LINE
8
BLACK
6
CONTINUOUS
10
5.32731
20
-3.54634
11
5.32724
21
-3.54643
0
LINE
8
BLACK
6
CONTINUOUS
10
5.32724
20
-3.54643
11
5.32719
21
-3.54654
0
LINE
8
BLACK
6
CONTINUOUS
10
5.32719
20
-3.54654
11
5.32698
21
-3.54677
0
LINE
8
BLACK
6
CONTINUOUS
10
5.32698
20
-3.54677
11
5.32678
21
-3.54703
0
LINE
8
BLACK
6
CONTINUOUS
10
5.32678
20
-3.54703
11
5.32668
21
-3.54709
0
LINE
8
BLACK
6
CONTINUOUS
10
5.32668
20
-3.54709
11
5.32661
21
-3.54717
0
LINE
8
BLACK
6
CONTINUOUS
10
5.32661
20
-3.54717
11
5.32632
21
-3.54731
0
LINE
8
BLACK
6
CONTINUOUS
10
5.32632
20
-3.54731
11
5.32605
21
-3.54748
0
LINE
8
BLACK
6
CONTINUOUS
10
5.32605
20
-3.54748
11
5.32593
21
-3.5475
0
LINE
8
BLACK
6
CONTINUOUS
10
5.32593
20
-3.5475
11
5.32583
21
-3.54755
0
LINE
8
BLACK
6
CONTINUOUS
10
5.32583
20
-3.54755
11
5.32551
21
-3.54758
0
LINE
8
BLACK
6
CONTINUOUS
10
5.32551
20
-3.54758
11
5.3252
21
-3.54764
0
LINE
8
BLACK
6
CONTINUOUS
10
5.3252
20
-3.54764
11
5.06535
21
-3.54764
0
LINE
8
BLACK
6
CONTINUOUS
10
5.06535
20
-3.54764
11
5.06519
21
-3.54762
0
LINE
8
BLACK
6
CONTINUOUS
10
5.06519
20
-3.54762
11
5.06512
21
-3.54763
0
LINE
8
BLACK
6
CONTINUOUS
10
5.06512
20
-3.54763
11
5.06506
21
-3.54761
0
LINE
8
BLACK
6
CONTINUOUS
10
5.06506
20
-3.54761
11
5.0649
21
-3.54759
0
LINE
8
BLACK
6
CONTINUOUS
10
5.0649
20
-3.54759
11
5.0646
21
-3.54747
0
LINE
8
BLACK
6
CONTINUOUS
10
5.0646
20
-3.54747
11
5.06429
21
-3.54739
0
LINE
8
BLACK
6
CONTINUOUS
10
5.06429
20
-3.54739
11
5.0642
21
-3.54732
0
LINE
8
BLACK
6
CONTINUOUS
10
5.0642
20
-3.54732
11
5.06409
21
-3.54727
0
LINE
8
BLACK
6
CONTINUOUS
10
5.06409
20
-3.54727
11
5.06386
21
-3.54706
0
LINE
8
BLACK
6
CONTINUOUS
10
5.06386
20
-3.54706
11
5.0636
21
-3.54686
0
LINE
8
BLACK
6
CONTINUOUS
10
5.0636
20
-3.54686
11
5.06354
21
-3.54676
0
LINE
8
BLACK
6
CONTINUOUS
10
5.06354
20
-3.54676
11
5.06346
21
-3.54668
0
LINE
8
BLACK
6
CONTINUOUS
10
5.06346
20
-3.54668
11
5.06332
21
-3.5464
0
LINE
8
BLACK
6
CONTINUOUS
10
5.06332
20
-3.5464
11
5.06315
21
-3.54613
0
LINE
8
BLACK
6
CONTINUOUS
10
5.06315
20
-3.54613
11
5.06313
21
-3.54601
0
LINE
8
BLACK
6
CONTINUOUS
10
5.06313
20
-3.54601
11
5.06308
21
-3.54591
0
LINE
8
BLACK
6
CONTINUOUS
10
5.06308
20
-3.54591
11
5.06305
21
-3.54559
0
LINE
8
BLACK
6
CONTINUOUS
10
5.06305
20
-3.54559
11
5.06299
21
-3.54528
0
LINE
8
BLACK
6
CONTINUOUS
10
5.06299
20
-3.54528
11
5.06299
21
-3.36811
0
LINE
8
BLACK
6
CONTINUOUS
10
5.06299
20
-3.36811
11
5.06301
21
-3.36794
0
LINE
8
BLACK
6
CONTINUOUS
10
5.06301
20
-3.36794
11
5.063
21
-3.36788
0
LINE
8
BLACK
6
CONTINUOUS
10
5.063
20
-3.36788
11
5.06302
21
-3.36782
0
LINE
8
BLACK
6
CONTINUOUS
10
5.06302
20
-3.36782
11
5.06304
21
-3.36765
0
LINE
8
BLACK
6
CONTINUOUS
10
5.06304
20
-3.36765
11
5.06316
21
-3.36736
0
LINE
8
BLACK
6
CONTINUOUS
10
5.06316
20
-3.36736
11
5.06324
21
-3.36705
0
LINE
8
BLACK
6
CONTINUOUS
10
5.06324
20
-3.36705
11
5.06331
21
-3.36696
0
LINE
8
BLACK
6
CONTINUOUS
10
5.06331
20
-3.36696
11
5.06336
21
-3.36685
0
LINE
8
BLACK
6
CONTINUOUS
10
5.06336
20
-3.36685
11
5.06357
21
-3.36661
0
LINE
8
BLACK
6
CONTINUOUS
10
5.06357
20
-3.36661
11
5.06377
21
-3.36636
0
LINE
8
BLACK
6
CONTINUOUS
10
5.06377
20
-3.36636
11
5.06387
21
-3.3663
0
LINE
8
BLACK
6
CONTINUOUS
10
5.06387
20
-3.3663
11
5.06395
21
-3.36621
0
LINE
8
BLACK
6
CONTINUOUS
10
5.06395
20
-3.36621
11
5.06423
21
-3.36607
0
LINE
8
BLACK
6
CONTINUOUS
10
5.06423
20
-3.36607
11
5.0645
21
-3.36591
0
LINE
8
BLACK
6
CONTINUOUS
10
5.0645
20
-3.36591
11
5.06462
21
-3.36589
0
LINE
8
BLACK
6
CONTINUOUS
10
5.06462
20
-3.36589
11
5.06472
21
-3.36583
0
LINE
8
BLACK
6
CONTINUOUS
10
5.06472
20
-3.36583
11
5.06504
21
-3.36581
0
LINE
8
BLACK
6
CONTINUOUS
10
5.06504
20
-3.36581
11
5.06535
21
-3.36575
0
LINE
8
BLACK
6
CONTINUOUS
10
5.06535
20
-3.36575
11
5.3252
21
-3.36575
0
LINE
8
BLACK
6
CONTINUOUS
10
5.3252
20
-3.36575
11
5.32537
21
-3.36576
0
LINE
8
BLACK
6
CONTINUOUS
10
5.06772
20
-3.37047
11
5.06772
21
-3.54291
0
LINE
8
BLACK
6
CONTINUOUS
10
5.06772
20
-3.54291
11
5.32283
21
-3.54291
0
LINE
8
BLACK
6
CONTINUOUS
10
5.32283
20
-3.54291
11
5.32283
21
-3.37047
0
LINE
8
BLACK
6
CONTINUOUS
10
5.32283
20
-3.37047
11
5.06772
21
-3.37047
0
LINE
8
BLACK
6
CONTINUOUS
10
4.13993
20
-3.26931
11
4.13999
21
-3.2693
0
LINE
8
BLACK
6
CONTINUOUS
10
4.13999
20
-3.2693
11
4.14005
21
-3.26932
0
LINE
8
BLACK
6
CONTINUOUS
10
4.14005
20
-3.26932
11
4.14022
21
-3.26934
0
LINE
8
BLACK
6
CONTINUOUS
10
4.14022
20
-3.26934
11
4.14052
21
-3.26945
0
LINE
8
BLACK
6
CONTINUOUS
10
4.14052
20
-3.26945
11
4.14083
21
-3.26954
0
LINE
8
BLACK
6
CONTINUOUS
10
4.14083
20
-3.26954
11
4.14092
21
-3.26961
0
LINE
8
BLACK
6
CONTINUOUS
10
4.14092
20
-3.26961
11
4.14103
21
-3.26966
0
LINE
8
BLACK
6
CONTINUOUS
10
4.14103
20
-3.26966
11
4.14126
21
-3.26987
0
LINE
8
BLACK
6
CONTINUOUS
10
4.14126
20
-3.26987
11
4.14151
21
-3.27007
0
LINE
8
BLACK
6
CONTINUOUS
10
4.14151
20
-3.27007
11
4.14157
21
-3.27017
0
LINE
8
BLACK
6
CONTINUOUS
10
4.14157
20
-3.27017
11
4.14166
21
-3.27025
0
LINE
8
BLACK
6
CONTINUOUS
10
4.14166
20
-3.27025
11
4.1418
21
-3.27053
0
LINE
8
BLACK
6
CONTINUOUS
10
4.1418
20
-3.27053
11
4.14197
21
-3.2708
0
LINE
8
BLACK
6
CONTINUOUS
10
4.14197
20
-3.2708
11
4.14199
21
-3.27092
0
LINE
8
BLACK
6
CONTINUOUS
10
4.14199
20
-3.27092
11
4.14204
21
-3.27102
0
LINE
8
BLACK
6
CONTINUOUS
10
4.14204
20
-3.27102
11
4.14207
21
-3.27134
0
LINE
8
BLACK
6
CONTINUOUS
10
4.14207
20
-3.27134
11
4.14213
21
-3.27165
0
LINE
8
BLACK
6
CONTINUOUS
10
4.14213
20
-3.27165
11
4.14213
21
-3.5315
0
LINE
8
BLACK
6
CONTINUOUS
10
4.14213
20
-3.5315
11
4.14211
21
-3.53167
0
LINE
8
BLACK
6
CONTINUOUS
10
4.14211
20
-3.53167
11
4.14211
21
-3.53173
0
LINE
8
BLACK
6
CONTINUOUS
10
4.14211
20
-3.53173
11
4.1421
21
-3.53179
0
LINE
8
BLACK
6
CONTINUOUS
10
4.1421
20
-3.53179
11
4.14208
21
-3.53195
0
LINE
8
BLACK
6
CONTINUOUS
10
4.14208
20
-3.53195
11
4.14196
21
-3.53225
0
LINE
8
BLACK
6
CONTINUOUS
10
4.14196
20
-3.53225
11
4.14187
21
-3.53256
0
LINE
8
BLACK
6
CONTINUOUS
10
4.14187
20
-3.53256
11
4.1418
21
-3.53265
0
LINE
8
BLACK
6
CONTINUOUS
10
4.1418
20
-3.53265
11
4.14176
21
-3.53276
0
LINE
8
BLACK
6
CONTINUOUS
10
4.14176
20
-3.53276
11
4.14154
21
-3.53299
0
LINE
8
BLACK
6
CONTINUOUS
10
4.14154
20
-3.53299
11
4.14135
21
-3.53325
0
LINE
8
BLACK
6
CONTINUOUS
10
4.14135
20
-3.53325
11
4.14125
21
-3.53331
0
LINE
8
BLACK
6
CONTINUOUS
10
4.14125
20
-3.53331
11
4.14117
21
-3.53339
0
LINE
8
BLACK
6
CONTINUOUS
10
4.14117
20
-3.53339
11
4.14089
21
-3.53353
0
LINE
8
BLACK
6
CONTINUOUS
10
4.14089
20
-3.53353
11
4.14061
21
-3.5337
0
LINE
8
BLACK
6
CONTINUOUS
10
4.14061
20
-3.5337
11
4.1405
21
-3.53372
0
LINE
8
BLACK
6
CONTINUOUS
10
4.1405
20
-3.53372
11
4.1404
21
-3.53377
0
LINE
8
BLACK
6
CONTINUOUS
10
4.1404
20
-3.53377
11
4.14008
21
-3.5338
0
LINE
8
BLACK
6
CONTINUOUS
10
4.14008
20
-3.5338
11
4.13976
21
-3.53386
0
LINE
8
BLACK
6
CONTINUOUS
10
4.13976
20
-3.53386
11
3.9626
21
-3.53386
0
LINE
8
BLACK
6
CONTINUOUS
10
3.9626
20
-3.53386
11
3.96243
21
-3.53384
0
LINE
8
BLACK
6
CONTINUOUS
10
3.96243
20
-3.53384
11
3.96237
21
-3.53385
0
LINE
8
BLACK
6
CONTINUOUS
10
3.96237
20
-3.53385
11
3.96231
21
-3.53383
0
LINE
8
BLACK
6
CONTINUOUS
10
3.96231
20
-3.53383
11
3.96214
21
-3.53381
0
LINE
8
BLACK
6
CONTINUOUS
10
3.96214
20
-3.53381
11
3.96184
21
-3.5337
0
LINE
8
BLACK
6
CONTINUOUS
10
3.96184
20
-3.5337
11
3.96154
21
-3.53361
0
LINE
8
BLACK
6
CONTINUOUS
10
3.96154
20
-3.53361
11
3.96144
21
-3.53354
0
LINE
8
BLACK
6
CONTINUOUS
10
3.96144
20
-3.53354
11
3.96134
21
-3.53349
0
LINE
8
BLACK
6
CONTINUOUS
10
3.96134
20
-3.53349
11
3.9611
21
-3.53328
0
LINE
8
BLACK
6
CONTINUOUS
10
3.9611
20
-3.53328
11
3.96085
21
-3.53308
0
LINE
8
BLACK
6
CONTINUOUS
10
3.96085
20
-3.53308
11
3.96079
21
-3.53298
0
LINE
8
BLACK
6
CONTINUOUS
10
3.96079
20
-3.53298
11
3.9607
21
-3.5329
0
LINE
8
BLACK
6
CONTINUOUS
10
3.9607
20
-3.5329
11
3.96056
21
-3.53262
0
LINE
8
BLACK
6
CONTINUOUS
10
3.96056
20
-3.53262
11
3.96039
21
-3.53235
0
LINE
8
BLACK
6
CONTINUOUS
10
3.96039
20
-3.53235
11
3.96037
21
-3.53223
0
LINE
8
BLACK
6
CONTINUOUS
10
3.96037
20
-3.53223
11
3.96032
21
-3.53213
0
LINE
8
BLACK
6
CONTINUOUS
10
3.96032
20
-3.53213
11
3.96029
21
-3.53181
0
LINE
8
BLACK
6
CONTINUOUS
10
3.96029
20
-3.53181
11
3.96024
21
-3.5315
0
LINE
8
BLACK
6
CONTINUOUS
10
3.96024
20
-3.5315
11
3.96024
21
-3.27165
0
LINE
8
BLACK
6
CONTINUOUS
10
3.96024
20
-3.27165
11
3.96025
21
-3.27148
0
LINE
8
BLACK
6
CONTINUOUS
10
3.96025
20
-3.27148
11
3.96025
21
-3.27142
0
LINE
8
BLACK
6
CONTINUOUS
10
3.96025
20
-3.27142
11
3.96026
21
-3.27136
0
LINE
8
BLACK
6
CONTINUOUS
10
3.96026
20
-3.27136
11
3.96028
21
-3.27119
0
LINE
8
BLACK
6
CONTINUOUS
10
3.96028
20
-3.27119
11
3.9604
21
-3.2709
0
LINE
8
BLACK
6
CONTINUOUS
10
3.9604
20
-3.2709
11
3.96049
21
-3.27059
0
LINE
8
BLACK
6
CONTINUOUS
10
3.96049
20
-3.27059
11
3.96056
21
-3.2705
0
LINE
8
BLACK
6
CONTINUOUS
10
3.96056
20
-3.2705
11
3.9606
21
-3.27039
0
LINE
8
BLACK
6
CONTINUOUS
10
3.9606
20
-3.27039
11
3.96082
21
-3.27016
0
LINE
8
BLACK
6
CONTINUOUS
10
3.96082
20
-3.27016
11
3.96101
21
-3.2699
0
LINE
8
BLACK
6
CONTINUOUS
10
3.96101
20
-3.2699
11
3.96111
21
-3.26984
0
LINE
8
BLACK
6
CONTINUOUS
10
3.96111
20
-3.26984
11
3.96119
21
-3.26976
0
LINE
8
BLACK
6
CONTINUOUS
10
3.96119
20
-3.26976
11
3.96148
21
-3.26962
0
LINE
8
BLACK
6
CONTINUOUS
10
3.96148
20
-3.26962
11
3.96175
21
-3.26945
0
LINE
8
BLACK
6
CONTINUOUS
10
3.96175
20
-3.26945
11
3.96186
21
-3.26943
0
LINE
8
BLACK
6
CONTINUOUS
10
3.96186
20
-3.26943
11
3.96197
21
-3.26938
0
LINE
8
BLACK
6
CONTINUOUS
10
3.96197
20
-3.26938
11
3.96229
21
-3.26935
0
LINE
8
BLACK
6
CONTINUOUS
10
3.96229
20
-3.26935
11
3.9626
21
-3.26929
0
LINE
8
BLACK
6
CONTINUOUS
10
3.9626
20
-3.26929
11
4.13976
21
-3.26929
0
LINE
8
BLACK
6
CONTINUOUS
10
4.13976
20
-3.26929
11
4.13993
21
-3.26931
0
LINE
8
BLACK
6
CONTINUOUS
10
3.96496
20
-3.27402
11
3.96496
21
-3.52913
0
LINE
8
BLACK
6
CONTINUOUS
10
3.96496
20
-3.52913
11
4.1374
21
-3.52913
0
LINE
8
BLACK
6
CONTINUOUS
10
4.1374
20
-3.52913
11
4.1374
21
-3.27402
0
LINE
8
BLACK
6
CONTINUOUS
10
4.1374
20
-3.27402
11
3.96496
21
-3.27402
0
LINE
8
BLACK
6
CONTINUOUS
10
3.90174
20
-3.04293
11
3.90181
21
-3.04292
0
LINE
8
BLACK
6
CONTINUOUS
10
3.90181
20
-3.04292
11
3.90186
21
-3.04294
0
LINE
8
BLACK
6
CONTINUOUS
10
3.90186
20
-3.04294
11
3.90203
21
-3.04296
0
LINE
8
BLACK
6
CONTINUOUS
10
3.90203
20
-3.04296
11
3.90233
21
-3.04308
0
LINE
8
BLACK
6
CONTINUOUS
10
3.90233
20
-3.04308
11
3.90264
21
-3.04317
0
LINE
8
BLACK
6
CONTINUOUS
10
3.90264
20
-3.04317
11
3.90273
21
-3.04324
0
LINE
8
BLACK
6
CONTINUOUS
10
3.90273
20
-3.04324
11
3.90284
21
-3.04328
0
LINE
8
BLACK
6
CONTINUOUS
10
3.90284
20
-3.04328
11
3.90307
21
-3.0435
0
LINE
8
BLACK
6
CONTINUOUS
10
3.90307
20
-3.0435
11
3.90332
21
-3.04369
0
LINE
8
BLACK
6
CONTINUOUS
10
3.90332
20
-3.04369
11
3.90339
21
-3.04379
0
LINE
8
BLACK
6
CONTINUOUS
10
3.90339
20
-3.04379
11
3.90347
21
-3.04387
0
LINE
8
BLACK
6
CONTINUOUS
10
3.90347
20
-3.04387
11
3.90361
21
-3.04415
0
LINE
8
BLACK
6
CONTINUOUS
10
3.90361
20
-3.04415
11
3.90378
21
-3.04443
0
LINE
8
BLACK
6
CONTINUOUS
10
3.90378
20
-3.04443
11
3.9038
21
-3.04454
0
LINE
8
BLACK
6
CONTINUOUS
10
3.9038
20
-3.04454
11
3.90385
21
-3.04464
0
LINE
8
BLACK
6
CONTINUOUS
10
3.90385
20
-3.04464
11
3.90388
21
-3.04496
0
LINE
8
BLACK
6
CONTINUOUS
10
3.90388
20
-3.04496
11
3.90394
21
-3.04528
0
LINE
8
BLACK
6
CONTINUOUS
10
3.90394
20
-3.04528
11
3.90394
21
-3.22244
0
LINE
8
BLACK
6
CONTINUOUS
10
3.90394
20
-3.22244
11
3.90392
21
-3.22261
0
LINE
8
BLACK
6
CONTINUOUS
10
3.90392
20
-3.22261
11
3.90393
21
-3.22267
0
LINE
8
BLACK
6
CONTINUOUS
10
3.90393
20
-3.22267
11
3.90391
21
-3.22273
0
LINE
8
BLACK
6
CONTINUOUS
10
3.90391
20
-3.22273
11
3.90389
21
-3.2229
0
LINE
8
BLACK
6
CONTINUOUS
10
3.90389
20
-3.2229
11
3.90377
21
-3.2232
0
LINE
8
BLACK
6
CONTINUOUS
10
3.90377
20
-3.2232
11
3.90369
21
-3.2235
0
LINE
8
BLACK
6
CONTINUOUS
10
3.90369
20
-3.2235
11
3.90361
21
-3.22359
0
LINE
8
BLACK
6
CONTINUOUS
10
3.90361
20
-3.22359
11
3.90357
21
-3.2237
0
LINE
8
BLACK
6
CONTINUOUS
10
3.90357
20
-3.2237
11
3.90335
21
-3.22394
0
LINE
8
BLACK
6
CONTINUOUS
10
3.90335
20
-3.22394
11
3.90316
21
-3.22419
0
LINE
8
BLACK
6
CONTINUOUS
10
3.90316
20
-3.22419
11
3.90306
21
-3.22425
0
LINE
8
BLACK
6
CONTINUOUS
10
3.90306
20
-3.22425
11
3.90298
21
-3.22434
0
LINE
8
BLACK
6
CONTINUOUS
10
3.90298
20
-3.22434
11
3.9027
21
-3.22448
0
LINE
8
BLACK
6
CONTINUOUS
10
3.9027
20
-3.22448
11
3.90243
21
-3.22464
0
LINE
8
BLACK
6
CONTINUOUS
10
3.90243
20
-3.22464
11
3.90231
21
-3.22467
0
LINE
8
BLACK
6
CONTINUOUS
10
3.90231
20
-3.22467
11
3.90221
21
-3.22472
0
LINE
8
BLACK
6
CONTINUOUS
10
3.90221
20
-3.22472
11
3.90189
21
-3.22474
0
LINE
8
BLACK
6
CONTINUOUS
10
3.90189
20
-3.22474
11
3.90157
21
-3.2248
0
LINE
8
BLACK
6
CONTINUOUS
10
3.90157
20
-3.2248
11
3.64173
21
-3.2248
0
LINE
8
BLACK
6
CONTINUOUS
10
3.64173
20
-3.2248
11
3.64156
21
-3.22479
0
LINE
8
BLACK
6
CONTINUOUS
10
3.64156
20
-3.22479
11
3.6415
21
-3.22479
0
LINE
8
BLACK
6
CONTINUOUS
10
3.6415
20
-3.22479
11
3.64144
21
-3.22477
0
LINE
8
BLACK
6
CONTINUOUS
10
3.64144
20
-3.22477
11
3.64127
21
-3.22476
0
LINE
8
BLACK
6
CONTINUOUS
10
3.64127
20
-3.22476
11
3.64098
21
-3.22464
0
LINE
8
BLACK
6
CONTINUOUS
10
3.64098
20
-3.22464
11
3.64067
21
-3.22455
0
LINE
8
BLACK
6
CONTINUOUS
10
3.64067
20
-3.22455
11
3.64058
21
-3.22448
0
LINE
8
BLACK
6
CONTINUOUS
10
3.64058
20
-3.22448
11
3.64047
21
-3.22444
0
LINE
8
BLACK
6
CONTINUOUS
10
3.64047
20
-3.22444
11
3.64024
21
-3.22422
0
LINE
8
BLACK
6
CONTINUOUS
10
3.64024
20
-3.22422
11
3.63998
21
-3.22403
0
LINE
8
BLACK
6
CONTINUOUS
10
3.63998
20
-3.22403
11
3.63992
21
-3.22393
0
LINE
8
BLACK
6
CONTINUOUS
10
3.63992
20
-3.22393
11
3.63984
21
-3.22385
0
LINE
8
BLACK
6
CONTINUOUS
10
3.63984
20
-3.22385
11
3.6397
21
-3.22356
0
LINE
8
BLACK
6
CONTINUOUS
10
3.6397
20
-3.22356
11
3.63953
21
-3.22329
0
LINE
8
BLACK
6
CONTINUOUS
10
3.63953
20
-3.22329
11
3.63951
21
-3.22318
0
LINE
8
BLACK
6
CONTINUOUS
10
3.63951
20
-3.22318
11
3.63946
21
-3.22307
0
LINE
8
BLACK
6
CONTINUOUS
10
3.63946
20
-3.22307
11
3.63943
21
-3.22275
0
LINE
8
BLACK
6
CONTINUOUS
10
3.63943
20
-3.22275
11
3.63937
21
-3.22244
0
LINE
8
BLACK
6
CONTINUOUS
10
3.63937
20
-3.22244
11
3.63937
21
-3.04528
0
LINE
8
BLACK
6
CONTINUOUS
10
3.63937
20
-3.04528
11
3.63939
21
-3.04511
0
LINE
8
BLACK
6
CONTINUOUS
10
3.63939
20
-3.04511
11
3.63938
21
-3.04505
0
LINE
8
BLACK
6
CONTINUOUS
10
3.63938
20
-3.04505
11
3.6394
21
-3.04499
0
LINE
8
BLACK
6
CONTINUOUS
10
3.6394
20
-3.04499
11
3.63942
21
-3.04482
0
LINE
8
BLACK
6
CONTINUOUS
10
3.63942
20
-3.04482
11
3.63953
21
-3.04452
0
LINE
8
BLACK
6
CONTINUOUS
10
3.63953
20
-3.04452
11
3.63962
21
-3.04421
0
LINE
8
BLACK
6
CONTINUOUS
10
3.63962
20
-3.04421
11
3.63969
21
-3.04412
0
LINE
8
BLACK
6
CONTINUOUS
10
3.63969
20
-3.04412
11
3.63974
21
-3.04401
0
LINE
8
BLACK
6
CONTINUOUS
10
3.63974
20
-3.04401
11
3.63995
21
-3.04378
0
LINE
8
BLACK
6
CONTINUOUS
10
3.63995
20
-3.04378
11
3.64015
21
-3.04353
0
LINE
8
BLACK
6
CONTINUOUS
10
3.64015
20
-3.04353
11
3.64024
21
-3.04346
0
LINE
8
BLACK
6
CONTINUOUS
10
3.64024
20
-3.04346
11
3.64032
21
-3.04338
0
LINE
8
BLACK
6
CONTINUOUS
10
3.64032
20
-3.04338
11
3.64061
21
-3.04324
0
LINE
8
BLACK
6
CONTINUOUS
10
3.64061
20
-3.04324
11
3.64088
21
-3.04307
0
LINE
8
BLACK
6
CONTINUOUS
10
3.64088
20
-3.04307
11
3.641
21
-3.04305
0
LINE
8
BLACK
6
CONTINUOUS
10
3.641
20
-3.04305
11
3.6411
21
-3.043
0
LINE
8
BLACK
6
CONTINUOUS
10
3.6411
20
-3.043
11
3.64142
21
-3.04297
0
LINE
8
BLACK
6
CONTINUOUS
10
3.64142
20
-3.04297
11
3.64173
21
-3.04291
0
LINE
8
BLACK
6
CONTINUOUS
10
3.64173
20
-3.04291
11
3.90157
21
-3.04291
0
LINE
8
BLACK
6
CONTINUOUS
10
3.90157
20
-3.04291
11
3.90174
21
-3.04293
0
LINE
8
BLACK
6
CONTINUOUS
10
3.64409
20
-3.04764
11
3.64409
21
-3.22008
0
LINE
8
BLACK
6
CONTINUOUS
10
3.64409
20
-3.22008
11
3.89921
21
-3.22008
0
LINE
8
BLACK
6
CONTINUOUS
10
3.89921
20
-3.22008
11
3.89921
21
-3.04764
0
LINE
8
BLACK
6
CONTINUOUS
10
3.89921
20
-3.04764
11
3.64409
21
-3.04764
0
LINE
8
BLACK
6
CONTINUOUS
10
6.15371
20
-3.04293
11
6.15377
21
-3.04292
0
LINE
8
BLACK
6
CONTINUOUS
10
6.15377
20
-3.04292
11
6.15383
21
-3.04294
0
LINE
8
BLACK
6
CONTINUOUS
10
6.15383
20
-3.04294
11
6.154
21
-3.04296
0
LINE
8
BLACK
6
CONTINUOUS
10
6.154
20
-3.04296
11
6.1543
21
-3.04308
0
LINE
8
BLACK
6
CONTINUOUS
10
6.1543
20
-3.04308
11
6.1546
21
-3.04317
0
LINE
8
BLACK
6
CONTINUOUS
10
6.1546
20
-3.04317
11
6.1547
21
-3.04324
0
LINE
8
BLACK
6
CONTINUOUS
10
6.1547
20
-3.04324
11
6.15481
21
-3.04328
0
LINE
8
BLACK
6
CONTINUOUS
10
6.15481
20
-3.04328
11
6.15504
21
-3.0435
0
LINE
8
BLACK
6
CONTINUOUS
10
6.15504
20
-3.0435
11
6.15529
21
-3.04369
0
LINE
8
BLACK
6
CONTINUOUS
10
6.15529
20
-3.04369
11
6.15535
21
-3.04379
0
LINE
8
BLACK
6
CONTINUOUS
10
6.15535
20
-3.04379
11
6.15544
21
-3.04387
0
LINE
8
BLACK
6
CONTINUOUS
10
6.15544
20
-3.04387
11
6.15558
21
-3.04415
0
LINE
8
BLACK
6
CONTINUOUS
10
6.15558
20
-3.04415
11
6.15575
21
-3.04443
0
LINE
8
BLACK
6
CONTINUOUS
10
6.15575
20
-3.04443
11
6.15577
21
-3.04454
0
LINE
8
BLACK
6
CONTINUOUS
10
6.15577
20
-3.04454
11
6.15582
21
-3.04464
0
LINE
8
BLACK
6
CONTINUOUS
10
6.15582
20
-3.04464
11
6.15585
21
-3.04496
0
LINE
8
BLACK
6
CONTINUOUS
10
6.15585
20
-3.04496
11
6.15591
21
-3.04528
0
LINE
8
BLACK
6
CONTINUOUS
10
6.15591
20
-3.04528
11
6.15591
21
-3.22244
0
LINE
8
BLACK
6
CONTINUOUS
10
6.15591
20
-3.22244
11
6.15589
21
-3.22261
0
LINE
8
BLACK
6
CONTINUOUS
10
6.15589
20
-3.22261
11
6.15589
21
-3.22267
0
LINE
8
BLACK
6
CONTINUOUS
10
6.15589
20
-3.22267
11
6.15588
21
-3.22273
0
LINE
8
BLACK
6
CONTINUOUS
10
6.15588
20
-3.22273
11
6.15586
21
-3.2229
0
LINE
8
BLACK
6
CONTINUOUS
10
6.15586
20
-3.2229
11
6.15574
21
-3.2232
0
LINE
8
BLACK
6
CONTINUOUS
10
6.15574
20
-3.2232
11
6.15565
21
-3.2235
0
LINE
8
BLACK
6
CONTINUOUS
10
6.15565
20
-3.2235
11
6.15558
21
-3.22359
0
LINE
8
BLACK
6
CONTINUOUS
10
6.15558
20
-3.22359
11
6.15554
21
-3.2237
0
LINE
8
BLACK
6
CONTINUOUS
10
6.15554
20
-3.2237
11
6.15532
21
-3.22394
0
LINE
8
BLACK
6
CONTINUOUS
10
6.15532
20
-3.22394
11
6.15513
21
-3.22419
0
LINE
8
BLACK
6
CONTINUOUS
10
6.15513
20
-3.22419
11
6.15503
21
-3.22425
0
LINE
8
BLACK
6
CONTINUOUS
10
6.15503
20
-3.22425
11
6.15495
21
-3.22434
0
LINE
8
BLACK
6
CONTINUOUS
10
6.15495
20
-3.22434
11
6.15467
21
-3.22448
0
LINE
8
BLACK
6
CONTINUOUS
10
6.15467
20
-3.22448
11
6.15439
21
-3.22464
0
LINE
8
BLACK
6
CONTINUOUS
10
6.15439
20
-3.22464
11
6.15428
21
-3.22467
0
LINE
8
BLACK
6
CONTINUOUS
10
6.15428
20
-3.22467
11
6.15417
21
-3.22472
0
LINE
8
BLACK
6
CONTINUOUS
10
6.15417
20
-3.22472
11
6.15386
21
-3.22474
0
LINE
8
BLACK
6
CONTINUOUS
10
6.15386
20
-3.22474
11
6.15354
21
-3.2248
0
LINE
8
BLACK
6
CONTINUOUS
10
6.15354
20
-3.2248
11
5.8937
21
-3.2248
0
LINE
8
BLACK
6
CONTINUOUS
10
5.8937
20
-3.2248
11
5.89353
21
-3.22479
0
LINE
8
BLACK
6
CONTINUOUS
10
5.89353
20
-3.22479
11
5.89347
21
-3.22479
0
LINE
8
BLACK
6
CONTINUOUS
10
5.89347
20
-3.22479
11
5.89341
21
-3.22477
0
LINE
8
BLACK
6
CONTINUOUS
10
5.89341
20
-3.22477
11
5.89324
21
-3.22476
0
LINE
8
BLACK
6
CONTINUOUS
10
5.89324
20
-3.22476
11
5.89295
21
-3.22464
0
LINE
8
BLACK
6
CONTINUOUS
10
5.89295
20
-3.22464
11
5.89264
21
-3.22455
0
LINE
8
BLACK
6
CONTINUOUS
10
5.89264
20
-3.22455
11
5.89255
21
-3.22448
0
LINE
8
BLACK
6
CONTINUOUS
10
5.89255
20
-3.22448
11
5.89244
21
-3.22444
0
LINE
8
BLACK
6
CONTINUOUS
10
5.89244
20
-3.22444
11
5.8922
21
-3.22422
0
LINE
8
BLACK
6
CONTINUOUS
10
5.8922
20
-3.22422
11
5.89195
21
-3.22403
0
LINE
8
BLACK
6
CONTINUOUS
10
5.89195
20
-3.22403
11
5.89189
21
-3.22393
0
LINE
8
BLACK
6
CONTINUOUS
10
5.89189
20
-3.22393
11
5.8918
21
-3.22385
0
LINE
8
BLACK
6
CONTINUOUS
10
5.8918
20
-3.22385
11
5.89166
21
-3.22356
0
LINE
8
BLACK
6
CONTINUOUS
10
5.89166
20
-3.22356
11
5.8915
21
-3.22329
0
LINE
8
BLACK
6
CONTINUOUS
10
5.8915
20
-3.22329
11
5.89148
21
-3.22318
0
LINE
8
BLACK
6
CONTINUOUS
10
5.89148
20
-3.22318
11
5.89142
21
-3.22307
0
LINE
8
BLACK
6
CONTINUOUS
10
5.89142
20
-3.22307
11
5.8914
21
-3.22275
0
LINE
8
BLACK
6
CONTINUOUS
10
5.8914
20
-3.22275
11
5.89134
21
-3.22244
0
LINE
8
BLACK
6
CONTINUOUS
10
5.89134
20
-3.22244
11
5.89134
21
-3.04528
0
LINE
8
BLACK
6
CONTINUOUS
10
5.89134
20
-3.04528
11
5.89136
21
-3.04511
0
LINE
8
BLACK
6
CONTINUOUS
10
5.89136
20
-3.04511
11
5.89135
21
-3.04505
0
LINE
8
BLACK
6
CONTINUOUS
10
5.89135
20
-3.04505
11
5.89137
21
-3.04499
0
LINE
8
BLACK
6
CONTINUOUS
10
5.89137
20
-3.04499
11
5.89138
21
-3.04482
0
LINE
8
BLACK
6
CONTINUOUS
10
5.89138
20
-3.04482
11
5.8915
21
-3.04452
0
LINE
8
BLACK
6
CONTINUOUS
10
5.8915
20
-3.04452
11
5.89159
21
-3.04421
0
LINE
8
BLACK
6
CONTINUOUS
10
5.89159
20
-3.04421
11
5.89166
21
-3.04412
0
LINE
8
BLACK
6
CONTINUOUS
10
5.89166
20
-3.04412
11
5.8917
21
-3.04401
0
LINE
8
BLACK
6
CONTINUOUS
10
5.8917
20
-3.04401
11
5.89192
21
-3.04378
0
LINE
8
BLACK
6
CONTINUOUS
10
5.89192
20
-3.04378
11
5.89211
21
-3.04353
0
LINE
8
BLACK
6
CONTINUOUS
10
5.89211
20
-3.04353
11
5.89221
21
-3.04346
0
LINE
8
BLACK
6
CONTINUOUS
10
5.89221
20
-3.04346
11
5.89229
21
-3.04338
0
LINE
8
BLACK
6
CONTINUOUS
10
5.89229
20
-3.04338
11
5.89258
21
-3.04324
0
LINE
8
BLACK
6
CONTINUOUS
10
5.89258
20
-3.04324
11
5.89285
21
-3.04307
0
LINE
8
BLACK
6
CONTINUOUS
10
5.89285
20
-3.04307
11
5.89296
21
-3.04305
0
LINE
8
BLACK
6
CONTINUOUS
10
5.89296
20
-3.04305
11
5.89307
21
-3.043
0
LINE
8
BLACK
6
CONTINUOUS
10
5.89307
20
-3.043
11
5.89339
21
-3.04297
0
LINE
8
BLACK
6
CONTINUOUS
10
5.89339
20
-3.04297
11
5.8937
21
-3.04291
0
LINE
8
BLACK
6
CONTINUOUS
10
5.8937
20
-3.04291
11
6.15354
21
-3.04291
0
LINE
8
BLACK
6
CONTINUOUS
10
6.15354
20
-3.04291
11
6.15371
21
-3.04293
0
LINE
8
BLACK
6
CONTINUOUS
10
5.89606
20
-3.04764
11
5.89606
21
-3.22008
0
LINE
8
BLACK
6
CONTINUOUS
10
5.89606
20
-3.22008
11
6.15118
21
-3.22008
0
LINE
8
BLACK
6
CONTINUOUS
10
6.15118
20
-3.22008
11
6.15118
21
-3.04764
0
LINE
8
BLACK
6
CONTINUOUS
10
6.15118
20
-3.04764
11
5.89606
21
-3.04764
0
LINE
8
BLACK
6
CONTINUOUS
10
5.71867
20
-3.04293
11
5.71873
21
-3.04292
0
LINE
8
BLACK
6
CONTINUOUS
10
5.71873
20
-3.04292
11
5.71879
21
-3.04294
0
LINE
8
BLACK
6
CONTINUOUS
10
5.71879
20
-3.04294
11
5.71896
21
-3.04296
0
LINE
8
BLACK
6
CONTINUOUS
10
5.71896
20
-3.04296
11
5.71926
21
-3.04308
0
LINE
8
BLACK
6
CONTINUOUS
10
5.71926
20
-3.04308
11
5.71957
21
-3.04317
0
LINE
8
BLACK
6
CONTINUOUS
10
5.71957
20
-3.04317
11
5.71966
21
-3.04324
0
LINE
8
BLACK
6
CONTINUOUS
10
5.71966
20
-3.04324
11
5.71977
21
-3.04328
0
LINE
8
BLACK
6
CONTINUOUS
10
5.71977
20
-3.04328
11
5.72
21
-3.0435
0
LINE
8
BLACK
6
CONTINUOUS
10
5.72
20
-3.0435
11
5.72025
21
-3.04369
0
LINE
8
BLACK
6
CONTINUOUS
10
5.72025
20
-3.04369
11
5.72031
21
-3.04379
0
LINE
8
BLACK
6
CONTINUOUS
10
5.72031
20
-3.04379
11
5.7204
21
-3.04387
0
LINE
8
BLACK
6
CONTINUOUS
10
5.7204
20
-3.04387
11
5.72054
21
-3.04415
0
LINE
8
BLACK
6
CONTINUOUS
10
5.72054
20
-3.04415
11
5.72071
21
-3.04443
0
LINE
8
BLACK
6
CONTINUOUS
10
5.72071
20
-3.04443
11
5.72073
21
-3.04454
0
LINE
8
BLACK
6
CONTINUOUS
10
5.72073
20
-3.04454
11
5.72078
21
-3.04464
0
LINE
8
BLACK
6
CONTINUOUS
10
5.72078
20
-3.04464
11
5.72081
21
-3.04496
0
LINE
8
BLACK
6
CONTINUOUS
10
5.72081
20
-3.04496
11
5.72087
21
-3.04528
0
LINE
8
BLACK
6
CONTINUOUS
10
5.72087
20
-3.04528
11
5.72087
21
-3.22244
0
LINE
8
BLACK
6
CONTINUOUS
10
5.72087
20
-3.22244
11
5.72085
21
-3.22261
0
LINE
8
BLACK
6
CONTINUOUS
10
5.72085
20
-3.22261
11
5.72085
21
-3.22267
0
LINE
8
BLACK
6
CONTINUOUS
10
5.72085
20
-3.22267
11
5.72084
21
-3.22273
0
LINE
8
BLACK
6
CONTINUOUS
10
5.72084
20
-3.22273
11
5.72082
21
-3.2229
0
LINE
8
BLACK
6
CONTINUOUS
10
5.72082
20
-3.2229
11
5.7207
21
-3.2232
0
LINE
8
BLACK
6
CONTINUOUS
10
5.7207
20
-3.2232
11
5.72061
21
-3.2235
0
LINE
8
BLACK
6
CONTINUOUS
10
5.72061
20
-3.2235
11
5.72054
21
-3.22359
0
LINE
8
BLACK
6
CONTINUOUS
10
5.72054
20
-3.22359
11
5.7205
21
-3.2237
0
LINE
8
BLACK
6
CONTINUOUS
10
5.7205
20
-3.2237
11
5.72028
21
-3.22394
0
LINE
8
BLACK
6
CONTINUOUS
10
5.72028
20
-3.22394
11
5.72009
21
-3.22419
0
LINE
8
BLACK
6
CONTINUOUS
10
5.72009
20
-3.22419
11
5.71999
21
-3.22425
0
LINE
8
BLACK
6
CONTINUOUS
10
5.71999
20
-3.22425
11
5.71991
21
-3.22434
0
LINE
8
BLACK
6
CONTINUOUS
10
5.71991
20
-3.22434
11
5.71963
21
-3.22448
0
LINE
8
BLACK
6
CONTINUOUS
10
5.71963
20
-3.22448
11
5.71935
21
-3.22464
0
LINE
8
BLACK
6
CONTINUOUS
10
5.71935
20
-3.22464
11
5.71924
21
-3.22467
0
LINE
8
BLACK
6
CONTINUOUS
10
5.71924
20
-3.22467
11
5.71914
21
-3.22472
0
LINE
8
BLACK
6
CONTINUOUS
10
5.71914
20
-3.22472
11
5.71882
21
-3.22474
0
LINE
8
BLACK
6
CONTINUOUS
10
5.71882
20
-3.22474
11
5.7185
21
-3.2248
0
LINE
8
BLACK
6
CONTINUOUS
10
5.7185
20
-3.2248
11
5.45866
21
-3.2248
0
LINE
8
BLACK
6
CONTINUOUS
10
5.45866
20
-3.2248
11
5.45849
21
-3.22479
0
LINE
8
BLACK
6
CONTINUOUS
10
5.45849
20
-3.22479
11
5.45843
21
-3.22479
0
LINE
8
BLACK
6
CONTINUOUS
10
5.45843
20
-3.22479
11
5.45837
21
-3.22477
0
LINE
8
BLACK
6
CONTINUOUS
10
5.45837
20
-3.22477
11
5.4582
21
-3.22476
0
LINE
8
BLACK
6
CONTINUOUS
10
5.4582
20
-3.22476
11
5.45791
21
-3.22464
0
LINE
8
BLACK
6
CONTINUOUS
10
5.45791
20
-3.22464
11
5.4576
21
-3.22455
0
LINE
8
BLACK
6
CONTINUOUS
10
5.4576
20
-3.22455
11
5.45751
21
-3.22448
0
LINE
8
BLACK
6
CONTINUOUS
10
5.45751
20
-3.22448
11
5.4574
21
-3.22444
0
LINE
8
BLACK
6
CONTINUOUS
10
5.4574
20
-3.22444
11
5.45717
21
-3.22422
0
LINE
8
BLACK
6
CONTINUOUS
10
5.45717
20
-3.22422
11
5.45691
21
-3.22403
0
LINE
8
BLACK
6
CONTINUOUS
10
5.45691
20
-3.22403
11
5.45685
21
-3.22393
0
LINE
8
BLACK
6
CONTINUOUS
10
5.45685
20
-3.22393
11
5.45676
21
-3.22385
0
LINE
8
BLACK
6
CONTINUOUS
10
5.45676
20
-3.22385
11
5.45662
21
-3.22356
0
LINE
8
BLACK
6
CONTINUOUS
10
5.45662
20
-3.22356
11
5.45646
21
-3.22329
0
LINE
8
BLACK
6
CONTINUOUS
10
5.45646
20
-3.22329
11
5.45644
21
-3.22318
0
LINE
8
BLACK
6
CONTINUOUS
10
5.45644
20
-3.22318
11
5.45639
21
-3.22307
0
LINE
8
BLACK
6
CONTINUOUS
10
5.45639
20
-3.22307
11
5.45636
21
-3.22275
0
LINE
8
BLACK
6
CONTINUOUS
10
5.45636
20
-3.22275
11
5.4563
21
-3.22244
0
LINE
8
BLACK
6
CONTINUOUS
10
5.4563
20
-3.22244
11
5.4563
21
-3.04528
0
LINE
8
BLACK
6
CONTINUOUS
10
5.4563
20
-3.04528
11
5.45632
21
-3.04511
0
LINE
8
BLACK
6
CONTINUOUS
10
5.45632
20
-3.04511
11
5.45631
21
-3.04505
0
LINE
8
BLACK
6
CONTINUOUS
10
5.45631
20
-3.04505
11
5.45633
21
-3.04499
0
LINE
8
BLACK
6
CONTINUOUS
10
5.45633
20
-3.04499
11
5.45634
21
-3.04482
0
LINE
8
BLACK
6
CONTINUOUS
10
5.45634
20
-3.04482
11
5.45646
21
-3.04452
0
LINE
8
BLACK
6
CONTINUOUS
10
5.45646
20
-3.04452
11
5.45655
21
-3.04421
0
LINE
8
BLACK
6
CONTINUOUS
10
5.45655
20
-3.04421
11
5.45662
21
-3.04412
0
LINE
8
BLACK
6
CONTINUOUS
10
5.45662
20
-3.04412
11
5.45666
21
-3.04401
0
LINE
8
BLACK
6
CONTINUOUS
10
5.45666
20
-3.04401
11
5.45688
21
-3.04378
0
LINE
8
BLACK
6
CONTINUOUS
10
5.45688
20
-3.04378
11
5.45707
21
-3.04353
0
LINE
8
BLACK
6
CONTINUOUS
10
5.45707
20
-3.04353
11
5.45717
21
-3.04346
0
LINE
8
BLACK
6
CONTINUOUS
10
5.45717
20
-3.04346
11
5.45725
21
-3.04338
0
LINE
8
BLACK
6
CONTINUOUS
10
5.45725
20
-3.04338
11
5.45754
21
-3.04324
0
LINE
8
BLACK
6
CONTINUOUS
10
5.45754
20
-3.04324
11
5.45781
21
-3.04307
0
LINE
8
BLACK
6
CONTINUOUS
10
5.45781
20
-3.04307
11
5.45793
21
-3.04305
0
LINE
8
BLACK
6
CONTINUOUS
10
5.45793
20
-3.04305
11
5.45803
21
-3.043
0
LINE
8
BLACK
6
CONTINUOUS
10
5.45803
20
-3.043
11
5.45835
21
-3.04297
0
LINE
8
BLACK
6
CONTINUOUS
10
5.45835
20
-3.04297
11
5.45866
21
-3.04291
0
LINE
8
BLACK
6
CONTINUOUS
10
5.45866
20
-3.04291
11
5.7185
21
-3.04291
0
LINE
8
BLACK
6
CONTINUOUS
10
5.7185
20
-3.04291
11
5.71867
21
-3.04293
0
LINE
8
BLACK
6
CONTINUOUS
10
5.46102
20
-3.04764
11
5.46102
21
-3.22008
0
LINE
8
BLACK
6
CONTINUOUS
10
5.46102
20
-3.22008
11
5.71614
21
-3.22008
0
LINE
8
BLACK
6
CONTINUOUS
10
5.71614
20
-3.22008
11
5.71614
21
-3.04764
0
LINE
8
BLACK
6
CONTINUOUS
10
5.71614
20
-3.04764
11
5.46102
21
-3.04764
0
LINE
8
BLACK
6
CONTINUOUS
10
4.4293
20
-3.04293
11
4.42936
21
-3.04292
0
LINE
8
BLACK
6
CONTINUOUS
10
4.42936
20
-3.04292
11
4.42942
21
-3.04294
0
LINE
8
BLACK
6
CONTINUOUS
10
4.42942
20
-3.04294
11
4.42959
21
-3.04296
0
LINE
8
BLACK
6
CONTINUOUS
10
4.42959
20
-3.04296
11
4.42989
21
-3.04308
0
LINE
8
BLACK
6
CONTINUOUS
10
4.42989
20
-3.04308
11
4.4302
21
-3.04317
0
LINE
8
BLACK
6
CONTINUOUS
10
4.4302
20
-3.04317
11
4.43029
21
-3.04324
0
LINE
8
BLACK
6
CONTINUOUS
10
4.43029
20
-3.04324
11
4.4304
21
-3.04328
0
LINE
8
BLACK
6
CONTINUOUS
10
4.4304
20
-3.04328
11
4.43063
21
-3.0435
0
LINE
8
BLACK
6
CONTINUOUS
10
4.43063
20
-3.0435
11
4.43088
21
-3.04369
0
LINE
8
BLACK
6
CONTINUOUS
10
4.43088
20
-3.04369
11
4.43094
21
-3.04379
0
LINE
8
BLACK
6
CONTINUOUS
10
4.43094
20
-3.04379
11
4.43103
21
-3.04387
0
LINE
8
BLACK
6
CONTINUOUS
10
4.43103
20
-3.04387
11
4.43117
21
-3.04415
0
LINE
8
BLACK
6
CONTINUOUS
10
4.43117
20
-3.04415
11
4.43134
21
-3.04443
0
LINE
8
BLACK
6
CONTINUOUS
10
4.43134
20
-3.04443
11
4.43136
21
-3.04454
0
LINE
8
BLACK
6
CONTINUOUS
10
4.43136
20
-3.04454
11
4.43141
21
-3.04464
0
LINE
8
BLACK
6
CONTINUOUS
10
4.43141
20
-3.04464
11
4.43144
21
-3.04496
0
LINE
8
BLACK
6
CONTINUOUS
10
4.43144
20
-3.04496
11
4.4315
21
-3.04528
0
LINE
8
BLACK
6
CONTINUOUS
10
4.4315
20
-3.04528
11
4.4315
21
-3.22244
0
LINE
8
BLACK
6
CONTINUOUS
10
4.4315
20
-3.22244
11
4.43148
21
-3.22261
0
LINE
8
BLACK
6
CONTINUOUS
10
4.43148
20
-3.22261
11
4.43148
21
-3.22267
0
LINE
8
BLACK
6
CONTINUOUS
10
4.43148
20
-3.22267
11
4.43147
21
-3.22273
0
LINE
8
BLACK
6
CONTINUOUS
10
4.43147
20
-3.22273
11
4.43145
21
-3.2229
0
LINE
8
BLACK
6
CONTINUOUS
10
4.43145
20
-3.2229
11
4.43133
21
-3.2232
0
LINE
8
BLACK
6
CONTINUOUS
10
4.43133
20
-3.2232
11
4.43124
21
-3.2235
0
LINE
8
BLACK
6
CONTINUOUS
10
4.43124
20
-3.2235
11
4.43117
21
-3.22359
0
LINE
8
BLACK
6
CONTINUOUS
10
4.43117
20
-3.22359
11
4.43113
21
-3.2237
0
LINE
8
BLACK
6
CONTINUOUS
10
4.43113
20
-3.2237
11
4.43091
21
-3.22394
0
LINE
8
BLACK
6
CONTINUOUS
10
4.43091
20
-3.22394
11
4.43072
21
-3.22419
0
LINE
8
BLACK
6
CONTINUOUS
10
4.43072
20
-3.22419
11
4.43062
21
-3.22425
0
LINE
8
BLACK
6
CONTINUOUS
10
4.43062
20
-3.22425
11
4.43054
21
-3.22434
0
LINE
8
BLACK
6
CONTINUOUS
10
4.43054
20
-3.22434
11
4.43026
21
-3.22448
0
LINE
8
BLACK
6
CONTINUOUS
10
4.43026
20
-3.22448
11
4.42998
21
-3.22464
0
LINE
8
BLACK
6
CONTINUOUS
10
4.42998
20
-3.22464
11
4.42987
21
-3.22467
0
LINE
8
BLACK
6
CONTINUOUS
10
4.42987
20
-3.22467
11
4.42977
21
-3.22472
0
LINE
8
BLACK
6
CONTINUOUS
10
4.42977
20
-3.22472
11
4.42945
21
-3.22474
0
LINE
8
BLACK
6
CONTINUOUS
10
4.42945
20
-3.22474
11
4.42913
21
-3.2248
0
LINE
8
BLACK
6
CONTINUOUS
10
4.42913
20
-3.2248
11
4.16929
21
-3.2248
0
LINE
8
BLACK
6
CONTINUOUS
10
4.16929
20
-3.2248
11
4.16912
21
-3.22479
0
LINE
8
BLACK
6
CONTINUOUS
10
4.16912
20
-3.22479
11
4.16906
21
-3.22479
0
LINE
8
BLACK
6
CONTINUOUS
10
4.16906
20
-3.22479
11
4.169
21
-3.22477
0
LINE
8
BLACK
6
CONTINUOUS
10
4.169
20
-3.22477
11
4.16883
21
-3.22476
0
LINE
8
BLACK
6
CONTINUOUS
10
4.16883
20
-3.22476
11
4.16854
21
-3.22464
0
LINE
8
BLACK
6
CONTINUOUS
10
4.16854
20
-3.22464
11
4.16823
21
-3.22455
0
LINE
8
BLACK
6
CONTINUOUS
10
4.16823
20
-3.22455
11
4.16814
21
-3.22448
0
LINE
8
BLACK
6
CONTINUOUS
10
4.16814
20
-3.22448
11
4.16803
21
-3.22444
0
LINE
8
BLACK
6
CONTINUOUS
10
4.16803
20
-3.22444
11
4.1678
21
-3.22422
0
LINE
8
BLACK
6
CONTINUOUS
10
4.1678
20
-3.22422
11
4.16754
21
-3.22403
0
LINE
8
BLACK
6
CONTINUOUS
10
4.16754
20
-3.22403
11
4.16748
21
-3.22393
0
LINE
8
BLACK
6
CONTINUOUS
10
4.16748
20
-3.22393
11
4.16739
21
-3.22385
0
LINE
8
BLACK
6
CONTINUOUS
10
4.16739
20
-3.22385
11
4.16725
21
-3.22356
0
LINE
8
BLACK
6
CONTINUOUS
10
4.16725
20
-3.22356
11
4.16709
21
-3.22329
0
LINE
8
BLACK
6
CONTINUOUS
10
4.16709
20
-3.22329
11
4.16707
21
-3.22318
0
LINE
8
BLACK
6
CONTINUOUS
10
4.16707
20
-3.22318
11
4.16702
21
-3.22307
0
LINE
8
BLACK
6
CONTINUOUS
10
4.16702
20
-3.22307
11
4.16699
21
-3.22275
0
LINE
8
BLACK
6
CONTINUOUS
10
4.16699
20
-3.22275
11
4.16693
21
-3.22244
0
LINE
8
BLACK
6
CONTINUOUS
10
4.16693
20
-3.22244
11
4.16693
21
-3.04528
0
LINE
8
BLACK
6
CONTINUOUS
10
4.16693
20
-3.04528
11
4.16695
21
-3.04511
0
LINE
8
BLACK
6
CONTINUOUS
10
4.16695
20
-3.04511
11
4.16694
21
-3.04505
0
LINE
8
BLACK
6
CONTINUOUS
10
4.16694
20
-3.04505
11
4.16696
21
-3.04499
0
LINE
8
BLACK
6
CONTINUOUS
10
4.16696
20
-3.04499
11
4.16697
21
-3.04482
0
LINE
8
BLACK
6
CONTINUOUS
10
4.16697
20
-3.04482
11
4.16709
21
-3.04452
0
LINE
8
BLACK
6
CONTINUOUS
10
4.16709
20
-3.04452
11
4.16718
21
-3.04421
0
LINE
8
BLACK
6
CONTINUOUS
10
4.16718
20
-3.04421
11
4.16725
21
-3.04412
0
LINE
8
BLACK
6
CONTINUOUS
10
4.16725
20
-3.04412
11
4.16729
21
-3.04401
0
LINE
8
BLACK
6
CONTINUOUS
10
4.16729
20
-3.04401
11
4.16751
21
-3.04378
0
LINE
8
BLACK
6
CONTINUOUS
10
4.16751
20
-3.04378
11
4.1677
21
-3.04353
0
LINE
8
BLACK
6
CONTINUOUS
10
4.1677
20
-3.04353
11
4.1678
21
-3.04346
0
LINE
8
BLACK
6
CONTINUOUS
10
4.1678
20
-3.04346
11
4.16788
21
-3.04338
0
LINE
8
BLACK
6
CONTINUOUS
10
4.16788
20
-3.04338
11
4.16817
21
-3.04324
0
LINE
8
BLACK
6
CONTINUOUS
10
4.16817
20
-3.04324
11
4.16844
21
-3.04307
0
LINE
8
BLACK
6
CONTINUOUS
10
4.16844
20
-3.04307
11
4.16856
21
-3.04305
0
LINE
8
BLACK
6
CONTINUOUS
10
4.16856
20
-3.04305
11
4.16866
21
-3.043
0
LINE
8
BLACK
6
CONTINUOUS
10
4.16866
20
-3.043
11
4.16898
21
-3.04297
0
LINE
8
BLACK
6
CONTINUOUS
10
4.16898
20
-3.04297
11
4.16929
21
-3.04291
0
LINE
8
BLACK
6
CONTINUOUS
10
4.16929
20
-3.04291
11
4.42913
21
-3.04291
0
LINE
8
BLACK
6
CONTINUOUS
10
4.42913
20
-3.04291
11
4.4293
21
-3.04293
0
LINE
8
BLACK
6
CONTINUOUS
10
4.17165
20
-3.04764
11
4.17165
21
-3.22008
0
LINE
8
BLACK
6
CONTINUOUS
10
4.17165
20
-3.22008
11
4.42677
21
-3.22008
0
LINE
8
BLACK
6
CONTINUOUS
10
4.42677
20
-3.22008
11
4.42677
21
-3.04764
0
LINE
8
BLACK
6
CONTINUOUS
10
4.42677
20
-3.04764
11
4.17165
21
-3.04764
0
LINE
8
BLACK
6
CONTINUOUS
10
4.13993
20
-2.73387
11
4.13999
21
-2.73387
0
LINE
8
BLACK
6
CONTINUOUS
10
4.13999
20
-2.73387
11
4.14005
21
-2.73389
0
LINE
8
BLACK
6
CONTINUOUS
10
4.14005
20
-2.73389
11
4.14022
21
-2.7339
0
LINE
8
BLACK
6
CONTINUOUS
10
4.14022
20
-2.7339
11
4.14052
21
-2.73402
0
LINE
8
BLACK
6
CONTINUOUS
10
4.14052
20
-2.73402
11
4.14083
21
-2.73411
0
LINE
8
BLACK
6
CONTINUOUS
10
4.14083
20
-2.73411
11
4.14092
21
-2.73418
0
LINE
8
BLACK
6
CONTINUOUS
10
4.14092
20
-2.73418
11
4.14103
21
-2.73422
0
LINE
8
BLACK
6
CONTINUOUS
10
4.14103
20
-2.73422
11
4.14126
21
-2.73444
0
LINE
8
BLACK
6
CONTINUOUS
10
4.14126
20
-2.73444
11
4.14151
21
-2.73463
0
LINE
8
BLACK
6
CONTINUOUS
10
4.14151
20
-2.73463
11
4.14157
21
-2.73473
0
LINE
8
BLACK
6
CONTINUOUS
10
4.14157
20
-2.73473
11
4.14166
21
-2.73481
0
LINE
8
BLACK
6
CONTINUOUS
10
4.14166
20
-2.73481
11
4.1418
21
-2.7351
0
LINE
8
BLACK
6
CONTINUOUS
10
4.1418
20
-2.7351
11
4.14197
21
-2.73537
0
LINE
8
BLACK
6
CONTINUOUS
10
4.14197
20
-2.73537
11
4.14199
21
-2.73548
0
LINE
8
BLACK
6
CONTINUOUS
10
4.14199
20
-2.73548
11
4.14204
21
-2.73559
0
LINE
8
BLACK
6
CONTINUOUS
10
4.14204
20
-2.73559
11
4.14207
21
-2.73591
0
LINE
8
BLACK
6
CONTINUOUS
10
4.14207
20
-2.73591
11
4.14213
21
-2.73622
0
LINE
8
BLACK
6
CONTINUOUS
10
4.14213
20
-2.73622
11
4.14213
21
-2.99606
0
LINE
8
BLACK
6
CONTINUOUS
10
4.14213
20
-2.99606
11
4.14211
21
-2.99623
0
LINE
8
BLACK
6
CONTINUOUS
10
4.14211
20
-2.99623
11
4.14211
21
-2.99629
0
LINE
8
BLACK
6
CONTINUOUS
10
4.14211
20
-2.99629
11
4.1421
21
-2.99635
0
LINE
8
BLACK
6
CONTINUOUS
10
4.1421
20
-2.99635
11
4.14208
21
-2.99652
0
LINE
8
BLACK
6
CONTINUOUS
10
4.14208
20
-2.99652
11
4.14196
21
-2.99682
0
LINE
8
BLACK
6
CONTINUOUS
10
4.14196
20
-2.99682
11
4.14187
21
-2.99712
0
LINE
8
BLACK
6
CONTINUOUS
10
4.14187
20
-2.99712
11
4.1418
21
-2.99722
0
LINE
8
BLACK
6
CONTINUOUS
10
4.1418
20
-2.99722
11
4.14176
21
-2.99733
0
LINE
8
BLACK
6
CONTINUOUS
10
4.14176
20
-2.99733
11
4.14154
21
-2.99756
0
LINE
8
BLACK
6
CONTINUOUS
10
4.14154
20
-2.99756
11
4.14135
21
-2.99781
0
LINE
8
BLACK
6
CONTINUOUS
10
4.14135
20
-2.99781
11
4.14125
21
-2.99787
0
LINE
8
BLACK
6
CONTINUOUS
10
4.14125
20
-2.99787
11
4.14117
21
-2.99796
0
LINE
8
BLACK
6
CONTINUOUS
10
4.14117
20
-2.99796
11
4.14089
21
-2.9981
0
LINE
8
BLACK
6
CONTINUOUS
10
4.14089
20
-2.9981
11
4.14061
21
-2.99827
0
LINE
8
BLACK
6
CONTINUOUS
10
4.14061
20
-2.99827
11
4.1405
21
-2.99829
0
LINE
8
BLACK
6
CONTINUOUS
10
4.1405
20
-2.99829
11
4.1404
21
-2.99834
0
LINE
8
BLACK
6
CONTINUOUS
10
4.1404
20
-2.99834
11
4.14008
21
-2.99837
0
LINE
8
BLACK
6
CONTINUOUS
10
4.14008
20
-2.99837
11
4.13976
21
-2.99843
0
LINE
8
BLACK
6
CONTINUOUS
10
4.13976
20
-2.99843
11
3.9626
21
-2.99843
0
LINE
8
BLACK
6
CONTINUOUS
10
3.9626
20
-2.99843
11
3.96243
21
-2.99841
0
LINE
8
BLACK
6
CONTINUOUS
10
3.96243
20
-2.99841
11
3.96237
21
-2.99841
0
LINE
8
BLACK
6
CONTINUOUS
10
3.96237
20
-2.99841
11
3.96231
21
-2.9984
0
LINE
8
BLACK
6
CONTINUOUS
10
3.96231
20
-2.9984
11
3.96214
21
-2.99838
0
LINE
8
BLACK
6
CONTINUOUS
10
3.96214
20
-2.99838
11
3.96184
21
-2.99826
0
LINE
8
BLACK
6
CONTINUOUS
10
3.96184
20
-2.99826
11
3.96154
21
-2.99817
0
LINE
8
BLACK
6
CONTINUOUS
10
3.96154
20
-2.99817
11
3.96144
21
-2.9981
0
LINE
8
BLACK
6
CONTINUOUS
10
3.96144
20
-2.9981
11
3.96134
21
-2.99806
0
LINE
8
BLACK
6
CONTINUOUS
10
3.96134
20
-2.99806
11
3.9611
21
-2.99784
0
LINE
8
BLACK
6
CONTINUOUS
10
3.9611
20
-2.99784
11
3.96085
21
-2.99765
0
LINE
8
BLACK
6
CONTINUOUS
10
3.96085
20
-2.99765
11
3.96079
21
-2.99755
0
LINE
8
BLACK
6
CONTINUOUS
10
3.96079
20
-2.99755
11
3.9607
21
-2.99747
0
LINE
8
BLACK
6
CONTINUOUS
10
3.9607
20
-2.99747
11
3.96056
21
-2.99718
0
LINE
8
BLACK
6
CONTINUOUS
10
3.96056
20
-2.99718
11
3.96039
21
-2.99691
0
LINE
8
BLACK
6
CONTINUOUS
10
3.96039
20
-2.99691
11
3.96037
21
-2.9968
0
LINE
8
BLACK
6
CONTINUOUS
10
3.96037
20
-2.9968
11
3.96032
21
-2.99669
0
LINE
8
BLACK
6
CONTINUOUS
10
3.96032
20
-2.99669
11
3.96029
21
-2.99638
0
LINE
8
BLACK
6
CONTINUOUS
10
3.96029
20
-2.99638
11
3.96024
21
-2.99606
0
LINE
8
BLACK
6
CONTINUOUS
10
3.96024
20
-2.99606
11
3.96024
21
-2.73622
0
LINE
8
BLACK
6
CONTINUOUS
10
3.96024
20
-2.73622
11
3.96025
21
-2.73605
0
LINE
8
BLACK
6
CONTINUOUS
10
3.96025
20
-2.73605
11
3.96025
21
-2.73599
0
LINE
8
BLACK
6
CONTINUOUS
10
3.96025
20
-2.73599
11
3.96026
21
-2.73593
0
LINE
8
BLACK
6
CONTINUOUS
10
3.96026
20
-2.73593
11
3.96028
21
-2.73576
0
LINE
8
BLACK
6
CONTINUOUS
10
3.96028
20
-2.73576
11
3.9604
21
-2.73547
0
LINE
8
BLACK
6
CONTINUOUS
10
3.9604
20
-2.73547
11
3.96049
21
-2.73516
0
LINE
8
BLACK
6
CONTINUOUS
10
3.96049
20
-2.73516
11
3.96056
21
-2.73507
0
LINE
8
BLACK
6
CONTINUOUS
10
3.96056
20
-2.73507
11
3.9606
21
-2.73496
0
LINE
8
BLACK
6
CONTINUOUS
10
3.9606
20
-2.73496
11
3.96082
21
-2.73472
0
LINE
8
BLACK
6
CONTINUOUS
10
3.96082
20
-2.73472
11
3.96101
21
-2.73447
0
LINE
8
BLACK
6
CONTINUOUS
10
3.96101
20
-2.73447
11
3.96111
21
-2.73441
0
LINE
8
BLACK
6
CONTINUOUS
10
3.96111
20
-2.73441
11
3.96119
21
-2.73432
0
LINE
8
BLACK
6
CONTINUOUS
10
3.96119
20
-2.73432
11
3.96148
21
-2.73418
0
LINE
8
BLACK
6
CONTINUOUS
10
3.96148
20
-2.73418
11
3.96175
21
-2.73402
0
LINE
8
BLACK
6
CONTINUOUS
10
3.96175
20
-2.73402
11
3.96186
21
-2.734
0
LINE
8
BLACK
6
CONTINUOUS
10
3.96186
20
-2.734
11
3.96197
21
-2.73394
0
LINE
8
BLACK
6
CONTINUOUS
10
3.96197
20
-2.73394
11
3.96229
21
-2.73392
0
LINE
8
BLACK
6
CONTINUOUS
10
3.96229
20
-2.73392
11
3.9626
21
-2.73386
0
LINE
8
BLACK
6
CONTINUOUS
10
3.9626
20
-2.73386
11
4.13976
21
-2.73386
0
LINE
8
BLACK
6
CONTINUOUS
10
4.13976
20
-2.73386
11
4.13993
21
-2.73387
0
LINE
8
BLACK
6
CONTINUOUS
10
3.96496
20
-2.73858
11
3.96496
21
-2.9937
0
LINE
8
BLACK
6
CONTINUOUS
10
3.96496
20
-2.9937
11
4.1374
21
-2.9937
0
LINE
8
BLACK
6
CONTINUOUS
10
4.1374
20
-2.9937
11
4.1374
21
-2.73858
0
LINE
8
BLACK
6
CONTINUOUS
10
4.1374
20
-2.73858
11
3.96496
21
-2.73858
0
LINE
8
BLACK
6
CONTINUOUS
10
5.69713
20
-2.20083
11
5.69719
21
-2.20087
0
LINE
8
BLACK
6
CONTINUOUS
10
5.69719
20
-2.20087
11
5.69726
21
-2.20088
0
LINE
8
BLACK
6
CONTINUOUS
10
5.69726
20
-2.20088
11
5.69742
21
-2.20101
0
LINE
8
BLACK
6
CONTINUOUS
10
5.69742
20
-2.20101
11
5.6976
21
-2.20113
0
LINE
8
BLACK
6
CONTINUOUS
10
5.6976
20
-2.20113
11
5.69762
21
-2.20119
0
LINE
8
BLACK
6
CONTINUOUS
10
5.69762
20
-2.20119
11
5.69768
21
-2.20124
0
LINE
8
BLACK
6
CONTINUOUS
10
5.69768
20
-2.20124
11
5.69774
21
-2.20144
0
LINE
8
BLACK
6
CONTINUOUS
10
5.69774
20
-2.20144
11
5.69782
21
-2.20163
0
LINE
8
BLACK
6
CONTINUOUS
10
5.69782
20
-2.20163
11
5.69781
21
-2.2017
0
LINE
8
BLACK
6
CONTINUOUS
10
5.69781
20
-2.2017
11
5.69783
21
-2.20177
0
LINE
8
BLACK
6
CONTINUOUS
10
5.69783
20
-2.20177
11
5.69783
21
-2.4439
0
LINE
8
BLACK
6
CONTINUOUS
10
5.69783
20
-2.4439
11
5.69779
21
-2.44418
0
LINE
8
BLACK
6
CONTINUOUS
10
5.69779
20
-2.44418
11
5.69776
21
-2.44424
0
LINE
8
BLACK
6
CONTINUOUS
10
5.69776
20
-2.44424
11
5.69775
21
-2.44431
0
LINE
8
BLACK
6
CONTINUOUS
10
5.69775
20
-2.44431
11
5.69761
21
-2.44447
0
LINE
8
BLACK
6
CONTINUOUS
10
5.69761
20
-2.44447
11
5.69749
21
-2.44464
0
LINE
8
BLACK
6
CONTINUOUS
10
5.69749
20
-2.44464
11
5.69743
21
-2.44467
0
LINE
8
BLACK
6
CONTINUOUS
10
5.69743
20
-2.44467
11
5.69738
21
-2.44473
0
LINE
8
BLACK
6
CONTINUOUS
10
5.69738
20
-2.44473
11
5.69718
21
-2.44479
0
LINE
8
BLACK
6
CONTINUOUS
10
5.69718
20
-2.44479
11
5.69699
21
-2.44487
0
LINE
8
BLACK
6
CONTINUOUS
10
5.69699
20
-2.44487
11
5.69692
21
-2.44486
0
LINE
8
BLACK
6
CONTINUOUS
10
5.69692
20
-2.44486
11
5.69685
21
-2.44488
0
LINE
8
BLACK
6
CONTINUOUS
10
5.69685
20
-2.44488
11
3.65551
21
-2.44488
0
LINE
8
BLACK
6
CONTINUOUS
10
3.65551
20
-2.44488
11
3.65523
21
-2.44484
0
LINE
8
BLACK
6
CONTINUOUS
10
3.65523
20
-2.44484
11
3.65517
21
-2.4448
0
LINE
8
BLACK
6
CONTINUOUS
10
3.65517
20
-2.4448
11
3.6551
21
-2.44479
0
LINE
8
BLACK
6
CONTINUOUS
10
3.6551
20
-2.44479
11
3.65494
21
-2.44465
0
LINE
8
BLACK
6
CONTINUOUS
10
3.65494
20
-2.44465
11
3.65477
21
-2.44454
0
LINE
8
BLACK
6
CONTINUOUS
10
3.65477
20
-2.44454
11
3.65474
21
-2.44448
0
LINE
8
BLACK
6
CONTINUOUS
10
3.65474
20
-2.44448
11
3.65468
21
-2.44443
0
LINE
8
BLACK
6
CONTINUOUS
10
3.65468
20
-2.44443
11
3.65462
21
-2.44423
0
LINE
8
BLACK
6
CONTINUOUS
10
3.65462
20
-2.44423
11
3.65454
21
-2.44404
0
LINE
8
BLACK
6
CONTINUOUS
10
3.65454
20
-2.44404
11
3.65455
21
-2.44397
0
LINE
8
BLACK
6
CONTINUOUS
10
3.65455
20
-2.44397
11
3.65453
21
-2.4439
0
LINE
8
BLACK
6
CONTINUOUS
10
3.65453
20
-2.4439
11
3.65453
21
-2.20177
0
LINE
8
BLACK
6
CONTINUOUS
10
3.65453
20
-2.20177
11
3.65457
21
-2.20149
0
LINE
8
BLACK
6
CONTINUOUS
10
3.65457
20
-2.20149
11
3.65461
21
-2.20143
0
LINE
8
BLACK
6
CONTINUOUS
10
3.65461
20
-2.20143
11
3.65462
21
-2.20136
0
LINE
8
BLACK
6
CONTINUOUS
10
3.65462
20
-2.20136
11
3.65475
21
-2.2012
0
LINE
8
BLACK
6
CONTINUOUS
10
3.65475
20
-2.2012
11
3.65487
21
-2.20103
0
LINE
8
BLACK
6
CONTINUOUS
10
3.65487
20
-2.20103
11
3.65493
21
-2.201
0
LINE
8
BLACK
6
CONTINUOUS
10
3.65493
20
-2.201
11
3.65498
21
-2.20094
0
LINE
8
BLACK
6
CONTINUOUS
10
3.65498
20
-2.20094
11
3.65518
21
-2.20088
0
LINE
8
BLACK
6
CONTINUOUS
10
3.65518
20
-2.20088
11
3.65537
21
-2.2008
0
LINE
8
BLACK
6
CONTINUOUS
10
3.65537
20
-2.2008
11
3.65544
21
-2.20081
0
LINE
8
BLACK
6
CONTINUOUS
10
3.65544
20
-2.20081
11
3.65551
21
-2.20079
0
LINE
8
BLACK
6
CONTINUOUS
10
3.65551
20
-2.20079
11
5.69685
21
-2.20079
0
LINE
8
BLACK
6
CONTINUOUS
10
5.69685
20
-2.20079
11
5.69713
21
-2.20083
0
LINE
8
BLACK
6
CONTINUOUS
10
3.6565
20
-2.20276
11
3.6565
21
-2.44291
0
LINE
8
BLACK
6
CONTINUOUS
10
3.6565
20
-2.44291
11
5.69587
21
-2.44291
0
LINE
8
BLACK
6
CONTINUOUS
10
5.69587
20
-2.44291
11
5.69587
21
-2.20276
0
LINE
8
BLACK
6
CONTINUOUS
10
5.69587
20
-2.20276
11
3.6565
21
-2.20276
0
LINE
8
BLACK
6
CONTINUOUS
10
5.44255
20
-3.51577
11
5.44332
21
-3.5119
0
LINE
8
BLACK
6
CONTINUOUS
10
5.44332
20
-3.5119
11
5.44439
21
-3.50811
0
LINE
8
BLACK
6
CONTINUOUS
10
5.44439
20
-3.50811
11
5.44575
21
-3.50441
0
LINE
8
BLACK
6
CONTINUOUS
10
5.44575
20
-3.50441
11
5.4474
21
-3.50083
0
LINE
8
BLACK
6
CONTINUOUS
10
5.4474
20
-3.50083
11
5.44933
21
-3.49739
0
LINE
8
BLACK
6
CONTINUOUS
10
5.44933
20
-3.49739
11
5.45152
21
-3.49412
0
LINE
8
BLACK
6
CONTINUOUS
10
5.45152
20
-3.49412
11
5.45396
21
-3.49102
0
LINE
8
BLACK
6
CONTINUOUS
10
5.45396
20
-3.49102
11
5.45663
21
-3.48813
0
LINE
8
BLACK
6
CONTINUOUS
10
5.45663
20
-3.48813
11
5.45953
21
-3.48545
0
LINE
8
BLACK
6
CONTINUOUS
10
5.45953
20
-3.48545
11
5.46262
21
-3.48301
0
LINE
8
BLACK
6
CONTINUOUS
10
5.46262
20
-3.48301
11
5.4659
21
-3.48082
0
LINE
8
BLACK
6
CONTINUOUS
10
5.4659
20
-3.48082
11
5.46934
21
-3.4789
0
LINE
8
BLACK
6
CONTINUOUS
10
5.46934
20
-3.4789
11
5.47292
21
-3.47725
0
LINE
8
BLACK
6
CONTINUOUS
10
5.47292
20
-3.47725
11
5.47661
21
-3.47588
0
LINE
8
BLACK
6
CONTINUOUS
10
5.47661
20
-3.47588
11
5.48041
21
-3.47481
0
LINE
8
BLACK
6
CONTINUOUS
10
5.48041
20
-3.47481
11
5.48427
21
-3.47404
0
LINE
8
BLACK
6
CONTINUOUS
10
5.48427
20
-3.47404
11
5.48819
21
-3.47358
0
LINE
8
BLACK
6
CONTINUOUS
10
5.48819
20
-3.47358
11
5.49213
21
-3.47343
0
LINE
8
BLACK
6
CONTINUOUS
10
5.49213
20
-3.47343
11
5.49606
21
-3.47358
0
LINE
8
BLACK
6
CONTINUOUS
10
5.49606
20
-3.47358
11
5.49998
21
-3.47404
0
LINE
8
BLACK
6
CONTINUOUS
10
5.49998
20
-3.47404
11
5.50384
21
-3.47481
0
LINE
8
BLACK
6
CONTINUOUS
10
5.50384
20
-3.47481
11
5.50764
21
-3.47588
0
LINE
8
BLACK
6
CONTINUOUS
10
5.50764
20
-3.47588
11
5.51134
21
-3.47725
0
LINE
8
BLACK
6
CONTINUOUS
10
5.51134
20
-3.47725
11
5.51491
21
-3.4789
0
LINE
8
BLACK
6
CONTINUOUS
10
5.51491
20
-3.4789
11
5.51835
21
-3.48082
0
LINE
8
BLACK
6
CONTINUOUS
10
5.51835
20
-3.48082
11
5.52163
21
-3.48301
0
LINE
8
BLACK
6
CONTINUOUS
10
5.52163
20
-3.48301
11
5.52473
21
-3.48545
0
LINE
8
BLACK
6
CONTINUOUS
10
5.52473
20
-3.48545
11
5.52762
21
-3.48813
0
LINE
8
BLACK
6
CONTINUOUS
10
5.52762
20
-3.48813
11
5.5303
21
-3.49102
0
LINE
8
BLACK
6
CONTINUOUS
10
5.5303
20
-3.49102
11
5.53274
21
-3.49412
0
LINE
8
BLACK
6
CONTINUOUS
10
5.53274
20
-3.49412
11
5.53493
21
-3.49739
0
LINE
8
BLACK
6
CONTINUOUS
10
5.53493
20
-3.49739
11
5.53685
21
-3.50083
0
LINE
8
BLACK
6
CONTINUOUS
10
5.53685
20
-3.50083
11
5.5385
21
-3.50441
0
LINE
8
BLACK
6
CONTINUOUS
10
5.5385
20
-3.50441
11
5.53987
21
-3.50811
0
LINE
8
BLACK
6
CONTINUOUS
10
5.53987
20
-3.50811
11
5.54094
21
-3.5119
0
LINE
8
BLACK
6
CONTINUOUS
10
5.54094
20
-3.5119
11
5.5417
21
-3.51577
0
LINE
8
BLACK
6
CONTINUOUS
10
5.5417
20
-3.51577
11
5.54217
21
-3.51968
0
LINE
8
BLACK
6
CONTINUOUS
10
5.54217
20
-3.51968
11
5.54232
21
-3.52362
0
LINE
8
BLACK
6
CONTINUOUS
10
5.54232
20
-3.52362
11
5.54217
21
-3.52756
0
LINE
8
BLACK
6
CONTINUOUS
10
5.54217
20
-3.52756
11
5.5417
21
-3.53147
0
LINE
8
BLACK
6
CONTINUOUS
10
5.5417
20
-3.53147
11
5.54094
21
-3.53534
0
LINE
8
BLACK
6
CONTINUOUS
10
5.54094
20
-3.53534
11
5.53987
21
-3.53913
0
LINE
8
BLACK
6
CONTINUOUS
10
5.53987
20
-3.53913
11
5.5385
21
-3.54283
0
LINE
8
BLACK
6
CONTINUOUS
10
5.5385
20
-3.54283
11
5.53685
21
-3.54641
0
LINE
8
BLACK
6
CONTINUOUS
10
5.53685
20
-3.54641
11
5.53493
21
-3.54985
0
LINE
8
BLACK
6
CONTINUOUS
10
5.53493
20
-3.54985
11
5.53274
21
-3.55313
0
LINE
8
BLACK
6
CONTINUOUS
10
5.53274
20
-3.55313
11
5.5303
21
-3.55622
0
LINE
8
BLACK
6
CONTINUOUS
10
5.5303
20
-3.55622
11
5.52762
21
-3.55912
0
LINE
8
BLACK
6
CONTINUOUS
10
5.52762
20
-3.55912
11
5.52473
21
-3.56179
0
LINE
8
BLACK
6
CONTINUOUS
10
5.52473
20
-3.56179
11
5.52163
21
-3.56423
0
LINE
8
BLACK
6
CONTINUOUS
10
5.52163
20
-3.56423
11
5.51835
21
-3.56642
0
LINE
8
BLACK
6
CONTINUOUS
10
5.51835
20
-3.56642
11
5.51491
21
-3.56835
0
LINE
8
BLACK
6
CONTINUOUS
10
5.51491
20
-3.56835
11
5.51134
21
-3.57
0
LINE
8
BLACK
6
CONTINUOUS
10
5.51134
20
-3.57
11
5.50764
21
-3.57136
0
LINE
8
BLACK
6
CONTINUOUS
10
5.50764
20
-3.57136
11
5.50384
21
-3.57243
0
LINE
8
BLACK
6
CONTINUOUS
10
5.50384
20
-3.57243
11
5.49998
21
-3.5732
0
LINE
8
BLACK
6
CONTINUOUS
10
5.49998
20
-3.5732
11
5.49606
21
-3.57366
0
LINE
8
BLACK
6
CONTINUOUS
10
5.49606
20
-3.57366
11
5.49213
21
-3.57382
0
LINE
8
BLACK
6
CONTINUOUS
10
5.49213
20
-3.57382
11
5.48819
21
-3.57366
0
LINE
8
BLACK
6
CONTINUOUS
10
5.48819
20
-3.57366
11
5.48427
21
-3.5732
0
LINE
8
BLACK
6
CONTINUOUS
10
5.48427
20
-3.5732
11
5.48041
21
-3.57243
0
LINE
8
BLACK
6
CONTINUOUS
10
5.48041
20
-3.57243
11
5.47661
21
-3.57136
0
LINE
8
BLACK
6
CONTINUOUS
10
5.47661
20
-3.57136
11
5.47292
21
-3.57
0
LINE
8
BLACK
6
CONTINUOUS
10
5.47292
20
-3.57
11
5.46934
21
-3.56835
0
LINE
8
BLACK
6
CONTINUOUS
10
5.46934
20
-3.56835
11
5.4659
21
-3.56642
0
LINE
8
BLACK
6
CONTINUOUS
10
5.4659
20
-3.56642
11
5.46262
21
-3.56423
0
LINE
8
BLACK
6
CONTINUOUS
10
5.46262
20
-3.56423
11
5.45953
21
-3.56179
0
LINE
8
BLACK
6
CONTINUOUS
10
5.45953
20
-3.56179
11
5.45663
21
-3.55912
0
LINE
8
BLACK
6
CONTINUOUS
10
5.45663
20
-3.55912
11
5.45396
21
-3.55622
0
LINE
8
BLACK
6
CONTINUOUS
10
5.45396
20
-3.55622
11
5.45152
21
-3.55313
0
LINE
8
BLACK
6
CONTINUOUS
10
5.45152
20
-3.55313
11
5.44933
21
-3.54985
0
LINE
8
BLACK
6
CONTINUOUS
10
5.44933
20
-3.54985
11
5.4474
21
-3.54641
0
LINE
8
BLACK
6
CONTINUOUS
10
5.4474
20
-3.54641
11
5.44575
21
-3.54283
0
LINE
8
BLACK
6
CONTINUOUS
10
5.44575
20
-3.54283
11
5.44439
21
-3.53913
0
LINE
8
BLACK
6
CONTINUOUS
10
5.44439
20
-3.53913
11
5.44332
21
-3.53534
0
LINE
8
BLACK
6
CONTINUOUS
10
5.44332
20
-3.53534
11
5.44255
21
-3.53147
0
LINE
8
BLACK
6
CONTINUOUS
10
5.44255
20
-3.53147
11
5.44208
21
-3.52756
0
LINE
8
BLACK
6
CONTINUOUS
10
5.44208
20
-3.52756
11
5.44193
21
-3.52362
0
LINE
8
BLACK
6
CONTINUOUS
10
5.44193
20
-3.52362
11
5.44195
21
-3.52312
0
LINE
8
BLACK
6
CONTINUOUS
10
5.44195
20
-3.52312
11
5.44208
21
-3.51968
0
LINE
8
BLACK
6
CONTINUOUS
10
5.44208
20
-3.51968
11
5.44255
21
-3.51577
0
LINE
8
BLACK
6
CONTINUOUS
10
5.4444
20
-3.53084
11
5.44513
21
-3.53464
0
LINE
8
BLACK
6
CONTINUOUS
10
5.44513
20
-3.53464
11
5.44617
21
-3.53838
0
LINE
8
BLACK
6
CONTINUOUS
10
5.44617
20
-3.53838
11
5.4475
21
-3.54202
0
LINE
8
BLACK
6
CONTINUOUS
10
5.4475
20
-3.54202
11
5.44912
21
-3.54554
0
LINE
8
BLACK
6
CONTINUOUS
10
5.44912
20
-3.54554
11
5.45102
21
-3.54891
0
LINE
8
BLACK
6
CONTINUOUS
10
5.45102
20
-3.54891
11
5.45318
21
-3.55213
0
LINE
8
BLACK
6
CONTINUOUS
10
5.45318
20
-3.55213
11
5.45559
21
-3.55516
0
LINE
8
BLACK
6
CONTINUOUS
10
5.45559
20
-3.55516
11
5.45823
21
-3.55799
0
LINE
8
BLACK
6
CONTINUOUS
10
5.45823
20
-3.55799
11
5.4611
21
-3.5606
0
LINE
8
BLACK
6
CONTINUOUS
10
5.4611
20
-3.5606
11
5.46417
21
-3.56297
0
LINE
8
BLACK
6
CONTINUOUS
10
5.46417
20
-3.56297
11
5.46741
21
-3.56508
0
LINE
8
BLACK
6
CONTINUOUS
10
5.46741
20
-3.56508
11
5.47082
21
-3.56693
0
LINE
8
BLACK
6
CONTINUOUS
10
5.47082
20
-3.56693
11
5.47436
21
-3.5685
0
LINE
8
BLACK
6
CONTINUOUS
10
5.47436
20
-3.5685
11
5.47801
21
-3.56978
0
LINE
8
BLACK
6
CONTINUOUS
10
5.47801
20
-3.56978
11
5.48176
21
-3.57076
0
LINE
8
BLACK
6
CONTINUOUS
10
5.48176
20
-3.57076
11
5.48558
21
-3.57144
0
LINE
8
BLACK
6
CONTINUOUS
10
5.48558
20
-3.57144
11
5.48943
21
-3.57181
0
LINE
8
BLACK
6
CONTINUOUS
10
5.48943
20
-3.57181
11
5.49331
21
-3.57188
0
LINE
8
BLACK
6
CONTINUOUS
10
5.49331
20
-3.57188
11
5.49717
21
-3.57163
0
LINE
8
BLACK
6
CONTINUOUS
10
5.49717
20
-3.57163
11
5.501
21
-3.57107
0
LINE
8
BLACK
6
CONTINUOUS
10
5.501
20
-3.57107
11
5.50478
21
-3.5702
0
LINE
8
BLACK
6
CONTINUOUS
10
5.50478
20
-3.5702
11
5.50848
21
-3.56904
0
LINE
8
BLACK
6
CONTINUOUS
10
5.50848
20
-3.56904
11
5.51207
21
-3.56758
0
LINE
8
BLACK
6
CONTINUOUS
10
5.51207
20
-3.56758
11
5.51553
21
-3.56584
0
LINE
8
BLACK
6
CONTINUOUS
10
5.51553
20
-3.56584
11
5.51884
21
-3.56383
0
LINE
8
BLACK
6
CONTINUOUS
10
5.51884
20
-3.56383
11
5.52198
21
-3.56155
0
LINE
8
BLACK
6
CONTINUOUS
10
5.52198
20
-3.56155
11
5.52492
21
-3.55904
0
LINE
8
BLACK
6
CONTINUOUS
10
5.52492
20
-3.55904
11
5.52766
21
-3.55629
0
LINE
8
BLACK
6
CONTINUOUS
10
5.52766
20
-3.55629
11
5.53016
21
-3.55334
0
LINE
8
BLACK
6
CONTINUOUS
10
5.53016
20
-3.55334
11
5.53242
21
-3.55019
0
LINE
8
BLACK
6
CONTINUOUS
10
5.53242
20
-3.55019
11
5.53442
21
-3.54688
0
LINE
8
BLACK
6
CONTINUOUS
10
5.53442
20
-3.54688
11
5.53615
21
-3.54341
0
LINE
8
BLACK
6
CONTINUOUS
10
5.53615
20
-3.54341
11
5.5376
21
-3.53981
0
LINE
8
BLACK
6
CONTINUOUS
10
5.5376
20
-3.53981
11
5.53875
21
-3.53611
0
LINE
8
BLACK
6
CONTINUOUS
10
5.53875
20
-3.53611
11
5.5396
21
-3.53234
0
LINE
8
BLACK
6
CONTINUOUS
10
5.5396
20
-3.53234
11
5.54015
21
-3.5285
0
LINE
8
BLACK
6
CONTINUOUS
10
5.54015
20
-3.5285
11
5.54038
21
-3.52463
0
LINE
8
BLACK
6
CONTINUOUS
10
5.54038
20
-3.52463
11
5.54039
21
-3.52362
0
LINE
8
BLACK
6
CONTINUOUS
10
5.54039
20
-3.52362
11
5.54024
21
-3.51975
0
LINE
8
BLACK
6
CONTINUOUS
10
5.54024
20
-3.51975
11
5.53977
21
-3.51591
0
LINE
8
BLACK
6
CONTINUOUS
10
5.53977
20
-3.51591
11
5.539
21
-3.51211
0
LINE
8
BLACK
6
CONTINUOUS
10
5.539
20
-3.51211
11
5.53793
21
-3.50839
0
LINE
8
BLACK
6
CONTINUOUS
10
5.53793
20
-3.50839
11
5.53656
21
-3.50476
0
LINE
8
BLACK
6
CONTINUOUS
10
5.53656
20
-3.50476
11
5.5349
21
-3.50126
0
LINE
8
BLACK
6
CONTINUOUS
10
5.5349
20
-3.50126
11
5.53297
21
-3.4979
0
LINE
8
BLACK
6
CONTINUOUS
10
5.53297
20
-3.4979
11
5.53078
21
-3.49471
0
LINE
8
BLACK
6
CONTINUOUS
10
5.53078
20
-3.49471
11
5.52833
21
-3.4917
0
LINE
8
BLACK
6
CONTINUOUS
10
5.52833
20
-3.4917
11
5.52566
21
-3.4889
0
LINE
8
BLACK
6
CONTINUOUS
10
5.52566
20
-3.4889
11
5.52276
21
-3.48632
0
LINE
8
BLACK
6
CONTINUOUS
10
5.52276
20
-3.48632
11
5.51967
21
-3.48399
0
LINE
8
BLACK
6
CONTINUOUS
10
5.51967
20
-3.48399
11
5.51641
21
-3.48191
0
LINE
8
BLACK
6
CONTINUOUS
10
5.51641
20
-3.48191
11
5.51298
21
-3.48009
0
LINE
8
BLACK
6
CONTINUOUS
10
5.51298
20
-3.48009
11
5.50942
21
-3.47856
0
LINE
8
BLACK
6
CONTINUOUS
10
5.50942
20
-3.47856
11
5.50575
21
-3.47732
0
LINE
8
BLACK
6
CONTINUOUS
10
5.50575
20
-3.47732
11
5.502
21
-3.47637
0
LINE
8
BLACK
6
CONTINUOUS
10
5.502
20
-3.47637
11
5.49818
21
-3.47574
0
LINE
8
BLACK
6
CONTINUOUS
10
5.49818
20
-3.47574
11
5.49432
21
-3.4754
0
LINE
8
BLACK
6
CONTINUOUS
10
5.49432
20
-3.4754
11
5.49044
21
-3.47538
0
LINE
8
BLACK
6
CONTINUOUS
10
5.49044
20
-3.47538
11
5.48658
21
-3.47567
0
LINE
8
BLACK
6
CONTINUOUS
10
5.48658
20
-3.47567
11
5.48275
21
-3.47627
0
LINE
8
BLACK
6
CONTINUOUS
10
5.48275
20
-3.47627
11
5.47898
21
-3.47718
0
LINE
8
BLACK
6
CONTINUOUS
10
5.47898
20
-3.47718
11
5.4753
21
-3.47838
0
LINE
8
BLACK
6
CONTINUOUS
10
5.4753
20
-3.47838
11
5.47173
21
-3.47988
0
LINE
8
BLACK
6
CONTINUOUS
10
5.47173
20
-3.47988
11
5.46828
21
-3.48165
0
LINE
8
BLACK
6
CONTINUOUS
10
5.46828
20
-3.48165
11
5.465
21
-3.4837
0
LINE
8
BLACK
6
CONTINUOUS
10
5.465
20
-3.4837
11
5.46188
21
-3.48601
0
LINE
8
BLACK
6
CONTINUOUS
10
5.46188
20
-3.48601
11
5.45896
21
-3.48855
0
LINE
8
BLACK
6
CONTINUOUS
10
5.45896
20
-3.48855
11
5.45626
21
-3.49132
0
LINE
8
BLACK
6
CONTINUOUS
10
5.45626
20
-3.49132
11
5.45378
21
-3.49431
0
LINE
8
BLACK
6
CONTINUOUS
10
5.45378
20
-3.49431
11
5.45155
21
-3.49748
0
LINE
8
BLACK
6
CONTINUOUS
10
5.45155
20
-3.49748
11
5.44959
21
-3.50081
0
LINE
8
BLACK
6
CONTINUOUS
10
5.44959
20
-3.50081
11
5.4479
21
-3.5043
0
LINE
8
BLACK
6
CONTINUOUS
10
5.4479
20
-3.5043
11
5.44649
21
-3.50791
0
LINE
8
BLACK
6
CONTINUOUS
10
5.44649
20
-3.50791
11
5.44537
21
-3.51162
0
LINE
8
BLACK
6
CONTINUOUS
10
5.44537
20
-3.51162
11
5.44456
21
-3.51541
0
LINE
8
BLACK
6
CONTINUOUS
10
5.44456
20
-3.51541
11
5.44406
21
-3.51925
0
LINE
8
BLACK
6
CONTINUOUS
10
5.44406
20
-3.51925
11
5.44386
21
-3.52312
0
LINE
8
BLACK
6
CONTINUOUS
10
5.44386
20
-3.52312
11
5.44398
21
-3.52699
0
LINE
8
BLACK
6
CONTINUOUS
10
5.44398
20
-3.52699
11
5.4444
21
-3.53084
0
LINE
8
BLACK
6
CONTINUOUS
10
4.03704
20
-3.1516
11
4.0378
21
-3.14773
0
LINE
8
BLACK
6
CONTINUOUS
10
4.0378
20
-3.14773
11
4.03887
21
-3.14394
0
LINE
8
BLACK
6
CONTINUOUS
10
4.03887
20
-3.14394
11
4.04024
21
-3.14024
0
LINE
8
BLACK
6
CONTINUOUS
10
4.04024
20
-3.14024
11
4.04189
21
-3.13666
0
LINE
8
BLACK
6
CONTINUOUS
10
4.04189
20
-3.13666
11
4.04381
21
-3.13322
0
LINE
8
BLACK
6
CONTINUOUS
10
4.04381
20
-3.13322
11
4.046
21
-3.12994
0
LINE
8
BLACK
6
CONTINUOUS
10
4.046
20
-3.12994
11
4.04844
21
-3.12685
0
LINE
8
BLACK
6
CONTINUOUS
10
4.04844
20
-3.12685
11
4.05112
21
-3.12395
0
LINE
8
BLACK
6
CONTINUOUS
10
4.05112
20
-3.12395
11
4.05401
21
-3.12128
0
LINE
8
BLACK
6
CONTINUOUS
10
4.05401
20
-3.12128
11
4.05711
21
-3.11884
0
LINE
8
BLACK
6
CONTINUOUS
10
4.05711
20
-3.11884
11
4.06039
21
-3.11665
0
LINE
8
BLACK
6
CONTINUOUS
10
4.06039
20
-3.11665
11
4.06383
21
-3.11472
0
LINE
8
BLACK
6
CONTINUOUS
10
4.06383
20
-3.11472
11
4.0674
21
-3.11307
0
LINE
8
BLACK
6
CONTINUOUS
10
4.0674
20
-3.11307
11
4.0711
21
-3.11171
0
LINE
8
BLACK
6
CONTINUOUS
10
4.0711
20
-3.11171
11
4.0749
21
-3.11064
0
LINE
8
BLACK
6
CONTINUOUS
10
4.0749
20
-3.11064
11
4.07876
21
-3.10987
0
LINE
8
BLACK
6
CONTINUOUS
10
4.07876
20
-3.10987
11
4.08268
21
-3.10941
0
LINE
8
BLACK
6
CONTINUOUS
10
4.08268
20
-3.10941
11
4.08661
21
-3.10925
0
LINE
8
BLACK
6
CONTINUOUS
10
4.08661
20
-3.10925
11
4.09055
21
-3.10941
0
LINE
8
BLACK
6
CONTINUOUS
10
4.09055
20
-3.10941
11
4.09447
21
-3.10987
0
LINE
8
BLACK
6
CONTINUOUS
10
4.09447
20
-3.10987
11
4.09833
21
-3.11064
0
LINE
8
BLACK
6
CONTINUOUS
10
4.09833
20
-3.11064
11
4.10213
21
-3.11171
0
LINE
8
BLACK
6
CONTINUOUS
10
4.10213
20
-3.11171
11
4.10582
21
-3.11307
0
LINE
8
BLACK
6
CONTINUOUS
10
4.10582
20
-3.11307
11
4.1094
21
-3.11472
0
LINE
8
BLACK
6
CONTINUOUS
10
4.1094
20
-3.11472
11
4.11284
21
-3.11665
0
LINE
8
BLACK
6
CONTINUOUS
10
4.11284
20
-3.11665
11
4.11612
21
-3.11884
0
LINE
8
BLACK
6
CONTINUOUS
10
4.11612
20
-3.11884
11
4.11921
21
-3.12128
0
LINE
8
BLACK
6
CONTINUOUS
10
4.11921
20
-3.12128
11
4.12211
21
-3.12395
0
LINE
8
BLACK
6
CONTINUOUS
10
4.12211
20
-3.12395
11
4.12478
21
-3.12685
0
LINE
8
BLACK
6
CONTINUOUS
10
4.12478
20
-3.12685
11
4.12722
21
-3.12994
0
LINE
8
BLACK
6
CONTINUOUS
10
4.12722
20
-3.12994
11
4.12941
21
-3.13322
0
LINE
8
BLACK
6
CONTINUOUS
10
4.12941
20
-3.13322
11
4.13134
21
-3.13666
0
LINE
8
BLACK
6
CONTINUOUS
10
4.13134
20
-3.13666
11
4.13299
21
-3.14024
0
LINE
8
BLACK
6
CONTINUOUS
10
4.13299
20
-3.14024
11
4.13435
21
-3.14394
0
LINE
8
BLACK
6
CONTINUOUS
10
4.13435
20
-3.14394
11
4.13542
21
-3.14773
0
LINE
8
BLACK
6
CONTINUOUS
10
4.13542
20
-3.14773
11
4.13619
21
-3.1516
0
LINE
8
BLACK
6
CONTINUOUS
10
4.13619
20
-3.1516
11
4.13666
21
-3.15551
0
LINE
8
BLACK
6
CONTINUOUS
10
4.13666
20
-3.15551
11
4.13681
21
-3.15945
0
LINE
8
BLACK
6
CONTINUOUS
10
4.13681
20
-3.15945
11
4.13666
21
-3.16339
0
LINE
8
BLACK
6
CONTINUOUS
10
4.13666
20
-3.16339
11
4.13619
21
-3.1673
0
LINE
8
BLACK
6
CONTINUOUS
10
4.13619
20
-3.1673
11
4.13542
21
-3.17117
0
LINE
8
BLACK
6
CONTINUOUS
10
4.13542
20
-3.17117
11
4.13435
21
-3.17496
0
LINE
8
BLACK
6
CONTINUOUS
10
4.13435
20
-3.17496
11
4.13299
21
-3.17866
0
LINE
8
BLACK
6
CONTINUOUS
10
4.13299
20
-3.17866
11
4.13134
21
-3.18224
0
LINE
8
BLACK
6
CONTINUOUS
10
4.13134
20
-3.18224
11
4.12941
21
-3.18568
0
LINE
8
BLACK
6
CONTINUOUS
10
4.12941
20
-3.18568
11
4.12722
21
-3.18895
0
LINE
8
BLACK
6
CONTINUOUS
10
4.12722
20
-3.18895
11
4.12478
21
-3.19205
0
LINE
8
BLACK
6
CONTINUOUS
10
4.12478
20
-3.19205
11
4.12211
21
-3.19494
0
LINE
8
BLACK
6
CONTINUOUS
10
4.12211
20
-3.19494
11
4.11921
21
-3.19762
0
LINE
8
BLACK
6
CONTINUOUS
10
4.11921
20
-3.19762
11
4.11612
21
-3.20006
0
LINE
8
BLACK
6
CONTINUOUS
10
4.11612
20
-3.20006
11
4.11284
21
-3.20225
0
LINE
8
BLACK
6
CONTINUOUS
10
4.11284
20
-3.20225
11
4.1094
21
-3.20417
0
LINE
8
BLACK
6
CONTINUOUS
10
4.1094
20
-3.20417
11
4.10582
21
-3.20582
0
LINE
8
BLACK
6
CONTINUOUS
10
4.10582
20
-3.20582
11
4.10213
21
-3.20719
0
LINE
8
BLACK
6
CONTINUOUS
10
4.10213
20
-3.20719
11
4.09833
21
-3.20826
0
LINE
8
BLACK
6
CONTINUOUS
10
4.09833
20
-3.20826
11
4.09447
21
-3.20903
0
LINE
8
BLACK
6
CONTINUOUS
10
4.09447
20
-3.20903
11
4.09055
21
-3.20949
0
LINE
8
BLACK
6
CONTINUOUS
10
4.09055
20
-3.20949
11
4.08661
21
-3.20965
0
LINE
8
BLACK
6
CONTINUOUS
10
4.08661
20
-3.20965
11
4.08268
21
-3.20949
0
LINE
8
BLACK
6
CONTINUOUS
10
4.08268
20
-3.20949
11
4.07876
21
-3.20903
0
LINE
8
BLACK
6
CONTINUOUS
10
4.07876
20
-3.20903
11
4.0749
21
-3.20826
0
LINE
8
BLACK
6
CONTINUOUS
10
4.0749
20
-3.20826
11
4.0711
21
-3.20719
0
LINE
8
BLACK
6
CONTINUOUS
10
4.0711
20
-3.20719
11
4.0674
21
-3.20582
0
LINE
8
BLACK
6
CONTINUOUS
10
4.0674
20
-3.20582
11
4.06383
21
-3.20417
0
LINE
8
BLACK
6
CONTINUOUS
10
4.06383
20
-3.20417
11
4.06039
21
-3.20225
0
LINE
8
BLACK
6
CONTINUOUS
10
4.06039
20
-3.20225
11
4.05711
21
-3.20006
0
LINE
8
BLACK
6
CONTINUOUS
10
4.05711
20
-3.20006
11
4.05401
21
-3.19762
0
LINE
8
BLACK
6
CONTINUOUS
10
4.05401
20
-3.19762
11
4.05112
21
-3.19494
0
LINE
8
BLACK
6
CONTINUOUS
10
4.05112
20
-3.19494
11
4.04844
21
-3.19205
0
LINE
8
BLACK
6
CONTINUOUS
10
4.04844
20
-3.19205
11
4.046
21
-3.18895
0
LINE
8
BLACK
6
CONTINUOUS
10
4.046
20
-3.18895
11
4.04381
21
-3.18568
0
LINE
8
BLACK
6
CONTINUOUS
10
4.04381
20
-3.18568
11
4.04189
21
-3.18224
0
LINE
8
BLACK
6
CONTINUOUS
10
4.04189
20
-3.18224
11
4.04024
21
-3.17866
0
LINE
8
BLACK
6
CONTINUOUS
10
4.04024
20
-3.17866
11
4.03887
21
-3.17496
0
LINE
8
BLACK
6
CONTINUOUS
10
4.03887
20
-3.17496
11
4.0378
21
-3.17117
0
LINE
8
BLACK
6
CONTINUOUS
10
4.0378
20
-3.17117
11
4.03704
21
-3.1673
0
LINE
8
BLACK
6
CONTINUOUS
10
4.03704
20
-3.1673
11
4.03657
21
-3.16339
0
LINE
8
BLACK
6
CONTINUOUS
10
4.03657
20
-3.16339
11
4.03642
21
-3.15945
0
LINE
8
BLACK
6
CONTINUOUS
10
4.03642
20
-3.15945
11
4.03644
21
-3.15894
0
LINE
8
BLACK
6
CONTINUOUS
10
4.03644
20
-3.15894
11
4.03657
21
-3.15551
0
LINE
8
BLACK
6
CONTINUOUS
10
4.03657
20
-3.15551
11
4.03704
21
-3.1516
0
LINE
8
BLACK
6
CONTINUOUS
10
4.03889
20
-3.16667
11
4.03962
21
-3.17047
0
LINE
8
BLACK
6
CONTINUOUS
10
4.03962
20
-3.17047
11
4.04066
21
-3.1742
0
LINE
8
BLACK
6
CONTINUOUS
10
4.04066
20
-3.1742
11
4.04199
21
-3.17784
0
LINE
8
BLACK
6
CONTINUOUS
10
4.04199
20
-3.17784
11
4.04361
21
-3.18136
0
LINE
8
BLACK
6
CONTINUOUS
10
4.04361
20
-3.18136
11
4.0455
21
-3.18474
0
LINE
8
BLACK
6
CONTINUOUS
10
4.0455
20
-3.18474
11
4.04766
21
-3.18796
0
LINE
8
BLACK
6
CONTINUOUS
10
4.04766
20
-3.18796
11
4.05008
21
-3.19099
0
LINE
8
BLACK
6
CONTINUOUS
10
4.05008
20
-3.19099
11
4.05272
21
-3.19382
0
LINE
8
BLACK
6
CONTINUOUS
10
4.05272
20
-3.19382
11
4.05559
21
-3.19642
0
LINE
8
BLACK
6
CONTINUOUS
10
4.05559
20
-3.19642
11
4.05865
21
-3.19879
0
LINE
8
BLACK
6
CONTINUOUS
10
4.05865
20
-3.19879
11
4.0619
21
-3.20091
0
LINE
8
BLACK
6
CONTINUOUS
10
4.0619
20
-3.20091
11
4.0653
21
-3.20276
0
LINE
8
BLACK
6
CONTINUOUS
10
4.0653
20
-3.20276
11
4.06885
21
-3.20433
0
LINE
8
BLACK
6
CONTINUOUS
10
4.06885
20
-3.20433
11
4.0725
21
-3.20561
0
LINE
8
BLACK
6
CONTINUOUS
10
4.0725
20
-3.20561
11
4.07625
21
-3.20659
0
LINE
8
BLACK
6
CONTINUOUS
10
4.07625
20
-3.20659
11
4.08006
21
-3.20727
0
LINE
8
BLACK
6
CONTINUOUS
10
4.08006
20
-3.20727
11
4.08392
21
-3.20764
0
LINE
8
BLACK
6
CONTINUOUS
10
4.08392
20
-3.20764
11
4.08779
21
-3.2077
0
LINE
8
BLACK
6
CONTINUOUS
10
4.08779
20
-3.2077
11
4.09166
21
-3.20745
0
LINE
8
BLACK
6
CONTINUOUS
10
4.09166
20
-3.20745
11
4.09549
21
-3.20689
0
LINE
8
BLACK
6
CONTINUOUS
10
4.09549
20
-3.20689
11
4.09927
21
-3.20603
0
LINE
8
BLACK
6
CONTINUOUS
10
4.09927
20
-3.20603
11
4.10296
21
-3.20486
0
LINE
8
BLACK
6
CONTINUOUS
10
4.10296
20
-3.20486
11
4.10655
21
-3.20341
0
LINE
8
BLACK
6
CONTINUOUS
10
4.10655
20
-3.20341
11
4.11001
21
-3.20166
0
LINE
8
BLACK
6
CONTINUOUS
10
4.11001
20
-3.20166
11
4.11332
21
-3.19965
0
LINE
8
BLACK
6
CONTINUOUS
10
4.11332
20
-3.19965
11
4.11646
21
-3.19738
0
LINE
8
BLACK
6
CONTINUOUS
10
4.11646
20
-3.19738
11
4.11941
21
-3.19486
0
LINE
8
BLACK
6
CONTINUOUS
10
4.11941
20
-3.19486
11
4.12214
21
-3.19212
0
LINE
8
BLACK
6
CONTINUOUS
10
4.12214
20
-3.19212
11
4.12465
21
-3.18917
0
LINE
8
BLACK
6
CONTINUOUS
10
4.12465
20
-3.18917
11
4.12691
21
-3.18602
0
LINE
8
BLACK
6
CONTINUOUS
10
4.12691
20
-3.18602
11
4.12891
21
-3.1827
0
LINE
8
BLACK
6
CONTINUOUS
10
4.12891
20
-3.1827
11
4.13064
21
-3.17923
0
LINE
8
BLACK
6
CONTINUOUS
10
4.13064
20
-3.17923
11
4.13208
21
-3.17564
0
LINE
8
BLACK
6
CONTINUOUS
10
4.13208
20
-3.17564
11
4.13324
21
-3.17194
0
LINE
8
BLACK
6
CONTINUOUS
10
4.13324
20
-3.17194
11
4.13409
21
-3.16816
0
LINE
8
BLACK
6
CONTINUOUS
10
4.13409
20
-3.16816
11
4.13463
21
-3.16433
0
LINE
8
BLACK
6
CONTINUOUS
10
4.13463
20
-3.16433
11
4.13487
21
-3.16046
0
LINE
8
BLACK
6
CONTINUOUS
10
4.13487
20
-3.16046
11
4.13488
21
-3.15945
0
LINE
8
BLACK
6
CONTINUOUS
10
4.13488
20
-3.15945
11
4.13473
21
-3.15558
0
LINE
8
BLACK
6
CONTINUOUS
10
4.13473
20
-3.15558
11
4.13426
21
-3.15173
0
LINE
8
BLACK
6
CONTINUOUS
10
4.13426
20
-3.15173
11
4.13349
21
-3.14794
0
LINE
8
BLACK
6
CONTINUOUS
10
4.13349
20
-3.14794
11
4.13241
21
-3.14421
0
LINE
8
BLACK
6
CONTINUOUS
10
4.13241
20
-3.14421
11
4.13104
21
-3.14059
0
LINE
8
BLACK
6
CONTINUOUS
10
4.13104
20
-3.14059
11
4.12939
21
-3.13709
0
LINE
8
BLACK
6
CONTINUOUS
10
4.12939
20
-3.13709
11
4.12746
21
-3.13373
0
LINE
8
BLACK
6
CONTINUOUS
10
4.12746
20
-3.13373
11
4.12526
21
-3.13054
0
LINE
8
BLACK
6
CONTINUOUS
10
4.12526
20
-3.13054
11
4.12282
21
-3.12753
0
LINE
8
BLACK
6
CONTINUOUS
10
4.12282
20
-3.12753
11
4.12014
21
-3.12473
0
LINE
8
BLACK
6
CONTINUOUS
10
4.12014
20
-3.12473
11
4.11725
21
-3.12215
0
LINE
8
BLACK
6
CONTINUOUS
10
4.11725
20
-3.12215
11
4.11416
21
-3.11981
0
LINE
8
BLACK
6
CONTINUOUS
10
4.11416
20
-3.11981
11
4.11089
21
-3.11773
0
LINE
8
BLACK
6
CONTINUOUS
10
4.11089
20
-3.11773
11
4.10747
21
-3.11592
0
LINE
8
BLACK
6
CONTINUOUS
10
4.10747
20
-3.11592
11
4.10391
21
-3.11439
0
LINE
8
BLACK
6
CONTINUOUS
10
4.10391
20
-3.11439
11
4.10024
21
-3.11315
0
LINE
8
BLACK
6
CONTINUOUS
10
4.10024
20
-3.11315
11
4.09648
21
-3.1122
0
LINE
8
BLACK
6
CONTINUOUS
10
4.09648
20
-3.1122
11
4.09266
21
-3.11156
0
LINE
8
BLACK
6
CONTINUOUS
10
4.09266
20
-3.11156
11
4.0888
21
-3.11123
0
LINE
8
BLACK
6
CONTINUOUS
10
4.0888
20
-3.11123
11
4.08493
21
-3.11121
0
LINE
8
BLACK
6
CONTINUOUS
10
4.08493
20
-3.11121
11
4.08107
21
-3.1115
0
LINE
8
BLACK
6
CONTINUOUS
10
4.08107
20
-3.1115
11
4.07724
21
-3.1121
0
LINE
8
BLACK
6
CONTINUOUS
10
4.07724
20
-3.1121
11
4.07347
21
-3.113
0
LINE
8
BLACK
6
CONTINUOUS
10
4.07347
20
-3.113
11
4.06979
21
-3.11421
0
LINE
8
BLACK
6
CONTINUOUS
10
4.06979
20
-3.11421
11
4.06622
21
-3.1157
0
LINE
8
BLACK
6
CONTINUOUS
10
4.06622
20
-3.1157
11
4.06277
21
-3.11748
0
LINE
8
BLACK
6
CONTINUOUS
10
4.06277
20
-3.11748
11
4.05948
21
-3.11953
0
LINE
8
BLACK
6
CONTINUOUS
10
4.05948
20
-3.11953
11
4.05637
21
-3.12183
0
LINE
8
BLACK
6
CONTINUOUS
10
4.05637
20
-3.12183
11
4.05345
21
-3.12438
0
LINE
8
BLACK
6
CONTINUOUS
10
4.05345
20
-3.12438
11
4.05074
21
-3.12715
0
LINE
8
BLACK
6
CONTINUOUS
10
4.05074
20
-3.12715
11
4.04827
21
-3.13013
0
LINE
8
BLACK
6
CONTINUOUS
10
4.04827
20
-3.13013
11
4.04604
21
-3.1333
0
LINE
8
BLACK
6
CONTINUOUS
10
4.04604
20
-3.1333
11
4.04408
21
-3.13664
0
LINE
8
BLACK
6
CONTINUOUS
10
4.04408
20
-3.13664
11
4.04238
21
-3.14012
0
LINE
8
BLACK
6
CONTINUOUS
10
4.04238
20
-3.14012
11
4.04098
21
-3.14373
0
LINE
8
BLACK
6
CONTINUOUS
10
4.04098
20
-3.14373
11
4.03986
21
-3.14745
0
LINE
8
BLACK
6
CONTINUOUS
10
4.03986
20
-3.14745
11
4.03905
21
-3.15123
0
LINE
8
BLACK
6
CONTINUOUS
10
4.03905
20
-3.15123
11
4.03855
21
-3.15507
0
LINE
8
BLACK
6
CONTINUOUS
10
4.03855
20
-3.15507
11
4.03835
21
-3.15894
0
LINE
8
BLACK
6
CONTINUOUS
10
4.03835
20
-3.15894
11
4.03846
21
-3.16282
0
LINE
8
BLACK
6
CONTINUOUS
10
4.03846
20
-3.16282
11
4.03889
21
-3.16667
0
LINE
8
BLACK
6
CONTINUOUS
10
5.51735
20
-2.57089
11
5.51812
21
-2.56702
0
LINE
8
BLACK
6
CONTINUOUS
10
5.51812
20
-2.56702
11
5.51919
21
-2.56323
0
LINE
8
BLACK
6
CONTINUOUS
10
5.51919
20
-2.56323
11
5.52055
21
-2.55953
0
LINE
8
BLACK
6
CONTINUOUS
10
5.52055
20
-2.55953
11
5.5222
21
-2.55595
0
LINE
8
BLACK
6
CONTINUOUS
10
5.5222
20
-2.55595
11
5.52413
21
-2.55251
0
LINE
8
BLACK
6
CONTINUOUS
10
5.52413
20
-2.55251
11
5.52632
21
-2.54924
0
LINE
8
BLACK
6
CONTINUOUS
10
5.52632
20
-2.54924
11
5.52876
21
-2.54614
0
LINE
8
BLACK
6
CONTINUOUS
10
5.52876
20
-2.54614
11
5.53143
21
-2.54325
0
LINE
8
BLACK
6
CONTINUOUS
10
5.53143
20
-2.54325
11
5.53433
21
-2.54057
0
LINE
8
BLACK
6
CONTINUOUS
10
5.53433
20
-2.54057
11
5.53742
21
-2.53813
0
LINE
8
BLACK
6
CONTINUOUS
10
5.53742
20
-2.53813
11
5.5407
21
-2.53594
0
LINE
8
BLACK
6
CONTINUOUS
10
5.5407
20
-2.53594
11
5.54414
21
-2.53401
0
LINE
8
BLACK
6
CONTINUOUS
10
5.54414
20
-2.53401
11
5.54772
21
-2.53236
0
LINE
8
BLACK
6
CONTINUOUS
10
5.54772
20
-2.53236
11
5.55142
21
-2.531
0
LINE
8
BLACK
6
CONTINUOUS
10
5.55142
20
-2.531
11
5.55521
21
-2.52993
0
LINE
8
BLACK
6
CONTINUOUS
10
5.55521
20
-2.52993
11
5.55908
21
-2.52916
0
LINE
8
BLACK
6
CONTINUOUS
10
5.55908
20
-2.52916
11
5.56299
21
-2.5287
0
LINE
8
BLACK
6
CONTINUOUS
10
5.56299
20
-2.5287
11
5.56693
21
-2.52854
0
LINE
8
BLACK
6
CONTINUOUS
10
5.56693
20
-2.52854
11
5.57087
21
-2.5287
0
LINE
8
BLACK
6
CONTINUOUS
10
5.57087
20
-2.5287
11
5.57478
21
-2.52916
0
LINE
8
BLACK
6
CONTINUOUS
10
5.57478
20
-2.52916
11
5.57865
21
-2.52993
0
LINE
8
BLACK
6
CONTINUOUS
10
5.57865
20
-2.52993
11
5.58244
21
-2.531
0
LINE
8
BLACK
6
CONTINUOUS
10
5.58244
20
-2.531
11
5.58614
21
-2.53236
0
LINE
8
BLACK
6
CONTINUOUS
10
5.58614
20
-2.53236
11
5.58972
21
-2.53401
0
LINE
8
BLACK
6
CONTINUOUS
10
5.58972
20
-2.53401
11
5.59316
21
-2.53594
0
LINE
8
BLACK
6
CONTINUOUS
10
5.59316
20
-2.53594
11
5.59643
21
-2.53813
0
LINE
8
BLACK
6
CONTINUOUS
10
5.59643
20
-2.53813
11
5.59953
21
-2.54057
0
LINE
8
BLACK
6
CONTINUOUS
10
5.59953
20
-2.54057
11
5.60242
21
-2.54325
0
LINE
8
BLACK
6
CONTINUOUS
10
5.60242
20
-2.54325
11
5.6051
21
-2.54614
0
LINE
8
BLACK
6
CONTINUOUS
10
5.6051
20
-2.54614
11
5.60754
21
-2.54924
0
LINE
8
BLACK
6
CONTINUOUS
10
5.60754
20
-2.54924
11
5.60973
21
-2.55251
0
LINE
8
BLACK
6
CONTINUOUS
10
5.60973
20
-2.55251
11
5.61165
21
-2.55595
0
LINE
8
BLACK
6
CONTINUOUS
10
5.61165
20
-2.55595
11
5.6133
21
-2.55953
0
LINE
8
BLACK
6
CONTINUOUS
10
5.6133
20
-2.55953
11
5.61467
21
-2.56323
0
LINE
8
BLACK
6
CONTINUOUS
10
5.61467
20
-2.56323
11
5.61574
21
-2.56702
0
LINE
8
BLACK
6
CONTINUOUS
10
5.61574
20
-2.56702
11
5.61651
21
-2.57089
0
LINE
8
BLACK
6
CONTINUOUS
10
5.61651
20
-2.57089
11
5.61697
21
-2.5748
0
LINE
8
BLACK
6
CONTINUOUS
10
5.61697
20
-2.5748
11
5.61713
21
-2.57874
0
LINE
8
BLACK
6
CONTINUOUS
10
5.61713
20
-2.57874
11
5.61697
21
-2.58268
0
LINE
8
BLACK
6
CONTINUOUS
10
5.61697
20
-2.58268
11
5.61651
21
-2.58659
0
LINE
8
BLACK
6
CONTINUOUS
10
5.61651
20
-2.58659
11
5.61574
21
-2.59046
0
LINE
8
BLACK
6
CONTINUOUS
10
5.61574
20
-2.59046
11
5.61467
21
-2.59425
0
LINE
8
BLACK
6
CONTINUOUS
10
5.61467
20
-2.59425
11
5.6133
21
-2.59795
0
LINE
8
BLACK
6
CONTINUOUS
10
5.6133
20
-2.59795
11
5.61165
21
-2.60153
0
LINE
8
BLACK
6
CONTINUOUS
10
5.61165
20
-2.60153
11
5.60973
21
-2.60497
0
LINE
8
BLACK
6
CONTINUOUS
10
5.60973
20
-2.60497
11
5.60754
21
-2.60825
0
LINE
8
BLACK
6
CONTINUOUS
10
5.60754
20
-2.60825
11
5.6051
21
-2.61134
0
LINE
8
BLACK
6
CONTINUOUS
10
5.6051
20
-2.61134
11
5.60242
21
-2.61423
0
LINE
8
BLACK
6
CONTINUOUS
10
5.60242
20
-2.61423
11
5.59953
21
-2.61691
0
LINE
8
BLACK
6
CONTINUOUS
10
5.59953
20
-2.61691
11
5.59643
21
-2.61935
0
LINE
8
BLACK
6
CONTINUOUS
10
5.59643
20
-2.61935
11
5.59316
21
-2.62154
0
LINE
8
BLACK
6
CONTINUOUS
10
5.59316
20
-2.62154
11
5.58972
21
-2.62347
0
LINE
8
BLACK
6
CONTINUOUS
10
5.58972
20
-2.62347
11
5.58614
21
-2.62512
0
LINE
8
BLACK
6
CONTINUOUS
10
5.58614
20
-2.62512
11
5.58244
21
-2.62648
0
LINE
8
BLACK
6
CONTINUOUS
10
5.58244
20
-2.62648
11
5.57865
21
-2.62755
0
LINE
8
BLACK
6
CONTINUOUS
10
5.57865
20
-2.62755
11
5.57478
21
-2.62832
0
LINE
8
BLACK
6
CONTINUOUS
10
5.57478
20
-2.62832
11
5.57087
21
-2.62878
0
LINE
8
BLACK
6
CONTINUOUS
10
5.57087
20
-2.62878
11
5.56693
21
-2.62894
0
LINE
8
BLACK
6
CONTINUOUS
10
5.56693
20
-2.62894
11
5.56299
21
-2.62878
0
LINE
8
BLACK
6
CONTINUOUS
10
5.56299
20
-2.62878
11
5.55908
21
-2.62832
0
LINE
8
BLACK
6
CONTINUOUS
10
5.55908
20
-2.62832
11
5.55521
21
-2.62755
0
LINE
8
BLACK
6
CONTINUOUS
10
5.55521
20
-2.62755
11
5.55142
21
-2.62648
0
LINE
8
BLACK
6
CONTINUOUS
10
5.55142
20
-2.62648
11
5.54772
21
-2.62512
0
LINE
8
BLACK
6
CONTINUOUS
10
5.54772
20
-2.62512
11
5.54414
21
-2.62347
0
LINE
8
BLACK
6
CONTINUOUS
10
5.54414
20
-2.62347
11
5.5407
21
-2.62154
0
LINE
8
BLACK
6
CONTINUOUS
10
5.5407
20
-2.62154
11
5.53742
21
-2.61935
0
LINE
8
BLACK
6
CONTINUOUS
10
5.53742
20
-2.61935
11
5.53433
21
-2.61691
0
LINE
8
BLACK
6
CONTINUOUS
10
5.53433
20
-2.61691
11
5.53143
21
-2.61423
0
LINE
8
BLACK
6
CONTINUOUS
10
5.53143
20
-2.61423
11
5.52876
21
-2.61134
0
LINE
8
BLACK
6
CONTINUOUS
10
5.52876
20
-2.61134
11
5.52632
21
-2.60825
0
LINE
8
BLACK
6
CONTINUOUS
10
5.52632
20
-2.60825
11
5.52413
21
-2.60497
0
LINE
8
BLACK
6
CONTINUOUS
10
5.52413
20
-2.60497
11
5.5222
21
-2.60153
0
LINE
8
BLACK
6
CONTINUOUS
10
5.5222
20
-2.60153
11
5.52055
21
-2.59795
0
LINE
8
BLACK
6
CONTINUOUS
10
5.52055
20
-2.59795
11
5.51919
21
-2.59425
0
LINE
8
BLACK
6
CONTINUOUS
10
5.51919
20
-2.59425
11
5.51812
21
-2.59046
0
LINE
8
BLACK
6
CONTINUOUS
10
5.51812
20
-2.59046
11
5.51735
21
-2.58659
0
LINE
8
BLACK
6
CONTINUOUS
10
5.51735
20
-2.58659
11
5.51689
21
-2.58268
0
LINE
8
BLACK
6
CONTINUOUS
10
5.51689
20
-2.58268
11
5.51673
21
-2.57874
0
LINE
8
BLACK
6
CONTINUOUS
10
5.51673
20
-2.57874
11
5.51675
21
-2.57823
0
LINE
8
BLACK
6
CONTINUOUS
10
5.51675
20
-2.57823
11
5.51689
21
-2.5748
0
LINE
8
BLACK
6
CONTINUOUS
10
5.51689
20
-2.5748
11
5.51735
21
-2.57089
0
LINE
8
BLACK
6
CONTINUOUS
10
5.5192
20
-2.58596
11
5.51994
21
-2.58976
0
LINE
8
BLACK
6
CONTINUOUS
10
5.51994
20
-2.58976
11
5.52097
21
-2.5935
0
LINE
8
BLACK
6
CONTINUOUS
10
5.52097
20
-2.5935
11
5.5223
21
-2.59713
0
LINE
8
BLACK
6
CONTINUOUS
10
5.5223
20
-2.59713
11
5.52392
21
-2.60065
0
LINE
8
BLACK
6
CONTINUOUS
10
5.52392
20
-2.60065
11
5.52582
21
-2.60403
0
LINE
8
BLACK
6
CONTINUOUS
10
5.52582
20
-2.60403
11
5.52798
21
-2.60725
0
LINE
8
BLACK
6
CONTINUOUS
10
5.52798
20
-2.60725
11
5.53039
21
-2.61028
0
LINE
8
BLACK
6
CONTINUOUS
10
5.53039
20
-2.61028
11
5.53304
21
-2.61311
0
LINE
8
BLACK
6
CONTINUOUS
10
5.53304
20
-2.61311
11
5.5359
21
-2.61572
0
LINE
8
BLACK
6
CONTINUOUS
10
5.5359
20
-2.61572
11
5.53897
21
-2.61808
0
LINE
8
BLACK
6
CONTINUOUS
10
5.53897
20
-2.61808
11
5.54221
21
-2.6202
0
LINE
8
BLACK
6
CONTINUOUS
10
5.54221
20
-2.6202
11
5.54562
21
-2.62205
0
LINE
8
BLACK
6
CONTINUOUS
10
5.54562
20
-2.62205
11
5.54916
21
-2.62362
0
LINE
8
BLACK
6
CONTINUOUS
10
5.54916
20
-2.62362
11
5.55282
21
-2.6249
0
LINE
8
BLACK
6
CONTINUOUS
10
5.55282
20
-2.6249
11
5.55656
21
-2.62588
0
LINE
8
BLACK
6
CONTINUOUS
10
5.55656
20
-2.62588
11
5.56038
21
-2.62656
0
LINE
8
BLACK
6
CONTINUOUS
10
5.56038
20
-2.62656
11
5.56423
21
-2.62693
0
LINE
8
BLACK
6
CONTINUOUS
10
5.56423
20
-2.62693
11
5.56811
21
-2.62699
0
LINE
8
BLACK
6
CONTINUOUS
10
5.56811
20
-2.62699
11
5.57197
21
-2.62674
0
LINE
8
BLACK
6
CONTINUOUS
10
5.57197
20
-2.62674
11
5.57581
21
-2.62618
0
LINE
8
BLACK
6
CONTINUOUS
10
5.57581
20
-2.62618
11
5.57958
21
-2.62532
0
LINE
8
BLACK
6
CONTINUOUS
10
5.57958
20
-2.62532
11
5.58328
21
-2.62415
0
LINE
8
BLACK
6
CONTINUOUS
10
5.58328
20
-2.62415
11
5.58687
21
-2.6227
0
LINE
8
BLACK
6
CONTINUOUS
10
5.58687
20
-2.6227
11
5.59033
21
-2.62096
0
LINE
8
BLACK
6
CONTINUOUS
10
5.59033
20
-2.62096
11
5.59364
21
-2.61894
0
LINE
8
BLACK
6
CONTINUOUS
10
5.59364
20
-2.61894
11
5.59678
21
-2.61667
0
LINE
8
BLACK
6
CONTINUOUS
10
5.59678
20
-2.61667
11
5.59972
21
-2.61416
0
LINE
8
BLACK
6
CONTINUOUS
10
5.59972
20
-2.61416
11
5.60246
21
-2.61141
0
LINE
8
BLACK
6
CONTINUOUS
10
5.60246
20
-2.61141
11
5.60496
21
-2.60846
0
LINE
8
BLACK
6
CONTINUOUS
10
5.60496
20
-2.60846
11
5.60723
21
-2.60531
0
LINE
8
BLACK
6
CONTINUOUS
10
5.60723
20
-2.60531
11
5.60923
21
-2.60199
0
LINE
8
BLACK
6
CONTINUOUS
10
5.60923
20
-2.60199
11
5.61095
21
-2.59853
0
LINE
8
BLACK
6
CONTINUOUS
10
5.61095
20
-2.59853
11
5.6124
21
-2.59493
0
LINE
8
BLACK
6
CONTINUOUS
10
5.6124
20
-2.59493
11
5.61355
21
-2.59123
0
LINE
8
BLACK
6
CONTINUOUS
10
5.61355
20
-2.59123
11
5.6144
21
-2.58745
0
LINE
8
BLACK
6
CONTINUOUS
10
5.6144
20
-2.58745
11
5.61495
21
-2.58362
0
LINE
8
BLACK
6
CONTINUOUS
10
5.61495
20
-2.58362
11
5.61519
21
-2.57975
0
LINE
8
BLACK
6
CONTINUOUS
10
5.61519
20
-2.57975
11
5.6152
21
-2.57874
0
LINE
8
BLACK
6
CONTINUOUS
10
5.6152
20
-2.57874
11
5.61504
21
-2.57487
0
LINE
8
BLACK
6
CONTINUOUS
10
5.61504
20
-2.57487
11
5.61458
21
-2.57102
0
LINE
8
BLACK
6
CONTINUOUS
10
5.61458
20
-2.57102
11
5.6138
21
-2.56723
0
LINE
8
BLACK
6
CONTINUOUS
10
5.6138
20
-2.56723
11
5.61273
21
-2.5635
0
LINE
8
BLACK
6
CONTINUOUS
10
5.61273
20
-2.5635
11
5.61136
21
-2.55988
0
LINE
8
BLACK
6
CONTINUOUS
10
5.61136
20
-2.55988
11
5.6097
21
-2.55638
0
LINE
8
BLACK
6
CONTINUOUS
10
5.6097
20
-2.55638
11
5.60777
21
-2.55302
0
LINE
8
BLACK
6
CONTINUOUS
10
5.60777
20
-2.55302
11
5.60558
21
-2.54983
0
LINE
8
BLACK
6
CONTINUOUS
10
5.60558
20
-2.54983
11
5.60314
21
-2.54682
0
LINE
8
BLACK
6
CONTINUOUS
10
5.60314
20
-2.54682
11
5.60046
21
-2.54402
0
LINE
8
BLACK
6
CONTINUOUS
10
5.60046
20
-2.54402
11
5.59757
21
-2.54144
0
LINE
8
BLACK
6
CONTINUOUS
10
5.59757
20
-2.54144
11
5.59448
21
-2.53911
0
LINE
8
BLACK
6
CONTINUOUS
10
5.59448
20
-2.53911
11
5.59121
21
-2.53702
0
LINE
8
BLACK
6
CONTINUOUS
10
5.59121
20
-2.53702
11
5.58778
21
-2.53521
0
LINE
8
BLACK
6
CONTINUOUS
10
5.58778
20
-2.53521
11
5.58423
21
-2.53368
0
LINE
8
BLACK
6
CONTINUOUS
10
5.58423
20
-2.53368
11
5.58056
21
-2.53244
0
LINE
8
BLACK
6
CONTINUOUS
10
5.58056
20
-2.53244
11
5.5768
21
-2.53149
0
LINE
8
BLACK
6
CONTINUOUS
10
5.5768
20
-2.53149
11
5.57298
21
-2.53085
0
LINE
8
BLACK
6
CONTINUOUS
10
5.57298
20
-2.53085
11
5.56912
21
-2.53052
0
LINE
8
BLACK
6
CONTINUOUS
10
5.56912
20
-2.53052
11
5.56524
21
-2.5305
0
LINE
8
BLACK
6
CONTINUOUS
10
5.56524
20
-2.5305
11
5.56138
21
-2.53079
0
LINE
8
BLACK
6
CONTINUOUS
10
5.56138
20
-2.53079
11
5.55755
21
-2.53139
0
LINE
8
BLACK
6
CONTINUOUS
10
5.55755
20
-2.53139
11
5.55379
21
-2.5323
0
LINE
8
BLACK
6
CONTINUOUS
10
5.55379
20
-2.5323
11
5.5501
21
-2.5335
0
LINE
8
BLACK
6
CONTINUOUS
10
5.5501
20
-2.5335
11
5.54653
21
-2.53499
0
LINE
8
BLACK
6
CONTINUOUS
10
5.54653
20
-2.53499
11
5.54309
21
-2.53677
0
LINE
8
BLACK
6
CONTINUOUS
10
5.54309
20
-2.53677
11
5.5398
21
-2.53882
0
LINE
8
BLACK
6
CONTINUOUS
10
5.5398
20
-2.53882
11
5.53668
21
-2.54112
0
LINE
8
BLACK
6
CONTINUOUS
10
5.53668
20
-2.54112
11
5.53377
21
-2.54367
0
LINE
8
BLACK
6
CONTINUOUS
10
5.53377
20
-2.54367
11
5.53106
21
-2.54644
0
LINE
8
BLACK
6
CONTINUOUS
10
5.53106
20
-2.54644
11
5.52858
21
-2.54942
0
LINE
8
BLACK
6
CONTINUOUS
10
5.52858
20
-2.54942
11
5.52636
21
-2.55259
0
LINE
8
BLACK
6
CONTINUOUS
10
5.52636
20
-2.55259
11
5.52439
21
-2.55593
0
LINE
8
BLACK
6
CONTINUOUS
10
5.52439
20
-2.55593
11
5.5227
21
-2.55942
0
LINE
8
BLACK
6
CONTINUOUS
10
5.5227
20
-2.55942
11
5.52129
21
-2.56303
0
LINE
8
BLACK
6
CONTINUOUS
10
5.52129
20
-2.56303
11
5.52018
21
-2.56674
0
LINE
8
BLACK
6
CONTINUOUS
10
5.52018
20
-2.56674
11
5.51937
21
-2.57052
0
LINE
8
BLACK
6
CONTINUOUS
10
5.51937
20
-2.57052
11
5.51886
21
-2.57437
0
LINE
8
BLACK
6
CONTINUOUS
10
5.51886
20
-2.57437
11
5.51866
21
-2.57823
0
LINE
8
BLACK
6
CONTINUOUS
10
5.51866
20
-2.57823
11
5.51878
21
-2.58211
0
LINE
8
BLACK
6
CONTINUOUS
10
5.51878
20
-2.58211
11
5.5192
21
-2.58596
  0
ENDSEC
  0
EOF
