<?xml version="1.0" standalone="no"?>
 <!DOCTYPE svg PUBLIC "-//W3C//DTD SVG 1.1//EN" 
 "http://www.w3.org/Graphics/SVG/1.1/DTD/svg11.dtd"> 
<svg
  xmlns:svg="http://www.w3.org/2000/svg"
  xmlns="http://www.w3.org/2000/svg"
  xmlns:xlink="http://www.w3.org/1999/xlink"
  version="1.1"
  width="25.001220cm" height="15.001240cm" viewBox="0 0 250012200 150012400">
<title>SVG Picture created as PicoGamePad_V3_0_0_A-Edge_Cuts.svg date 2022/10/11 12:27:57 </title>
  <desc>Picture generated by PCBNEW </desc>
<g style="fill:#000000; fill-opacity:1.000000;stroke:#000000; stroke-opacity:1.000000;
stroke-linecap:round; stroke-linejoin:round;"
 transform="translate(0 0) scale(1 1)">
</g>
<g style="fill:#000000; fill-opacity:0.0; 
stroke:#000000; stroke-width:0.000000; stroke-opacity:1; 
stroke-linecap:round; stroke-linejoin:round;">
</g>
<g style="fill:#000000; fill-opacity:0.0; 
stroke:#000000; stroke-width:10000.000000; stroke-opacity:1; 
stroke-linecap:round; stroke-linejoin:round;">
<path d="M158942611.999971 57417587.999882 A2450012.000000 2450012.000000 0.0 0 0 156492588.000000 54967588.000029" />
<path d="M90000000.000000 90000000.000000 A2450000.000000 2450000.000000 0.0 0 0 92450000.000000 92450000.000000" />
<path d="M90000000 70800000
L91500000 69300000
" />
<path d="M90000000 70800000
L90000000 90000000
" />
<path d="M90000000 65800000
L91500000 67300000
" />
<path d="M92450001 55000000
L156492588 54967588
" />
<path d="M92450001.000000 55000001.000000 A2449999.000000 2449999.000000 0.0 0 0 90000001.000000 57450000.000000" />
<path d="M90000001 57450000
L90000001 65800000
" />
<path d="M158917588 90067588
L156467588 92517588
" />
<path d="M91500000 67300000
L91500000 69300000
" />
<path d="M92450000 92450000
L156467588 92517588
" />
<path d="M158917588 90067588
L158942588 57417588
" />
<g >
</g>
<g >
</g>
<g >
</g>
<g >
</g>
<g >
</g>
<g >
</g>
<g >
</g>
<g >
</g>
<g >
</g>
<g >
</g>
<g >
</g>
<g >
</g>
<g >
</g>
<g >
</g>
<g >
</g>
<g >
</g>
<g >
</g>
<g >
</g>
<g >
</g>
<g >
</g>
<g >
</g>
<g >
</g>
<g >
</g>
<g >
</g>
<g >
</g>
<g >
</g>
<g >
</g>
<g >
</g>
<g >
</g>
<g >
</g>
<g >
</g>
<g >
</g>
<g >
</g>
<g >
</g>
<g >
</g>
<g >
</g>
<g >
</g>
<g >
</g>
<g >
</g>
<g >
</g>
<g >
</g>
<g >
</g>
<g >
</g>
<g >
</g>
<g >
</g>
<g >
</g>
<g >
</g>
<g >
</g>
<g >
</g>
<g >
</g>
<g >
</g>
<g >
</g>
<g >
</g>
<g >
</g>
<g >
</g>
<g >
</g>
<g >
</g>
<g >
</g>
</g> 
</svg>
