<?xml version="1.0" standalone="no"?>
 <!DOCTYPE svg PUBLIC "-//W3C//DTD SVG 1.1//EN" 
 "http://www.w3.org/Graphics/SVG/1.1/DTD/svg11.dtd"> 
<svg
  xmlns:svg="http://www.w3.org/2000/svg"
  xmlns="http://www.w3.org/2000/svg"
  xmlns:xlink="http://www.w3.org/1999/xlink"
  version="1.1"
  width="25.001220cm" height="15.001240cm" viewBox="0 0 250012200 150012400">
<title>SVG Picture created as PicoGamePad_V3_0_0_A-BOTTOM_SILKSCREEN.svg date 2022/10/11 12:27:57 </title>
  <desc>Picture generated by PCBNEW </desc>
<g style="fill:#000000; fill-opacity:1.000000;stroke:#000000; stroke-opacity:1.000000;
stroke-linecap:round; stroke-linejoin:round;"
 transform="translate(0 0) scale(1 1)">
</g>
<g style="fill:#000000; fill-opacity:0.0; 
stroke:#000000; stroke-width:0.000000; stroke-opacity:1; 
stroke-linecap:round; stroke-linejoin:round;">
</g>
<g style="fill:#000000; fill-opacity:0.0; 
stroke:#000000; stroke-width:150000.000000; stroke-opacity:1; 
stroke-linecap:round; stroke-linejoin:round;">
</g>
<g style="fill:#000000; fill-opacity:1.0; 
stroke:#000000; stroke-width:1.000000; stroke-opacity:1; 
stroke-linecap:round; stroke-linejoin:round;">
<circle cx="120250000.000000" cy="79550000.000000" r="130902.000000" /> 
</g>
<g style="fill:#000000; fill-opacity:0.0; 
stroke:#000000; stroke-width:150000.000000; stroke-opacity:1; 
stroke-linecap:round; stroke-linejoin:round;">
</g>
<g style="fill:#000000; fill-opacity:1.0; 
stroke:#000000; stroke-width:1.000000; stroke-opacity:1; 
stroke-linecap:round; stroke-linejoin:round;">
<circle cx="146150000.000000" cy="76825000.000000" r="130902.000000" /> 
</g>
<g style="fill:#000000; fill-opacity:0.0; 
stroke:#000000; stroke-width:150000.000000; stroke-opacity:1; 
stroke-linecap:round; stroke-linejoin:round;">
</g>
<g style="fill:#000000; fill-opacity:1.0; 
stroke:#000000; stroke-width:1.000000; stroke-opacity:1; 
stroke-linecap:round; stroke-linejoin:round;">
<circle cx="128125000.000000" cy="78600000.000000" r="130902.000000" /> 
</g>
<g style="fill:#000000; fill-opacity:0.0; 
stroke:#000000; stroke-width:150000.000000; stroke-opacity:1; 
stroke-linecap:round; stroke-linejoin:round;">
</g>
<g style="fill:#000000; fill-opacity:1.0; 
stroke:#000000; stroke-width:1.000000; stroke-opacity:1; 
stroke-linecap:round; stroke-linejoin:round;">
<circle cx="134850000.000000" cy="84625000.000000" r="130902.000000" /> 
</g>
<g style="fill:#000000; fill-opacity:0.0; 
stroke:#000000; stroke-width:150000.000000; stroke-opacity:1; 
stroke-linecap:round; stroke-linejoin:round;">
</g>
<g style="fill:#000000; fill-opacity:1.0; 
stroke:#000000; stroke-width:1.000000; stroke-opacity:1; 
stroke-linecap:round; stroke-linejoin:round;">
<circle cx="149250000.000000" cy="89200000.000000" r="130902.000000" /> 
</g>
<g style="fill:#000000; fill-opacity:1.0; 
stroke:#000000; stroke-width:150000.000000; stroke-opacity:1; 
stroke-linecap:round; stroke-linejoin:round;">
</g>
<g style="fill:#000000; fill-opacity:0.0; 
stroke:#000000; stroke-width:150000.000000; stroke-opacity:1; 
stroke-linecap:round; stroke-linejoin:round;">
<text x="135200000.000000" y="74950000.000000"
transform="scale(-1 1) translate(-270400000.000000 0)"
textLength="1757381.000000" font-size="1333333.000000" lengthAdjust="spacingAndGlyphs"
text-anchor="middle" opacity="0">R3</text>
<g class="stroked-text"><desc>R3</desc>
<path d="M135366666 74902380
L135700000 74426190
" />
<path d="M135938095 74902380
L135938095 73902380
L135557142 73902380
L135461904 73950000
L135414285 73997619
L135366666 74092857
L135366666 74235714
L135414285 74330952
L135461904 74378571
L135557142 74426190
L135938095 74426190
" />
<path d="M135033333 73902380
L134414285 73902380
L134747619 74283333
L134604761 74283333
L134509523 74330952
L134461904 74378571
L134414285 74473809
L134414285 74711904
L134461904 74807142
L134509523 74854761
L134604761 74902380
L134890476 74902380
L134985714 74854761
L135033333 74807142
" />
</g><text x="144700000.000000" y="76675000.000000"
transform="scale(-1 1) translate(-289400000.000000 0)"
textLength="1805000.000000" font-size="1333333.000000" lengthAdjust="spacingAndGlyphs"
text-anchor="middle" opacity="0">U1</text>
<g class="stroked-text"><desc>U1</desc>
<path d="M145461904 75627380
L145461904 76436904
L145414285 76532142
L145366666 76579761
L145271428 76627380
L145080952 76627380
L144985714 76579761
L144938095 76532142
L144890476 76436904
L144890476 75627380
" />
<path d="M143890476 76627380
L144461904 76627380
" />
<path d="M144176190 76627380
L144176190 75627380
L144271428 75770238
L144366666 75865476
L144461904 75913095
" />
</g><text x="135200000.000000" y="73150000.000000"
transform="scale(-1 1) translate(-270400000.000000 0)"
textLength="1757381.000000" font-size="1333333.000000" lengthAdjust="spacingAndGlyphs"
text-anchor="middle" opacity="0">R2</text>
<g class="stroked-text"><desc>R2</desc>
<path d="M135366666 73102380
L135700000 72626190
" />
<path d="M135938095 73102380
L135938095 72102380
L135557142 72102380
L135461904 72150000
L135414285 72197619
L135366666 72292857
L135366666 72435714
L135414285 72530952
L135461904 72578571
L135557142 72626190
L135938095 72626190
" />
<path d="M134985714 72197619
L134938095 72150000
L134842857 72102380
L134604761 72102380
L134509523 72150000
L134461904 72197619
L134414285 72292857
L134414285 72388095
L134461904 72530952
L135033333 73102380
L134414285 73102380
" />
</g><text x="138700000.000000" y="76450000.000000"
transform="scale(-1 1) translate(-277400000.000000 0)"
textLength="1757381.000000" font-size="1333333.000000" lengthAdjust="spacingAndGlyphs"
text-anchor="middle" opacity="0">C7</text>
<g class="stroked-text"><desc>C7</desc>
<path d="M138866666 76307142
L138914285 76354761
L139057142 76402380
L139152380 76402380
L139295238 76354761
L139390476 76259523
L139438095 76164285
L139485714 75973809
L139485714 75830952
L139438095 75640476
L139390476 75545238
L139295238 75450000
L139152380 75402380
L139057142 75402380
L138914285 75450000
L138866666 75497619
" />
<path d="M138533333 75402380
L137866666 75402380
L138295238 76402380
" />
</g><g transform="rotate(-90.000000 135975000.000000 83850000.000000)">
<text x="135975000.000000" y="84350000.000000"
transform="scale(-1 1) translate(-271950000.000000 0)"
textLength="1805000.000000" font-size="1333333.000000" lengthAdjust="spacingAndGlyphs"
text-anchor="middle" opacity="0">U3</text>
</g>
<g class="stroked-text"><desc>U3</desc>
<path d="M135427380 83088095
L136236904 83088095
L136332142 83135714
L136379761 83183333
L136427380 83278571
L136427380 83469047
L136379761 83564285
L136332142 83611904
L136236904 83659523
L135427380 83659523
" />
<path d="M135427380 84040476
L135427380 84659523
L135808333 84326190
L135808333 84469047
L135855952 84564285
L135903571 84611904
L135998809 84659523
L136236904 84659523
L136332142 84611904
L136379761 84564285
L136427380 84469047
L136427380 84183333
L136379761 84088095
L136332142 84040476
" />
</g><g transform="rotate(-90.000000 120650000.000000 85550000.000000)">
<text x="120650000.000000" y="86050000.000000"
transform="scale(-1 1) translate(-241300000.000000 0)"
textLength="2709762.000000" font-size="1333333.000000" lengthAdjust="spacingAndGlyphs"
text-anchor="middle" opacity="0">C14</text>
</g>
<g class="stroked-text"><desc>C14</desc>
<path d="M121007142 84907142
L121054761 84859523
L121102380 84716666
L121102380 84621428
L121054761 84478571
L120959523 84383333
L120864285 84335714
L120673809 84288095
L120530952 84288095
L120340476 84335714
L120245238 84383333
L120150000 84478571
L120102380 84621428
L120102380 84716666
L120150000 84859523
L120197619 84907142
" />
<path d="M121102380 85859523
L121102380 85288095
" />
<path d="M121102380 85573809
L120102380 85573809
L120245238 85478571
L120340476 85383333
L120388095 85288095
" />
<path d="M120435714 86716666
L121102380 86716666
" />
<path d="M120054761 86478571
L120769047 86240476
L120769047 86859523
" />
</g><g transform="rotate(-90.000000 125300000.000000 85550000.000000)">
<text x="125300000.000000" y="86050000.000000"
transform="scale(-1 1) translate(-250600000.000000 0)"
textLength="2709762.000000" font-size="1333333.000000" lengthAdjust="spacingAndGlyphs"
text-anchor="middle" opacity="0">C18</text>
</g>
<g class="stroked-text"><desc>C18</desc>
<path d="M125657142 84907142
L125704761 84859523
L125752380 84716666
L125752380 84621428
L125704761 84478571
L125609523 84383333
L125514285 84335714
L125323809 84288095
L125180952 84288095
L124990476 84335714
L124895238 84383333
L124800000 84478571
L124752380 84621428
L124752380 84716666
L124800000 84859523
L124847619 84907142
" />
<path d="M125752380 85859523
L125752380 85288095
" />
<path d="M125752380 85573809
L124752380 85573809
L124895238 85478571
L124990476 85383333
L125038095 85288095
" />
<path d="M125180952 86430952
L125133333 86335714
L125085714 86288095
L124990476 86240476
L124942857 86240476
L124847619 86288095
L124800000 86335714
L124752380 86430952
L124752380 86621428
L124800000 86716666
L124847619 86764285
L124942857 86811904
L124990476 86811904
L125085714 86764285
L125133333 86716666
L125180952 86621428
L125180952 86430952
L125228571 86335714
L125276190 86288095
L125371428 86240476
L125561904 86240476
L125657142 86288095
L125704761 86335714
L125752380 86430952
L125752380 86621428
L125704761 86716666
L125657142 86764285
L125561904 86811904
L125371428 86811904
L125276190 86764285
L125228571 86716666
L125180952 86621428
" />
</g><text x="152825000.000000" y="83800000.000000"
transform="scale(-1 1) translate(-305650000.000000 0)"
textLength="3471667.000000" font-size="1333333.000000" lengthAdjust="spacingAndGlyphs"
text-anchor="middle" opacity="0">LED1</text>
<g class="stroked-text"><desc>LED1</desc>
<path d="M153944047 83752380
L154420238 83752380
L154420238 82752380
" />
<path d="M153610714 83228571
L153277380 83228571
" />
<path d="M153134523 83752380
L153610714 83752380
L153610714 82752380
L153134523 82752380
" />
<path d="M152705952 83752380
L152705952 82752380
L152467857 82752380
L152325000 82800000
L152229761 82895238
L152182142 82990476
L152134523 83180952
L152134523 83323809
L152182142 83514285
L152229761 83609523
L152325000 83704761
L152467857 83752380
L152705952 83752380
" />
<path d="M151182142 83752380
L151753571 83752380
" />
<path d="M151467857 83752380
L151467857 82752380
L151563095 82895238
L151658333 82990476
L151753571 83038095
" />
</g><g transform="rotate(-90.000000 123300000.000000 64333333.000000)">
<text x="123300000.000000" y="64833333.000000"
transform="scale(-1 1) translate(-246600000.000000 0)"
textLength="2709762.000000" font-size="1333333.000000" lengthAdjust="spacingAndGlyphs"
text-anchor="middle" opacity="0">C11</text>
</g>
<g class="stroked-text"><desc>C11</desc>
<path d="M123657142 63690475
L123704761 63642856
L123752380 63499999
L123752380 63404761
L123704761 63261904
L123609523 63166666
L123514285 63119047
L123323809 63071428
L123180952 63071428
L122990476 63119047
L122895238 63166666
L122800000 63261904
L122752380 63404761
L122752380 63499999
L122800000 63642856
L122847619 63690475
" />
<path d="M123752380 64642856
L123752380 64071428
" />
<path d="M123752380 64357142
L122752380 64357142
L122895238 64261904
L122990476 64166666
L123038095 64071428
" />
<path d="M123752380 65595237
L123752380 65023809
" />
<path d="M123752380 65309523
L122752380 65309523
L122895238 65214285
L122990476 65119047
L123038095 65023809
" />
</g><g transform="rotate(-90.000000 121200000.000000 64333333.000000)">
<text x="121200000.000000" y="64833333.000000"
transform="scale(-1 1) translate(-242400000.000000 0)"
textLength="2709762.000000" font-size="1333333.000000" lengthAdjust="spacingAndGlyphs"
text-anchor="middle" opacity="0">C15</text>
</g>
<g class="stroked-text"><desc>C15</desc>
<path d="M121557142 63690475
L121604761 63642856
L121652380 63499999
L121652380 63404761
L121604761 63261904
L121509523 63166666
L121414285 63119047
L121223809 63071428
L121080952 63071428
L120890476 63119047
L120795238 63166666
L120700000 63261904
L120652380 63404761
L120652380 63499999
L120700000 63642856
L120747619 63690475
" />
<path d="M121652380 64642856
L121652380 64071428
" />
<path d="M121652380 64357142
L120652380 64357142
L120795238 64261904
L120890476 64166666
L120938095 64071428
" />
<path d="M120652380 65547618
L120652380 65071428
L121128571 65023809
L121080952 65071428
L121033333 65166666
L121033333 65404761
L121080952 65499999
L121128571 65547618
L121223809 65595237
L121461904 65595237
L121557142 65547618
L121604761 65499999
L121652380 65404761
L121652380 65166666
L121604761 65071428
L121557142 65023809
" />
</g><text x="114026190.000000" y="75350000.000000"
transform="scale(-1 1) translate(-228052380.000000 0)"
textLength="1757381.000000" font-size="1333333.000000" lengthAdjust="spacingAndGlyphs"
text-anchor="middle" opacity="0">C6</text>
<g class="stroked-text"><desc>C6</desc>
<path d="M114192856 75207142
L114240475 75254761
L114383332 75302380
L114478570 75302380
L114621428 75254761
L114716666 75159523
L114764285 75064285
L114811904 74873809
L114811904 74730952
L114764285 74540476
L114716666 74445238
L114621428 74350000
L114478570 74302380
L114383332 74302380
L114240475 74350000
L114192856 74397619
" />
<path d="M113335713 74302380
L113526190 74302380
L113621428 74350000
L113669047 74397619
L113764285 74540476
L113811904 74730952
L113811904 75111904
L113764285 75207142
L113716666 75254761
L113621428 75302380
L113430951 75302380
L113335713 75254761
L113288094 75207142
L113240475 75111904
L113240475 74873809
L113288094 74778571
L113335713 74730952
L113430951 74683333
L113621428 74683333
L113716666 74730952
L113764285 74778571
L113811904 74873809
" />
</g><text x="114097619.000000" y="78175000.000000"
transform="scale(-1 1) translate(-228195238.000000 0)"
textLength="1614524.000000" font-size="1333333.000000" lengthAdjust="spacingAndGlyphs"
text-anchor="middle" opacity="0">Y1</text>
<g class="stroked-text"><desc>Y1</desc>
<path d="M114573809 77651190
L114573809 78127380
" />
<path d="M114907142 77127380
L114573809 77651190
L114240476 77127380
" />
<path d="M113383333 78127380
L113954761 78127380
" />
<path d="M113669047 78127380
L113669047 77127380
L113764285 77270238
L113859523 77365476
L113954761 77413095
" />
</g><text x="114000000.000000" y="81300000.000000"
transform="scale(-1 1) translate(-228000000.000000 0)"
textLength="1757381.000000" font-size="1333333.000000" lengthAdjust="spacingAndGlyphs"
text-anchor="middle" opacity="0">C5</text>
<g class="stroked-text"><desc>C5</desc>
<path d="M114166666 81157142
L114214285 81204761
L114357142 81252380
L114452380 81252380
L114595238 81204761
L114690476 81109523
L114738095 81014285
L114785714 80823809
L114785714 80680952
L114738095 80490476
L114690476 80395238
L114595238 80300000
L114452380 80252380
L114357142 80252380
L114214285 80300000
L114166666 80347619
" />
<path d="M113261904 80252380
L113738095 80252380
L113785714 80728571
L113738095 80680952
L113642857 80633333
L113404761 80633333
L113309523 80680952
L113261904 80728571
L113214285 80823809
L113214285 81061904
L113261904 81157142
L113309523 81204761
L113404761 81252380
L113642857 81252380
L113738095 81204761
L113785714 81157142
" />
</g><text x="135200000.000000" y="71450000.000000"
transform="scale(-1 1) translate(-270400000.000000 0)"
textLength="1757381.000000" font-size="1333333.000000" lengthAdjust="spacingAndGlyphs"
text-anchor="middle" opacity="0">C9</text>
<g class="stroked-text"><desc>C9</desc>
<path d="M135366666 71307142
L135414285 71354761
L135557142 71402380
L135652380 71402380
L135795238 71354761
L135890476 71259523
L135938095 71164285
L135985714 70973809
L135985714 70830952
L135938095 70640476
L135890476 70545238
L135795238 70450000
L135652380 70402380
L135557142 70402380
L135414285 70450000
L135366666 70497619
" />
<path d="M134890476 71402380
L134700000 71402380
L134604761 71354761
L134557142 71307142
L134461904 71164285
L134414285 70973809
L134414285 70592857
L134461904 70497619
L134509523 70450000
L134604761 70402380
L134795238 70402380
L134890476 70450000
L134938095 70497619
L134985714 70592857
L134985714 70830952
L134938095 70926190
L134890476 70973809
L134795238 71021428
L134604761 71021428
L134509523 70973809
L134461904 70926190
L134414285 70830952
" />
</g><g transform="rotate(-90.000000 138150000.000000 81000000.000000)">
<text x="138150000.000000" y="81500000.000000"
transform="scale(-1 1) translate(-276300000.000000 0)"
textLength="1757381.000000" font-size="1333333.000000" lengthAdjust="spacingAndGlyphs"
text-anchor="middle" opacity="0">R6</text>
</g>
<g class="stroked-text"><desc>R6</desc>
<path d="M138602380 80833333
L138126190 80500000
" />
<path d="M138602380 80261904
L137602380 80261904
L137602380 80642857
L137650000 80738095
L137697619 80785714
L137792857 80833333
L137935714 80833333
L138030952 80785714
L138078571 80738095
L138126190 80642857
L138126190 80261904
" />
<path d="M137602380 81690476
L137602380 81500000
L137650000 81404761
L137697619 81357142
L137840476 81261904
L138030952 81214285
L138411904 81214285
L138507142 81261904
L138554761 81309523
L138602380 81404761
L138602380 81595238
L138554761 81690476
L138507142 81738095
L138411904 81785714
L138173809 81785714
L138078571 81738095
L138030952 81690476
L137983333 81595238
L137983333 81404761
L138030952 81309523
L138078571 81261904
L138173809 81214285
" />
</g><text x="140650000.000000" y="71625000.000000"
transform="scale(-1 1) translate(-281300000.000000 0)"
textLength="1757381.000000" font-size="1333333.000000" lengthAdjust="spacingAndGlyphs"
text-anchor="middle" opacity="0">C3</text>
<g class="stroked-text"><desc>C3</desc>
<path d="M140816666 71482142
L140864285 71529761
L141007142 71577380
L141102380 71577380
L141245238 71529761
L141340476 71434523
L141388095 71339285
L141435714 71148809
L141435714 71005952
L141388095 70815476
L141340476 70720238
L141245238 70625000
L141102380 70577380
L141007142 70577380
L140864285 70625000
L140816666 70672619
" />
<path d="M140483333 70577380
L139864285 70577380
L140197619 70958333
L140054761 70958333
L139959523 71005952
L139911904 71053571
L139864285 71148809
L139864285 71386904
L139911904 71482142
L139959523 71529761
L140054761 71577380
L140340476 71577380
L140435714 71529761
L140483333 71482142
" />
</g><text x="140650000.000000" y="74200000.000000"
transform="scale(-1 1) translate(-281300000.000000 0)"
textLength="1757381.000000" font-size="1333333.000000" lengthAdjust="spacingAndGlyphs"
text-anchor="middle" opacity="0">C2</text>
<g class="stroked-text"><desc>C2</desc>
<path d="M140816666 74057142
L140864285 74104761
L141007142 74152380
L141102380 74152380
L141245238 74104761
L141340476 74009523
L141388095 73914285
L141435714 73723809
L141435714 73580952
L141388095 73390476
L141340476 73295238
L141245238 73200000
L141102380 73152380
L141007142 73152380
L140864285 73200000
L140816666 73247619
" />
<path d="M140435714 73247619
L140388095 73200000
L140292857 73152380
L140054761 73152380
L139959523 73200000
L139911904 73247619
L139864285 73342857
L139864285 73438095
L139911904 73580952
L140483333 74152380
L139864285 74152380
" />
</g><text x="148040000.000000" y="66520000.000000"
transform="scale(-1 1) translate(-296080000.000000 0)"
textLength="1757381.000000" font-size="1333333.000000" lengthAdjust="spacingAndGlyphs"
text-anchor="middle" opacity="0">R5</text>
<g class="stroked-text"><desc>R5</desc>
<path d="M148206666 66472380
L148540000 65996190
" />
<path d="M148778095 66472380
L148778095 65472380
L148397142 65472380
L148301904 65520000
L148254285 65567619
L148206666 65662857
L148206666 65805714
L148254285 65900952
L148301904 65948571
L148397142 65996190
L148778095 65996190
" />
<path d="M147301904 65472380
L147778095 65472380
L147825714 65948571
L147778095 65900952
L147682857 65853333
L147444761 65853333
L147349523 65900952
L147301904 65948571
L147254285 66043809
L147254285 66281904
L147301904 66377142
L147349523 66424761
L147444761 66472380
L147682857 66472380
L147778095 66424761
L147825714 66377142
" />
</g><text x="113550000.000000" y="71000000.000000"
transform="scale(-1 1) translate(-227100000.000000 0)"
textLength="2709762.000000" font-size="1333333.000000" lengthAdjust="spacingAndGlyphs"
text-anchor="middle" opacity="0">C17</text>
<g class="stroked-text"><desc>C17</desc>
<path d="M114192857 70857142
L114240476 70904761
L114383333 70952380
L114478571 70952380
L114621428 70904761
L114716666 70809523
L114764285 70714285
L114811904 70523809
L114811904 70380952
L114764285 70190476
L114716666 70095238
L114621428 70000000
L114478571 69952380
L114383333 69952380
L114240476 70000000
L114192857 70047619
" />
<path d="M113240476 70952380
L113811904 70952380
" />
<path d="M113526190 70952380
L113526190 69952380
L113621428 70095238
L113716666 70190476
L113811904 70238095
" />
<path d="M112907142 69952380
L112240476 69952380
L112669047 70952380
" />
</g><text x="145900000.000000" y="87950000.000000"
transform="scale(-1 1) translate(-291800000.000000 0)"
textLength="1757381.000000" font-size="1333333.000000" lengthAdjust="spacingAndGlyphs"
text-anchor="middle" opacity="0">C1</text>
<g class="stroked-text"><desc>C1</desc>
<path d="M146066666 87807142
L146114285 87854761
L146257142 87902380
L146352380 87902380
L146495238 87854761
L146590476 87759523
L146638095 87664285
L146685714 87473809
L146685714 87330952
L146638095 87140476
L146590476 87045238
L146495238 86950000
L146352380 86902380
L146257142 86902380
L146114285 86950000
L146066666 86997619
" />
<path d="M145114285 87902380
L145685714 87902380
" />
<path d="M145400000 87902380
L145400000 86902380
L145495238 87045238
L145590476 87140476
L145685714 87188095
" />
</g><text x="113550000.000000" y="73300000.000000"
transform="scale(-1 1) translate(-227100000.000000 0)"
textLength="2709762.000000" font-size="1333333.000000" lengthAdjust="spacingAndGlyphs"
text-anchor="middle" opacity="0">C10</text>
<g class="stroked-text"><desc>C10</desc>
<path d="M114192857 73157142
L114240476 73204761
L114383333 73252380
L114478571 73252380
L114621428 73204761
L114716666 73109523
L114764285 73014285
L114811904 72823809
L114811904 72680952
L114764285 72490476
L114716666 72395238
L114621428 72300000
L114478571 72252380
L114383333 72252380
L114240476 72300000
L114192857 72347619
" />
<path d="M113240476 73252380
L113811904 73252380
" />
<path d="M113526190 73252380
L113526190 72252380
L113621428 72395238
L113716666 72490476
L113811904 72538095
" />
<path d="M112621428 72252380
L112526190 72252380
L112430952 72300000
L112383333 72347619
L112335714 72442857
L112288095 72633333
L112288095 72871428
L112335714 73061904
L112383333 73157142
L112430952 73204761
L112526190 73252380
L112621428 73252380
L112716666 73204761
L112764285 73157142
L112811904 73061904
L112859523 72871428
L112859523 72633333
L112811904 72442857
L112764285 72347619
L112716666 72300000
L112621428 72252380
" />
</g><text x="120550000.000000" y="71100000.000000"
transform="scale(-1 1) translate(-241100000.000000 0)"
textLength="1805000.000000" font-size="1333333.000000" lengthAdjust="spacingAndGlyphs"
text-anchor="middle" opacity="0">U4</text>
<g class="stroked-text"><desc>U4</desc>
<path d="M121311904 70052380
L121311904 70861904
L121264285 70957142
L121216666 71004761
L121121428 71052380
L120930952 71052380
L120835714 71004761
L120788095 70957142
L120740476 70861904
L120740476 70052380
" />
<path d="M119835714 70385714
L119835714 71052380
" />
<path d="M120073809 70004761
L120311904 70719047
L119692857 70719047
" />
</g><text x="145750000.000000" y="56300000.000000"
transform="scale(-1 1) translate(-291500000.000000 0)"
textLength="1519286.000000" font-size="1333333.000000" lengthAdjust="spacingAndGlyphs"
text-anchor="middle" opacity="0">J1</text>
<g class="stroked-text"><desc>J1</desc>
<path d="M146083333 55252380
L146083333 55966666
L146130952 56109523
L146226190 56204761
L146369047 56252380
L146464285 56252380
" />
<path d="M145083333 56252380
L145654761 56252380
" />
<path d="M145369047 56252380
L145369047 55252380
L145464285 55395238
L145559523 55490476
L145654761 55538095
" />
</g><text x="150700000.000000" y="68775000.000000"
transform="scale(-1 1) translate(-301400000.000000 0)"
textLength="1614524.000000" font-size="1333333.000000" lengthAdjust="spacingAndGlyphs"
text-anchor="middle" opacity="0">F1</text>
<g class="stroked-text"><desc>F1</desc>
<path d="M151033333 68203571
L151366666 68203571
" />
<path d="M151366666 68727380
L151366666 67727380
L150890476 67727380
" />
<path d="M149985714 68727380
L150557142 68727380
" />
<path d="M150271428 68727380
L150271428 67727380
L150366666 67870238
L150461904 67965476
L150557142 68013095
" />
</g><text x="155175000.000000" y="66520000.000000"
transform="scale(-1 1) translate(-310350000.000000 0)"
textLength="1757381.000000" font-size="1333333.000000" lengthAdjust="spacingAndGlyphs"
text-anchor="middle" opacity="0">R1</text>
<g class="stroked-text"><desc>R1</desc>
<path d="M155341666 66472380
L155675000 65996190
" />
<path d="M155913095 66472380
L155913095 65472380
L155532142 65472380
L155436904 65520000
L155389285 65567619
L155341666 65662857
L155341666 65805714
L155389285 65900952
L155436904 65948571
L155532142 65996190
L155913095 65996190
" />
<path d="M154389285 66472380
L154960714 66472380
" />
<path d="M154675000 66472380
L154675000 65472380
L154770238 65615238
L154865476 65710476
L154960714 65758095
" />
</g><g transform="rotate(-90.000000 125250000.000000 64333333.000000)">
<text x="125250000.000000" y="64833333.000000"
transform="scale(-1 1) translate(-250500000.000000 0)"
textLength="2709762.000000" font-size="1333333.000000" lengthAdjust="spacingAndGlyphs"
text-anchor="middle" opacity="0">C12</text>
</g>
<g class="stroked-text"><desc>C12</desc>
<path d="M125607142 63690475
L125654761 63642856
L125702380 63499999
L125702380 63404761
L125654761 63261904
L125559523 63166666
L125464285 63119047
L125273809 63071428
L125130952 63071428
L124940476 63119047
L124845238 63166666
L124750000 63261904
L124702380 63404761
L124702380 63499999
L124750000 63642856
L124797619 63690475
" />
<path d="M125702380 64642856
L125702380 64071428
" />
<path d="M125702380 64357142
L124702380 64357142
L124845238 64261904
L124940476 64166666
L124988095 64071428
" />
<path d="M124797619 65023809
L124750000 65071428
L124702380 65166666
L124702380 65404761
L124750000 65499999
L124797619 65547618
L124892857 65595237
L124988095 65595237
L125130952 65547618
L125702380 64976190
L125702380 65595237
" />
</g><g transform="rotate(-90.000000 127775000.000000 85550000.000000)">
<text x="127775000.000000" y="86050000.000000"
transform="scale(-1 1) translate(-255550000.000000 0)"
textLength="2709762.000000" font-size="1333333.000000" lengthAdjust="spacingAndGlyphs"
text-anchor="middle" opacity="0">C13</text>
</g>
<g class="stroked-text"><desc>C13</desc>
<path d="M128132142 84907142
L128179761 84859523
L128227380 84716666
L128227380 84621428
L128179761 84478571
L128084523 84383333
L127989285 84335714
L127798809 84288095
L127655952 84288095
L127465476 84335714
L127370238 84383333
L127275000 84478571
L127227380 84621428
L127227380 84716666
L127275000 84859523
L127322619 84907142
" />
<path d="M128227380 85859523
L128227380 85288095
" />
<path d="M128227380 85573809
L127227380 85573809
L127370238 85478571
L127465476 85383333
L127513095 85288095
" />
<path d="M127227380 86192857
L127227380 86811904
L127608333 86478571
L127608333 86621428
L127655952 86716666
L127703571 86764285
L127798809 86811904
L128036904 86811904
L128132142 86764285
L128179761 86716666
L128227380 86621428
L128227380 86335714
L128179761 86240476
L128132142 86192857
" />
</g><g transform="rotate(-90.000000 119100000.000000 85550000.000000)">
<text x="119100000.000000" y="86050000.000000"
transform="scale(-1 1) translate(-238200000.000000 0)"
textLength="2709762.000000" font-size="1333333.000000" lengthAdjust="spacingAndGlyphs"
text-anchor="middle" opacity="0">C16</text>
</g>
<g class="stroked-text"><desc>C16</desc>
<path d="M119457142 84907142
L119504761 84859523
L119552380 84716666
L119552380 84621428
L119504761 84478571
L119409523 84383333
L119314285 84335714
L119123809 84288095
L118980952 84288095
L118790476 84335714
L118695238 84383333
L118600000 84478571
L118552380 84621428
L118552380 84716666
L118600000 84859523
L118647619 84907142
" />
<path d="M119552380 85859523
L119552380 85288095
" />
<path d="M119552380 85573809
L118552380 85573809
L118695238 85478571
L118790476 85383333
L118838095 85288095
" />
<path d="M118552380 86716666
L118552380 86526190
L118600000 86430952
L118647619 86383333
L118790476 86288095
L118980952 86240476
L119361904 86240476
L119457142 86288095
L119504761 86335714
L119552380 86430952
L119552380 86621428
L119504761 86716666
L119457142 86764285
L119361904 86811904
L119123809 86811904
L119028571 86764285
L118980952 86716666
L118933333 86621428
L118933333 86430952
L118980952 86335714
L119028571 86288095
L119123809 86240476
" />
</g><g transform="rotate(-90.000000 127450000.000000 64700000.000000)">
<text x="127450000.000000" y="65200000.000000"
transform="scale(-1 1) translate(-254900000.000000 0)"
textLength="1757381.000000" font-size="1333333.000000" lengthAdjust="spacingAndGlyphs"
text-anchor="middle" opacity="0">C4</text>
</g>
<g class="stroked-text"><desc>C4</desc>
<path d="M127807142 64533333
L127854761 64485714
L127902380 64342857
L127902380 64247619
L127854761 64104761
L127759523 64009523
L127664285 63961904
L127473809 63914285
L127330952 63914285
L127140476 63961904
L127045238 64009523
L126950000 64104761
L126902380 64247619
L126902380 64342857
L126950000 64485714
L126997619 64533333
" />
<path d="M127235714 65390476
L127902380 65390476
" />
<path d="M126854761 65152380
L127569047 64914285
L127569047 65533333
" />
</g><g transform="rotate(-90.000000 129600000.000000 64700000.000000)">
<text x="129600000.000000" y="65200000.000000"
transform="scale(-1 1) translate(-259200000.000000 0)"
textLength="1757381.000000" font-size="1333333.000000" lengthAdjust="spacingAndGlyphs"
text-anchor="middle" opacity="0">C8</text>
</g>
<g class="stroked-text"><desc>C8</desc>
<path d="M129957142 64533333
L130004761 64485714
L130052380 64342857
L130052380 64247619
L130004761 64104761
L129909523 64009523
L129814285 63961904
L129623809 63914285
L129480952 63914285
L129290476 63961904
L129195238 64009523
L129100000 64104761
L129052380 64247619
L129052380 64342857
L129100000 64485714
L129147619 64533333
" />
<path d="M129480952 65104761
L129433333 65009523
L129385714 64961904
L129290476 64914285
L129242857 64914285
L129147619 64961904
L129100000 65009523
L129052380 65104761
L129052380 65295238
L129100000 65390476
L129147619 65438095
L129242857 65485714
L129290476 65485714
L129385714 65438095
L129433333 65390476
L129480952 65295238
L129480952 65104761
L129528571 65009523
L129576190 64961904
L129671428 64914285
L129861904 64914285
L129957142 64961904
L130004761 65009523
L130052380 65104761
L130052380 65295238
L130004761 65390476
L129957142 65438095
L129861904 65485714
L129671428 65485714
L129576190 65438095
L129528571 65390476
L129480952 65295238
" />
</g></g>
<g style="fill:#000000; fill-opacity:0.0; 
stroke:#000000; stroke-width:120000.000000; stroke-opacity:1; 
stroke-linecap:round; stroke-linejoin:round;">
<path d="M131787258 73727500
L131312742 73727500
" />
<path d="M131787258 74772500
L131312742 74772500
" />
<path d="M149200000 70040000
L152960000 70040000
" />
<path d="M152960000 76860000
L152960000 75600000
" />
<path d="M146950000 76860000
L152960000 76860000
" />
<path d="M152960000 70040000
L152960000 71300000
" />
<path d="M131787258 73172500
L131312742 73172500
" />
<path d="M131787258 72127500
L131312742 72127500
" />
<path d="M137235000 77261252
L137235000 76738748
" />
<path d="M135765000 77261252
L135765000 76738748
" />
<path d="M134625001 82757167
L134625001 84432167
" />
<path d="M129435001 80032167
L129435001 77307167
" />
<path d="M134885001 80032167
L134885001 77307167
" />
<path d="M129435001 82757167
L129695001 82757167
" />
<path d="M129435001 77307167
L129695001 77307167
" />
<path d="M134885001 80032167
L134885001 82757167
" />
<path d="M129435001 80032167
L129435001 82757167
" />
<path d="M134885001 82757167
L134625001 82757167
" />
<path d="M134885001 77307167
L134625001 77307167
" />
<path d="M122605188 81670830
L122605188 82193334
" />
<path d="M124075188 81670830
L124075188 82193334
" />
<path d="M124585087 81670830
L124585087 82193334
" />
<path d="M126055087 81670830
L126055087 82193334
" />
<path d="M149175000 84075000
L156475000 84075000
" />
<path d="M156475000 84075000
L156475000 85225000
" />
<path d="M149175000 89575000
L156475000 89575000
" />
<path d="M124035000 68361252
L124035000 67838748
" />
<path d="M122565000 68361252
L122565000 67838748
" />
<path d="M120465000 68361252
L120465000 67838748
" />
<path d="M121935000 68361252
L121935000 67838748
" />
<path d="M118361252 75575000
L117838748 75575000
" />
<path d="M118361252 74105000
L117838748 74105000
" />
<path d="M119966177 76039441
L119966177 79339441
" />
<path d="M119966177 79339441
L115966177 79339441
" />
<path d="M118361252 81335000
L117838748 81335000
" />
<path d="M118361252 79865000
L117838748 79865000
" />
<path d="M131498751 70197167
L132021255 70197167
" />
<path d="M131498751 71667167
L132021255 71667167
" />
<path d="M135765000 81227064
L135765000 80772936
" />
<path d="M137235000 81227064
L137235000 80772936
" />
<path d="M144811252 72640000
L143388748 72640000
" />
<path d="M144811252 74460000
L143388748 74460000
" />
<path d="M144811252 72160000
L143388748 72160000
" />
<path d="M144811252 70340000
L143388748 70340000
" />
<path d="M149152064 63465000
L148697936 63465000
" />
<path d="M149152064 64935000
L148697936 64935000
" />
<path d="M118368850 71211952
L117846346 71211952
" />
<path d="M118368850 69741952
L117846346 69741952
" />
<path d="M147255000 87711252
L147255000 87188748
" />
<path d="M148725000 87711252
L148725000 87188748
" />
<path d="M118368850 73474694
L117846346 73474694
" />
<path d="M118368850 72004694
L117846346 72004694
" />
<path d="M121390000 78610000
L122040000 78610000
" />
<path d="M121390000 71390000
L122040000 71390000
" />
<path d="M121390000 77960000
L121390000 78610000
" />
<path d="M128610000 77960000
L128610000 78610000
" />
<path d="M121390000 72040000
L121390000 71390000
" />
<path d="M128610000 71390000
L127960000 71390000
" />
<path d="M128610000 72040000
L128610000 71390000
" />
<path d="M156095000 54460000
L156095000 55920000
" />
<path d="M156095000 59970000
L156095000 58170000
" />
<path d="M147155000 54460000
L147155000 55920000
" />
<path d="M147155000 59970000
L147155000 58170000
" />
<path d="M156095000 54460000
L147155000 54460000
" />
<path d="M154902064 69160000
L153697936 69160000
" />
<path d="M154902064 67340000
L153697936 67340000
" />
<path d="M154062936 63465000
L154517064 63465000
" />
<path d="M154062936 64935000
L154517064 64935000
" />
<path d="M126135000 68361252
L126135000 67838748
" />
<path d="M124665000 68361252
L124665000 67838748
" />
<path d="M127025003 81668433
L127025003 82190937
" />
<path d="M128495003 81668433
L128495003 82190937
" />
<path d="M122095289 81670830
L122095289 82193334
" />
<path d="M120625289 81670830
L120625289 82193334
" />
<path d="M128235000 68361252
L128235000 67838748
" />
<path d="M126765000 68361252
L126765000 67838748
" />
<path d="M128865000 68361252
L128865000 67838748
" />
<path d="M130335000 68361252
L130335000 67838748
" />
<g >
</g>
<g >
</g>
<g >
</g>
<g >
</g>
<g >
</g>
<g >
</g>
<g >
</g>
<g >
</g>
<g >
</g>
<g >
</g>
<g >
</g>
<g >
</g>
<g >
</g>
<g >
</g>
<g >
</g>
<g >
</g>
<g >
</g>
<g >
</g>
<g >
</g>
<g >
</g>
<g >
</g>
<g >
</g>
<g >
</g>
<g >
</g>
<g >
</g>
<g >
</g>
<g >
</g>
<g >
</g>
<g >
</g>
<g >
</g>
<g >
</g>
<g >
</g>
<g >
</g>
<g >
</g>
<g >
</g>
<g >
</g>
<g >
</g>
<g >
</g>
<g >
</g>
<g >
</g>
<g >
</g>
<g >
</g>
<g >
</g>
<g >
</g>
<g >
</g>
<g >
</g>
<g >
</g>
<g >
</g>
<g >
</g>
<g >
</g>
<g >
</g>
<g >
</g>
<g >
</g>
<g >
</g>
<g >
</g>
<g >
</g>
<g >
</g>
<g >
</g>
</g> 
</svg>
