%TF.GenerationSoftware,KiCad,Pcbnew,(6.0.8)*%
%TF.CreationDate,2022-10-11T12:28:16+11:00*%
%TF.ProjectId,PicoGamePad_V3_0_0_A,5069636f-4761-46d6-9550-61645f56335f,4.0.0 (Rev A)*%
%TF.SameCoordinates,Original*%
%TF.FileFunction,Paste,Bot*%
%TF.FilePolarity,Positive*%
%FSLAX46Y46*%
G04 Gerber Fmt 4.6, Leading zero omitted, Abs format (unit mm)*
G04 Created by KiCad (PCBNEW (6.0.8)) date 2022-10-11 12:28:16*
%MOMM*%
%LPD*%
G01*
G04 APERTURE LIST*
G04 Aperture macros list*
%AMRoundRect*
0 Rectangle with rounded corners*
0 $1 Rounding radius*
0 $2 $3 $4 $5 $6 $7 $8 $9 X,Y pos of 4 corners*
0 Add a 4 corners polygon primitive as box body*
4,1,4,$2,$3,$4,$5,$6,$7,$8,$9,$2,$3,0*
0 Add four circle primitives for the rounded corners*
1,1,$1+$1,$2,$3*
1,1,$1+$1,$4,$5*
1,1,$1+$1,$6,$7*
1,1,$1+$1,$8,$9*
0 Add four rect primitives between the rounded corners*
20,1,$1+$1,$2,$3,$4,$5,0*
20,1,$1+$1,$4,$5,$6,$7,0*
20,1,$1+$1,$6,$7,$8,$9,0*
20,1,$1+$1,$8,$9,$2,$3,0*%
G04 Aperture macros list end*
%ADD10RoundRect,0.200000X0.200000X0.275000X-0.200000X0.275000X-0.200000X-0.275000X0.200000X-0.275000X0*%
%ADD11R,2.000000X1.500000*%
%ADD12R,2.000000X3.800000*%
%ADD13RoundRect,0.250000X0.475000X-0.250000X0.475000X0.250000X-0.475000X0.250000X-0.475000X-0.250000X0*%
%ADD14RoundRect,0.150000X0.150000X-0.650000X0.150000X0.650000X-0.150000X0.650000X-0.150000X-0.650000X0*%
%ADD15RoundRect,0.250000X-0.475000X0.250000X-0.475000X-0.250000X0.475000X-0.250000X0.475000X0.250000X0*%
%ADD16R,1.500000X1.000000*%
%ADD17RoundRect,0.250000X0.250000X0.475000X-0.250000X0.475000X-0.250000X-0.475000X0.250000X-0.475000X0*%
%ADD18R,1.400000X1.200000*%
%ADD19RoundRect,0.250000X-0.250000X-0.475000X0.250000X-0.475000X0.250000X0.475000X-0.250000X0.475000X0*%
%ADD20RoundRect,0.250000X0.450000X-0.262500X0.450000X0.262500X-0.450000X0.262500X-0.450000X-0.262500X0*%
%ADD21RoundRect,0.250000X0.325000X0.650000X-0.325000X0.650000X-0.325000X-0.650000X0.325000X-0.650000X0*%
%ADD22RoundRect,0.250000X0.262500X0.450000X-0.262500X0.450000X-0.262500X-0.450000X0.262500X-0.450000X0*%
%ADD23RoundRect,0.249999X0.395001X-0.395001X0.395001X0.395001X-0.395001X0.395001X-0.395001X-0.395001X0*%
%ADD24RoundRect,0.050000X0.050000X-0.387500X0.050000X0.387500X-0.050000X0.387500X-0.050000X-0.387500X0*%
%ADD25RoundRect,0.050000X0.387500X-0.050000X0.387500X0.050000X-0.387500X0.050000X-0.387500X-0.050000X0*%
%ADD26R,0.600000X1.160000*%
%ADD27R,0.300000X1.160000*%
%ADD28RoundRect,0.250000X0.375000X0.625000X-0.375000X0.625000X-0.375000X-0.625000X0.375000X-0.625000X0*%
%ADD29RoundRect,0.250000X-0.262500X-0.450000X0.262500X-0.450000X0.262500X0.450000X-0.262500X0.450000X0*%
G04 APERTURE END LIST*
D10*
%TO.C,R3*%
X132375000Y-74250000D03*
X130725000Y-74250000D03*
%TD*%
D11*
%TO.C,U1*%
X147900000Y-75750000D03*
D12*
X154200000Y-73450000D03*
D11*
X147900000Y-73450000D03*
X147900000Y-71150000D03*
%TD*%
D10*
%TO.C,R2*%
X132375000Y-72650000D03*
X130725000Y-72650000D03*
%TD*%
D13*
%TO.C,C7*%
X136500000Y-77950000D03*
X136500000Y-76050000D03*
%TD*%
D14*
%TO.C,U3*%
X134065001Y-83632167D03*
X132795001Y-83632167D03*
X131525001Y-83632167D03*
X130255001Y-83632167D03*
X130255001Y-76432167D03*
X131525001Y-76432167D03*
X132795001Y-76432167D03*
X134065001Y-76432167D03*
%TD*%
D15*
%TO.C,C14*%
X123340188Y-80982082D03*
X123340188Y-82882082D03*
%TD*%
%TO.C,C18*%
X125320087Y-80982082D03*
X125320087Y-82882082D03*
%TD*%
D16*
%TO.C,LED1*%
X150375000Y-88425000D03*
X150375000Y-85225000D03*
X155275000Y-85225000D03*
X155275000Y-88425000D03*
%TD*%
D13*
%TO.C,C11*%
X123300000Y-69050000D03*
X123300000Y-67150000D03*
%TD*%
%TO.C,C15*%
X121200000Y-69050000D03*
X121200000Y-67150000D03*
%TD*%
D17*
%TO.C,C6*%
X119050000Y-74840000D03*
X117150000Y-74840000D03*
%TD*%
D18*
%TO.C,Y1*%
X119066177Y-78539441D03*
X116866177Y-78539441D03*
X116866177Y-76839441D03*
X119066177Y-76839441D03*
%TD*%
D17*
%TO.C,C5*%
X119050000Y-80600000D03*
X117150000Y-80600000D03*
%TD*%
D19*
%TO.C,C9*%
X130810003Y-70932167D03*
X132710003Y-70932167D03*
%TD*%
D20*
%TO.C,R6*%
X136500000Y-81912500D03*
X136500000Y-80087500D03*
%TD*%
D21*
%TO.C,C3*%
X145575000Y-73550000D03*
X142625000Y-73550000D03*
%TD*%
%TO.C,C2*%
X145575000Y-71250000D03*
X142625000Y-71250000D03*
%TD*%
D22*
%TO.C,R5*%
X149837500Y-64200000D03*
X148012500Y-64200000D03*
%TD*%
D17*
%TO.C,C17*%
X119057598Y-70476952D03*
X117157598Y-70476952D03*
%TD*%
D13*
%TO.C,C1*%
X147990000Y-88400000D03*
X147990000Y-86500000D03*
%TD*%
D17*
%TO.C,C10*%
X119057598Y-72739694D03*
X117157598Y-72739694D03*
%TD*%
D23*
%TO.C,U4*%
X125800000Y-75800000D03*
X124200000Y-74200000D03*
X124200000Y-75800000D03*
X125800000Y-74200000D03*
D24*
X127600000Y-78437500D03*
X127200000Y-78437500D03*
X126800000Y-78437500D03*
X126400000Y-78437500D03*
X126000000Y-78437500D03*
X125600000Y-78437500D03*
X125200000Y-78437500D03*
X124800000Y-78437500D03*
X124400000Y-78437500D03*
X124000000Y-78437500D03*
X123600000Y-78437500D03*
X123200000Y-78437500D03*
X122800000Y-78437500D03*
X122400000Y-78437500D03*
D25*
X121562500Y-77600000D03*
X121562500Y-77200000D03*
X121562500Y-76800000D03*
X121562500Y-76400000D03*
X121562500Y-76000000D03*
X121562500Y-75600000D03*
X121562500Y-75200000D03*
X121562500Y-74800000D03*
X121562500Y-74400000D03*
X121562500Y-74000000D03*
X121562500Y-73600000D03*
X121562500Y-73200000D03*
X121562500Y-72800000D03*
X121562500Y-72400000D03*
D24*
X122400000Y-71562500D03*
X122800000Y-71562500D03*
X123200000Y-71562500D03*
X123600000Y-71562500D03*
X124000000Y-71562500D03*
X124400000Y-71562500D03*
X124800000Y-71562500D03*
X125200000Y-71562500D03*
X125600000Y-71562500D03*
X126000000Y-71562500D03*
X126400000Y-71562500D03*
X126800000Y-71562500D03*
X127200000Y-71562500D03*
X127600000Y-71562500D03*
D25*
X128437500Y-72400000D03*
X128437500Y-72800000D03*
X128437500Y-73200000D03*
X128437500Y-73600000D03*
X128437500Y-74000000D03*
X128437500Y-74400000D03*
X128437500Y-74800000D03*
X128437500Y-75200000D03*
X128437500Y-75600000D03*
X128437500Y-76000000D03*
X128437500Y-76400000D03*
X128437500Y-76800000D03*
X128437500Y-77200000D03*
X128437500Y-77600000D03*
%TD*%
D26*
%TO.C,J1*%
X148425000Y-61810000D03*
X149225000Y-61810000D03*
D27*
X150375000Y-61810000D03*
X151375000Y-61810000D03*
X151875000Y-61810000D03*
X152875000Y-61810000D03*
D26*
X154025000Y-61810000D03*
X154825000Y-61810000D03*
X154825000Y-61810000D03*
X154025000Y-61810000D03*
D27*
X153375000Y-61810000D03*
X152375000Y-61810000D03*
X150875000Y-61810000D03*
X149875000Y-61810000D03*
D26*
X149225000Y-61810000D03*
X148425000Y-61810000D03*
%TD*%
D28*
%TO.C,F1*%
X155700000Y-68250000D03*
X152900000Y-68250000D03*
%TD*%
D29*
%TO.C,R1*%
X153377500Y-64200000D03*
X155202500Y-64200000D03*
%TD*%
D13*
%TO.C,C12*%
X125400000Y-69050000D03*
X125400000Y-67150000D03*
%TD*%
D15*
%TO.C,C13*%
X127760003Y-80979685D03*
X127760003Y-82879685D03*
%TD*%
%TO.C,C16*%
X121360289Y-80982082D03*
X121360289Y-82882082D03*
%TD*%
D13*
%TO.C,C4*%
X127500000Y-69050000D03*
X127500000Y-67150000D03*
%TD*%
%TO.C,C8*%
X129600000Y-69050000D03*
X129600000Y-67150000D03*
%TD*%
M02*
