<?xml version="1.0" standalone="no"?>
 <!DOCTYPE svg PUBLIC "-//W3C//DTD SVG 1.1//EN" 
 "http://www.w3.org/Graphics/SVG/1.1/DTD/svg11.dtd"> 
<svg
  xmlns:svg="http://www.w3.org/2000/svg"
  xmlns="http://www.w3.org/2000/svg"
  xmlns:xlink="http://www.w3.org/1999/xlink"
  version="1.1"
  width="25.001220cm" height="15.001240cm" viewBox="0 0 250012200 150012400">
<title>SVG Picture created as PicoGamePad_V3_0_0_A-F_Courtyard.svg date 2022/10/11 12:27:57 </title>
  <desc>Picture generated by PCBNEW </desc>
<g style="fill:#000000; fill-opacity:1.000000;stroke:#000000; stroke-opacity:1.000000;
stroke-linecap:round; stroke-linejoin:round;"
 transform="translate(0 0) scale(1 1)">
</g>
<g style="fill:#000000; fill-opacity:0.0; 
stroke:#000000; stroke-width:0.000000; stroke-opacity:1; 
stroke-linecap:round; stroke-linejoin:round;">
</g>
<g style="fill:#000000; fill-opacity:0.0; 
stroke:#000000; stroke-width:120000.000000; stroke-opacity:1; 
stroke-linecap:round; stroke-linejoin:round;">
<path d="M149700000 77350000
L156300000 77350000
" />
<path d="M156300000 77350000
L156300000 81850000
" />
<path d="M156300000 81850000
L149700000 81850000
" />
<path d="M149700000 81850000
L149700000 77350000
" />
<path d="M105150000 69500000
L100650000 69500000
" />
<path d="M100650000 69500000
L100650000 76100000
" />
<path d="M100650000 76100000
L105150000 76100000
" />
<path d="M105150000 76100000
L105150000 69500000
" />
</g>
<g style="fill:#000000; fill-opacity:0.0; 
stroke:#000000; stroke-width:50000.000000; stroke-opacity:1; 
stroke-linecap:round; stroke-linejoin:round;">
<circle cx="141400000.000000" cy="65500000.000000" r="1250000.000000" /> 
</g>
<g style="fill:#000000; fill-opacity:0.0; 
stroke:#000000; stroke-width:120000.000000; stroke-opacity:1; 
stroke-linecap:round; stroke-linejoin:round;">
<path d="M105150000 83100000
L100650000 83100000
" />
<path d="M100650000 83100000
L100650000 89700000
" />
<path d="M100650000 89700000
L105150000 89700000
" />
<path d="M105150000 89700000
L105150000 83100000
" />
</g>
<g style="fill:#000000; fill-opacity:0.0; 
stroke:#000000; stroke-width:50000.000000; stroke-opacity:1; 
stroke-linecap:round; stroke-linejoin:round;">
<circle cx="139500000.000000" cy="89500000.000000" r="1250000.000000" /> 
</g>
<g style="fill:#000000; fill-opacity:0.0; 
stroke:#000000; stroke-width:120000.000000; stroke-opacity:1; 
stroke-linecap:round; stroke-linejoin:round;">
<path d="M128660000 85550000
L135260000 85550000
" />
<path d="M135260000 85550000
L135260000 90050000
" />
<path d="M135260000 90050000
L128660000 90050000
" />
<path d="M128660000 90050000
L128660000 85550000
" />
<path d="M116500000 85550000
L123100000 85550000
" />
<path d="M123100000 85550000
L123100000 90050000
" />
<path d="M123100000 90050000
L116500000 90050000
" />
<path d="M116500000 90050000
L116500000 85550000
" />
<path d="M99100000 81850000
L92500000 81850000
" />
<path d="M92500000 81850000
L92500000 77350000
" />
<path d="M92500000 77350000
L99100000 77350000
" />
<path d="M99100000 77350000
L99100000 81850000
" />
<path d="M112500000 81850000
L105900000 81850000
" />
<path d="M105900000 81850000
L105900000 77350000
" />
<path d="M105900000 77350000
L112500000 77350000
" />
<path d="M112500000 77350000
L112500000 81850000
" />
<path d="M138650000 77350000
L145250000 77350000
" />
<path d="M145250000 77350000
L145250000 81850000
" />
<path d="M145250000 81850000
L138650000 81850000
" />
<path d="M138650000 81850000
L138650000 77350000
" />
</g>
<g style="fill:#000000; fill-opacity:0.0; 
stroke:#000000; stroke-width:50000.000000; stroke-opacity:1; 
stroke-linecap:round; stroke-linejoin:round;">
<circle cx="103800000.000000" cy="80250000.000000" r="1250000.000000" /> 
<path d="M144700000 55925000
L92850000 55925000
" />
<path d="M92850000 62075000
L144700000 62075000
" />
<path d="M92850000 55925000
L92850000 62075000
" />
<path d="M144700000 62075000
L144700000 55925000
" />
<g >
</g>
<g >
</g>
<g >
</g>
<g >
</g>
<g >
</g>
<g >
</g>
<g >
</g>
<g >
</g>
<g >
</g>
<g >
</g>
<g >
</g>
<g >
</g>
<g >
</g>
<g >
</g>
<g >
</g>
<g >
</g>
<g >
</g>
<g >
</g>
<g >
</g>
<g >
</g>
<g >
</g>
<g >
</g>
<g >
</g>
<g >
</g>
<g >
</g>
<g >
</g>
<g >
</g>
<g >
</g>
<g >
</g>
<g >
</g>
<g >
</g>
<g >
</g>
<g >
</g>
<g >
</g>
<g >
</g>
<g >
</g>
<g >
</g>
<g >
</g>
<g >
</g>
<g >
</g>
<g >
</g>
<g >
</g>
<g >
</g>
<g >
</g>
<g >
</g>
<g >
</g>
<g >
</g>
<g >
</g>
<g >
</g>
<g >
</g>
<g >
</g>
<g >
</g>
<g >
</g>
<g >
</g>
<g >
</g>
<g >
</g>
<g >
</g>
<g >
</g>
</g> 
</svg>
