<?xml version="1.0" encoding="UTF-8" standalone="no"?>
<svg
   version="1.1"
   width="6.8954887cm"
   height="3.7561121cm"
   viewBox="0 0 68954885 37561122"
   id="svg2775"
   sodipodi:docname="PicoGamePad_V3_0_0_A-BOTTOM_SOLDERPASTE.svg"
   inkscape:version="1.2.1 (9c6d41e410, 2022-07-14, custom)"
   xmlns:inkscape="http://www.inkscape.org/namespaces/inkscape"
   xmlns:sodipodi="http://sodipodi.sourceforge.net/DTD/sodipodi-0.dtd"
   xmlns="http://www.w3.org/2000/svg"
   xmlns:svg="http://www.w3.org/2000/svg">
  <defs
     id="defs2779">
    <inkscape:path-effect
       effect="simplify"
       id="path-effect4022"
       is_visible="true"
       lpeversion="1"
       steps="8"
       threshold="1"
       smooth_angles="45"
       helper_size="30"
       simplify_individual_paths="true"
       simplify_just_coalesce="true" />
    <inkscape:path-effect
       effect="simplify"
       id="path-effect3807"
       is_visible="true"
       lpeversion="1"
       steps="0"
       threshold="0.002"
       smooth_angles="0"
       helper_size="5"
       simplify_individual_paths="false"
       simplify_just_coalesce="false" />
    <inkscape:path-effect
       effect="bspline"
       id="path-effect3805"
       is_visible="true"
       lpeversion="1"
       weight="25"
       steps="10"
       helper_size="4"
       apply_no_weight="true"
       apply_with_weight="true"
       only_selected="false" />
    <inkscape:path-effect
       effect="bend_path"
       id="path-effect3803"
       is_visible="true"
       lpeversion="1"
       bendpath="m 120475000,67150000 h 1450000"
       prop_scale="0.97"
       scale_y_rel="false"
       vertical="false"
       hide_knot="false" />
    <inkscape:path-effect
       effect="simplify"
       id="path-effect3801"
       is_visible="true"
       lpeversion="1"
       steps="1"
       threshold="0.0001"
       smooth_angles="20"
       helper_size="50"
       simplify_individual_paths="false"
       simplify_just_coalesce="false" />
    <inkscape:path-effect
       effect="simplify"
       id="path-effect3799"
       is_visible="true"
       lpeversion="1"
       steps="1"
       threshold="5"
       smooth_angles="0"
       helper_size="0"
       simplify_individual_paths="true"
       simplify_just_coalesce="true" />
  </defs>
  <sodipodi:namedview
     id="namedview2777"
     pagecolor="#505050"
     bordercolor="#eeeeee"
     borderopacity="1"
     inkscape:showpageshadow="0"
     inkscape:pageopacity="0"
     inkscape:pagecheckerboard="0"
     inkscape:deskcolor="#505050"
     inkscape:document-units="cm"
     showgrid="false"
     inkscape:zoom="3.9559748"
     inkscape:cx="167.21543"
     inkscape:cy="81.016695"
     inkscape:window-width="1914"
     inkscape:window-height="1038"
     inkscape:window-x="0"
     inkscape:window-y="18"
     inkscape:window-maximized="1"
     inkscape:current-layer="svg2775" />
  <title
     id="title2299">SVG Picture created as PicoGamePad_V3_0_0_A-BOTTOM_SOLDERPASTE.svg date 2022/10/11 12:27:57 </title>
  <desc
     id="desc2301">Picture generated by PCBNEW </desc>
  <g
     style="fill:#000000;fill-opacity:1;stroke:#000000;stroke-linecap:round;stroke-linejoin:round;stroke-opacity:1"
     id="g2303"
     transform="translate(32.069354,22.376817)" />
  <g
     id="g2305"
     style="fill:#000000;fill-opacity:0;stroke:#000000;stroke-width:0;stroke-linecap:round;stroke-linejoin:round;stroke-opacity:1"
     transform="translate(32.069354,22.376817)" />
  <g
     id="g2307"
     style="fill:#000000;fill-opacity:0;stroke:#000000;stroke-width:0;stroke-linecap:round;stroke-linejoin:round;stroke-opacity:1"
     transform="translate(32.069354,22.376817)" />
  <g
     id="g2309"
     style="fill:#000000;fill-opacity:0;stroke:#000000;stroke-width:0;stroke-linecap:round;stroke-linejoin:round;stroke-opacity:1"
     transform="translate(32.069354,22.376817)" />
  <g
     id="g2311"
     style="fill:#000000;fill-opacity:0;stroke:#000000;stroke-width:0;stroke-linecap:round;stroke-linejoin:round;stroke-opacity:1"
     transform="translate(32.069354,22.376817)" />
  <g
     id="g2313"
     style="fill:#000000;fill-opacity:0;stroke:#000000;stroke-width:0;stroke-linecap:round;stroke-linejoin:round;stroke-opacity:1"
     transform="translate(32.069354,22.376817)" />
  <g
     id="g2315"
     style="fill:#000000;fill-opacity:0;stroke:#000000;stroke-width:0;stroke-linecap:round;stroke-linejoin:round;stroke-opacity:1"
     transform="translate(32.069354,22.376817)" />
  <g
     id="g2317"
     style="fill:#000000;fill-opacity:0;stroke:#000000;stroke-width:0;stroke-linecap:round;stroke-linejoin:round;stroke-opacity:1"
     transform="translate(32.069354,22.376817)" />
  <g
     id="g2319"
     style="fill:#000000;fill-opacity:0;stroke:#000000;stroke-width:0;stroke-linecap:round;stroke-linejoin:round;stroke-opacity:1"
     transform="translate(32.069354,22.376817)" />
  <g
     id="g2321"
     style="fill:#000000;fill-opacity:0;stroke:#000000;stroke-width:0;stroke-linecap:round;stroke-linejoin:round;stroke-opacity:1"
     transform="translate(32.069354,22.376817)" />
  <g
     id="g2323"
     style="fill:#000000;fill-opacity:0;stroke:#000000;stroke-width:0;stroke-linecap:round;stroke-linejoin:round;stroke-opacity:1"
     transform="translate(32.069354,22.376817)" />
  <g
     id="g2325"
     style="fill:#000000;fill-opacity:0;stroke:#000000;stroke-width:0;stroke-linecap:round;stroke-linejoin:round;stroke-opacity:1"
     transform="translate(32.069354,22.376817)" />
  <g
     id="g2327"
     style="fill:#000000;fill-opacity:0;stroke:#000000;stroke-width:0;stroke-linecap:round;stroke-linejoin:round;stroke-opacity:1"
     transform="translate(32.069354,22.376817)" />
  <g
     id="g2329"
     style="fill:#000000;fill-opacity:0;stroke:#000000;stroke-width:0;stroke-linecap:round;stroke-linejoin:round;stroke-opacity:1"
     transform="translate(32.069354,22.376817)" />
  <g
     id="g2331"
     style="fill:#000000;fill-opacity:0;stroke:#000000;stroke-width:0;stroke-linecap:round;stroke-linejoin:round;stroke-opacity:1"
     transform="translate(32.069354,22.376817)" />
  <g
     id="g2333"
     style="fill:#000000;fill-opacity:0;stroke:#000000;stroke-width:0;stroke-linecap:round;stroke-linejoin:round;stroke-opacity:1"
     transform="translate(32.069354,22.376817)" />
  <g
     id="g2335"
     style="fill:#000000;fill-opacity:0;stroke:#000000;stroke-width:0;stroke-linecap:round;stroke-linejoin:round;stroke-opacity:1"
     transform="translate(32.069354,22.376817)" />
  <g
     id="g2337"
     style="fill:#000000;fill-opacity:0;stroke:#000000;stroke-width:0;stroke-linecap:round;stroke-linejoin:round;stroke-opacity:1"
     transform="translate(32.069354,22.376817)" />
  <g
     id="g2339"
     style="fill:#000000;fill-opacity:0;stroke:#000000;stroke-width:0;stroke-linecap:round;stroke-linejoin:round;stroke-opacity:1"
     transform="translate(32.069354,22.376817)" />
  <g
     id="g2341"
     style="fill:#000000;fill-opacity:0;stroke:#000000;stroke-width:0;stroke-linecap:round;stroke-linejoin:round;stroke-opacity:1"
     transform="translate(32.069354,22.376817)" />
  <g
     id="g2343"
     style="fill:#000000;fill-opacity:0;stroke:#000000;stroke-width:0;stroke-linecap:round;stroke-linejoin:round;stroke-opacity:1"
     transform="translate(32.069354,22.376817)" />
  <g
     id="g2345"
     style="fill:#000000;fill-opacity:0;stroke:#000000;stroke-width:0;stroke-linecap:round;stroke-linejoin:round;stroke-opacity:1"
     transform="translate(32.069354,22.376817)" />
  <g
     id="g2347"
     style="fill:#000000;fill-opacity:0;stroke:#000000;stroke-width:0;stroke-linecap:round;stroke-linejoin:round;stroke-opacity:1"
     transform="translate(32.069354,22.376817)" />
  <g
     id="g2349"
     style="fill:#000000;fill-opacity:0;stroke:#000000;stroke-width:0;stroke-linecap:round;stroke-linejoin:round;stroke-opacity:1"
     transform="translate(32.069354,22.376817)" />
  <g
     id="g2351"
     style="fill:#000000;fill-opacity:0;stroke:#000000;stroke-width:0;stroke-linecap:round;stroke-linejoin:round;stroke-opacity:1"
     transform="translate(32.069354,22.376817)" />
  <g
     id="g2353"
     style="fill:#000000;fill-opacity:0;stroke:#000000;stroke-width:0;stroke-linecap:round;stroke-linejoin:round;stroke-opacity:1"
     transform="translate(32.069354,22.376817)" />
  <g
     id="g2355"
     style="fill:#000000;fill-opacity:0;stroke:#000000;stroke-width:0;stroke-linecap:round;stroke-linejoin:round;stroke-opacity:1"
     transform="translate(32.069354,22.376817)" />
  <g
     style="fill:#000000;fill-opacity:0;stroke:#000000;stroke-width:0;stroke-linecap:round;stroke-linejoin:round;stroke-opacity:1"
     id="g2357"
     transform="translate(32.069354,22.376817)" />
  <g
     style="fill:#000000;fill-opacity:0;stroke:#000000;stroke-width:1;stroke-linecap:round;stroke-linejoin:round;stroke-opacity:1"
     id="g2359"
     transform="translate(32.069354,22.376817)" />
  <path
     style="fill:none;fill-opacity:1;fill-rule:evenodd;stroke:#000000;stroke-width:1;stroke-linecap:round;stroke-linejoin:round;stroke-opacity:1"
     d="m 42781139,19563533 -15220,76537 -43360,64884 -64880,43355 -76540,15224 h -400000 l -76540,-15224 -64880,-43355 -43360,-64884 -15220,-76537 v -550000 l 15220,-76537 43360,-64884 64880,-43355 76540,-15224 h 400000 l 76540,15224 64880,43355 43360,64884 15220,76537 z"
     id="path2361" />
  <path
     style="fill:none;fill-opacity:1;fill-rule:evenodd;stroke:#000000;stroke-width:1;stroke-linecap:round;stroke-linejoin:round;stroke-opacity:1"
     d="m 41131139,19563533 -15220,76537 -43360,64884 -64880,43355 -76540,15224 h -400000 l -76540,-15224 -64880,-43355 -43360,-64884 -15220,-76537 v -550000 l 15220,-76537 43360,-64884 64880,-43355 76540,-15224 h 400000 l 76540,15224 64880,43355 43360,64884 15220,76537 z"
     id="path2363" />
  <g
     id="g2367"
     style="fill:#000000;fill-opacity:0;stroke:#000000;stroke-width:0;stroke-linecap:round;stroke-linejoin:round;stroke-opacity:1"
     transform="translate(32.069354,22.376817)" />
  <path
     style="fill:none;fill-opacity:1;fill-rule:evenodd;stroke:#000000;stroke-width:1;stroke-linecap:round;stroke-linejoin:round;stroke-opacity:1"
     d="m 56906139,21538533 v -1500000 h 2000000 v 1500000 z"
     id="path2369" />
  <path
     style="fill:none;fill-opacity:1;fill-rule:evenodd;stroke:#000000;stroke-width:1;stroke-linecap:round;stroke-linejoin:round;stroke-opacity:1"
     d="m 63206139,20388533 v -3800000 h 2000000 v 3800000 z"
     id="path2371" />
  <path
     style="fill:none;fill-opacity:1;fill-rule:evenodd;stroke:#000000;stroke-width:1;stroke-linecap:round;stroke-linejoin:round;stroke-opacity:1"
     d="m 56906139,19238533 v -1500000 h 2000000 v 1500000 z"
     id="path2373" />
  <path
     style="fill:none;fill-opacity:1;fill-rule:evenodd;stroke:#000000;stroke-width:1;stroke-linecap:round;stroke-linejoin:round;stroke-opacity:1"
     d="m 56906139,16938533 v -1500000 h 2000000 v 1500000 z"
     id="path2375" />
  <g
     id="g2379"
     style="fill:#000000;fill-opacity:0;stroke:#000000;stroke-width:0;stroke-linecap:round;stroke-linejoin:round;stroke-opacity:1"
     transform="translate(32.069354,22.376817)" />
  <path
     style="fill:none;fill-opacity:1;fill-rule:evenodd;stroke:#000000;stroke-width:1;stroke-linecap:round;stroke-linejoin:round;stroke-opacity:1"
     d="m 42781139,17963533 -15220,76537 -43360,64884 -64880,43355 -76540,15224 h -400000 l -76540,-15224 -64880,-43355 -43360,-64884 -15220,-76537 v -550000 l 15220,-76537 43360,-64884 64880,-43355 76540,-15224 h 400000 l 76540,15224 64880,43355 43360,64884 15220,76537 z"
     id="path2381" />
  <path
     style="fill:none;fill-opacity:1;fill-rule:evenodd;stroke:#000000;stroke-width:1;stroke-linecap:round;stroke-linejoin:round;stroke-opacity:1"
     d="m 41131139,17963533 -15220,76537 -43360,64884 -64880,43355 -76540,15224 h -400000 l -76540,-15224 -64880,-43355 -43360,-64884 -15220,-76537 v -550000 l 15220,-76537 43360,-64884 64880,-43355 76540,-15224 h 400000 l 76540,15224 64880,43355 43360,64884 15220,76537 z"
     id="path2383" />
  <g
     id="g2387"
     style="fill:#000000;fill-opacity:0;stroke:#000000;stroke-width:0;stroke-linecap:round;stroke-linejoin:round;stroke-opacity:1"
     transform="translate(32.069354,22.376817)" />
  <path
     style="fill:none;fill-opacity:1;fill-rule:evenodd;stroke:#000000;stroke-width:1;stroke-linecap:round;stroke-linejoin:round;stroke-opacity:1"
     d="m 46031139,23488533 -95670,-19030 -81110,-54193 -54190,-81106 -19030,-95671 v -500000 l 19030,-95671 54190,-81106 81110,-54193 95670,-19030 h 950000 l 95670,19030 81110,54193 54190,81106 19030,95671 v 500000 l -19030,95671 -54190,81106 -81110,54193 -95670,19030 z"
     id="path2389" />
  <path
     style="fill:none;fill-opacity:1;fill-rule:evenodd;stroke:#000000;stroke-width:1;stroke-linecap:round;stroke-linejoin:round;stroke-opacity:1"
     d="m 46031139,21588533 -95670,-19030 -81110,-54193 -54190,-81106 -19030,-95671 v -500000 l 19030,-95671 54190,-81106 81110,-54193 95670,-19030 h 950000 l 95670,19030 81110,54193 54190,81106 19030,95671 v 500000 l -19030,95671 -54190,81106 -81110,54193 -95670,19030 z"
     id="path2391" />
  <g
     id="g2395"
     style="fill:#000000;fill-opacity:0;stroke:#000000;stroke-width:0;stroke-linecap:round;stroke-linejoin:round;stroke-opacity:1"
     transform="translate(32.069354,22.376817)" />
  <path
     style="fill:none;fill-opacity:1;fill-rule:evenodd;stroke:#000000;stroke-width:1;stroke-linecap:round;stroke-linejoin:round;stroke-opacity:1"
     d="m 43921139,29470700 -57400,-11418 -48660,-32516 -32520,-48663 -11420,-57403 v -1300000 l 11420,-57403 32520,-48663 48660,-32516 57400,-11418 h 300000 l 57400,11418 48670,32516 32510,48663 11420,57403 v 1300000 l -11420,57403 -32510,48663 -48670,32516 -57400,11418 z"
     id="path2397" />
  <path
     style="fill:none;fill-opacity:1;fill-rule:evenodd;stroke:#000000;stroke-width:1;stroke-linecap:round;stroke-linejoin:round;stroke-opacity:1"
     d="m 42651139,29470700 -57400,-11418 -48660,-32516 -32520,-48663 -11420,-57403 v -1300000 l 11420,-57403 32520,-48663 48660,-32516 57400,-11418 h 300000 l 57400,11418 48670,32516 32510,48663 11420,57403 v 1300000 l -11420,57403 -32510,48663 -48670,32516 -57400,11418 z"
     id="path2399" />
  <path
     style="fill:none;fill-opacity:1;fill-rule:evenodd;stroke:#000000;stroke-width:1;stroke-linecap:round;stroke-linejoin:round;stroke-opacity:1"
     d="m 41381139,29470700 -57400,-11418 -48660,-32516 -32520,-48663 -11420,-57403 v -1300000 l 11420,-57403 32520,-48663 48660,-32516 57400,-11418 h 300000 l 57400,11418 48670,32516 32510,48663 11420,57403 v 1300000 l -11420,57403 -32510,48663 -48670,32516 -57400,11418 z"
     id="path2401" />
  <path
     style="fill:none;fill-opacity:1;fill-rule:evenodd;stroke:#000000;stroke-width:1;stroke-linecap:round;stroke-linejoin:round;stroke-opacity:1"
     d="m 40111139,29470700 -57400,-11418 -48660,-32516 -32520,-48663 -11420,-57403 v -1300000 l 11420,-57403 32520,-48663 48660,-32516 57400,-11418 h 300000 l 57400,11418 48670,32516 32510,48663 11420,57403 v 1300000 l -11420,57403 -32510,48663 -48670,32516 -57400,11418 z"
     id="path2403" />
  <path
     style="fill:none;fill-opacity:1;fill-rule:evenodd;stroke:#000000;stroke-width:1;stroke-linecap:round;stroke-linejoin:round;stroke-opacity:1"
     d="m 40111139,22270700 -57400,-11418 -48660,-32516 -32520,-48663 -11420,-57403 v -1300000 l 11420,-57403 32520,-48663 48660,-32516 57400,-11418 h 300000 l 57400,11418 48670,32516 32510,48663 11420,57403 v 1300000 l -11420,57403 -32510,48663 -48670,32516 -57400,11418 z"
     id="path2405" />
  <path
     style="fill:none;fill-opacity:1;fill-rule:evenodd;stroke:#000000;stroke-width:1;stroke-linecap:round;stroke-linejoin:round;stroke-opacity:1"
     d="m 41381139,22270700 -57400,-11418 -48660,-32516 -32520,-48663 -11420,-57403 v -1300000 l 11420,-57403 32520,-48663 48660,-32516 57400,-11418 h 300000 l 57400,11418 48670,32516 32510,48663 11420,57403 v 1300000 l -11420,57403 -32510,48663 -48670,32516 -57400,11418 z"
     id="path2407" />
  <path
     style="fill:none;fill-opacity:1;fill-rule:evenodd;stroke:#000000;stroke-width:1;stroke-linecap:round;stroke-linejoin:round;stroke-opacity:1"
     d="m 42651139,22270700 -57400,-11418 -48660,-32516 -32520,-48663 -11420,-57403 v -1300000 l 11420,-57403 32520,-48663 48660,-32516 57400,-11418 h 300000 l 57400,11418 48670,32516 32510,48663 11420,57403 v 1300000 l -11420,57403 -32510,48663 -48670,32516 -57400,11418 z"
     id="path2409" />
  <path
     style="fill:none;fill-opacity:1;fill-rule:evenodd;stroke:#000000;stroke-width:1;stroke-linecap:round;stroke-linejoin:round;stroke-opacity:1"
     d="m 43921139,22270700 -57400,-11418 -48660,-32516 -32520,-48663 -11420,-57403 v -1300000 l 11420,-57403 32520,-48663 48660,-32516 57400,-11418 h 300000 l 57400,11418 48670,32516 32510,48663 11420,57403 v 1300000 l -11420,57403 -32510,48663 -48670,32516 -57400,11418 z"
     id="path2411" />
  <g
     id="g2415"
     style="fill:#000000;fill-opacity:0;stroke:#000000;stroke-width:0;stroke-linecap:round;stroke-linejoin:round;stroke-opacity:1"
     transform="translate(32.069354,22.376817)" />
  <path
     style="fill:none;fill-opacity:1;fill-rule:evenodd;stroke:#000000;stroke-width:1;stroke-linecap:round;stroke-linejoin:round;stroke-opacity:1"
     d="m 33821329,25520615 95670,19030 81110,54193 54190,81106 19030,95671 v 500000 l -19030,95671 -54190,81106 -81110,54193 -95670,19030 h -950000 l -95670,-19030 -81110,-54193 -54190,-81106 -19030,-95671 v -500000 l 19030,-95671 54190,-81106 81110,-54193 95670,-19030 z"
     id="path2417" />
  <path
     style="fill:none;fill-opacity:1;fill-rule:evenodd;stroke:#000000;stroke-width:1;stroke-linecap:round;stroke-linejoin:round;stroke-opacity:1"
     d="m 33821329,27420615 95670,19030 81110,54193 54190,81106 19030,95671 v 500000 l -19030,95671 -54190,81106 -81110,54193 -95670,19030 h -950000 l -95670,-19030 -81110,-54193 -54190,-81106 -19030,-95671 v -500000 l 19030,-95671 54190,-81106 81110,-54193 95670,-19030 z"
     id="path2419" />
  <g
     id="g2423"
     style="fill:#000000;fill-opacity:0;stroke:#000000;stroke-width:0;stroke-linecap:round;stroke-linejoin:round;stroke-opacity:1"
     transform="translate(32.069354,22.376817)" />
  <path
     style="fill:none;fill-opacity:1;fill-rule:evenodd;stroke:#000000;stroke-width:1;stroke-linecap:round;stroke-linejoin:round;stroke-opacity:1"
     d="m 35801229,25520615 95670,19030 81100,54193 54200,81106 19030,95671 v 500000 l -19030,95671 -54200,81106 -81100,54193 -95670,19030 h -950000 l -95670,-19030 -81110,-54193 -54190,-81106 -19030,-95671 v -500000 l 19030,-95671 54190,-81106 81110,-54193 95670,-19030 z"
     id="path2425" />
  <path
     style="fill:none;fill-opacity:1;fill-rule:evenodd;stroke:#000000;stroke-width:1;stroke-linecap:round;stroke-linejoin:round;stroke-opacity:1"
     d="m 35801229,27420615 95670,19030 81100,54193 54200,81106 19030,95671 v 500000 l -19030,95671 -54200,81106 -81100,54193 -95670,19030 h -950000 l -95670,-19030 -81110,-54193 -54190,-81106 -19030,-95671 v -500000 l 19030,-95671 54190,-81106 81110,-54193 95670,-19030 z"
     id="path2427" />
  <g
     id="g2431"
     style="fill:#000000;fill-opacity:0;stroke:#000000;stroke-width:0;stroke-linecap:round;stroke-linejoin:round;stroke-opacity:1"
     transform="translate(32.069354,22.376817)" />
  <path
     style="fill:none;fill-opacity:1;fill-rule:evenodd;stroke:#000000;stroke-width:1;stroke-linecap:round;stroke-linejoin:round;stroke-opacity:1"
     d="m 59631139,33963533 v -1000000 h 1500000 v 1000000 z"
     id="path2433" />
  <path
     style="fill:none;fill-opacity:1;fill-rule:evenodd;stroke:#000000;stroke-width:1;stroke-linecap:round;stroke-linejoin:round;stroke-opacity:1"
     d="m 59631139,30763533 v -1000000 h 1500000 v 1000000 z"
     id="path2435" />
  <path
     style="fill:none;fill-opacity:1;fill-rule:evenodd;stroke:#000000;stroke-width:1;stroke-linecap:round;stroke-linejoin:round;stroke-opacity:1"
     d="m 64531139,30763533 v -1000000 h 1500000 v 1000000 z"
     id="path2437" />
  <path
     style="fill:none;fill-opacity:1;fill-rule:evenodd;stroke:#000000;stroke-width:1;stroke-linecap:round;stroke-linejoin:round;stroke-opacity:1"
     d="m 64531139,33963533 v -1000000 h 1500000 v 1000000 z"
     id="path2439" />
  <g
     id="g2443"
     style="fill:#000000;fill-opacity:0;stroke:#000000;stroke-width:0;stroke-linecap:round;stroke-linejoin:round;stroke-opacity:1"
     transform="translate(32.069354,22.376817)" />
  <path
     style="fill:none;fill-opacity:1;fill-rule:evenodd;stroke:#000000;stroke-width:1;stroke-linecap:round;stroke-linejoin:round;stroke-opacity:1"
     d="m 32831139,14588533 -95670,-19030 -81110,-54193 -54190,-81106 -19030,-95671 v -500000 l 19030,-95671 54190,-81106 81110,-54193 95670,-19030 h 950000 l 95670,19030 81110,54193 54190,81106 19030,95671 v 500000 l -19030,95671 -54190,81106 -81110,54193 -95670,19030 z"
     id="path2445" />
  <path
     style="fill:none;fill-opacity:1;fill-rule:evenodd;stroke:#000000;stroke-width:1;stroke-linecap:round;stroke-linejoin:round;stroke-opacity:1"
     d="m 32831139,12688533 -95670,-19030 -81110,-54193 -54190,-81106 -19030,-95671 v -500000 l 19030,-95671 54190,-81106 81110,-54193 95670,-19030 h 950000 l 95670,19030 81110,54193 54190,81106 19030,95671 v 500000 l -19030,95671 -54190,81106 -81110,54193 -95670,19030 z"
     id="path2447" />
  <g
     id="g2451"
     style="fill:#000000;fill-opacity:0;stroke:#000000;stroke-width:0;stroke-linecap:round;stroke-linejoin:round;stroke-opacity:1"
     transform="translate(32.069354,22.376817)" />
  <path
     style="fill:none;fill-opacity:1;fill-rule:evenodd;stroke:#000000;stroke-width:1;stroke-linecap:round;stroke-linejoin:round;stroke-opacity:1"
     d="m 30731139,14588533 -95671,-19030 -81106,-54193 -54193,-81106 -19030,-95671 v -500000 l 19030,-95671 54193,-81106 81106,-54193 95671,-19030 h 950000 l 95671,19030 81106,54193 54193,81106 19030,95671 v 500000 l -19030,95671 -54193,81106 -81106,54193 -95671,19030 z"
     id="path2453" />
  <path
     style="fill:none;fill-opacity:1;fill-rule:evenodd;stroke:#000000;stroke-width:1;stroke-linecap:round;stroke-linejoin:round;stroke-opacity:1"
     d="m 30731139,12688533 c -23920,-4757 -71750,-14272 -95670,-19030 -20280,-13548 -60830,-40645 -81110,-54193 -13550,-20276 -40640,-60829 -54190,-81106 -4760,-23918 -14270,-71753 -19030,-95671 0,-125000 0,-375000 0,-500000 4760,-23918 14270,-71753 19030,-95671 13550,-20276 40640,-60829 54190,-81106 20280,-13548 60830,-40645 81110,-54193 23920,-4757 71750,-14272 95670,-19030 237500,0 712500,0 950000,0 23920,4758 71750,14273 95670,19030 20280,13548 60830,40645 81110,54193 13550,20277 40640,60830 54190,81106 4760,23918 14270,71753 19030,95671 0,125000 0,375000 0,500000 -4760,23918 -14270,71753 -19030,95671 -13550,20277 -40640,60830 -54190,81106 -20280,13548 -60830,40645 -81110,54193 -23920,4758 -71750,14273 -95670,19030 -237500,0 -712500,0 -950000,0 z"
     id="path2455" />
  <g
     id="g2459"
     style="fill:#000000;fill-opacity:0;stroke:#000000;stroke-width:0;stroke-linecap:round;stroke-linejoin:round;stroke-opacity:1"
     transform="translate(32.069354,22.376817)" />
  <path
     style="fill:none;fill-opacity:1;fill-rule:evenodd;stroke:#000000;stroke-width:1;stroke-linecap:round;stroke-linejoin:round;stroke-opacity:1"
     d="m 29556139,20353533 -19030,95671 -54190,81106 -81110,54193 -95670,19030 h -500000 l -95670,-19030 -81110,-54193 -54190,-81106 -19030,-95671 v -950000 l 19030,-95671 54190,-81106 81110,-54193 95670,-19030 h 500000 l 95670,19030 81110,54193 54190,81106 19030,95671 z"
     id="path2461" />
  <path
     style="fill:none;fill-opacity:1;fill-rule:evenodd;stroke:#000000;stroke-width:1;stroke-linecap:round;stroke-linejoin:round;stroke-opacity:1"
     d="m 27656139,20353533 -19030,95671 -54190,81106 -81110,54193 -95670,19030 h -500000 l -95670,-19030 -81110,-54193 -54190,-81106 -19030,-95671 v -950000 l 19030,-95671 54190,-81106 81110,-54193 95670,-19030 h 500000 l 95670,19030 81110,54193 54190,81106 19030,95671 z"
     id="path2463" />
  <g
     id="g2467"
     style="fill:#000000;fill-opacity:0;stroke:#000000;stroke-width:0;stroke-linecap:round;stroke-linejoin:round;stroke-opacity:1"
     transform="translate(32.069354,22.376817)" />
  <path
     style="fill:none;fill-opacity:1;fill-rule:evenodd;stroke:#000000;stroke-width:1;stroke-linecap:round;stroke-linejoin:round;stroke-opacity:1"
     d="m 29772319,22977974 v 1200000 h -1400000 v -1200000 z"
     id="path2469" />
  <path
     style="fill:none;fill-opacity:1;fill-rule:evenodd;stroke:#000000;stroke-width:1;stroke-linecap:round;stroke-linejoin:round;stroke-opacity:1"
     d="m 27572319,22977974 v 1200000 h -1400000 v -1200000 z"
     id="path2471" />
  <path
     style="fill:none;fill-opacity:1;fill-rule:evenodd;stroke:#000000;stroke-width:1;stroke-linecap:round;stroke-linejoin:round;stroke-opacity:1"
     d="m 27572319,21277974 v 1200000 h -1400000 v -1200000 z"
     id="path2473" />
  <path
     style="fill:none;fill-opacity:1;fill-rule:evenodd;stroke:#000000;stroke-width:1;stroke-linecap:round;stroke-linejoin:round;stroke-opacity:1"
     d="m 29772319,21277974 v 1200000 h -1400000 v -1200000 z"
     id="path2475" />
  <g
     id="g2479"
     style="fill:#000000;fill-opacity:0;stroke:#000000;stroke-width:0;stroke-linecap:round;stroke-linejoin:round;stroke-opacity:1"
     transform="translate(32.069354,22.376817)" />
  <path
     style="fill:none;fill-opacity:1;fill-rule:evenodd;stroke:#000000;stroke-width:1;stroke-linecap:round;stroke-linejoin:round;stroke-opacity:1"
     d="m 29556139,26113533 -19030,95671 -54190,81106 -81110,54193 -95670,19030 h -500000 l -95670,-19030 -81110,-54193 -54190,-81106 -19030,-95671 v -950000 l 19030,-95671 54190,-81106 81110,-54193 95670,-19030 h 500000 l 95670,19030 81110,54193 54190,81106 19030,95671 z"
     id="path2481" />
  <path
     style="fill:none;fill-opacity:1;fill-rule:evenodd;stroke:#000000;stroke-width:1;stroke-linecap:round;stroke-linejoin:round;stroke-opacity:1"
     d="m 27656139,26113533 -19030,95671 -54190,81106 -81110,54193 -95670,19030 h -500000 l -95670,-19030 -81110,-54193 -54190,-81106 -19030,-95671 v -950000 l 19030,-95671 54190,-81106 81110,-54193 95670,-19030 h 500000 l 95670,19030 81110,54193 54190,81106 19030,95671 z"
     id="path2483" />
  <g
     id="g2487"
     style="fill:#000000;fill-opacity:0;stroke:#000000;stroke-width:0;stroke-linecap:round;stroke-linejoin:round;stroke-opacity:1"
     transform="translate(32.069354,22.376817)" />
  <path
     style="fill:none;fill-opacity:1;fill-rule:evenodd;stroke:#000000;stroke-width:1;stroke-linecap:round;stroke-linejoin:round;stroke-opacity:1"
     d="m 40316139,15495700 19030,-95671 54200,-81106 81100,-54193 95670,-19030 h 500000 l 95670,19030 81110,54193 54190,81106 19030,95671 v 950000 l -19030,95671 -54190,81106 -81110,54193 -95670,19030 h -500000 l -95670,-19030 -81100,-54193 -54200,-81106 -19030,-95671 z"
     id="path2489" />
  <path
     style="fill:none;fill-opacity:1;fill-rule:evenodd;stroke:#000000;stroke-width:1;stroke-linecap:round;stroke-linejoin:round;stroke-opacity:1"
     d="m 42216139,15495700 19030,-95671 54200,-81106 81100,-54193 95670,-19030 h 500000 l 95670,19030 81110,54193 54190,81106 19030,95671 v 950000 l -19030,95671 -54190,81106 -81110,54193 -95670,19030 h -500000 l -95670,-19030 -81100,-54193 -54200,-81106 -19030,-95671 z"
     id="path2491" />
  <g
     id="g2495"
     style="fill:#000000;fill-opacity:0;stroke:#000000;stroke-width:0;stroke-linecap:round;stroke-linejoin:round;stroke-opacity:1"
     transform="translate(32.069354,22.376817)" />
  <path
     style="fill:none;fill-opacity:1;fill-rule:evenodd;stroke:#000000;stroke-width:1;stroke-linecap:round;stroke-linejoin:round;stroke-opacity:1"
     d="m 46056139,27463533 -95670,-19030 -81110,-54193 -54190,-81106 -19030,-95671 v -525000 l 19030,-95671 54190,-81106 81110,-54193 95670,-19030 h 900000 l 95670,19030 81110,54193 54190,81106 19030,95671 v 525000 l -19030,95671 -54190,81106 -81110,54193 -95670,19030 z"
     id="path2497" />
  <path
     style="fill:none;fill-opacity:1;fill-rule:evenodd;stroke:#000000;stroke-width:1;stroke-linecap:round;stroke-linejoin:round;stroke-opacity:1"
     d="m 46056139,25638533 -95670,-19030 -81110,-54193 -54190,-81106 -19030,-95671 v -525000 l 19030,-95671 54190,-81106 81110,-54193 95670,-19030 h 900000 l 95670,19030 81110,54193 54190,81106 19030,95671 v 525000 l -19030,95671 -54190,81106 -81110,54193 -95670,19030 z"
     id="path2499" />
  <g
     id="g2503"
     style="fill:#000000;fill-opacity:0;stroke:#000000;stroke-width:0;stroke-linecap:round;stroke-linejoin:round;stroke-opacity:1"
     transform="translate(32.069354,22.376817)" />
  <path
     style="fill:none;fill-opacity:1;fill-rule:evenodd;stroke:#000000;stroke-width:1;stroke-linecap:round;stroke-linejoin:round;stroke-opacity:1"
     d="m 56156139,19238533 -19030,95671 -54190,81106 -81110,54193 -95670,19030 h -650000 l -95670,-19030 -81110,-54193 -54190,-81106 -19030,-95671 v -1300000 l 19030,-95671 54190,-81106 81110,-54193 95670,-19030 h 650000 l 95670,19030 81110,54193 54190,81106 19030,95671 z"
     id="path2505" />
  <path
     style="fill:none;fill-opacity:1;fill-rule:evenodd;stroke:#000000;stroke-width:1;stroke-linecap:round;stroke-linejoin:round;stroke-opacity:1"
     d="m 53206139,19238533 -19030,95671 -54190,81106 -81110,54193 -95670,19030 h -650000 l -95670,-19030 -81110,-54193 -54190,-81106 -19030,-95671 v -1300000 l 19030,-95671 54190,-81106 81110,-54193 95670,-19030 h 650000 l 95670,19030 81110,54193 54190,81106 19030,95671 z"
     id="path2507" />
  <g
     id="g2511"
     style="fill:#000000;fill-opacity:0;stroke:#000000;stroke-width:0;stroke-linecap:round;stroke-linejoin:round;stroke-opacity:1"
     transform="translate(32.069354,22.376817)" />
  <path
     style="fill:none;fill-opacity:1;fill-rule:evenodd;stroke:#000000;stroke-width:1;stroke-linecap:round;stroke-linejoin:round;stroke-opacity:1"
     d="m 56156139,16938533 -19030,95671 -54190,81106 -81110,54193 -95670,19030 h -650000 l -95670,-19030 -81110,-54193 -54190,-81106 -19030,-95671 v -1300000 l 19030,-95671 54190,-81106 81110,-54193 95670,-19030 h 650000 l 95670,19030 81110,54193 54190,81106 19030,95671 z"
     id="path2513" />
  <path
     style="fill:none;fill-opacity:1;fill-rule:evenodd;stroke:#000000;stroke-width:1;stroke-linecap:round;stroke-linejoin:round;stroke-opacity:1"
     d="m 53206139,16938533 -19030,95671 -54190,81106 -81110,54193 -95670,19030 h -650000 l -95670,-19030 -81110,-54193 -54190,-81106 -19030,-95671 v -1300000 l 19030,-95671 54190,-81106 81110,-54193 95670,-19030 h 650000 l 95670,19030 81110,54193 54190,81106 19030,95671 z"
     id="path2515" />
  <g
     id="g2519"
     style="fill:#000000;fill-opacity:0;stroke:#000000;stroke-width:0;stroke-linecap:round;stroke-linejoin:round;stroke-opacity:1"
     transform="translate(32.069354,22.376817)" />
  <path
     style="fill:none;fill-opacity:1;fill-rule:evenodd;stroke:#000000;stroke-width:1;stroke-linecap:round;stroke-linejoin:round;stroke-opacity:1"
     d="m 60356139,9688533.4 -19030,95671 -54190,81106 -81110,54193 -95670,19030 h -525000 l -95670,-19030 -81110,-54193 -54190,-81106 -19030,-95671 v -900000 l 19030,-95671 54190,-81106 81110,-54193 95670,-19030 h 525000 l 95670,19030 81110,54193 54190,81106 19030,95671 z"
     id="path2521" />
  <path
     style="fill:none;fill-opacity:1;fill-rule:evenodd;stroke:#000000;stroke-width:1;stroke-linecap:round;stroke-linejoin:round;stroke-opacity:1"
     d="m 58531139,9688533.4 -19030,95671 -54190,81106 -81110,54193 -95670,19030 h -525000 l -95670,-19030 -81110,-54193 -54190,-81106 -19030,-95671 v -900000 l 19030,-95671 54190,-81106 81110,-54193 95670,-19030 h 525000 l 95670,19030 81110,54193 54190,81106 19030,95671 z"
     id="path2523" />
  <g
     id="g2527"
     style="fill:#000000;fill-opacity:0;stroke:#000000;stroke-width:0;stroke-linecap:round;stroke-linejoin:round;stroke-opacity:1"
     transform="translate(32.069354,22.376817)" />
  <path
     style="fill:none;fill-opacity:1;fill-rule:evenodd;stroke:#000000;stroke-width:1;stroke-linecap:round;stroke-linejoin:round;stroke-opacity:1"
     d="m 29563739,15990485 -19030,95671 -54190,81106 -81110,54193 -95670,19030 h -500000 l -95670,-19030 -81110,-54193 -54190,-81106 -19030,-95671 v -950000 l 19030,-95671 54190,-81106 81110,-54193 95670,-19030 h 500000 l 95670,19030 81110,54193 54190,81106 19030,95671 z"
     id="path2529" />
  <path
     style="fill:none;fill-opacity:1;fill-rule:evenodd;stroke:#000000;stroke-width:1;stroke-linecap:round;stroke-linejoin:round;stroke-opacity:1"
     d="m 27663739,15990485 -19030,95671 -54190,81106 -81110,54193 -95670,19030 h -500000 l -95670,-19030 -81110,-54193 -54190,-81106 -19030,-95671 v -950000 l 19030,-95671 54190,-81106 81110,-54193 95670,-19030 h 500000 l 95670,19030 81110,54193 54190,81106 19030,95671 z"
     id="path2531" />
  <g
     id="g2535"
     style="fill:#000000;fill-opacity:0;stroke:#000000;stroke-width:0;stroke-linecap:round;stroke-linejoin:round;stroke-opacity:1"
     transform="translate(32.069354,22.376817)" />
  <path
     style="fill:none;fill-opacity:1;fill-rule:evenodd;stroke:#000000;stroke-width:1;stroke-linecap:round;stroke-linejoin:round;stroke-opacity:1"
     d="m 57521139,33938533 -95670,-19030 -81110,-54193 -54190,-81106 -19030,-95671 v -500000 l 19030,-95671 54190,-81106 81110,-54193 95670,-19030 h 950000 l 95670,19030 81110,54193 54190,81106 19030,95671 v 500000 l -19030,95671 -54190,81106 -81110,54193 -95670,19030 z"
     id="path2537" />
  <path
     style="fill:none;fill-opacity:1;fill-rule:evenodd;stroke:#000000;stroke-width:1;stroke-linecap:round;stroke-linejoin:round;stroke-opacity:1"
     d="m 57521139,32038533 -95670,-19030 -81110,-54193 -54190,-81106 -19030,-95671 v -500000 l 19030,-95671 54190,-81106 81110,-54193 95670,-19030 h 950000 l 95670,19030 81110,54193 54190,81106 19030,95671 v 500000 l -19030,95671 -54190,81106 -81110,54193 -95670,19030 z"
     id="path2539" />
  <g
     id="g2543"
     style="fill:#000000;fill-opacity:0;stroke:#000000;stroke-width:0;stroke-linecap:round;stroke-linejoin:round;stroke-opacity:1"
     transform="translate(32.069354,22.376817)" />
  <path
     style="fill:none;fill-opacity:1;fill-rule:evenodd;stroke:#000000;stroke-width:1;stroke-linecap:round;stroke-linejoin:round;stroke-opacity:1"
     d="m 29563739,18253227 -19030,95671 -54190,81106 -81110,54193 -95670,19030 h -500000 l -95670,-19030 -81110,-54193 -54190,-81106 -19030,-95671 v -950000 l 19030,-95671 54190,-81106 81110,-54193 95670,-19030 h 500000 l 95670,19030 81110,54193 54190,81106 19030,95671 z"
     id="path2545" />
  <path
     style="fill:none;fill-opacity:1;fill-rule:evenodd;stroke:#000000;stroke-width:1;stroke-linecap:round;stroke-linejoin:round;stroke-opacity:1"
     d="m 27663739,18253227 -19030,95671 -54190,81106 -81110,54193 -95670,19030 h -500000 l -95670,-19030 -81110,-54193 -54190,-81106 -19030,-95671 v -950000 l 19030,-95671 54190,-81106 81110,-54193 95670,-19030 h 500000 l 95670,19030 81110,54193 54190,81106 19030,95671 z"
     id="path2547" />
  <g
     id="g2551"
     style="fill:#000000;fill-opacity:0;stroke:#000000;stroke-width:0;stroke-linecap:round;stroke-linejoin:round;stroke-opacity:1"
     transform="translate(32.069354,22.376817)" />
  <path
     style="fill:none;fill-opacity:1;fill-rule:evenodd;stroke:#000000;stroke-width:1;stroke-linecap:round;stroke-linejoin:round;stroke-opacity:1"
     d="m 35411139,21483533 -95670,-19030 -81110,-54193 -54190,-81106 -19030,-95671 v -790001 l 19030,-95670 54190,-81106 81110,-54193 95670,-19029 790000,-1 95670,19030 81110,54193 54190,81106 19030,95671 v 790001 l -19030,95670 -54190,81106 -81110,54193 -95670,19029 z"
     id="path2553" />
  <path
     style="fill:none;fill-opacity:1;fill-rule:evenodd;stroke:#000000;stroke-width:1;stroke-linecap:round;stroke-linejoin:round;stroke-opacity:1"
     d="m 33811139,19883533 -95670,-19030 -81110,-54193 -54190,-81106 -19030,-95671 v -790001 l 19030,-95670 54190,-81106 81110,-54193 95670,-19029 790000,-1 95670,19030 81110,54193 54190,81106 19030,95671 v 790001 l -19030,95670 -54190,81106 -81110,54193 -95670,19029 z"
     id="path2555" />
  <path
     style="fill:none;fill-opacity:1;fill-rule:evenodd;stroke:#000000;stroke-width:1;stroke-linecap:round;stroke-linejoin:round;stroke-opacity:1"
     d="m 33811139,21483533 -95670,-19030 -81110,-54193 -54190,-81106 -19030,-95671 v -790001 l 19030,-95670 54190,-81106 81110,-54193 95670,-19029 790000,-1 95670,19030 81110,54193 54190,81106 19030,95671 v 790001 l -19030,95670 -54190,81106 -81110,54193 -95670,19029 z"
     id="path2557" />
  <path
     style="fill:none;fill-opacity:1;fill-rule:evenodd;stroke:#000000;stroke-width:1;stroke-linecap:round;stroke-linejoin:round;stroke-opacity:1"
     d="m 35411139,19883533 -95670,-19030 -81110,-54193 -54190,-81106 -19030,-95671 v -790001 l 19030,-95670 54190,-81106 81110,-54193 95670,-19029 790000,-1 95670,19030 81110,54193 54190,81106 19030,95671 v 790001 l -19030,95670 -54190,81106 -81110,54193 -95670,19029 z"
     id="path2559" />
  <path
     style="fill:none;fill-opacity:1;fill-rule:evenodd;stroke:#000000;stroke-width:1;stroke-linecap:round;stroke-linejoin:round;stroke-opacity:1"
     d="m 37556139,23913533 -19130,-3806 -16220,-10839 -10840,-16221 -3810,-19134 v -775000 l 3810,-19134 10840,-16221 16220,-10839 19130,-3806 h 100000 l 19130,3806 16230,10839 10830,16221 3810,19134 v 775000 l -3810,19134 -10830,16221 -16230,10839 -19130,3806 z"
     id="path2561" />
  <path
     style="fill:none;fill-opacity:1;fill-rule:evenodd;stroke:#000000;stroke-width:1;stroke-linecap:round;stroke-linejoin:round;stroke-opacity:1"
     d="m 37156139,23913533 -19130,-3806 -16220,-10839 -10840,-16221 -3810,-19134 v -775000 l 3810,-19134 10840,-16221 16220,-10839 19130,-3806 h 100000 l 19130,3806 16230,10839 10830,16221 3810,19134 v 775000 l -3810,19134 -10830,16221 -16230,10839 -19130,3806 z"
     id="path2563" />
  <path
     style="fill:none;fill-opacity:1;fill-rule:evenodd;stroke:#000000;stroke-width:1;stroke-linecap:round;stroke-linejoin:round;stroke-opacity:1"
     d="m 36756139,23913533 -19130,-3806 -16220,-10839 -10840,-16221 -3810,-19134 v -775000 l 3810,-19134 10840,-16221 16220,-10839 19130,-3806 h 100000 l 19130,3806 16230,10839 10830,16221 3810,19134 v 775000 l -3810,19134 -10830,16221 -16230,10839 -19130,3806 z"
     id="path2565" />
  <path
     style="fill:none;fill-opacity:1;fill-rule:evenodd;stroke:#000000;stroke-width:1;stroke-linecap:round;stroke-linejoin:round;stroke-opacity:1"
     d="m 36356139,23913533 -19130,-3806 -16220,-10839 -10840,-16221 -3810,-19134 v -775000 l 3810,-19134 10840,-16221 16220,-10839 19130,-3806 h 100000 l 19130,3806 16230,10839 10830,16221 3810,19134 v 775000 l -3810,19134 -10830,16221 -16230,10839 -19130,3806 z"
     id="path2567" />
  <path
     style="fill:none;fill-opacity:1;fill-rule:evenodd;stroke:#000000;stroke-width:1;stroke-linecap:round;stroke-linejoin:round;stroke-opacity:1"
     d="m 35956139,23913533 -19130,-3806 -16220,-10839 -10840,-16221 -3810,-19134 v -775000 l 3810,-19134 10840,-16221 16220,-10839 19130,-3806 h 100000 l 19130,3806 16230,10839 10830,16221 3810,19134 v 775000 l -3810,19134 -10830,16221 -16230,10839 -19130,3806 z"
     id="path2569" />
  <path
     style="fill:none;fill-opacity:1;fill-rule:evenodd;stroke:#000000;stroke-width:1;stroke-linecap:round;stroke-linejoin:round;stroke-opacity:1"
     d="m 35556139,23913533 -19130,-3806 -16220,-10839 -10840,-16221 -3810,-19134 v -775000 l 3810,-19134 10840,-16221 16220,-10839 19130,-3806 h 100000 l 19130,3806 16230,10839 10830,16221 3810,19134 v 775000 l -3810,19134 -10830,16221 -16230,10839 -19130,3806 z"
     id="path2571" />
  <path
     style="fill:none;fill-opacity:1;fill-rule:evenodd;stroke:#000000;stroke-width:1;stroke-linecap:round;stroke-linejoin:round;stroke-opacity:1"
     d="m 35156139,23913533 -19130,-3806 -16220,-10839 -10840,-16221 -3810,-19134 v -775000 l 3810,-19134 10840,-16221 16220,-10839 19130,-3806 h 100000 l 19130,3806 16230,10839 10830,16221 3810,19134 v 775000 l -3810,19134 -10830,16221 -16230,10839 -19130,3806 z"
     id="path2573" />
  <path
     style="fill:none;fill-opacity:1;fill-rule:evenodd;stroke:#000000;stroke-width:1;stroke-linecap:round;stroke-linejoin:round;stroke-opacity:1"
     d="m 34756139,23913533 -19130,-3806 -16220,-10839 -10840,-16221 -3810,-19134 v -775000 l 3810,-19134 10840,-16221 16220,-10839 19130,-3806 h 100000 l 19130,3806 16230,10839 10830,16221 3810,19134 v 775000 l -3810,19134 -10830,16221 -16230,10839 -19130,3806 z"
     id="path2575" />
  <path
     style="fill:none;fill-opacity:1;fill-rule:evenodd;stroke:#000000;stroke-width:1;stroke-linecap:round;stroke-linejoin:round;stroke-opacity:1"
     d="m 34356139,23913533 -19130,-3806 -16220,-10839 -10840,-16221 -3810,-19134 v -775000 l 3810,-19134 10840,-16221 16220,-10839 19130,-3806 h 100000 l 19130,3806 16230,10839 10830,16221 3810,19134 v 775000 l -3810,19134 -10830,16221 -16230,10839 -19130,3806 z"
     id="path2577" />
  <path
     style="fill:none;fill-opacity:1;fill-rule:evenodd;stroke:#000000;stroke-width:1;stroke-linecap:round;stroke-linejoin:round;stroke-opacity:1"
     d="m 33956139,23913533 -19130,-3806 -16220,-10839 -10840,-16221 -3810,-19134 v -775000 l 3810,-19134 10840,-16221 16220,-10839 19130,-3806 h 100000 l 19130,3806 16230,10839 10830,16221 3810,19134 v 775000 l -3810,19134 -10830,16221 -16230,10839 -19130,3806 z"
     id="path2579" />
  <path
     style="fill:none;fill-opacity:1;fill-rule:evenodd;stroke:#000000;stroke-width:1;stroke-linecap:round;stroke-linejoin:round;stroke-opacity:1"
     d="m 33556139,23913533 -19130,-3806 -16220,-10839 -10840,-16221 -3810,-19134 v -775000 l 3810,-19134 10840,-16221 16220,-10839 19130,-3806 h 100000 l 19130,3806 16230,10839 10830,16221 3810,19134 v 775000 l -3810,19134 -10830,16221 -16230,10839 -19130,3806 z"
     id="path2581" />
  <path
     style="fill:none;fill-opacity:1;fill-rule:evenodd;stroke:#000000;stroke-width:1;stroke-linecap:round;stroke-linejoin:round;stroke-opacity:1"
     d="m 33156139,23913533 -19130,-3806 -16220,-10839 -10840,-16221 -3810,-19134 v -775000 l 3810,-19134 10840,-16221 16220,-10839 19130,-3806 h 100000 l 19130,3806 16230,10839 10830,16221 3810,19134 v 775000 l -3810,19134 -10830,16221 -16230,10839 -19130,3806 z"
     id="path2583" />
  <path
     style="fill:none;fill-opacity:1;fill-rule:evenodd;stroke:#000000;stroke-width:1;stroke-linecap:round;stroke-linejoin:round;stroke-opacity:1"
     d="m 32756139,23913533 -19130,-3806 -16220,-10839 -10840,-16221 -3810,-19134 v -775000 l 3810,-19134 10840,-16221 16220,-10839 19130,-3806 h 100000 l 19130,3806 16230,10839 10830,16221 3810,19134 v 775000 l -3810,19134 -10830,16221 -16230,10839 -19130,3806 z"
     id="path2585" />
  <path
     style="fill:none;fill-opacity:1;fill-rule:evenodd;stroke:#000000;stroke-width:1;stroke-linecap:round;stroke-linejoin:round;stroke-opacity:1"
     d="m 32356139,23913533 -19130,-3806 -16220,-10839 -10840,-16221 -3810,-19134 v -775000 l 3810,-19134 10840,-16221 16220,-10839 19130,-3806 h 100000 l 19130,3806 16230,10839 10830,16221 3810,19134 v 775000 l -3810,19134 -10830,16221 -16230,10839 -19130,3806 z"
     id="path2587" />
  <path
     style="fill:none;fill-opacity:1;fill-rule:evenodd;stroke:#000000;stroke-width:1;stroke-linecap:round;stroke-linejoin:round;stroke-opacity:1"
     d="m 31181139,22738533 -19130,-3806 -16220,-10839 -10840,-16221 -3810,-19134 v -100000 l 3810,-19134 10840,-16221 16220,-10839 19130,-3806 h 775000 l 19130,3806 16230,10839 10830,16221 3810,19134 v 100000 l -3810,19134 -10830,16221 -16230,10839 -19130,3806 z"
     id="path2589" />
  <path
     style="fill:none;fill-opacity:1;fill-rule:evenodd;stroke:#000000;stroke-width:1;stroke-linecap:round;stroke-linejoin:round;stroke-opacity:1"
     d="m 31181139,22338533 -19130,-3806 -16220,-10839 -10840,-16221 -3810,-19134 v -100000 l 3810,-19134 10840,-16221 16220,-10839 19130,-3806 h 775000 l 19130,3806 16230,10839 10830,16221 3810,19134 v 100000 l -3810,19134 -10830,16221 -16230,10839 -19130,3806 z"
     id="path2591" />
  <path
     style="fill:none;fill-opacity:1;fill-rule:evenodd;stroke:#000000;stroke-width:1;stroke-linecap:round;stroke-linejoin:round;stroke-opacity:1"
     d="m 31181139,21938533 -19130,-3806 -16220,-10839 -10840,-16221 -3810,-19134 v -100000 l 3810,-19134 10840,-16221 16220,-10839 19130,-3806 h 775000 l 19130,3806 16230,10839 10830,16221 3810,19134 v 100000 l -3810,19134 -10830,16221 -16230,10839 -19130,3806 z"
     id="path2593" />
  <path
     style="fill:none;fill-opacity:1;fill-rule:evenodd;stroke:#000000;stroke-width:1;stroke-linecap:round;stroke-linejoin:round;stroke-opacity:1"
     d="m 31181139,21538533 -19130,-3806 -16220,-10839 -10840,-16221 -3810,-19134 v -100000 l 3810,-19134 10840,-16221 16220,-10839 19130,-3806 h 775000 l 19130,3806 16230,10839 10830,16221 3810,19134 v 100000 l -3810,19134 -10830,16221 -16230,10839 -19130,3806 z"
     id="path2595" />
  <path
     style="fill:none;fill-opacity:1;fill-rule:evenodd;stroke:#000000;stroke-width:1;stroke-linecap:round;stroke-linejoin:round;stroke-opacity:1"
     d="m 31181139,21138533 -19130,-3806 -16220,-10839 -10840,-16221 -3810,-19134 v -100000 l 3810,-19134 10840,-16221 16220,-10839 19130,-3806 h 775000 l 19130,3806 16230,10839 10830,16221 3810,19134 v 100000 l -3810,19134 -10830,16221 -16230,10839 -19130,3806 z"
     id="path2597" />
  <path
     style="fill:none;fill-opacity:1;fill-rule:evenodd;stroke:#000000;stroke-width:1;stroke-linecap:round;stroke-linejoin:round;stroke-opacity:1"
     d="m 31181139,20738533 -19130,-3806 -16220,-10839 -10840,-16221 -3810,-19134 v -100000 l 3810,-19134 10840,-16221 16220,-10839 19130,-3806 h 775000 l 19130,3806 16230,10839 10830,16221 3810,19134 v 100000 l -3810,19134 -10830,16221 -16230,10839 -19130,3806 z"
     id="path2599" />
  <path
     style="fill:none;fill-opacity:1;fill-rule:evenodd;stroke:#000000;stroke-width:1;stroke-linecap:round;stroke-linejoin:round;stroke-opacity:1"
     d="m 31181139,20338533 -19130,-3806 -16220,-10839 -10840,-16221 -3810,-19134 v -100000 l 3810,-19134 10840,-16221 16220,-10839 19130,-3806 h 775000 l 19130,3806 16230,10839 10830,16221 3810,19134 v 100000 l -3810,19134 -10830,16221 -16230,10839 -19130,3806 z"
     id="path2601" />
  <path
     style="fill:none;fill-opacity:1;fill-rule:evenodd;stroke:#000000;stroke-width:1;stroke-linecap:round;stroke-linejoin:round;stroke-opacity:1"
     d="m 31181139,19938533 -19130,-3806 -16220,-10839 -10840,-16221 -3810,-19134 v -100000 l 3810,-19134 10840,-16221 16220,-10839 19130,-3806 h 775000 l 19130,3806 16230,10839 10830,16221 3810,19134 v 100000 l -3810,19134 -10830,16221 -16230,10839 -19130,3806 z"
     id="path2603" />
  <path
     style="fill:none;fill-opacity:1;fill-rule:evenodd;stroke:#000000;stroke-width:1;stroke-linecap:round;stroke-linejoin:round;stroke-opacity:1"
     d="m 31181139,19538533 -19130,-3806 -16220,-10839 -10840,-16221 -3810,-19134 v -100000 l 3810,-19134 10840,-16221 16220,-10839 19130,-3806 h 775000 l 19130,3806 16230,10839 10830,16221 3810,19134 v 100000 l -3810,19134 -10830,16221 -16230,10839 -19130,3806 z"
     id="path2605" />
  <path
     style="fill:none;fill-opacity:1;fill-rule:evenodd;stroke:#000000;stroke-width:1;stroke-linecap:round;stroke-linejoin:round;stroke-opacity:1"
     d="m 31181139,19138533 -19130,-3806 -16220,-10839 -10840,-16221 -3810,-19134 v -100000 l 3810,-19134 10840,-16221 16220,-10839 19130,-3806 h 775000 l 19130,3806 16230,10839 10830,16221 3810,19134 v 100000 l -3810,19134 -10830,16221 -16230,10839 -19130,3806 z"
     id="path2607" />
  <path
     style="fill:none;fill-opacity:1;fill-rule:evenodd;stroke:#000000;stroke-width:1;stroke-linecap:round;stroke-linejoin:round;stroke-opacity:1"
     d="m 31181139,18738533 -19130,-3806 -16220,-10839 -10840,-16221 -3810,-19134 v -100000 l 3810,-19134 10840,-16221 16220,-10839 19130,-3806 h 775000 l 19130,3806 16230,10839 10830,16221 3810,19134 v 100000 l -3810,19134 -10830,16221 -16230,10839 -19130,3806 z"
     id="path2609" />
  <path
     style="fill:none;fill-opacity:1;fill-rule:evenodd;stroke:#000000;stroke-width:1;stroke-linecap:round;stroke-linejoin:round;stroke-opacity:1"
     d="m 31181139,18338533 -19130,-3806 -16220,-10839 -10840,-16221 -3810,-19134 v -100000 l 3810,-19134 10840,-16221 16220,-10839 19130,-3806 h 775000 l 19130,3806 16230,10839 10830,16221 3810,19134 v 100000 l -3810,19134 -10830,16221 -16230,10839 -19130,3806 z"
     id="path2611" />
  <path
     style="fill:none;fill-opacity:1;fill-rule:evenodd;stroke:#000000;stroke-width:1;stroke-linecap:round;stroke-linejoin:round;stroke-opacity:1"
     d="m 31181139,17938533 -19130,-3806 -16220,-10839 -10840,-16221 -3810,-19134 v -100000 l 3810,-19134 10840,-16221 16220,-10839 19130,-3806 h 775000 l 19130,3806 16230,10839 10830,16221 3810,19134 v 100000 l -3810,19134 -10830,16221 -16230,10839 -19130,3806 z"
     id="path2613" />
  <path
     style="fill:none;fill-opacity:1;fill-rule:evenodd;stroke:#000000;stroke-width:1;stroke-linecap:round;stroke-linejoin:round;stroke-opacity:1"
     d="m 31181139,17538533 -19130,-3806 -16220,-10839 -10840,-16221 -3810,-19134 v -100000 l 3810,-19134 10840,-16221 16220,-10839 19130,-3806 h 775000 l 19130,3806 16230,10839 10830,16221 3810,19134 v 100000 l -3810,19134 -10830,16221 -16230,10839 -19130,3806 z"
     id="path2615" />
  <path
     style="fill:none;fill-opacity:1;fill-rule:evenodd;stroke:#000000;stroke-width:1;stroke-linecap:round;stroke-linejoin:round;stroke-opacity:1"
     d="m 32356139,17038533 -19130,-3806 -16220,-10839 -10840,-16221 -3810,-19134 v -775000 l 3810,-19134 10840,-16221 16220,-10839 19130,-3806 h 100000 l 19130,3806 16230,10839 10830,16221 3810,19134 v 775000 l -3810,19134 -10830,16221 -16230,10839 -19130,3806 z"
     id="path2617" />
  <path
     style="fill:none;fill-opacity:1;fill-rule:evenodd;stroke:#000000;stroke-width:1;stroke-linecap:round;stroke-linejoin:round;stroke-opacity:1"
     d="m 32756139,17038533 -19130,-3806 -16220,-10839 -10840,-16221 -3810,-19134 v -775000 l 3810,-19134 10840,-16221 16220,-10839 19130,-3806 h 100000 l 19130,3806 16230,10839 10830,16221 3810,19134 v 775000 l -3810,19134 -10830,16221 -16230,10839 -19130,3806 z"
     id="path2619" />
  <path
     style="fill:none;fill-opacity:1;fill-rule:evenodd;stroke:#000000;stroke-width:1;stroke-linecap:round;stroke-linejoin:round;stroke-opacity:1"
     d="m 33156139,17038533 -19130,-3806 -16220,-10839 -10840,-16221 -3810,-19134 v -775000 l 3810,-19134 10840,-16221 16220,-10839 19130,-3806 h 100000 l 19130,3806 16230,10839 10830,16221 3810,19134 v 775000 l -3810,19134 -10830,16221 -16230,10839 -19130,3806 z"
     id="path2621" />
  <path
     style="fill:none;fill-opacity:1;fill-rule:evenodd;stroke:#000000;stroke-width:1;stroke-linecap:round;stroke-linejoin:round;stroke-opacity:1"
     d="m 33556139,17038533 -19130,-3806 -16220,-10839 -10840,-16221 -3810,-19134 v -775000 l 3810,-19134 10840,-16221 16220,-10839 19130,-3806 h 100000 l 19130,3806 16230,10839 10830,16221 3810,19134 v 775000 l -3810,19134 -10830,16221 -16230,10839 -19130,3806 z"
     id="path2623" />
  <path
     style="fill:none;fill-opacity:1;fill-rule:evenodd;stroke:#000000;stroke-width:1;stroke-linecap:round;stroke-linejoin:round;stroke-opacity:1"
     d="m 33956139,17038533 -19130,-3806 -16220,-10839 -10840,-16221 -3810,-19134 v -775000 l 3810,-19134 10840,-16221 16220,-10839 19130,-3806 h 100000 l 19130,3806 16230,10839 10830,16221 3810,19134 v 775000 l -3810,19134 -10830,16221 -16230,10839 -19130,3806 z"
     id="path2625" />
  <path
     style="fill:none;fill-opacity:1;fill-rule:evenodd;stroke:#000000;stroke-width:1;stroke-linecap:round;stroke-linejoin:round;stroke-opacity:1"
     d="m 34356139,17038533 -19130,-3806 -16220,-10839 -10840,-16221 -3810,-19134 v -775000 l 3810,-19134 10840,-16221 16220,-10839 19130,-3806 h 100000 l 19130,3806 16230,10839 10830,16221 3810,19134 v 775000 l -3810,19134 -10830,16221 -16230,10839 -19130,3806 z"
     id="path2627" />
  <path
     style="fill:none;fill-opacity:1;fill-rule:evenodd;stroke:#000000;stroke-width:1;stroke-linecap:round;stroke-linejoin:round;stroke-opacity:1"
     d="m 34756139,17038533 -19130,-3806 -16220,-10839 -10840,-16221 -3810,-19134 v -775000 l 3810,-19134 10840,-16221 16220,-10839 19130,-3806 h 100000 l 19130,3806 16230,10839 10830,16221 3810,19134 v 775000 l -3810,19134 -10830,16221 -16230,10839 -19130,3806 z"
     id="path2629" />
  <path
     style="fill:none;fill-opacity:1;fill-rule:evenodd;stroke:#000000;stroke-width:1;stroke-linecap:round;stroke-linejoin:round;stroke-opacity:1"
     d="m 35156139,17038533 -19130,-3806 -16220,-10839 -10840,-16221 -3810,-19134 v -775000 l 3810,-19134 10840,-16221 16220,-10839 19130,-3806 h 100000 l 19130,3806 16230,10839 10830,16221 3810,19134 v 775000 l -3810,19134 -10830,16221 -16230,10839 -19130,3806 z"
     id="path2631" />
  <path
     style="fill:none;fill-opacity:1;fill-rule:evenodd;stroke:#000000;stroke-width:1;stroke-linecap:round;stroke-linejoin:round;stroke-opacity:1"
     d="m 35556139,17038533 -19130,-3806 -16220,-10839 -10840,-16221 -3810,-19134 v -775000 l 3810,-19134 10840,-16221 16220,-10839 19130,-3806 h 100000 l 19130,3806 16230,10839 10830,16221 3810,19134 v 775000 l -3810,19134 -10830,16221 -16230,10839 -19130,3806 z"
     id="path2633" />
  <path
     style="fill:none;fill-opacity:1;fill-rule:evenodd;stroke:#000000;stroke-width:1;stroke-linecap:round;stroke-linejoin:round;stroke-opacity:1"
     d="m 35956139,17038533 -19130,-3806 -16220,-10839 -10840,-16221 -3810,-19134 v -775000 l 3810,-19134 10840,-16221 16220,-10839 19130,-3806 h 100000 l 19130,3806 16230,10839 10830,16221 3810,19134 v 775000 l -3810,19134 -10830,16221 -16230,10839 -19130,3806 z"
     id="path2635" />
  <path
     style="fill:none;fill-opacity:1;fill-rule:evenodd;stroke:#000000;stroke-width:1;stroke-linecap:round;stroke-linejoin:round;stroke-opacity:1"
     d="m 36356139,17038533 -19130,-3806 -16220,-10839 -10840,-16221 -3810,-19134 v -775000 l 3810,-19134 10840,-16221 16220,-10839 19130,-3806 h 100000 l 19130,3806 16230,10839 10830,16221 3810,19134 v 775000 l -3810,19134 -10830,16221 -16230,10839 -19130,3806 z"
     id="path2637" />
  <path
     style="fill:none;fill-opacity:1;fill-rule:evenodd;stroke:#000000;stroke-width:1;stroke-linecap:round;stroke-linejoin:round;stroke-opacity:1"
     d="m 36756139,17038533 -19130,-3806 -16220,-10839 -10840,-16221 -3810,-19134 v -775000 l 3810,-19134 10840,-16221 16220,-10839 19130,-3806 h 100000 l 19130,3806 16230,10839 10830,16221 3810,19134 v 775000 l -3810,19134 -10830,16221 -16230,10839 -19130,3806 z"
     id="path2639" />
  <path
     style="fill:none;fill-opacity:1;fill-rule:evenodd;stroke:#000000;stroke-width:1;stroke-linecap:round;stroke-linejoin:round;stroke-opacity:1"
     d="m 37156139,17038533 -19130,-3806 -16220,-10839 -10840,-16221 -3810,-19134 v -775000 l 3810,-19134 10840,-16221 16220,-10839 19130,-3806 h 100000 l 19130,3806 16230,10839 10830,16221 3810,19134 v 775000 l -3810,19134 -10830,16221 -16230,10839 -19130,3806 z"
     id="path2641" />
  <path
     style="fill:none;fill-opacity:1;fill-rule:evenodd;stroke:#000000;stroke-width:1;stroke-linecap:round;stroke-linejoin:round;stroke-opacity:1"
     d="m 37556139,17038533 -19130,-3806 -16220,-10839 -10840,-16221 -3810,-19134 v -775000 l 3810,-19134 10840,-16221 16220,-10839 19130,-3806 h 100000 l 19130,3806 16230,10839 10830,16221 3810,19134 v 775000 l -3810,19134 -10830,16221 -16230,10839 -19130,3806 z"
     id="path2643" />
  <path
     style="fill:none;fill-opacity:1;fill-rule:evenodd;stroke:#000000;stroke-width:1;stroke-linecap:round;stroke-linejoin:round;stroke-opacity:1"
     d="m 38056139,17538533 -19130,-3806 -16220,-10839 -10840,-16221 -3810,-19134 v -100000 l 3810,-19134 10840,-16221 16220,-10839 19130,-3806 h 775000 l 19130,3806 16230,10839 10830,16221 3810,19134 v 100000 l -3810,19134 -10830,16221 -16230,10839 -19130,3806 z"
     id="path2645" />
  <path
     style="fill:none;fill-opacity:1;fill-rule:evenodd;stroke:#000000;stroke-width:1;stroke-linecap:round;stroke-linejoin:round;stroke-opacity:1"
     d="m 38056139,17938533 -19130,-3806 -16220,-10839 -10840,-16221 -3810,-19134 v -100000 l 3810,-19134 10840,-16221 16220,-10839 19130,-3806 h 775000 l 19130,3806 16230,10839 10830,16221 3810,19134 v 100000 l -3810,19134 -10830,16221 -16230,10839 -19130,3806 z"
     id="path2647" />
  <path
     style="fill:none;fill-opacity:1;fill-rule:evenodd;stroke:#000000;stroke-width:1;stroke-linecap:round;stroke-linejoin:round;stroke-opacity:1"
     d="m 38056139,18338533 -19130,-3806 -16220,-10839 -10840,-16221 -3810,-19134 v -100000 l 3810,-19134 10840,-16221 16220,-10839 19130,-3806 h 775000 l 19130,3806 16230,10839 10830,16221 3810,19134 v 100000 l -3810,19134 -10830,16221 -16230,10839 -19130,3806 z"
     id="path2649" />
  <path
     style="fill:none;fill-opacity:1;fill-rule:evenodd;stroke:#000000;stroke-width:1;stroke-linecap:round;stroke-linejoin:round;stroke-opacity:1"
     d="m 38056139,18738533 -19130,-3806 -16220,-10839 -10840,-16221 -3810,-19134 v -100000 l 3810,-19134 10840,-16221 16220,-10839 19130,-3806 h 775000 l 19130,3806 16230,10839 10830,16221 3810,19134 v 100000 l -3810,19134 -10830,16221 -16230,10839 -19130,3806 z"
     id="path2651" />
  <path
     style="fill:none;fill-opacity:1;fill-rule:evenodd;stroke:#000000;stroke-width:1;stroke-linecap:round;stroke-linejoin:round;stroke-opacity:1"
     d="m 38056139,19138533 -19130,-3806 -16220,-10839 -10840,-16221 -3810,-19134 v -100000 l 3810,-19134 10840,-16221 16220,-10839 19130,-3806 h 775000 l 19130,3806 16230,10839 10830,16221 3810,19134 v 100000 l -3810,19134 -10830,16221 -16230,10839 -19130,3806 z"
     id="path2653" />
  <path
     style="fill:none;fill-opacity:1;fill-rule:evenodd;stroke:#000000;stroke-width:1;stroke-linecap:round;stroke-linejoin:round;stroke-opacity:1"
     d="m 38056139,19538533 -19130,-3806 -16220,-10839 -10840,-16221 -3810,-19134 v -100000 l 3810,-19134 10840,-16221 16220,-10839 19130,-3806 h 775000 l 19130,3806 16230,10839 10830,16221 3810,19134 v 100000 l -3810,19134 -10830,16221 -16230,10839 -19130,3806 z"
     id="path2655" />
  <path
     style="fill:none;fill-opacity:1;fill-rule:evenodd;stroke:#000000;stroke-width:1;stroke-linecap:round;stroke-linejoin:round;stroke-opacity:1"
     d="m 38056139,19938533 -19130,-3806 -16220,-10839 -10840,-16221 -3810,-19134 v -100000 l 3810,-19134 10840,-16221 16220,-10839 19130,-3806 h 775000 l 19130,3806 16230,10839 10830,16221 3810,19134 v 100000 l -3810,19134 -10830,16221 -16230,10839 -19130,3806 z"
     id="path2657" />
  <path
     style="fill:none;fill-opacity:1;fill-rule:evenodd;stroke:#000000;stroke-width:1;stroke-linecap:round;stroke-linejoin:round;stroke-opacity:1"
     d="m 38056139,20338533 -19130,-3806 -16220,-10839 -10840,-16221 -3810,-19134 v -100000 l 3810,-19134 10840,-16221 16220,-10839 19130,-3806 h 775000 l 19130,3806 16230,10839 10830,16221 3810,19134 v 100000 l -3810,19134 -10830,16221 -16230,10839 -19130,3806 z"
     id="path2659" />
  <path
     style="fill:none;fill-opacity:1;fill-rule:evenodd;stroke:#000000;stroke-width:1;stroke-linecap:round;stroke-linejoin:round;stroke-opacity:1"
     d="m 38056139,20738533 -19130,-3806 -16220,-10839 -10840,-16221 -3810,-19134 v -100000 l 3810,-19134 10840,-16221 16220,-10839 19130,-3806 h 775000 l 19130,3806 16230,10839 10830,16221 3810,19134 v 100000 l -3810,19134 -10830,16221 -16230,10839 -19130,3806 z"
     id="path2661" />
  <path
     style="fill:none;fill-opacity:1;fill-rule:evenodd;stroke:#000000;stroke-width:1;stroke-linecap:round;stroke-linejoin:round;stroke-opacity:1"
     d="m 38056139,21138533 -19130,-3806 -16220,-10839 -10840,-16221 -3810,-19134 v -100000 l 3810,-19134 10840,-16221 16220,-10839 19130,-3806 h 775000 l 19130,3806 16230,10839 10830,16221 3810,19134 v 100000 l -3810,19134 -10830,16221 -16230,10839 -19130,3806 z"
     id="path2663" />
  <path
     style="fill:none;fill-opacity:1;fill-rule:evenodd;stroke:#000000;stroke-width:1;stroke-linecap:round;stroke-linejoin:round;stroke-opacity:1"
     d="m 38056139,21538533 -19130,-3806 -16220,-10839 -10840,-16221 -3810,-19134 v -100000 l 3810,-19134 10840,-16221 16220,-10839 19130,-3806 h 775000 l 19130,3806 16230,10839 10830,16221 3810,19134 v 100000 l -3810,19134 -10830,16221 -16230,10839 -19130,3806 z"
     id="path2665" />
  <path
     style="fill:none;fill-opacity:1;fill-rule:evenodd;stroke:#000000;stroke-width:1;stroke-linecap:round;stroke-linejoin:round;stroke-opacity:1"
     d="m 38056139,21938533 -19130,-3806 -16220,-10839 -10840,-16221 -3810,-19134 v -100000 l 3810,-19134 10840,-16221 16220,-10839 19130,-3806 h 775000 l 19130,3806 16230,10839 10830,16221 3810,19134 v 100000 l -3810,19134 -10830,16221 -16230,10839 -19130,3806 z"
     id="path2667" />
  <path
     style="fill:none;fill-opacity:1;fill-rule:evenodd;stroke:#000000;stroke-width:1;stroke-linecap:round;stroke-linejoin:round;stroke-opacity:1"
     d="m 38056139,22338533 -19130,-3806 -16220,-10839 -10840,-16221 -3810,-19134 v -100000 l 3810,-19134 10840,-16221 16220,-10839 19130,-3806 h 775000 l 19130,3806 16230,10839 10830,16221 3810,19134 v 100000 l -3810,19134 -10830,16221 -16230,10839 -19130,3806 z"
     id="path2669" />
  <path
     style="fill:none;fill-opacity:1;fill-rule:evenodd;stroke:#000000;stroke-width:1;stroke-linecap:round;stroke-linejoin:round;stroke-opacity:1"
     d="m 38056139,22738533 -19130,-3806 -16220,-10839 -10840,-16221 -3810,-19134 v -100000 l 3810,-19134 10840,-16221 16220,-10839 19130,-3806 h 775000 l 19130,3806 16230,10839 10830,16221 3810,19134 v 100000 l -3810,19134 -10830,16221 -16230,10839 -19130,3806 z"
     id="path2671" />
  <g
     id="g2675"
     style="fill:#000000;fill-opacity:0;stroke:#000000;stroke-width:0;stroke-linecap:round;stroke-linejoin:round;stroke-opacity:1"
     transform="translate(32.069354,22.376817)" />
  <path
     style="fill:none;fill-opacity:1;fill-rule:evenodd;stroke:#000000;stroke-width:1;stroke-linecap:round;stroke-linejoin:round;stroke-opacity:1"
     d="m 58131139,7428533.4 v -1160000 h 600000 v 1160000 z"
     id="path2677" />
  <path
     style="fill:none;fill-opacity:1;fill-rule:evenodd;stroke:#000000;stroke-width:1;stroke-linecap:round;stroke-linejoin:round;stroke-opacity:1"
     d="m 58931139,7428533.4 v -1160000 h 600000 v 1160000 z"
     id="path2679" />
  <path
     style="fill:none;fill-opacity:1;fill-rule:evenodd;stroke:#000000;stroke-width:1;stroke-linecap:round;stroke-linejoin:round;stroke-opacity:1"
     d="m 60531139,6268533.4 v 1160000 h -300000 v -1160000 z"
     id="path2681" />
  <path
     style="fill:none;fill-opacity:1;fill-rule:evenodd;stroke:#000000;stroke-width:1;stroke-linecap:round;stroke-linejoin:round;stroke-opacity:1"
     d="m 61531139,6268533.4 v 1160000 h -300000 v -1160000 z"
     id="path2683" />
  <path
     style="fill:none;fill-opacity:1;fill-rule:evenodd;stroke:#000000;stroke-width:1;stroke-linecap:round;stroke-linejoin:round;stroke-opacity:1"
     d="m 62031139,6268533.4 v 1160000 h -300000 v -1160000 z"
     id="path2685" />
  <path
     style="fill:none;fill-opacity:1;fill-rule:evenodd;stroke:#000000;stroke-width:1;stroke-linecap:round;stroke-linejoin:round;stroke-opacity:1"
     d="m 63031139,6268533.4 v 1160000 h -300000 v -1160000 z"
     id="path2687" />
  <path
     style="fill:none;fill-opacity:1;fill-rule:evenodd;stroke:#000000;stroke-width:1;stroke-linecap:round;stroke-linejoin:round;stroke-opacity:1"
     d="m 63731139,7428533.4 v -1160000 h 600000 v 1160000 z"
     id="path2689" />
  <path
     style="fill:none;fill-opacity:1;fill-rule:evenodd;stroke:#000000;stroke-width:1;stroke-linecap:round;stroke-linejoin:round;stroke-opacity:1"
     d="m 64531139,7428533.4 v -1160000 h 600000 v 1160000 z"
     id="path2691" />
  <path
     style="fill:none;fill-opacity:1;fill-rule:evenodd;stroke:#000000;stroke-width:1;stroke-linecap:round;stroke-linejoin:round;stroke-opacity:1"
     d="m 64531139,7428533.4 v -1160000 h 600000 v 1160000 z"
     id="path2693" />
  <path
     style="fill:none;fill-opacity:1;fill-rule:evenodd;stroke:#000000;stroke-width:1;stroke-linecap:round;stroke-linejoin:round;stroke-opacity:1"
     d="m 63731139,7428533.4 v -1160000 h 600000 v 1160000 z"
     id="path2695" />
  <path
     style="fill:none;fill-opacity:1;fill-rule:evenodd;stroke:#000000;stroke-width:1;stroke-linecap:round;stroke-linejoin:round;stroke-opacity:1"
     d="m 63531139,6268533.4 v 1160000 h -300000 v -1160000 z"
     id="path2697" />
  <path
     style="fill:none;fill-opacity:1;fill-rule:evenodd;stroke:#000000;stroke-width:1;stroke-linecap:round;stroke-linejoin:round;stroke-opacity:1"
     d="m 62531139,6268533.4 v 1160000 h -300000 v -1160000 z"
     id="path2699" />
  <path
     style="fill:none;fill-opacity:1;fill-rule:evenodd;stroke:#000000;stroke-width:1;stroke-linecap:round;stroke-linejoin:round;stroke-opacity:1"
     d="m 61031139,6268533.4 v 1160000 h -300000 v -1160000 z"
     id="path2701" />
  <path
     style="fill:none;fill-opacity:1;fill-rule:evenodd;stroke:#000000;stroke-width:1;stroke-linecap:round;stroke-linejoin:round;stroke-opacity:1"
     d="m 60031139,6268533.4 v 1160000 h -300000 v -1160000 z"
     id="path2703" />
  <path
     style="fill:none;fill-opacity:1;fill-rule:evenodd;stroke:#000000;stroke-width:1;stroke-linecap:round;stroke-linejoin:round;stroke-opacity:1"
     d="m 58931139,7428533.4 v -1160000 h 600000 v 1160000 z"
     id="path2705" />
  <path
     style="fill:none;fill-opacity:1;fill-rule:evenodd;stroke:#000000;stroke-width:1;stroke-linecap:round;stroke-linejoin:round;stroke-opacity:1"
     d="m 58131139,7428533.4 v -1160000 h 600000 v 1160000 z"
     id="path2707" />
  <g
     id="g2711"
     style="fill:#000000;fill-opacity:0;stroke:#000000;stroke-width:0;stroke-linecap:round;stroke-linejoin:round;stroke-opacity:1"
     transform="translate(32.069354,22.376817)" />
  <path
     style="fill:none;fill-opacity:1;fill-rule:evenodd;stroke:#000000;stroke-width:1;stroke-linecap:round;stroke-linejoin:round;stroke-opacity:1"
     d="m 66331139,13913533 -19030,95671 -54190,81106 -81110,54193 -95670,19030 h -750000 l -95670,-19030 -81110,-54193 -54190,-81106 -19030,-95671 v -1250000 l 19030,-95671 54190,-81106 81110,-54193 95670,-19030 h 750000 l 95670,19030 81110,54193 54190,81106 19030,95671 z"
     id="path2713" />
  <path
     style="fill:none;fill-opacity:1;fill-rule:evenodd;stroke:#000000;stroke-width:1;stroke-linecap:round;stroke-linejoin:round;stroke-opacity:1"
     d="m 63531139,13913533 -19030,95671 -54190,81106 -81110,54193 -95670,19030 h -750000 l -95670,-19030 -81110,-54193 -54190,-81106 -19030,-95671 v -1250000 l 19030,-95671 54190,-81106 81110,-54193 95670,-19030 h 750000 l 95670,19030 81110,54193 54190,81106 19030,95671 z"
     id="path2715" />
  <g
     id="g2719"
     style="fill:#000000;fill-opacity:0;stroke:#000000;stroke-width:0;stroke-linecap:round;stroke-linejoin:round;stroke-opacity:1"
     transform="translate(32.069354,22.376817)" />
  <path
     style="fill:none;fill-opacity:1;fill-rule:evenodd;stroke:#000000;stroke-width:1;stroke-linecap:round;stroke-linejoin:round;stroke-opacity:1"
     d="m 62871139,8788533.4 19030,-95671 54190,-81106 81110,-54193 95670,-19030 h 525000 l 95670,19030 81110,54193 54190,81106 19030,95671 v 900000 l -19030,95671 -54190,81106 -81110,54193 -95670,19030 h -525000 l -95670,-19030 -81110,-54193 -54190,-81106 -19030,-95671 z"
     id="path2721" />
  <path
     style="fill:none;fill-opacity:1;fill-rule:evenodd;stroke:#000000;stroke-width:1;stroke-linecap:round;stroke-linejoin:round;stroke-opacity:1"
     d="m 64696139,8788533.4 19030,-95671 54190,-81106 81110,-54193 95670,-19030 h 525000 l 95670,19030 81110,54193 54190,81106 19030,95671 v 900000 l -19030,95671 -54190,81106 -81110,54193 -95670,19030 h -525000 l -95670,-19030 -81110,-54193 -54190,-81106 -19030,-95671 z"
     id="path2723" />
  <g
     id="g2727"
     style="fill:#000000;fill-opacity:0;stroke:#000000;stroke-width:0;stroke-linecap:round;stroke-linejoin:round;stroke-opacity:1"
     transform="translate(32.069354,22.376817)" />
  <path
     style="fill:none;fill-opacity:1;fill-rule:evenodd;stroke:#000000;stroke-width:1;stroke-linecap:round;stroke-linejoin:round;stroke-opacity:1"
     d="m 34931139,14588533 -95670,-19030 -81110,-54193 -54190,-81106 -19030,-95671 v -500000 l 19030,-95671 54190,-81106 81110,-54193 95670,-19030 h 950000 l 95670,19030 81110,54193 54190,81106 19030,95671 v 500000 l -19030,95671 -54190,81106 -81110,54193 -95670,19030 z"
     id="path2729" />
  <path
     style="fill:none;fill-opacity:1;fill-rule:evenodd;stroke:#000000;stroke-width:1;stroke-linecap:round;stroke-linejoin:round;stroke-opacity:1"
     d="m 34931139,12688533 -95670,-19030 -81110,-54193 -54190,-81106 -19030,-95671 v -500000 l 19030,-95671 54190,-81106 81110,-54193 95670,-19030 h 950000 l 95670,19030 81110,54193 54190,81106 19030,95671 v 500000 l -19030,95671 -54190,81106 -81110,54193 -95670,19030 z"
     id="path2731" />
  <g
     id="g2735"
     style="fill:#000000;fill-opacity:0;stroke:#000000;stroke-width:0;stroke-linecap:round;stroke-linejoin:round;stroke-opacity:1"
     transform="translate(32.069354,22.376817)" />
  <path
     style="fill:none;fill-opacity:1;fill-rule:evenodd;stroke:#000000;stroke-width:1;stroke-linecap:round;stroke-linejoin:round;stroke-opacity:1"
     d="m 38241139,25518218 95670,19030 81110,54193 54190,81106 19030,95671 v 500000 l -19030,95671 -54190,81106 -81110,54193 -95670,19030 h -950000 l -95670,-19030 -81100,-54193 -54200,-81106 -19030,-95671 v -500000 l 19030,-95671 54200,-81106 81100,-54193 95670,-19030 z"
     id="path2737" />
  <path
     style="fill:none;fill-opacity:1;fill-rule:evenodd;stroke:#000000;stroke-width:1;stroke-linecap:round;stroke-linejoin:round;stroke-opacity:1"
     d="m 38241139,27418218 95670,19030 81110,54193 54190,81106 19030,95671 v 500000 l -19030,95671 -54190,81106 -81110,54193 -95670,19030 h -950000 l -95670,-19030 -81100,-54193 -54200,-81106 -19030,-95671 v -500000 l 19030,-95671 54200,-81106 81100,-54193 95670,-19030 z"
     id="path2739" />
  <g
     id="g2743"
     style="fill:#000000;fill-opacity:0;stroke:#000000;stroke-width:0;stroke-linecap:round;stroke-linejoin:round;stroke-opacity:1"
     transform="translate(32.069354,22.376817)" />
  <path
     style="fill:none;fill-opacity:1;fill-rule:evenodd;stroke:#000000;stroke-width:1;stroke-linecap:round;stroke-linejoin:round;stroke-opacity:1"
     d="m 31841429,25520615 95670,19030 81110,54193 54190,81106 19030,95671 v 500000 l -19030,95671 -54190,81106 -81110,54193 -95670,19030 h -950000 l -95670,-19030 -81110,-54193 -54190,-81106 -19030,-95671 v -500000 l 19030,-95671 54190,-81106 81110,-54193 95670,-19030 z"
     id="path2745" />
  <path
     style="fill:none;fill-opacity:1;fill-rule:evenodd;stroke:#000000;stroke-width:1;stroke-linecap:round;stroke-linejoin:round;stroke-opacity:1"
     d="m 31841429,27420615 95670,19030 81110,54193 54190,81106 19030,95671 v 500000 l -19030,95671 -54190,81106 -81110,54193 -95670,19030 h -950000 l -95670,-19030 -81110,-54193 -54190,-81106 -19030,-95671 v -500000 l 19030,-95671 54190,-81106 81110,-54193 95670,-19030 z"
     id="path2747" />
  <g
     id="g2751"
     style="fill:#000000;fill-opacity:0;stroke:#000000;stroke-width:0;stroke-linecap:round;stroke-linejoin:round;stroke-opacity:1"
     transform="translate(32.069354,22.376817)" />
  <path
     style="fill:none;fill-opacity:1;fill-rule:evenodd;stroke:#000000;stroke-width:1;stroke-linecap:round;stroke-linejoin:round;stroke-opacity:1"
     d="m 37031139,14588533 -95670,-19030 -81110,-54193 -54190,-81106 -19030,-95671 v -500000 l 19030,-95671 54190,-81106 81110,-54193 95670,-19030 h 950000 l 95670,19030 81110,54193 54190,81106 19030,95671 v 500000 l -19030,95671 -54190,81106 -81110,54193 -95670,19030 z"
     id="path2753" />
  <path
     style="fill:none;fill-opacity:1;fill-rule:evenodd;stroke:#000000;stroke-width:1;stroke-linecap:round;stroke-linejoin:round;stroke-opacity:1"
     d="m 37031139,12688533 -95670,-19030 -81110,-54193 -54190,-81106 -19030,-95671 v -500000 l 19030,-95671 54190,-81106 81110,-54193 95670,-19030 h 950000 l 95670,19030 81110,54193 54190,81106 19030,95671 v 500000 l -19030,95671 -54190,81106 -81110,54193 -95670,19030 z"
     id="path2755" />
  <g
     id="g2759"
     style="fill:#000000;fill-opacity:0;stroke:#000000;stroke-width:0;stroke-linecap:round;stroke-linejoin:round;stroke-opacity:1"
     transform="translate(32.069354,22.376817)" />
  <path
     style="fill:none;fill-opacity:1;fill-rule:evenodd;stroke:#000000;stroke-width:1;stroke-linecap:round;stroke-linejoin:round;stroke-opacity:1"
     d="m 39131139,14588533 -95670,-19030 -81110,-54193 -54190,-81106 -19030,-95671 v -500000 l 19030,-95671 54190,-81106 81110,-54193 95670,-19030 h 950000 l 95670,19030 81110,54193 54190,81106 19030,95671 v 500000 l -19030,95671 -54190,81106 -81110,54193 -95670,19030 z"
     id="path2761" />
  <path
     style="fill:none;fill-opacity:1;fill-rule:evenodd;stroke:#000000;stroke-width:1;stroke-linecap:round;stroke-linejoin:round;stroke-opacity:1"
     d="m 39131139,12688533 -95670,-19030 -81110,-54193 -54190,-81106 -19030,-95671 v -500000 l 19030,-95671 54190,-81106 81110,-54193 95670,-19030 h 950000 l 95670,19030 81110,54193 54190,81106 19030,95671 v 500000 l -19030,95671 -54190,81106 -81110,54193 -95670,19030 z"
     id="path2763" />
  <g
     id="g2767"
     style="fill:#000000;fill-opacity:0;stroke:#000000;stroke-width:0;stroke-linecap:round;stroke-linejoin:round;stroke-opacity:1"
     transform="translate(32.069354,22.376817)" />
  <g
     id="g2769"
     style="fill:#000000;fill-opacity:0;stroke:#000000;stroke-width:0;stroke-linecap:round;stroke-linejoin:round;stroke-opacity:1"
     transform="translate(32.069354,22.376817)" />
  <g
     id="g2771"
     style="fill:#000000;fill-opacity:0;stroke:#000000;stroke-width:0;stroke-linecap:round;stroke-linejoin:round;stroke-opacity:1"
     transform="translate(32.069354,22.376817)" />
  <path
     id="path2861"
     style="fill:#000000;fill-opacity:0;stroke:#000000;stroke-width:10000;stroke-linecap:round;stroke-linejoin:round;stroke-opacity:1"
     d="m 68923728,35106120 c 8330,-10883333 16670,-21766667 25000,-32649999.6 M 2456138.1,37488532 c 21339196.9,22529 42678392.9,45059 64017589.9,67588 M 1506138.1,12338532 c 0,0 0,2000000 0,2000000 M 68923728,35106120 c -816670,816664 -1633330,1633336 -2450000,2450000 M 6139.0694,2488532.4 c 0,0 0,8349999.6 0,8349999.6 M 2456139.1,38533.377 C 1155547.1,-4649.4709 -36679.956,1188460.8 6139.0694,2488532.4 M 2456139.1,38532.377 C 23803669,27728.377 45151198,16924.377 66498728,6120.3768 M 6138.0694,10838532 C 506138.07,11338532 1006138.1,11838532 1506138.1,12338532 M 6138.0694,15838532 c 0,0 0,19200000 0,19200000 m 0,-19200000 C 506138.07,15338532 1006138.1,14838532 1506138.1,14338532 M 6138.0694,35038532 C -37044.851,36339124 1156066.6,37531351 2456138.1,37488532 M 68948748,2456120.4 C 68991924,1155523.1 67798806,-36705.068 66498728,6120.3768"
     inkscape:path-effect="#path-effect4022"
     inkscape:original-d="m 68923728,35106120 c 8330,-10883333 16670,-21766667 25000,-32649999.6 M 2456138.1,37488532 c 21339196.9,22529 42678392.9,45059 64017589.9,67588 M 1506138.1,12338532 c 0,666667 0,1333333 0,2000000 M 68923728,35106120 c -816670,816664 -1633330,1633336 -2450000,2450000 M 6139.0694,2488532.4 c 0,2783333.3 0,5566666.7 0,8349999.6 M 2456139.1,38533.377 C 1155547.1,-4649.4709 -36679.956,1188460.8 6139.0694,2488532.4 M 2456139.1,38532.377 C 23803669,27728.377 45151198,16924.377 66498728,6120.3768 M 6138.0694,10838532 C 506138.07,11338532 1006138.1,11838532 1506138.1,12338532 M 6138.0694,15838532 c 0,6400000 0,12800000 0,19200000 m 0,-19200000 C 506138.07,15338532 1006138.1,14838532 1506138.1,14338532 M 6138.0694,35038532 C -37044.851,36339124 1156066.6,37531351 2456138.1,37488532 M 68948748,2456120.4 C 68991924,1155523.1 67798806,-36705.068 66498728,6120.3768" />
  <g
     id="g2863"
     transform="translate(-89993862,-54961468)"
     style="fill:#000000;fill-opacity:0;stroke:#000000;stroke-width:10000;stroke-linecap:round;stroke-linejoin:round;stroke-opacity:1" />
  <g
     id="g2865"
     transform="translate(-89993862,-54961468)"
     style="fill:#000000;fill-opacity:0;stroke:#000000;stroke-width:10000;stroke-linecap:round;stroke-linejoin:round;stroke-opacity:1" />
  <g
     id="g2867"
     transform="translate(-89993862,-54961468)"
     style="fill:#000000;fill-opacity:0;stroke:#000000;stroke-width:10000;stroke-linecap:round;stroke-linejoin:round;stroke-opacity:1" />
  <g
     id="g2869"
     transform="translate(-89993862,-54961468)"
     style="fill:#000000;fill-opacity:0;stroke:#000000;stroke-width:10000;stroke-linecap:round;stroke-linejoin:round;stroke-opacity:1" />
  <g
     id="g2871"
     transform="translate(-89993862,-54961468)"
     style="fill:#000000;fill-opacity:0;stroke:#000000;stroke-width:10000;stroke-linecap:round;stroke-linejoin:round;stroke-opacity:1" />
  <g
     id="g2873"
     transform="translate(-89993862,-54961468)"
     style="fill:#000000;fill-opacity:0;stroke:#000000;stroke-width:10000;stroke-linecap:round;stroke-linejoin:round;stroke-opacity:1" />
  <g
     id="g2875"
     transform="translate(-89993862,-54961468)"
     style="fill:#000000;fill-opacity:0;stroke:#000000;stroke-width:10000;stroke-linecap:round;stroke-linejoin:round;stroke-opacity:1" />
  <g
     id="g2877"
     transform="translate(-89993862,-54961468)"
     style="fill:#000000;fill-opacity:0;stroke:#000000;stroke-width:10000;stroke-linecap:round;stroke-linejoin:round;stroke-opacity:1" />
  <g
     id="g2879"
     transform="translate(-89993862,-54961468)"
     style="fill:#000000;fill-opacity:0;stroke:#000000;stroke-width:10000;stroke-linecap:round;stroke-linejoin:round;stroke-opacity:1" />
  <g
     id="g2881"
     transform="translate(-89993862,-54961468)"
     style="fill:#000000;fill-opacity:0;stroke:#000000;stroke-width:10000;stroke-linecap:round;stroke-linejoin:round;stroke-opacity:1" />
  <g
     id="g2883"
     transform="translate(-89993862,-54961468)"
     style="fill:#000000;fill-opacity:0;stroke:#000000;stroke-width:10000;stroke-linecap:round;stroke-linejoin:round;stroke-opacity:1" />
  <g
     id="g2885"
     transform="translate(-89993862,-54961468)"
     style="fill:#000000;fill-opacity:0;stroke:#000000;stroke-width:10000;stroke-linecap:round;stroke-linejoin:round;stroke-opacity:1" />
  <g
     id="g2887"
     transform="translate(-89993862,-54961468)"
     style="fill:#000000;fill-opacity:0;stroke:#000000;stroke-width:10000;stroke-linecap:round;stroke-linejoin:round;stroke-opacity:1" />
  <g
     id="g2889"
     transform="translate(-89993862,-54961468)"
     style="fill:#000000;fill-opacity:0;stroke:#000000;stroke-width:10000;stroke-linecap:round;stroke-linejoin:round;stroke-opacity:1" />
  <g
     id="g2891"
     transform="translate(-89993862,-54961468)"
     style="fill:#000000;fill-opacity:0;stroke:#000000;stroke-width:10000;stroke-linecap:round;stroke-linejoin:round;stroke-opacity:1" />
  <g
     id="g2893"
     transform="translate(-89993862,-54961468)"
     style="fill:#000000;fill-opacity:0;stroke:#000000;stroke-width:10000;stroke-linecap:round;stroke-linejoin:round;stroke-opacity:1" />
  <g
     id="g2895"
     transform="translate(-89993862,-54961468)"
     style="fill:#000000;fill-opacity:0;stroke:#000000;stroke-width:10000;stroke-linecap:round;stroke-linejoin:round;stroke-opacity:1" />
  <g
     id="g2897"
     transform="translate(-89993862,-54961468)"
     style="fill:#000000;fill-opacity:0;stroke:#000000;stroke-width:10000;stroke-linecap:round;stroke-linejoin:round;stroke-opacity:1" />
  <g
     id="g2899"
     transform="translate(-89993862,-54961468)"
     style="fill:#000000;fill-opacity:0;stroke:#000000;stroke-width:10000;stroke-linecap:round;stroke-linejoin:round;stroke-opacity:1" />
  <g
     id="g2901"
     transform="translate(-89993862,-54961468)"
     style="fill:#000000;fill-opacity:0;stroke:#000000;stroke-width:10000;stroke-linecap:round;stroke-linejoin:round;stroke-opacity:1" />
  <g
     id="g2903"
     transform="translate(-89993862,-54961468)"
     style="fill:#000000;fill-opacity:0;stroke:#000000;stroke-width:10000;stroke-linecap:round;stroke-linejoin:round;stroke-opacity:1" />
  <g
     id="g2905"
     transform="translate(-89993862,-54961468)"
     style="fill:#000000;fill-opacity:0;stroke:#000000;stroke-width:10000;stroke-linecap:round;stroke-linejoin:round;stroke-opacity:1" />
  <g
     id="g2907"
     transform="translate(-89993862,-54961468)"
     style="fill:#000000;fill-opacity:0;stroke:#000000;stroke-width:10000;stroke-linecap:round;stroke-linejoin:round;stroke-opacity:1" />
  <g
     id="g2909"
     transform="translate(-89993862,-54961468)"
     style="fill:#000000;fill-opacity:0;stroke:#000000;stroke-width:10000;stroke-linecap:round;stroke-linejoin:round;stroke-opacity:1" />
  <g
     id="g2911"
     transform="translate(-89993862,-54961468)"
     style="fill:#000000;fill-opacity:0;stroke:#000000;stroke-width:10000;stroke-linecap:round;stroke-linejoin:round;stroke-opacity:1" />
  <g
     id="g2913"
     transform="translate(-89993862,-54961468)"
     style="fill:#000000;fill-opacity:0;stroke:#000000;stroke-width:10000;stroke-linecap:round;stroke-linejoin:round;stroke-opacity:1" />
  <g
     id="g2915"
     transform="translate(-89993862,-54961468)"
     style="fill:#000000;fill-opacity:0;stroke:#000000;stroke-width:10000;stroke-linecap:round;stroke-linejoin:round;stroke-opacity:1" />
  <g
     id="g2917"
     transform="translate(-89993862,-54961468)"
     style="fill:#000000;fill-opacity:0;stroke:#000000;stroke-width:10000;stroke-linecap:round;stroke-linejoin:round;stroke-opacity:1" />
  <g
     id="g2919"
     transform="translate(-89993862,-54961468)"
     style="fill:#000000;fill-opacity:0;stroke:#000000;stroke-width:10000;stroke-linecap:round;stroke-linejoin:round;stroke-opacity:1" />
  <g
     id="g2921"
     transform="translate(-89993862,-54961468)"
     style="fill:#000000;fill-opacity:0;stroke:#000000;stroke-width:10000;stroke-linecap:round;stroke-linejoin:round;stroke-opacity:1" />
  <g
     id="g2923"
     transform="translate(-89993862,-54961468)"
     style="fill:#000000;fill-opacity:0;stroke:#000000;stroke-width:10000;stroke-linecap:round;stroke-linejoin:round;stroke-opacity:1" />
  <g
     id="g2925"
     transform="translate(-89993862,-54961468)"
     style="fill:#000000;fill-opacity:0;stroke:#000000;stroke-width:10000;stroke-linecap:round;stroke-linejoin:round;stroke-opacity:1" />
  <g
     id="g2927"
     transform="translate(-89993862,-54961468)"
     style="fill:#000000;fill-opacity:0;stroke:#000000;stroke-width:10000;stroke-linecap:round;stroke-linejoin:round;stroke-opacity:1" />
  <g
     id="g2929"
     transform="translate(-89993862,-54961468)"
     style="fill:#000000;fill-opacity:0;stroke:#000000;stroke-width:10000;stroke-linecap:round;stroke-linejoin:round;stroke-opacity:1" />
  <g
     id="g2931"
     transform="translate(-89993862,-54961468)"
     style="fill:#000000;fill-opacity:0;stroke:#000000;stroke-width:10000;stroke-linecap:round;stroke-linejoin:round;stroke-opacity:1" />
  <g
     id="g2933"
     transform="translate(-89993862,-54961468)"
     style="fill:#000000;fill-opacity:0;stroke:#000000;stroke-width:10000;stroke-linecap:round;stroke-linejoin:round;stroke-opacity:1" />
  <g
     id="g2935"
     transform="translate(-89993862,-54961468)"
     style="fill:#000000;fill-opacity:0;stroke:#000000;stroke-width:10000;stroke-linecap:round;stroke-linejoin:round;stroke-opacity:1" />
  <g
     id="g2937"
     transform="translate(-89993862,-54961468)"
     style="fill:#000000;fill-opacity:0;stroke:#000000;stroke-width:10000;stroke-linecap:round;stroke-linejoin:round;stroke-opacity:1" />
  <g
     id="g2939"
     transform="translate(-89993862,-54961468)"
     style="fill:#000000;fill-opacity:0;stroke:#000000;stroke-width:10000;stroke-linecap:round;stroke-linejoin:round;stroke-opacity:1" />
  <g
     id="g2941"
     transform="translate(-89993862,-54961468)"
     style="fill:#000000;fill-opacity:0;stroke:#000000;stroke-width:10000;stroke-linecap:round;stroke-linejoin:round;stroke-opacity:1" />
  <g
     id="g2943"
     transform="translate(-89993862,-54961468)"
     style="fill:#000000;fill-opacity:0;stroke:#000000;stroke-width:10000;stroke-linecap:round;stroke-linejoin:round;stroke-opacity:1" />
  <g
     id="g2945"
     transform="translate(-89993862,-54961468)"
     style="fill:#000000;fill-opacity:0;stroke:#000000;stroke-width:10000;stroke-linecap:round;stroke-linejoin:round;stroke-opacity:1" />
  <g
     id="g2947"
     transform="translate(-89993862,-54961468)"
     style="fill:#000000;fill-opacity:0;stroke:#000000;stroke-width:10000;stroke-linecap:round;stroke-linejoin:round;stroke-opacity:1" />
  <g
     id="g2949"
     transform="translate(-89993862,-54961468)"
     style="fill:#000000;fill-opacity:0;stroke:#000000;stroke-width:10000;stroke-linecap:round;stroke-linejoin:round;stroke-opacity:1" />
  <g
     id="g2951"
     transform="translate(-89993862,-54961468)"
     style="fill:#000000;fill-opacity:0;stroke:#000000;stroke-width:10000;stroke-linecap:round;stroke-linejoin:round;stroke-opacity:1" />
  <g
     id="g2953"
     transform="translate(-89993862,-54961468)"
     style="fill:#000000;fill-opacity:0;stroke:#000000;stroke-width:10000;stroke-linecap:round;stroke-linejoin:round;stroke-opacity:1" />
  <g
     id="g2955"
     transform="translate(-89993862,-54961468)"
     style="fill:#000000;fill-opacity:0;stroke:#000000;stroke-width:10000;stroke-linecap:round;stroke-linejoin:round;stroke-opacity:1" />
  <g
     id="g2957"
     transform="translate(-89993862,-54961468)"
     style="fill:#000000;fill-opacity:0;stroke:#000000;stroke-width:10000;stroke-linecap:round;stroke-linejoin:round;stroke-opacity:1" />
  <g
     id="g2959"
     transform="translate(-89993862,-54961468)"
     style="fill:#000000;fill-opacity:0;stroke:#000000;stroke-width:10000;stroke-linecap:round;stroke-linejoin:round;stroke-opacity:1" />
  <g
     id="g2961"
     transform="translate(-89993862,-54961468)"
     style="fill:#000000;fill-opacity:0;stroke:#000000;stroke-width:10000;stroke-linecap:round;stroke-linejoin:round;stroke-opacity:1" />
  <g
     id="g2963"
     transform="translate(-89993862,-54961468)"
     style="fill:#000000;fill-opacity:0;stroke:#000000;stroke-width:10000;stroke-linecap:round;stroke-linejoin:round;stroke-opacity:1" />
  <g
     id="g2965"
     transform="translate(-89993862,-54961468)"
     style="fill:#000000;fill-opacity:0;stroke:#000000;stroke-width:10000;stroke-linecap:round;stroke-linejoin:round;stroke-opacity:1" />
  <g
     id="g2967"
     transform="translate(-89993862,-54961468)"
     style="fill:#000000;fill-opacity:0;stroke:#000000;stroke-width:10000;stroke-linecap:round;stroke-linejoin:round;stroke-opacity:1" />
  <g
     id="g2969"
     transform="translate(-89993862,-54961468)"
     style="fill:#000000;fill-opacity:0;stroke:#000000;stroke-width:10000;stroke-linecap:round;stroke-linejoin:round;stroke-opacity:1" />
  <g
     id="g2971"
     transform="translate(-89993862,-54961468)"
     style="fill:#000000;fill-opacity:0;stroke:#000000;stroke-width:10000;stroke-linecap:round;stroke-linejoin:round;stroke-opacity:1" />
  <g
     id="g2973"
     transform="translate(-89993862,-54961468)"
     style="fill:#000000;fill-opacity:0;stroke:#000000;stroke-width:10000;stroke-linecap:round;stroke-linejoin:round;stroke-opacity:1" />
  <g
     id="g2975"
     transform="translate(-89993862,-54961468)"
     style="fill:#000000;fill-opacity:0;stroke:#000000;stroke-width:10000;stroke-linecap:round;stroke-linejoin:round;stroke-opacity:1" />
  <g
     id="g2977"
     transform="translate(-89993862,-54961468)"
     style="fill:#000000;fill-opacity:0;stroke:#000000;stroke-width:10000;stroke-linecap:round;stroke-linejoin:round;stroke-opacity:1" />
</svg>
