%TF.GenerationSoftware,KiCad,Pcbnew,(6.0.8)*%
%TF.CreationDate,2022-10-11T12:28:16+11:00*%
%TF.ProjectId,PicoGamePad_V3_0_0_A,5069636f-4761-46d6-9550-61645f56335f,4.0.0 (Rev A)*%
%TF.SameCoordinates,Original*%
%TF.FileFunction,Legend,Bot*%
%TF.FilePolarity,Positive*%
%FSLAX46Y46*%
G04 Gerber Fmt 4.6, Leading zero omitted, Abs format (unit mm)*
G04 Created by KiCad (PCBNEW (6.0.8)) date 2022-10-11 12:28:16*
%MOMM*%
%LPD*%
G01*
G04 APERTURE LIST*
%ADD10C,0.150000*%
%ADD11C,0.120000*%
G04 APERTURE END LIST*
D10*
X120305902Y-79550000D02*
G75*
G03*
X120305902Y-79550000I-55902J0D01*
G01*
X146205902Y-76825000D02*
G75*
G03*
X146205902Y-76825000I-55902J0D01*
G01*
X128180902Y-78600000D02*
G75*
G03*
X128180902Y-78600000I-55902J0D01*
G01*
X134905902Y-84625000D02*
G75*
G03*
X134905902Y-84625000I-55902J0D01*
G01*
X149305902Y-89200000D02*
G75*
G03*
X149305902Y-89200000I-55902J0D01*
G01*
%TO.C,R3*%
X135366666Y-74902380D02*
X135700000Y-74426190D01*
X135938095Y-74902380D02*
X135938095Y-73902380D01*
X135557142Y-73902380D01*
X135461904Y-73950000D01*
X135414285Y-73997619D01*
X135366666Y-74092857D01*
X135366666Y-74235714D01*
X135414285Y-74330952D01*
X135461904Y-74378571D01*
X135557142Y-74426190D01*
X135938095Y-74426190D01*
X135033333Y-73902380D02*
X134414285Y-73902380D01*
X134747619Y-74283333D01*
X134604761Y-74283333D01*
X134509523Y-74330952D01*
X134461904Y-74378571D01*
X134414285Y-74473809D01*
X134414285Y-74711904D01*
X134461904Y-74807142D01*
X134509523Y-74854761D01*
X134604761Y-74902380D01*
X134890476Y-74902380D01*
X134985714Y-74854761D01*
X135033333Y-74807142D01*
%TO.C,U1*%
X145461904Y-75627380D02*
X145461904Y-76436904D01*
X145414285Y-76532142D01*
X145366666Y-76579761D01*
X145271428Y-76627380D01*
X145080952Y-76627380D01*
X144985714Y-76579761D01*
X144938095Y-76532142D01*
X144890476Y-76436904D01*
X144890476Y-75627380D01*
X143890476Y-76627380D02*
X144461904Y-76627380D01*
X144176190Y-76627380D02*
X144176190Y-75627380D01*
X144271428Y-75770238D01*
X144366666Y-75865476D01*
X144461904Y-75913095D01*
%TO.C,R2*%
X135366666Y-73102380D02*
X135700000Y-72626190D01*
X135938095Y-73102380D02*
X135938095Y-72102380D01*
X135557142Y-72102380D01*
X135461904Y-72150000D01*
X135414285Y-72197619D01*
X135366666Y-72292857D01*
X135366666Y-72435714D01*
X135414285Y-72530952D01*
X135461904Y-72578571D01*
X135557142Y-72626190D01*
X135938095Y-72626190D01*
X134985714Y-72197619D02*
X134938095Y-72150000D01*
X134842857Y-72102380D01*
X134604761Y-72102380D01*
X134509523Y-72150000D01*
X134461904Y-72197619D01*
X134414285Y-72292857D01*
X134414285Y-72388095D01*
X134461904Y-72530952D01*
X135033333Y-73102380D01*
X134414285Y-73102380D01*
%TO.C,C7*%
X138866666Y-76307142D02*
X138914285Y-76354761D01*
X139057142Y-76402380D01*
X139152380Y-76402380D01*
X139295238Y-76354761D01*
X139390476Y-76259523D01*
X139438095Y-76164285D01*
X139485714Y-75973809D01*
X139485714Y-75830952D01*
X139438095Y-75640476D01*
X139390476Y-75545238D01*
X139295238Y-75450000D01*
X139152380Y-75402380D01*
X139057142Y-75402380D01*
X138914285Y-75450000D01*
X138866666Y-75497619D01*
X138533333Y-75402380D02*
X137866666Y-75402380D01*
X138295238Y-76402380D01*
%TO.C,U3*%
X135427380Y-83088095D02*
X136236904Y-83088095D01*
X136332142Y-83135714D01*
X136379761Y-83183333D01*
X136427380Y-83278571D01*
X136427380Y-83469047D01*
X136379761Y-83564285D01*
X136332142Y-83611904D01*
X136236904Y-83659523D01*
X135427380Y-83659523D01*
X135427380Y-84040476D02*
X135427380Y-84659523D01*
X135808333Y-84326190D01*
X135808333Y-84469047D01*
X135855952Y-84564285D01*
X135903571Y-84611904D01*
X135998809Y-84659523D01*
X136236904Y-84659523D01*
X136332142Y-84611904D01*
X136379761Y-84564285D01*
X136427380Y-84469047D01*
X136427380Y-84183333D01*
X136379761Y-84088095D01*
X136332142Y-84040476D01*
%TO.C,C14*%
X121007142Y-84907142D02*
X121054761Y-84859523D01*
X121102380Y-84716666D01*
X121102380Y-84621428D01*
X121054761Y-84478571D01*
X120959523Y-84383333D01*
X120864285Y-84335714D01*
X120673809Y-84288095D01*
X120530952Y-84288095D01*
X120340476Y-84335714D01*
X120245238Y-84383333D01*
X120150000Y-84478571D01*
X120102380Y-84621428D01*
X120102380Y-84716666D01*
X120150000Y-84859523D01*
X120197619Y-84907142D01*
X121102380Y-85859523D02*
X121102380Y-85288095D01*
X121102380Y-85573809D02*
X120102380Y-85573809D01*
X120245238Y-85478571D01*
X120340476Y-85383333D01*
X120388095Y-85288095D01*
X120435714Y-86716666D02*
X121102380Y-86716666D01*
X120054761Y-86478571D02*
X120769047Y-86240476D01*
X120769047Y-86859523D01*
%TO.C,C18*%
X125657142Y-84907142D02*
X125704761Y-84859523D01*
X125752380Y-84716666D01*
X125752380Y-84621428D01*
X125704761Y-84478571D01*
X125609523Y-84383333D01*
X125514285Y-84335714D01*
X125323809Y-84288095D01*
X125180952Y-84288095D01*
X124990476Y-84335714D01*
X124895238Y-84383333D01*
X124800000Y-84478571D01*
X124752380Y-84621428D01*
X124752380Y-84716666D01*
X124800000Y-84859523D01*
X124847619Y-84907142D01*
X125752380Y-85859523D02*
X125752380Y-85288095D01*
X125752380Y-85573809D02*
X124752380Y-85573809D01*
X124895238Y-85478571D01*
X124990476Y-85383333D01*
X125038095Y-85288095D01*
X125180952Y-86430952D02*
X125133333Y-86335714D01*
X125085714Y-86288095D01*
X124990476Y-86240476D01*
X124942857Y-86240476D01*
X124847619Y-86288095D01*
X124800000Y-86335714D01*
X124752380Y-86430952D01*
X124752380Y-86621428D01*
X124800000Y-86716666D01*
X124847619Y-86764285D01*
X124942857Y-86811904D01*
X124990476Y-86811904D01*
X125085714Y-86764285D01*
X125133333Y-86716666D01*
X125180952Y-86621428D01*
X125180952Y-86430952D01*
X125228571Y-86335714D01*
X125276190Y-86288095D01*
X125371428Y-86240476D01*
X125561904Y-86240476D01*
X125657142Y-86288095D01*
X125704761Y-86335714D01*
X125752380Y-86430952D01*
X125752380Y-86621428D01*
X125704761Y-86716666D01*
X125657142Y-86764285D01*
X125561904Y-86811904D01*
X125371428Y-86811904D01*
X125276190Y-86764285D01*
X125228571Y-86716666D01*
X125180952Y-86621428D01*
%TO.C,LED1*%
X153944047Y-83752380D02*
X154420238Y-83752380D01*
X154420238Y-82752380D01*
X153610714Y-83228571D02*
X153277380Y-83228571D01*
X153134523Y-83752380D02*
X153610714Y-83752380D01*
X153610714Y-82752380D01*
X153134523Y-82752380D01*
X152705952Y-83752380D02*
X152705952Y-82752380D01*
X152467857Y-82752380D01*
X152325000Y-82800000D01*
X152229761Y-82895238D01*
X152182142Y-82990476D01*
X152134523Y-83180952D01*
X152134523Y-83323809D01*
X152182142Y-83514285D01*
X152229761Y-83609523D01*
X152325000Y-83704761D01*
X152467857Y-83752380D01*
X152705952Y-83752380D01*
X151182142Y-83752380D02*
X151753571Y-83752380D01*
X151467857Y-83752380D02*
X151467857Y-82752380D01*
X151563095Y-82895238D01*
X151658333Y-82990476D01*
X151753571Y-83038095D01*
%TO.C,C11*%
X123657142Y-63690475D02*
X123704761Y-63642856D01*
X123752380Y-63499999D01*
X123752380Y-63404761D01*
X123704761Y-63261904D01*
X123609523Y-63166666D01*
X123514285Y-63119047D01*
X123323809Y-63071428D01*
X123180952Y-63071428D01*
X122990476Y-63119047D01*
X122895238Y-63166666D01*
X122800000Y-63261904D01*
X122752380Y-63404761D01*
X122752380Y-63499999D01*
X122800000Y-63642856D01*
X122847619Y-63690475D01*
X123752380Y-64642856D02*
X123752380Y-64071428D01*
X123752380Y-64357142D02*
X122752380Y-64357142D01*
X122895238Y-64261904D01*
X122990476Y-64166666D01*
X123038095Y-64071428D01*
X123752380Y-65595237D02*
X123752380Y-65023809D01*
X123752380Y-65309523D02*
X122752380Y-65309523D01*
X122895238Y-65214285D01*
X122990476Y-65119047D01*
X123038095Y-65023809D01*
%TO.C,C15*%
X121557142Y-63690475D02*
X121604761Y-63642856D01*
X121652380Y-63499999D01*
X121652380Y-63404761D01*
X121604761Y-63261904D01*
X121509523Y-63166666D01*
X121414285Y-63119047D01*
X121223809Y-63071428D01*
X121080952Y-63071428D01*
X120890476Y-63119047D01*
X120795238Y-63166666D01*
X120700000Y-63261904D01*
X120652380Y-63404761D01*
X120652380Y-63499999D01*
X120700000Y-63642856D01*
X120747619Y-63690475D01*
X121652380Y-64642856D02*
X121652380Y-64071428D01*
X121652380Y-64357142D02*
X120652380Y-64357142D01*
X120795238Y-64261904D01*
X120890476Y-64166666D01*
X120938095Y-64071428D01*
X120652380Y-65547618D02*
X120652380Y-65071428D01*
X121128571Y-65023809D01*
X121080952Y-65071428D01*
X121033333Y-65166666D01*
X121033333Y-65404761D01*
X121080952Y-65499999D01*
X121128571Y-65547618D01*
X121223809Y-65595237D01*
X121461904Y-65595237D01*
X121557142Y-65547618D01*
X121604761Y-65499999D01*
X121652380Y-65404761D01*
X121652380Y-65166666D01*
X121604761Y-65071428D01*
X121557142Y-65023809D01*
%TO.C,C6*%
X114192856Y-75207142D02*
X114240475Y-75254761D01*
X114383332Y-75302380D01*
X114478570Y-75302380D01*
X114621428Y-75254761D01*
X114716666Y-75159523D01*
X114764285Y-75064285D01*
X114811904Y-74873809D01*
X114811904Y-74730952D01*
X114764285Y-74540476D01*
X114716666Y-74445238D01*
X114621428Y-74350000D01*
X114478570Y-74302380D01*
X114383332Y-74302380D01*
X114240475Y-74350000D01*
X114192856Y-74397619D01*
X113335713Y-74302380D02*
X113526190Y-74302380D01*
X113621428Y-74350000D01*
X113669047Y-74397619D01*
X113764285Y-74540476D01*
X113811904Y-74730952D01*
X113811904Y-75111904D01*
X113764285Y-75207142D01*
X113716666Y-75254761D01*
X113621428Y-75302380D01*
X113430951Y-75302380D01*
X113335713Y-75254761D01*
X113288094Y-75207142D01*
X113240475Y-75111904D01*
X113240475Y-74873809D01*
X113288094Y-74778571D01*
X113335713Y-74730952D01*
X113430951Y-74683333D01*
X113621428Y-74683333D01*
X113716666Y-74730952D01*
X113764285Y-74778571D01*
X113811904Y-74873809D01*
%TO.C,Y1*%
X114573809Y-77651190D02*
X114573809Y-78127380D01*
X114907142Y-77127380D02*
X114573809Y-77651190D01*
X114240476Y-77127380D01*
X113383333Y-78127380D02*
X113954761Y-78127380D01*
X113669047Y-78127380D02*
X113669047Y-77127380D01*
X113764285Y-77270238D01*
X113859523Y-77365476D01*
X113954761Y-77413095D01*
%TO.C,C5*%
X114166666Y-81157142D02*
X114214285Y-81204761D01*
X114357142Y-81252380D01*
X114452380Y-81252380D01*
X114595238Y-81204761D01*
X114690476Y-81109523D01*
X114738095Y-81014285D01*
X114785714Y-80823809D01*
X114785714Y-80680952D01*
X114738095Y-80490476D01*
X114690476Y-80395238D01*
X114595238Y-80300000D01*
X114452380Y-80252380D01*
X114357142Y-80252380D01*
X114214285Y-80300000D01*
X114166666Y-80347619D01*
X113261904Y-80252380D02*
X113738095Y-80252380D01*
X113785714Y-80728571D01*
X113738095Y-80680952D01*
X113642857Y-80633333D01*
X113404761Y-80633333D01*
X113309523Y-80680952D01*
X113261904Y-80728571D01*
X113214285Y-80823809D01*
X113214285Y-81061904D01*
X113261904Y-81157142D01*
X113309523Y-81204761D01*
X113404761Y-81252380D01*
X113642857Y-81252380D01*
X113738095Y-81204761D01*
X113785714Y-81157142D01*
%TO.C,C9*%
X135366666Y-71307142D02*
X135414285Y-71354761D01*
X135557142Y-71402380D01*
X135652380Y-71402380D01*
X135795238Y-71354761D01*
X135890476Y-71259523D01*
X135938095Y-71164285D01*
X135985714Y-70973809D01*
X135985714Y-70830952D01*
X135938095Y-70640476D01*
X135890476Y-70545238D01*
X135795238Y-70450000D01*
X135652380Y-70402380D01*
X135557142Y-70402380D01*
X135414285Y-70450000D01*
X135366666Y-70497619D01*
X134890476Y-71402380D02*
X134700000Y-71402380D01*
X134604761Y-71354761D01*
X134557142Y-71307142D01*
X134461904Y-71164285D01*
X134414285Y-70973809D01*
X134414285Y-70592857D01*
X134461904Y-70497619D01*
X134509523Y-70450000D01*
X134604761Y-70402380D01*
X134795238Y-70402380D01*
X134890476Y-70450000D01*
X134938095Y-70497619D01*
X134985714Y-70592857D01*
X134985714Y-70830952D01*
X134938095Y-70926190D01*
X134890476Y-70973809D01*
X134795238Y-71021428D01*
X134604761Y-71021428D01*
X134509523Y-70973809D01*
X134461904Y-70926190D01*
X134414285Y-70830952D01*
%TO.C,R6*%
X138602380Y-80833333D02*
X138126190Y-80500000D01*
X138602380Y-80261904D02*
X137602380Y-80261904D01*
X137602380Y-80642857D01*
X137650000Y-80738095D01*
X137697619Y-80785714D01*
X137792857Y-80833333D01*
X137935714Y-80833333D01*
X138030952Y-80785714D01*
X138078571Y-80738095D01*
X138126190Y-80642857D01*
X138126190Y-80261904D01*
X137602380Y-81690476D02*
X137602380Y-81500000D01*
X137650000Y-81404761D01*
X137697619Y-81357142D01*
X137840476Y-81261904D01*
X138030952Y-81214285D01*
X138411904Y-81214285D01*
X138507142Y-81261904D01*
X138554761Y-81309523D01*
X138602380Y-81404761D01*
X138602380Y-81595238D01*
X138554761Y-81690476D01*
X138507142Y-81738095D01*
X138411904Y-81785714D01*
X138173809Y-81785714D01*
X138078571Y-81738095D01*
X138030952Y-81690476D01*
X137983333Y-81595238D01*
X137983333Y-81404761D01*
X138030952Y-81309523D01*
X138078571Y-81261904D01*
X138173809Y-81214285D01*
%TO.C,C3*%
X140816666Y-71482142D02*
X140864285Y-71529761D01*
X141007142Y-71577380D01*
X141102380Y-71577380D01*
X141245238Y-71529761D01*
X141340476Y-71434523D01*
X141388095Y-71339285D01*
X141435714Y-71148809D01*
X141435714Y-71005952D01*
X141388095Y-70815476D01*
X141340476Y-70720238D01*
X141245238Y-70625000D01*
X141102380Y-70577380D01*
X141007142Y-70577380D01*
X140864285Y-70625000D01*
X140816666Y-70672619D01*
X140483333Y-70577380D02*
X139864285Y-70577380D01*
X140197619Y-70958333D01*
X140054761Y-70958333D01*
X139959523Y-71005952D01*
X139911904Y-71053571D01*
X139864285Y-71148809D01*
X139864285Y-71386904D01*
X139911904Y-71482142D01*
X139959523Y-71529761D01*
X140054761Y-71577380D01*
X140340476Y-71577380D01*
X140435714Y-71529761D01*
X140483333Y-71482142D01*
%TO.C,C2*%
X140816666Y-74057142D02*
X140864285Y-74104761D01*
X141007142Y-74152380D01*
X141102380Y-74152380D01*
X141245238Y-74104761D01*
X141340476Y-74009523D01*
X141388095Y-73914285D01*
X141435714Y-73723809D01*
X141435714Y-73580952D01*
X141388095Y-73390476D01*
X141340476Y-73295238D01*
X141245238Y-73200000D01*
X141102380Y-73152380D01*
X141007142Y-73152380D01*
X140864285Y-73200000D01*
X140816666Y-73247619D01*
X140435714Y-73247619D02*
X140388095Y-73200000D01*
X140292857Y-73152380D01*
X140054761Y-73152380D01*
X139959523Y-73200000D01*
X139911904Y-73247619D01*
X139864285Y-73342857D01*
X139864285Y-73438095D01*
X139911904Y-73580952D01*
X140483333Y-74152380D01*
X139864285Y-74152380D01*
%TO.C,R5*%
X148206666Y-66472380D02*
X148540000Y-65996190D01*
X148778095Y-66472380D02*
X148778095Y-65472380D01*
X148397142Y-65472380D01*
X148301904Y-65520000D01*
X148254285Y-65567619D01*
X148206666Y-65662857D01*
X148206666Y-65805714D01*
X148254285Y-65900952D01*
X148301904Y-65948571D01*
X148397142Y-65996190D01*
X148778095Y-65996190D01*
X147301904Y-65472380D02*
X147778095Y-65472380D01*
X147825714Y-65948571D01*
X147778095Y-65900952D01*
X147682857Y-65853333D01*
X147444761Y-65853333D01*
X147349523Y-65900952D01*
X147301904Y-65948571D01*
X147254285Y-66043809D01*
X147254285Y-66281904D01*
X147301904Y-66377142D01*
X147349523Y-66424761D01*
X147444761Y-66472380D01*
X147682857Y-66472380D01*
X147778095Y-66424761D01*
X147825714Y-66377142D01*
%TO.C,C17*%
X114192857Y-70857142D02*
X114240476Y-70904761D01*
X114383333Y-70952380D01*
X114478571Y-70952380D01*
X114621428Y-70904761D01*
X114716666Y-70809523D01*
X114764285Y-70714285D01*
X114811904Y-70523809D01*
X114811904Y-70380952D01*
X114764285Y-70190476D01*
X114716666Y-70095238D01*
X114621428Y-70000000D01*
X114478571Y-69952380D01*
X114383333Y-69952380D01*
X114240476Y-70000000D01*
X114192857Y-70047619D01*
X113240476Y-70952380D02*
X113811904Y-70952380D01*
X113526190Y-70952380D02*
X113526190Y-69952380D01*
X113621428Y-70095238D01*
X113716666Y-70190476D01*
X113811904Y-70238095D01*
X112907142Y-69952380D02*
X112240476Y-69952380D01*
X112669047Y-70952380D01*
%TO.C,C1*%
X146066666Y-87807142D02*
X146114285Y-87854761D01*
X146257142Y-87902380D01*
X146352380Y-87902380D01*
X146495238Y-87854761D01*
X146590476Y-87759523D01*
X146638095Y-87664285D01*
X146685714Y-87473809D01*
X146685714Y-87330952D01*
X146638095Y-87140476D01*
X146590476Y-87045238D01*
X146495238Y-86950000D01*
X146352380Y-86902380D01*
X146257142Y-86902380D01*
X146114285Y-86950000D01*
X146066666Y-86997619D01*
X145114285Y-87902380D02*
X145685714Y-87902380D01*
X145400000Y-87902380D02*
X145400000Y-86902380D01*
X145495238Y-87045238D01*
X145590476Y-87140476D01*
X145685714Y-87188095D01*
%TO.C,C10*%
X114192857Y-73157142D02*
X114240476Y-73204761D01*
X114383333Y-73252380D01*
X114478571Y-73252380D01*
X114621428Y-73204761D01*
X114716666Y-73109523D01*
X114764285Y-73014285D01*
X114811904Y-72823809D01*
X114811904Y-72680952D01*
X114764285Y-72490476D01*
X114716666Y-72395238D01*
X114621428Y-72300000D01*
X114478571Y-72252380D01*
X114383333Y-72252380D01*
X114240476Y-72300000D01*
X114192857Y-72347619D01*
X113240476Y-73252380D02*
X113811904Y-73252380D01*
X113526190Y-73252380D02*
X113526190Y-72252380D01*
X113621428Y-72395238D01*
X113716666Y-72490476D01*
X113811904Y-72538095D01*
X112621428Y-72252380D02*
X112526190Y-72252380D01*
X112430952Y-72300000D01*
X112383333Y-72347619D01*
X112335714Y-72442857D01*
X112288095Y-72633333D01*
X112288095Y-72871428D01*
X112335714Y-73061904D01*
X112383333Y-73157142D01*
X112430952Y-73204761D01*
X112526190Y-73252380D01*
X112621428Y-73252380D01*
X112716666Y-73204761D01*
X112764285Y-73157142D01*
X112811904Y-73061904D01*
X112859523Y-72871428D01*
X112859523Y-72633333D01*
X112811904Y-72442857D01*
X112764285Y-72347619D01*
X112716666Y-72300000D01*
X112621428Y-72252380D01*
%TO.C,U4*%
X121311904Y-70052380D02*
X121311904Y-70861904D01*
X121264285Y-70957142D01*
X121216666Y-71004761D01*
X121121428Y-71052380D01*
X120930952Y-71052380D01*
X120835714Y-71004761D01*
X120788095Y-70957142D01*
X120740476Y-70861904D01*
X120740476Y-70052380D01*
X119835714Y-70385714D02*
X119835714Y-71052380D01*
X120073809Y-70004761D02*
X120311904Y-70719047D01*
X119692857Y-70719047D01*
%TO.C,J1*%
X146083333Y-55252380D02*
X146083333Y-55966666D01*
X146130952Y-56109523D01*
X146226190Y-56204761D01*
X146369047Y-56252380D01*
X146464285Y-56252380D01*
X145083333Y-56252380D02*
X145654761Y-56252380D01*
X145369047Y-56252380D02*
X145369047Y-55252380D01*
X145464285Y-55395238D01*
X145559523Y-55490476D01*
X145654761Y-55538095D01*
%TO.C,F1*%
X151033333Y-68203571D02*
X151366666Y-68203571D01*
X151366666Y-68727380D02*
X151366666Y-67727380D01*
X150890476Y-67727380D01*
X149985714Y-68727380D02*
X150557142Y-68727380D01*
X150271428Y-68727380D02*
X150271428Y-67727380D01*
X150366666Y-67870238D01*
X150461904Y-67965476D01*
X150557142Y-68013095D01*
%TO.C,R1*%
X155341666Y-66472380D02*
X155675000Y-65996190D01*
X155913095Y-66472380D02*
X155913095Y-65472380D01*
X155532142Y-65472380D01*
X155436904Y-65520000D01*
X155389285Y-65567619D01*
X155341666Y-65662857D01*
X155341666Y-65805714D01*
X155389285Y-65900952D01*
X155436904Y-65948571D01*
X155532142Y-65996190D01*
X155913095Y-65996190D01*
X154389285Y-66472380D02*
X154960714Y-66472380D01*
X154675000Y-66472380D02*
X154675000Y-65472380D01*
X154770238Y-65615238D01*
X154865476Y-65710476D01*
X154960714Y-65758095D01*
%TO.C,C12*%
X125607142Y-63690475D02*
X125654761Y-63642856D01*
X125702380Y-63499999D01*
X125702380Y-63404761D01*
X125654761Y-63261904D01*
X125559523Y-63166666D01*
X125464285Y-63119047D01*
X125273809Y-63071428D01*
X125130952Y-63071428D01*
X124940476Y-63119047D01*
X124845238Y-63166666D01*
X124750000Y-63261904D01*
X124702380Y-63404761D01*
X124702380Y-63499999D01*
X124750000Y-63642856D01*
X124797619Y-63690475D01*
X125702380Y-64642856D02*
X125702380Y-64071428D01*
X125702380Y-64357142D02*
X124702380Y-64357142D01*
X124845238Y-64261904D01*
X124940476Y-64166666D01*
X124988095Y-64071428D01*
X124797619Y-65023809D02*
X124750000Y-65071428D01*
X124702380Y-65166666D01*
X124702380Y-65404761D01*
X124750000Y-65499999D01*
X124797619Y-65547618D01*
X124892857Y-65595237D01*
X124988095Y-65595237D01*
X125130952Y-65547618D01*
X125702380Y-64976190D01*
X125702380Y-65595237D01*
%TO.C,C13*%
X128132142Y-84907142D02*
X128179761Y-84859523D01*
X128227380Y-84716666D01*
X128227380Y-84621428D01*
X128179761Y-84478571D01*
X128084523Y-84383333D01*
X127989285Y-84335714D01*
X127798809Y-84288095D01*
X127655952Y-84288095D01*
X127465476Y-84335714D01*
X127370238Y-84383333D01*
X127275000Y-84478571D01*
X127227380Y-84621428D01*
X127227380Y-84716666D01*
X127275000Y-84859523D01*
X127322619Y-84907142D01*
X128227380Y-85859523D02*
X128227380Y-85288095D01*
X128227380Y-85573809D02*
X127227380Y-85573809D01*
X127370238Y-85478571D01*
X127465476Y-85383333D01*
X127513095Y-85288095D01*
X127227380Y-86192857D02*
X127227380Y-86811904D01*
X127608333Y-86478571D01*
X127608333Y-86621428D01*
X127655952Y-86716666D01*
X127703571Y-86764285D01*
X127798809Y-86811904D01*
X128036904Y-86811904D01*
X128132142Y-86764285D01*
X128179761Y-86716666D01*
X128227380Y-86621428D01*
X128227380Y-86335714D01*
X128179761Y-86240476D01*
X128132142Y-86192857D01*
%TO.C,C16*%
X119457142Y-84907142D02*
X119504761Y-84859523D01*
X119552380Y-84716666D01*
X119552380Y-84621428D01*
X119504761Y-84478571D01*
X119409523Y-84383333D01*
X119314285Y-84335714D01*
X119123809Y-84288095D01*
X118980952Y-84288095D01*
X118790476Y-84335714D01*
X118695238Y-84383333D01*
X118600000Y-84478571D01*
X118552380Y-84621428D01*
X118552380Y-84716666D01*
X118600000Y-84859523D01*
X118647619Y-84907142D01*
X119552380Y-85859523D02*
X119552380Y-85288095D01*
X119552380Y-85573809D02*
X118552380Y-85573809D01*
X118695238Y-85478571D01*
X118790476Y-85383333D01*
X118838095Y-85288095D01*
X118552380Y-86716666D02*
X118552380Y-86526190D01*
X118600000Y-86430952D01*
X118647619Y-86383333D01*
X118790476Y-86288095D01*
X118980952Y-86240476D01*
X119361904Y-86240476D01*
X119457142Y-86288095D01*
X119504761Y-86335714D01*
X119552380Y-86430952D01*
X119552380Y-86621428D01*
X119504761Y-86716666D01*
X119457142Y-86764285D01*
X119361904Y-86811904D01*
X119123809Y-86811904D01*
X119028571Y-86764285D01*
X118980952Y-86716666D01*
X118933333Y-86621428D01*
X118933333Y-86430952D01*
X118980952Y-86335714D01*
X119028571Y-86288095D01*
X119123809Y-86240476D01*
%TO.C,C4*%
X127807142Y-64533333D02*
X127854761Y-64485714D01*
X127902380Y-64342857D01*
X127902380Y-64247619D01*
X127854761Y-64104761D01*
X127759523Y-64009523D01*
X127664285Y-63961904D01*
X127473809Y-63914285D01*
X127330952Y-63914285D01*
X127140476Y-63961904D01*
X127045238Y-64009523D01*
X126950000Y-64104761D01*
X126902380Y-64247619D01*
X126902380Y-64342857D01*
X126950000Y-64485714D01*
X126997619Y-64533333D01*
X127235714Y-65390476D02*
X127902380Y-65390476D01*
X126854761Y-65152380D02*
X127569047Y-64914285D01*
X127569047Y-65533333D01*
%TO.C,C8*%
X129957142Y-64533333D02*
X130004761Y-64485714D01*
X130052380Y-64342857D01*
X130052380Y-64247619D01*
X130004761Y-64104761D01*
X129909523Y-64009523D01*
X129814285Y-63961904D01*
X129623809Y-63914285D01*
X129480952Y-63914285D01*
X129290476Y-63961904D01*
X129195238Y-64009523D01*
X129100000Y-64104761D01*
X129052380Y-64247619D01*
X129052380Y-64342857D01*
X129100000Y-64485714D01*
X129147619Y-64533333D01*
X129480952Y-65104761D02*
X129433333Y-65009523D01*
X129385714Y-64961904D01*
X129290476Y-64914285D01*
X129242857Y-64914285D01*
X129147619Y-64961904D01*
X129100000Y-65009523D01*
X129052380Y-65104761D01*
X129052380Y-65295238D01*
X129100000Y-65390476D01*
X129147619Y-65438095D01*
X129242857Y-65485714D01*
X129290476Y-65485714D01*
X129385714Y-65438095D01*
X129433333Y-65390476D01*
X129480952Y-65295238D01*
X129480952Y-65104761D01*
X129528571Y-65009523D01*
X129576190Y-64961904D01*
X129671428Y-64914285D01*
X129861904Y-64914285D01*
X129957142Y-64961904D01*
X130004761Y-65009523D01*
X130052380Y-65104761D01*
X130052380Y-65295238D01*
X130004761Y-65390476D01*
X129957142Y-65438095D01*
X129861904Y-65485714D01*
X129671428Y-65485714D01*
X129576190Y-65438095D01*
X129528571Y-65390476D01*
X129480952Y-65295238D01*
D11*
%TO.C,R3*%
X131787258Y-73727500D02*
X131312742Y-73727500D01*
X131787258Y-74772500D02*
X131312742Y-74772500D01*
%TO.C,U1*%
X149200000Y-70040000D02*
X152960000Y-70040000D01*
X152960000Y-76860000D02*
X152960000Y-75600000D01*
X146950000Y-76860000D02*
X152960000Y-76860000D01*
X152960000Y-70040000D02*
X152960000Y-71300000D01*
%TO.C,R2*%
X131787258Y-73172500D02*
X131312742Y-73172500D01*
X131787258Y-72127500D02*
X131312742Y-72127500D01*
%TO.C,C7*%
X137235000Y-77261252D02*
X137235000Y-76738748D01*
X135765000Y-77261252D02*
X135765000Y-76738748D01*
%TO.C,U3*%
X134625001Y-82757167D02*
X134625001Y-84432167D01*
X129435001Y-80032167D02*
X129435001Y-77307167D01*
X134885001Y-80032167D02*
X134885001Y-77307167D01*
X129435001Y-82757167D02*
X129695001Y-82757167D01*
X129435001Y-77307167D02*
X129695001Y-77307167D01*
X134885001Y-80032167D02*
X134885001Y-82757167D01*
X129435001Y-80032167D02*
X129435001Y-82757167D01*
X134885001Y-82757167D02*
X134625001Y-82757167D01*
X134885001Y-77307167D02*
X134625001Y-77307167D01*
%TO.C,C14*%
X122605188Y-81670830D02*
X122605188Y-82193334D01*
X124075188Y-81670830D02*
X124075188Y-82193334D01*
%TO.C,C18*%
X124585087Y-81670830D02*
X124585087Y-82193334D01*
X126055087Y-81670830D02*
X126055087Y-82193334D01*
%TO.C,LED1*%
X149175000Y-84075000D02*
X156475000Y-84075000D01*
X156475000Y-84075000D02*
X156475000Y-85225000D01*
X149175000Y-89575000D02*
X156475000Y-89575000D01*
%TO.C,C11*%
X124035000Y-68361252D02*
X124035000Y-67838748D01*
X122565000Y-68361252D02*
X122565000Y-67838748D01*
%TO.C,C15*%
X120465000Y-68361252D02*
X120465000Y-67838748D01*
X121935000Y-68361252D02*
X121935000Y-67838748D01*
%TO.C,C6*%
X118361252Y-75575000D02*
X117838748Y-75575000D01*
X118361252Y-74105000D02*
X117838748Y-74105000D01*
%TO.C,Y1*%
X119966177Y-76039441D02*
X119966177Y-79339441D01*
X119966177Y-79339441D02*
X115966177Y-79339441D01*
%TO.C,C5*%
X118361252Y-81335000D02*
X117838748Y-81335000D01*
X118361252Y-79865000D02*
X117838748Y-79865000D01*
%TO.C,C9*%
X131498751Y-70197167D02*
X132021255Y-70197167D01*
X131498751Y-71667167D02*
X132021255Y-71667167D01*
%TO.C,R6*%
X135765000Y-81227064D02*
X135765000Y-80772936D01*
X137235000Y-81227064D02*
X137235000Y-80772936D01*
%TO.C,C3*%
X144811252Y-72640000D02*
X143388748Y-72640000D01*
X144811252Y-74460000D02*
X143388748Y-74460000D01*
%TO.C,C2*%
X144811252Y-72160000D02*
X143388748Y-72160000D01*
X144811252Y-70340000D02*
X143388748Y-70340000D01*
%TO.C,R5*%
X149152064Y-63465000D02*
X148697936Y-63465000D01*
X149152064Y-64935000D02*
X148697936Y-64935000D01*
%TO.C,C17*%
X118368850Y-71211952D02*
X117846346Y-71211952D01*
X118368850Y-69741952D02*
X117846346Y-69741952D01*
%TO.C,C1*%
X147255000Y-87711252D02*
X147255000Y-87188748D01*
X148725000Y-87711252D02*
X148725000Y-87188748D01*
%TO.C,C10*%
X118368850Y-73474694D02*
X117846346Y-73474694D01*
X118368850Y-72004694D02*
X117846346Y-72004694D01*
%TO.C,U4*%
X121390000Y-78610000D02*
X122040000Y-78610000D01*
X121390000Y-71390000D02*
X122040000Y-71390000D01*
X121390000Y-77960000D02*
X121390000Y-78610000D01*
X128610000Y-77960000D02*
X128610000Y-78610000D01*
X121390000Y-72040000D02*
X121390000Y-71390000D01*
X128610000Y-71390000D02*
X127960000Y-71390000D01*
X128610000Y-72040000D02*
X128610000Y-71390000D01*
%TO.C,J1*%
X156095000Y-54460000D02*
X156095000Y-55920000D01*
X156095000Y-59970000D02*
X156095000Y-58170000D01*
X147155000Y-54460000D02*
X147155000Y-55920000D01*
X147155000Y-59970000D02*
X147155000Y-58170000D01*
X156095000Y-54460000D02*
X147155000Y-54460000D01*
%TO.C,F1*%
X154902064Y-69160000D02*
X153697936Y-69160000D01*
X154902064Y-67340000D02*
X153697936Y-67340000D01*
%TO.C,R1*%
X154062936Y-63465000D02*
X154517064Y-63465000D01*
X154062936Y-64935000D02*
X154517064Y-64935000D01*
%TO.C,C12*%
X126135000Y-68361252D02*
X126135000Y-67838748D01*
X124665000Y-68361252D02*
X124665000Y-67838748D01*
%TO.C,C13*%
X127025003Y-81668433D02*
X127025003Y-82190937D01*
X128495003Y-81668433D02*
X128495003Y-82190937D01*
%TO.C,C16*%
X122095289Y-81670830D02*
X122095289Y-82193334D01*
X120625289Y-81670830D02*
X120625289Y-82193334D01*
%TO.C,C4*%
X128235000Y-68361252D02*
X128235000Y-67838748D01*
X126765000Y-68361252D02*
X126765000Y-67838748D01*
%TO.C,C8*%
X128865000Y-68361252D02*
X128865000Y-67838748D01*
X130335000Y-68361252D02*
X130335000Y-67838748D01*
%TD*%
M02*
