%TF.GenerationSoftware,KiCad,Pcbnew,(6.0.8)*%
%TF.CreationDate,2022-10-11T12:28:16+11:00*%
%TF.ProjectId,PicoGamePad_V3_0_0_A,5069636f-4761-46d6-9550-61645f56335f,4.0.0 (Rev A)*%
%TF.SameCoordinates,Original*%
%TF.FileFunction,Soldermask,Top*%
%TF.FilePolarity,Negative*%
%FSLAX46Y46*%
G04 Gerber Fmt 4.6, Leading zero omitted, Abs format (unit mm)*
G04 Created by KiCad (PCBNEW (6.0.8)) date 2022-10-11 12:28:16*
%MOMM*%
%LPD*%
G01*
G04 APERTURE LIST*
G04 Aperture macros list*
%AMRoundRect*
0 Rectangle with rounded corners*
0 $1 Rounding radius*
0 $2 $3 $4 $5 $6 $7 $8 $9 X,Y pos of 4 corners*
0 Add a 4 corners polygon primitive as box body*
4,1,4,$2,$3,$4,$5,$6,$7,$8,$9,$2,$3,0*
0 Add four circle primitives for the rounded corners*
1,1,$1+$1,$2,$3*
1,1,$1+$1,$4,$5*
1,1,$1+$1,$6,$7*
1,1,$1+$1,$8,$9*
0 Add four rect primitives between the rounded corners*
20,1,$1+$1,$2,$3,$4,$5,0*
20,1,$1+$1,$4,$5,$6,$7,0*
20,1,$1+$1,$6,$7,$8,$9,0*
20,1,$1+$1,$8,$9,$2,$3,0*%
G04 Aperture macros list end*
%ADD10RoundRect,0.075000X-0.300000X-0.300000X0.300000X-0.300000X0.300000X0.300000X-0.300000X0.300000X0*%
%ADD11C,1.750000*%
%ADD12C,2.000000*%
%ADD13R,1.700000X1.700000*%
%ADD14O,1.700000X1.700000*%
%ADD15C,0.600000*%
%ADD16O,0.900000X1.700000*%
%ADD17O,0.900000X2.000000*%
G04 APERTURE END LIST*
D10*
%TO.C,TP5*%
X155175000Y-87375000D03*
%TD*%
D11*
%TO.C,SW6*%
X150500000Y-78150000D03*
X155500000Y-78100000D03*
X150500000Y-81100000D03*
X155500000Y-81100000D03*
%TD*%
D10*
%TO.C,TP2*%
X128500000Y-73500000D03*
%TD*%
%TO.C,TP4*%
X111500000Y-67500000D03*
%TD*%
%TO.C,TP10*%
X145650000Y-69000000D03*
%TD*%
D11*
%TO.C,SW5*%
X104350000Y-70300000D03*
X104400000Y-75300000D03*
X101400000Y-75300000D03*
X101400000Y-70300000D03*
%TD*%
D10*
%TO.C,TP6*%
X112500000Y-67500000D03*
%TD*%
%TO.C,TP9*%
X143550000Y-69200000D03*
%TD*%
%TO.C,TP7*%
X111500000Y-66500000D03*
%TD*%
D12*
%TO.C,FID3*%
X141400000Y-65500000D03*
%TD*%
D11*
%TO.C,SW1*%
X104350000Y-83900000D03*
X104400000Y-88900000D03*
X101400000Y-83900000D03*
X101400000Y-88900000D03*
%TD*%
D10*
%TO.C,TP1*%
X128500000Y-71500000D03*
%TD*%
D12*
%TO.C,FID2*%
X139500000Y-89500000D03*
%TD*%
D11*
%TO.C,SW2*%
X134460000Y-86300000D03*
X129460000Y-86350000D03*
X129460000Y-89300000D03*
X134460000Y-89300000D03*
%TD*%
%TO.C,SW8*%
X117300000Y-86350000D03*
X122300000Y-86300000D03*
X117300000Y-89300000D03*
X122300000Y-89300000D03*
%TD*%
D10*
%TO.C,TP8*%
X151450000Y-68250000D03*
%TD*%
D11*
%TO.C,SW3*%
X98300000Y-81050000D03*
X93300000Y-81100000D03*
X98300000Y-78100000D03*
X93300000Y-78100000D03*
%TD*%
%TO.C,SW7*%
X111700000Y-81050000D03*
X106700000Y-81100000D03*
X111700000Y-78100000D03*
X106700000Y-78100000D03*
%TD*%
%TO.C,SW4*%
X139450000Y-78150000D03*
X144450000Y-78100000D03*
X144450000Y-81100000D03*
X139450000Y-81100000D03*
%TD*%
D10*
%TO.C,TP11*%
X113500000Y-66500000D03*
%TD*%
%TO.C,TP12*%
X134075000Y-79250000D03*
%TD*%
%TO.C,TP3*%
X112500000Y-66500000D03*
%TD*%
D12*
%TO.C,FID1*%
X103800000Y-80250000D03*
%TD*%
D13*
%TO.C,J3*%
X142900000Y-57725000D03*
D14*
X142900000Y-60265000D03*
X140360000Y-57725000D03*
X140360000Y-60265000D03*
X137820000Y-57725000D03*
X137820000Y-60265000D03*
X135280000Y-57725000D03*
X135280000Y-60265000D03*
X132740000Y-57725000D03*
X132740000Y-60265000D03*
X130200000Y-57725000D03*
X130200000Y-60265000D03*
X127660000Y-57725000D03*
X127660000Y-60265000D03*
X125120000Y-57725000D03*
X125120000Y-60265000D03*
X122580000Y-57725000D03*
X122580000Y-60265000D03*
X120040000Y-57725000D03*
X120040000Y-60265000D03*
X117500000Y-57725000D03*
X117500000Y-60265000D03*
X114960000Y-57725000D03*
X114960000Y-60265000D03*
X112420000Y-57725000D03*
X112420000Y-60265000D03*
X109880000Y-57725000D03*
X109880000Y-60265000D03*
X107340000Y-57725000D03*
X107340000Y-60265000D03*
X104800000Y-57725000D03*
X104800000Y-60265000D03*
X102260000Y-57725000D03*
X102260000Y-60265000D03*
X99720000Y-57725000D03*
X99720000Y-60265000D03*
X97180000Y-57725000D03*
X97180000Y-60265000D03*
X94640000Y-57725000D03*
X94640000Y-60265000D03*
%TD*%
D15*
%TO.C,J1*%
X148735000Y-60750000D03*
X154515000Y-60750000D03*
D16*
X155945000Y-57060000D03*
D17*
X147305000Y-61230000D03*
X155945000Y-61230000D03*
D16*
X147305000Y-57060000D03*
%TD*%
M02*
