<?xml version="1.0" standalone="no"?>
 <!DOCTYPE svg PUBLIC "-//W3C//DTD SVG 1.1//EN" 
 "http://www.w3.org/Graphics/SVG/1.1/DTD/svg11.dtd"> 
<svg
  xmlns:svg="http://www.w3.org/2000/svg"
  xmlns="http://www.w3.org/2000/svg"
  xmlns:xlink="http://www.w3.org/1999/xlink"
  version="1.1"
  width="25.001220cm" height="15.001240cm" viewBox="0 0 250012200 150012400">
<title>SVG Picture created as PicoGamePad_V3_0_0_A-B_Courtyard.svg date 2022/10/11 12:27:57 </title>
  <desc>Picture generated by PCBNEW </desc>
<g style="fill:#000000; fill-opacity:1.000000;stroke:#000000; stroke-opacity:1.000000;
stroke-linecap:round; stroke-linejoin:round;"
 transform="translate(0 0) scale(1 1)">
</g>
<g style="fill:#000000; fill-opacity:0.0; 
stroke:#000000; stroke-width:0.000000; stroke-opacity:1; 
stroke-linecap:round; stroke-linejoin:round;">
</g>
<g style="fill:#000000; fill-opacity:0.0; 
stroke:#000000; stroke-width:50000.000000; stroke-opacity:1; 
stroke-linecap:round; stroke-linejoin:round;">
<path d="M133030000 73520000
L130070000 73520000
" />
<path d="M130070000 73520000
L130070000 74980000
" />
<path d="M130070000 74980000
L133030000 74980000
" />
<path d="M133030000 74980000
L133030000 73520000
" />
<path d="M155450000 69850000
L155450000 77050000
" />
<path d="M146650000 77050000
L146650000 69850000
" />
<path d="M146650000 69850000
L155450000 69850000
" />
<path d="M155450000 77050000
L146650000 77050000
" />
<path d="M130070000 73380000
L133030000 73380000
" />
<path d="M133030000 73380000
L133030000 71920000
" />
<path d="M130070000 71920000
L130070000 73380000
" />
<path d="M133030000 71920000
L130070000 71920000
" />
<path d="M135520000 75300000
L135520000 78700000
" />
<path d="M135520000 78700000
L137480000 78700000
" />
<path d="M137480000 75300000
L135520000 75300000
" />
<path d="M137480000 78700000
L137480000 75300000
" />
<path d="M129300001 84682167
L129300001 75382167
" />
<path d="M135020001 75382167
L135020001 84682167
" />
<path d="M129300001 75382167
L135020001 75382167
" />
<path d="M135020001 84682167
L129300001 84682167
" />
<path d="M122360188 83632082
L124320188 83632082
" />
<path d="M124320188 80232082
L122360188 80232082
" />
<path d="M124320188 83632082
L124320188 80232082
" />
<path d="M122360188 80232082
L122360188 83632082
" />
<path d="M124340087 83632082
L126300087 83632082
" />
<path d="M126300087 80232082
L124340087 80232082
" />
<path d="M124340087 80232082
L124340087 83632082
" />
<path d="M126300087 83632082
L126300087 80232082
" />
<path d="M149375000 89575000
L149375000 84075000
" />
<path d="M156275000 89575000
L149375000 89575000
" />
<path d="M156275000 84075000
L156275000 89575000
" />
<path d="M149375000 84075000
L156275000 84075000
" />
<path d="M122320000 69800000
L124280000 69800000
" />
<path d="M124280000 66400000
L122320000 66400000
" />
<path d="M122320000 66400000
L122320000 69800000
" />
<path d="M124280000 69800000
L124280000 66400000
" />
<path d="M122180000 69800000
L122180000 66400000
" />
<path d="M122180000 66400000
L120220000 66400000
" />
<path d="M120220000 69800000
L122180000 69800000
" />
<path d="M120220000 66400000
L120220000 69800000
" />
<path d="M119800000 73860000
L116400000 73860000
" />
<path d="M119800000 75820000
L119800000 73860000
" />
<path d="M116400000 75820000
L119800000 75820000
" />
<path d="M116400000 73860000
L116400000 75820000
" />
<path d="M120066177 75989441
L120066177 79389441
" />
<path d="M120066177 79389441
L115866177 79389441
" />
<path d="M115866177 75989441
L120066177 75989441
" />
<path d="M115866177 79389441
L115866177 75989441
" />
<path d="M116400000 79620000
L116400000 81580000
" />
<path d="M119800000 79620000
L116400000 79620000
" />
<path d="M116400000 81580000
L119800000 81580000
" />
<path d="M119800000 81580000
L119800000 79620000
" />
<path d="M130060003 69952167
L130060003 71912167
" />
<path d="M133460003 69952167
L130060003 69952167
" />
<path d="M130060003 71912167
L133460003 71912167
" />
<path d="M133460003 71912167
L133460003 69952167
" />
<path d="M137450000 82680000
L137450000 79320000
" />
<path d="M137450000 79320000
L135550000 79320000
" />
<path d="M135550000 82680000
L137450000 82680000
" />
<path d="M135550000 79320000
L135550000 82680000
" />
<path d="M146400000 72400000
L141800000 72400000
" />
<path d="M141800000 72400000
L141800000 74700000
" />
<path d="M141800000 74700000
L146400000 74700000
" />
<path d="M146400000 74700000
L146400000 72400000
" />
<path d="M141800000 70100000
L141800000 72400000
" />
<path d="M146400000 72400000
L146400000 70100000
" />
<path d="M141800000 72400000
L146400000 72400000
" />
<path d="M146400000 70100000
L141800000 70100000
" />
<path d="M147245000 63250000
L147245000 65150000
" />
<path d="M150605000 65150000
L150605000 63250000
" />
<path d="M147245000 65150000
L150605000 65150000
" />
<path d="M150605000 63250000
L147245000 63250000
" />
<path d="M119807598 71456952
L119807598 69496952
" />
<path d="M119807598 69496952
L116407598 69496952
" />
<path d="M116407598 69496952
L116407598 71456952
" />
<path d="M116407598 71456952
L119807598 71456952
" />
<path d="M148970000 85750000
L147010000 85750000
" />
<path d="M148970000 89150000
L148970000 85750000
" />
<path d="M147010000 85750000
L147010000 89150000
" />
<path d="M147010000 89150000
L148970000 89150000
" />
<path d="M119807598 73719694
L119807598 71759694
" />
<path d="M116407598 73719694
L119807598 73719694
" />
<path d="M119807598 71759694
L116407598 71759694
" />
<path d="M116407598 71759694
L116407598 73719694
" />
<path d="M120880000 70880000
L129120000 70880000
" />
<path d="M129120000 70880000
L129120000 79120000
" />
<path d="M120880000 79120000
L120880000 70880000
" />
<path d="M129120000 79120000
L120880000 79120000
" />
<path d="M156895000 62890000
L146355000 62890000
" />
<path d="M156895000 53960000
L156895000 62890000
" />
<path d="M146355000 62890000
L146355000 53960000
" />
<path d="M146355000 53960000
L156895000 53960000
" />
<path d="M152020000 67130000
L152020000 69370000
" />
<path d="M152020000 69370000
L156580000 69370000
" />
<path d="M156580000 69370000
L156580000 67130000
" />
<path d="M156580000 67130000
L152020000 67130000
" />
<path d="M155970000 63250000
L152610000 63250000
" />
<path d="M152610000 63250000
L152610000 65150000
" />
<path d="M155970000 65150000
L155970000 63250000
" />
<path d="M152610000 65150000
L155970000 65150000
" />
<path d="M126380000 66400000
L124420000 66400000
" />
<path d="M126380000 69800000
L126380000 66400000
" />
<path d="M124420000 69800000
L126380000 69800000
" />
<path d="M124420000 66400000
L124420000 69800000
" />
<path d="M126780003 80229685
L126780003 83629685
" />
<path d="M128740003 80229685
L126780003 80229685
" />
<path d="M126780003 83629685
L128740003 83629685
" />
<path d="M128740003 83629685
L128740003 80229685
" />
<path d="M120380289 83632082
L122340289 83632082
" />
<path d="M120380289 80232082
L120380289 83632082
" />
<path d="M122340289 83632082
L122340289 80232082
" />
<path d="M122340289 80232082
L120380289 80232082
" />
<path d="M128480000 66400000
L126520000 66400000
" />
<path d="M128480000 69800000
L128480000 66400000
" />
<path d="M126520000 66400000
L126520000 69800000
" />
<path d="M126520000 69800000
L128480000 69800000
" />
<path d="M128620000 66400000
L128620000 69800000
" />
<path d="M130580000 69800000
L130580000 66400000
" />
<path d="M128620000 69800000
L130580000 69800000
" />
<path d="M130580000 66400000
L128620000 66400000
" />
<g >
</g>
<g >
</g>
<g >
</g>
<g >
</g>
<g >
</g>
<g >
</g>
<g >
</g>
<g >
</g>
<g >
</g>
<g >
</g>
<g >
</g>
<g >
</g>
<g >
</g>
<g >
</g>
<g >
</g>
<g >
</g>
<g >
</g>
<g >
</g>
<g >
</g>
<g >
</g>
<g >
</g>
<g >
</g>
<g >
</g>
<g >
</g>
<g >
</g>
<g >
</g>
<g >
</g>
<g >
</g>
<g >
</g>
<g >
</g>
<g >
</g>
<g >
</g>
<g >
</g>
<g >
</g>
<g >
</g>
<g >
</g>
<g >
</g>
<g >
</g>
<g >
</g>
<g >
</g>
<g >
</g>
<g >
</g>
<g >
</g>
<g >
</g>
<g >
</g>
<g >
</g>
<g >
</g>
<g >
</g>
<g >
</g>
<g >
</g>
<g >
</g>
<g >
</g>
<g >
</g>
<g >
</g>
<g >
</g>
<g >
</g>
<g >
</g>
<g >
</g>
</g> 
</svg>
