<?xml version="1.0" standalone="no"?>
 <!DOCTYPE svg PUBLIC "-//W3C//DTD SVG 1.1//EN" 
 "http://www.w3.org/Graphics/SVG/1.1/DTD/svg11.dtd"> 
<svg
  xmlns:svg="http://www.w3.org/2000/svg"
  xmlns="http://www.w3.org/2000/svg"
  xmlns:xlink="http://www.w3.org/1999/xlink"
  version="1.1"
  width="25.001220cm" height="15.001240cm" viewBox="0 0 250012200 150012400">
<title>SVG Picture created as PicoGamePad_V3_0_0_A-B_Fab.svg date 2022/10/11 12:27:57 </title>
  <desc>Picture generated by PCBNEW </desc>
<g style="fill:#000000; fill-opacity:1.000000;stroke:#000000; stroke-opacity:1.000000;
stroke-linecap:round; stroke-linejoin:round;"
 transform="translate(0 0) scale(1 1)">
</g>
<g style="fill:#000000; fill-opacity:0.0; 
stroke:#000000; stroke-width:0.000000; stroke-opacity:1; 
stroke-linecap:round; stroke-linejoin:round;">
</g>
<g style="fill:#000000; fill-opacity:0.0; 
stroke:#000000; stroke-width:150000.000000; stroke-opacity:1; 
stroke-linecap:round; stroke-linejoin:round;">
<text x="131550000.000000" y="76180000.000000"
transform="scale(-1 1) translate(-263100000.000000 0)"
textLength="2852619.000000" font-size="1333333.000000" lengthAdjust="spacingAndGlyphs"
text-anchor="middle" opacity="0">27Ω</text>
<g class="stroked-text"><desc>27Ω</desc>
<path d="M132883333 75227619
L132835714 75180000
L132740476 75132380
L132502380 75132380
L132407142 75180000
L132359523 75227619
L132311904 75322857
L132311904 75418095
L132359523 75560952
L132930952 76132380
L132311904 76132380
" />
<path d="M131978571 75132380
L131311904 75132380
L131740476 76132380
" />
<path d="M130978571 76132380
L130740476 76132380
L130740476 75941904
L130835714 75894285
L130930952 75799047
L130978571 75656190
L130978571 75418095
L130930952 75275238
L130835714 75180000
L130692857 75132380
L130502380 75132380
L130359523 75180000
L130264285 75275238
L130216666 75418095
L130216666 75656190
L130264285 75799047
L130359523 75894285
L130454761 75941904
L130454761 76132380
L130216666 76132380
" />
</g></g>
<g style="fill:#000000; fill-opacity:0.0; 
stroke:#000000; stroke-width:60000.000000; stroke-opacity:1; 
stroke-linecap:round; stroke-linejoin:round;">
<text x="131550000.000000" y="74450000.000000"
transform="scale(-1 1) translate(-263100000.000000 0)"
textLength="585952.000000" font-size="533333.000000" lengthAdjust="spacingAndGlyphs"
text-anchor="middle" opacity="0">R3</text>
<g class="stroked-text"><desc>R3</desc>
<path d="M131616666 74430952
L131750000 74240476
" />
<path d="M131845238 74430952
L131845238 74030952
L131692857 74030952
L131654761 74050000
L131635714 74069047
L131616666 74107142
L131616666 74164285
L131635714 74202380
L131654761 74221428
L131692857 74240476
L131845238 74240476
" />
<path d="M131483333 74030952
L131235714 74030952
L131369047 74183333
L131311904 74183333
L131273809 74202380
L131254761 74221428
L131235714 74259523
L131235714 74354761
L131254761 74392857
L131273809 74411904
L131311904 74430952
L131426190 74430952
L131464285 74411904
L131483333 74392857
" />
</g></g>
<g style="fill:#000000; fill-opacity:0.0; 
stroke:#000000; stroke-width:150000.000000; stroke-opacity:1; 
stroke-linecap:round; stroke-linejoin:round;">
<text x="151050000.000000" y="69450000.000000"
transform="scale(-1 1) translate(-302100000.000000 0)"
textLength="10302952.000000" font-size="1333333.000000" lengthAdjust="spacingAndGlyphs"
text-anchor="middle" opacity="0">ASM1117-3.3</text>
<g class="stroked-text"><desc>ASM1117-3.3</desc>
<path d="M156050000 69116666
L155573809 69116666
" />
<path d="M156145238 69402380
L155811904 68402380
L155478571 69402380
" />
<path d="M155192857 69354761
L155050000 69402380
L154811904 69402380
L154716666 69354761
L154669047 69307142
L154621428 69211904
L154621428 69116666
L154669047 69021428
L154716666 68973809
L154811904 68926190
L155002380 68878571
L155097619 68830952
L155145238 68783333
L155192857 68688095
L155192857 68592857
L155145238 68497619
L155097619 68450000
L155002380 68402380
L154764285 68402380
L154621428 68450000
" />
<path d="M154192857 69402380
L154192857 68402380
L153859523 69116666
L153526190 68402380
L153526190 69402380
" />
<path d="M152526190 69402380
L153097619 69402380
" />
<path d="M152811904 69402380
L152811904 68402380
L152907142 68545238
L153002380 68640476
L153097619 68688095
" />
<path d="M151573809 69402380
L152145238 69402380
" />
<path d="M151859523 69402380
L151859523 68402380
L151954761 68545238
L152050000 68640476
L152145238 68688095
" />
<path d="M150621428 69402380
L151192857 69402380
" />
<path d="M150907142 69402380
L150907142 68402380
L151002380 68545238
L151097619 68640476
L151192857 68688095
" />
<path d="M150288095 68402380
L149621428 68402380
L150050000 69402380
" />
<path d="M149240476 69021428
L148478571 69021428
" />
<path d="M148097619 68402380
L147478571 68402380
L147811904 68783333
L147669047 68783333
L147573809 68830952
L147526190 68878571
L147478571 68973809
L147478571 69211904
L147526190 69307142
L147573809 69354761
L147669047 69402380
L147954761 69402380
L148050000 69354761
L148097619 69307142
" />
<path d="M147050000 69307142
L147002380 69354761
L147050000 69402380
L147097619 69354761
L147050000 69307142
L147050000 69402380
" />
<path d="M146669047 68402380
L146050000 68402380
L146383333 68783333
L146240476 68783333
L146145238 68830952
L146097619 68878571
L146050000 68973809
L146050000 69211904
L146097619 69307142
L146145238 69354761
L146240476 69402380
L146526190 69402380
L146621428 69354761
L146669047 69307142
" />
</g></g>
<g style="fill:#000000; fill-opacity:0.0; 
stroke:#000000; stroke-width:120000.000000; stroke-opacity:1; 
stroke-linecap:round; stroke-linejoin:round;">
<g transform="rotate(-90.000000 151050000.000000 73450000.000000)">
<text x="151050000.000000" y="73850000.000000"
transform="scale(-1 1) translate(-302100000.000000 0)"
textLength="1405000.000000" font-size="1066666.000000" lengthAdjust="spacingAndGlyphs"
text-anchor="middle" opacity="0">U1</text>
</g>
<g class="stroked-text"><desc>U1</desc>
<path d="M150611904 72840476
L151259523 72840476
L151335714 72878571
L151373809 72916666
L151411904 72992857
L151411904 73145238
L151373809 73221428
L151335714 73259523
L151259523 73297619
L150611904 73297619
" />
<path d="M151411904 74097619
L151411904 73640476
" />
<path d="M151411904 73869047
L150611904 73869047
L150726190 73792857
L150802380 73716666
L150840476 73640476
" />
</g></g>
<g style="fill:#000000; fill-opacity:0.0; 
stroke:#000000; stroke-width:150000.000000; stroke-opacity:1; 
stroke-linecap:round; stroke-linejoin:round;">
<text x="131550000.000000" y="74580000.000000"
transform="scale(-1 1) translate(-263100000.000000 0)"
textLength="2891619.000000" font-size="1333333.000000" lengthAdjust="spacingAndGlyphs"
text-anchor="middle" opacity="0">27Ω</text>
<g class="stroked-text"><desc>27Ω</desc>
<path d="M132883333 73627619
L132835714 73580000
L132740476 73532380
L132502380 73532380
L132407142 73580000
L132359523 73627619
L132311904 73722857
L132311904 73818095
L132359523 73960952
L132930952 74532380
L132311904 74532380
" />
<path d="M131978571 73532380
L131311904 73532380
L131740476 74532380
" />
<path d="M130978571 74532380
L130740476 74532380
L130740476 74341904
L130835714 74294285
L130930952 74199047
L130978571 74056190
L130978571 73818095
L130930952 73675238
L130835714 73580000
L130692857 73532380
L130502380 73532380
L130359523 73580000
L130264285 73675238
L130216666 73818095
L130216666 74056190
L130264285 74199047
L130359523 74294285
L130454761 74341904
L130454761 74532380
L130216666 74532380
" />
</g></g>
<g style="fill:#000000; fill-opacity:0.0; 
stroke:#000000; stroke-width:60000.000000; stroke-opacity:1; 
stroke-linecap:round; stroke-linejoin:round;">
<text x="131550000.000000" y="72850000.000000"
transform="scale(-1 1) translate(-263100000.000000 0)"
textLength="585952.000000" font-size="533333.000000" lengthAdjust="spacingAndGlyphs"
text-anchor="middle" opacity="0">R2</text>
<g class="stroked-text"><desc>R2</desc>
<path d="M131616666 72830952
L131750000 72640476
" />
<path d="M131845238 72830952
L131845238 72430952
L131692857 72430952
L131654761 72450000
L131635714 72469047
L131616666 72507142
L131616666 72564285
L131635714 72602380
L131654761 72621428
L131692857 72640476
L131845238 72640476
" />
<path d="M131464285 72469047
L131445238 72450000
L131407142 72430952
L131311904 72430952
L131273809 72450000
L131254761 72469047
L131235714 72507142
L131235714 72545238
L131254761 72602380
L131483333 72830952
L131235714 72830952
" />
</g></g>
<g style="fill:#000000; fill-opacity:0.0; 
stroke:#000000; stroke-width:150000.000000; stroke-opacity:1; 
stroke-linecap:round; stroke-linejoin:round;">
<g transform="rotate(-90.000000 134820000.000000 77000000.000000)">
<text x="134820000.000000" y="77500000.000000"
transform="scale(-1 1) translate(-269640000.000000 0)"
textLength="4541048.000000" font-size="1333333.000000" lengthAdjust="spacingAndGlyphs"
text-anchor="middle" opacity="0">100nF</text>
</g>
<g class="stroked-text"><desc>100nF</desc>
<path d="M135272380 75452380
L135272380 74880952
" />
<path d="M135272380 75166666
L134272380 75166666
L134415238 75071428
L134510476 74976190
L134558095 74880952
" />
<path d="M134272380 76071428
L134272380 76166666
L134320000 76261904
L134367619 76309523
L134462857 76357142
L134653333 76404761
L134891428 76404761
L135081904 76357142
L135177142 76309523
L135224761 76261904
L135272380 76166666
L135272380 76071428
L135224761 75976190
L135177142 75928571
L135081904 75880952
L134891428 75833333
L134653333 75833333
L134462857 75880952
L134367619 75928571
L134320000 75976190
L134272380 76071428
" />
<path d="M134272380 77023809
L134272380 77119047
L134320000 77214285
L134367619 77261904
L134462857 77309523
L134653333 77357142
L134891428 77357142
L135081904 77309523
L135177142 77261904
L135224761 77214285
L135272380 77119047
L135272380 77023809
L135224761 76928571
L135177142 76880952
L135081904 76833333
L134891428 76785714
L134653333 76785714
L134462857 76833333
L134367619 76880952
L134320000 76928571
L134272380 77023809
" />
<path d="M134605714 77785714
L135272380 77785714
" />
<path d="M134700952 77785714
L134653333 77833333
L134605714 77928571
L134605714 78071428
L134653333 78166666
L134748571 78214285
L135272380 78214285
" />
<path d="M134748571 79023809
L134748571 78690476
" />
<path d="M135272380 78690476
L134272380 78690476
L134272380 79166666
" />
</g></g>
<g style="fill:#000000; fill-opacity:0.0; 
stroke:#000000; stroke-width:80000.000000; stroke-opacity:1; 
stroke-linecap:round; stroke-linejoin:round;">
<g transform="rotate(-90.000000 136500000.000000 77000000.000000)">
<text x="136500000.000000" y="77250000.000000"
transform="scale(-1 1) translate(-273000000.000000 0)"
textLength="781190.000000" font-size="666666.000000" lengthAdjust="spacingAndGlyphs"
text-anchor="middle" opacity="0">C7</text>
</g>
<g class="stroked-text"><desc>C7</desc>
<path d="M136678571 76916666
L136702380 76892857
L136726190 76821428
L136726190 76773809
L136702380 76702380
L136654761 76654761
L136607142 76630952
L136511904 76607142
L136440476 76607142
L136345238 76630952
L136297619 76654761
L136250000 76702380
L136226190 76773809
L136226190 76821428
L136250000 76892857
L136273809 76916666
" />
<path d="M136226190 77083333
L136226190 77416666
L136726190 77202380
" />
</g></g>
<g style="fill:#000000; fill-opacity:0.0; 
stroke:#000000; stroke-width:150000.000000; stroke-opacity:1; 
stroke-linecap:round; stroke-linejoin:round;">
<g transform="rotate(-90.000000 128600001.000000 80032167.000000)">
<text x="128600001.000000" y="80532167.000000"
transform="scale(-1 1) translate(-257200002.000000 0)"
textLength="6562667.000000" font-size="1333333.000000" lengthAdjust="spacingAndGlyphs"
text-anchor="middle" opacity="0">WQ25JVS</text>
</g>
<g class="stroked-text"><desc>WQ25JVS</desc>
<path d="M128052381 76841690
L129052381 77079786
L128338096 77270262
L129052381 77460738
L128052381 77698833
" />
<path d="M129147620 78746452
L129100001 78651214
L129004762 78555976
L128861905 78413119
L128814286 78317881
L128814286 78222643
" />
<path d="M129052381 78270262
L129004762 78175024
L128909524 78079786
L128719048 78032167
L128385715 78032167
L128195239 78079786
L128100001 78175024
L128052381 78270262
L128052381 78460738
L128100001 78555976
L128195239 78651214
L128385715 78698833
L128719048 78698833
L128909524 78651214
L129004762 78555976
L129052381 78460738
L129052381 78270262
" />
<path d="M128147620 79079786
L128100001 79127405
L128052381 79222643
L128052381 79460738
L128100001 79555976
L128147620 79603595
L128242858 79651214
L128338096 79651214
L128480953 79603595
L129052381 79032167
L129052381 79651214
" />
<path d="M128052381 80555976
L128052381 80079786
L128528572 80032167
L128480953 80079786
L128433334 80175024
L128433334 80413119
L128480953 80508357
L128528572 80555976
L128623810 80603595
L128861905 80603595
L128957143 80555976
L129004762 80508357
L129052381 80413119
L129052381 80175024
L129004762 80079786
L128957143 80032167
" />
<path d="M128052381 81317881
L128766667 81317881
L128909524 81270262
L129004762 81175024
L129052381 81032167
L129052381 80936928
" />
<path d="M128052381 81651214
L129052381 81984547
L128052381 82317881
" />
<path d="M129004762 82603595
L129052381 82746452
L129052381 82984547
L129004762 83079786
L128957143 83127405
L128861905 83175024
L128766667 83175024
L128671429 83127405
L128623810 83079786
L128576191 82984547
L128528572 82794071
L128480953 82698833
L128433334 82651214
L128338096 82603595
L128242858 82603595
L128147620 82651214
L128100001 82698833
L128052381 82794071
L128052381 83032167
L128100001 83175024
" />
</g><g transform="rotate(-90.000000 132160001.000000 80032167.000000)">
<text x="132160001.000000" y="80532167.000000"
transform="scale(-1 1) translate(-264320002.000000 0)"
textLength="1805000.000000" font-size="1333333.000000" lengthAdjust="spacingAndGlyphs"
text-anchor="middle" opacity="0">U3</text>
</g>
<g class="stroked-text"><desc>U3</desc>
<path d="M131612381 79270262
L132421905 79270262
L132517143 79317881
L132564762 79365500
L132612381 79460738
L132612381 79651214
L132564762 79746452
L132517143 79794071
L132421905 79841690
L131612381 79841690
" />
<path d="M131612381 80222643
L131612381 80841690
L131993334 80508357
L131993334 80651214
L132040953 80746452
L132088572 80794071
L132183810 80841690
L132421905 80841690
L132517143 80794071
L132564762 80746452
L132612381 80651214
L132612381 80365500
L132564762 80270262
L132517143 80222643
" />
</g><g transform="rotate(-90.000000 125020188.000000 81932082.000000)">
<text x="125020188.000000" y="82432082.000000"
transform="scale(-1 1) translate(-250040376.000000 0)"
textLength="4424048.000000" font-size="1333333.000000" lengthAdjust="spacingAndGlyphs"
text-anchor="middle" opacity="0">100nF</text>
</g>
<g class="stroked-text"><desc>100nF</desc>
<path d="M125472568 80384462
L125472568 79813034
" />
<path d="M125472568 80098748
L124472568 80098748
L124615426 80003510
L124710664 79908272
L124758283 79813034
" />
<path d="M124472568 81003510
L124472568 81098748
L124520188 81193986
L124567807 81241605
L124663045 81289224
L124853521 81336843
L125091616 81336843
L125282092 81289224
L125377330 81241605
L125424949 81193986
L125472568 81098748
L125472568 81003510
L125424949 80908272
L125377330 80860653
L125282092 80813034
L125091616 80765415
L124853521 80765415
L124663045 80813034
L124567807 80860653
L124520188 80908272
L124472568 81003510
" />
<path d="M124472568 81955891
L124472568 82051129
L124520188 82146367
L124567807 82193986
L124663045 82241605
L124853521 82289224
L125091616 82289224
L125282092 82241605
L125377330 82193986
L125424949 82146367
L125472568 82051129
L125472568 81955891
L125424949 81860653
L125377330 81813034
L125282092 81765415
L125091616 81717796
L124853521 81717796
L124663045 81765415
L124567807 81813034
L124520188 81860653
L124472568 81955891
" />
<path d="M124805902 82717796
L125472568 82717796
" />
<path d="M124901140 82717796
L124853521 82765415
L124805902 82860653
L124805902 83003510
L124853521 83098748
L124948759 83146367
L125472568 83146367
" />
<path d="M124948759 83955891
L124948759 83622558
" />
<path d="M125472568 83622558
L124472568 83622558
L124472568 84098748
" />
</g></g>
<g style="fill:#000000; fill-opacity:0.0; 
stroke:#000000; stroke-width:80000.000000; stroke-opacity:1; 
stroke-linecap:round; stroke-linejoin:round;">
<g transform="rotate(-90.000000 123340188.000000 81932082.000000)">
<text x="123340188.000000" y="82182082.000000"
transform="scale(-1 1) translate(-246680376.000000 0)"
textLength="1257381.000000" font-size="666666.000000" lengthAdjust="spacingAndGlyphs"
text-anchor="middle" opacity="0">C14</text>
</g>
<g class="stroked-text"><desc>C14</desc>
<path d="M123518759 81610653
L123542568 81586843
L123566378 81515415
L123566378 81467796
L123542568 81396367
L123494949 81348748
L123447330 81324939
L123352092 81301129
L123280664 81301129
L123185426 81324939
L123137807 81348748
L123090188 81396367
L123066378 81467796
L123066378 81515415
L123090188 81586843
L123113997 81610653
" />
<path d="M123566378 82086843
L123566378 81801129
" />
<path d="M123566378 81943986
L123066378 81943986
L123137807 81896367
L123185426 81848748
L123209235 81801129
" />
<path d="M123233045 82515415
L123566378 82515415
" />
<path d="M123042568 82396367
L123399711 82277320
L123399711 82586843
" />
</g></g>
<g style="fill:#000000; fill-opacity:0.0; 
stroke:#000000; stroke-width:150000.000000; stroke-opacity:1; 
stroke-linecap:round; stroke-linejoin:round;">
<g transform="rotate(-90.000000 127000087.000000 81932082.000000)">
<text x="127000087.000000" y="82432082.000000"
transform="scale(-1 1) translate(-254000174.000000 0)"
textLength="4515048.000000" font-size="1333333.000000" lengthAdjust="spacingAndGlyphs"
text-anchor="middle" opacity="0">100nF</text>
</g>
<g class="stroked-text"><desc>100nF</desc>
<path d="M127452467 80384462
L127452467 79813034
" />
<path d="M127452467 80098748
L126452467 80098748
L126595325 80003510
L126690563 79908272
L126738182 79813034
" />
<path d="M126452467 81003510
L126452467 81098748
L126500087 81193986
L126547706 81241605
L126642944 81289224
L126833420 81336843
L127071515 81336843
L127261991 81289224
L127357229 81241605
L127404848 81193986
L127452467 81098748
L127452467 81003510
L127404848 80908272
L127357229 80860653
L127261991 80813034
L127071515 80765415
L126833420 80765415
L126642944 80813034
L126547706 80860653
L126500087 80908272
L126452467 81003510
" />
<path d="M126452467 81955891
L126452467 82051129
L126500087 82146367
L126547706 82193986
L126642944 82241605
L126833420 82289224
L127071515 82289224
L127261991 82241605
L127357229 82193986
L127404848 82146367
L127452467 82051129
L127452467 81955891
L127404848 81860653
L127357229 81813034
L127261991 81765415
L127071515 81717796
L126833420 81717796
L126642944 81765415
L126547706 81813034
L126500087 81860653
L126452467 81955891
" />
<path d="M126785801 82717796
L127452467 82717796
" />
<path d="M126881039 82717796
L126833420 82765415
L126785801 82860653
L126785801 83003510
L126833420 83098748
L126928658 83146367
L127452467 83146367
" />
<path d="M126928658 83955891
L126928658 83622558
" />
<path d="M127452467 83622558
L126452467 83622558
L126452467 84098748
" />
</g></g>
<g style="fill:#000000; fill-opacity:0.0; 
stroke:#000000; stroke-width:80000.000000; stroke-opacity:1; 
stroke-linecap:round; stroke-linejoin:round;">
<g transform="rotate(-90.000000 125320087.000000 81932082.000000)">
<text x="125320087.000000" y="82182082.000000"
transform="scale(-1 1) translate(-250640174.000000 0)"
textLength="1257381.000000" font-size="666666.000000" lengthAdjust="spacingAndGlyphs"
text-anchor="middle" opacity="0">C18</text>
</g>
<g class="stroked-text"><desc>C18</desc>
<path d="M125498658 81610653
L125522467 81586843
L125546277 81515415
L125546277 81467796
L125522467 81396367
L125474848 81348748
L125427229 81324939
L125331991 81301129
L125260563 81301129
L125165325 81324939
L125117706 81348748
L125070087 81396367
L125046277 81467796
L125046277 81515415
L125070087 81586843
L125093896 81610653
" />
<path d="M125546277 82086843
L125546277 81801129
" />
<path d="M125546277 81943986
L125046277 81943986
L125117706 81896367
L125165325 81848748
L125189134 81801129
" />
<path d="M125260563 82372558
L125236753 82324939
L125212944 82301129
L125165325 82277320
L125141515 82277320
L125093896 82301129
L125070087 82324939
L125046277 82372558
L125046277 82467796
L125070087 82515415
L125093896 82539224
L125141515 82563034
L125165325 82563034
L125212944 82539224
L125236753 82515415
L125260563 82467796
L125260563 82372558
L125284372 82324939
L125308182 82301129
L125355801 82277320
L125451039 82277320
L125498658 82301129
L125522467 82324939
L125546277 82372558
L125546277 82467796
L125522467 82515415
L125498658 82539224
L125451039 82563034
L125355801 82563034
L125308182 82539224
L125284372 82515415
L125260563 82467796
" />
</g></g>
<g style="fill:#000000; fill-opacity:0.0; 
stroke:#000000; stroke-width:150000.000000; stroke-opacity:1; 
stroke-linecap:round; stroke-linejoin:round;">
<text x="152825000.000000" y="83325000.000000"
transform="scale(-1 1) translate(-305650000.000000 0)"
textLength="6800762.000000" font-size="1333333.000000" lengthAdjust="spacingAndGlyphs"
text-anchor="middle" opacity="0">WS2812B</text>
<g class="stroked-text"><desc>WS2812B</desc>
<path d="M156134523 82277380
L155896428 83277380
L155705952 82563095
L155515476 83277380
L155277380 82277380
" />
<path d="M154944047 83229761
L154801190 83277380
L154563095 83277380
L154467857 83229761
L154420238 83182142
L154372619 83086904
L154372619 82991666
L154420238 82896428
L154467857 82848809
L154563095 82801190
L154753571 82753571
L154848809 82705952
L154896428 82658333
L154944047 82563095
L154944047 82467857
L154896428 82372619
L154848809 82325000
L154753571 82277380
L154515476 82277380
L154372619 82325000
" />
<path d="M153991666 82372619
L153944047 82325000
L153848809 82277380
L153610714 82277380
L153515476 82325000
L153467857 82372619
L153420238 82467857
L153420238 82563095
L153467857 82705952
L154039285 83277380
L153420238 83277380
" />
<path d="M152848809 82705952
L152944047 82658333
L152991666 82610714
L153039285 82515476
L153039285 82467857
L152991666 82372619
L152944047 82325000
L152848809 82277380
L152658333 82277380
L152563095 82325000
L152515476 82372619
L152467857 82467857
L152467857 82515476
L152515476 82610714
L152563095 82658333
L152658333 82705952
L152848809 82705952
L152944047 82753571
L152991666 82801190
L153039285 82896428
L153039285 83086904
L152991666 83182142
L152944047 83229761
L152848809 83277380
L152658333 83277380
L152563095 83229761
L152515476 83182142
L152467857 83086904
L152467857 82896428
L152515476 82801190
L152563095 82753571
L152658333 82705952
" />
<path d="M151515476 83277380
L152086904 83277380
" />
<path d="M151801190 83277380
L151801190 82277380
L151896428 82420238
L151991666 82515476
L152086904 82563095
" />
<path d="M151134523 82372619
L151086904 82325000
L150991666 82277380
L150753571 82277380
L150658333 82325000
L150610714 82372619
L150563095 82467857
L150563095 82563095
L150610714 82705952
L151182142 83277380
L150563095 83277380
" />
<path d="M149801190 82753571
L149658333 82801190
L149610714 82848809
L149563095 82944047
L149563095 83086904
L149610714 83182142
L149658333 83229761
L149753571 83277380
L150134523 83277380
L150134523 82277380
L149801190 82277380
L149705952 82325000
L149658333 82372619
L149610714 82467857
L149610714 82563095
L149658333 82658333
L149705952 82705952
L149801190 82753571
L150134523 82753571
" />
</g><text x="152825000.000000" y="87225000.000000"
transform="scale(-1 1) translate(-305650000.000000 0)"
textLength="2738333.000000" font-size="1066666.000000" lengthAdjust="spacingAndGlyphs"
text-anchor="middle" opacity="0">LED1</text>
<g class="stroked-text"><desc>LED1</desc>
<path d="M153720238 87186904
L154101190 87186904
L154101190 86386904
" />
<path d="M153453571 86767857
L153186904 86767857
" />
<path d="M153072619 87186904
L153453571 87186904
L153453571 86386904
L153072619 86386904
" />
<path d="M152729761 87186904
L152729761 86386904
L152539285 86386904
L152425000 86425000
L152348809 86501190
L152310714 86577380
L152272619 86729761
L152272619 86844047
L152310714 86996428
L152348809 87072619
L152425000 87148809
L152539285 87186904
L152729761 87186904
" />
<path d="M151510714 87186904
L151967857 87186904
" />
<path d="M151739285 87186904
L151739285 86386904
L151815476 86501190
L151891666 86577380
L151967857 86615476
" />
</g><g transform="rotate(-90.000000 121620000.000000 68100000.000000)">
<text x="121620000.000000" y="68600000.000000"
transform="scale(-1 1) translate(-243240000.000000 0)"
textLength="2662143.000000" font-size="1333333.000000" lengthAdjust="spacingAndGlyphs"
text-anchor="middle" opacity="0">1μF</text>
</g>
<g class="stroked-text"><desc>1μF</desc>
<path d="M122072380 67433333
L122072380 66861904
" />
<path d="M122072380 67147619
L121072380 67147619
L121215238 67052380
L121310476 66957142
L121358095 66861904
" />
<path d="M121405714 67861904
L122405714 67861904
" />
<path d="M121929523 68338095
L122024761 68385714
L122072380 68480952
" />
<path d="M121929523 67861904
L122024761 67909523
L122072380 68004761
L122072380 68195238
L122024761 68290476
L121929523 68338095
L121405714 68338095
" />
<path d="M121548571 69242857
L121548571 68909523
" />
<path d="M122072380 68909523
L121072380 68909523
L121072380 69385714
" />
</g></g>
<g style="fill:#000000; fill-opacity:0.0; 
stroke:#000000; stroke-width:80000.000000; stroke-opacity:1; 
stroke-linecap:round; stroke-linejoin:round;">
<g transform="rotate(-90.000000 123300000.000000 68100000.000000)">
<text x="123300000.000000" y="68350000.000000"
transform="scale(-1 1) translate(-246600000.000000 0)"
textLength="1257381.000000" font-size="666666.000000" lengthAdjust="spacingAndGlyphs"
text-anchor="middle" opacity="0">C11</text>
</g>
<g class="stroked-text"><desc>C11</desc>
<path d="M123478571 67778571
L123502380 67754761
L123526190 67683333
L123526190 67635714
L123502380 67564285
L123454761 67516666
L123407142 67492857
L123311904 67469047
L123240476 67469047
L123145238 67492857
L123097619 67516666
L123050000 67564285
L123026190 67635714
L123026190 67683333
L123050000 67754761
L123073809 67778571
" />
<path d="M123526190 68254761
L123526190 67969047
" />
<path d="M123526190 68111904
L123026190 68111904
L123097619 68064285
L123145238 68016666
L123169047 67969047
" />
<path d="M123526190 68730952
L123526190 68445238
" />
<path d="M123526190 68588095
L123026190 68588095
L123097619 68540476
L123145238 68492857
L123169047 68445238
" />
</g></g>
<g style="fill:#000000; fill-opacity:0.0; 
stroke:#000000; stroke-width:150000.000000; stroke-opacity:1; 
stroke-linecap:round; stroke-linejoin:round;">
<g transform="rotate(-90.000000 119520000.000000 68100000.000000)">
<text x="119520000.000000" y="68600000.000000"
transform="scale(-1 1) translate(-239040000.000000 0)"
textLength="4515048.000000" font-size="1333333.000000" lengthAdjust="spacingAndGlyphs"
text-anchor="middle" opacity="0">100nF</text>
</g>
<g class="stroked-text"><desc>100nF</desc>
<path d="M119972380 66552380
L119972380 65980952
" />
<path d="M119972380 66266666
L118972380 66266666
L119115238 66171428
L119210476 66076190
L119258095 65980952
" />
<path d="M118972380 67171428
L118972380 67266666
L119020000 67361904
L119067619 67409523
L119162857 67457142
L119353333 67504761
L119591428 67504761
L119781904 67457142
L119877142 67409523
L119924761 67361904
L119972380 67266666
L119972380 67171428
L119924761 67076190
L119877142 67028571
L119781904 66980952
L119591428 66933333
L119353333 66933333
L119162857 66980952
L119067619 67028571
L119020000 67076190
L118972380 67171428
" />
<path d="M118972380 68123809
L118972380 68219047
L119020000 68314285
L119067619 68361904
L119162857 68409523
L119353333 68457142
L119591428 68457142
L119781904 68409523
L119877142 68361904
L119924761 68314285
L119972380 68219047
L119972380 68123809
L119924761 68028571
L119877142 67980952
L119781904 67933333
L119591428 67885714
L119353333 67885714
L119162857 67933333
L119067619 67980952
L119020000 68028571
L118972380 68123809
" />
<path d="M119305714 68885714
L119972380 68885714
" />
<path d="M119400952 68885714
L119353333 68933333
L119305714 69028571
L119305714 69171428
L119353333 69266666
L119448571 69314285
L119972380 69314285
" />
<path d="M119448571 70123809
L119448571 69790476
" />
<path d="M119972380 69790476
L118972380 69790476
L118972380 70266666
" />
</g></g>
<g style="fill:#000000; fill-opacity:0.0; 
stroke:#000000; stroke-width:80000.000000; stroke-opacity:1; 
stroke-linecap:round; stroke-linejoin:round;">
<g transform="rotate(-90.000000 121200000.000000 68100000.000000)">
<text x="121200000.000000" y="68350000.000000"
transform="scale(-1 1) translate(-242400000.000000 0)"
textLength="1257381.000000" font-size="666666.000000" lengthAdjust="spacingAndGlyphs"
text-anchor="middle" opacity="0">C15</text>
</g>
<g class="stroked-text"><desc>C15</desc>
<path d="M121378571 67778571
L121402380 67754761
L121426190 67683333
L121426190 67635714
L121402380 67564285
L121354761 67516666
L121307142 67492857
L121211904 67469047
L121140476 67469047
L121045238 67492857
L120997619 67516666
L120950000 67564285
L120926190 67635714
L120926190 67683333
L120950000 67754761
L120973809 67778571
" />
<path d="M121426190 68254761
L121426190 67969047
" />
<path d="M121426190 68111904
L120926190 68111904
L120997619 68064285
L121045238 68016666
L121069047 67969047
" />
<path d="M120926190 68707142
L120926190 68469047
L121164285 68445238
L121140476 68469047
L121116666 68516666
L121116666 68635714
L121140476 68683333
L121164285 68707142
L121211904 68730952
L121330952 68730952
L121378571 68707142
L121402380 68683333
L121426190 68635714
L121426190 68516666
L121402380 68469047
L121378571 68445238
" />
</g></g>
<g style="fill:#000000; fill-opacity:0.0; 
stroke:#000000; stroke-width:150000.000000; stroke-opacity:1; 
stroke-linecap:round; stroke-linejoin:round;">
<text x="118100000.000000" y="77020000.000000"
transform="scale(-1 1) translate(-236200000.000000 0)"
textLength="3562667.000000" font-size="1333333.000000" lengthAdjust="spacingAndGlyphs"
text-anchor="middle" opacity="0">14pF</text>
<g class="stroked-text"><desc>14pF</desc>
<path d="M119171428 76972380
L119742857 76972380
" />
<path d="M119457142 76972380
L119457142 75972380
L119552380 76115238
L119647619 76210476
L119742857 76258095
" />
<path d="M118314285 76305714
L118314285 76972380
" />
<path d="M118552380 75924761
L118790476 76639047
L118171428 76639047
" />
<path d="M117790476 76305714
L117790476 77305714
" />
<path d="M117790476 76353333
L117695238 76305714
L117504761 76305714
L117409523 76353333
L117361904 76400952
L117314285 76496190
L117314285 76781904
L117361904 76877142
L117409523 76924761
L117504761 76972380
L117695238 76972380
L117790476 76924761
" />
<path d="M116552380 76448571
L116885714 76448571
" />
<path d="M116885714 76972380
L116885714 75972380
L116409523 75972380
" />
</g></g>
<g style="fill:#000000; fill-opacity:0.0; 
stroke:#000000; stroke-width:80000.000000; stroke-opacity:1; 
stroke-linecap:round; stroke-linejoin:round;">
<text x="118100000.000000" y="75090000.000000"
transform="scale(-1 1) translate(-236200000.000000 0)"
textLength="781190.000000" font-size="666666.000000" lengthAdjust="spacingAndGlyphs"
text-anchor="middle" opacity="0">C6</text>
<g class="stroked-text"><desc>C6</desc>
<path d="M118183333 75018571
L118207142 75042380
L118278571 75066190
L118326190 75066190
L118397619 75042380
L118445238 74994761
L118469047 74947142
L118492857 74851904
L118492857 74780476
L118469047 74685238
L118445238 74637619
L118397619 74590000
L118326190 74566190
L118278571 74566190
L118207142 74590000
L118183333 74613809
" />
<path d="M117754761 74566190
L117850000 74566190
L117897619 74590000
L117921428 74613809
L117969047 74685238
L117992857 74780476
L117992857 74970952
L117969047 75018571
L117945238 75042380
L117897619 75066190
L117802380 75066190
L117754761 75042380
L117730952 75018571
L117707142 74970952
L117707142 74851904
L117730952 74804285
L117754761 74780476
L117802380 74756666
L117897619 74756666
L117945238 74780476
L117969047 74804285
L117992857 74851904
" />
</g></g>
<g style="fill:#000000; fill-opacity:0.0; 
stroke:#000000; stroke-width:150000.000000; stroke-opacity:1; 
stroke-linecap:round; stroke-linejoin:round;">
<text x="117966177.000000" y="80639441.000000"
transform="scale(-1 1) translate(-235932354.000000 0)"
textLength="12229333.000000" font-size="1333333.000000" lengthAdjust="spacingAndGlyphs"
text-anchor="middle" opacity="0">X322512MMB4SI</text>
<g class="stroked-text"><desc>X322512MMB4SI</desc>
<path d="M123989986 79591821
L123323319 80591821
" />
<path d="M123323319 79591821
L123989986 80591821
" />
<path d="M123037605 79591821
L122418557 79591821
L122751891 79972774
L122609034 79972774
L122513796 80020393
L122466177 80068012
L122418557 80163250
L122418557 80401345
L122466177 80496583
L122513796 80544202
L122609034 80591821
L122894748 80591821
L122989986 80544202
L123037605 80496583
" />
<path d="M122037605 79687060
L121989986 79639441
L121894748 79591821
L121656653 79591821
L121561415 79639441
L121513796 79687060
L121466177 79782298
L121466177 79877536
L121513796 80020393
L122085224 80591821
L121466177 80591821
" />
<path d="M121085224 79687060
L121037605 79639441
L120942367 79591821
L120704272 79591821
L120609034 79639441
L120561415 79687060
L120513796 79782298
L120513796 79877536
L120561415 80020393
L121132843 80591821
L120513796 80591821
" />
<path d="M119609034 79591821
L120085224 79591821
L120132843 80068012
L120085224 80020393
L119989986 79972774
L119751891 79972774
L119656653 80020393
L119609034 80068012
L119561415 80163250
L119561415 80401345
L119609034 80496583
L119656653 80544202
L119751891 80591821
L119989986 80591821
L120085224 80544202
L120132843 80496583
" />
<path d="M118609034 80591821
L119180462 80591821
" />
<path d="M118894748 80591821
L118894748 79591821
L118989986 79734679
L119085224 79829917
L119180462 79877536
" />
<path d="M118228081 79687060
L118180462 79639441
L118085224 79591821
L117847129 79591821
L117751891 79639441
L117704272 79687060
L117656653 79782298
L117656653 79877536
L117704272 80020393
L118275700 80591821
L117656653 80591821
" />
<path d="M117228081 80591821
L117228081 79591821
L116894748 80306107
L116561415 79591821
L116561415 80591821
" />
<path d="M116085224 80591821
L116085224 79591821
L115751891 80306107
L115418557 79591821
L115418557 80591821
" />
<path d="M114609034 80068012
L114466177 80115631
L114418557 80163250
L114370938 80258488
L114370938 80401345
L114418557 80496583
L114466177 80544202
L114561415 80591821
L114942367 80591821
L114942367 79591821
L114609034 79591821
L114513796 79639441
L114466177 79687060
L114418557 79782298
L114418557 79877536
L114466177 79972774
L114513796 80020393
L114609034 80068012
L114942367 80068012
" />
<path d="M113513796 79925155
L113513796 80591821
" />
<path d="M113751891 79544202
L113989986 80258488
L113370938 80258488
" />
<path d="M113037605 80544202
L112894748 80591821
L112656653 80591821
L112561415 80544202
L112513796 80496583
L112466177 80401345
L112466177 80306107
L112513796 80210869
L112561415 80163250
L112656653 80115631
L112847129 80068012
L112942367 80020393
L112989986 79972774
L113037605 79877536
L113037605 79782298
L112989986 79687060
L112942367 79639441
L112847129 79591821
L112609034 79591821
L112466177 79639441
" />
<path d="M112037605 80591821
L112037605 79591821
" />
</g></g>
<g style="fill:#000000; fill-opacity:0.0; 
stroke:#000000; stroke-width:105000.000000; stroke-opacity:1; 
stroke-linecap:round; stroke-linejoin:round;">
<text x="117966177.000000" y="78039441.000000"
transform="scale(-1 1) translate(-235932354.000000 0)"
textLength="1071667.000000" font-size="933333.000000" lengthAdjust="spacingAndGlyphs"
text-anchor="middle" opacity="0">Y1</text>
<g class="stroked-text"><desc>Y1</desc>
<path d="M118299510 77672774
L118299510 78006107
" />
<path d="M118532843 77306107
L118299510 77672774
L118066177 77306107
" />
<path d="M117466177 78006107
L117866177 78006107
" />
<path d="M117666177 78006107
L117666177 77306107
L117732843 77406107
L117799510 77472774
L117866177 77506107
" />
</g></g>
<g style="fill:#000000; fill-opacity:0.0; 
stroke:#000000; stroke-width:150000.000000; stroke-opacity:1; 
stroke-linecap:round; stroke-linejoin:round;">
<text x="118100000.000000" y="82780000.000000"
transform="scale(-1 1) translate(-236200000.000000 0)"
textLength="3530167.000000" font-size="1333333.000000" lengthAdjust="spacingAndGlyphs"
text-anchor="middle" opacity="0">14pF</text>
<g class="stroked-text"><desc>14pF</desc>
<path d="M119171428 82732380
L119742857 82732380
" />
<path d="M119457142 82732380
L119457142 81732380
L119552380 81875238
L119647619 81970476
L119742857 82018095
" />
<path d="M118314285 82065714
L118314285 82732380
" />
<path d="M118552380 81684761
L118790476 82399047
L118171428 82399047
" />
<path d="M117790476 82065714
L117790476 83065714
" />
<path d="M117790476 82113333
L117695238 82065714
L117504761 82065714
L117409523 82113333
L117361904 82160952
L117314285 82256190
L117314285 82541904
L117361904 82637142
L117409523 82684761
L117504761 82732380
L117695238 82732380
L117790476 82684761
" />
<path d="M116552380 82208571
L116885714 82208571
" />
<path d="M116885714 82732380
L116885714 81732380
L116409523 81732380
" />
</g></g>
<g style="fill:#000000; fill-opacity:0.0; 
stroke:#000000; stroke-width:80000.000000; stroke-opacity:1; 
stroke-linecap:round; stroke-linejoin:round;">
<text x="118100000.000000" y="80850000.000000"
transform="scale(-1 1) translate(-236200000.000000 0)"
textLength="781190.000000" font-size="666666.000000" lengthAdjust="spacingAndGlyphs"
text-anchor="middle" opacity="0">C5</text>
<g class="stroked-text"><desc>C5</desc>
<path d="M118183333 80778571
L118207142 80802380
L118278571 80826190
L118326190 80826190
L118397619 80802380
L118445238 80754761
L118469047 80707142
L118492857 80611904
L118492857 80540476
L118469047 80445238
L118445238 80397619
L118397619 80350000
L118326190 80326190
L118278571 80326190
L118207142 80350000
L118183333 80373809
" />
<path d="M117730952 80326190
L117969047 80326190
L117992857 80564285
L117969047 80540476
L117921428 80516666
L117802380 80516666
L117754761 80540476
L117730952 80564285
L117707142 80611904
L117707142 80730952
L117730952 80778571
L117754761 80802380
L117802380 80826190
L117921428 80826190
L117969047 80802380
L117992857 80778571
" />
</g></g>
<g style="fill:#000000; fill-opacity:0.0; 
stroke:#000000; stroke-width:150000.000000; stroke-opacity:1; 
stroke-linecap:round; stroke-linejoin:round;">
<text x="131760003.000000" y="69752167.000000"
transform="scale(-1 1) translate(-263520006.000000 0)"
textLength="4515048.000000" font-size="1333333.000000" lengthAdjust="spacingAndGlyphs"
text-anchor="middle" opacity="0">100nF</text>
<g class="stroked-text"><desc>100nF</desc>
<path d="M133307622 69704547
L133879050 69704547
" />
<path d="M133593336 69704547
L133593336 68704547
L133688574 68847405
L133783812 68942643
L133879050 68990262
" />
<path d="M132688574 68704547
L132593336 68704547
L132498098 68752167
L132450479 68799786
L132402860 68895024
L132355241 69085500
L132355241 69323595
L132402860 69514071
L132450479 69609309
L132498098 69656928
L132593336 69704547
L132688574 69704547
L132783812 69656928
L132831431 69609309
L132879050 69514071
L132926669 69323595
L132926669 69085500
L132879050 68895024
L132831431 68799786
L132783812 68752167
L132688574 68704547
" />
<path d="M131736193 68704547
L131640955 68704547
L131545717 68752167
L131498098 68799786
L131450479 68895024
L131402860 69085500
L131402860 69323595
L131450479 69514071
L131498098 69609309
L131545717 69656928
L131640955 69704547
L131736193 69704547
L131831431 69656928
L131879050 69609309
L131926669 69514071
L131974288 69323595
L131974288 69085500
L131926669 68895024
L131879050 68799786
L131831431 68752167
L131736193 68704547
" />
<path d="M130974288 69037881
L130974288 69704547
" />
<path d="M130974288 69133119
L130926669 69085500
L130831431 69037881
L130688574 69037881
L130593336 69085500
L130545717 69180738
L130545717 69704547
" />
<path d="M129736193 69180738
L130069526 69180738
" />
<path d="M130069526 69704547
L130069526 68704547
L129593336 68704547
" />
</g></g>
<g style="fill:#000000; fill-opacity:0.0; 
stroke:#000000; stroke-width:80000.000000; stroke-opacity:1; 
stroke-linecap:round; stroke-linejoin:round;">
<text x="131760003.000000" y="71182167.000000"
transform="scale(-1 1) translate(-263520006.000000 0)"
textLength="781190.000000" font-size="666666.000000" lengthAdjust="spacingAndGlyphs"
text-anchor="middle" opacity="0">C9</text>
<g class="stroked-text"><desc>C9</desc>
<path d="M131843336 71110738
L131867145 71134547
L131938574 71158357
L131986193 71158357
L132057622 71134547
L132105241 71086928
L132129050 71039309
L132152860 70944071
L132152860 70872643
L132129050 70777405
L132105241 70729786
L132057622 70682167
L131986193 70658357
L131938574 70658357
L131867145 70682167
L131843336 70705976
" />
<path d="M131605241 71158357
L131510003 71158357
L131462383 71134547
L131438574 71110738
L131390955 71039309
L131367145 70944071
L131367145 70753595
L131390955 70705976
L131414764 70682167
L131462383 70658357
L131557622 70658357
L131605241 70682167
L131629050 70705976
L131652860 70753595
L131652860 70872643
L131629050 70920262
L131605241 70944071
L131557622 70967881
L131462383 70967881
L131414764 70944071
L131390955 70920262
L131367145 70872643
" />
</g></g>
<g style="fill:#000000; fill-opacity:0.0; 
stroke:#000000; stroke-width:150000.000000; stroke-opacity:1; 
stroke-linecap:round; stroke-linejoin:round;">
<g transform="rotate(-90.000000 134850000.000000 81000000.000000)">
<text x="134850000.000000" y="81500000.000000"
transform="scale(-1 1) translate(-269700000.000000 0)"
textLength="3753143.000000" font-size="1333333.000000" lengthAdjust="spacingAndGlyphs"
text-anchor="middle" opacity="0">10kΩ</text>
</g>
<g class="stroked-text"><desc>10kΩ</desc>
<path d="M135302380 79833333
L135302380 79261904
" />
<path d="M135302380 79547619
L134302380 79547619
L134445238 79452380
L134540476 79357142
L134588095 79261904
" />
<path d="M134302380 80452380
L134302380 80547619
L134350000 80642857
L134397619 80690476
L134492857 80738095
L134683333 80785714
L134921428 80785714
L135111904 80738095
L135207142 80690476
L135254761 80642857
L135302380 80547619
L135302380 80452380
L135254761 80357142
L135207142 80309523
L135111904 80261904
L134921428 80214285
L134683333 80214285
L134492857 80261904
L134397619 80309523
L134350000 80357142
L134302380 80452380
" />
<path d="M135302380 81214285
L134302380 81214285
" />
<path d="M134921428 81309523
L135302380 81595238
" />
<path d="M134635714 81595238
L135016666 81214285
" />
<path d="M135302380 81976190
L135302380 82214285
L135111904 82214285
L135064285 82119047
L134969047 82023809
L134826190 81976190
L134588095 81976190
L134445238 82023809
L134350000 82119047
L134302380 82261904
L134302380 82452380
L134350000 82595238
L134445238 82690476
L134588095 82738095
L134826190 82738095
L134969047 82690476
L135064285 82595238
L135111904 82500000
L135302380 82500000
L135302380 82738095
" />
</g></g>
<g style="fill:#000000; fill-opacity:0.0; 
stroke:#000000; stroke-width:80000.000000; stroke-opacity:1; 
stroke-linecap:round; stroke-linejoin:round;">
<g transform="rotate(-90.000000 136500000.000000 81000000.000000)">
<text x="136500000.000000" y="81250000.000000"
transform="scale(-1 1) translate(-273000000.000000 0)"
textLength="781190.000000" font-size="666666.000000" lengthAdjust="spacingAndGlyphs"
text-anchor="middle" opacity="0">R6</text>
</g>
<g class="stroked-text"><desc>R6</desc>
<path d="M136726190 80916666
L136488095 80750000
" />
<path d="M136726190 80630952
L136226190 80630952
L136226190 80821428
L136250000 80869047
L136273809 80892857
L136321428 80916666
L136392857 80916666
L136440476 80892857
L136464285 80869047
L136488095 80821428
L136488095 80630952
" />
<path d="M136226190 81345238
L136226190 81250000
L136250000 81202380
L136273809 81178571
L136345238 81130952
L136440476 81107142
L136630952 81107142
L136678571 81130952
L136702380 81154761
L136726190 81202380
L136726190 81297619
L136702380 81345238
L136678571 81369047
L136630952 81392857
L136511904 81392857
L136464285 81369047
L136440476 81345238
L136416666 81297619
L136416666 81202380
L136440476 81154761
L136464285 81130952
L136511904 81107142
" />
</g></g>
<g style="fill:#000000; fill-opacity:0.0; 
stroke:#000000; stroke-width:150000.000000; stroke-opacity:1; 
stroke-linecap:round; stroke-linejoin:round;">
<text x="144100000.000000" y="75900000.000000"
transform="scale(-1 1) translate(-288200000.000000 0)"
textLength="3705524.000000" font-size="1333333.000000" lengthAdjust="spacingAndGlyphs"
text-anchor="middle" opacity="0">10μF</text>
<g class="stroked-text"><desc>10μF</desc>
<path d="M145242857 75852380
L145814285 75852380
" />
<path d="M145528571 75852380
L145528571 74852380
L145623809 74995238
L145719047 75090476
L145814285 75138095
" />
<path d="M144623809 74852380
L144528571 74852380
L144433333 74900000
L144385714 74947619
L144338095 75042857
L144290476 75233333
L144290476 75471428
L144338095 75661904
L144385714 75757142
L144433333 75804761
L144528571 75852380
L144623809 75852380
L144719047 75804761
L144766666 75757142
L144814285 75661904
L144861904 75471428
L144861904 75233333
L144814285 75042857
L144766666 74947619
L144719047 74900000
L144623809 74852380
" />
<path d="M143861904 75185714
L143861904 76185714
" />
<path d="M143385714 75709523
L143338095 75804761
L143242857 75852380
" />
<path d="M143861904 75709523
L143814285 75804761
L143719047 75852380
L143528571 75852380
L143433333 75804761
L143385714 75709523
L143385714 75185714
" />
<path d="M142480952 75328571
L142814285 75328571
" />
<path d="M142814285 75852380
L142814285 74852380
L142338095 74852380
" />
</g></g>
<g style="fill:#000000; fill-opacity:0.0; 
stroke:#000000; stroke-width:120000.000000; stroke-opacity:1; 
stroke-linecap:round; stroke-linejoin:round;">
<text x="144100000.000000" y="73950000.000000"
transform="scale(-1 1) translate(-288200000.000000 0)"
textLength="1366905.000000" font-size="1066666.000000" lengthAdjust="spacingAndGlyphs"
text-anchor="middle" opacity="0">C3</text>
<g class="stroked-text"><desc>C3</desc>
<path d="M144233333 73835714
L144271428 73873809
L144385714 73911904
L144461904 73911904
L144576190 73873809
L144652380 73797619
L144690476 73721428
L144728571 73569047
L144728571 73454761
L144690476 73302380
L144652380 73226190
L144576190 73150000
L144461904 73111904
L144385714 73111904
L144271428 73150000
L144233333 73188095
" />
<path d="M143966666 73111904
L143471428 73111904
L143738095 73416666
L143623809 73416666
L143547619 73454761
L143509523 73492857
L143471428 73569047
L143471428 73759523
L143509523 73835714
L143547619 73873809
L143623809 73911904
L143852380 73911904
L143928571 73873809
L143966666 73835714
" />
</g></g>
<g style="fill:#000000; fill-opacity:0.0; 
stroke:#000000; stroke-width:150000.000000; stroke-opacity:1; 
stroke-linecap:round; stroke-linejoin:round;">
<text x="144100000.000000" y="73600000.000000"
transform="scale(-1 1) translate(-288200000.000000 0)"
textLength="3653524.000000" font-size="1333333.000000" lengthAdjust="spacingAndGlyphs"
text-anchor="middle" opacity="0">10μF</text>
<g class="stroked-text"><desc>10μF</desc>
<path d="M145242857 73552380
L145814285 73552380
" />
<path d="M145528571 73552380
L145528571 72552380
L145623809 72695238
L145719047 72790476
L145814285 72838095
" />
<path d="M144623809 72552380
L144528571 72552380
L144433333 72600000
L144385714 72647619
L144338095 72742857
L144290476 72933333
L144290476 73171428
L144338095 73361904
L144385714 73457142
L144433333 73504761
L144528571 73552380
L144623809 73552380
L144719047 73504761
L144766666 73457142
L144814285 73361904
L144861904 73171428
L144861904 72933333
L144814285 72742857
L144766666 72647619
L144719047 72600000
L144623809 72552380
" />
<path d="M143861904 72885714
L143861904 73885714
" />
<path d="M143385714 73409523
L143338095 73504761
L143242857 73552380
" />
<path d="M143861904 73409523
L143814285 73504761
L143719047 73552380
L143528571 73552380
L143433333 73504761
L143385714 73409523
L143385714 72885714
" />
<path d="M142480952 73028571
L142814285 73028571
" />
<path d="M142814285 73552380
L142814285 72552380
L142338095 72552380
" />
</g></g>
<g style="fill:#000000; fill-opacity:0.0; 
stroke:#000000; stroke-width:120000.000000; stroke-opacity:1; 
stroke-linecap:round; stroke-linejoin:round;">
<text x="144100000.000000" y="71650000.000000"
transform="scale(-1 1) translate(-288200000.000000 0)"
textLength="1366905.000000" font-size="1066666.000000" lengthAdjust="spacingAndGlyphs"
text-anchor="middle" opacity="0">C2</text>
<g class="stroked-text"><desc>C2</desc>
<path d="M144233333 71535714
L144271428 71573809
L144385714 71611904
L144461904 71611904
L144576190 71573809
L144652380 71497619
L144690476 71421428
L144728571 71269047
L144728571 71154761
L144690476 71002380
L144652380 70926190
L144576190 70850000
L144461904 70811904
L144385714 70811904
L144271428 70850000
L144233333 70888095
" />
<path d="M143928571 70888095
L143890476 70850000
L143814285 70811904
L143623809 70811904
L143547619 70850000
L143509523 70888095
L143471428 70964285
L143471428 71040476
L143509523 71154761
L143966666 71611904
L143471428 71611904
" />
</g></g>
<g style="fill:#000000; fill-opacity:0.0; 
stroke:#000000; stroke-width:150000.000000; stroke-opacity:1; 
stroke-linecap:round; stroke-linejoin:round;">
<text x="148925000.000000" y="66350000.000000"
transform="scale(-1 1) translate(-297850000.000000 0)"
textLength="4177333.000000" font-size="1333333.000000" lengthAdjust="spacingAndGlyphs"
text-anchor="middle" opacity="0">5.1kΩ</text>
<g class="stroked-text"><desc>5.1kΩ</desc>
<path d="M150377380 65302380
L150853571 65302380
L150901190 65778571
L150853571 65730952
L150758333 65683333
L150520238 65683333
L150425000 65730952
L150377380 65778571
L150329761 65873809
L150329761 66111904
L150377380 66207142
L150425000 66254761
L150520238 66302380
L150758333 66302380
L150853571 66254761
L150901190 66207142
" />
<path d="M149901190 66207142
L149853571 66254761
L149901190 66302380
L149948809 66254761
L149901190 66207142
L149901190 66302380
" />
<path d="M148901190 66302380
L149472619 66302380
" />
<path d="M149186904 66302380
L149186904 65302380
L149282142 65445238
L149377380 65540476
L149472619 65588095
" />
<path d="M148472619 66302380
L148472619 65302380
" />
<path d="M148377380 65921428
L148091666 66302380
" />
<path d="M148091666 65635714
L148472619 66016666
" />
<path d="M147710714 66302380
L147472619 66302380
L147472619 66111904
L147567857 66064285
L147663095 65969047
L147710714 65826190
L147710714 65588095
L147663095 65445238
L147567857 65350000
L147425000 65302380
L147234523 65302380
L147091666 65350000
L146996428 65445238
L146948809 65588095
L146948809 65826190
L146996428 65969047
L147091666 66064285
L147186904 66111904
L147186904 66302380
L146948809 66302380
" />
</g></g>
<g style="fill:#000000; fill-opacity:0.0; 
stroke:#000000; stroke-width:80000.000000; stroke-opacity:1; 
stroke-linecap:round; stroke-linejoin:round;">
<text x="148925000.000000" y="64450000.000000"
transform="scale(-1 1) translate(-297850000.000000 0)"
textLength="781190.000000" font-size="666666.000000" lengthAdjust="spacingAndGlyphs"
text-anchor="middle" opacity="0">R5</text>
<g class="stroked-text"><desc>R5</desc>
<path d="M149008333 64426190
L149175000 64188095
" />
<path d="M149294047 64426190
L149294047 63926190
L149103571 63926190
L149055952 63950000
L149032142 63973809
L149008333 64021428
L149008333 64092857
L149032142 64140476
L149055952 64164285
L149103571 64188095
L149294047 64188095
" />
<path d="M148555952 63926190
L148794047 63926190
L148817857 64164285
L148794047 64140476
L148746428 64116666
L148627380 64116666
L148579761 64140476
L148555952 64164285
L148532142 64211904
L148532142 64330952
L148555952 64378571
L148579761 64402380
L148627380 64426190
L148746428 64426190
L148794047 64402380
L148817857 64378571
" />
</g></g>
<g style="fill:#000000; fill-opacity:0.0; 
stroke:#000000; stroke-width:150000.000000; stroke-opacity:1; 
stroke-linecap:round; stroke-linejoin:round;">
<text x="118107598.000000" y="72656952.000000"
transform="scale(-1 1) translate(-236215196.000000 0)"
textLength="4515048.000000" font-size="1333333.000000" lengthAdjust="spacingAndGlyphs"
text-anchor="middle" opacity="0">100nF</text>
<g class="stroked-text"><desc>100nF</desc>
<path d="M119655217 72609332
L120226645 72609332
" />
<path d="M119940931 72609332
L119940931 71609332
L120036169 71752190
L120131407 71847428
L120226645 71895047
" />
<path d="M119036169 71609332
L118940931 71609332
L118845693 71656952
L118798074 71704571
L118750455 71799809
L118702836 71990285
L118702836 72228380
L118750455 72418856
L118798074 72514094
L118845693 72561713
L118940931 72609332
L119036169 72609332
L119131407 72561713
L119179026 72514094
L119226645 72418856
L119274264 72228380
L119274264 71990285
L119226645 71799809
L119179026 71704571
L119131407 71656952
L119036169 71609332
" />
<path d="M118083788 71609332
L117988550 71609332
L117893312 71656952
L117845693 71704571
L117798074 71799809
L117750455 71990285
L117750455 72228380
L117798074 72418856
L117845693 72514094
L117893312 72561713
L117988550 72609332
L118083788 72609332
L118179026 72561713
L118226645 72514094
L118274264 72418856
L118321883 72228380
L118321883 71990285
L118274264 71799809
L118226645 71704571
L118179026 71656952
L118083788 71609332
" />
<path d="M117321883 71942666
L117321883 72609332
" />
<path d="M117321883 72037904
L117274264 71990285
L117179026 71942666
L117036169 71942666
L116940931 71990285
L116893312 72085523
L116893312 72609332
" />
<path d="M116083788 72085523
L116417121 72085523
" />
<path d="M116417121 72609332
L116417121 71609332
L115940931 71609332
" />
</g></g>
<g style="fill:#000000; fill-opacity:0.0; 
stroke:#000000; stroke-width:80000.000000; stroke-opacity:1; 
stroke-linecap:round; stroke-linejoin:round;">
<text x="118107598.000000" y="70726952.000000"
transform="scale(-1 1) translate(-236215196.000000 0)"
textLength="1257381.000000" font-size="666666.000000" lengthAdjust="spacingAndGlyphs"
text-anchor="middle" opacity="0">C17</text>
<g class="stroked-text"><desc>C17</desc>
<path d="M118429026 70655523
L118452836 70679332
L118524264 70703142
L118571883 70703142
L118643312 70679332
L118690931 70631713
L118714740 70584094
L118738550 70488856
L118738550 70417428
L118714740 70322190
L118690931 70274571
L118643312 70226952
L118571883 70203142
L118524264 70203142
L118452836 70226952
L118429026 70250761
" />
<path d="M117952836 70703142
L118238550 70703142
" />
<path d="M118095693 70703142
L118095693 70203142
L118143312 70274571
L118190931 70322190
L118238550 70345999
" />
<path d="M117786169 70203142
L117452836 70203142
L117667121 70703142
" />
</g></g>
<g style="fill:#000000; fill-opacity:0.0; 
stroke:#000000; stroke-width:150000.000000; stroke-opacity:1; 
stroke-linecap:round; stroke-linejoin:round;">
<g transform="rotate(-90.000000 146310000.000000 87450000.000000)">
<text x="146310000.000000" y="87950000.000000"
transform="scale(-1 1) translate(-292620000.000000 0)"
textLength="2753143.000000" font-size="1333333.000000" lengthAdjust="spacingAndGlyphs"
text-anchor="middle" opacity="0">1μF</text>
</g>
<g class="stroked-text"><desc>1μF</desc>
<path d="M146762380 86783333
L146762380 86211904
" />
<path d="M146762380 86497619
L145762380 86497619
L145905238 86402380
L146000476 86307142
L146048095 86211904
" />
<path d="M146095714 87211904
L147095714 87211904
" />
<path d="M146619523 87688095
L146714761 87735714
L146762380 87830952
" />
<path d="M146619523 87211904
L146714761 87259523
L146762380 87354761
L146762380 87545238
L146714761 87640476
L146619523 87688095
L146095714 87688095
" />
<path d="M146238571 88592857
L146238571 88259523
" />
<path d="M146762380 88259523
L145762380 88259523
L145762380 88735714
" />
</g></g>
<g style="fill:#000000; fill-opacity:0.0; 
stroke:#000000; stroke-width:80000.000000; stroke-opacity:1; 
stroke-linecap:round; stroke-linejoin:round;">
<g transform="rotate(-90.000000 147990000.000000 87450000.000000)">
<text x="147990000.000000" y="87700000.000000"
transform="scale(-1 1) translate(-295980000.000000 0)"
textLength="781190.000000" font-size="666666.000000" lengthAdjust="spacingAndGlyphs"
text-anchor="middle" opacity="0">C1</text>
</g>
<g class="stroked-text"><desc>C1</desc>
<path d="M148168571 87366666
L148192380 87342857
L148216190 87271428
L148216190 87223809
L148192380 87152380
L148144761 87104761
L148097142 87080952
L148001904 87057142
L147930476 87057142
L147835238 87080952
L147787619 87104761
L147740000 87152380
L147716190 87223809
L147716190 87271428
L147740000 87342857
L147763809 87366666
" />
<path d="M148216190 87842857
L148216190 87557142
" />
<path d="M148216190 87700000
L147716190 87700000
L147787619 87652380
L147835238 87604761
L147859047 87557142
" />
</g></g>
<g style="fill:#000000; fill-opacity:0.0; 
stroke:#000000; stroke-width:150000.000000; stroke-opacity:1; 
stroke-linecap:round; stroke-linejoin:round;">
<text x="118107598.000000" y="74919694.000000"
transform="scale(-1 1) translate(-236215196.000000 0)"
textLength="4515048.000000" font-size="1333333.000000" lengthAdjust="spacingAndGlyphs"
text-anchor="middle" opacity="0">100nF</text>
<g class="stroked-text"><desc>100nF</desc>
<path d="M119655217 74872074
L120226645 74872074
" />
<path d="M119940931 74872074
L119940931 73872074
L120036169 74014932
L120131407 74110170
L120226645 74157789
" />
<path d="M119036169 73872074
L118940931 73872074
L118845693 73919694
L118798074 73967313
L118750455 74062551
L118702836 74253027
L118702836 74491122
L118750455 74681598
L118798074 74776836
L118845693 74824455
L118940931 74872074
L119036169 74872074
L119131407 74824455
L119179026 74776836
L119226645 74681598
L119274264 74491122
L119274264 74253027
L119226645 74062551
L119179026 73967313
L119131407 73919694
L119036169 73872074
" />
<path d="M118083788 73872074
L117988550 73872074
L117893312 73919694
L117845693 73967313
L117798074 74062551
L117750455 74253027
L117750455 74491122
L117798074 74681598
L117845693 74776836
L117893312 74824455
L117988550 74872074
L118083788 74872074
L118179026 74824455
L118226645 74776836
L118274264 74681598
L118321883 74491122
L118321883 74253027
L118274264 74062551
L118226645 73967313
L118179026 73919694
L118083788 73872074
" />
<path d="M117321883 74205408
L117321883 74872074
" />
<path d="M117321883 74300646
L117274264 74253027
L117179026 74205408
L117036169 74205408
L116940931 74253027
L116893312 74348265
L116893312 74872074
" />
<path d="M116083788 74348265
L116417121 74348265
" />
<path d="M116417121 74872074
L116417121 73872074
L115940931 73872074
" />
</g></g>
<g style="fill:#000000; fill-opacity:0.0; 
stroke:#000000; stroke-width:80000.000000; stroke-opacity:1; 
stroke-linecap:round; stroke-linejoin:round;">
<text x="118107598.000000" y="72989694.000000"
transform="scale(-1 1) translate(-236215196.000000 0)"
textLength="1257381.000000" font-size="666666.000000" lengthAdjust="spacingAndGlyphs"
text-anchor="middle" opacity="0">C10</text>
<g class="stroked-text"><desc>C10</desc>
<path d="M118429026 72918265
L118452836 72942074
L118524264 72965884
L118571883 72965884
L118643312 72942074
L118690931 72894455
L118714740 72846836
L118738550 72751598
L118738550 72680170
L118714740 72584932
L118690931 72537313
L118643312 72489694
L118571883 72465884
L118524264 72465884
L118452836 72489694
L118429026 72513503
" />
<path d="M117952836 72965884
L118238550 72965884
" />
<path d="M118095693 72965884
L118095693 72465884
L118143312 72537313
L118190931 72584932
L118238550 72608741
" />
<path d="M117643312 72465884
L117595693 72465884
L117548074 72489694
L117524264 72513503
L117500455 72561122
L117476645 72656360
L117476645 72775408
L117500455 72870646
L117524264 72918265
L117548074 72942074
L117595693 72965884
L117643312 72965884
L117690931 72942074
L117714740 72918265
L117738550 72870646
L117762359 72775408
L117762359 72656360
L117738550 72561122
L117714740 72513503
L117690931 72489694
L117643312 72465884
" />
</g></g>
<g style="fill:#000000; fill-opacity:0.0; 
stroke:#000000; stroke-width:150000.000000; stroke-opacity:1; 
stroke-linecap:round; stroke-linejoin:round;">
<g transform="rotate(-90.000000 120180000.000000 75000000.000000)">
<text x="120180000.000000" y="75500000.000000"
transform="scale(-1 1) translate(-240360000.000000 0)"
textLength="5705524.000000" font-size="1333333.000000" lengthAdjust="spacingAndGlyphs"
text-anchor="middle" opacity="0">RP2040</text>
</g>
<g class="stroked-text"><desc>RP2040</desc>
<path d="M120632380 72904761
L120156190 72571428
" />
<path d="M120632380 72333333
L119632380 72333333
L119632380 72714285
L119680000 72809523
L119727619 72857142
L119822857 72904761
L119965714 72904761
L120060952 72857142
L120108571 72809523
L120156190 72714285
L120156190 72333333
" />
<path d="M120632380 73333333
L119632380 73333333
L119632380 73714285
L119680000 73809523
L119727619 73857142
L119822857 73904761
L119965714 73904761
L120060952 73857142
L120108571 73809523
L120156190 73714285
L120156190 73333333
" />
<path d="M119727619 74285714
L119680000 74333333
L119632380 74428571
L119632380 74666666
L119680000 74761904
L119727619 74809523
L119822857 74857142
L119918095 74857142
L120060952 74809523
L120632380 74238095
L120632380 74857142
" />
<path d="M119632380 75476190
L119632380 75571428
L119680000 75666666
L119727619 75714285
L119822857 75761904
L120013333 75809523
L120251428 75809523
L120441904 75761904
L120537142 75714285
L120584761 75666666
L120632380 75571428
L120632380 75476190
L120584761 75380952
L120537142 75333333
L120441904 75285714
L120251428 75238095
L120013333 75238095
L119822857 75285714
L119727619 75333333
L119680000 75380952
L119632380 75476190
" />
<path d="M119965714 76666666
L120632380 76666666
" />
<path d="M119584761 76428571
L120299047 76190476
L120299047 76809523
" />
<path d="M119632380 77380952
L119632380 77476190
L119680000 77571428
L119727619 77619047
L119822857 77666666
L120013333 77714285
L120251428 77714285
L120441904 77666666
L120537142 77619047
L120584761 77571428
L120632380 77476190
L120632380 77380952
L120584761 77285714
L120537142 77238095
L120441904 77190476
L120251428 77142857
L120013333 77142857
L119822857 77190476
L119727619 77238095
L119680000 77285714
L119632380 77380952
" />
</g><g transform="rotate(-90.000000 125000000.000000 75000000.000000)">
<text x="125000000.000000" y="75500000.000000"
transform="scale(-1 1) translate(-250000000.000000 0)"
textLength="1805000.000000" font-size="1333333.000000" lengthAdjust="spacingAndGlyphs"
text-anchor="middle" opacity="0">U4</text>
</g>
<g class="stroked-text"><desc>U4</desc>
<path d="M124452380 74238095
L125261904 74238095
L125357142 74285714
L125404761 74333333
L125452380 74428571
L125452380 74619047
L125404761 74714285
L125357142 74761904
L125261904 74809523
L124452380 74809523
" />
<path d="M124785714 75714285
L125452380 75714285
" />
<path d="M124404761 75476190
L125119047 75238095
L125119047 75857142
" />
</g><text x="151625000.000000" y="53560000.000000"
transform="scale(-1 1) translate(-303250000.000000 0)"
textLength="6519286.000000" font-size="1333333.000000" lengthAdjust="spacingAndGlyphs"
text-anchor="middle" opacity="0">C116159</text>
<g class="stroked-text"><desc>C116159</desc>
<path d="M154172619 53417142
L154220238 53464761
L154363095 53512380
L154458333 53512380
L154601190 53464761
L154696428 53369523
L154744047 53274285
L154791666 53083809
L154791666 52940952
L154744047 52750476
L154696428 52655238
L154601190 52560000
L154458333 52512380
L154363095 52512380
L154220238 52560000
L154172619 52607619
" />
<path d="M153220238 53512380
L153791666 53512380
" />
<path d="M153505952 53512380
L153505952 52512380
L153601190 52655238
L153696428 52750476
L153791666 52798095
" />
<path d="M152267857 53512380
L152839285 53512380
" />
<path d="M152553571 53512380
L152553571 52512380
L152648809 52655238
L152744047 52750476
L152839285 52798095
" />
<path d="M151410714 52512380
L151601190 52512380
L151696428 52560000
L151744047 52607619
L151839285 52750476
L151886904 52940952
L151886904 53321904
L151839285 53417142
L151791666 53464761
L151696428 53512380
L151505952 53512380
L151410714 53464761
L151363095 53417142
L151315476 53321904
L151315476 53083809
L151363095 52988571
L151410714 52940952
L151505952 52893333
L151696428 52893333
L151791666 52940952
L151839285 52988571
L151886904 53083809
" />
<path d="M150363095 53512380
L150934523 53512380
" />
<path d="M150648809 53512380
L150648809 52512380
L150744047 52655238
L150839285 52750476
L150934523 52798095
" />
<path d="M149458333 52512380
L149934523 52512380
L149982142 52988571
L149934523 52940952
L149839285 52893333
L149601190 52893333
L149505952 52940952
L149458333 52988571
L149410714 53083809
L149410714 53321904
L149458333 53417142
L149505952 53464761
L149601190 53512380
L149839285 53512380
L149934523 53464761
L149982142 53417142
" />
<path d="M148934523 53512380
L148744047 53512380
L148648809 53464761
L148601190 53417142
L148505952 53274285
L148458333 53083809
L148458333 52702857
L148505952 52607619
L148553571 52560000
L148648809 52512380
L148839285 52512380
L148934523 52560000
L148982142 52607619
L149029761 52702857
L149029761 52940952
L148982142 53036190
L148934523 53083809
L148839285 53131428
L148648809 53131428
L148553571 53083809
L148505952 53036190
L148458333 52940952
" />
</g><text x="151625000.000000" y="58620000.000000"
transform="scale(-1 1) translate(-303250000.000000 0)"
textLength="1519286.000000" font-size="1333333.000000" lengthAdjust="spacingAndGlyphs"
text-anchor="middle" opacity="0">J1</text>
<g class="stroked-text"><desc>J1</desc>
<path d="M151958333 57572380
L151958333 58286666
L152005952 58429523
L152101190 58524761
L152244047 58572380
L152339285 58572380
" />
<path d="M150958333 58572380
L151529761 58572380
" />
<path d="M151244047 58572380
L151244047 57572380
L151339285 57715238
L151434523 57810476
L151529761 57858095
" />
</g><text x="154300000.000000" y="70570000.000000"
transform="scale(-1 1) translate(-308600000.000000 0)"
textLength="6519286.000000" font-size="1333333.000000" lengthAdjust="spacingAndGlyphs"
text-anchor="middle" opacity="0">C261953</text>
<g class="stroked-text"><desc>C261953</desc>
<path d="M156847619 70427142
L156895238 70474761
L157038095 70522380
L157133333 70522380
L157276190 70474761
L157371428 70379523
L157419047 70284285
L157466666 70093809
L157466666 69950952
L157419047 69760476
L157371428 69665238
L157276190 69570000
L157133333 69522380
L157038095 69522380
L156895238 69570000
L156847619 69617619
" />
<path d="M156466666 69617619
L156419047 69570000
L156323809 69522380
L156085714 69522380
L155990476 69570000
L155942857 69617619
L155895238 69712857
L155895238 69808095
L155942857 69950952
L156514285 70522380
L155895238 70522380
" />
<path d="M155038095 69522380
L155228571 69522380
L155323809 69570000
L155371428 69617619
L155466666 69760476
L155514285 69950952
L155514285 70331904
L155466666 70427142
L155419047 70474761
L155323809 70522380
L155133333 70522380
L155038095 70474761
L154990476 70427142
L154942857 70331904
L154942857 70093809
L154990476 69998571
L155038095 69950952
L155133333 69903333
L155323809 69903333
L155419047 69950952
L155466666 69998571
L155514285 70093809
" />
<path d="M153990476 70522380
L154561904 70522380
" />
<path d="M154276190 70522380
L154276190 69522380
L154371428 69665238
L154466666 69760476
L154561904 69808095
" />
<path d="M153514285 70522380
L153323809 70522380
L153228571 70474761
L153180952 70427142
L153085714 70284285
L153038095 70093809
L153038095 69712857
L153085714 69617619
L153133333 69570000
L153228571 69522380
L153419047 69522380
L153514285 69570000
L153561904 69617619
L153609523 69712857
L153609523 69950952
L153561904 70046190
L153514285 70093809
L153419047 70141428
L153228571 70141428
L153133333 70093809
L153085714 70046190
L153038095 69950952
" />
<path d="M152133333 69522380
L152609523 69522380
L152657142 69998571
L152609523 69950952
L152514285 69903333
L152276190 69903333
L152180952 69950952
L152133333 69998571
L152085714 70093809
L152085714 70331904
L152133333 70427142
L152180952 70474761
L152276190 70522380
L152514285 70522380
L152609523 70474761
L152657142 70427142
" />
<path d="M151752380 69522380
L151133333 69522380
L151466666 69903333
L151323809 69903333
L151228571 69950952
L151180952 69998571
L151133333 70093809
L151133333 70331904
L151180952 70427142
L151228571 70474761
L151323809 70522380
L151609523 70522380
L151704761 70474761
L151752380 70427142
" />
</g></g>
<g style="fill:#000000; fill-opacity:0.0; 
stroke:#000000; stroke-width:120000.000000; stroke-opacity:1; 
stroke-linecap:round; stroke-linejoin:round;">
<text x="154300000.000000" y="68650000.000000"
transform="scale(-1 1) translate(-308600000.000000 0)"
textLength="1252619.000000" font-size="1066666.000000" lengthAdjust="spacingAndGlyphs"
text-anchor="middle" opacity="0">F1</text>
<g class="stroked-text"><desc>F1</desc>
<path d="M154566666 68192857
L154833333 68192857
" />
<path d="M154833333 68611904
L154833333 67811904
L154452380 67811904
" />
<path d="M153728571 68611904
L154185714 68611904
" />
<path d="M153957142 68611904
L153957142 67811904
L154033333 67926190
L154109523 68002380
L154185714 68040476
" />
</g></g>
<g style="fill:#000000; fill-opacity:0.0; 
stroke:#000000; stroke-width:150000.000000; stroke-opacity:1; 
stroke-linecap:round; stroke-linejoin:round;">
<text x="154290000.000000" y="63050000.000000"
transform="scale(-1 1) translate(-308580000.000000 0)"
textLength="4177333.000000" font-size="1333333.000000" lengthAdjust="spacingAndGlyphs"
text-anchor="middle" opacity="0">5.1kΩ</text>
<g class="stroked-text"><desc>5.1kΩ</desc>
<path d="M155742380 62002380
L156218571 62002380
L156266190 62478571
L156218571 62430952
L156123333 62383333
L155885238 62383333
L155790000 62430952
L155742380 62478571
L155694761 62573809
L155694761 62811904
L155742380 62907142
L155790000 62954761
L155885238 63002380
L156123333 63002380
L156218571 62954761
L156266190 62907142
" />
<path d="M155266190 62907142
L155218571 62954761
L155266190 63002380
L155313809 62954761
L155266190 62907142
L155266190 63002380
" />
<path d="M154266190 63002380
L154837619 63002380
" />
<path d="M154551904 63002380
L154551904 62002380
L154647142 62145238
L154742380 62240476
L154837619 62288095
" />
<path d="M153837619 63002380
L153837619 62002380
" />
<path d="M153742380 62621428
L153456666 63002380
" />
<path d="M153456666 62335714
L153837619 62716666
" />
<path d="M153075714 63002380
L152837619 63002380
L152837619 62811904
L152932857 62764285
L153028095 62669047
L153075714 62526190
L153075714 62288095
L153028095 62145238
L152932857 62050000
L152790000 62002380
L152599523 62002380
L152456666 62050000
L152361428 62145238
L152313809 62288095
L152313809 62526190
L152361428 62669047
L152456666 62764285
L152551904 62811904
L152551904 63002380
L152313809 63002380
" />
</g></g>
<g style="fill:#000000; fill-opacity:0.0; 
stroke:#000000; stroke-width:80000.000000; stroke-opacity:1; 
stroke-linecap:round; stroke-linejoin:round;">
<text x="154290000.000000" y="64450000.000000"
transform="scale(-1 1) translate(-308580000.000000 0)"
textLength="781190.000000" font-size="666666.000000" lengthAdjust="spacingAndGlyphs"
text-anchor="middle" opacity="0">R1</text>
<g class="stroked-text"><desc>R1</desc>
<path d="M154373333 64426190
L154540000 64188095
" />
<path d="M154659047 64426190
L154659047 63926190
L154468571 63926190
L154420952 63950000
L154397142 63973809
L154373333 64021428
L154373333 64092857
L154397142 64140476
L154420952 64164285
L154468571 64188095
L154659047 64188095
" />
<path d="M153897142 64426190
L154182857 64426190
" />
<path d="M154040000 64426190
L154040000 63926190
L154087619 63997619
L154135238 64045238
L154182857 64069047
" />
</g></g>
<g style="fill:#000000; fill-opacity:0.0; 
stroke:#000000; stroke-width:150000.000000; stroke-opacity:1; 
stroke-linecap:round; stroke-linejoin:round;">
<g transform="rotate(-90.000000 123720000.000000 68100000.000000)">
<text x="123720000.000000" y="68600000.000000"
transform="scale(-1 1) translate(-247440000.000000 0)"
textLength="4515048.000000" font-size="1333333.000000" lengthAdjust="spacingAndGlyphs"
text-anchor="middle" opacity="0">100nF</text>
</g>
<g class="stroked-text"><desc>100nF</desc>
<path d="M124172380 66552380
L124172380 65980952
" />
<path d="M124172380 66266666
L123172380 66266666
L123315238 66171428
L123410476 66076190
L123458095 65980952
" />
<path d="M123172380 67171428
L123172380 67266666
L123220000 67361904
L123267619 67409523
L123362857 67457142
L123553333 67504761
L123791428 67504761
L123981904 67457142
L124077142 67409523
L124124761 67361904
L124172380 67266666
L124172380 67171428
L124124761 67076190
L124077142 67028571
L123981904 66980952
L123791428 66933333
L123553333 66933333
L123362857 66980952
L123267619 67028571
L123220000 67076190
L123172380 67171428
" />
<path d="M123172380 68123809
L123172380 68219047
L123220000 68314285
L123267619 68361904
L123362857 68409523
L123553333 68457142
L123791428 68457142
L123981904 68409523
L124077142 68361904
L124124761 68314285
L124172380 68219047
L124172380 68123809
L124124761 68028571
L124077142 67980952
L123981904 67933333
L123791428 67885714
L123553333 67885714
L123362857 67933333
L123267619 67980952
L123220000 68028571
L123172380 68123809
" />
<path d="M123505714 68885714
L124172380 68885714
" />
<path d="M123600952 68885714
L123553333 68933333
L123505714 69028571
L123505714 69171428
L123553333 69266666
L123648571 69314285
L124172380 69314285
" />
<path d="M123648571 70123809
L123648571 69790476
" />
<path d="M124172380 69790476
L123172380 69790476
L123172380 70266666
" />
</g></g>
<g style="fill:#000000; fill-opacity:0.0; 
stroke:#000000; stroke-width:80000.000000; stroke-opacity:1; 
stroke-linecap:round; stroke-linejoin:round;">
<g transform="rotate(-90.000000 125400000.000000 68100000.000000)">
<text x="125400000.000000" y="68350000.000000"
transform="scale(-1 1) translate(-250800000.000000 0)"
textLength="1257381.000000" font-size="666666.000000" lengthAdjust="spacingAndGlyphs"
text-anchor="middle" opacity="0">C12</text>
</g>
<g class="stroked-text"><desc>C12</desc>
<path d="M125578571 67778571
L125602380 67754761
L125626190 67683333
L125626190 67635714
L125602380 67564285
L125554761 67516666
L125507142 67492857
L125411904 67469047
L125340476 67469047
L125245238 67492857
L125197619 67516666
L125150000 67564285
L125126190 67635714
L125126190 67683333
L125150000 67754761
L125173809 67778571
" />
<path d="M125626190 68254761
L125626190 67969047
" />
<path d="M125626190 68111904
L125126190 68111904
L125197619 68064285
L125245238 68016666
L125269047 67969047
" />
<path d="M125173809 68445238
L125150000 68469047
L125126190 68516666
L125126190 68635714
L125150000 68683333
L125173809 68707142
L125221428 68730952
L125269047 68730952
L125340476 68707142
L125626190 68421428
L125626190 68730952
" />
</g></g>
<g style="fill:#000000; fill-opacity:0.0; 
stroke:#000000; stroke-width:150000.000000; stroke-opacity:1; 
stroke-linecap:round; stroke-linejoin:round;">
<g transform="rotate(-90.000000 129440003.000000 81929685.000000)">
<text x="129440003.000000" y="82429685.000000"
transform="scale(-1 1) translate(-258880006.000000 0)"
textLength="4515048.000000" font-size="1333333.000000" lengthAdjust="spacingAndGlyphs"
text-anchor="middle" opacity="0">100nF</text>
</g>
<g class="stroked-text"><desc>100nF</desc>
<path d="M129892383 80382065
L129892383 79810637
" />
<path d="M129892383 80096351
L128892383 80096351
L129035241 80001113
L129130479 79905875
L129178098 79810637
" />
<path d="M128892383 81001113
L128892383 81096351
L128940003 81191589
L128987622 81239208
L129082860 81286827
L129273336 81334446
L129511431 81334446
L129701907 81286827
L129797145 81239208
L129844764 81191589
L129892383 81096351
L129892383 81001113
L129844764 80905875
L129797145 80858256
L129701907 80810637
L129511431 80763018
L129273336 80763018
L129082860 80810637
L128987622 80858256
L128940003 80905875
L128892383 81001113
" />
<path d="M128892383 81953494
L128892383 82048732
L128940003 82143970
L128987622 82191589
L129082860 82239208
L129273336 82286827
L129511431 82286827
L129701907 82239208
L129797145 82191589
L129844764 82143970
L129892383 82048732
L129892383 81953494
L129844764 81858256
L129797145 81810637
L129701907 81763018
L129511431 81715399
L129273336 81715399
L129082860 81763018
L128987622 81810637
L128940003 81858256
L128892383 81953494
" />
<path d="M129225717 82715399
L129892383 82715399
" />
<path d="M129320955 82715399
L129273336 82763018
L129225717 82858256
L129225717 83001113
L129273336 83096351
L129368574 83143970
L129892383 83143970
" />
<path d="M129368574 83953494
L129368574 83620161
" />
<path d="M129892383 83620161
L128892383 83620161
L128892383 84096351
" />
</g></g>
<g style="fill:#000000; fill-opacity:0.0; 
stroke:#000000; stroke-width:80000.000000; stroke-opacity:1; 
stroke-linecap:round; stroke-linejoin:round;">
<g transform="rotate(-90.000000 127760003.000000 81929685.000000)">
<text x="127760003.000000" y="82179685.000000"
transform="scale(-1 1) translate(-255520006.000000 0)"
textLength="1257381.000000" font-size="666666.000000" lengthAdjust="spacingAndGlyphs"
text-anchor="middle" opacity="0">C13</text>
</g>
<g class="stroked-text"><desc>C13</desc>
<path d="M127938574 81608256
L127962383 81584446
L127986193 81513018
L127986193 81465399
L127962383 81393970
L127914764 81346351
L127867145 81322542
L127771907 81298732
L127700479 81298732
L127605241 81322542
L127557622 81346351
L127510003 81393970
L127486193 81465399
L127486193 81513018
L127510003 81584446
L127533812 81608256
" />
<path d="M127986193 82084446
L127986193 81798732
" />
<path d="M127986193 81941589
L127486193 81941589
L127557622 81893970
L127605241 81846351
L127629050 81798732
" />
<path d="M127486193 82251113
L127486193 82560637
L127676669 82393970
L127676669 82465399
L127700479 82513018
L127724288 82536827
L127771907 82560637
L127890955 82560637
L127938574 82536827
L127962383 82513018
L127986193 82465399
L127986193 82322542
L127962383 82274923
L127938574 82251113
" />
</g></g>
<g style="fill:#000000; fill-opacity:0.0; 
stroke:#000000; stroke-width:150000.000000; stroke-opacity:1; 
stroke-linecap:round; stroke-linejoin:round;">
<g transform="rotate(-90.000000 123040289.000000 81932082.000000)">
<text x="123040289.000000" y="82432082.000000"
transform="scale(-1 1) translate(-246080578.000000 0)"
textLength="4515048.000000" font-size="1333333.000000" lengthAdjust="spacingAndGlyphs"
text-anchor="middle" opacity="0">100nF</text>
</g>
<g class="stroked-text"><desc>100nF</desc>
<path d="M123492669 80384462
L123492669 79813034
" />
<path d="M123492669 80098748
L122492669 80098748
L122635527 80003510
L122730765 79908272
L122778384 79813034
" />
<path d="M122492669 81003510
L122492669 81098748
L122540289 81193986
L122587908 81241605
L122683146 81289224
L122873622 81336843
L123111717 81336843
L123302193 81289224
L123397431 81241605
L123445050 81193986
L123492669 81098748
L123492669 81003510
L123445050 80908272
L123397431 80860653
L123302193 80813034
L123111717 80765415
L122873622 80765415
L122683146 80813034
L122587908 80860653
L122540289 80908272
L122492669 81003510
" />
<path d="M122492669 81955891
L122492669 82051129
L122540289 82146367
L122587908 82193986
L122683146 82241605
L122873622 82289224
L123111717 82289224
L123302193 82241605
L123397431 82193986
L123445050 82146367
L123492669 82051129
L123492669 81955891
L123445050 81860653
L123397431 81813034
L123302193 81765415
L123111717 81717796
L122873622 81717796
L122683146 81765415
L122587908 81813034
L122540289 81860653
L122492669 81955891
" />
<path d="M122826003 82717796
L123492669 82717796
" />
<path d="M122921241 82717796
L122873622 82765415
L122826003 82860653
L122826003 83003510
L122873622 83098748
L122968860 83146367
L123492669 83146367
" />
<path d="M122968860 83955891
L122968860 83622558
" />
<path d="M123492669 83622558
L122492669 83622558
L122492669 84098748
" />
</g></g>
<g style="fill:#000000; fill-opacity:0.0; 
stroke:#000000; stroke-width:80000.000000; stroke-opacity:1; 
stroke-linecap:round; stroke-linejoin:round;">
<g transform="rotate(-90.000000 121360289.000000 81932082.000000)">
<text x="121360289.000000" y="82182082.000000"
transform="scale(-1 1) translate(-242720578.000000 0)"
textLength="1257381.000000" font-size="666666.000000" lengthAdjust="spacingAndGlyphs"
text-anchor="middle" opacity="0">C16</text>
</g>
<g class="stroked-text"><desc>C16</desc>
<path d="M121538860 81610653
L121562669 81586843
L121586479 81515415
L121586479 81467796
L121562669 81396367
L121515050 81348748
L121467431 81324939
L121372193 81301129
L121300765 81301129
L121205527 81324939
L121157908 81348748
L121110289 81396367
L121086479 81467796
L121086479 81515415
L121110289 81586843
L121134098 81610653
" />
<path d="M121586479 82086843
L121586479 81801129
" />
<path d="M121586479 81943986
L121086479 81943986
L121157908 81896367
L121205527 81848748
L121229336 81801129
" />
<path d="M121086479 82515415
L121086479 82420177
L121110289 82372558
L121134098 82348748
L121205527 82301129
L121300765 82277320
L121491241 82277320
L121538860 82301129
L121562669 82324939
L121586479 82372558
L121586479 82467796
L121562669 82515415
L121538860 82539224
L121491241 82563034
L121372193 82563034
L121324574 82539224
L121300765 82515415
L121276955 82467796
L121276955 82372558
L121300765 82324939
L121324574 82301129
L121372193 82277320
" />
</g></g>
<g style="fill:#000000; fill-opacity:0.0; 
stroke:#000000; stroke-width:150000.000000; stroke-opacity:1; 
stroke-linecap:round; stroke-linejoin:round;">
<g transform="rotate(-90.000000 125820000.000000 68100000.000000)">
<text x="125820000.000000" y="68600000.000000"
transform="scale(-1 1) translate(-251640000.000000 0)"
textLength="2753143.000000" font-size="1333333.000000" lengthAdjust="spacingAndGlyphs"
text-anchor="middle" opacity="0">1μF</text>
</g>
<g class="stroked-text"><desc>1μF</desc>
<path d="M126272380 67433333
L126272380 66861904
" />
<path d="M126272380 67147619
L125272380 67147619
L125415238 67052380
L125510476 66957142
L125558095 66861904
" />
<path d="M125605714 67861904
L126605714 67861904
" />
<path d="M126129523 68338095
L126224761 68385714
L126272380 68480952
" />
<path d="M126129523 67861904
L126224761 67909523
L126272380 68004761
L126272380 68195238
L126224761 68290476
L126129523 68338095
L125605714 68338095
" />
<path d="M125748571 69242857
L125748571 68909523
" />
<path d="M126272380 68909523
L125272380 68909523
L125272380 69385714
" />
</g></g>
<g style="fill:#000000; fill-opacity:0.0; 
stroke:#000000; stroke-width:80000.000000; stroke-opacity:1; 
stroke-linecap:round; stroke-linejoin:round;">
<g transform="rotate(-90.000000 127500000.000000 68100000.000000)">
<text x="127500000.000000" y="68350000.000000"
transform="scale(-1 1) translate(-255000000.000000 0)"
textLength="781190.000000" font-size="666666.000000" lengthAdjust="spacingAndGlyphs"
text-anchor="middle" opacity="0">C4</text>
</g>
<g class="stroked-text"><desc>C4</desc>
<path d="M127678571 68016666
L127702380 67992857
L127726190 67921428
L127726190 67873809
L127702380 67802380
L127654761 67754761
L127607142 67730952
L127511904 67707142
L127440476 67707142
L127345238 67730952
L127297619 67754761
L127250000 67802380
L127226190 67873809
L127226190 67921428
L127250000 67992857
L127273809 68016666
" />
<path d="M127392857 68445238
L127726190 68445238
" />
<path d="M127202380 68326190
L127559523 68207142
L127559523 68516666
" />
</g></g>
<g style="fill:#000000; fill-opacity:0.0; 
stroke:#000000; stroke-width:150000.000000; stroke-opacity:1; 
stroke-linecap:round; stroke-linejoin:round;">
<g transform="rotate(-90.000000 127920000.000000 68100000.000000)">
<text x="127920000.000000" y="68600000.000000"
transform="scale(-1 1) translate(-255840000.000000 0)"
textLength="2753143.000000" font-size="1333333.000000" lengthAdjust="spacingAndGlyphs"
text-anchor="middle" opacity="0">1μF</text>
</g>
<g class="stroked-text"><desc>1μF</desc>
<path d="M128372380 67433333
L128372380 66861904
" />
<path d="M128372380 67147619
L127372380 67147619
L127515238 67052380
L127610476 66957142
L127658095 66861904
" />
<path d="M127705714 67861904
L128705714 67861904
" />
<path d="M128229523 68338095
L128324761 68385714
L128372380 68480952
" />
<path d="M128229523 67861904
L128324761 67909523
L128372380 68004761
L128372380 68195238
L128324761 68290476
L128229523 68338095
L127705714 68338095
" />
<path d="M127848571 69242857
L127848571 68909523
" />
<path d="M128372380 68909523
L127372380 68909523
L127372380 69385714
" />
</g></g>
<g style="fill:#000000; fill-opacity:0.0; 
stroke:#000000; stroke-width:80000.000000; stroke-opacity:1; 
stroke-linecap:round; stroke-linejoin:round;">
<g transform="rotate(-90.000000 129600000.000000 68100000.000000)">
<text x="129600000.000000" y="68350000.000000"
transform="scale(-1 1) translate(-259200000.000000 0)"
textLength="781190.000000" font-size="666666.000000" lengthAdjust="spacingAndGlyphs"
text-anchor="middle" opacity="0">C8</text>
</g>
<g class="stroked-text"><desc>C8</desc>
<path d="M129778571 68016666
L129802380 67992857
L129826190 67921428
L129826190 67873809
L129802380 67802380
L129754761 67754761
L129707142 67730952
L129611904 67707142
L129540476 67707142
L129445238 67730952
L129397619 67754761
L129350000 67802380
L129326190 67873809
L129326190 67921428
L129350000 67992857
L129373809 68016666
" />
<path d="M129540476 68302380
L129516666 68254761
L129492857 68230952
L129445238 68207142
L129421428 68207142
L129373809 68230952
L129350000 68254761
L129326190 68302380
L129326190 68397619
L129350000 68445238
L129373809 68469047
L129421428 68492857
L129445238 68492857
L129492857 68469047
L129516666 68445238
L129540476 68397619
L129540476 68302380
L129564285 68254761
L129588095 68230952
L129635714 68207142
L129730952 68207142
L129778571 68230952
L129802380 68254761
L129826190 68302380
L129826190 68397619
L129802380 68445238
L129778571 68469047
L129730952 68492857
L129635714 68492857
L129588095 68469047
L129564285 68445238
L129540476 68397619
" />
</g></g>
<g style="fill:#000000; fill-opacity:0.0; 
stroke:#000000; stroke-width:100000.000000; stroke-opacity:1; 
stroke-linecap:round; stroke-linejoin:round;">
<path d="M132350000 73837500
L130750000 73837500
" />
<path d="M130750000 74662500
L132350000 74662500
" />
<path d="M132350000 74662500
L132350000 73837500
" />
<path d="M130750000 73837500
L130750000 74662500
" />
<path d="M149200000 75800000
L149200000 70100000
" />
<path d="M149200000 70100000
L152900000 70100000
" />
<path d="M152900000 76800000
L152900000 70100000
" />
<path d="M150200000 76800000
L152900000 76800000
" />
<path d="M149200000 75800000
L150200000 76800000
" />
<path d="M132350000 72237500
L130750000 72237500
" />
<path d="M132350000 73062500
L132350000 72237500
" />
<path d="M130750000 73062500
L132350000 73062500
" />
<path d="M130750000 72237500
L130750000 73062500
" />
<path d="M135875000 76000000
L135875000 78000000
" />
<path d="M137125000 76000000
L135875000 76000000
" />
<path d="M137125000 78000000
L137125000 76000000
" />
<path d="M135875000 78000000
L137125000 78000000
" />
<path d="M129545001 77417167
L129545001 82647167
" />
<path d="M133775001 82647167
L134775001 81647167
" />
<path d="M134775001 77417167
L129545001 77417167
" />
<path d="M129545001 82647167
L133775001 82647167
" />
<path d="M134775001 81647167
L134775001 77417167
" />
<path d="M122715188 80932082
L122715188 82932082
" />
<path d="M123965188 80932082
L122715188 80932082
" />
<path d="M123965188 82932082
L123965188 80932082
" />
<path d="M122715188 82932082
L123965188 82932082
" />
<path d="M124695087 80932082
L124695087 82932082
" />
<path d="M125945087 80932082
L124695087 80932082
" />
<path d="M125945087 82932082
L125945087 80932082
" />
<path d="M124695087 82932082
L125945087 82932082
" />
<path d="M155325000 84325000
L155325000 89325000
" />
<path d="M155325000 89325000
L150325000 89325000
" />
<path d="M155325000 85325000
L154325000 84325000
" />
<path d="M150325000 89325000
L150325000 84325000
" />
<path d="M150325000 84325000
L155325000 84325000
" />
<circle cx="152825000.000000" cy="86825000.000000" r="2000000.000000" /> 
<path d="M122675000 69100000
L123925000 69100000
" />
<path d="M123925000 67100000
L122675000 67100000
" />
<path d="M122675000 67100000
L122675000 69100000
" />
<path d="M123925000 69100000
L123925000 67100000
" />
<path d="M120575000 69100000
L121825000 69100000
" />
<path d="M120575000 67100000
L120575000 69100000
" />
<path d="M121825000 67100000
L120575000 67100000
" />
<path d="M121825000 69100000
L121825000 67100000
" />
<path d="M119100000 75465000
L119100000 74215000
" />
<path d="M117100000 75465000
L119100000 75465000
" />
<path d="M119100000 74215000
L117100000 74215000
" />
<path d="M117100000 74215000
L117100000 75465000
" />
<path d="M119566177 76439441
L119566177 78939441
" />
<path d="M119566177 77939441
L118566177 78939441
" />
<path d="M116366177 78939441
L116366177 76439441
" />
<path d="M116366177 76439441
L119566177 76439441
" />
<path d="M119566177 78939441
L116366177 78939441
" />
<path d="M117100000 79975000
L117100000 81225000
" />
<path d="M117100000 81225000
L119100000 81225000
" />
<path d="M119100000 81225000
L119100000 79975000
" />
<path d="M119100000 79975000
L117100000 79975000
" />
<path d="M130760003 70307167
L130760003 71557167
" />
<path d="M132760003 71557167
L132760003 70307167
" />
<path d="M132760003 70307167
L130760003 70307167
" />
<path d="M130760003 71557167
L132760003 71557167
" />
<path d="M137125000 80000000
L135875000 80000000
" />
<path d="M135875000 80000000
L135875000 82000000
" />
<path d="M137125000 82000000
L137125000 80000000
" />
<path d="M135875000 82000000
L137125000 82000000
" />
<path d="M142500000 74350000
L145700000 74350000
" />
<path d="M145700000 74350000
L145700000 72750000
" />
<path d="M145700000 72750000
L142500000 72750000
" />
<path d="M142500000 72750000
L142500000 74350000
" />
<path d="M145700000 72050000
L145700000 70450000
" />
<path d="M142500000 70450000
L142500000 72050000
" />
<path d="M142500000 72050000
L145700000 72050000
" />
<path d="M145700000 70450000
L142500000 70450000
" />
<path d="M149925000 63575000
L147925000 63575000
" />
<path d="M147925000 63575000
L147925000 64825000
" />
<path d="M149925000 64825000
L149925000 63575000
" />
<path d="M147925000 64825000
L149925000 64825000
" />
<path d="M119107598 71101952
L119107598 69851952
" />
<path d="M117107598 71101952
L119107598 71101952
" />
<path d="M117107598 69851952
L117107598 71101952
" />
<path d="M119107598 69851952
L117107598 69851952
" />
<path d="M148615000 88450000
L148615000 86450000
" />
<path d="M148615000 86450000
L147365000 86450000
" />
<path d="M147365000 86450000
L147365000 88450000
" />
<path d="M147365000 88450000
L148615000 88450000
" />
<path d="M117107598 72114694
L117107598 73364694
" />
<path d="M119107598 73364694
L119107598 72114694
" />
<path d="M117107598 73364694
L119107598 73364694
" />
<path d="M119107598 72114694
L117107598 72114694
" />
<path d="M121500000 71500000
L121500000 78500000
" />
<path d="M128500000 77500000
L128500000 71500000
" />
<path d="M121500000 78500000
L127500000 78500000
" />
<path d="M128500000 71500000
L121500000 71500000
" />
<path d="M127500000 78500000
L128500000 77500000
" />
<path d="M147155000 61780000
L156095000 61780000
" />
<path d="M156095000 61780000
L156095000 54460000
" />
<path d="M147155000 61780000
L147155000 54460000
" />
<path d="M156095000 54460000
L147155000 54460000
" />
<path d="M155900000 69050000
L155900000 67450000
" />
<path d="M152700000 69050000
L155900000 69050000
" />
<path d="M155900000 67450000
L152700000 67450000
" />
<path d="M152700000 67450000
L152700000 69050000
" />
<path d="M153290000 64825000
L155290000 64825000
" />
<path d="M155290000 64825000
L155290000 63575000
" />
<path d="M153290000 63575000
L153290000 64825000
" />
<path d="M155290000 63575000
L153290000 63575000
" />
<path d="M126025000 67100000
L124775000 67100000
" />
<path d="M126025000 69100000
L126025000 67100000
" />
<path d="M124775000 69100000
L126025000 69100000
" />
<path d="M124775000 67100000
L124775000 69100000
" />
<path d="M127135003 80929685
L127135003 82929685
" />
<path d="M128385003 80929685
L127135003 80929685
" />
<path d="M127135003 82929685
L128385003 82929685
" />
<path d="M128385003 82929685
L128385003 80929685
" />
<path d="M121985289 80932082
L120735289 80932082
" />
<path d="M120735289 80932082
L120735289 82932082
" />
<path d="M121985289 82932082
L121985289 80932082
" />
<path d="M120735289 82932082
L121985289 82932082
" />
<path d="M126875000 67100000
L126875000 69100000
" />
<path d="M128125000 67100000
L126875000 67100000
" />
<path d="M126875000 69100000
L128125000 69100000
" />
<path d="M128125000 69100000
L128125000 67100000
" />
<path d="M130225000 67100000
L128975000 67100000
" />
<path d="M130225000 69100000
L130225000 67100000
" />
<path d="M128975000 69100000
L130225000 69100000
" />
<path d="M128975000 67100000
L128975000 69100000
" />
<g >
</g>
<g >
</g>
<g >
</g>
<g >
</g>
<g >
</g>
<g >
</g>
<g >
</g>
<g >
</g>
<g >
</g>
<g >
</g>
<g >
</g>
<g >
</g>
<g >
</g>
<g >
</g>
<g >
</g>
<g >
</g>
<g >
</g>
<g >
</g>
<g >
</g>
<g >
</g>
<g >
</g>
<g >
</g>
<g >
</g>
<g >
</g>
<g >
</g>
<g >
</g>
<g >
</g>
<g >
</g>
<g >
</g>
<g >
</g>
<g >
</g>
<g >
</g>
<g >
</g>
<g >
</g>
<g >
</g>
<g >
</g>
<g >
</g>
<g >
</g>
<g >
</g>
<g >
</g>
<g >
</g>
<g >
</g>
<g >
</g>
<g >
</g>
<g >
</g>
<g >
</g>
<g >
</g>
<g >
</g>
<g >
</g>
<g >
</g>
<g >
</g>
<g >
</g>
<g >
</g>
<g >
</g>
<g >
</g>
<g >
</g>
<g >
</g>
<g >
</g>
</g> 
</svg>
