%TF.GenerationSoftware,KiCad,Pcbnew,(6.0.8)*%
%TF.CreationDate,2022-10-11T12:28:16+11:00*%
%TF.ProjectId,PicoGamePad_V3_0_0_A,5069636f-4761-46d6-9550-61645f56335f,4.0.0 (Rev A)*%
%TF.SameCoordinates,Original*%
%TF.FileFunction,AssemblyDrawing,Top*%
%FSLAX46Y46*%
G04 Gerber Fmt 4.6, Leading zero omitted, Abs format (unit mm)*
G04 Created by KiCad (PCBNEW (6.0.8)) date 2022-10-11 12:28:16*
%MOMM*%
%LPD*%
G01*
G04 APERTURE LIST*
%ADD10C,0.150000*%
%ADD11C,0.120000*%
%ADD12C,0.010000*%
%ADD13C,0.100000*%
G04 APERTURE END LIST*
D10*
%TO.C,J3*%
X142691666Y-62427380D02*
X142691666Y-63141666D01*
X142644047Y-63284523D01*
X142548809Y-63379761D01*
X142405952Y-63427380D01*
X142310714Y-63427380D01*
X143072619Y-62427380D02*
X143691666Y-62427380D01*
X143358333Y-62808333D01*
X143501190Y-62808333D01*
X143596428Y-62855952D01*
X143644047Y-62903571D01*
X143691666Y-62998809D01*
X143691666Y-63236904D01*
X143644047Y-63332142D01*
X143596428Y-63379761D01*
X143501190Y-63427380D01*
X143215476Y-63427380D01*
X143120238Y-63379761D01*
X143072619Y-63332142D01*
D11*
%TO.C,SW6*%
X150750000Y-77350000D02*
X155250000Y-77350000D01*
X155250000Y-77350000D02*
X155250000Y-81850000D01*
X155250000Y-81850000D02*
X150750000Y-81850000D01*
X150750000Y-81850000D02*
X150750000Y-77350000D01*
D12*
X150500000Y-78100000D02*
X155500000Y-78100000D01*
X155500000Y-78100000D02*
X155500000Y-81100000D01*
X155500000Y-81100000D02*
X150500000Y-81100000D01*
X150500000Y-81100000D02*
X150500000Y-78100000D01*
D11*
X154225000Y-79600000D02*
G75*
G03*
X154225000Y-79600000I-1225000J0D01*
G01*
D12*
%TO.C,SW5*%
X104400000Y-70300000D02*
X101400000Y-70300000D01*
X101400000Y-70300000D02*
X101400000Y-75300000D01*
X101400000Y-75300000D02*
X104400000Y-75300000D01*
X104400000Y-75300000D02*
X104400000Y-70300000D01*
D11*
X105150000Y-70550000D02*
X100650000Y-70550000D01*
X100650000Y-70550000D02*
X100650000Y-75050000D01*
X100650000Y-75050000D02*
X105150000Y-75050000D01*
X105150000Y-75050000D02*
X105150000Y-70550000D01*
X104125000Y-72800000D02*
G75*
G03*
X104125000Y-72800000I-1225000J0D01*
G01*
D13*
%TO.C,FID3*%
X142400000Y-65500000D02*
G75*
G03*
X142400000Y-65500000I-1000000J0D01*
G01*
D11*
%TO.C,SW1*%
X105150000Y-84150000D02*
X100650000Y-84150000D01*
X100650000Y-84150000D02*
X100650000Y-88650000D01*
X100650000Y-88650000D02*
X105150000Y-88650000D01*
X105150000Y-88650000D02*
X105150000Y-84150000D01*
D12*
X104400000Y-83900000D02*
X101400000Y-83900000D01*
X101400000Y-83900000D02*
X101400000Y-88900000D01*
X101400000Y-88900000D02*
X104400000Y-88900000D01*
X104400000Y-88900000D02*
X104400000Y-83900000D01*
D11*
X104125000Y-86400000D02*
G75*
G03*
X104125000Y-86400000I-1225000J0D01*
G01*
D13*
%TO.C,FID2*%
X140500000Y-89500000D02*
G75*
G03*
X140500000Y-89500000I-1000000J0D01*
G01*
D11*
%TO.C,SW2*%
X129710000Y-85550000D02*
X134210000Y-85550000D01*
X134210000Y-85550000D02*
X134210000Y-90050000D01*
X134210000Y-90050000D02*
X129710000Y-90050000D01*
X129710000Y-90050000D02*
X129710000Y-85550000D01*
D12*
X129460000Y-86300000D02*
X134460000Y-86300000D01*
X134460000Y-86300000D02*
X134460000Y-89300000D01*
X134460000Y-89300000D02*
X129460000Y-89300000D01*
X129460000Y-89300000D02*
X129460000Y-86300000D01*
D11*
X133185000Y-87800000D02*
G75*
G03*
X133185000Y-87800000I-1225000J0D01*
G01*
D12*
%TO.C,SW8*%
X117300000Y-86300000D02*
X122300000Y-86300000D01*
X122300000Y-86300000D02*
X122300000Y-89300000D01*
X122300000Y-89300000D02*
X117300000Y-89300000D01*
X117300000Y-89300000D02*
X117300000Y-86300000D01*
D11*
X117550000Y-85550000D02*
X122050000Y-85550000D01*
X122050000Y-85550000D02*
X122050000Y-90050000D01*
X122050000Y-90050000D02*
X117550000Y-90050000D01*
X117550000Y-90050000D02*
X117550000Y-85550000D01*
X121025000Y-87800000D02*
G75*
G03*
X121025000Y-87800000I-1225000J0D01*
G01*
D12*
%TO.C,SW3*%
X98300000Y-81100000D02*
X93300000Y-81100000D01*
X93300000Y-81100000D02*
X93300000Y-78100000D01*
X93300000Y-78100000D02*
X98300000Y-78100000D01*
X98300000Y-78100000D02*
X98300000Y-81100000D01*
D11*
X98050000Y-81850000D02*
X93550000Y-81850000D01*
X93550000Y-81850000D02*
X93550000Y-77350000D01*
X93550000Y-77350000D02*
X98050000Y-77350000D01*
X98050000Y-77350000D02*
X98050000Y-81850000D01*
X97025000Y-79600000D02*
G75*
G03*
X97025000Y-79600000I-1225000J0D01*
G01*
%TO.C,SW7*%
X111450000Y-81850000D02*
X106950000Y-81850000D01*
X106950000Y-81850000D02*
X106950000Y-77350000D01*
X106950000Y-77350000D02*
X111450000Y-77350000D01*
X111450000Y-77350000D02*
X111450000Y-81850000D01*
D12*
X111700000Y-81100000D02*
X106700000Y-81100000D01*
X106700000Y-81100000D02*
X106700000Y-78100000D01*
X106700000Y-78100000D02*
X111700000Y-78100000D01*
X111700000Y-78100000D02*
X111700000Y-81100000D01*
D11*
X110425000Y-79600000D02*
G75*
G03*
X110425000Y-79600000I-1225000J0D01*
G01*
D12*
%TO.C,SW4*%
X139450000Y-78100000D02*
X144450000Y-78100000D01*
X144450000Y-78100000D02*
X144450000Y-81100000D01*
X144450000Y-81100000D02*
X139450000Y-81100000D01*
X139450000Y-81100000D02*
X139450000Y-78100000D01*
D11*
X139700000Y-77350000D02*
X144200000Y-77350000D01*
X144200000Y-77350000D02*
X144200000Y-81850000D01*
X144200000Y-81850000D02*
X139700000Y-81850000D01*
X139700000Y-81850000D02*
X139700000Y-77350000D01*
X143175000Y-79600000D02*
G75*
G03*
X143175000Y-79600000I-1225000J0D01*
G01*
D13*
%TO.C,FID1*%
X104800000Y-80250000D02*
G75*
G03*
X104800000Y-80250000I-1000000J0D01*
G01*
%TO.C,J3*%
X93370000Y-61535000D02*
X93370000Y-56455000D01*
X93370000Y-56455000D02*
X142900000Y-56455000D01*
X142900000Y-56455000D02*
X144170000Y-57725000D01*
X144170000Y-61535000D02*
X93370000Y-61535000D01*
X144170000Y-57725000D02*
X144170000Y-61535000D01*
%TD*%
M02*
