999
"DXF R12 Output" (www.mydxf.blogspot.com)
 0 
SECTION
 2 
HEADER
 9 
$ACADVER
 1 
AC1009
 9 
$EXTMIN
 10 
 0 
 20 
 0 
 9 
$EXTMAX
 10 
 8.5 
 20 
 11 
 0 
ENDSEC
 0 
SECTION
 2 
ENTITIES
0
LINE
8
Layer 1
10
42.736100
20
17.952600
11
42.720880
21
17.876063
0
LINE
8
Layer 1
10
42.720880
20
17.876063
11
42.677520
21
17.811179
0
LINE
8
Layer 1
10
42.677520
20
17.811179
11
42.612640
21
17.767824
0
LINE
8
Layer 1
10
42.612640
20
17.767824
11
42.536100
21
17.752600
0
LINE
8
Layer 1
10
42.536100
20
17.752600
11
42.136100
21
17.752600
0
LINE
8
Layer 1
10
42.136100
20
17.752600
11
42.059560
21
17.767824
0
LINE
8
Layer 1
10
42.059560
20
17.767824
11
41.994680
21
17.811179
0
LINE
8
Layer 1
10
41.994680
20
17.811179
11
41.951320
21
17.876063
0
LINE
8
Layer 1
10
41.951320
20
17.876063
11
41.936100
21
17.952600
0
LINE
8
Layer 1
10
41.936100
20
17.952600
11
41.936100
21
18.502600
0
LINE
8
Layer 1
10
41.936100
20
18.502600
11
41.951320
21
18.579137
0
LINE
8
Layer 1
10
41.951320
20
18.579137
11
41.994680
21
18.644021
0
LINE
8
Layer 1
10
41.994680
20
18.644021
11
42.059560
21
18.687376
0
LINE
8
Layer 1
10
42.059560
20
18.687376
11
42.136100
21
18.702600
0
LINE
8
Layer 1
10
42.136100
20
18.702600
11
42.536100
21
18.702600
0
LINE
8
Layer 1
10
42.536100
20
18.702600
11
42.612640
21
18.687376
0
LINE
8
Layer 1
10
42.612640
20
18.687376
11
42.677520
21
18.644021
0
LINE
8
Layer 1
10
42.677520
20
18.644021
11
42.720880
21
18.579137
0
LINE
8
Layer 1
10
42.720880
20
18.579137
11
42.736100
21
18.502600
0
LINE
8
Layer 1
10
42.736100
20
18.502600
11
42.736100
21
17.952600
0
LINE
8
Layer 1
10
41.086100
20
17.952600
11
41.070880
21
17.876063
0
LINE
8
Layer 1
10
41.070880
20
17.876063
11
41.027520
21
17.811179
0
LINE
8
Layer 1
10
41.027520
20
17.811179
11
40.962640
21
17.767824
0
LINE
8
Layer 1
10
40.962640
20
17.767824
11
40.886100
21
17.752600
0
LINE
8
Layer 1
10
40.886100
20
17.752600
11
40.486100
21
17.752600
0
LINE
8
Layer 1
10
40.486100
20
17.752600
11
40.409560
21
17.767824
0
LINE
8
Layer 1
10
40.409560
20
17.767824
11
40.344680
21
17.811179
0
LINE
8
Layer 1
10
40.344680
20
17.811179
11
40.301320
21
17.876063
0
LINE
8
Layer 1
10
40.301320
20
17.876063
11
40.286100
21
17.952600
0
LINE
8
Layer 1
10
40.286100
20
17.952600
11
40.286100
21
18.502600
0
LINE
8
Layer 1
10
40.286100
20
18.502600
11
40.301320
21
18.579137
0
LINE
8
Layer 1
10
40.301320
20
18.579137
11
40.344680
21
18.644021
0
LINE
8
Layer 1
10
40.344680
20
18.644021
11
40.409560
21
18.687376
0
LINE
8
Layer 1
10
40.409560
20
18.687376
11
40.486100
21
18.702600
0
LINE
8
Layer 1
10
40.486100
20
18.702600
11
40.886100
21
18.702600
0
LINE
8
Layer 1
10
40.886100
20
18.702600
11
40.962640
21
18.687376
0
LINE
8
Layer 1
10
40.962640
20
18.687376
11
41.027520
21
18.644021
0
LINE
8
Layer 1
10
41.027520
20
18.644021
11
41.070880
21
18.579137
0
LINE
8
Layer 1
10
41.070880
20
18.579137
11
41.086100
21
18.502600
0
LINE
8
Layer 1
10
41.086100
20
18.502600
11
41.086100
21
17.952600
0
LINE
8
Layer 1
10
56.861100
20
15.977600
11
56.861100
21
17.477600
0
LINE
8
Layer 1
10
56.861100
20
17.477600
11
58.861100
21
17.477600
0
LINE
8
Layer 1
10
58.861100
20
17.477600
11
58.861100
21
15.977600
0
LINE
8
Layer 1
10
58.861100
20
15.977600
11
56.861100
21
15.977600
0
LINE
8
Layer 1
10
56.861100
20
15.977600
11
56.861100
21
15.977600
0
LINE
8
Layer 1
10
63.161100
20
17.127600
11
63.161100
21
20.927600
0
LINE
8
Layer 1
10
63.161100
20
20.927600
11
65.161100
21
20.927600
0
LINE
8
Layer 1
10
65.161100
20
20.927600
11
65.161100
21
17.127600
0
LINE
8
Layer 1
10
65.161100
20
17.127600
11
63.161100
21
17.127600
0
LINE
8
Layer 1
10
56.861100
20
18.277600
11
56.861100
21
19.777600
0
LINE
8
Layer 1
10
56.861100
20
19.777600
11
58.861100
21
19.777600
0
LINE
8
Layer 1
10
58.861100
20
19.777600
11
58.861100
21
18.277600
0
LINE
8
Layer 1
10
58.861100
20
18.277600
11
56.861100
21
18.277600
0
LINE
8
Layer 1
10
56.861100
20
20.577600
11
56.861100
21
22.077600
0
LINE
8
Layer 1
10
56.861100
20
22.077600
11
58.861100
21
22.077600
0
LINE
8
Layer 1
10
58.861100
20
22.077600
11
58.861100
21
20.577600
0
LINE
8
Layer 1
10
58.861100
20
20.577600
11
56.861100
21
20.577600
0
LINE
8
Layer 1
10
42.736100
20
19.552600
11
42.720880
21
19.476063
0
LINE
8
Layer 1
10
42.720880
20
19.476063
11
42.677520
21
19.411179
0
LINE
8
Layer 1
10
42.677520
20
19.411179
11
42.612640
21
19.367824
0
LINE
8
Layer 1
10
42.612640
20
19.367824
11
42.536100
21
19.352600
0
LINE
8
Layer 1
10
42.536100
20
19.352600
11
42.136100
21
19.352600
0
LINE
8
Layer 1
10
42.136100
20
19.352600
11
42.059560
21
19.367824
0
LINE
8
Layer 1
10
42.059560
20
19.367824
11
41.994680
21
19.411179
0
LINE
8
Layer 1
10
41.994680
20
19.411179
11
41.951320
21
19.476063
0
LINE
8
Layer 1
10
41.951320
20
19.476063
11
41.936100
21
19.552600
0
LINE
8
Layer 1
10
41.936100
20
19.552600
11
41.936100
21
20.102600
0
LINE
8
Layer 1
10
41.936100
20
20.102600
11
41.951320
21
20.179137
0
LINE
8
Layer 1
10
41.951320
20
20.179137
11
41.994680
21
20.244021
0
LINE
8
Layer 1
10
41.994680
20
20.244021
11
42.059560
21
20.287376
0
LINE
8
Layer 1
10
42.059560
20
20.287376
11
42.136100
21
20.302600
0
LINE
8
Layer 1
10
42.136100
20
20.302600
11
42.536100
21
20.302600
0
LINE
8
Layer 1
10
42.536100
20
20.302600
11
42.612640
21
20.287376
0
LINE
8
Layer 1
10
42.612640
20
20.287376
11
42.677520
21
20.244021
0
LINE
8
Layer 1
10
42.677520
20
20.244021
11
42.720880
21
20.179137
0
LINE
8
Layer 1
10
42.720880
20
20.179137
11
42.736100
21
20.102600
0
LINE
8
Layer 1
10
42.736100
20
20.102600
11
42.736100
21
19.552600
0
LINE
8
Layer 1
10
41.086100
20
19.552600
11
41.070880
21
19.476063
0
LINE
8
Layer 1
10
41.070880
20
19.476063
11
41.027520
21
19.411179
0
LINE
8
Layer 1
10
41.027520
20
19.411179
11
40.962640
21
19.367824
0
LINE
8
Layer 1
10
40.962640
20
19.367824
11
40.886100
21
19.352600
0
LINE
8
Layer 1
10
40.886100
20
19.352600
11
40.486100
21
19.352600
0
LINE
8
Layer 1
10
40.486100
20
19.352600
11
40.409560
21
19.367824
0
LINE
8
Layer 1
10
40.409560
20
19.367824
11
40.344680
21
19.411179
0
LINE
8
Layer 1
10
40.344680
20
19.411179
11
40.301320
21
19.476063
0
LINE
8
Layer 1
10
40.301320
20
19.476063
11
40.286100
21
19.552600
0
LINE
8
Layer 1
10
40.286100
20
19.552600
11
40.286100
21
20.102600
0
LINE
8
Layer 1
10
40.286100
20
20.102600
11
40.301320
21
20.179137
0
LINE
8
Layer 1
10
40.301320
20
20.179137
11
40.344680
21
20.244021
0
LINE
8
Layer 1
10
40.344680
20
20.244021
11
40.409560
21
20.287376
0
LINE
8
Layer 1
10
40.409560
20
20.287376
11
40.486100
21
20.302600
0
LINE
8
Layer 1
10
40.486100
20
20.302600
11
40.886100
21
20.302600
0
LINE
8
Layer 1
10
40.886100
20
20.302600
11
40.962640
21
20.287376
0
LINE
8
Layer 1
10
40.962640
20
20.287376
11
41.027520
21
20.244021
0
LINE
8
Layer 1
10
41.027520
20
20.244021
11
41.070880
21
20.179137
0
LINE
8
Layer 1
10
41.070880
20
20.179137
11
41.086100
21
20.102600
0
LINE
8
Layer 1
10
41.086100
20
20.102600
11
41.086100
21
19.552600
0
LINE
8
Layer 1
10
45.986100
20
14.027600
11
45.794538
21
14.124848
0
LINE
8
Layer 1
10
45.794538
20
14.124848
11
45.736100
21
14.334061
0
LINE
8
Layer 1
10
45.736100
20
14.334061
11
45.755130
21
14.873271
0
LINE
8
Layer 1
10
45.755130
20
14.873271
11
45.905429
21
15.008181
0
LINE
8
Layer 1
10
45.905429
20
15.008181
11
46.113140
21
15.027600
0
LINE
8
Layer 1
10
46.113140
20
15.027600
11
46.977630
21
15.019339
0
LINE
8
Layer 1
10
46.977630
20
15.019339
11
47.150074
21
14.896312
0
LINE
8
Layer 1
10
47.150074
20
14.896312
11
47.186100
21
14.678793
0
LINE
8
Layer 1
10
47.186100
20
14.678793
11
47.159230
21
14.170192
0
LINE
8
Layer 1
10
47.159230
20
14.170192
11
46.983841
21
14.037864
0
LINE
8
Layer 1
10
46.983841
20
14.037864
11
46.752600
21
14.027600
0
LINE
8
Layer 1
10
46.752600
20
14.027600
11
45.986100
21
14.027600
0
LINE
8
Layer 1
10
45.986100
20
14.027600
11
45.986100
21
14.027600
0
LINE
8
Layer 1
10
45.986100
20
15.927600
11
45.794538
21
16.024848
0
LINE
8
Layer 1
10
45.794538
20
16.024848
11
45.736100
21
16.234061
0
LINE
8
Layer 1
10
45.736100
20
16.234061
11
45.755130
21
16.773271
0
LINE
8
Layer 1
10
45.755130
20
16.773271
11
45.905429
21
16.908181
0
LINE
8
Layer 1
10
45.905429
20
16.908181
11
46.113140
21
16.927600
0
LINE
8
Layer 1
10
46.113140
20
16.927600
11
46.977630
21
16.919339
0
LINE
8
Layer 1
10
46.977630
20
16.919339
11
47.150074
21
16.796312
0
LINE
8
Layer 1
10
47.150074
20
16.796312
11
47.186100
21
16.578793
0
LINE
8
Layer 1
10
47.186100
20
16.578793
11
47.159230
21
16.070192
0
LINE
8
Layer 1
10
47.159230
20
16.070192
11
46.983841
21
15.937864
0
LINE
8
Layer 1
10
46.983841
20
15.937864
11
46.752600
21
15.927600
0
LINE
8
Layer 1
10
46.752600
20
15.927600
11
45.986100
21
15.927600
0
LINE
8
Layer 1
10
45.986100
20
15.927600
11
45.986100
21
15.927600
0
LINE
8
Layer 1
10
43.876100
20
8.045390
11
43.726100
21
8.233192
0
LINE
8
Layer 1
10
43.726100
20
8.233192
11
43.727940
21
9.504662
0
LINE
8
Layer 1
10
43.727940
20
9.504662
11
43.923350
21
9.645393
0
LINE
8
Layer 1
10
43.923350
20
9.645393
11
44.241360
21
9.628725
0
LINE
8
Layer 1
10
44.241360
20
9.628725
11
44.326100
21
9.344187
0
LINE
8
Layer 1
10
44.326100
20
9.344187
11
44.324260
21
8.186127
0
LINE
8
Layer 1
10
44.324260
20
8.186127
11
44.128850
21
8.045396
0
LINE
8
Layer 1
10
44.128850
20
8.045396
11
43.876100
21
8.045396
0
LINE
8
Layer 1
10
43.876100
20
8.045396
11
43.876100
21
8.045390
0
LINE
8
Layer 1
10
42.606100
20
8.045390
11
42.456100
21
8.233192
0
LINE
8
Layer 1
10
42.456100
20
8.233192
11
42.457940
21
9.504662
0
LINE
8
Layer 1
10
42.457940
20
9.504662
11
42.653350
21
9.645393
0
LINE
8
Layer 1
10
42.653350
20
9.645393
11
42.971360
21
9.628725
0
LINE
8
Layer 1
10
42.971360
20
9.628725
11
43.056100
21
9.344187
0
LINE
8
Layer 1
10
43.056100
20
9.344187
11
43.054260
21
8.186127
0
LINE
8
Layer 1
10
43.054260
20
8.186127
11
42.858850
21
8.045396
0
LINE
8
Layer 1
10
42.858850
20
8.045396
11
42.606100
21
8.045396
0
LINE
8
Layer 1
10
42.606100
20
8.045396
11
42.606100
21
8.045390
0
LINE
8
Layer 1
10
41.336100
20
8.045390
11
41.186100
21
8.233192
0
LINE
8
Layer 1
10
41.186100
20
8.233192
11
41.187940
21
9.504662
0
LINE
8
Layer 1
10
41.187940
20
9.504662
11
41.383350
21
9.645393
0
LINE
8
Layer 1
10
41.383350
20
9.645393
11
41.701360
21
9.628725
0
LINE
8
Layer 1
10
41.701360
20
9.628725
11
41.786100
21
9.344187
0
LINE
8
Layer 1
10
41.786100
20
9.344187
11
41.784260
21
8.186127
0
LINE
8
Layer 1
10
41.784260
20
8.186127
11
41.588850
21
8.045396
0
LINE
8
Layer 1
10
41.588850
20
8.045396
11
41.336100
21
8.045396
0
LINE
8
Layer 1
10
41.336100
20
8.045396
11
41.336100
21
8.045390
0
LINE
8
Layer 1
10
40.066100
20
8.045390
11
39.916100
21
8.233192
0
LINE
8
Layer 1
10
39.916100
20
8.233192
11
39.917940
21
9.504662
0
LINE
8
Layer 1
10
39.917940
20
9.504662
11
40.113350
21
9.645393
0
LINE
8
Layer 1
10
40.113350
20
9.645393
11
40.431360
21
9.628725
0
LINE
8
Layer 1
10
40.431360
20
9.628725
11
40.516100
21
9.344187
0
LINE
8
Layer 1
10
40.516100
20
9.344187
11
40.514260
21
8.186127
0
LINE
8
Layer 1
10
40.514260
20
8.186127
11
40.318850
21
8.045396
0
LINE
8
Layer 1
10
40.318850
20
8.045396
11
40.066100
21
8.045396
0
LINE
8
Layer 1
10
40.066100
20
8.045396
11
40.066100
21
8.045390
0
LINE
8
Layer 1
10
40.066100
20
15.245400
11
39.916100
21
15.433202
0
LINE
8
Layer 1
10
39.916100
20
15.433202
11
39.917940
21
16.704672
0
LINE
8
Layer 1
10
39.917940
20
16.704672
11
40.113350
21
16.845403
0
LINE
8
Layer 1
10
40.113350
20
16.845403
11
40.431360
21
16.828735
0
LINE
8
Layer 1
10
40.431360
20
16.828735
11
40.516100
21
16.544197
0
LINE
8
Layer 1
10
40.516100
20
16.544197
11
40.514260
21
15.386137
0
LINE
8
Layer 1
10
40.514260
20
15.386137
11
40.318850
21
15.245406
0
LINE
8
Layer 1
10
40.318850
20
15.245406
11
40.066100
21
15.245406
0
LINE
8
Layer 1
10
40.066100
20
15.245406
11
40.066100
21
15.245400
0
LINE
8
Layer 1
10
41.336100
20
15.245400
11
41.186100
21
15.433202
0
LINE
8
Layer 1
10
41.186100
20
15.433202
11
41.187940
21
16.704672
0
LINE
8
Layer 1
10
41.187940
20
16.704672
11
41.383350
21
16.845403
0
LINE
8
Layer 1
10
41.383350
20
16.845403
11
41.701360
21
16.828735
0
LINE
8
Layer 1
10
41.701360
20
16.828735
11
41.786100
21
16.544197
0
LINE
8
Layer 1
10
41.786100
20
16.544197
11
41.784260
21
15.386137
0
LINE
8
Layer 1
10
41.784260
20
15.386137
11
41.588850
21
15.245406
0
LINE
8
Layer 1
10
41.588850
20
15.245406
11
41.336100
21
15.245406
0
LINE
8
Layer 1
10
41.336100
20
15.245406
11
41.336100
21
15.245400
0
LINE
8
Layer 1
10
42.606100
20
15.245400
11
42.456100
21
15.433202
0
LINE
8
Layer 1
10
42.456100
20
15.433202
11
42.457940
21
16.704672
0
LINE
8
Layer 1
10
42.457940
20
16.704672
11
42.653350
21
16.845403
0
LINE
8
Layer 1
10
42.653350
20
16.845403
11
42.971360
21
16.828735
0
LINE
8
Layer 1
10
42.971360
20
16.828735
11
43.056100
21
16.544197
0
LINE
8
Layer 1
10
43.056100
20
16.544197
11
43.054260
21
15.386137
0
LINE
8
Layer 1
10
43.054260
20
15.386137
11
42.858850
21
15.245406
0
LINE
8
Layer 1
10
42.858850
20
15.245406
11
42.606100
21
15.245406
0
LINE
8
Layer 1
10
42.606100
20
15.245406
11
42.606100
21
15.245400
0
LINE
8
Layer 1
10
43.876100
20
15.245400
11
43.726100
21
15.433202
0
LINE
8
Layer 1
10
43.726100
20
15.433202
11
43.727940
21
16.704672
0
LINE
8
Layer 1
10
43.727940
20
16.704672
11
43.923350
21
16.845403
0
LINE
8
Layer 1
10
43.923350
20
16.845403
11
44.241360
21
16.828735
0
LINE
8
Layer 1
10
44.241360
20
16.828735
11
44.326100
21
16.544197
0
LINE
8
Layer 1
10
44.326100
20
16.544197
11
44.324260
21
15.386137
0
LINE
8
Layer 1
10
44.324260
20
15.386137
11
44.128850
21
15.245406
0
LINE
8
Layer 1
10
44.128850
20
15.245406
11
43.876100
21
15.245406
0
LINE
8
Layer 1
10
43.876100
20
15.245406
11
43.876100
21
15.245400
0
LINE
8
Layer 1
10
33.776300
20
11.995500
11
34.026300
21
11.733152
0
LINE
8
Layer 1
10
34.026300
20
11.733152
11
34.007270
21
11.149829
0
LINE
8
Layer 1
10
34.007270
20
11.149829
11
33.689870
21
10.995500
0
LINE
8
Layer 1
10
33.689870
20
10.995500
11
32.802080
21
11.000318
0
LINE
8
Layer 1
10
32.802080
20
11.000318
11
32.625781
21
11.104073
0
LINE
8
Layer 1
10
32.625781
20
11.104073
11
32.576300
21
11.307239
0
LINE
8
Layer 1
10
32.576300
20
11.307239
11
32.595330
21
11.841171
0
LINE
8
Layer 1
10
32.595330
20
11.841171
11
32.912730
21
11.995500
0
LINE
8
Layer 1
10
32.912730
20
11.995500
11
33.776300
21
11.995500
0
LINE
8
Layer 1
10
33.776300
20
11.995500
11
33.776300
21
11.995500
0
LINE
8
Layer 1
10
33.776300
20
10.095500
11
34.026300
21
9.833152
0
LINE
8
Layer 1
10
34.026300
20
9.833152
11
34.007270
21
9.249829
0
LINE
8
Layer 1
10
34.007270
20
9.249829
11
33.689870
21
9.095500
0
LINE
8
Layer 1
10
33.689870
20
9.095500
11
32.802080
21
9.100318
0
LINE
8
Layer 1
10
32.802080
20
9.100318
11
32.625781
21
9.204073
0
LINE
8
Layer 1
10
32.625781
20
9.204073
11
32.576300
21
9.407239
0
LINE
8
Layer 1
10
32.576300
20
9.407239
11
32.595330
21
9.941171
0
LINE
8
Layer 1
10
32.595330
20
9.941171
11
32.912730
21
10.095500
0
LINE
8
Layer 1
10
32.912730
20
10.095500
11
33.776300
21
10.095500
0
LINE
8
Layer 1
10
33.776300
20
10.095500
11
33.776300
21
10.095500
0
LINE
8
Layer 1
10
35.756200
20
11.995500
11
36.006200
21
11.733152
0
LINE
8
Layer 1
10
36.006200
20
11.733152
11
35.987170
21
11.149829
0
LINE
8
Layer 1
10
35.987170
20
11.149829
11
35.669770
21
10.995500
0
LINE
8
Layer 1
10
35.669770
20
10.995500
11
34.781980
21
11.000318
0
LINE
8
Layer 1
10
34.781980
20
11.000318
11
34.605681
21
11.104073
0
LINE
8
Layer 1
10
34.605681
20
11.104073
11
34.556200
21
11.307239
0
LINE
8
Layer 1
10
34.556200
20
11.307239
11
34.575230
21
11.841171
0
LINE
8
Layer 1
10
34.575230
20
11.841171
11
34.892630
21
11.995500
0
LINE
8
Layer 1
10
34.892630
20
11.995500
11
35.756200
21
11.995500
0
LINE
8
Layer 1
10
35.756200
20
11.995500
11
35.756200
21
11.995500
0
LINE
8
Layer 1
10
35.756200
20
10.095500
11
36.006200
21
9.833152
0
LINE
8
Layer 1
10
36.006200
20
9.833152
11
35.987170
21
9.249829
0
LINE
8
Layer 1
10
35.987170
20
9.249829
11
35.669770
21
9.095500
0
LINE
8
Layer 1
10
35.669770
20
9.095500
11
34.781980
21
9.100318
0
LINE
8
Layer 1
10
34.781980
20
9.100318
11
34.605681
21
9.204073
0
LINE
8
Layer 1
10
34.605681
20
9.204073
11
34.556200
21
9.407239
0
LINE
8
Layer 1
10
34.556200
20
9.407239
11
34.575230
21
9.941171
0
LINE
8
Layer 1
10
34.575230
20
9.941171
11
34.892630
21
10.095500
0
LINE
8
Layer 1
10
34.892630
20
10.095500
11
35.756200
21
10.095500
0
LINE
8
Layer 1
10
35.756200
20
10.095500
11
35.756200
21
10.095500
0
LINE
8
Layer 1
10
59.586100
20
3.552560
11
59.586100
21
4.552560
0
LINE
8
Layer 1
10
59.586100
20
4.552560
11
61.086100
21
4.552560
0
LINE
8
Layer 1
10
61.086100
20
4.552560
11
61.086100
21
3.552560
0
LINE
8
Layer 1
10
61.086100
20
3.552560
11
59.586100
21
3.552560
0
LINE
8
Layer 1
10
59.586100
20
6.752560
11
59.586100
21
7.752560
0
LINE
8
Layer 1
10
59.586100
20
7.752560
11
61.086100
21
7.752560
0
LINE
8
Layer 1
10
61.086100
20
7.752560
11
61.086100
21
6.752560
0
LINE
8
Layer 1
10
61.086100
20
6.752560
11
59.586100
21
6.752560
0
LINE
8
Layer 1
10
64.486100
20
6.752560
11
64.486100
21
7.752560
0
LINE
8
Layer 1
10
64.486100
20
7.752560
11
65.986100
21
7.752560
0
LINE
8
Layer 1
10
65.986100
20
7.752560
11
65.986100
21
6.752560
0
LINE
8
Layer 1
10
65.986100
20
6.752560
11
64.486100
21
6.752560
0
LINE
8
Layer 1
10
64.486100
20
3.552560
11
64.486100
21
4.552560
0
LINE
8
Layer 1
10
64.486100
20
4.552560
11
65.986100
21
4.552560
0
LINE
8
Layer 1
10
65.986100
20
4.552560
11
65.986100
21
3.552560
0
LINE
8
Layer 1
10
65.986100
20
3.552560
11
64.486100
21
3.552560
0
LINE
8
Layer 1
10
32.786100
20
22.927600
11
32.690430
21
22.946630
0
LINE
8
Layer 1
10
32.690430
20
22.946630
11
32.609320
21
23.000823
0
LINE
8
Layer 1
10
32.609320
20
23.000823
11
32.555130
21
23.081929
0
LINE
8
Layer 1
10
32.555130
20
23.081929
11
32.536100
21
23.177600
0
LINE
8
Layer 1
10
32.536100
20
23.177600
11
32.536100
21
23.677600
0
LINE
8
Layer 1
10
32.536100
20
23.677600
11
32.555130
21
23.773271
0
LINE
8
Layer 1
10
32.555130
20
23.773271
11
32.609320
21
23.854377
0
LINE
8
Layer 1
10
32.609320
20
23.854377
11
32.690430
21
23.908570
0
LINE
8
Layer 1
10
32.690430
20
23.908570
11
32.786100
21
23.927600
0
LINE
8
Layer 1
10
32.786100
20
23.927600
11
33.736100
21
23.927600
0
LINE
8
Layer 1
10
33.736100
20
23.927600
11
33.831770
21
23.908570
0
LINE
8
Layer 1
10
33.831770
20
23.908570
11
33.912880
21
23.854377
0
LINE
8
Layer 1
10
33.912880
20
23.854377
11
33.967070
21
23.773271
0
LINE
8
Layer 1
10
33.967070
20
23.773271
11
33.986100
21
23.677600
0
LINE
8
Layer 1
10
33.986100
20
23.677600
11
33.986100
21
23.177600
0
LINE
8
Layer 1
10
33.986100
20
23.177600
11
33.967070
21
23.081929
0
LINE
8
Layer 1
10
33.967070
20
23.081929
11
33.912880
21
23.000823
0
LINE
8
Layer 1
10
33.912880
20
23.000823
11
33.831770
21
22.946630
0
LINE
8
Layer 1
10
33.831770
20
22.946630
11
33.736100
21
22.927600
0
LINE
8
Layer 1
10
33.736100
20
22.927600
11
32.786100
21
22.927600
0
LINE
8
Layer 1
10
32.786100
20
24.827600
11
32.690430
21
24.846630
0
LINE
8
Layer 1
10
32.690430
20
24.846630
11
32.609320
21
24.900823
0
LINE
8
Layer 1
10
32.609320
20
24.900823
11
32.555130
21
24.981929
0
LINE
8
Layer 1
10
32.555130
20
24.981929
11
32.536100
21
25.077600
0
LINE
8
Layer 1
10
32.536100
20
25.077600
11
32.536100
21
25.577600
0
LINE
8
Layer 1
10
32.536100
20
25.577600
11
32.555130
21
25.673271
0
LINE
8
Layer 1
10
32.555130
20
25.673271
11
32.609320
21
25.754377
0
LINE
8
Layer 1
10
32.609320
20
25.754377
11
32.690430
21
25.808570
0
LINE
8
Layer 1
10
32.690430
20
25.808570
11
32.786100
21
25.827600
0
LINE
8
Layer 1
10
32.786100
20
25.827600
11
33.736100
21
25.827600
0
LINE
8
Layer 1
10
33.736100
20
25.827600
11
33.831770
21
25.808570
0
LINE
8
Layer 1
10
33.831770
20
25.808570
11
33.912880
21
25.754377
0
LINE
8
Layer 1
10
33.912880
20
25.754377
11
33.967070
21
25.673271
0
LINE
8
Layer 1
10
33.967070
20
25.673271
11
33.986100
21
25.577600
0
LINE
8
Layer 1
10
33.986100
20
25.577600
11
33.986100
21
25.077600
0
LINE
8
Layer 1
10
33.986100
20
25.077600
11
33.967070
21
24.981929
0
LINE
8
Layer 1
10
33.967070
20
24.981929
11
33.912880
21
24.900823
0
LINE
8
Layer 1
10
33.912880
20
24.900823
11
33.831770
21
24.846630
0
LINE
8
Layer 1
10
33.831770
20
24.846630
11
33.736100
21
24.827600
0
LINE
8
Layer 1
10
33.736100
20
24.827600
11
32.786100
21
24.827600
0
LINE
8
Layer 1
10
30.686100
20
22.927600
11
30.590430
21
22.946630
0
LINE
8
Layer 1
10
30.590430
20
22.946630
11
30.509320
21
23.000823
0
LINE
8
Layer 1
10
30.509320
20
23.000823
11
30.455130
21
23.081929
0
LINE
8
Layer 1
10
30.455130
20
23.081929
11
30.436100
21
23.177600
0
LINE
8
Layer 1
10
30.436100
20
23.177600
11
30.436100
21
23.677600
0
LINE
8
Layer 1
10
30.436100
20
23.677600
11
30.455130
21
23.773271
0
LINE
8
Layer 1
10
30.455130
20
23.773271
11
30.509320
21
23.854377
0
LINE
8
Layer 1
10
30.509320
20
23.854377
11
30.590430
21
23.908570
0
LINE
8
Layer 1
10
30.590430
20
23.908570
11
30.686100
21
23.927600
0
LINE
8
Layer 1
10
30.686100
20
23.927600
11
31.636100
21
23.927600
0
LINE
8
Layer 1
10
31.636100
20
23.927600
11
31.731770
21
23.908570
0
LINE
8
Layer 1
10
31.731770
20
23.908570
11
31.812880
21
23.854377
0
LINE
8
Layer 1
10
31.812880
20
23.854377
11
31.867070
21
23.773271
0
LINE
8
Layer 1
10
31.867070
20
23.773271
11
31.886100
21
23.677600
0
LINE
8
Layer 1
10
31.886100
20
23.677600
11
31.886100
21
23.177600
0
LINE
8
Layer 1
10
31.886100
20
23.177600
11
31.867070
21
23.081929
0
LINE
8
Layer 1
10
31.867070
20
23.081929
11
31.812880
21
23.000823
0
LINE
8
Layer 1
10
31.812880
20
23.000823
11
31.731770
21
22.946630
0
LINE
8
Layer 1
10
31.731770
20
22.946630
11
31.636100
21
22.927600
0
LINE
8
Layer 1
10
31.636100
20
22.927600
11
30.686100
21
22.927600
0
LINE
8
Layer 1
10
30.686100
20
24.827600
11
30.590430
21
24.846630
0
LINE
8
Layer 1
10
30.590430
20
24.846630
11
30.509320
21
24.900823
0
LINE
8
Layer 1
10
30.509320
20
24.900823
11
30.455130
21
24.981929
0
LINE
8
Layer 1
10
30.455130
20
24.981929
11
30.436100
21
25.077600
0
LINE
8
Layer 1
10
30.436100
20
25.077600
11
30.436100
21
25.577600
0
LINE
8
Layer 1
10
30.436100
20
25.577600
11
30.455130
21
25.673271
0
LINE
8
Layer 1
10
30.455130
20
25.673271
11
30.509320
21
25.754377
0
LINE
8
Layer 1
10
30.509320
20
25.754377
11
30.590430
21
25.808570
0
LINE
8
Layer 1
10
30.590430
20
25.808570
11
30.686100
21
25.827600
0
LINE
8
Layer 1
10
30.686100
20
25.827600
11
31.636100
21
25.827600
0
LINE
8
Layer 1
10
31.636100
20
25.827600
11
31.731770
21
25.808570
0
LINE
8
Layer 1
10
31.731770
20
25.808570
11
31.812880
21
25.754377
0
LINE
8
Layer 1
10
31.812880
20
25.754377
11
31.867070
21
25.673271
0
LINE
8
Layer 1
10
31.867070
20
25.673271
11
31.886100
21
25.577600
0
LINE
8
Layer 1
10
31.886100
20
25.577600
11
31.886100
21
25.077600
0
LINE
8
Layer 1
10
31.886100
20
25.077600
11
31.867070
21
24.981929
0
LINE
8
Layer 1
10
31.867070
20
24.981929
11
31.812880
21
24.900823
0
LINE
8
Layer 1
10
31.812880
20
24.900823
11
31.731770
21
24.846630
0
LINE
8
Layer 1
10
31.731770
20
24.846630
11
31.636100
21
24.827600
0
LINE
8
Layer 1
10
31.636100
20
24.827600
11
30.686100
21
24.827600
0
LINE
8
Layer 1
10
29.511100
20
17.162600
11
29.442390
21
16.993040
0
LINE
8
Layer 1
10
29.442390
20
16.993040
11
29.278560
21
16.916055
0
LINE
8
Layer 1
10
29.278560
20
16.916055
11
28.964900
21
16.912497
0
LINE
8
Layer 1
10
28.964900
20
16.912497
11
28.659450
21
16.935626
0
LINE
8
Layer 1
10
28.659450
20
16.935626
11
28.546930
21
17.041141
0
LINE
8
Layer 1
10
28.546930
20
17.041141
11
28.510460
21
17.207886
0
LINE
8
Layer 1
10
28.510460
20
17.207886
11
28.511800
21
18.116127
0
LINE
8
Layer 1
10
28.511800
20
18.116127
11
28.579810
21
18.282160
0
LINE
8
Layer 1
10
28.579810
20
18.282160
11
28.743640
21
18.359145
0
LINE
8
Layer 1
10
28.743640
20
18.359145
11
29.057300
21
18.362703
0
LINE
8
Layer 1
10
29.057300
20
18.362703
11
29.362750
21
18.339574
0
LINE
8
Layer 1
10
29.362750
20
18.339574
11
29.475270
21
18.234059
0
LINE
8
Layer 1
10
29.475270
20
18.234059
11
29.511740
21
18.067314
0
LINE
8
Layer 1
10
29.511740
20
18.067314
11
29.511100
21
17.162600
0
LINE
8
Layer 1
10
29.511100
20
17.162600
11
29.511100
21
17.162600
0
LINE
8
Layer 1
10
27.611100
20
17.162600
11
27.588070
21
17.060948
0
LINE
8
Layer 1
10
27.588070
20
17.060948
11
27.513960
21
16.969839
0
LINE
8
Layer 1
10
27.513960
20
16.969839
11
27.425020
21
16.925315
0
LINE
8
Layer 1
10
27.425020
20
16.925315
11
27.299960
21
16.912600
0
LINE
8
Layer 1
10
27.299960
20
16.912600
11
26.857570
21
16.913302
0
LINE
8
Layer 1
10
26.857570
20
16.913302
11
26.759450
21
16.935626
0
LINE
8
Layer 1
10
26.759450
20
16.935626
11
26.668340
21
17.009746
0
LINE
8
Layer 1
10
26.668340
20
17.009746
11
26.623820
21
17.098675
0
LINE
8
Layer 1
10
26.623820
20
17.098675
11
26.611100
21
17.223739
0
LINE
8
Layer 1
10
26.611100
20
17.223739
11
26.611800
21
18.116127
0
LINE
8
Layer 1
10
26.611800
20
18.116127
11
26.634130
21
18.214252
0
LINE
8
Layer 1
10
26.634130
20
18.214252
11
26.708240
21
18.305361
0
LINE
8
Layer 1
10
26.708240
20
18.305361
11
26.797180
21
18.349885
0
LINE
8
Layer 1
10
26.797180
20
18.349885
11
26.922240
21
18.362600
0
LINE
8
Layer 1
10
26.922240
20
18.362600
11
27.364630
21
18.361898
0
LINE
8
Layer 1
10
27.364630
20
18.361898
11
27.462750
21
18.339574
0
LINE
8
Layer 1
10
27.462750
20
18.339574
11
27.553860
21
18.265454
0
LINE
8
Layer 1
10
27.553860
20
18.265454
11
27.598380
21
18.176525
0
LINE
8
Layer 1
10
27.598380
20
18.176525
11
27.611100
21
18.051461
0
LINE
8
Layer 1
10
27.611100
20
18.051461
11
27.611100
21
17.162600
0
LINE
8
Layer 1
10
27.611100
20
17.162600
11
27.611100
21
17.162600
0
LINE
8
Layer 1
10
29.727300
20
14.538100
11
29.727300
21
13.338100
0
LINE
8
Layer 1
10
29.727300
20
13.338100
11
28.327300
21
13.338100
0
LINE
8
Layer 1
10
28.327300
20
13.338100
11
28.327300
21
14.538100
0
LINE
8
Layer 1
10
28.327300
20
14.538100
11
29.727300
21
14.538100
0
LINE
8
Layer 1
10
29.727300
20
14.538100
11
29.727300
21
14.538100
0
LINE
8
Layer 1
10
27.527300
20
14.538100
11
27.527300
21
13.338100
0
LINE
8
Layer 1
10
27.527300
20
13.338100
11
26.127300
21
13.338100
0
LINE
8
Layer 1
10
26.127300
20
13.338100
11
26.127300
21
14.538100
0
LINE
8
Layer 1
10
26.127300
20
14.538100
11
27.527300
21
14.538100
0
LINE
8
Layer 1
10
27.527300
20
14.538100
11
27.527300
21
14.538100
0
LINE
8
Layer 1
10
27.527300
20
16.238100
11
27.527300
21
15.038100
0
LINE
8
Layer 1
10
27.527300
20
15.038100
11
26.127300
21
15.038100
0
LINE
8
Layer 1
10
26.127300
20
15.038100
11
26.127300
21
16.238100
0
LINE
8
Layer 1
10
26.127300
20
16.238100
11
27.527300
21
16.238100
0
LINE
8
Layer 1
10
27.527300
20
16.238100
11
27.527300
21
16.238100
0
LINE
8
Layer 1
10
29.727300
20
16.238100
11
29.727300
21
15.038100
0
LINE
8
Layer 1
10
29.727300
20
15.038100
11
28.327300
21
15.038100
0
LINE
8
Layer 1
10
28.327300
20
15.038100
11
28.327300
21
16.238100
0
LINE
8
Layer 1
10
28.327300
20
16.238100
11
29.727300
21
16.238100
0
LINE
8
Layer 1
10
29.727300
20
16.238100
11
29.727300
21
16.238100
0
LINE
8
Layer 1
10
29.511100
20
11.402600
11
29.455650
21
11.252420
0
LINE
8
Layer 1
10
29.455650
20
11.252420
11
29.343910
21
11.169072
0
LINE
8
Layer 1
10
29.343910
20
11.169072
11
28.985760
21
11.152600
0
LINE
8
Layer 1
10
28.985760
20
11.152600
11
28.659980
21
11.175272
0
LINE
8
Layer 1
10
28.659980
20
11.175272
11
28.547900
21
11.280332
0
LINE
8
Layer 1
10
28.547900
20
11.280332
11
28.511100
21
11.461601
0
LINE
8
Layer 1
10
28.511100
20
11.461601
11
28.512380
21
12.359030
0
LINE
8
Layer 1
10
28.512380
20
12.359030
11
28.566550
21
12.502780
0
LINE
8
Layer 1
10
28.566550
20
12.502780
11
28.678290
21
12.586128
0
LINE
8
Layer 1
10
28.678290
20
12.586128
11
29.036440
21
12.602600
0
LINE
8
Layer 1
10
29.036440
20
12.602600
11
29.362220
21
12.579928
0
LINE
8
Layer 1
10
29.362220
20
12.579928
11
29.474300
21
12.474868
0
LINE
8
Layer 1
10
29.474300
20
12.474868
11
29.511100
21
12.293599
0
LINE
8
Layer 1
10
29.511100
20
12.293599
11
29.511100
21
11.402600
0
LINE
8
Layer 1
10
29.511100
20
11.402600
11
29.511100
21
11.402600
0
LINE
8
Layer 1
10
27.611100
20
11.402600
11
27.555650
21
11.252420
0
LINE
8
Layer 1
10
27.555650
20
11.252420
11
27.443910
21
11.169072
0
LINE
8
Layer 1
10
27.443910
20
11.169072
11
27.085760
21
11.152600
0
LINE
8
Layer 1
10
27.085760
20
11.152600
11
26.759980
21
11.175272
0
LINE
8
Layer 1
10
26.759980
20
11.175272
11
26.647900
21
11.280332
0
LINE
8
Layer 1
10
26.647900
20
11.280332
11
26.611100
21
11.461601
0
LINE
8
Layer 1
10
26.611100
20
11.461601
11
26.612380
21
12.359030
0
LINE
8
Layer 1
10
26.612380
20
12.359030
11
26.666550
21
12.502780
0
LINE
8
Layer 1
10
26.666550
20
12.502780
11
26.778290
21
12.586128
0
LINE
8
Layer 1
10
26.778290
20
12.586128
11
27.136440
21
12.602600
0
LINE
8
Layer 1
10
27.136440
20
12.602600
11
27.462220
21
12.579928
0
LINE
8
Layer 1
10
27.462220
20
12.579928
11
27.574300
21
12.474868
0
LINE
8
Layer 1
10
27.574300
20
12.474868
11
27.611100
21
12.293599
0
LINE
8
Layer 1
10
27.611100
20
12.293599
11
27.611100
21
11.402600
0
LINE
8
Layer 1
10
27.611100
20
11.402600
11
27.611100
21
11.402600
0
LINE
8
Layer 1
10
40.271100
20
22.020400
11
40.290130
21
22.116071
0
LINE
8
Layer 1
10
40.290130
20
22.116071
11
40.344330
21
22.197177
0
LINE
8
Layer 1
10
40.344330
20
22.197177
11
40.425430
21
22.251370
0
LINE
8
Layer 1
10
40.425430
20
22.251370
11
40.521100
21
22.270400
0
LINE
8
Layer 1
10
40.521100
20
22.270400
11
41.021100
21
22.270400
0
LINE
8
Layer 1
10
41.021100
20
22.270400
11
41.116770
21
22.251370
0
LINE
8
Layer 1
10
41.116770
20
22.251370
11
41.197880
21
22.197177
0
LINE
8
Layer 1
10
41.197880
20
22.197177
11
41.252070
21
22.116071
0
LINE
8
Layer 1
10
41.252070
20
22.116071
11
41.271100
21
22.020400
0
LINE
8
Layer 1
10
41.271100
20
22.020400
11
41.271100
21
21.070400
0
LINE
8
Layer 1
10
41.271100
20
21.070400
11
41.252070
21
20.974729
0
LINE
8
Layer 1
10
41.252070
20
20.974729
11
41.197880
21
20.893623
0
LINE
8
Layer 1
10
41.197880
20
20.893623
11
41.116770
21
20.839430
0
LINE
8
Layer 1
10
41.116770
20
20.839430
11
41.021100
21
20.820400
0
LINE
8
Layer 1
10
41.021100
20
20.820400
11
40.521100
21
20.820400
0
LINE
8
Layer 1
10
40.521100
20
20.820400
11
40.425430
21
20.839430
0
LINE
8
Layer 1
10
40.425430
20
20.839430
11
40.344330
21
20.893623
0
LINE
8
Layer 1
10
40.344330
20
20.893623
11
40.290130
21
20.974729
0
LINE
8
Layer 1
10
40.290130
20
20.974729
11
40.271100
21
21.070400
0
LINE
8
Layer 1
10
40.271100
20
21.070400
11
40.271100
21
22.020400
0
LINE
8
Layer 1
10
42.171100
20
22.020400
11
42.190130
21
22.116071
0
LINE
8
Layer 1
10
42.190130
20
22.116071
11
42.244330
21
22.197177
0
LINE
8
Layer 1
10
42.244330
20
22.197177
11
42.325430
21
22.251370
0
LINE
8
Layer 1
10
42.325430
20
22.251370
11
42.421100
21
22.270400
0
LINE
8
Layer 1
10
42.421100
20
22.270400
11
42.921100
21
22.270400
0
LINE
8
Layer 1
10
42.921100
20
22.270400
11
43.016770
21
22.251370
0
LINE
8
Layer 1
10
43.016770
20
22.251370
11
43.097880
21
22.197177
0
LINE
8
Layer 1
10
43.097880
20
22.197177
11
43.152070
21
22.116071
0
LINE
8
Layer 1
10
43.152070
20
22.116071
11
43.171100
21
22.020400
0
LINE
8
Layer 1
10
43.171100
20
22.020400
11
43.171100
21
21.070400
0
LINE
8
Layer 1
10
43.171100
20
21.070400
11
43.152070
21
20.974729
0
LINE
8
Layer 1
10
43.152070
20
20.974729
11
43.097880
21
20.893623
0
LINE
8
Layer 1
10
43.097880
20
20.893623
11
43.016770
21
20.839430
0
LINE
8
Layer 1
10
43.016770
20
20.839430
11
42.921100
21
20.820400
0
LINE
8
Layer 1
10
42.921100
20
20.820400
11
42.421100
21
20.820400
0
LINE
8
Layer 1
10
42.421100
20
20.820400
11
42.325430
21
20.839430
0
LINE
8
Layer 1
10
42.325430
20
20.839430
11
42.244330
21
20.893623
0
LINE
8
Layer 1
10
42.244330
20
20.893623
11
42.190130
21
20.974729
0
LINE
8
Layer 1
10
42.190130
20
20.974729
11
42.171100
21
21.070400
0
LINE
8
Layer 1
10
42.171100
20
21.070400
11
42.171100
21
22.020400
0
LINE
8
Layer 1
10
46.011100
20
10.052600
11
45.819537
21
10.149848
0
LINE
8
Layer 1
10
45.819537
20
10.149848
11
45.761100
21
10.359061
0
LINE
8
Layer 1
10
45.761100
20
10.359061
11
45.780130
21
10.923271
0
LINE
8
Layer 1
10
45.780130
20
10.923271
11
45.930429
21
11.058181
0
LINE
8
Layer 1
10
45.930429
20
11.058181
11
46.138140
21
11.077600
0
LINE
8
Layer 1
10
46.138140
20
11.077600
11
46.952630
21
11.069339
0
LINE
8
Layer 1
10
46.952630
20
11.069339
11
47.125074
21
10.946312
0
LINE
8
Layer 1
10
47.125074
20
10.946312
11
47.161100
21
10.728793
0
LINE
8
Layer 1
10
47.161100
20
10.728793
11
47.134230
21
10.195192
0
LINE
8
Layer 1
10
47.134230
20
10.195192
11
46.958841
21
10.062864
0
LINE
8
Layer 1
10
46.958841
20
10.062864
11
46.727600
21
10.052600
0
LINE
8
Layer 1
10
46.727600
20
10.052600
11
46.011100
21
10.052600
0
LINE
8
Layer 1
10
46.011100
20
10.052600
11
46.011100
21
10.052600
0
LINE
8
Layer 1
10
46.011100
20
11.877600
11
45.819537
21
11.974848
0
LINE
8
Layer 1
10
45.819537
20
11.974848
11
45.761100
21
12.184061
0
LINE
8
Layer 1
10
45.761100
20
12.184061
11
45.780130
21
12.748271
0
LINE
8
Layer 1
10
45.780130
20
12.748271
11
45.930429
21
12.883181
0
LINE
8
Layer 1
10
45.930429
20
12.883181
11
46.138140
21
12.902600
0
LINE
8
Layer 1
10
46.138140
20
12.902600
11
46.952630
21
12.894339
0
LINE
8
Layer 1
10
46.952630
20
12.894339
11
47.125074
21
12.771311
0
LINE
8
Layer 1
10
47.125074
20
12.771311
11
47.161100
21
12.553793
0
LINE
8
Layer 1
10
47.161100
20
12.553793
11
47.134230
21
12.020192
0
LINE
8
Layer 1
10
47.134230
20
12.020192
11
46.958841
21
11.887864
0
LINE
8
Layer 1
10
46.958841
20
11.887864
11
46.727600
21
11.877600
0
LINE
8
Layer 1
10
46.727600
20
11.877600
11
46.011100
21
11.877600
0
LINE
8
Layer 1
10
46.011100
20
11.877600
11
46.011100
21
11.877600
0
LINE
8
Layer 1
10
56.111100
20
18.277600
11
55.876640
21
18.030691
0
LINE
8
Layer 1
10
55.876640
20
18.030691
11
55.188210
21
18.032154
0
LINE
8
Layer 1
10
55.188210
20
18.032154
11
55.018191
21
18.124884
0
LINE
8
Layer 1
10
55.018191
20
18.124884
11
54.961100
21
18.312614
0
LINE
8
Layer 1
10
54.961100
20
18.312614
11
54.963380
21
19.589044
0
LINE
8
Layer 1
10
54.963380
20
19.589044
11
55.222770
21
19.827597
0
LINE
8
Layer 1
10
55.222770
20
19.827597
11
55.895440
21
19.820766
0
LINE
8
Layer 1
10
55.895440
20
19.820766
11
56.060814
21
19.721211
0
LINE
8
Layer 1
10
56.060814
20
19.721211
11
56.111100
21
19.530911
0
LINE
8
Layer 1
10
56.111100
20
19.530911
11
56.111100
21
18.277601
0
LINE
8
Layer 1
10
56.111100
20
18.277601
11
56.111100
21
18.277600
0
LINE
8
Layer 1
10
53.161100
20
18.277600
11
52.926640
21
18.030691
0
LINE
8
Layer 1
10
52.926640
20
18.030691
11
52.238210
21
18.032154
0
LINE
8
Layer 1
10
52.238210
20
18.032154
11
52.068191
21
18.124884
0
LINE
8
Layer 1
10
52.068191
20
18.124884
11
52.011100
21
18.312614
0
LINE
8
Layer 1
10
52.011100
20
18.312614
11
52.013380
21
19.589044
0
LINE
8
Layer 1
10
52.013380
20
19.589044
11
52.272770
21
19.827597
0
LINE
8
Layer 1
10
52.272770
20
19.827597
11
52.945440
21
19.820766
0
LINE
8
Layer 1
10
52.945440
20
19.820766
11
53.110814
21
19.721211
0
LINE
8
Layer 1
10
53.110814
20
19.721211
11
53.161100
21
19.530911
0
LINE
8
Layer 1
10
53.161100
20
19.530911
11
53.161100
21
18.277601
0
LINE
8
Layer 1
10
53.161100
20
18.277601
11
53.161100
21
18.277600
0
LINE
8
Layer 1
10
56.111100
20
20.577600
11
55.876640
21
20.330691
0
LINE
8
Layer 1
10
55.876640
20
20.330691
11
55.188210
21
20.332154
0
LINE
8
Layer 1
10
55.188210
20
20.332154
11
55.018191
21
20.424883
0
LINE
8
Layer 1
10
55.018191
20
20.424883
11
54.961100
21
20.612614
0
LINE
8
Layer 1
10
54.961100
20
20.612614
11
54.963380
21
21.889044
0
LINE
8
Layer 1
10
54.963380
20
21.889044
11
55.222770
21
22.127597
0
LINE
8
Layer 1
10
55.222770
20
22.127597
11
55.895440
21
22.120766
0
LINE
8
Layer 1
10
55.895440
20
22.120766
11
56.060814
21
22.021211
0
LINE
8
Layer 1
10
56.060814
20
22.021211
11
56.111100
21
21.830911
0
LINE
8
Layer 1
10
56.111100
20
21.830911
11
56.111100
21
20.577601
0
LINE
8
Layer 1
10
56.111100
20
20.577601
11
56.111100
21
20.577600
0
LINE
8
Layer 1
10
53.161100
20
20.577600
11
52.926640
21
20.330691
0
LINE
8
Layer 1
10
52.926640
20
20.330691
11
52.238210
21
20.332154
0
LINE
8
Layer 1
10
52.238210
20
20.332154
11
52.068191
21
20.424883
0
LINE
8
Layer 1
10
52.068191
20
20.424883
11
52.011100
21
20.612614
0
LINE
8
Layer 1
10
52.011100
20
20.612614
11
52.013380
21
21.889044
0
LINE
8
Layer 1
10
52.013380
20
21.889044
11
52.272770
21
22.127597
0
LINE
8
Layer 1
10
52.272770
20
22.127597
11
52.945440
21
22.120766
0
LINE
8
Layer 1
10
52.945440
20
22.120766
11
53.110814
21
22.021211
0
LINE
8
Layer 1
10
53.110814
20
22.021211
11
53.161100
21
21.830911
0
LINE
8
Layer 1
10
53.161100
20
21.830911
11
53.161100
21
20.577601
0
LINE
8
Layer 1
10
53.161100
20
20.577601
11
53.161100
21
20.577600
0
LINE
8
Layer 1
10
60.311100
20
27.827600
11
60.259960
21
27.683875
0
LINE
8
Layer 1
10
60.259960
20
27.683875
11
60.150470
21
27.595377
0
LINE
8
Layer 1
10
60.150470
20
27.595377
11
59.804240
21
27.577600
0
LINE
8
Layer 1
10
59.804240
20
27.577600
11
59.504610
21
27.583864
0
LINE
8
Layer 1
10
59.504610
20
27.583864
11
59.376360
21
27.639439
0
LINE
8
Layer 1
10
59.376360
20
27.639439
11
59.303880
21
27.738227
0
LINE
8
Layer 1
10
59.303880
20
27.738227
11
59.286100
21
28.084458
0
LINE
8
Layer 1
10
59.286100
20
28.084458
11
59.288610
21
28.740196
0
LINE
8
Layer 1
10
59.288610
20
28.740196
11
59.340800
21
28.876664
0
LINE
8
Layer 1
10
59.340800
20
28.876664
11
59.446730
21
28.959823
0
LINE
8
Layer 1
10
59.446730
20
28.959823
11
59.792960
21
28.977600
0
LINE
8
Layer 1
10
59.792960
20
28.977600
11
60.092590
21
28.971336
0
LINE
8
Layer 1
10
60.092590
20
28.971336
11
60.220840
21
28.915761
0
LINE
8
Layer 1
10
60.220840
20
28.915761
11
60.293320
21
28.816973
0
LINE
8
Layer 1
10
60.293320
20
28.816973
11
60.311100
21
28.470742
0
LINE
8
Layer 1
10
60.311100
20
28.470742
11
60.311100
21
27.827600
0
LINE
8
Layer 1
10
60.311100
20
27.827600
11
60.311100
21
27.827600
0
LINE
8
Layer 1
10
58.486100
20
27.827600
11
58.434960
21
27.683875
0
LINE
8
Layer 1
10
58.434960
20
27.683875
11
58.325470
21
27.595377
0
LINE
8
Layer 1
10
58.325470
20
27.595377
11
57.979240
21
27.577600
0
LINE
8
Layer 1
10
57.979240
20
27.577600
11
57.679610
21
27.583864
0
LINE
8
Layer 1
10
57.679610
20
27.583864
11
57.551360
21
27.639439
0
LINE
8
Layer 1
10
57.551360
20
27.639439
11
57.478880
21
27.738227
0
LINE
8
Layer 1
10
57.478880
20
27.738227
11
57.461100
21
28.084458
0
LINE
8
Layer 1
10
57.461100
20
28.084458
11
57.463610
21
28.740196
0
LINE
8
Layer 1
10
57.463610
20
28.740196
11
57.515800
21
28.876664
0
LINE
8
Layer 1
10
57.515800
20
28.876664
11
57.621730
21
28.959823
0
LINE
8
Layer 1
10
57.621730
20
28.959823
11
57.967960
21
28.977600
0
LINE
8
Layer 1
10
57.967960
20
28.977600
11
58.267590
21
28.971336
0
LINE
8
Layer 1
10
58.267590
20
28.971336
11
58.395840
21
28.915761
0
LINE
8
Layer 1
10
58.395840
20
28.915761
11
58.468320
21
28.816973
0
LINE
8
Layer 1
10
58.468320
20
28.816973
11
58.486100
21
28.470742
0
LINE
8
Layer 1
10
58.486100
20
28.470742
11
58.486100
21
27.827600
0
LINE
8
Layer 1
10
58.486100
20
27.827600
11
58.486100
21
27.827600
0
LINE
8
Layer 1
10
29.518800
20
21.525600
11
29.518800
21
22.475600
0
LINE
8
Layer 1
10
29.518800
20
22.475600
11
29.499800
21
22.571300
0
LINE
8
Layer 1
10
29.499800
20
22.571300
11
29.445800
21
22.652400
0
LINE
8
Layer 1
10
29.445800
20
22.652400
11
29.364800
21
22.706600
0
LINE
8
Layer 1
10
29.364800
20
22.706600
11
29.268800
21
22.725600
0
LINE
8
Layer 1
10
29.268800
20
22.725600
11
28.768800
21
22.725600
0
LINE
8
Layer 1
10
28.768800
20
22.725600
11
28.672800
21
22.706600
0
LINE
8
Layer 1
10
28.672800
20
22.706600
11
28.591800
21
22.652400
0
LINE
8
Layer 1
10
28.591800
20
22.652400
11
28.537800
21
22.571300
0
LINE
8
Layer 1
10
28.537800
20
22.571300
11
28.518800
21
22.475600
0
LINE
8
Layer 1
10
28.518800
20
22.475600
11
28.518800
21
21.525600
0
LINE
8
Layer 1
10
28.518800
20
21.525600
11
28.537800
21
21.429900
0
LINE
8
Layer 1
10
28.537800
20
21.429900
11
28.591800
21
21.348800
0
LINE
8
Layer 1
10
28.591800
20
21.348800
11
28.672800
21
21.294600
0
LINE
8
Layer 1
10
28.672800
20
21.294600
11
28.768800
21
21.275600
0
LINE
8
Layer 1
10
28.768800
20
21.275600
11
29.268800
21
21.275600
0
LINE
8
Layer 1
10
29.268800
20
21.275600
11
29.364800
21
21.294600
0
LINE
8
Layer 1
10
29.364800
20
21.294600
11
29.445800
21
21.348800
0
LINE
8
Layer 1
10
29.445800
20
21.348800
11
29.499800
21
21.429900
0
LINE
8
Layer 1
10
29.499800
20
21.429900
11
29.518800
21
21.525600
0
LINE
8
Layer 1
10
29.518800
20
21.525600
11
29.518800
21
21.525600
0
LINE
8
Layer 1
10
27.618700
20
21.525600
11
27.595670
21
21.423948
0
LINE
8
Layer 1
10
27.595670
20
21.423948
11
27.521560
21
21.332839
0
LINE
8
Layer 1
10
27.521560
20
21.332839
11
27.432620
21
21.288315
0
LINE
8
Layer 1
10
27.432620
20
21.288315
11
27.307560
21
21.275600
0
LINE
8
Layer 1
10
27.307560
20
21.275600
11
26.865170
21
21.276302
0
LINE
8
Layer 1
10
26.865170
20
21.276302
11
26.767050
21
21.298626
0
LINE
8
Layer 1
10
26.767050
20
21.298626
11
26.675940
21
21.372746
0
LINE
8
Layer 1
10
26.675940
20
21.372746
11
26.631420
21
21.461675
0
LINE
8
Layer 1
10
26.631420
20
21.461675
11
26.618700
21
21.586739
0
LINE
8
Layer 1
10
26.618700
20
21.586739
11
26.619400
21
22.479127
0
LINE
8
Layer 1
10
26.619400
20
22.479127
11
26.641730
21
22.577252
0
LINE
8
Layer 1
10
26.641730
20
22.577252
11
26.715840
21
22.668361
0
LINE
8
Layer 1
10
26.715840
20
22.668361
11
26.804780
21
22.712885
0
LINE
8
Layer 1
10
26.804780
20
22.712885
11
26.929840
21
22.725600
0
LINE
8
Layer 1
10
26.929840
20
22.725600
11
27.372230
21
22.724898
0
LINE
8
Layer 1
10
27.372230
20
22.724898
11
27.470350
21
22.702574
0
LINE
8
Layer 1
10
27.470350
20
22.702574
11
27.561460
21
22.628454
0
LINE
8
Layer 1
10
27.561460
20
22.628454
11
27.605980
21
22.539525
0
LINE
8
Layer 1
10
27.605980
20
22.539525
11
27.618700
21
22.414461
0
LINE
8
Layer 1
10
27.618700
20
22.414461
11
27.618700
21
21.525600
0
LINE
8
Layer 1
10
27.618700
20
21.525600
11
27.618700
21
21.525600
0
LINE
8
Layer 1
10
57.476100
20
3.577560
11
57.380430
21
3.596590
0
LINE
8
Layer 1
10
57.380430
20
3.596590
11
57.299320
21
3.650783
0
LINE
8
Layer 1
10
57.299320
20
3.650783
11
57.245130
21
3.731889
0
LINE
8
Layer 1
10
57.245130
20
3.731889
11
57.226100
21
3.827560
0
LINE
8
Layer 1
10
57.226100
20
3.827560
11
57.226100
21
4.327560
0
LINE
8
Layer 1
10
57.226100
20
4.327560
11
57.245130
21
4.423231
0
LINE
8
Layer 1
10
57.245130
20
4.423231
11
57.299320
21
4.504337
0
LINE
8
Layer 1
10
57.299320
20
4.504337
11
57.380430
21
4.558530
0
LINE
8
Layer 1
10
57.380430
20
4.558530
11
57.476100
21
4.577560
0
LINE
8
Layer 1
10
57.476100
20
4.577560
11
58.426100
21
4.577560
0
LINE
8
Layer 1
10
58.426100
20
4.577560
11
58.521770
21
4.558530
0
LINE
8
Layer 1
10
58.521770
20
4.558530
11
58.602880
21
4.504337
0
LINE
8
Layer 1
10
58.602880
20
4.504337
11
58.657070
21
4.423231
0
LINE
8
Layer 1
10
58.657070
20
4.423231
11
58.676100
21
4.327560
0
LINE
8
Layer 1
10
58.676100
20
4.327560
11
58.676100
21
3.827560
0
LINE
8
Layer 1
10
58.676100
20
3.827560
11
58.657070
21
3.731889
0
LINE
8
Layer 1
10
58.657070
20
3.731889
11
58.602880
21
3.650783
0
LINE
8
Layer 1
10
58.602880
20
3.650783
11
58.521770
21
3.596590
0
LINE
8
Layer 1
10
58.521770
20
3.596590
11
58.426100
21
3.577560
0
LINE
8
Layer 1
10
58.426100
20
3.577560
11
57.476100
21
3.577560
0
LINE
8
Layer 1
10
57.476100
20
5.477560
11
57.380430
21
5.496590
0
LINE
8
Layer 1
10
57.380430
20
5.496590
11
57.299320
21
5.550783
0
LINE
8
Layer 1
10
57.299320
20
5.550783
11
57.245130
21
5.631889
0
LINE
8
Layer 1
10
57.245130
20
5.631889
11
57.226100
21
5.727560
0
LINE
8
Layer 1
10
57.226100
20
5.727560
11
57.226100
21
6.227560
0
LINE
8
Layer 1
10
57.226100
20
6.227560
11
57.245130
21
6.323231
0
LINE
8
Layer 1
10
57.245130
20
6.323231
11
57.299320
21
6.404337
0
LINE
8
Layer 1
10
57.299320
20
6.404337
11
57.380430
21
6.458530
0
LINE
8
Layer 1
10
57.380430
20
6.458530
11
57.476100
21
6.477560
0
LINE
8
Layer 1
10
57.476100
20
6.477560
11
58.426100
21
6.477560
0
LINE
8
Layer 1
10
58.426100
20
6.477560
11
58.521770
21
6.458530
0
LINE
8
Layer 1
10
58.521770
20
6.458530
11
58.602880
21
6.404337
0
LINE
8
Layer 1
10
58.602880
20
6.404337
11
58.657070
21
6.323231
0
LINE
8
Layer 1
10
58.657070
20
6.323231
11
58.676100
21
6.227560
0
LINE
8
Layer 1
10
58.676100
20
6.227560
11
58.676100
21
5.727560
0
LINE
8
Layer 1
10
58.676100
20
5.727560
11
58.657070
21
5.631889
0
LINE
8
Layer 1
10
58.657070
20
5.631889
11
58.602880
21
5.550783
0
LINE
8
Layer 1
10
58.602880
20
5.550783
11
58.521770
21
5.496590
0
LINE
8
Layer 1
10
58.521770
20
5.496590
11
58.426100
21
5.477560
0
LINE
8
Layer 1
10
58.426100
20
5.477560
11
57.476100
21
5.477560
0
LINE
8
Layer 1
10
29.518700
20
19.262900
11
29.495670
21
19.161248
0
LINE
8
Layer 1
10
29.495670
20
19.161248
11
29.421560
21
19.070139
0
LINE
8
Layer 1
10
29.421560
20
19.070139
11
29.332620
21
19.025615
0
LINE
8
Layer 1
10
29.332620
20
19.025615
11
29.207560
21
19.012900
0
LINE
8
Layer 1
10
29.207560
20
19.012900
11
28.765170
21
19.013602
0
LINE
8
Layer 1
10
28.765170
20
19.013602
11
28.667050
21
19.035926
0
LINE
8
Layer 1
10
28.667050
20
19.035926
11
28.575940
21
19.110046
0
LINE
8
Layer 1
10
28.575940
20
19.110046
11
28.531420
21
19.198975
0
LINE
8
Layer 1
10
28.531420
20
19.198975
11
28.518700
21
19.324039
0
LINE
8
Layer 1
10
28.518700
20
19.324039
11
28.519400
21
20.216427
0
LINE
8
Layer 1
10
28.519400
20
20.216427
11
28.541730
21
20.314552
0
LINE
8
Layer 1
10
28.541730
20
20.314552
11
28.615840
21
20.405661
0
LINE
8
Layer 1
10
28.615840
20
20.405661
11
28.704780
21
20.450185
0
LINE
8
Layer 1
10
28.704780
20
20.450185
11
28.829840
21
20.462900
0
LINE
8
Layer 1
10
28.829840
20
20.462900
11
29.272230
21
20.462198
0
LINE
8
Layer 1
10
29.272230
20
20.462198
11
29.370350
21
20.439874
0
LINE
8
Layer 1
10
29.370350
20
20.439874
11
29.461460
21
20.365754
0
LINE
8
Layer 1
10
29.461460
20
20.365754
11
29.505980
21
20.276825
0
LINE
8
Layer 1
10
29.505980
20
20.276825
11
29.518700
21
20.151761
0
LINE
8
Layer 1
10
29.518700
20
20.151761
11
29.518700
21
19.262900
0
LINE
8
Layer 1
10
29.518700
20
19.262900
11
29.518700
21
19.262900
0
LINE
8
Layer 1
10
27.618700
20
19.262900
11
27.595670
21
19.161248
0
LINE
8
Layer 1
10
27.595670
20
19.161248
11
27.521560
21
19.070139
0
LINE
8
Layer 1
10
27.521560
20
19.070139
11
27.432620
21
19.025615
0
LINE
8
Layer 1
10
27.432620
20
19.025615
11
27.307560
21
19.012900
0
LINE
8
Layer 1
10
27.307560
20
19.012900
11
26.865170
21
19.013602
0
LINE
8
Layer 1
10
26.865170
20
19.013602
11
26.767050
21
19.035926
0
LINE
8
Layer 1
10
26.767050
20
19.035926
11
26.675940
21
19.110046
0
LINE
8
Layer 1
10
26.675940
20
19.110046
11
26.631420
21
19.198975
0
LINE
8
Layer 1
10
26.631420
20
19.198975
11
26.618700
21
19.324039
0
LINE
8
Layer 1
10
26.618700
20
19.324039
11
26.619400
21
20.216427
0
LINE
8
Layer 1
10
26.619400
20
20.216427
11
26.641730
21
20.314552
0
LINE
8
Layer 1
10
26.641730
20
20.314552
11
26.715840
21
20.405661
0
LINE
8
Layer 1
10
26.715840
20
20.405661
11
26.804780
21
20.450185
0
LINE
8
Layer 1
10
26.804780
20
20.450185
11
26.929840
21
20.462900
0
LINE
8
Layer 1
10
26.929840
20
20.462900
11
27.372230
21
20.462198
0
LINE
8
Layer 1
10
27.372230
20
20.462198
11
27.470350
21
20.439874
0
LINE
8
Layer 1
10
27.470350
20
20.439874
11
27.561460
21
20.365754
0
LINE
8
Layer 1
10
27.561460
20
20.365754
11
27.605980
21
20.276825
0
LINE
8
Layer 1
10
27.605980
20
20.276825
11
27.618700
21
20.151761
0
LINE
8
Layer 1
10
27.618700
20
20.151761
11
27.618700
21
19.262900
0
LINE
8
Layer 1
10
27.618700
20
19.262900
11
27.618700
21
19.262900
0
LINE
8
Layer 1
10
35.366100
20
16.032600
11
35.180150
21
16.119541
0
LINE
8
Layer 1
10
35.180150
20
16.119541
11
35.116100
21
16.480576
0
LINE
8
Layer 1
10
35.116100
20
16.480576
11
35.119320
21
17.088782
0
LINE
8
Layer 1
10
35.119320
20
17.088782
11
35.251050
21
17.290621
0
LINE
8
Layer 1
10
35.251050
20
17.290621
11
35.597070
21
17.322599
0
LINE
8
Layer 1
10
35.597070
20
17.322599
11
36.172280
21
17.319381
0
LINE
8
Layer 1
10
36.172280
20
17.319381
11
36.374120
21
17.187647
0
LINE
8
Layer 1
10
36.374120
20
17.187647
11
36.406100
21
16.841628
0
LINE
8
Layer 1
10
36.406100
20
16.841628
11
36.402880
21
16.266418
0
LINE
8
Layer 1
10
36.402880
20
16.266418
11
36.271150
21
16.064579
0
LINE
8
Layer 1
10
36.271150
20
16.064579
11
35.925130
21
16.032601
0
LINE
8
Layer 1
10
35.925130
20
16.032601
11
35.366100
21
16.032600
0
LINE
8
Layer 1
10
35.366100
20
16.032600
11
35.366100
21
16.032600
0
LINE
8
Layer 1
10
33.766100
20
17.632600
11
33.580150
21
17.719541
0
LINE
8
Layer 1
10
33.580150
20
17.719541
11
33.516100
21
18.080576
0
LINE
8
Layer 1
10
33.516100
20
18.080576
11
33.519320
21
18.688782
0
LINE
8
Layer 1
10
33.519320
20
18.688782
11
33.651050
21
18.890621
0
LINE
8
Layer 1
10
33.651050
20
18.890621
11
33.997070
21
18.922599
0
LINE
8
Layer 1
10
33.997070
20
18.922599
11
34.572280
21
18.919381
0
LINE
8
Layer 1
10
34.572280
20
18.919381
11
34.774120
21
18.787647
0
LINE
8
Layer 1
10
34.774120
20
18.787647
11
34.806100
21
18.441628
0
LINE
8
Layer 1
10
34.806100
20
18.441628
11
34.802880
21
17.866418
0
LINE
8
Layer 1
10
34.802880
20
17.866418
11
34.671150
21
17.664579
0
LINE
8
Layer 1
10
34.671150
20
17.664579
11
34.325130
21
17.632601
0
LINE
8
Layer 1
10
34.325130
20
17.632601
11
33.766100
21
17.632600
0
LINE
8
Layer 1
10
33.766100
20
17.632600
11
33.766100
21
17.632600
0
LINE
8
Layer 1
10
33.766100
20
16.032600
11
33.580150
21
16.119541
0
LINE
8
Layer 1
10
33.580150
20
16.119541
11
33.516100
21
16.480576
0
LINE
8
Layer 1
10
33.516100
20
16.480576
11
33.519320
21
17.088782
0
LINE
8
Layer 1
10
33.519320
20
17.088782
11
33.651050
21
17.290621
0
LINE
8
Layer 1
10
33.651050
20
17.290621
11
33.997070
21
17.322599
0
LINE
8
Layer 1
10
33.997070
20
17.322599
11
34.572280
21
17.319381
0
LINE
8
Layer 1
10
34.572280
20
17.319381
11
34.774120
21
17.187647
0
LINE
8
Layer 1
10
34.774120
20
17.187647
11
34.806100
21
16.841628
0
LINE
8
Layer 1
10
34.806100
20
16.841628
11
34.802880
21
16.266418
0
LINE
8
Layer 1
10
34.802880
20
16.266418
11
34.671150
21
16.064579
0
LINE
8
Layer 1
10
34.671150
20
16.064579
11
34.325130
21
16.032601
0
LINE
8
Layer 1
10
34.325130
20
16.032601
11
33.766100
21
16.032600
0
LINE
8
Layer 1
10
33.766100
20
16.032600
11
33.766100
21
16.032600
0
LINE
8
Layer 1
10
35.366100
20
17.632600
11
35.180150
21
17.719541
0
LINE
8
Layer 1
10
35.180150
20
17.719541
11
35.116100
21
18.080576
0
LINE
8
Layer 1
10
35.116100
20
18.080576
11
35.119320
21
18.688782
0
LINE
8
Layer 1
10
35.119320
20
18.688782
11
35.251050
21
18.890621
0
LINE
8
Layer 1
10
35.251050
20
18.890621
11
35.597070
21
18.922599
0
LINE
8
Layer 1
10
35.597070
20
18.922599
11
36.172280
21
18.919381
0
LINE
8
Layer 1
10
36.172280
20
18.919381
11
36.374120
21
18.787647
0
LINE
8
Layer 1
10
36.374120
20
18.787647
11
36.406100
21
18.441628
0
LINE
8
Layer 1
10
36.406100
20
18.441628
11
36.402880
21
17.866418
0
LINE
8
Layer 1
10
36.402880
20
17.866418
11
36.271150
21
17.664579
0
LINE
8
Layer 1
10
36.271150
20
17.664579
11
35.925130
21
17.632601
0
LINE
8
Layer 1
10
35.925130
20
17.632601
11
35.366100
21
17.632600
0
LINE
8
Layer 1
10
35.366100
20
17.632600
11
35.366100
21
17.632600
0
LINE
8
Layer 1
10
37.511100
20
13.602600
11
37.461100
21
13.784620
0
LINE
8
Layer 1
10
37.461100
20
13.784620
11
37.464910
21
14.446734
0
LINE
8
Layer 1
10
37.464910
20
14.446734
11
37.639380
21
14.467684
0
LINE
8
Layer 1
10
37.639380
20
14.467684
11
37.661100
21
14.251574
0
LINE
8
Layer 1
10
37.661100
20
14.251574
11
37.657290
21
13.633466
0
LINE
8
Layer 1
10
37.657290
20
13.633466
11
37.511100
21
13.602600
0
LINE
8
Layer 1
10
37.511100
20
13.602600
11
37.511100
21
13.602600
0
LINE
8
Layer 1
10
37.111100
20
13.602600
11
37.061100
21
13.784620
0
LINE
8
Layer 1
10
37.061100
20
13.784620
11
37.064910
21
14.446734
0
LINE
8
Layer 1
10
37.064910
20
14.446734
11
37.239380
21
14.467684
0
LINE
8
Layer 1
10
37.239380
20
14.467684
11
37.261100
21
14.251574
0
LINE
8
Layer 1
10
37.261100
20
14.251574
11
37.257290
21
13.633466
0
LINE
8
Layer 1
10
37.257290
20
13.633466
11
37.111100
21
13.602600
0
LINE
8
Layer 1
10
37.111100
20
13.602600
11
37.111100
21
13.602600
0
LINE
8
Layer 1
10
36.711100
20
13.602600
11
36.661100
21
13.784620
0
LINE
8
Layer 1
10
36.661100
20
13.784620
11
36.664910
21
14.446734
0
LINE
8
Layer 1
10
36.664910
20
14.446734
11
36.839380
21
14.467684
0
LINE
8
Layer 1
10
36.839380
20
14.467684
11
36.861100
21
14.251574
0
LINE
8
Layer 1
10
36.861100
20
14.251574
11
36.857290
21
13.633466
0
LINE
8
Layer 1
10
36.857290
20
13.633466
11
36.711100
21
13.602600
0
LINE
8
Layer 1
10
36.711100
20
13.602600
11
36.711100
21
13.602600
0
LINE
8
Layer 1
10
36.311100
20
13.602600
11
36.261100
21
13.784620
0
LINE
8
Layer 1
10
36.261100
20
13.784620
11
36.264910
21
14.446734
0
LINE
8
Layer 1
10
36.264910
20
14.446734
11
36.439380
21
14.467684
0
LINE
8
Layer 1
10
36.439380
20
14.467684
11
36.461100
21
14.251574
0
LINE
8
Layer 1
10
36.461100
20
14.251574
11
36.457290
21
13.633466
0
LINE
8
Layer 1
10
36.457290
20
13.633466
11
36.311100
21
13.602600
0
LINE
8
Layer 1
10
36.311100
20
13.602600
11
36.311100
21
13.602600
0
LINE
8
Layer 1
10
35.911100
20
13.602600
11
35.861100
21
13.784620
0
LINE
8
Layer 1
10
35.861100
20
13.784620
11
35.864910
21
14.446734
0
LINE
8
Layer 1
10
35.864910
20
14.446734
11
36.039380
21
14.467684
0
LINE
8
Layer 1
10
36.039380
20
14.467684
11
36.061100
21
14.251574
0
LINE
8
Layer 1
10
36.061100
20
14.251574
11
36.057290
21
13.633466
0
LINE
8
Layer 1
10
36.057290
20
13.633466
11
35.911100
21
13.602600
0
LINE
8
Layer 1
10
35.911100
20
13.602600
11
35.911100
21
13.602600
0
LINE
8
Layer 1
10
35.511100
20
13.602600
11
35.461100
21
13.784620
0
LINE
8
Layer 1
10
35.461100
20
13.784620
11
35.464910
21
14.446734
0
LINE
8
Layer 1
10
35.464910
20
14.446734
11
35.639380
21
14.467684
0
LINE
8
Layer 1
10
35.639380
20
14.467684
11
35.661100
21
14.251574
0
LINE
8
Layer 1
10
35.661100
20
14.251574
11
35.657290
21
13.633466
0
LINE
8
Layer 1
10
35.657290
20
13.633466
11
35.511100
21
13.602600
0
LINE
8
Layer 1
10
35.511100
20
13.602600
11
35.511100
21
13.602600
0
LINE
8
Layer 1
10
35.111100
20
13.602600
11
35.061100
21
13.784620
0
LINE
8
Layer 1
10
35.061100
20
13.784620
11
35.064910
21
14.446734
0
LINE
8
Layer 1
10
35.064910
20
14.446734
11
35.239380
21
14.467684
0
LINE
8
Layer 1
10
35.239380
20
14.467684
11
35.261100
21
14.251574
0
LINE
8
Layer 1
10
35.261100
20
14.251574
11
35.257290
21
13.633466
0
LINE
8
Layer 1
10
35.257290
20
13.633466
11
35.111100
21
13.602600
0
LINE
8
Layer 1
10
35.111100
20
13.602600
11
35.111100
21
13.602600
0
LINE
8
Layer 1
10
34.711100
20
13.602600
11
34.661100
21
13.784620
0
LINE
8
Layer 1
10
34.661100
20
13.784620
11
34.664910
21
14.446734
0
LINE
8
Layer 1
10
34.664910
20
14.446734
11
34.839380
21
14.467684
0
LINE
8
Layer 1
10
34.839380
20
14.467684
11
34.861100
21
14.251574
0
LINE
8
Layer 1
10
34.861100
20
14.251574
11
34.857290
21
13.633466
0
LINE
8
Layer 1
10
34.857290
20
13.633466
11
34.711100
21
13.602600
0
LINE
8
Layer 1
10
34.711100
20
13.602600
11
34.711100
21
13.602600
0
LINE
8
Layer 1
10
34.311100
20
13.602600
11
34.261100
21
13.784620
0
LINE
8
Layer 1
10
34.261100
20
13.784620
11
34.264910
21
14.446734
0
LINE
8
Layer 1
10
34.264910
20
14.446734
11
34.439380
21
14.467684
0
LINE
8
Layer 1
10
34.439380
20
14.467684
11
34.461100
21
14.251574
0
LINE
8
Layer 1
10
34.461100
20
14.251574
11
34.457290
21
13.633466
0
LINE
8
Layer 1
10
34.457290
20
13.633466
11
34.311100
21
13.602600
0
LINE
8
Layer 1
10
34.311100
20
13.602600
11
34.311100
21
13.602600
0
LINE
8
Layer 1
10
33.911100
20
13.602600
11
33.861100
21
13.784620
0
LINE
8
Layer 1
10
33.861100
20
13.784620
11
33.864910
21
14.446734
0
LINE
8
Layer 1
10
33.864910
20
14.446734
11
34.039380
21
14.467684
0
LINE
8
Layer 1
10
34.039380
20
14.467684
11
34.061100
21
14.251574
0
LINE
8
Layer 1
10
34.061100
20
14.251574
11
34.057290
21
13.633466
0
LINE
8
Layer 1
10
34.057290
20
13.633466
11
33.911100
21
13.602600
0
LINE
8
Layer 1
10
33.911100
20
13.602600
11
33.911100
21
13.602600
0
LINE
8
Layer 1
10
33.511100
20
13.602600
11
33.461100
21
13.784620
0
LINE
8
Layer 1
10
33.461100
20
13.784620
11
33.464910
21
14.446734
0
LINE
8
Layer 1
10
33.464910
20
14.446734
11
33.639380
21
14.467684
0
LINE
8
Layer 1
10
33.639380
20
14.467684
11
33.661100
21
14.251574
0
LINE
8
Layer 1
10
33.661100
20
14.251574
11
33.657290
21
13.633466
0
LINE
8
Layer 1
10
33.657290
20
13.633466
11
33.511100
21
13.602600
0
LINE
8
Layer 1
10
33.511100
20
13.602600
11
33.511100
21
13.602600
0
LINE
8
Layer 1
10
33.111100
20
13.602600
11
33.061100
21
13.784620
0
LINE
8
Layer 1
10
33.061100
20
13.784620
11
33.064910
21
14.446734
0
LINE
8
Layer 1
10
33.064910
20
14.446734
11
33.239380
21
14.467684
0
LINE
8
Layer 1
10
33.239380
20
14.467684
11
33.261100
21
14.251574
0
LINE
8
Layer 1
10
33.261100
20
14.251574
11
33.257290
21
13.633466
0
LINE
8
Layer 1
10
33.257290
20
13.633466
11
33.111100
21
13.602600
0
LINE
8
Layer 1
10
33.111100
20
13.602600
11
33.111100
21
13.602600
0
LINE
8
Layer 1
10
32.711100
20
13.602600
11
32.661100
21
13.784620
0
LINE
8
Layer 1
10
32.661100
20
13.784620
11
32.664910
21
14.446734
0
LINE
8
Layer 1
10
32.664910
20
14.446734
11
32.839380
21
14.467684
0
LINE
8
Layer 1
10
32.839380
20
14.467684
11
32.861100
21
14.251574
0
LINE
8
Layer 1
10
32.861100
20
14.251574
11
32.857290
21
13.633466
0
LINE
8
Layer 1
10
32.857290
20
13.633466
11
32.711100
21
13.602600
0
LINE
8
Layer 1
10
32.711100
20
13.602600
11
32.711100
21
13.602600
0
LINE
8
Layer 1
10
32.311100
20
13.602600
11
32.261100
21
13.784620
0
LINE
8
Layer 1
10
32.261100
20
13.784620
11
32.264910
21
14.446734
0
LINE
8
Layer 1
10
32.264910
20
14.446734
11
32.439380
21
14.467684
0
LINE
8
Layer 1
10
32.439380
20
14.467684
11
32.461100
21
14.251574
0
LINE
8
Layer 1
10
32.461100
20
14.251574
11
32.457290
21
13.633466
0
LINE
8
Layer 1
10
32.457290
20
13.633466
11
32.311100
21
13.602600
0
LINE
8
Layer 1
10
32.311100
20
13.602600
11
32.311100
21
13.602600
0
LINE
8
Layer 1
10
31.136100
20
14.777600
11
31.089910
21
14.946734
0
LINE
8
Layer 1
10
31.089910
20
14.946734
11
31.290120
21
14.977600
0
LINE
8
Layer 1
10
31.290120
20
14.977600
11
31.930230
21
14.973794
0
LINE
8
Layer 1
10
31.930230
20
14.973794
11
31.951180
21
14.799316
0
LINE
8
Layer 1
10
31.951180
20
14.799316
11
31.735070
21
14.777600
0
LINE
8
Layer 1
10
31.735070
20
14.777600
11
31.136100
21
14.777600
0
LINE
8
Layer 1
10
31.136100
20
14.777600
11
31.136100
21
14.777600
0
LINE
8
Layer 1
10
31.136100
20
15.177600
11
31.089910
21
15.346734
0
LINE
8
Layer 1
10
31.089910
20
15.346734
11
31.290120
21
15.377600
0
LINE
8
Layer 1
10
31.290120
20
15.377600
11
31.930230
21
15.373794
0
LINE
8
Layer 1
10
31.930230
20
15.373794
11
31.951180
21
15.199316
0
LINE
8
Layer 1
10
31.951180
20
15.199316
11
31.735070
21
15.177600
0
LINE
8
Layer 1
10
31.735070
20
15.177600
11
31.136100
21
15.177600
0
LINE
8
Layer 1
10
31.136100
20
15.177600
11
31.136100
21
15.177600
0
LINE
8
Layer 1
10
31.136100
20
15.577600
11
31.089910
21
15.746734
0
LINE
8
Layer 1
10
31.089910
20
15.746734
11
31.290120
21
15.777600
0
LINE
8
Layer 1
10
31.290120
20
15.777600
11
31.930230
21
15.773794
0
LINE
8
Layer 1
10
31.930230
20
15.773794
11
31.951180
21
15.599316
0
LINE
8
Layer 1
10
31.951180
20
15.599316
11
31.735070
21
15.577600
0
LINE
8
Layer 1
10
31.735070
20
15.577600
11
31.136100
21
15.577600
0
LINE
8
Layer 1
10
31.136100
20
15.577600
11
31.136100
21
15.577600
0
LINE
8
Layer 1
10
31.136100
20
15.977600
11
31.089910
21
16.146734
0
LINE
8
Layer 1
10
31.089910
20
16.146734
11
31.290120
21
16.177600
0
LINE
8
Layer 1
10
31.290120
20
16.177600
11
31.930230
21
16.173794
0
LINE
8
Layer 1
10
31.930230
20
16.173794
11
31.951180
21
15.999316
0
LINE
8
Layer 1
10
31.951180
20
15.999316
11
31.735070
21
15.977600
0
LINE
8
Layer 1
10
31.735070
20
15.977600
11
31.136100
21
15.977600
0
LINE
8
Layer 1
10
31.136100
20
15.977600
11
31.136100
21
15.977600
0
LINE
8
Layer 1
10
31.136100
20
16.377600
11
31.089910
21
16.546734
0
LINE
8
Layer 1
10
31.089910
20
16.546734
11
31.290120
21
16.577600
0
LINE
8
Layer 1
10
31.290120
20
16.577600
11
31.930230
21
16.573794
0
LINE
8
Layer 1
10
31.930230
20
16.573794
11
31.951180
21
16.399316
0
LINE
8
Layer 1
10
31.951180
20
16.399316
11
31.735070
21
16.377600
0
LINE
8
Layer 1
10
31.735070
20
16.377600
11
31.136100
21
16.377600
0
LINE
8
Layer 1
10
31.136100
20
16.377600
11
31.136100
21
16.377600
0
LINE
8
Layer 1
10
31.136100
20
16.777600
11
31.089910
21
16.946734
0
LINE
8
Layer 1
10
31.089910
20
16.946734
11
31.290120
21
16.977600
0
LINE
8
Layer 1
10
31.290120
20
16.977600
11
31.930230
21
16.973794
0
LINE
8
Layer 1
10
31.930230
20
16.973794
11
31.951180
21
16.799316
0
LINE
8
Layer 1
10
31.951180
20
16.799316
11
31.735070
21
16.777600
0
LINE
8
Layer 1
10
31.735070
20
16.777600
11
31.136100
21
16.777600
0
LINE
8
Layer 1
10
31.136100
20
16.777600
11
31.136100
21
16.777600
0
LINE
8
Layer 1
10
31.136100
20
17.177600
11
31.089910
21
17.346734
0
LINE
8
Layer 1
10
31.089910
20
17.346734
11
31.290120
21
17.377600
0
LINE
8
Layer 1
10
31.290120
20
17.377600
11
31.930230
21
17.373794
0
LINE
8
Layer 1
10
31.930230
20
17.373794
11
31.951180
21
17.199316
0
LINE
8
Layer 1
10
31.951180
20
17.199316
11
31.735070
21
17.177600
0
LINE
8
Layer 1
10
31.735070
20
17.177600
11
31.136100
21
17.177600
0
LINE
8
Layer 1
10
31.136100
20
17.177600
11
31.136100
21
17.177600
0
LINE
8
Layer 1
10
31.136100
20
17.577600
11
31.089910
21
17.746734
0
LINE
8
Layer 1
10
31.089910
20
17.746734
11
31.290120
21
17.777600
0
LINE
8
Layer 1
10
31.290120
20
17.777600
11
31.930230
21
17.773794
0
LINE
8
Layer 1
10
31.930230
20
17.773794
11
31.951180
21
17.599316
0
LINE
8
Layer 1
10
31.951180
20
17.599316
11
31.735070
21
17.577600
0
LINE
8
Layer 1
10
31.735070
20
17.577600
11
31.136100
21
17.577600
0
LINE
8
Layer 1
10
31.136100
20
17.577600
11
31.136100
21
17.577600
0
LINE
8
Layer 1
10
31.136100
20
17.977600
11
31.089910
21
18.146734
0
LINE
8
Layer 1
10
31.089910
20
18.146734
11
31.290120
21
18.177600
0
LINE
8
Layer 1
10
31.290120
20
18.177600
11
31.930230
21
18.173794
0
LINE
8
Layer 1
10
31.930230
20
18.173794
11
31.951180
21
17.999316
0
LINE
8
Layer 1
10
31.951180
20
17.999316
11
31.735070
21
17.977600
0
LINE
8
Layer 1
10
31.735070
20
17.977600
11
31.136100
21
17.977600
0
LINE
8
Layer 1
10
31.136100
20
17.977600
11
31.136100
21
17.977600
0
LINE
8
Layer 1
10
31.136100
20
18.377600
11
31.089910
21
18.546734
0
LINE
8
Layer 1
10
31.089910
20
18.546734
11
31.290120
21
18.577600
0
LINE
8
Layer 1
10
31.290120
20
18.577600
11
31.930230
21
18.573794
0
LINE
8
Layer 1
10
31.930230
20
18.573794
11
31.951180
21
18.399316
0
LINE
8
Layer 1
10
31.951180
20
18.399316
11
31.735070
21
18.377600
0
LINE
8
Layer 1
10
31.735070
20
18.377600
11
31.136100
21
18.377600
0
LINE
8
Layer 1
10
31.136100
20
18.377600
11
31.136100
21
18.377600
0
LINE
8
Layer 1
10
31.136100
20
18.777600
11
31.089910
21
18.946734
0
LINE
8
Layer 1
10
31.089910
20
18.946734
11
31.290120
21
18.977600
0
LINE
8
Layer 1
10
31.290120
20
18.977600
11
31.930230
21
18.973794
0
LINE
8
Layer 1
10
31.930230
20
18.973794
11
31.951180
21
18.799316
0
LINE
8
Layer 1
10
31.951180
20
18.799316
11
31.735070
21
18.777600
0
LINE
8
Layer 1
10
31.735070
20
18.777600
11
31.136100
21
18.777600
0
LINE
8
Layer 1
10
31.136100
20
18.777600
11
31.136100
21
18.777600
0
LINE
8
Layer 1
10
31.136100
20
19.177600
11
31.089910
21
19.346734
0
LINE
8
Layer 1
10
31.089910
20
19.346734
11
31.290120
21
19.377600
0
LINE
8
Layer 1
10
31.290120
20
19.377600
11
31.930230
21
19.373794
0
LINE
8
Layer 1
10
31.930230
20
19.373794
11
31.951180
21
19.199316
0
LINE
8
Layer 1
10
31.951180
20
19.199316
11
31.735070
21
19.177600
0
LINE
8
Layer 1
10
31.735070
20
19.177600
11
31.136100
21
19.177600
0
LINE
8
Layer 1
10
31.136100
20
19.177600
11
31.136100
21
19.177600
0
LINE
8
Layer 1
10
31.136100
20
19.577600
11
31.089910
21
19.746734
0
LINE
8
Layer 1
10
31.089910
20
19.746734
11
31.290120
21
19.777600
0
LINE
8
Layer 1
10
31.290120
20
19.777600
11
31.930230
21
19.773794
0
LINE
8
Layer 1
10
31.930230
20
19.773794
11
31.951180
21
19.599316
0
LINE
8
Layer 1
10
31.951180
20
19.599316
11
31.735070
21
19.577600
0
LINE
8
Layer 1
10
31.735070
20
19.577600
11
31.136100
21
19.577600
0
LINE
8
Layer 1
10
31.136100
20
19.577600
11
31.136100
21
19.577600
0
LINE
8
Layer 1
10
31.136100
20
19.977600
11
31.089910
21
20.146734
0
LINE
8
Layer 1
10
31.089910
20
20.146734
11
31.290120
21
20.177600
0
LINE
8
Layer 1
10
31.290120
20
20.177600
11
31.930230
21
20.173794
0
LINE
8
Layer 1
10
31.930230
20
20.173794
11
31.951180
21
19.999316
0
LINE
8
Layer 1
10
31.951180
20
19.999316
11
31.735070
21
19.977600
0
LINE
8
Layer 1
10
31.735070
20
19.977600
11
31.136100
21
19.977600
0
LINE
8
Layer 1
10
31.136100
20
19.977600
11
31.136100
21
19.977600
0
LINE
8
Layer 1
10
32.311100
20
20.477600
11
32.261100
21
20.659620
0
LINE
8
Layer 1
10
32.261100
20
20.659620
11
32.264910
21
21.321734
0
LINE
8
Layer 1
10
32.264910
20
21.321734
11
32.439380
21
21.342684
0
LINE
8
Layer 1
10
32.439380
20
21.342684
11
32.461100
21
21.126574
0
LINE
8
Layer 1
10
32.461100
20
21.126574
11
32.457290
21
20.508466
0
LINE
8
Layer 1
10
32.457290
20
20.508466
11
32.311100
21
20.477600
0
LINE
8
Layer 1
10
32.311100
20
20.477600
11
32.311100
21
20.477600
0
LINE
8
Layer 1
10
32.711100
20
20.477600
11
32.661100
21
20.659620
0
LINE
8
Layer 1
10
32.661100
20
20.659620
11
32.664910
21
21.321734
0
LINE
8
Layer 1
10
32.664910
20
21.321734
11
32.839380
21
21.342684
0
LINE
8
Layer 1
10
32.839380
20
21.342684
11
32.861100
21
21.126574
0
LINE
8
Layer 1
10
32.861100
20
21.126574
11
32.857290
21
20.508466
0
LINE
8
Layer 1
10
32.857290
20
20.508466
11
32.711100
21
20.477600
0
LINE
8
Layer 1
10
32.711100
20
20.477600
11
32.711100
21
20.477600
0
LINE
8
Layer 1
10
33.111100
20
20.477600
11
33.061100
21
20.659620
0
LINE
8
Layer 1
10
33.061100
20
20.659620
11
33.064910
21
21.321734
0
LINE
8
Layer 1
10
33.064910
20
21.321734
11
33.239380
21
21.342684
0
LINE
8
Layer 1
10
33.239380
20
21.342684
11
33.261100
21
21.126574
0
LINE
8
Layer 1
10
33.261100
20
21.126574
11
33.257290
21
20.508466
0
LINE
8
Layer 1
10
33.257290
20
20.508466
11
33.111100
21
20.477600
0
LINE
8
Layer 1
10
33.111100
20
20.477600
11
33.111100
21
20.477600
0
LINE
8
Layer 1
10
33.511100
20
20.477600
11
33.461100
21
20.659620
0
LINE
8
Layer 1
10
33.461100
20
20.659620
11
33.464910
21
21.321734
0
LINE
8
Layer 1
10
33.464910
20
21.321734
11
33.639380
21
21.342684
0
LINE
8
Layer 1
10
33.639380
20
21.342684
11
33.661100
21
21.126574
0
LINE
8
Layer 1
10
33.661100
20
21.126574
11
33.657290
21
20.508466
0
LINE
8
Layer 1
10
33.657290
20
20.508466
11
33.511100
21
20.477600
0
LINE
8
Layer 1
10
33.511100
20
20.477600
11
33.511100
21
20.477600
0
LINE
8
Layer 1
10
33.911100
20
20.477600
11
33.861100
21
20.659620
0
LINE
8
Layer 1
10
33.861100
20
20.659620
11
33.864910
21
21.321734
0
LINE
8
Layer 1
10
33.864910
20
21.321734
11
34.039380
21
21.342684
0
LINE
8
Layer 1
10
34.039380
20
21.342684
11
34.061100
21
21.126574
0
LINE
8
Layer 1
10
34.061100
20
21.126574
11
34.057290
21
20.508466
0
LINE
8
Layer 1
10
34.057290
20
20.508466
11
33.911100
21
20.477600
0
LINE
8
Layer 1
10
33.911100
20
20.477600
11
33.911100
21
20.477600
0
LINE
8
Layer 1
10
34.311100
20
20.477600
11
34.261100
21
20.659620
0
LINE
8
Layer 1
10
34.261100
20
20.659620
11
34.264910
21
21.321734
0
LINE
8
Layer 1
10
34.264910
20
21.321734
11
34.439380
21
21.342684
0
LINE
8
Layer 1
10
34.439380
20
21.342684
11
34.461100
21
21.126574
0
LINE
8
Layer 1
10
34.461100
20
21.126574
11
34.457290
21
20.508466
0
LINE
8
Layer 1
10
34.457290
20
20.508466
11
34.311100
21
20.477600
0
LINE
8
Layer 1
10
34.311100
20
20.477600
11
34.311100
21
20.477600
0
LINE
8
Layer 1
10
34.711100
20
20.477600
11
34.661100
21
20.659620
0
LINE
8
Layer 1
10
34.661100
20
20.659620
11
34.664910
21
21.321734
0
LINE
8
Layer 1
10
34.664910
20
21.321734
11
34.839380
21
21.342684
0
LINE
8
Layer 1
10
34.839380
20
21.342684
11
34.861100
21
21.126574
0
LINE
8
Layer 1
10
34.861100
20
21.126574
11
34.857290
21
20.508466
0
LINE
8
Layer 1
10
34.857290
20
20.508466
11
34.711100
21
20.477600
0
LINE
8
Layer 1
10
34.711100
20
20.477600
11
34.711100
21
20.477600
0
LINE
8
Layer 1
10
35.111100
20
20.477600
11
35.061100
21
20.659620
0
LINE
8
Layer 1
10
35.061100
20
20.659620
11
35.064910
21
21.321734
0
LINE
8
Layer 1
10
35.064910
20
21.321734
11
35.239380
21
21.342684
0
LINE
8
Layer 1
10
35.239380
20
21.342684
11
35.261100
21
21.126574
0
LINE
8
Layer 1
10
35.261100
20
21.126574
11
35.257290
21
20.508466
0
LINE
8
Layer 1
10
35.257290
20
20.508466
11
35.111100
21
20.477600
0
LINE
8
Layer 1
10
35.111100
20
20.477600
11
35.111100
21
20.477600
0
LINE
8
Layer 1
10
35.511100
20
20.477600
11
35.461100
21
20.659620
0
LINE
8
Layer 1
10
35.461100
20
20.659620
11
35.464910
21
21.321734
0
LINE
8
Layer 1
10
35.464910
20
21.321734
11
35.639380
21
21.342684
0
LINE
8
Layer 1
10
35.639380
20
21.342684
11
35.661100
21
21.126574
0
LINE
8
Layer 1
10
35.661100
20
21.126574
11
35.657290
21
20.508466
0
LINE
8
Layer 1
10
35.657290
20
20.508466
11
35.511100
21
20.477600
0
LINE
8
Layer 1
10
35.511100
20
20.477600
11
35.511100
21
20.477600
0
LINE
8
Layer 1
10
35.911100
20
20.477600
11
35.861100
21
20.659620
0
LINE
8
Layer 1
10
35.861100
20
20.659620
11
35.864910
21
21.321734
0
LINE
8
Layer 1
10
35.864910
20
21.321734
11
36.039380
21
21.342684
0
LINE
8
Layer 1
10
36.039380
20
21.342684
11
36.061100
21
21.126574
0
LINE
8
Layer 1
10
36.061100
20
21.126574
11
36.057290
21
20.508466
0
LINE
8
Layer 1
10
36.057290
20
20.508466
11
35.911100
21
20.477600
0
LINE
8
Layer 1
10
35.911100
20
20.477600
11
35.911100
21
20.477600
0
LINE
8
Layer 1
10
36.311100
20
20.477600
11
36.261100
21
20.659620
0
LINE
8
Layer 1
10
36.261100
20
20.659620
11
36.264910
21
21.321734
0
LINE
8
Layer 1
10
36.264910
20
21.321734
11
36.439380
21
21.342684
0
LINE
8
Layer 1
10
36.439380
20
21.342684
11
36.461100
21
21.126574
0
LINE
8
Layer 1
10
36.461100
20
21.126574
11
36.457290
21
20.508466
0
LINE
8
Layer 1
10
36.457290
20
20.508466
11
36.311100
21
20.477600
0
LINE
8
Layer 1
10
36.311100
20
20.477600
11
36.311100
21
20.477600
0
LINE
8
Layer 1
10
36.711100
20
20.477600
11
36.661100
21
20.659620
0
LINE
8
Layer 1
10
36.661100
20
20.659620
11
36.664910
21
21.321734
0
LINE
8
Layer 1
10
36.664910
20
21.321734
11
36.839380
21
21.342684
0
LINE
8
Layer 1
10
36.839380
20
21.342684
11
36.861100
21
21.126574
0
LINE
8
Layer 1
10
36.861100
20
21.126574
11
36.857290
21
20.508466
0
LINE
8
Layer 1
10
36.857290
20
20.508466
11
36.711100
21
20.477600
0
LINE
8
Layer 1
10
36.711100
20
20.477600
11
36.711100
21
20.477600
0
LINE
8
Layer 1
10
37.111100
20
20.477600
11
37.061100
21
20.659620
0
LINE
8
Layer 1
10
37.061100
20
20.659620
11
37.064910
21
21.321734
0
LINE
8
Layer 1
10
37.064910
20
21.321734
11
37.239380
21
21.342684
0
LINE
8
Layer 1
10
37.239380
20
21.342684
11
37.261100
21
21.126574
0
LINE
8
Layer 1
10
37.261100
20
21.126574
11
37.257290
21
20.508466
0
LINE
8
Layer 1
10
37.257290
20
20.508466
11
37.111100
21
20.477600
0
LINE
8
Layer 1
10
37.111100
20
20.477600
11
37.111100
21
20.477600
0
LINE
8
Layer 1
10
37.511100
20
20.477600
11
37.461100
21
20.659620
0
LINE
8
Layer 1
10
37.461100
20
20.659620
11
37.464910
21
21.321734
0
LINE
8
Layer 1
10
37.464910
20
21.321734
11
37.639380
21
21.342684
0
LINE
8
Layer 1
10
37.639380
20
21.342684
11
37.661100
21
21.126574
0
LINE
8
Layer 1
10
37.661100
20
21.126574
11
37.657290
21
20.508466
0
LINE
8
Layer 1
10
37.657290
20
20.508466
11
37.511100
21
20.477600
0
LINE
8
Layer 1
10
37.511100
20
20.477600
11
37.511100
21
20.477600
0
LINE
8
Layer 1
10
38.011100
20
19.977600
11
37.961100
21
20.044474
0
LINE
8
Layer 1
10
37.961100
20
20.044474
11
37.968660
21
20.152346
0
LINE
8
Layer 1
10
37.968660
20
20.152346
11
38.075220
21
20.177600
0
LINE
8
Layer 1
10
38.075220
20
20.177600
11
38.789410
21
20.176941
0
LINE
8
Layer 1
10
38.789410
20
20.176941
11
38.836100
21
20.107351
0
LINE
8
Layer 1
10
38.836100
20
20.107351
11
38.828540
21
20.002852
0
LINE
8
Layer 1
10
38.828540
20
20.002852
11
38.721980
21
19.977600
0
LINE
8
Layer 1
10
38.721980
20
19.977600
11
38.011100
21
19.977600
0
LINE
8
Layer 1
10
38.011100
20
19.977600
11
38.011100
21
19.977600
0
LINE
8
Layer 1
10
38.011100
20
19.577600
11
37.961100
21
19.644474
0
LINE
8
Layer 1
10
37.961100
20
19.644474
11
37.968660
21
19.752346
0
LINE
8
Layer 1
10
37.968660
20
19.752346
11
38.075220
21
19.777600
0
LINE
8
Layer 1
10
38.075220
20
19.777600
11
38.789410
21
19.776941
0
LINE
8
Layer 1
10
38.789410
20
19.776941
11
38.836100
21
19.707351
0
LINE
8
Layer 1
10
38.836100
20
19.707351
11
38.828540
21
19.602852
0
LINE
8
Layer 1
10
38.828540
20
19.602852
11
38.721980
21
19.577600
0
LINE
8
Layer 1
10
38.721980
20
19.577600
11
38.011100
21
19.577600
0
LINE
8
Layer 1
10
38.011100
20
19.577600
11
38.011100
21
19.577600
0
LINE
8
Layer 1
10
38.011100
20
19.177600
11
37.961100
21
19.244474
0
LINE
8
Layer 1
10
37.961100
20
19.244474
11
37.968660
21
19.352346
0
LINE
8
Layer 1
10
37.968660
20
19.352346
11
38.075220
21
19.377600
0
LINE
8
Layer 1
10
38.075220
20
19.377600
11
38.789410
21
19.376941
0
LINE
8
Layer 1
10
38.789410
20
19.376941
11
38.836100
21
19.307351
0
LINE
8
Layer 1
10
38.836100
20
19.307351
11
38.828540
21
19.202852
0
LINE
8
Layer 1
10
38.828540
20
19.202852
11
38.721980
21
19.177600
0
LINE
8
Layer 1
10
38.721980
20
19.177600
11
38.011100
21
19.177600
0
LINE
8
Layer 1
10
38.011100
20
19.177600
11
38.011100
21
19.177600
0
LINE
8
Layer 1
10
38.011100
20
18.777600
11
37.961100
21
18.844474
0
LINE
8
Layer 1
10
37.961100
20
18.844474
11
37.968660
21
18.952346
0
LINE
8
Layer 1
10
37.968660
20
18.952346
11
38.075220
21
18.977600
0
LINE
8
Layer 1
10
38.075220
20
18.977600
11
38.789410
21
18.976941
0
LINE
8
Layer 1
10
38.789410
20
18.976941
11
38.836100
21
18.907351
0
LINE
8
Layer 1
10
38.836100
20
18.907351
11
38.828540
21
18.802852
0
LINE
8
Layer 1
10
38.828540
20
18.802852
11
38.721980
21
18.777600
0
LINE
8
Layer 1
10
38.721980
20
18.777600
11
38.011100
21
18.777600
0
LINE
8
Layer 1
10
38.011100
20
18.777600
11
38.011100
21
18.777600
0
LINE
8
Layer 1
10
38.011100
20
18.377600
11
37.991970
21
18.381406
0
LINE
8
Layer 1
10
37.991970
20
18.381406
11
37.975750
21
18.392245
0
LINE
8
Layer 1
10
37.975750
20
18.392245
11
37.964910
21
18.408466
0
LINE
8
Layer 1
10
37.964910
20
18.408466
11
37.961100
21
18.427600
0
LINE
8
Layer 1
10
37.961100
20
18.427600
11
37.961100
21
18.527600
0
LINE
8
Layer 1
10
37.961100
20
18.527600
11
37.964910
21
18.546734
0
LINE
8
Layer 1
10
37.964910
20
18.546734
11
37.975750
21
18.562955
0
LINE
8
Layer 1
10
37.975750
20
18.562955
11
37.991970
21
18.573794
0
LINE
8
Layer 1
10
37.991970
20
18.573794
11
38.011100
21
18.577600
0
LINE
8
Layer 1
10
38.011100
20
18.577600
11
38.786100
21
18.577600
0
LINE
8
Layer 1
10
38.786100
20
18.577600
11
38.805230
21
18.573794
0
LINE
8
Layer 1
10
38.805230
20
18.573794
11
38.821460
21
18.562955
0
LINE
8
Layer 1
10
38.821460
20
18.562955
11
38.832290
21
18.546734
0
LINE
8
Layer 1
10
38.832290
20
18.546734
11
38.836100
21
18.527600
0
LINE
8
Layer 1
10
38.836100
20
18.527600
11
38.836100
21
18.427600
0
LINE
8
Layer 1
10
38.836100
20
18.427600
11
38.832290
21
18.408466
0
LINE
8
Layer 1
10
38.832290
20
18.408466
11
38.821460
21
18.392245
0
LINE
8
Layer 1
10
38.821460
20
18.392245
11
38.805230
21
18.381406
0
LINE
8
Layer 1
10
38.805230
20
18.381406
11
38.786100
21
18.377600
0
LINE
8
Layer 1
10
38.786100
20
18.377600
11
38.011100
21
18.377600
0
LINE
8
Layer 1
10
38.011100
20
17.977600
11
37.991970
21
17.981406
0
LINE
8
Layer 1
10
37.991970
20
17.981406
11
37.975750
21
17.992245
0
LINE
8
Layer 1
10
37.975750
20
17.992245
11
37.964910
21
18.008466
0
LINE
8
Layer 1
10
37.964910
20
18.008466
11
37.961100
21
18.027600
0
LINE
8
Layer 1
10
37.961100
20
18.027600
11
37.961100
21
18.127600
0
LINE
8
Layer 1
10
37.961100
20
18.127600
11
37.964910
21
18.146734
0
LINE
8
Layer 1
10
37.964910
20
18.146734
11
37.975750
21
18.162955
0
LINE
8
Layer 1
10
37.975750
20
18.162955
11
37.991970
21
18.173794
0
LINE
8
Layer 1
10
37.991970
20
18.173794
11
38.011100
21
18.177600
0
LINE
8
Layer 1
10
38.011100
20
18.177600
11
38.786100
21
18.177600
0
LINE
8
Layer 1
10
38.786100
20
18.177600
11
38.805230
21
18.173794
0
LINE
8
Layer 1
10
38.805230
20
18.173794
11
38.821460
21
18.162955
0
LINE
8
Layer 1
10
38.821460
20
18.162955
11
38.832290
21
18.146734
0
LINE
8
Layer 1
10
38.832290
20
18.146734
11
38.836100
21
18.127600
0
LINE
8
Layer 1
10
38.836100
20
18.127600
11
38.836100
21
18.027600
0
LINE
8
Layer 1
10
38.836100
20
18.027600
11
38.832290
21
18.008466
0
LINE
8
Layer 1
10
38.832290
20
18.008466
11
38.821460
21
17.992245
0
LINE
8
Layer 1
10
38.821460
20
17.992245
11
38.805230
21
17.981406
0
LINE
8
Layer 1
10
38.805230
20
17.981406
11
38.786100
21
17.977600
0
LINE
8
Layer 1
10
38.786100
20
17.977600
11
38.011100
21
17.977600
0
LINE
8
Layer 1
10
38.011100
20
17.577600
11
37.991970
21
17.581406
0
LINE
8
Layer 1
10
37.991970
20
17.581406
11
37.975750
21
17.592245
0
LINE
8
Layer 1
10
37.975750
20
17.592245
11
37.964910
21
17.608466
0
LINE
8
Layer 1
10
37.964910
20
17.608466
11
37.961100
21
17.627600
0
LINE
8
Layer 1
10
37.961100
20
17.627600
11
37.961100
21
17.727600
0
LINE
8
Layer 1
10
37.961100
20
17.727600
11
37.964910
21
17.746734
0
LINE
8
Layer 1
10
37.964910
20
17.746734
11
37.975750
21
17.762955
0
LINE
8
Layer 1
10
37.975750
20
17.762955
11
37.991970
21
17.773794
0
LINE
8
Layer 1
10
37.991970
20
17.773794
11
38.011100
21
17.777600
0
LINE
8
Layer 1
10
38.011100
20
17.777600
11
38.786100
21
17.777600
0
LINE
8
Layer 1
10
38.786100
20
17.777600
11
38.805230
21
17.773794
0
LINE
8
Layer 1
10
38.805230
20
17.773794
11
38.821460
21
17.762955
0
LINE
8
Layer 1
10
38.821460
20
17.762955
11
38.832290
21
17.746734
0
LINE
8
Layer 1
10
38.832290
20
17.746734
11
38.836100
21
17.727600
0
LINE
8
Layer 1
10
38.836100
20
17.727600
11
38.836100
21
17.627600
0
LINE
8
Layer 1
10
38.836100
20
17.627600
11
38.832290
21
17.608466
0
LINE
8
Layer 1
10
38.832290
20
17.608466
11
38.821460
21
17.592245
0
LINE
8
Layer 1
10
38.821460
20
17.592245
11
38.805230
21
17.581406
0
LINE
8
Layer 1
10
38.805230
20
17.581406
11
38.786100
21
17.577600
0
LINE
8
Layer 1
10
38.786100
20
17.577600
11
38.011100
21
17.577600
0
LINE
8
Layer 1
10
38.011100
20
17.177600
11
37.991970
21
17.181406
0
LINE
8
Layer 1
10
37.991970
20
17.181406
11
37.975750
21
17.192245
0
LINE
8
Layer 1
10
37.975750
20
17.192245
11
37.964910
21
17.208466
0
LINE
8
Layer 1
10
37.964910
20
17.208466
11
37.961100
21
17.227600
0
LINE
8
Layer 1
10
37.961100
20
17.227600
11
37.961100
21
17.327600
0
LINE
8
Layer 1
10
37.961100
20
17.327600
11
37.964910
21
17.346734
0
LINE
8
Layer 1
10
37.964910
20
17.346734
11
37.975750
21
17.362955
0
LINE
8
Layer 1
10
37.975750
20
17.362955
11
37.991970
21
17.373794
0
LINE
8
Layer 1
10
37.991970
20
17.373794
11
38.011100
21
17.377600
0
LINE
8
Layer 1
10
38.011100
20
17.377600
11
38.786100
21
17.377600
0
LINE
8
Layer 1
10
38.786100
20
17.377600
11
38.805230
21
17.373794
0
LINE
8
Layer 1
10
38.805230
20
17.373794
11
38.821460
21
17.362955
0
LINE
8
Layer 1
10
38.821460
20
17.362955
11
38.832290
21
17.346734
0
LINE
8
Layer 1
10
38.832290
20
17.346734
11
38.836100
21
17.327600
0
LINE
8
Layer 1
10
38.836100
20
17.327600
11
38.836100
21
17.227600
0
LINE
8
Layer 1
10
38.836100
20
17.227600
11
38.832290
21
17.208466
0
LINE
8
Layer 1
10
38.832290
20
17.208466
11
38.821460
21
17.192245
0
LINE
8
Layer 1
10
38.821460
20
17.192245
11
38.805230
21
17.181406
0
LINE
8
Layer 1
10
38.805230
20
17.181406
11
38.786100
21
17.177600
0
LINE
8
Layer 1
10
38.786100
20
17.177600
11
38.011100
21
17.177600
0
LINE
8
Layer 1
10
38.011100
20
16.777600
11
37.991970
21
16.781406
0
LINE
8
Layer 1
10
37.991970
20
16.781406
11
37.975750
21
16.792245
0
LINE
8
Layer 1
10
37.975750
20
16.792245
11
37.964910
21
16.808466
0
LINE
8
Layer 1
10
37.964910
20
16.808466
11
37.961100
21
16.827600
0
LINE
8
Layer 1
10
37.961100
20
16.827600
11
37.961100
21
16.927600
0
LINE
8
Layer 1
10
37.961100
20
16.927600
11
37.964910
21
16.946734
0
LINE
8
Layer 1
10
37.964910
20
16.946734
11
37.975750
21
16.962955
0
LINE
8
Layer 1
10
37.975750
20
16.962955
11
37.991970
21
16.973794
0
LINE
8
Layer 1
10
37.991970
20
16.973794
11
38.011100
21
16.977600
0
LINE
8
Layer 1
10
38.011100
20
16.977600
11
38.786100
21
16.977600
0
LINE
8
Layer 1
10
38.786100
20
16.977600
11
38.805230
21
16.973794
0
LINE
8
Layer 1
10
38.805230
20
16.973794
11
38.821460
21
16.962955
0
LINE
8
Layer 1
10
38.821460
20
16.962955
11
38.832290
21
16.946734
0
LINE
8
Layer 1
10
38.832290
20
16.946734
11
38.836100
21
16.927600
0
LINE
8
Layer 1
10
38.836100
20
16.927600
11
38.836100
21
16.827600
0
LINE
8
Layer 1
10
38.836100
20
16.827600
11
38.832290
21
16.808466
0
LINE
8
Layer 1
10
38.832290
20
16.808466
11
38.821460
21
16.792245
0
LINE
8
Layer 1
10
38.821460
20
16.792245
11
38.805230
21
16.781406
0
LINE
8
Layer 1
10
38.805230
20
16.781406
11
38.786100
21
16.777600
0
LINE
8
Layer 1
10
38.786100
20
16.777600
11
38.011100
21
16.777600
0
LINE
8
Layer 1
10
38.011100
20
16.377600
11
37.991970
21
16.381406
0
LINE
8
Layer 1
10
37.991970
20
16.381406
11
37.975750
21
16.392245
0
LINE
8
Layer 1
10
37.975750
20
16.392245
11
37.964910
21
16.408466
0
LINE
8
Layer 1
10
37.964910
20
16.408466
11
37.961100
21
16.427600
0
LINE
8
Layer 1
10
37.961100
20
16.427600
11
37.961100
21
16.527600
0
LINE
8
Layer 1
10
37.961100
20
16.527600
11
37.964910
21
16.546734
0
LINE
8
Layer 1
10
37.964910
20
16.546734
11
37.975750
21
16.562955
0
LINE
8
Layer 1
10
37.975750
20
16.562955
11
37.991970
21
16.573794
0
LINE
8
Layer 1
10
37.991970
20
16.573794
11
38.011100
21
16.577600
0
LINE
8
Layer 1
10
38.011100
20
16.577600
11
38.786100
21
16.577600
0
LINE
8
Layer 1
10
38.786100
20
16.577600
11
38.805230
21
16.573794
0
LINE
8
Layer 1
10
38.805230
20
16.573794
11
38.821460
21
16.562955
0
LINE
8
Layer 1
10
38.821460
20
16.562955
11
38.832290
21
16.546734
0
LINE
8
Layer 1
10
38.832290
20
16.546734
11
38.836100
21
16.527600
0
LINE
8
Layer 1
10
38.836100
20
16.527600
11
38.836100
21
16.427600
0
LINE
8
Layer 1
10
38.836100
20
16.427600
11
38.832290
21
16.408466
0
LINE
8
Layer 1
10
38.832290
20
16.408466
11
38.821460
21
16.392245
0
LINE
8
Layer 1
10
38.821460
20
16.392245
11
38.805230
21
16.381406
0
LINE
8
Layer 1
10
38.805230
20
16.381406
11
38.786100
21
16.377600
0
LINE
8
Layer 1
10
38.786100
20
16.377600
11
38.011100
21
16.377600
0
LINE
8
Layer 1
10
38.011100
20
15.977600
11
37.991970
21
15.981406
0
LINE
8
Layer 1
10
37.991970
20
15.981406
11
37.975750
21
15.992245
0
LINE
8
Layer 1
10
37.975750
20
15.992245
11
37.964910
21
16.008466
0
LINE
8
Layer 1
10
37.964910
20
16.008466
11
37.961100
21
16.027600
0
LINE
8
Layer 1
10
37.961100
20
16.027600
11
37.961100
21
16.127600
0
LINE
8
Layer 1
10
37.961100
20
16.127600
11
37.964910
21
16.146734
0
LINE
8
Layer 1
10
37.964910
20
16.146734
11
37.975750
21
16.162955
0
LINE
8
Layer 1
10
37.975750
20
16.162955
11
37.991970
21
16.173794
0
LINE
8
Layer 1
10
37.991970
20
16.173794
11
38.011100
21
16.177600
0
LINE
8
Layer 1
10
38.011100
20
16.177600
11
38.786100
21
16.177600
0
LINE
8
Layer 1
10
38.786100
20
16.177600
11
38.805230
21
16.173794
0
LINE
8
Layer 1
10
38.805230
20
16.173794
11
38.821460
21
16.162955
0
LINE
8
Layer 1
10
38.821460
20
16.162955
11
38.832290
21
16.146734
0
LINE
8
Layer 1
10
38.832290
20
16.146734
11
38.836100
21
16.127600
0
LINE
8
Layer 1
10
38.836100
20
16.127600
11
38.836100
21
16.027600
0
LINE
8
Layer 1
10
38.836100
20
16.027600
11
38.832290
21
16.008466
0
LINE
8
Layer 1
10
38.832290
20
16.008466
11
38.821460
21
15.992245
0
LINE
8
Layer 1
10
38.821460
20
15.992245
11
38.805230
21
15.981406
0
LINE
8
Layer 1
10
38.805230
20
15.981406
11
38.786100
21
15.977600
0
LINE
8
Layer 1
10
38.786100
20
15.977600
11
38.011100
21
15.977600
0
LINE
8
Layer 1
10
38.011100
20
15.577600
11
37.991970
21
15.581406
0
LINE
8
Layer 1
10
37.991970
20
15.581406
11
37.975750
21
15.592245
0
LINE
8
Layer 1
10
37.975750
20
15.592245
11
37.964910
21
15.608466
0
LINE
8
Layer 1
10
37.964910
20
15.608466
11
37.961100
21
15.627600
0
LINE
8
Layer 1
10
37.961100
20
15.627600
11
37.961100
21
15.727600
0
LINE
8
Layer 1
10
37.961100
20
15.727600
11
37.964910
21
15.746734
0
LINE
8
Layer 1
10
37.964910
20
15.746734
11
37.975750
21
15.762955
0
LINE
8
Layer 1
10
37.975750
20
15.762955
11
37.991970
21
15.773794
0
LINE
8
Layer 1
10
37.991970
20
15.773794
11
38.011100
21
15.777600
0
LINE
8
Layer 1
10
38.011100
20
15.777600
11
38.786100
21
15.777600
0
LINE
8
Layer 1
10
38.786100
20
15.777600
11
38.805230
21
15.773794
0
LINE
8
Layer 1
10
38.805230
20
15.773794
11
38.821460
21
15.762955
0
LINE
8
Layer 1
10
38.821460
20
15.762955
11
38.832290
21
15.746734
0
LINE
8
Layer 1
10
38.832290
20
15.746734
11
38.836100
21
15.727600
0
LINE
8
Layer 1
10
38.836100
20
15.727600
11
38.836100
21
15.627600
0
LINE
8
Layer 1
10
38.836100
20
15.627600
11
38.832290
21
15.608466
0
LINE
8
Layer 1
10
38.832290
20
15.608466
11
38.821460
21
15.592245
0
LINE
8
Layer 1
10
38.821460
20
15.592245
11
38.805230
21
15.581406
0
LINE
8
Layer 1
10
38.805230
20
15.581406
11
38.786100
21
15.577600
0
LINE
8
Layer 1
10
38.786100
20
15.577600
11
38.011100
21
15.577600
0
LINE
8
Layer 1
10
38.011100
20
15.177600
11
37.967490
21
15.204610
0
LINE
8
Layer 1
10
37.967490
20
15.204610
11
37.961100
21
15.279650
0
LINE
8
Layer 1
10
37.961100
20
15.279650
11
37.968010
21
15.351371
0
LINE
8
Layer 1
10
37.968010
20
15.351371
11
38.024110
21
15.377600
0
LINE
8
Layer 1
10
38.024110
20
15.377600
11
38.786100
21
15.377600
0
LINE
8
Layer 1
10
38.786100
20
15.377600
11
38.829720
21
15.350587
0
LINE
8
Layer 1
10
38.829720
20
15.350587
11
38.836100
21
15.275550
0
LINE
8
Layer 1
10
38.836100
20
15.275550
11
38.829190
21
15.203828
0
LINE
8
Layer 1
10
38.829190
20
15.203828
11
38.773090
21
15.177600
0
LINE
8
Layer 1
10
38.773090
20
15.177600
11
38.011100
21
15.177600
0
LINE
8
Layer 1
10
38.011100
20
15.177600
11
38.011100
21
15.177600
0
LINE
8
Layer 1
10
38.011100
20
14.777600
11
37.967490
21
14.804610
0
LINE
8
Layer 1
10
37.967490
20
14.804610
11
37.961100
21
14.879650
0
LINE
8
Layer 1
10
37.961100
20
14.879650
11
37.968010
21
14.951371
0
LINE
8
Layer 1
10
37.968010
20
14.951371
11
38.024110
21
14.977600
0
LINE
8
Layer 1
10
38.024110
20
14.977600
11
38.786100
21
14.977600
0
LINE
8
Layer 1
10
38.786100
20
14.977600
11
38.829720
21
14.950587
0
LINE
8
Layer 1
10
38.829720
20
14.950587
11
38.836100
21
14.875550
0
LINE
8
Layer 1
10
38.836100
20
14.875550
11
38.829190
21
14.803828
0
LINE
8
Layer 1
10
38.829190
20
14.803828
11
38.773090
21
14.777600
0
LINE
8
Layer 1
10
38.773090
20
14.777600
11
38.011100
21
14.777600
0
LINE
8
Layer 1
10
38.011100
20
14.777600
11
38.011100
21
14.777600
0
LINE
8
Layer 1
10
58.086100
20
30.087600
11
58.086100
21
31.247600
0
LINE
8
Layer 1
10
58.086100
20
31.247600
11
58.686100
21
31.247600
0
LINE
8
Layer 1
10
58.686100
20
31.247600
11
58.686100
21
30.087600
0
LINE
8
Layer 1
10
58.686100
20
30.087600
11
58.086100
21
30.087600
0
LINE
8
Layer 1
10
58.086100
20
30.087600
11
58.086100
21
30.087600
0
LINE
8
Layer 1
10
58.886100
20
30.087600
11
58.886100
21
31.247600
0
LINE
8
Layer 1
10
58.886100
20
31.247600
11
59.486100
21
31.247600
0
LINE
8
Layer 1
10
59.486100
20
31.247600
11
59.486100
21
30.087600
0
LINE
8
Layer 1
10
59.486100
20
30.087600
11
58.886100
21
30.087600
0
LINE
8
Layer 1
10
58.886100
20
30.087600
11
58.886100
21
30.087600
0
LINE
8
Layer 1
10
60.486100
20
31.247600
11
60.486100
21
30.087600
0
LINE
8
Layer 1
10
60.486100
20
30.087600
11
60.186100
21
30.087600
0
LINE
8
Layer 1
10
60.186100
20
30.087600
11
60.186100
21
31.247600
0
LINE
8
Layer 1
10
60.186100
20
31.247600
11
60.486100
21
31.247600
0
LINE
8
Layer 1
10
60.486100
20
31.247600
11
60.486100
21
31.247600
0
LINE
8
Layer 1
10
61.486100
20
31.247600
11
61.486100
21
30.087600
0
LINE
8
Layer 1
10
61.486100
20
30.087600
11
61.186100
21
30.087600
0
LINE
8
Layer 1
10
61.186100
20
30.087600
11
61.186100
21
31.247600
0
LINE
8
Layer 1
10
61.186100
20
31.247600
11
61.486100
21
31.247600
0
LINE
8
Layer 1
10
61.486100
20
31.247600
11
61.486100
21
31.247600
0
LINE
8
Layer 1
10
61.986100
20
31.247600
11
61.986100
21
30.087600
0
LINE
8
Layer 1
10
61.986100
20
30.087600
11
61.686100
21
30.087600
0
LINE
8
Layer 1
10
61.686100
20
30.087600
11
61.686100
21
31.247600
0
LINE
8
Layer 1
10
61.686100
20
31.247600
11
61.986100
21
31.247600
0
LINE
8
Layer 1
10
61.986100
20
31.247600
11
61.986100
21
31.247600
0
LINE
8
Layer 1
10
62.986100
20
31.247600
11
62.986100
21
30.087600
0
LINE
8
Layer 1
10
62.986100
20
30.087600
11
62.686100
21
30.087600
0
LINE
8
Layer 1
10
62.686100
20
30.087600
11
62.686100
21
31.247600
0
LINE
8
Layer 1
10
62.686100
20
31.247600
11
62.986100
21
31.247600
0
LINE
8
Layer 1
10
62.986100
20
31.247600
11
62.986100
21
31.247600
0
LINE
8
Layer 1
10
63.686100
20
30.087600
11
63.686100
21
31.247600
0
LINE
8
Layer 1
10
63.686100
20
31.247600
11
64.286100
21
31.247600
0
LINE
8
Layer 1
10
64.286100
20
31.247600
11
64.286100
21
30.087600
0
LINE
8
Layer 1
10
64.286100
20
30.087600
11
63.686100
21
30.087600
0
LINE
8
Layer 1
10
63.686100
20
30.087600
11
63.686100
21
30.087600
0
LINE
8
Layer 1
10
64.486100
20
30.087600
11
64.486100
21
31.247600
0
LINE
8
Layer 1
10
64.486100
20
31.247600
11
65.086100
21
31.247600
0
LINE
8
Layer 1
10
65.086100
20
31.247600
11
65.086100
21
30.087600
0
LINE
8
Layer 1
10
65.086100
20
30.087600
11
64.486100
21
30.087600
0
LINE
8
Layer 1
10
64.486100
20
30.087600
11
64.486100
21
30.087600
0
LINE
8
Layer 1
10
64.486100
20
30.087600
11
64.486100
21
31.247600
0
LINE
8
Layer 1
10
64.486100
20
31.247600
11
65.086100
21
31.247600
0
LINE
8
Layer 1
10
65.086100
20
31.247600
11
65.086100
21
30.087600
0
LINE
8
Layer 1
10
65.086100
20
30.087600
11
64.486100
21
30.087600
0
LINE
8
Layer 1
10
64.486100
20
30.087600
11
64.486100
21
30.087600
0
LINE
8
Layer 1
10
63.686100
20
30.087600
11
63.686100
21
31.247600
0
LINE
8
Layer 1
10
63.686100
20
31.247600
11
64.286100
21
31.247600
0
LINE
8
Layer 1
10
64.286100
20
31.247600
11
64.286100
21
30.087600
0
LINE
8
Layer 1
10
64.286100
20
30.087600
11
63.686100
21
30.087600
0
LINE
8
Layer 1
10
63.686100
20
30.087600
11
63.686100
21
30.087600
0
LINE
8
Layer 1
10
63.486100
20
31.247600
11
63.486100
21
30.087600
0
LINE
8
Layer 1
10
63.486100
20
30.087600
11
63.186100
21
30.087600
0
LINE
8
Layer 1
10
63.186100
20
30.087600
11
63.186100
21
31.247600
0
LINE
8
Layer 1
10
63.186100
20
31.247600
11
63.486100
21
31.247600
0
LINE
8
Layer 1
10
63.486100
20
31.247600
11
63.486100
21
31.247600
0
LINE
8
Layer 1
10
62.486100
20
31.247600
11
62.486100
21
30.087600
0
LINE
8
Layer 1
10
62.486100
20
30.087600
11
62.186100
21
30.087600
0
LINE
8
Layer 1
10
62.186100
20
30.087600
11
62.186100
21
31.247600
0
LINE
8
Layer 1
10
62.186100
20
31.247600
11
62.486100
21
31.247600
0
LINE
8
Layer 1
10
62.486100
20
31.247600
11
62.486100
21
31.247600
0
LINE
8
Layer 1
10
60.986100
20
31.247600
11
60.986100
21
30.087600
0
LINE
8
Layer 1
10
60.986100
20
30.087600
11
60.686100
21
30.087600
0
LINE
8
Layer 1
10
60.686100
20
30.087600
11
60.686100
21
31.247600
0
LINE
8
Layer 1
10
60.686100
20
31.247600
11
60.986100
21
31.247600
0
LINE
8
Layer 1
10
60.986100
20
31.247600
11
60.986100
21
31.247600
0
LINE
8
Layer 1
10
59.986100
20
31.247600
11
59.986100
21
30.087600
0
LINE
8
Layer 1
10
59.986100
20
30.087600
11
59.686100
21
30.087600
0
LINE
8
Layer 1
10
59.686100
20
30.087600
11
59.686100
21
31.247600
0
LINE
8
Layer 1
10
59.686100
20
31.247600
11
59.986100
21
31.247600
0
LINE
8
Layer 1
10
59.986100
20
31.247600
11
59.986100
21
31.247600
0
LINE
8
Layer 1
10
58.886100
20
30.087600
11
58.886100
21
31.247600
0
LINE
8
Layer 1
10
58.886100
20
31.247600
11
59.486100
21
31.247600
0
LINE
8
Layer 1
10
59.486100
20
31.247600
11
59.486100
21
30.087600
0
LINE
8
Layer 1
10
59.486100
20
30.087600
11
58.886100
21
30.087600
0
LINE
8
Layer 1
10
58.886100
20
30.087600
11
58.886100
21
30.087600
0
LINE
8
Layer 1
10
58.086100
20
30.087600
11
58.086100
21
31.247600
0
LINE
8
Layer 1
10
58.086100
20
31.247600
11
58.686100
21
31.247600
0
LINE
8
Layer 1
10
58.686100
20
31.247600
11
58.686100
21
30.087600
0
LINE
8
Layer 1
10
58.686100
20
30.087600
11
58.086100
21
30.087600
0
LINE
8
Layer 1
10
58.086100
20
30.087600
11
58.086100
21
30.087600
0
LINE
8
Layer 1
10
66.286100
20
23.602600
11
66.153720
21
23.386297
0
LINE
8
Layer 1
10
66.153720
20
23.386297
11
65.787080
21
23.352600
0
LINE
8
Layer 1
10
65.787080
20
23.352600
11
65.259930
21
23.357805
0
LINE
8
Layer 1
10
65.259930
20
23.357805
11
65.041250
21
23.576709
0
LINE
8
Layer 1
10
65.041250
20
23.576709
11
65.036100
21
24.180674
0
LINE
8
Layer 1
10
65.036100
20
24.180674
11
65.039570
21
24.870045
0
LINE
8
Layer 1
10
65.039570
20
24.870045
11
65.207880
21
25.087040
0
LINE
8
Layer 1
10
65.207880
20
25.087040
11
65.650730
21
25.102600
0
LINE
8
Layer 1
10
65.650730
20
25.102600
11
66.070990
21
25.095660
0
LINE
8
Layer 1
10
66.070990
20
25.095660
11
66.280950
21
24.878490
0
LINE
8
Layer 1
10
66.280950
20
24.878490
11
66.286100
21
24.274526
0
LINE
8
Layer 1
10
66.286100
20
24.274526
11
66.286100
21
23.602600
0
LINE
8
Layer 1
10
66.286100
20
23.602600
11
66.286100
21
23.602600
0
LINE
8
Layer 1
10
63.486100
20
23.602600
11
63.353720
21
23.386297
0
LINE
8
Layer 1
10
63.353720
20
23.386297
11
62.987080
21
23.352600
0
LINE
8
Layer 1
10
62.987080
20
23.352600
11
62.459930
21
23.357805
0
LINE
8
Layer 1
10
62.459930
20
23.357805
11
62.241250
21
23.576709
0
LINE
8
Layer 1
10
62.241250
20
23.576709
11
62.236100
21
24.180674
0
LINE
8
Layer 1
10
62.236100
20
24.180674
11
62.239570
21
24.870045
0
LINE
8
Layer 1
10
62.239570
20
24.870045
11
62.407880
21
25.087040
0
LINE
8
Layer 1
10
62.407880
20
25.087040
11
62.850730
21
25.102600
0
LINE
8
Layer 1
10
62.850730
20
25.102600
11
63.270990
21
25.095660
0
LINE
8
Layer 1
10
63.270990
20
25.095660
11
63.480950
21
24.878490
0
LINE
8
Layer 1
10
63.480950
20
24.878490
11
63.486100
21
24.274526
0
LINE
8
Layer 1
10
63.486100
20
24.274526
11
63.486100
21
23.602600
0
LINE
8
Layer 1
10
63.486100
20
23.602600
11
63.486100
21
23.602600
0
LINE
8
Layer 1
10
62.826100
20
28.727600
11
63.072230
21
28.974948
0
LINE
8
Layer 1
10
63.072230
20
28.974948
11
63.595460
21
28.975444
0
LINE
8
Layer 1
10
63.595460
20
28.975444
11
63.779237
21
28.897229
0
LINE
8
Layer 1
10
63.779237
20
28.897229
11
63.850170
21
28.709888
0
LINE
8
Layer 1
10
63.850170
20
28.709888
11
63.848590
21
27.815004
0
LINE
8
Layer 1
10
63.848590
20
27.815004
11
63.583390
21
27.578530
0
LINE
8
Layer 1
10
63.583390
20
27.578530
11
63.063150
21
27.581545
0
LINE
8
Layer 1
10
63.063150
20
27.581545
11
62.827030
21
27.845313
0
LINE
8
Layer 1
10
62.827030
20
27.845313
11
62.826100
21
28.727601
0
LINE
8
Layer 1
10
62.826100
20
28.727601
11
62.826100
21
28.727600
0
LINE
8
Layer 1
10
64.651100
20
28.727600
11
64.897230
21
28.974948
0
LINE
8
Layer 1
10
64.897230
20
28.974948
11
65.420460
21
28.975444
0
LINE
8
Layer 1
10
65.420460
20
28.975444
11
65.604237
21
28.897229
0
LINE
8
Layer 1
10
65.604237
20
28.897229
11
65.675170
21
28.709888
0
LINE
8
Layer 1
10
65.675170
20
28.709888
11
65.673590
21
27.815004
0
LINE
8
Layer 1
10
65.673590
20
27.815004
11
65.408390
21
27.578530
0
LINE
8
Layer 1
10
65.408390
20
27.578530
11
64.888150
21
27.581545
0
LINE
8
Layer 1
10
64.888150
20
27.581545
11
64.652030
21
27.845313
0
LINE
8
Layer 1
10
64.652030
20
27.845313
11
64.651100
21
28.727601
0
LINE
8
Layer 1
10
64.651100
20
28.727601
11
64.651100
21
28.727600
0
LINE
8
Layer 1
10
34.886100
20
22.927600
11
34.790430
21
22.946630
0
LINE
8
Layer 1
10
34.790430
20
22.946630
11
34.709320
21
23.000823
0
LINE
8
Layer 1
10
34.709320
20
23.000823
11
34.655130
21
23.081929
0
LINE
8
Layer 1
10
34.655130
20
23.081929
11
34.636100
21
23.177600
0
LINE
8
Layer 1
10
34.636100
20
23.177600
11
34.636100
21
23.677600
0
LINE
8
Layer 1
10
34.636100
20
23.677600
11
34.655130
21
23.773271
0
LINE
8
Layer 1
10
34.655130
20
23.773271
11
34.709320
21
23.854377
0
LINE
8
Layer 1
10
34.709320
20
23.854377
11
34.790430
21
23.908570
0
LINE
8
Layer 1
10
34.790430
20
23.908570
11
34.886100
21
23.927600
0
LINE
8
Layer 1
10
34.886100
20
23.927600
11
35.836100
21
23.927600
0
LINE
8
Layer 1
10
35.836100
20
23.927600
11
35.931770
21
23.908570
0
LINE
8
Layer 1
10
35.931770
20
23.908570
11
36.012880
21
23.854377
0
LINE
8
Layer 1
10
36.012880
20
23.854377
11
36.067070
21
23.773271
0
LINE
8
Layer 1
10
36.067070
20
23.773271
11
36.086100
21
23.677600
0
LINE
8
Layer 1
10
36.086100
20
23.677600
11
36.086100
21
23.177600
0
LINE
8
Layer 1
10
36.086100
20
23.177600
11
36.067070
21
23.081929
0
LINE
8
Layer 1
10
36.067070
20
23.081929
11
36.012880
21
23.000823
0
LINE
8
Layer 1
10
36.012880
20
23.000823
11
35.931770
21
22.946630
0
LINE
8
Layer 1
10
35.931770
20
22.946630
11
35.836100
21
22.927600
0
LINE
8
Layer 1
10
35.836100
20
22.927600
11
34.886100
21
22.927600
0
LINE
8
Layer 1
10
34.886100
20
24.827600
11
34.790430
21
24.846630
0
LINE
8
Layer 1
10
34.790430
20
24.846630
11
34.709320
21
24.900823
0
LINE
8
Layer 1
10
34.709320
20
24.900823
11
34.655130
21
24.981929
0
LINE
8
Layer 1
10
34.655130
20
24.981929
11
34.636100
21
25.077600
0
LINE
8
Layer 1
10
34.636100
20
25.077600
11
34.636100
21
25.577600
0
LINE
8
Layer 1
10
34.636100
20
25.577600
11
34.655130
21
25.673271
0
LINE
8
Layer 1
10
34.655130
20
25.673271
11
34.709320
21
25.754377
0
LINE
8
Layer 1
10
34.709320
20
25.754377
11
34.790430
21
25.808570
0
LINE
8
Layer 1
10
34.790430
20
25.808570
11
34.886100
21
25.827600
0
LINE
8
Layer 1
10
34.886100
20
25.827600
11
35.836100
21
25.827600
0
LINE
8
Layer 1
10
35.836100
20
25.827600
11
35.931770
21
25.808570
0
LINE
8
Layer 1
10
35.931770
20
25.808570
11
36.012880
21
25.754377
0
LINE
8
Layer 1
10
36.012880
20
25.754377
11
36.067070
21
25.673271
0
LINE
8
Layer 1
10
36.067070
20
25.673271
11
36.086100
21
25.577600
0
LINE
8
Layer 1
10
36.086100
20
25.577600
11
36.086100
21
25.077600
0
LINE
8
Layer 1
10
36.086100
20
25.077600
11
36.067070
21
24.981929
0
LINE
8
Layer 1
10
36.067070
20
24.981929
11
36.012880
21
24.900823
0
LINE
8
Layer 1
10
36.012880
20
24.900823
11
35.931770
21
24.846630
0
LINE
8
Layer 1
10
35.931770
20
24.846630
11
35.836100
21
24.827600
0
LINE
8
Layer 1
10
35.836100
20
24.827600
11
34.886100
21
24.827600
0
LINE
8
Layer 1
10
38.196100
20
11.997900
11
38.444120
21
11.742196
0
LINE
8
Layer 1
10
38.444120
20
11.742196
11
38.443960
21
11.246654
0
LINE
8
Layer 1
10
38.443960
20
11.246654
11
38.356526
21
11.061952
0
LINE
8
Layer 1
10
38.356526
20
11.061952
11
38.160320
21
10.998073
0
LINE
8
Layer 1
10
38.160320
20
10.998073
11
37.220220
21
11.002385
0
LINE
8
Layer 1
10
37.220220
20
11.002385
11
36.996510
21
11.275935
0
LINE
8
Layer 1
10
36.996510
20
11.275935
11
37.000470
21
11.769411
0
LINE
8
Layer 1
10
37.000470
20
11.769411
11
37.165536
21
11.976131
0
LINE
8
Layer 1
10
37.165536
20
11.976131
11
37.281890
21
11.997727
0
LINE
8
Layer 1
10
37.281890
20
11.997727
11
38.196100
21
11.997900
0
LINE
8
Layer 1
10
38.196100
20
11.997900
11
38.196100
21
11.997900
0
LINE
8
Layer 1
10
38.196100
20
10.097900
11
38.444120
21
9.842196
0
LINE
8
Layer 1
10
38.444120
20
9.842196
11
38.443960
21
9.346654
0
LINE
8
Layer 1
10
38.443960
20
9.346654
11
38.356526
21
9.161952
0
LINE
8
Layer 1
10
38.356526
20
9.161952
11
38.160320
21
9.098073
0
LINE
8
Layer 1
10
38.160320
20
9.098073
11
37.220220
21
9.102385
0
LINE
8
Layer 1
10
37.220220
20
9.102385
11
36.996510
21
9.375935
0
LINE
8
Layer 1
10
36.996510
20
9.375935
11
37.000470
21
9.869411
0
LINE
8
Layer 1
10
37.000470
20
9.869411
11
37.165536
21
10.076131
0
LINE
8
Layer 1
10
37.165536
20
10.076131
11
37.281890
21
10.097727
0
LINE
8
Layer 1
10
37.281890
20
10.097727
11
38.196100
21
10.097900
0
LINE
8
Layer 1
10
38.196100
20
10.097900
11
38.196100
21
10.097900
0
LINE
8
Layer 1
10
31.796400
20
11.995500
11
32.046400
21
11.733152
0
LINE
8
Layer 1
10
32.046400
20
11.733152
11
32.027370
21
11.149829
0
LINE
8
Layer 1
10
32.027370
20
11.149829
11
31.709970
21
10.995500
0
LINE
8
Layer 1
10
31.709970
20
10.995500
11
30.822180
21
11.000318
0
LINE
8
Layer 1
10
30.822180
20
11.000318
11
30.645881
21
11.104073
0
LINE
8
Layer 1
10
30.645881
20
11.104073
11
30.596400
21
11.307239
0
LINE
8
Layer 1
10
30.596400
20
11.307239
11
30.615430
21
11.841171
0
LINE
8
Layer 1
10
30.615430
20
11.841171
11
30.932830
21
11.995500
0
LINE
8
Layer 1
10
30.932830
20
11.995500
11
31.796400
21
11.995500
0
LINE
8
Layer 1
10
31.796400
20
11.995500
11
31.796400
21
11.995500
0
LINE
8
Layer 1
10
31.796400
20
10.095500
11
32.046400
21
9.833152
0
LINE
8
Layer 1
10
32.046400
20
9.833152
11
32.027370
21
9.249829
0
LINE
8
Layer 1
10
32.027370
20
9.249829
11
31.709970
21
9.095500
0
LINE
8
Layer 1
10
31.709970
20
9.095500
11
30.822180
21
9.100318
0
LINE
8
Layer 1
10
30.822180
20
9.100318
11
30.645881
21
9.204073
0
LINE
8
Layer 1
10
30.645881
20
9.204073
11
30.596400
21
9.407239
0
LINE
8
Layer 1
10
30.596400
20
9.407239
11
30.615430
21
9.941171
0
LINE
8
Layer 1
10
30.615430
20
9.941171
11
30.932830
21
10.095500
0
LINE
8
Layer 1
10
30.932830
20
10.095500
11
31.796400
21
10.095500
0
LINE
8
Layer 1
10
31.796400
20
10.095500
11
31.796400
21
10.095500
0
LINE
8
Layer 1
10
36.986100
20
22.927600
11
36.890430
21
22.946630
0
LINE
8
Layer 1
10
36.890430
20
22.946630
11
36.809320
21
23.000823
0
LINE
8
Layer 1
10
36.809320
20
23.000823
11
36.755130
21
23.081929
0
LINE
8
Layer 1
10
36.755130
20
23.081929
11
36.736100
21
23.177600
0
LINE
8
Layer 1
10
36.736100
20
23.177600
11
36.736100
21
23.677600
0
LINE
8
Layer 1
10
36.736100
20
23.677600
11
36.755130
21
23.773271
0
LINE
8
Layer 1
10
36.755130
20
23.773271
11
36.809320
21
23.854377
0
LINE
8
Layer 1
10
36.809320
20
23.854377
11
36.890430
21
23.908570
0
LINE
8
Layer 1
10
36.890430
20
23.908570
11
36.986100
21
23.927600
0
LINE
8
Layer 1
10
36.986100
20
23.927600
11
37.936100
21
23.927600
0
LINE
8
Layer 1
10
37.936100
20
23.927600
11
38.031770
21
23.908570
0
LINE
8
Layer 1
10
38.031770
20
23.908570
11
38.112880
21
23.854377
0
LINE
8
Layer 1
10
38.112880
20
23.854377
11
38.167070
21
23.773271
0
LINE
8
Layer 1
10
38.167070
20
23.773271
11
38.186100
21
23.677600
0
LINE
8
Layer 1
10
38.186100
20
23.677600
11
38.186100
21
23.177600
0
LINE
8
Layer 1
10
38.186100
20
23.177600
11
38.167070
21
23.081929
0
LINE
8
Layer 1
10
38.167070
20
23.081929
11
38.112880
21
23.000823
0
LINE
8
Layer 1
10
38.112880
20
23.000823
11
38.031770
21
22.946630
0
LINE
8
Layer 1
10
38.031770
20
22.946630
11
37.936100
21
22.927600
0
LINE
8
Layer 1
10
37.936100
20
22.927600
11
36.986100
21
22.927600
0
LINE
8
Layer 1
10
36.986100
20
24.827600
11
36.890430
21
24.846630
0
LINE
8
Layer 1
10
36.890430
20
24.846630
11
36.809320
21
24.900823
0
LINE
8
Layer 1
10
36.809320
20
24.900823
11
36.755130
21
24.981929
0
LINE
8
Layer 1
10
36.755130
20
24.981929
11
36.736100
21
25.077600
0
LINE
8
Layer 1
10
36.736100
20
25.077600
11
36.736100
21
25.577600
0
LINE
8
Layer 1
10
36.736100
20
25.577600
11
36.755130
21
25.673271
0
LINE
8
Layer 1
10
36.755130
20
25.673271
11
36.809320
21
25.754377
0
LINE
8
Layer 1
10
36.809320
20
25.754377
11
36.890430
21
25.808570
0
LINE
8
Layer 1
10
36.890430
20
25.808570
11
36.986100
21
25.827600
0
LINE
8
Layer 1
10
36.986100
20
25.827600
11
37.936100
21
25.827600
0
LINE
8
Layer 1
10
37.936100
20
25.827600
11
38.031770
21
25.808570
0
LINE
8
Layer 1
10
38.031770
20
25.808570
11
38.112880
21
25.754377
0
LINE
8
Layer 1
10
38.112880
20
25.754377
11
38.167070
21
25.673271
0
LINE
8
Layer 1
10
38.167070
20
25.673271
11
38.186100
21
25.577600
0
LINE
8
Layer 1
10
38.186100
20
25.577600
11
38.186100
21
25.077600
0
LINE
8
Layer 1
10
38.186100
20
25.077600
11
38.167070
21
24.981929
0
LINE
8
Layer 1
10
38.167070
20
24.981929
11
38.112880
21
24.900823
0
LINE
8
Layer 1
10
38.112880
20
24.900823
11
38.031770
21
24.846630
0
LINE
8
Layer 1
10
38.031770
20
24.846630
11
37.936100
21
24.827600
0
LINE
8
Layer 1
10
37.936100
20
24.827600
11
36.986100
21
24.827600
0
LINE
8
Layer 1
10
39.086100
20
22.927600
11
38.990430
21
22.946630
0
LINE
8
Layer 1
10
38.990430
20
22.946630
11
38.909320
21
23.000823
0
LINE
8
Layer 1
10
38.909320
20
23.000823
11
38.855130
21
23.081929
0
LINE
8
Layer 1
10
38.855130
20
23.081929
11
38.836100
21
23.177600
0
LINE
8
Layer 1
10
38.836100
20
23.177600
11
38.836100
21
23.677600
0
LINE
8
Layer 1
10
38.836100
20
23.677600
11
38.855130
21
23.773271
0
LINE
8
Layer 1
10
38.855130
20
23.773271
11
38.909320
21
23.854377
0
LINE
8
Layer 1
10
38.909320
20
23.854377
11
38.990430
21
23.908570
0
LINE
8
Layer 1
10
38.990430
20
23.908570
11
39.086100
21
23.927600
0
LINE
8
Layer 1
10
39.086100
20
23.927600
11
40.036100
21
23.927600
0
LINE
8
Layer 1
10
40.036100
20
23.927600
11
40.131770
21
23.908570
0
LINE
8
Layer 1
10
40.131770
20
23.908570
11
40.212880
21
23.854377
0
LINE
8
Layer 1
10
40.212880
20
23.854377
11
40.267070
21
23.773271
0
LINE
8
Layer 1
10
40.267070
20
23.773271
11
40.286100
21
23.677600
0
LINE
8
Layer 1
10
40.286100
20
23.677600
11
40.286100
21
23.177600
0
LINE
8
Layer 1
10
40.286100
20
23.177600
11
40.267070
21
23.081929
0
LINE
8
Layer 1
10
40.267070
20
23.081929
11
40.212880
21
23.000823
0
LINE
8
Layer 1
10
40.212880
20
23.000823
11
40.131770
21
22.946630
0
LINE
8
Layer 1
10
40.131770
20
22.946630
11
40.036100
21
22.927600
0
LINE
8
Layer 1
10
40.036100
20
22.927600
11
39.086100
21
22.927600
0
LINE
8
Layer 1
10
39.086100
20
24.827600
11
38.990430
21
24.846630
0
LINE
8
Layer 1
10
38.990430
20
24.846630
11
38.909320
21
24.900823
0
LINE
8
Layer 1
10
38.909320
20
24.900823
11
38.855130
21
24.981929
0
LINE
8
Layer 1
10
38.855130
20
24.981929
11
38.836100
21
25.077600
0
LINE
8
Layer 1
10
38.836100
20
25.077600
11
38.836100
21
25.577600
0
LINE
8
Layer 1
10
38.836100
20
25.577600
11
38.855130
21
25.673271
0
LINE
8
Layer 1
10
38.855130
20
25.673271
11
38.909320
21
25.754377
0
LINE
8
Layer 1
10
38.909320
20
25.754377
11
38.990430
21
25.808570
0
LINE
8
Layer 1
10
38.990430
20
25.808570
11
39.086100
21
25.827600
0
LINE
8
Layer 1
10
39.086100
20
25.827600
11
40.036100
21
25.827600
0
LINE
8
Layer 1
10
40.036100
20
25.827600
11
40.131770
21
25.808570
0
LINE
8
Layer 1
10
40.131770
20
25.808570
11
40.212880
21
25.754377
0
LINE
8
Layer 1
10
40.212880
20
25.754377
11
40.267070
21
25.673271
0
LINE
8
Layer 1
10
40.267070
20
25.673271
11
40.286100
21
25.577600
0
LINE
8
Layer 1
10
40.286100
20
25.577600
11
40.286100
21
25.077600
0
LINE
8
Layer 1
10
40.286100
20
25.077600
11
40.267070
21
24.981929
0
LINE
8
Layer 1
10
40.267070
20
24.981929
11
40.212880
21
24.900823
0
LINE
8
Layer 1
10
40.212880
20
24.900823
11
40.131770
21
24.846630
0
LINE
8
Layer 1
10
40.131770
20
24.846630
11
40.036100
21
24.827600
0
LINE
8
Layer 1
10
40.036100
20
24.827600
11
39.086100
21
24.827600
0
LINE
8
Layer 1
10
68.878700
20
2.409970
11
68.903700
21
35.059970
0
LINE
8
Layer 1
10
2.411130
20
0.027562
11
66.428730
21
-0.040026
0
LINE
8
Layer 1
10
1.461130
20
25.177600
11
1.461130
21
23.177600
0
LINE
8
Layer 1
10
68.878700
20
2.409970
11
66.428700
21
-0.040030
0
LINE
8
Layer 1
10
-0.038867
20
35.027600
11
-0.038867
21
26.677600
0
LINE
8
Layer 1
10
2.411130
20
37.477600
11
1.473610
21
37.295783
0
LINE
8
Layer 1
10
1.473610
20
37.295783
11
0.682353
21
36.756262
0
LINE
8
Layer 1
10
0.682353
20
36.756262
11
0.142985
21
35.964911
0
LINE
8
Layer 1
10
0.142985
20
35.964911
11
-0.038867
21
35.027600
0
LINE
8
Layer 1
10
2.411130
20
37.477600
11
66.453730
21
37.510012
0
LINE
8
Layer 1
10
-0.038868
20
26.677600
11
1.461130
21
25.177600
0
LINE
8
Layer 1
10
-0.038868
20
21.677600
11
-0.038868
21
2.477600
0
LINE
8
Layer 1
10
-0.038868
20
21.677600
11
1.461130
21
23.177600
0
LINE
8
Layer 1
10
-0.038868
20
2.477560
11
0.142904
21
1.540040
0
LINE
8
Layer 1
10
0.142904
20
1.540040
11
0.682412
21
0.748781
0
LINE
8
Layer 1
10
0.682412
20
0.748781
11
1.473779
21
0.209412
0
LINE
8
Layer 1
10
1.473779
20
0.209412
11
2.411132
21
0.027560
0
LINE
8
Layer 1
10
68.903700
20
35.060000
11
68.721939
21
35.997522
0
LINE
8
Layer 1
10
68.721939
20
35.997522
11
68.182437
21
36.788775
0
LINE
8
Layer 1
10
68.182437
20
36.788775
11
67.391067
21
37.328141
0
LINE
8
Layer 1
10
67.391067
20
37.328141
11
66.453700
21
37.510000
 0 
ENDSEC
 0 
EOF